<svg width="182" height="22" viewBox="0 0 182 22" fill="none" xmlns="http://www.w3.org/2000/svg">
<path fill-rule="evenodd" clip-rule="evenodd" d="M50.9204 0.141966C50.7386 0.321867 50.6295 0.546744 50.5931 0.816596C50.6295 0.834587 50.5659 1.07745 50.4022 1.5452C50.2568 2.01294 50.1114 2.47169 49.9659 2.92144C49.8387 3.3712 49.8114 3.58708 49.8841 3.56909C49.9568 3.80296 50.1023 3.80296 50.3204 3.56909C50.4477 3.44316 50.6204 3.1913 50.8386 2.8135C51.0567 2.41772 51.1931 2.12088 51.2476 1.92299C51.2658 1.86902 51.3204 1.75208 51.4113 1.57218C51.5022 1.37429 51.5749 1.19439 51.6294 1.03248C51.7021 0.870567 51.7385 0.708655 51.7385 0.546744C51.7385 0.366843 51.6749 0.240912 51.5476 0.168951C51.3294 -0.0469308 51.1204 -0.0559259 50.9204 0.141966ZM48.3024 1.92299C48.0842 2.22882 48.0752 2.48968 48.2751 2.70556C48.3842 2.83149 48.4569 3.0024 48.4933 3.21828C48.566 3.57808 48.7024 3.79397 48.9024 3.86593C49.1023 3.93789 49.2751 3.83894 49.4205 3.56909L49.5841 3.27225L49.4478 2.97541C49.3932 2.90345 49.3296 2.70556 49.2569 2.38174C49.2023 2.03993 49.1387 1.84204 49.066 1.78806C48.7933 1.57218 48.5388 1.61716 48.3024 1.92299ZM51.1658 7.9407C51.2204 7.77879 51.2749 7.70682 51.3294 7.72481C51.4022 7.72481 51.5294 7.63486 51.7112 7.45496C51.9112 7.27506 52.0748 7.10415 52.2021 6.94224C52.4021 6.67239 52.4657 6.45651 52.393 6.2946C52.3203 6.1147 52.1476 6.05173 51.8749 6.1057C51.7112 6.12369 51.5749 6.23163 51.4658 6.42952C51.3385 6.68139 51.2295 6.75335 51.1386 6.64541C50.9749 6.4655 50.9386 6.1057 51.0295 5.566C51.0658 5.42207 51.0931 5.28715 51.1113 5.16122C51.1295 5.03529 51.1386 4.95433 51.1386 4.91835C51.1386 4.88237 51.1567 4.8374 51.1931 4.78342C51.2476 4.71146 51.3113 4.6485 51.384 4.59453C51.4749 4.54056 51.6203 4.4686 51.8203 4.37865C51.9294 4.30669 52.0748 4.22573 52.2567 4.13578C52.4385 4.02784 52.5475 3.95588 52.5839 3.9199C52.6384 3.86593 52.6657 3.78497 52.6657 3.67703C52.6657 3.56909 52.6112 3.43416 52.5021 3.27225C52.2657 3.03838 51.8749 3.10135 51.3294 3.46115C50.984 3.71301 50.3113 4.07281 49.3114 4.54056C48.3297 4.99031 47.8024 5.23318 47.7297 5.26916C47.7115 5.28715 47.657 5.32313 47.5661 5.3771C47.4934 5.43107 47.4297 5.48504 47.3752 5.53901C47.3388 5.57499 47.2934 5.62896 47.2389 5.70092C47.1843 5.75489 47.1661 5.82685 47.1843 5.9168C47.2025 5.98876 47.257 6.06972 47.3479 6.15967C47.457 6.30359 47.5661 6.38455 47.6752 6.40254C47.7843 6.40254 47.957 6.33957 48.1933 6.21364C49.1932 5.70992 49.7387 5.47605 49.8296 5.51203C49.9023 5.54801 49.9477 5.70092 49.9659 5.97077C49.9841 6.54646 49.9568 6.90626 49.8841 7.05018C49.8114 7.1941 49.6023 7.28406 49.2569 7.32004C49.0387 7.33803 48.8569 7.40099 48.7115 7.50893C48.566 7.59888 48.4933 7.70682 48.4933 7.83276C48.766 8.33648 49.0751 8.53437 49.4205 8.42643C49.675 8.40844 49.8205 8.43543 49.8568 8.50739C49.8932 8.56136 49.8659 8.74126 49.775 9.04709C49.6841 9.37091 49.5296 9.62278 49.3114 9.80268C49.1114 9.98258 48.8115 10.1535 48.4115 10.3154C48.0297 10.4773 47.757 10.6122 47.5934 10.7202C47.3025 10.8461 47.1298 10.972 47.0752 11.098C47.0207 11.2239 47.057 11.3948 47.1843 11.6107C47.2207 11.7366 47.3479 11.7906 47.5661 11.7726C47.8024 11.7366 48.0206 11.6826 48.2206 11.6107C48.4388 11.5387 48.666 11.4578 48.9024 11.3678C49.1569 11.2779 49.3296 11.2239 49.4205 11.2059H49.6932L49.775 11.8536C49.8477 12.3753 49.875 12.6991 49.8568 12.825C49.8387 12.951 49.7568 13.0859 49.6114 13.2298C49.5569 13.2838 49.3569 13.4277 49.0114 13.6616C48.6842 13.8954 48.4842 14.1023 48.4115 14.2822C48.3024 14.4981 48.2933 14.66 48.3842 14.768C48.5115 14.9659 48.6751 15.0558 48.8751 15.0378C49.0933 15.0018 49.3114 14.8669 49.5296 14.633C49.6023 14.5251 49.7841 14.3992 50.075 14.2552C50.3659 14.0933 50.5386 13.9854 50.5931 13.9314C50.7749 13.7155 50.884 13.7695 50.9204 14.0933C50.9567 14.3092 50.9658 15.2447 50.9477 16.8998C50.9295 18.5549 50.9022 19.4904 50.8658 19.7063C50.7931 20.174 50.6477 20.156 50.4295 19.6523C50.3386 19.4544 50.2295 19.2835 50.1023 19.1396C49.9932 18.9956 49.9023 18.9237 49.8296 18.9237C49.775 18.9237 49.7478 19.0316 49.7478 19.2475C49.7478 19.4454 49.8841 19.8772 50.1568 20.5428C50.4477 21.1904 50.6659 21.5952 50.8113 21.7571C50.9749 21.919 51.1386 22 51.3022 22C51.484 22 51.6203 21.919 51.7112 21.7571C51.8385 21.3254 51.9203 19.8502 51.9567 17.3316C52.0112 14.8129 52.1021 13.3287 52.2294 12.879C52.3203 12.5552 52.2748 12.3033 52.093 12.1234C51.9112 11.9435 51.6658 11.9345 51.3567 12.0964C51.084 12.2044 50.9113 12.2493 50.8386 12.2313C50.784 12.1954 50.7477 12.0335 50.7295 11.7456C50.7295 11.2419 50.784 10.8371 50.8931 10.5313C51.0022 10.2254 51.2295 10.0186 51.5749 9.91062C52.2839 9.51483 52.7293 9.25398 52.9111 9.12805C53.093 8.98413 53.5566 8.58834 54.3019 7.9407C54.611 7.67084 54.7565 7.46396 54.7383 7.32004C54.6656 7.03219 54.5019 6.88827 54.2474 6.88827C54.0111 6.88827 53.7929 6.99621 53.5929 7.21209C53.502 7.30205 53.3747 7.40099 53.2111 7.50893C53.0475 7.61687 52.9293 7.73381 52.8566 7.85974C52.8384 7.94969 52.7203 8.06663 52.5021 8.21055C52.3021 8.33648 52.193 8.40844 52.1748 8.42643C52.1385 8.4804 51.9203 8.60633 51.5203 8.80422C51.1204 8.98413 50.8931 9.07408 50.8386 9.07408C50.7113 9.07408 50.7295 8.96614 50.8931 8.75025C50.9477 8.71427 50.9931 8.60633 51.0295 8.42643C51.084 8.24653 51.1295 8.08462 51.1658 7.9407ZM41.8665 5.67394C41.6484 5.58399 41.4302 5.62896 41.212 5.80886C41.0848 5.95278 40.9939 6.13269 40.9393 6.34857C40.903 6.54646 40.8575 6.94224 40.803 7.53592C40.7666 7.7518 40.7484 7.99467 40.7484 8.26452C40.7484 8.51638 40.7212 8.68729 40.6666 8.77724C40.6303 8.8492 40.5303 8.93915 40.3666 9.04709C40.0939 9.22699 39.7122 9.43388 39.2213 9.66775C38.7304 9.90162 38.3941 10.0365 38.2123 10.0725C37.8123 10.1805 37.5396 10.3784 37.3941 10.6662C37.2851 10.9181 37.2396 11.125 37.2578 11.2869C37.2942 11.4488 37.3941 11.5297 37.5578 11.5297C38.1941 11.4038 38.9849 11.089 39.9303 10.5852C39.9849 10.5493 40.0303 10.5133 40.0667 10.4773C40.3394 10.2974 40.5121 10.2974 40.5848 10.4773C40.6212 10.5852 40.5303 10.6752 40.3121 10.7472C40.0576 10.7831 39.8394 10.8911 39.6576 11.071C39.494 11.2329 39.3304 11.4938 39.1667 11.8536C38.9668 12.2134 38.694 13.0049 38.3486 14.2283C38.0032 15.4516 37.7487 16.2072 37.585 16.495C37.476 16.6209 37.4396 16.7559 37.476 16.8998C37.5123 17.0257 37.5941 17.1247 37.7214 17.1966C37.8668 17.2506 37.9941 17.2326 38.1032 17.1427C38.2304 17.0167 38.4123 16.7109 38.6486 16.2252C38.9031 15.7394 39.0486 15.4606 39.0849 15.3886C39.1213 15.2267 39.294 14.723 39.6031 13.8774C39.9121 13.0139 40.0849 12.5102 40.1212 12.3663C40.1758 12.2224 40.2212 12.0964 40.2576 11.9885C40.3848 11.7186 40.4939 11.6197 40.5848 11.6916C40.6757 11.7816 40.703 13.0499 40.6666 15.4966C40.6484 17.9432 40.5848 19.1666 40.4757 19.1666C40.4394 19.1666 40.3394 19.0136 40.1758 18.7078C40.0303 18.42 39.903 18.2221 39.794 18.1141C39.7031 18.0062 39.6213 17.9702 39.5485 18.0062C39.3667 18.0781 39.3849 18.411 39.6031 19.0046C39.8212 19.5983 40.1212 20.165 40.503 20.7047C40.7939 21.1725 41.1211 21.2444 41.4847 20.9206L41.7029 20.7047L41.7302 18.6538C41.7847 15.6855 41.7756 13.9404 41.7029 13.4187C41.6847 13.2208 41.6938 13.0589 41.7302 12.933C41.7665 12.807 41.8302 12.7441 41.9211 12.7441C41.9756 12.7441 42.1938 12.861 42.5756 13.0949C43.4846 13.6706 44.23 13.8595 44.8118 13.6616C45.1026 13.5536 45.1754 13.3647 45.0299 13.0949C44.9027 12.879 44.5572 12.7081 43.9936 12.5822C43.8118 12.5642 43.6119 12.4832 43.3937 12.3393C43.1755 12.1954 42.9301 12.0155 42.6574 11.7996C42.4029 11.5837 42.212 11.4308 42.0847 11.3408L41.7302 11.1519L41.7847 10.4233C41.8211 9.97358 41.8574 9.68574 41.8938 9.55981C41.9483 9.43388 42.0574 9.30795 42.2211 9.18202C43.0392 8.53437 43.4846 8.19256 43.5573 8.15658C43.7209 8.04864 43.8755 7.92271 44.0209 7.77878C44.1664 7.61687 44.2845 7.50893 44.3754 7.45496C44.5936 7.29305 44.6754 7.0232 44.6209 6.64541C44.5663 6.23163 44.33 6.14168 43.9118 6.37555C43.8209 6.42952 43.6664 6.4655 43.4482 6.48349C43.2301 6.50148 43.0755 6.56445 42.9846 6.67239C42.8937 6.74435 42.8483 6.80732 42.8483 6.86129C42.8665 6.89727 42.9028 6.96023 42.9574 7.05018C43.0301 7.14013 43.0664 7.1941 43.0664 7.21209C43.0664 7.26607 42.921 7.40099 42.6301 7.61687C42.3574 7.83276 42.1938 7.9407 42.1392 7.9407C42.0847 7.9407 42.0483 7.89572 42.0302 7.80577C42.0302 7.69783 42.0392 7.58089 42.0574 7.45496C42.0938 7.31104 42.1483 7.1941 42.2211 7.10415L42.4119 6.8343L42.2756 6.32158C42.2392 5.97977 42.1029 5.76389 41.8665 5.67394ZM55.2837 13.7695C55.4291 13.6436 55.5928 13.4277 55.7746 13.1219C55.9564 12.816 56.0473 12.6181 56.0473 12.5282C56.0473 12.4023 55.9018 12.2943 55.6109 12.2044C55.3382 12.0964 55.1382 12.0874 55.011 12.1774C54.9383 12.2134 54.8565 12.3033 54.7656 12.4472C54.7292 12.5192 54.611 12.7081 54.411 13.0139C54.2292 13.3198 54.102 13.5356 54.0292 13.6616C53.9565 13.7695 53.8565 13.9494 53.7293 14.2013C53.6202 14.4351 53.5293 14.66 53.4566 14.8759C53.3475 15.1278 53.2929 15.3167 53.2929 15.4426C53.3111 15.5505 53.3838 15.7124 53.5111 15.9283C53.6929 16.2342 53.9293 16.441 54.2201 16.549C54.5292 16.6569 55.0928 16.7199 55.9109 16.7379C56.7109 16.7739 57.1926 16.8188 57.3563 16.8728C58.0653 16.9987 58.5471 17.0887 58.8016 17.1427C59.0561 17.1786 59.4107 17.2686 59.8652 17.4125C60.3379 17.5564 60.7378 17.7273 61.0651 17.9252C61.3378 18.0871 61.5469 18.1771 61.6923 18.1951C61.8377 18.1951 61.9832 18.1321 62.1286 18.0062C62.4013 17.8083 62.4559 17.5654 62.2923 17.2776C62.1832 17.0797 61.7468 16.8458 60.9833 16.576C60.2379 16.3061 59.4925 16.1262 58.7471 16.0363C58.4925 16.0003 58.2653 15.9553 58.0653 15.9013C57.8653 15.8474 57.6653 15.8114 57.4653 15.7934C57.2654 15.7574 56.9745 15.7304 56.5927 15.7124C55.4837 15.6945 54.8655 15.5685 54.7383 15.3346C54.611 15.1008 54.6474 14.8759 54.8474 14.66C54.9383 14.5701 54.9928 14.4261 55.011 14.2283C55.0473 14.0124 55.1382 13.8595 55.2837 13.7695ZM47.4025 20.4079C47.7115 20.102 47.8843 19.8952 47.9206 19.7872C48.0479 19.6073 48.3569 19.2385 48.8478 18.6808C49.3387 18.1051 49.6114 17.7273 49.6659 17.5474C49.9023 17.1696 50.0386 16.8998 50.075 16.7379C50.1295 16.558 50.1295 16.3781 50.075 16.1982C50.0205 16.0183 49.8841 15.8744 49.6659 15.7664C49.466 15.6765 49.3023 15.6315 49.1751 15.6315C49.066 15.6315 48.8751 15.6855 48.6024 15.7934C48.5478 15.8294 48.4569 15.8744 48.3297 15.9283C48.2024 15.9643 48.1024 16.0003 48.0297 16.0363C47.9752 16.0543 47.9115 16.0902 47.8388 16.1442C47.7661 16.1982 47.7297 16.2611 47.7297 16.3331C47.7479 16.3871 47.7843 16.477 47.8388 16.603C48.0024 16.8368 48.2842 16.8638 48.6842 16.6839C48.8478 16.6119 48.9569 16.6119 49.0114 16.6839C49.0842 16.7379 49.0842 16.8188 49.0114 16.9268C48.9569 17.0347 48.766 17.2956 48.4388 17.7093C48.3297 17.8353 48.1661 18.0512 47.9479 18.357C47.7297 18.6628 47.5388 18.8787 47.3752 19.0046C47.2661 19.0586 47.0752 19.2745 46.8025 19.6523C46.5298 20.0121 46.3935 20.228 46.3935 20.2999C46.3935 20.5698 46.5389 20.7047 46.8298 20.7047C46.9207 20.7947 47.1116 20.6957 47.4025 20.4079ZM172.653 2.89475C172.416 2.64289 172.062 2.59791 171.589 2.75983C171.407 2.84978 171.28 2.9937 171.207 3.19159C171.153 3.37149 171.189 3.51541 171.316 3.62335C171.407 3.7133 171.589 3.80325 171.862 3.89321C172.153 3.96517 172.362 4.06411 172.489 4.19004C172.634 4.31597 172.671 4.51387 172.598 4.78372C172.562 5.01759 172.571 5.1795 172.625 5.26945C172.68 5.3594 172.798 5.40438 172.98 5.40438C173.307 5.40438 173.534 5.16151 173.662 4.67578C173.716 4.53186 173.725 4.38793 173.689 4.24401C173.671 4.0821 173.643 3.95617 173.607 3.86622C173.571 3.77627 173.507 3.68632 173.416 3.59637C173.325 3.48843 173.244 3.40747 173.171 3.3535C173.098 3.28154 173.007 3.20058 172.898 3.11063C172.789 3.02068 172.707 2.94872 172.653 2.89475ZM162.617 12.9602C162.817 12.9243 162.808 13.0142 162.59 13.2301C162.426 13.446 162.344 13.6349 162.344 13.7968C162.363 13.9407 162.463 14.0486 162.644 14.1206C163.062 14.1386 163.417 13.8687 163.708 13.311C163.999 12.7354 164.035 12.3126 163.817 12.0427C163.617 11.8269 162.944 11.8359 161.799 12.0697C161.817 11.9258 161.853 11.8089 161.908 11.7189C161.963 11.629 162.035 11.53 162.126 11.4221C162.235 11.2962 162.335 11.1612 162.426 11.0173C163.153 9.91991 163.326 9.15532 162.944 8.72356C162.708 8.43572 162.235 8.44471 161.526 8.75055C160.872 9.0204 160.454 9.13733 160.272 9.10135C160.108 9.04738 160.254 8.68758 160.708 8.02194C161.108 7.3743 161.408 6.71766 161.608 6.05202C161.772 5.49433 161.744 5.11654 161.526 4.91864C161.272 4.73874 161.035 4.72075 160.817 4.86467C160.617 5.00859 160.463 5.22448 160.354 5.51232C160.263 5.78217 160.281 5.96207 160.408 6.05202C160.481 6.10599 160.517 6.17795 160.517 6.26791C160.517 6.35786 160.381 6.65469 160.108 7.15842C159.854 7.66214 159.608 8.08491 159.372 8.42672C159.045 8.93045 158.854 9.28126 158.799 9.47915C158.745 9.67704 158.799 9.84795 158.963 9.99187C159.254 10.2797 159.954 10.2437 161.063 9.88393C161.626 9.70402 161.935 9.64106 161.99 9.69503C162.081 9.78498 161.844 10.2347 161.281 11.0443C160.735 11.8359 160.263 12.4205 159.863 12.7983C159.663 12.9782 159.563 13.1311 159.563 13.2571C159.563 13.365 159.617 13.482 159.726 13.6079C159.854 13.7338 159.972 13.7968 160.081 13.7968C160.172 13.7968 160.445 13.7248 160.899 13.5809C161.354 13.419 161.699 13.2841 161.935 13.1761C162.281 13.0502 162.508 12.9782 162.617 12.9602ZM178.679 14.9571C175.043 15.4969 173.116 15.7847 172.898 15.8207C172.553 15.8567 172.353 15.8567 172.298 15.8207C172.262 15.7667 172.335 15.5688 172.516 15.227C172.589 15.0831 172.744 14.6963 172.98 14.0666C173.234 13.419 173.48 12.9872 173.716 12.7713C174.407 12.1597 174.753 11.638 174.753 11.2062C174.807 11.0623 174.716 10.8644 174.48 10.6125C174.243 10.3607 174.198 10.1718 174.343 10.0458C174.562 9.77598 174.525 9.53312 174.234 9.31724C173.98 9.11934 173.771 9.14633 173.607 9.39819C173.425 9.66804 173.271 9.62307 173.144 9.26327C173.071 8.97542 172.871 8.86748 172.544 8.93944C172.216 9.0114 172.016 9.14633 171.944 9.34422C171.925 9.3802 171.935 9.57809 171.971 9.9379C172.025 10.2977 172.035 10.4956 171.998 10.5316C171.925 10.6035 171.635 10.7385 171.126 10.9363C170.635 11.1342 170.362 11.2152 170.307 11.1792C170.271 11.1432 170.262 10.7924 170.28 10.1268C170.316 9.55111 170.353 9.2093 170.389 9.10135C170.444 8.99341 170.616 8.92145 170.907 8.88547C171.271 8.8315 171.762 8.66959 172.38 8.39974C173.016 8.12989 173.434 7.90501 173.634 7.72511C173.925 7.40128 173.989 7.08646 173.825 6.78062C173.643 6.51077 173.371 6.54675 173.007 6.88857C172.789 7.05048 172.507 7.22138 172.162 7.40128C171.835 7.5632 171.58 7.65315 171.398 7.67114C171.18 7.70712 171.035 7.66214 170.962 7.53621C170.889 7.44626 170.789 7.39229 170.662 7.3743C170.553 7.33832 170.471 7.29334 170.416 7.23937C170.362 7.16741 170.335 7.02349 170.335 6.80761C170.353 6.6457 170.298 6.4658 170.171 6.26791C170.044 6.05202 170.007 5.83614 170.062 5.62026C170.153 5.35041 170.089 5.11654 169.871 4.91864C169.671 4.72075 169.462 4.70276 169.244 4.86467C169.171 4.91864 169.098 5.08056 169.026 5.35041C168.971 5.60227 168.898 5.77318 168.807 5.86313C168.717 5.98906 168.553 6.23193 168.317 6.59173C168.08 6.93354 167.898 7.1854 167.771 7.34731L167.608 7.50923C167.353 7.88702 167.344 8.16587 167.58 8.34577C167.817 8.50768 168.089 8.39074 168.398 7.99496C168.689 7.70712 168.862 7.51822 168.917 7.42827L169.026 7.32033C169.08 7.28435 169.126 7.26636 169.162 7.26636C169.198 7.24837 169.226 7.25736 169.244 7.29334C169.317 8.37275 169.317 9.45216 169.244 10.5316C169.189 11.611 169.071 12.8703 168.889 14.3095C168.726 15.7487 168.617 16.7382 168.562 17.2779C168.508 17.4938 168.508 17.9705 168.562 18.7081C168.617 19.4277 168.68 19.8415 168.753 19.9494C168.917 20.2013 169.135 20.1833 169.407 19.8954L169.626 19.6796V18.3573C169.626 18.2134 169.617 18.0065 169.598 17.7366V17.3049C169.598 16.999 169.698 16.9181 169.898 17.062C170.262 17.2059 171.007 17.1879 172.135 17.008C173.262 16.8281 173.843 16.7382 173.88 16.7382C174.225 16.7022 174.725 16.6122 175.38 16.4683C176.034 16.3244 176.607 16.2344 177.098 16.1985C177.461 16.1985 178.189 16.0815 179.279 15.8477C180.388 15.6138 181.043 15.5058 181.243 15.5238C181.516 15.5418 181.716 15.4879 181.843 15.3619C182.043 15.1101 182.052 14.8492 181.87 14.5794C181.707 14.2915 181.443 14.2375 181.079 14.4174C179.734 14.6693 178.934 14.8492 178.679 14.9571ZM173.416 11.0983C173.489 10.8824 173.589 10.8554 173.716 11.0173C173.843 11.0713 173.853 11.1882 173.743 11.3681C173.616 11.566 173.516 11.611 173.444 11.503C173.371 11.3951 173.362 11.2602 173.416 11.0983ZM171.071 15.7397C170.853 15.9376 170.644 16.0366 170.444 16.0366C170.389 16.0186 170.271 16.0635 170.089 16.1715C169.926 16.2614 169.798 16.3064 169.707 16.3064C169.635 16.2884 169.635 16.1625 169.707 15.9286C169.962 13.8058 170.107 12.6994 170.144 12.6094C170.162 12.5015 170.335 12.4025 170.662 12.3126C170.898 12.2226 171.098 12.1327 171.262 12.0427C171.444 11.9348 171.625 11.8538 171.807 11.7999C172.08 11.602 172.244 11.602 172.298 11.7999C172.389 12.0337 172.353 12.3126 172.189 12.6364C172.007 12.8523 171.635 13.0052 171.071 13.0952C170.907 13.0772 170.726 13.1581 170.526 13.338C170.344 13.5179 170.226 13.6888 170.171 13.8508C170.262 14.0486 170.389 14.2016 170.553 14.3095C170.735 14.3995 170.98 14.3905 171.289 14.2825C171.58 14.1566 171.753 14.1206 171.807 14.1746C171.862 14.2285 171.798 14.4624 171.616 14.8762C171.471 15.236 171.289 15.5238 171.071 15.7397ZM164.635 18.7621C164.835 18.5822 164.935 18.3213 164.935 17.9795C164.935 17.6017 164.826 17.116 164.608 16.5223C164.408 15.9106 164.226 15.5418 164.062 15.4159C163.717 15.236 163.453 15.272 163.272 15.5238C163.108 15.7577 163.144 16.0635 163.381 16.4413C163.799 17.1789 163.972 17.7096 163.899 18.0335C163.826 18.3393 163.862 18.5732 164.008 18.7351C164.244 18.933 164.453 18.942 164.635 18.7621ZM160.872 18.4382C160.854 18.942 160.999 19.1938 161.308 19.1938C161.563 19.1938 161.744 19.0229 161.853 18.6811C161.963 18.4472 161.99 18.1954 161.935 17.9255C161.899 17.6557 161.826 17.3588 161.717 17.035C161.608 16.6932 161.563 16.4953 161.581 16.4413C161.526 16.2614 161.408 16.0995 161.226 15.9556C161.063 15.7937 160.899 15.7667 160.735 15.8746C160.663 15.9286 160.59 16.0366 160.517 16.1985C160.463 16.3604 160.445 16.4683 160.463 16.5223C160.535 16.6302 160.617 16.9271 160.708 17.4128C160.817 17.8805 160.872 18.2224 160.872 18.4382ZM158.199 16.3334C157.89 16.6032 157.808 16.981 157.954 17.4668C158.008 17.6647 158.054 17.8626 158.09 18.0604C158.126 18.2404 158.145 18.3933 158.145 18.5192C158.163 18.6451 158.154 18.798 158.117 18.9779C158.099 19.1399 158.081 19.2658 158.063 19.3557C158.045 19.4277 158.008 19.5626 157.954 19.7605C157.899 19.9584 157.872 20.0933 157.872 20.1653C157.781 20.4891 157.836 20.723 158.036 20.8669C158.236 20.9928 158.454 20.9479 158.69 20.732C158.836 20.6061 158.936 20.3632 158.99 20.0034C159.045 19.6436 159.081 19.0409 159.099 18.1954C159.099 17.2419 159.054 16.6932 158.963 16.5493C158.726 16.1355 158.472 16.0635 158.199 16.3334ZM146.048 3.32663C145.848 3.25467 145.512 3.28165 145.039 3.40759C144.348 3.55151 143.812 3.75839 143.43 4.02825C143.357 4.08222 143.012 4.21714 142.394 4.43302C141.794 4.63092 141.467 4.74785 141.412 4.78383C141.339 4.87378 141.221 4.89177 141.058 4.8378C140.894 4.78383 140.776 4.76584 140.703 4.78383L140.54 4.72986C140.43 4.69388 140.33 4.6669 140.24 4.64891C140.149 4.63092 140.076 4.6579 140.021 4.72986C139.967 4.80182 139.967 4.93675 140.021 5.13464C140.221 6.08812 140.34 6.96064 140.376 7.75221C140.412 8.09402 140.403 8.47181 140.349 8.88559C140.294 9.29936 140.249 9.60519 140.212 9.80308C140.176 10.001 140.23 10.2708 140.376 10.6126C140.394 10.6486 140.449 10.6846 140.54 10.7206C140.649 10.7566 140.73 10.8015 140.785 10.8555C140.858 10.8915 140.867 10.9455 140.812 11.0174C140.758 11.1434 140.739 11.2873 140.758 11.4492C140.776 11.5931 140.83 11.701 140.921 11.773C141.158 11.9349 141.494 11.863 141.93 11.5571C142.058 11.4852 142.294 11.3502 142.639 11.1523C142.985 10.9545 143.248 10.7746 143.43 10.6126C143.721 10.3428 144.212 10.028 144.903 9.66816C145.594 9.29037 146.075 8.93956 146.348 8.61574C146.694 8.16598 146.894 7.43738 146.948 6.42993C147.003 5.40449 146.894 4.58594 146.621 3.97428C146.457 3.61447 146.266 3.39859 146.048 3.32663ZM144.957 4.43302C145.321 4.34307 145.557 4.33408 145.666 4.40604C145.848 4.63991 145.939 5.25158 145.939 6.24103C145.957 7.2125 145.794 7.79718 145.448 7.99507C145.321 8.06703 144.994 8.3099 144.466 8.72368C143.957 9.13745 143.648 9.36233 143.539 9.39831C143.357 9.48826 143.239 9.52424 143.185 9.50625C143.148 9.48826 143.148 9.39831 143.185 9.23639C143.221 9.0385 143.248 8.76865 143.267 8.42684C143.267 8.08503 143.294 7.84216 143.348 7.69824C143.421 7.55432 143.53 7.44637 143.676 7.37441C143.767 7.32044 144.03 7.13155 144.466 6.80772C144.903 6.46591 145.166 6.27702 145.257 6.24103C145.566 6.07912 145.648 5.88123 145.503 5.64736C145.448 5.53942 145.376 5.48545 145.285 5.48545C145.194 5.46746 145.085 5.49444 144.957 5.5664C144.848 5.62037 144.739 5.68334 144.63 5.7553C144.539 5.82726 144.439 5.90822 144.33 5.99817L144.167 6.16008C144.057 6.23204 143.939 6.26802 143.812 6.26802C143.703 6.26802 143.639 6.24103 143.621 6.18706C143.585 6.09711 143.63 5.85425 143.757 5.45846C143.903 5.06268 144.012 4.82881 144.085 4.75685C144.303 4.61293 144.594 4.50499 144.957 4.43302ZM142.558 5.67435C142.576 5.71033 142.585 5.82726 142.585 6.02515C142.567 6.40295 142.521 6.6638 142.448 6.80772C142.394 6.93366 142.285 7.0326 142.121 7.10456C141.848 7.2125 141.667 7.23949 141.576 7.18552C141.485 7.11356 141.412 6.91567 141.358 6.59184C141.339 6.304 141.367 6.13309 141.439 6.07912C141.549 5.97118 141.73 5.86324 141.985 5.7553C142.239 5.62937 142.394 5.5664 142.448 5.5664C142.521 5.58439 142.558 5.62037 142.558 5.67435ZM142.23 8.15699C142.339 8.17498 142.385 8.27392 142.367 8.45382C142.33 8.90358 142.194 9.38931 141.958 9.91103C141.739 10.4148 141.503 10.6666 141.249 10.6666C141.23 10.6126 141.267 10.3608 141.358 9.91103C141.449 9.44328 141.476 9.17343 141.439 9.10147C141.367 8.81363 141.421 8.59774 141.603 8.45382C141.785 8.29191 141.994 8.19297 142.23 8.15699ZM148.748 13.9858C149.984 13.3921 151.684 12.7355 153.848 12.0159C153.938 11.9439 153.975 11.818 153.957 11.6381C153.938 11.4402 153.893 11.3053 153.82 11.2333C153.62 11.0354 153.175 11.1074 152.484 11.4492C151.993 11.701 151.475 11.9169 150.93 12.0968C150.348 12.2947 149.566 12.6095 148.584 13.0413C147.603 13.4551 146.866 13.7429 146.375 13.9048C146.285 13.9768 146.039 14.0578 145.639 14.1477C145.257 14.2197 144.921 14.3186 144.63 14.4445C144.357 14.5525 144.248 14.6874 144.303 14.8493C144.321 15.1552 144.521 15.3441 144.903 15.416C145.266 15.47 145.594 15.5959 145.885 15.7938C146.175 15.9917 146.294 16.1626 146.239 16.3065C146.148 16.5224 145.803 16.6393 145.203 16.6573C144.857 16.6573 144.557 16.5944 144.303 16.4684C144.067 16.3245 143.73 16.0457 143.294 15.6319C142.948 15.2901 142.703 15.0832 142.558 15.0112C142.412 14.9393 142.285 14.9663 142.176 15.0922C142.067 15.2361 142.03 15.47 142.067 15.7938C142.121 16.0996 142.248 16.2705 142.448 16.3065C142.448 16.3245 142.53 16.3965 142.694 16.5224C142.858 16.6303 142.958 16.7023 142.994 16.7383C143.048 16.7563 143.148 16.8192 143.294 16.9272C143.457 17.0171 143.576 17.0891 143.648 17.1431L143.976 17.305C144.139 17.3769 144.276 17.4309 144.385 17.4669C144.494 17.4849 144.621 17.5119 144.766 17.5478C144.93 17.5838 145.076 17.6018 145.203 17.6018C145.675 17.6378 146.085 17.5658 146.43 17.3859C146.794 17.206 147.057 16.9722 147.221 16.6843C147.257 16.5944 147.275 16.5044 147.275 16.4145C147.294 16.3245 147.275 16.2436 147.221 16.1716C147.184 16.0816 147.139 16.0097 147.084 15.9557C147.048 15.8838 146.994 15.8028 146.921 15.7129C146.866 15.6229 146.821 15.5599 146.784 15.524C146.566 15.3081 146.475 15.1462 146.512 15.0382C146.548 14.9123 146.721 14.7954 147.03 14.6874C147.175 14.6155 147.457 14.5075 147.875 14.3636C148.293 14.2197 148.584 14.0937 148.748 13.9858ZM137.294 14.4985C137.276 14.6784 137.249 14.8133 137.212 14.9033C137.085 15.1192 136.922 15.497 136.722 16.0367C136.54 16.5764 136.403 16.9182 136.313 17.0621C136.258 17.1521 136.131 17.4039 135.931 17.8177C135.731 18.2315 135.604 18.4743 135.549 18.5463C135.476 18.7262 135.431 18.8431 135.413 18.8971C134.976 19.8686 135.04 20.3453 135.604 20.3273C135.731 20.2374 135.84 20.1384 135.931 20.0305C136.022 19.9225 136.085 19.8326 136.122 19.7606C136.176 19.6887 136.24 19.5627 136.313 19.3828L136.476 18.9781C137.294 17.5748 137.731 16.6933 137.785 16.3335C137.803 16.1716 137.849 15.9737 137.922 15.7398C137.994 15.488 138.058 15.2721 138.112 15.0922C138.185 14.8943 138.231 14.7054 138.249 14.5255C138.285 14.3276 138.258 14.1657 138.167 14.0398C138.076 13.9138 137.922 13.8419 137.703 13.8239C137.576 13.8419 137.485 13.9138 137.431 14.0398C137.376 14.1477 137.331 14.3006 137.294 14.4985ZM118.789 9.857C118.753 9.92896 118.698 10.0279 118.626 10.1538C118.571 10.2798 118.535 10.3607 118.516 10.3967L118.435 10.5586C118.416 10.6126 118.416 10.6576 118.435 10.6935C118.453 10.7115 118.462 10.7385 118.462 10.7745C118.48 10.8105 118.526 10.8465 118.598 10.8824C118.671 10.9184 118.735 10.9634 118.789 11.0174C118.844 11.0533 118.935 11.1163 119.062 11.2063C119.189 11.2782 119.307 11.3502 119.416 11.4221C120.198 11.9618 121.662 12.7264 123.807 13.7159C123.952 13.7878 124.271 13.9408 124.761 14.1746C125.252 14.4085 125.625 14.5884 125.88 14.7143C126.152 14.8223 126.498 14.9662 126.916 15.1461C127.352 15.308 127.761 15.4429 128.143 15.5509C128.525 15.6588 128.907 15.7398 129.288 15.7937C130.088 15.9017 130.706 16.0636 131.143 16.2795C131.325 16.3514 131.415 16.4774 131.415 16.6573C131.415 16.8372 131.334 16.9901 131.17 17.116C131.025 17.224 130.843 17.2599 130.625 17.224C130.188 17.2599 129.27 17.071 127.87 16.6573C127.107 16.4234 126.37 16.1625 125.661 15.8747C124.952 15.5869 124.071 15.2001 123.016 14.7143C121.98 14.2106 121.262 13.8688 120.862 13.6889C120.68 13.6169 120.198 13.3741 119.416 12.9603C118.653 12.5285 118.089 12.2497 117.726 12.1238C117.653 12.1058 117.544 12.1687 117.398 12.3127C117.271 12.4386 117.117 12.6095 116.935 12.8254C116.771 13.0413 116.617 13.2481 116.471 13.446C116.326 13.6439 116.171 13.8598 116.008 14.0937L115.68 14.5254C115.353 14.9752 114.599 15.9107 113.417 17.3319C113.399 17.3679 113.353 17.4219 113.28 17.4938C113.226 17.5658 113.19 17.6197 113.171 17.6557C113.153 17.6917 113.117 17.7367 113.062 17.7907C113.008 17.8446 112.962 17.8806 112.926 17.8986C112.908 17.9166 112.871 17.9436 112.817 17.9796C112.781 18.0155 112.744 18.0335 112.708 18.0335H112.571C112.517 18.0335 112.462 18.0155 112.408 17.9796C112.371 17.9436 112.326 17.9076 112.271 17.8716C112.053 17.6917 111.99 17.4758 112.081 17.224C112.171 16.9541 112.299 16.7112 112.462 16.4954C112.626 16.2795 112.762 16.1356 112.871 16.0636C113.308 15.7937 113.717 15.4429 114.099 15.0112C114.499 14.5614 114.989 13.9318 115.571 13.1222C116.153 12.2947 116.48 11.8359 116.553 11.746C117.044 11.1163 117.507 10.2888 117.944 9.26332C118.398 8.23788 118.626 7.35637 118.626 6.61877C118.607 5.97112 118.753 5.62032 119.062 5.56635C119.298 5.53037 119.48 5.71027 119.607 6.10605C119.607 6.16002 119.616 6.21399 119.635 6.26796C119.762 7.23943 119.48 8.43577 118.789 9.857ZM98.757 10.0727C98.7025 10.0727 98.6206 10.0907 98.5116 10.1267C98.4207 10.1447 98.3389 10.1537 98.2661 10.1537C98.1207 10.1537 98.048 10.0817 98.048 9.93779C98.048 9.84784 98.0752 9.72191 98.1298 9.56C98.2207 9.30814 98.4297 9.07426 98.757 8.85838C98.9933 8.69647 99.5206 8.25571 100.339 7.53611C101.157 6.8165 101.748 6.35775 102.111 6.15986C102.22 6.12388 102.32 6.02493 102.411 5.86302C102.52 5.68312 102.575 5.52121 102.575 5.37729C102.575 5.21538 102.511 5.09844 102.384 5.02648C102.275 4.93653 102.166 4.89155 102.057 4.89155C101.857 4.89155 101.539 5.08945 101.102 5.48523C100.43 6.13287 99.6297 6.80751 98.7025 7.50912H98.6752C98.5479 7.50912 98.4843 7.41018 98.4843 7.21228C98.4843 6.67258 98.657 6.0789 99.0024 5.43126C99.1479 5.1794 99.2388 4.9995 99.2751 4.89155C99.1661 4.69366 99.0388 4.59472 98.8934 4.59472C98.7843 4.59472 98.6661 4.63969 98.5388 4.72964C97.9207 5.05347 97.4753 6.11488 97.2026 7.9139C97.1299 8.34566 96.9571 8.6515 96.6844 8.8314C96.4117 8.99331 95.8027 9.18221 94.8573 9.39809C94.4755 9.48804 94.0846 9.60497 93.6847 9.74889C93.2847 9.87483 93.0574 9.97377 93.0029 10.0457C92.912 10.1177 92.8302 10.1627 92.7575 10.1807C92.7393 10.2166 92.7302 10.2706 92.7302 10.3426C92.7302 10.5045 92.7847 10.6034 92.8938 10.6394C92.9847 10.6934 93.1756 10.7204 93.4665 10.7204C93.9574 10.7204 94.5846 10.6394 95.3482 10.4775C96.1299 10.2976 96.5481 10.2076 96.6026 10.2076H96.6299C96.6844 10.2076 96.7117 10.2526 96.7117 10.3426V10.3696C96.7117 10.5315 96.6753 10.7833 96.6026 11.1251C96.5481 11.449 96.4935 11.6918 96.439 11.8537C96.2754 12.5554 96.0118 13.3019 95.6481 14.0935C95.3209 14.975 94.7119 15.9555 93.821 17.0349C93.7665 17.1069 93.7028 17.1428 93.6301 17.1428C93.5029 17.1428 93.4029 17.0079 93.3301 16.7381C93.2938 16.6661 93.2574 16.6121 93.2211 16.5762C93.2029 16.5222 93.1847 16.4862 93.1665 16.4682H93.1392C93.1029 16.4682 93.0574 16.5222 93.0029 16.6301C92.9483 16.7381 92.8938 16.891 92.8393 17.0889C92.8029 17.2688 92.7847 17.4577 92.7847 17.6556C92.7847 17.9974 92.8484 18.1953 92.9756 18.2492C93.0847 18.3572 93.212 18.4112 93.3574 18.4112C93.9574 18.4112 94.6846 17.7635 95.5391 16.4682C96.4117 15.1729 97.0662 13.7067 97.5025 12.0696C97.5025 12.0336 97.5207 11.9797 97.5571 11.9077C97.5935 11.7458 97.6207 11.6289 97.6389 11.5569C97.6571 11.4849 97.6844 11.413 97.7207 11.341C97.7571 11.2511 97.7934 11.1971 97.8298 11.1791C97.8662 11.1431 97.9116 11.1251 97.9661 11.1251C98.0389 11.1251 98.157 11.1791 98.3207 11.2871C98.4843 11.395 98.5843 11.449 98.6206 11.449C98.7297 11.4849 99.0297 11.6828 99.5206 12.0426C100.03 12.3845 100.357 12.5823 100.502 12.6363C100.666 12.7083 100.793 12.8072 100.884 12.9332C100.993 13.0411 101.102 13.122 101.211 13.176C101.357 13.266 101.748 13.6258 102.384 14.2554C103.02 14.8671 103.493 15.3618 103.802 15.7396C104.057 16.0454 104.366 16.3513 104.729 16.6571C105.093 16.945 105.429 17.2328 105.738 17.5206C106.393 18.1323 106.865 18.5371 107.156 18.735C107.447 18.9149 107.72 19.0048 107.974 19.0048C108.229 19.0048 108.393 18.9778 108.465 18.9239C108.538 18.8519 108.602 18.699 108.656 18.4651C108.674 18.3932 108.684 18.3302 108.684 18.2762C108.684 18.1863 108.647 18.0603 108.574 17.8984C108.52 17.7185 108.493 17.5746 108.493 17.4667V17.4127C108.493 17.3407 108.465 17.2778 108.411 17.2238C108.374 17.1698 108.329 17.1249 108.274 17.0889C108.22 17.0529 108.184 17.0259 108.165 17.0079C108.038 17.0079 107.893 17.0709 107.729 17.1968C107.565 17.3227 107.456 17.3857 107.402 17.3857C107.329 17.3857 106.765 16.918 105.711 15.9825C105.456 15.7486 104.793 15.083 103.72 13.9856C102.666 12.8702 101.875 12.1416 101.348 11.7998C101.275 11.7818 101.184 11.7098 101.075 11.5839C100.984 11.458 100.902 11.386 100.83 11.368C100.684 11.332 100.493 11.2241 100.257 11.0442C100.039 10.8643 99.9024 10.7473 99.8478 10.6934C99.7569 10.6574 99.5933 10.5495 99.357 10.3696C99.1206 10.1717 98.9206 10.0727 98.757 10.0727ZM85.8697 12.6633C86.0878 12.8252 86.2333 12.9062 86.306 12.9062C86.3242 12.8702 86.5333 12.9511 86.9332 13.149C87.3514 13.3289 87.7968 13.5358 88.2695 13.7697C88.7604 14.0036 89.0603 14.1385 89.1694 14.1745C89.4058 14.2284 89.5421 14.3544 89.5785 14.5523C89.633 14.7502 89.5694 14.948 89.3876 15.1459C89.0967 15.4878 88.7604 15.4788 88.3786 15.119C88.1604 14.9031 87.7059 14.6422 87.015 14.3364C86.3424 14.0126 85.9424 13.8776 85.8151 13.9316C85.797 13.9316 85.7788 13.9406 85.7606 13.9586C85.7606 13.9766 85.7515 14.0126 85.7333 14.0665C85.7333 14.1025 85.7242 14.1475 85.706 14.2015C85.6879 14.2554 85.6697 14.3454 85.6515 14.4713C85.6333 14.5793 85.6061 14.6962 85.5697 14.8221C85.5515 14.9301 85.5152 15.092 85.4606 15.3079C85.4061 15.5057 85.3606 15.7126 85.3243 15.9285C84.8698 17.7455 84.388 18.8069 83.8789 19.1128C83.6971 19.2567 83.5062 19.3107 83.3062 19.2747C82.8154 19.2387 82.3881 18.8969 82.0245 18.2492C81.7154 17.7995 81.6336 17.4757 81.7791 17.2778C81.8882 17.1518 82.0427 17.2328 82.2427 17.5206C82.5154 18.0244 82.8063 18.2672 83.1153 18.2492C83.4244 18.2133 83.6608 17.9344 83.8244 17.4127C84.188 16.5132 84.4607 15.4698 84.6425 14.2824C84.7152 13.8866 84.7243 13.6528 84.6698 13.5808C84.688 13.5448 84.5061 13.4729 84.1244 13.3649C83.7426 13.239 83.2517 13.0951 82.6517 12.9332C82.07 12.7533 81.7336 12.6543 81.6427 12.6363C81.5518 12.6003 81.4791 12.5104 81.4246 12.3665C81.3882 12.2225 81.3973 12.0966 81.4518 11.9887C81.6336 11.8088 81.8791 11.7278 82.1881 11.7458C82.5154 11.7638 82.7972 11.8178 83.0335 11.9077C83.2881 11.9977 83.5789 12.1056 83.9062 12.2315C84.2334 12.3575 84.488 12.4294 84.6698 12.4474C84.7788 12.4474 84.8425 12.4384 84.8607 12.4204C84.897 12.4024 84.9243 12.3395 84.9425 12.2315C85.0334 11.8358 85.097 11.1521 85.1334 10.1807C85.1879 9.1912 85.1788 8.53456 85.1061 8.21074C85.0516 8.08481 84.9607 8.03084 84.8334 8.04883C84.7243 8.06682 84.488 8.17476 84.1244 8.37265C84.0698 8.39064 83.9426 8.44461 83.7426 8.53456C83.5426 8.62451 83.4153 8.68748 83.3608 8.72346C83.3244 8.74145 83.2244 8.78642 83.0608 8.85838L82.7336 8.96632C82.6972 8.96632 82.6063 8.98431 82.4608 9.02029C82.3336 9.03828 82.2427 9.03828 82.1881 9.02029C82.1336 9.0023 82.0518 8.99331 81.9427 8.99331C81.8336 8.97532 81.7427 8.93934 81.67 8.88537C81.6155 8.8314 81.5427 8.76843 81.4518 8.69647C81.3609 8.62451 81.27 8.53456 81.1791 8.42662C80.961 8.19275 80.8246 7.77897 80.7701 7.1853C80.7155 6.57363 80.7792 6.11488 80.961 5.80905C81.07 5.66513 81.2246 5.59317 81.4246 5.59317C81.6245 5.59317 81.7973 5.68312 81.9427 5.86302C82.0881 6.02493 82.0881 6.19584 81.9427 6.37574C81.87 6.51966 81.8427 6.71755 81.8609 6.96942C81.8791 7.22128 81.9427 7.46415 82.0518 7.69802C82.1609 7.93189 82.2609 8.02184 82.3518 7.96787C82.679 7.94988 83.1517 7.76998 83.7698 7.42817C84.4062 7.08635 84.9061 6.91545 85.2697 6.91545C85.5061 6.93344 85.6697 7.0054 85.7606 7.13133C85.8515 7.23927 85.9424 7.50013 86.0333 7.9139C86.106 8.12978 86.1515 8.41762 86.1697 8.77743C86.1878 9.11924 86.1878 9.42507 86.1697 9.69492C86.1515 9.94679 86.1151 10.3066 86.0606 10.7743C86.0242 11.2421 86.006 11.5389 86.006 11.6648L85.8697 12.6633ZM68.8528 9.99176C68.9437 10.0098 69.0346 10.0098 69.1255 9.99176C69.2164 9.97377 69.3073 9.97377 69.3982 9.99176C69.4891 10.0098 69.5618 10.0637 69.6164 10.1537C69.7618 10.2616 69.8618 10.4145 69.9163 10.6124C69.9709 10.7923 70.0254 11.1611 70.08 11.7188C70.1709 12.6543 70.2709 13.122 70.3799 13.122C70.4527 13.122 70.589 12.7892 70.789 12.1236C71.1526 11.4759 71.5708 11.1701 72.0435 11.2061C72.2253 11.1701 72.498 11.323 72.8616 11.6648C73.2434 11.9887 73.4524 12.2405 73.4888 12.4204C73.5252 12.5284 73.5888 12.6813 73.6797 12.8792C73.7888 13.0771 73.8706 13.266 73.9251 13.4459C73.9797 13.6078 74.0251 13.7877 74.0615 13.9856C74.1342 14.3454 74.2069 14.5433 74.2796 14.5793C74.3524 14.5972 74.4887 14.4803 74.6887 14.2284C75.0523 13.7067 75.3068 13.5538 75.4523 13.7697C75.5432 13.8776 75.5432 14.0575 75.4523 14.3094C75.4159 14.3634 75.2796 14.5882 75.0432 14.984C74.8069 15.3618 74.6614 15.5777 74.6069 15.6317C74.3524 15.9375 74.2251 16.3873 74.2251 16.9809C74.2251 17.2868 74.1706 17.6915 74.0615 18.1953C73.9706 18.699 73.8797 19.0498 73.7888 19.2477C73.6797 19.4456 73.5252 19.5805 73.3252 19.6525C73.1252 19.7064 72.9525 19.6705 72.807 19.5445C72.7161 19.3826 72.6798 19.2657 72.698 19.1937C72.7161 19.1038 72.7707 18.9868 72.8616 18.8429C72.9707 18.699 73.0343 18.5911 73.0525 18.5191C73.0888 18.3752 73.1161 18.1953 73.1343 17.9794C73.1525 17.7635 73.1434 17.6466 73.107 17.6286C73.0888 17.6106 72.8525 17.8175 72.398 18.2492C71.7617 18.8609 71.3526 19.1667 71.1708 19.1667C71.1526 19.1667 71.0708 19.1128 70.9254 19.0048C70.7981 18.8789 70.7163 18.8249 70.6799 18.8429C70.6254 18.8609 70.589 19.0138 70.5708 19.3017C70.589 19.7514 70.389 20.0393 69.9709 20.1652C69.8073 20.1652 69.6982 20.0752 69.6436 19.8953C69.6073 19.7154 69.5891 19.2117 69.5891 18.3842C69.5709 16.7471 69.5436 15.6767 69.5073 15.1729C69.4891 14.6692 69.4073 13.9766 69.2618 13.0951C69.1528 12.3934 69.0619 11.9257 68.9891 11.6918C68.9164 11.458 68.8164 11.341 68.6892 11.341C68.5983 11.341 68.3983 11.4849 68.0892 11.7728C67.7983 12.0606 67.562 12.3305 67.3802 12.5823C67.0529 13.1041 66.8257 13.4369 66.6984 13.5808C66.5893 13.7067 66.4712 13.7697 66.3439 13.7697C66.1075 13.7697 65.9894 13.6168 65.9894 13.3109C65.9894 13.185 66.0803 12.9511 66.2621 12.6093C66.4439 12.2675 66.6348 11.9887 66.8348 11.7728C66.9438 11.6828 67.1529 11.296 67.462 10.6124C67.7892 9.91081 68.0983 9.23618 68.3892 8.58853C68.6983 7.92289 68.9073 7.59008 69.0164 7.59008C69.0528 7.57209 69.1164 7.52711 69.2073 7.45515L69.3982 7.26625C69.4527 7.23027 69.5346 7.20329 69.6436 7.1853C69.7709 7.14932 69.88 7.1763 69.9709 7.26625C70.0618 7.32022 70.0891 7.47314 70.0527 7.725C70.0527 7.9049 69.9436 8.17476 69.7254 8.53456C69.5255 8.87637 69.3255 9.2002 69.1255 9.50603C68.9255 9.79387 68.8346 9.95578 68.8528 9.99176ZM72.4252 12.5823C72.0253 12.3305 71.7253 12.3845 71.5253 12.7443C71.4344 12.8522 71.3617 12.9511 71.3072 13.0411C71.2526 13.131 71.1981 13.23 71.1435 13.3379L71.0072 13.6078C70.989 13.6618 70.9617 13.7517 70.9254 13.8776C70.889 14.0036 70.8617 14.0935 70.8435 14.1475C70.8254 14.2015 70.7981 14.3094 70.7617 14.4713C70.7436 14.6152 70.7254 14.7142 70.7072 14.7681C70.7072 14.8041 70.689 14.9211 70.6527 15.119C70.6345 15.2989 70.6163 15.4158 70.5981 15.4698C70.7436 15.4878 71.0072 15.3438 71.389 15.038C71.7889 14.7322 72.0707 14.5523 72.2344 14.4983C72.6343 14.2824 72.8707 14.1385 72.9434 14.0665C73.0161 13.9766 73.0161 13.8327 72.9434 13.6348C72.7798 13.1131 72.607 12.7622 72.4252 12.5823ZM73.107 16.0634C73.1616 15.9015 73.1888 15.7216 73.1888 15.5237C73.207 15.3079 73.1525 15.1819 73.0252 15.1459C72.8616 15.1819 72.607 15.3348 72.2616 15.6047C71.9162 15.8745 71.7253 16.0185 71.6889 16.0365C70.9254 16.6661 70.5527 17.1608 70.5708 17.5206C70.5708 18.0424 70.6254 18.3032 70.7345 18.3032C70.8435 18.3032 71.2526 17.9704 71.9616 17.3048C72.6707 16.6391 73.0525 16.2253 73.107 16.0634ZM33.0153 10.8012C32.888 10.8012 32.6698 10.9002 32.3608 11.0981C32.288 11.134 32.1699 11.197 32.0062 11.287C30.8791 11.8986 30.1337 12.2674 29.7701 12.3934C29.4246 12.5013 28.7792 12.6182 27.8338 12.7442C27.0884 12.8521 26.443 12.9421 25.8976 13.014C25.5886 13.068 25.1977 13.1489 24.725 13.2569L23.4978 13.4997C23.1342 13.5717 22.7342 13.6437 22.2979 13.7156C21.8797 13.7696 21.4707 13.7966 21.0707 13.7966C20.6707 13.7786 20.298 13.7246 19.9526 13.6347C19.8435 13.5987 19.7163 13.4278 19.5708 13.122C19.4981 12.96 19.4981 12.8791 19.5708 12.8791C19.6072 12.8791 19.6436 12.8881 19.6799 12.9061C19.8072 12.8881 19.989 12.8071 20.2253 12.6632C20.4617 12.5193 20.8253 12.4653 21.3162 12.5013C21.9525 12.4833 22.6342 12.3934 23.3615 12.2314C24.1068 12.0695 24.7432 11.9706 25.2704 11.9346C25.9249 11.8806 26.4703 11.8177 26.9066 11.7457C27.343 11.6737 27.6793 11.6108 27.9156 11.5568C28.152 11.4848 28.652 11.3409 29.4155 11.125C29.7064 11.0531 30.1337 10.9182 30.6973 10.7203C31.2608 10.5224 31.7426 10.3515 32.1426 10.2075C32.5607 10.0456 32.788 9.95569 32.8244 9.9377C33.1698 9.72181 33.388 9.77578 33.4789 10.0996C33.5698 10.4054 33.497 10.6213 33.2607 10.7473C33.188 10.7832 33.1062 10.8012 33.0153 10.8012ZM7.25627 8.4536C7.18354 8.25571 7.0381 8.15677 6.81993 8.15677C6.54723 8.15677 6.51996 7.94988 6.73812 7.53611C6.88357 7.21228 7.04719 6.92444 7.22899 6.67258C7.4108 6.42072 7.65623 6.13287 7.9653 5.80905C8.27437 5.48523 8.49253 5.24236 8.6198 5.08045C8.69252 4.93653 8.90159 4.71165 9.24702 4.40582C9.59245 4.09999 9.78334 3.85712 9.81971 3.67722C9.81971 3.46134 9.7288 3.33541 9.547 3.29943C9.36519 3.24546 9.16521 3.26345 8.94704 3.3534C8.74706 3.44335 8.60162 3.54229 8.51071 3.65023C7.43807 4.38783 6.4836 4.9905 5.6473 5.45824C4.811 5.92599 3.89288 6.30378 2.89296 6.59162C2.32937 6.91545 1.75668 7.05037 1.17491 6.9964C0.774941 6.88846 0.474964 6.90645 0.274979 7.05037C0.0749943 7.19429 -0.0159079 7.38319 0.00227255 7.61706C0.0386334 7.83294 0.147716 8.03084 0.32952 8.21074C0.456783 8.24672 0.602227 8.2737 0.765851 8.29169C0.947655 8.29169 1.13855 8.2827 1.33853 8.26471C1.53852 8.22873 1.72032 8.19275 1.88395 8.15677C2.06575 8.12079 2.27483 8.06682 2.51117 7.99486C2.7657 7.9049 2.96568 7.83294 3.11113 7.77897C3.27475 7.725 3.48383 7.64405 3.73835 7.53611L4.28376 7.32022C4.37467 7.26625 4.54738 7.1853 4.80191 7.07736C5.05643 6.96942 5.19279 6.90645 5.21097 6.88846C5.57457 6.72655 5.75638 6.72655 5.75638 6.88846C5.41095 7.51812 4.89281 8.44461 4.20195 9.66794C3.5111 10.8733 3.11113 11.5839 3.00204 11.7998C2.91114 11.9617 2.65662 12.3755 2.23847 13.0411C1.8385 13.6887 1.52034 14.2284 1.28399 14.6602C1.06583 15.074 0.874933 15.4967 0.711309 15.9285C0.547686 16.1984 0.465874 16.4232 0.465874 16.6031C0.465874 16.783 0.538595 16.9 0.684039 16.954C0.847663 16.9899 1.03856 16.936 1.25672 16.792C1.47489 16.6301 1.80214 16.0724 2.23847 15.119C2.58389 14.5253 3.14749 13.5808 3.92925 12.2855C3.94743 12.3035 4.01106 12.2225 4.12014 12.0426C4.2474 11.8447 4.39285 11.6019 4.55647 11.314C4.72009 11.0082 4.89281 10.7114 5.07461 10.4235C5.25642 10.1177 5.42913 9.83885 5.59276 9.58698C5.75638 9.33512 5.89273 9.17321 6.00182 9.10125C6.02 9.13723 6.04727 9.58698 6.08363 10.4505C6.11999 11.296 6.13817 12.0786 6.13817 12.7982C6.15635 13.4998 6.13817 13.8776 6.08363 13.9316C6.02909 14.2015 5.97454 14.6782 5.92 15.3618C5.88364 16.0454 5.83819 16.5312 5.78365 16.819C5.76547 16.945 5.72002 17.0079 5.6473 17.0079C5.44731 17.0439 5.32914 17.3138 5.29278 17.8175C5.25642 18.3032 5.26551 18.78 5.32005 19.2477C5.39277 19.7154 5.4564 20.0123 5.51094 20.1382C5.62003 20.3181 5.78365 20.3811 6.00182 20.3271C6.23816 20.2731 6.40178 20.1382 6.49269 19.9223C6.61995 19.6885 6.71994 19.2117 6.79266 18.4921C6.86539 17.7725 6.92902 16.9809 6.98356 16.1174C7.05628 15.2539 7.11991 14.6602 7.17445 14.3364C7.22899 14.0665 7.25627 13.6438 7.25627 13.0681C7.25627 12.4924 7.29263 12.1146 7.36535 11.9347C7.41989 11.8627 7.66532 11.8447 8.10166 11.8807C9.10158 11.9707 10.1288 12.2135 11.1832 12.6093C12.2377 12.9871 13.1376 13.4459 13.883 13.9856C13.9558 14.1115 14.1285 14.2105 14.4012 14.2824C14.6739 14.3544 14.8648 14.3094 14.9739 14.1475C15.1557 13.8417 15.2466 13.6258 15.2466 13.4998C15.2466 13.3559 15.1738 13.23 15.0284 13.122C14.883 13.0141 14.5648 12.8342 14.0739 12.5823C13.8012 12.4384 13.574 12.3215 13.3922 12.2315C12.9195 11.9977 12.2468 11.7278 11.3741 11.422C10.5015 11.1161 9.96515 10.9632 9.76516 10.9632C9.58336 10.9632 9.21066 10.9093 8.64707 10.8013C8.10166 10.6754 7.77441 10.5764 7.66532 10.5045C7.51988 10.4325 7.42898 10.3426 7.39262 10.2346C7.35626 10.1087 7.34717 9.84784 7.36535 9.45206C7.36535 8.98431 7.32899 8.6515 7.25627 8.4536Z" fill="#979797"/>
</svg>
