<svg width="125" height="24" viewBox="0 0 125 24" fill="none" xmlns="http://www.w3.org/2000/svg">
<path fill-rule="evenodd" clip-rule="evenodd" d="M110.933 6.13415C111.006 6.383 110.97 6.56076 110.824 6.66741C110.696 6.75628 110.541 6.76517 110.358 6.69407C110.175 6.62297 110.066 6.50743 110.029 6.34745C110.011 6.32968 109.956 6.17859 109.865 5.89418C109.792 5.592 109.691 5.3076 109.563 5.04097C109.454 4.75656 109.344 4.56103 109.234 4.45438C109.107 4.3655 108.997 4.35662 108.906 4.42772C108.887 4.44549 108.842 4.48104 108.769 4.53437C108.696 4.56992 108.632 4.59658 108.577 4.61436L108.412 4.69435C108.358 4.7299 108.303 4.74767 108.248 4.74767H108.111C108.074 4.74767 108.038 4.7299 108.001 4.69435C107.983 4.64102 107.965 4.57881 107.946 4.50771C107.928 4.38328 108.01 4.25885 108.193 4.13443C108.394 3.99222 108.504 3.88557 108.522 3.81447C108.613 3.70782 109.015 3.28121 109.728 2.53465C110.44 1.78808 110.979 1.23705 111.344 0.881544C111.491 0.721566 111.637 0.606027 111.783 0.534926C111.947 0.446049 112.148 0.36606 112.386 0.294959C112.641 0.206082 112.833 0.134981 112.961 0.0816553C113.272 -0.0427718 113.491 -0.0249965 113.619 0.134981C113.765 0.277184 113.728 0.472712 113.509 0.721566C113.345 0.845994 113.025 1.05041 112.55 1.33481C112.093 1.61922 111.737 1.89474 111.481 2.16137C111.299 2.35689 111.08 2.54354 110.824 2.72129C110.568 2.88127 110.394 3.00569 110.303 3.09457C110.212 3.18345 110.175 3.34342 110.194 3.5745C110.212 3.80558 110.331 4.13443 110.55 4.56103C110.623 4.72101 110.696 5.0143 110.769 5.44091C110.86 5.84974 110.915 6.08082 110.933 6.13415ZM114.852 6.10749C114.761 6.10749 114.715 6.03638 114.715 5.89418C114.715 5.75198 114.852 5.54756 115.126 5.28093C115.674 4.71212 116.222 3.89446 116.77 2.82794C116.971 2.47243 117.053 2.18803 117.017 1.97473C116.925 1.7081 116.998 1.55701 117.236 1.52146C117.492 1.46813 117.729 1.4859 117.948 1.57478C118.113 1.62811 118.195 1.73476 118.195 1.89474C118.195 2.03694 118.122 2.27691 117.976 2.61464C117.83 2.93459 117.51 3.47674 117.017 4.24108C116.834 4.52548 116.46 4.90765 115.893 5.38759C115.345 5.86752 114.998 6.10749 114.852 6.10749ZM112.989 6.10749C112.751 6.10749 112.587 5.99195 112.495 5.76087C112.422 5.51201 112.377 5.04097 112.358 4.34773C112.34 3.63672 112.377 3.219 112.468 3.09457C112.669 2.84572 112.915 2.8546 113.208 3.12123C113.317 3.24566 113.381 3.38786 113.4 3.54784C113.418 3.69004 113.418 4.16998 113.4 4.98764C113.4 5.4498 113.372 5.75198 113.317 5.89418C113.263 6.03638 113.153 6.10749 112.989 6.10749ZM115.4 11.8667C115.144 11.9911 114.834 12.0711 114.468 12.1067C114.121 12.1244 113.792 12.0533 113.482 11.8933C113.263 11.84 113.034 11.6889 112.797 11.4401C112.578 11.1734 112.431 10.9246 112.358 10.6935C112.303 10.4624 112.322 10.2936 112.413 10.1869C112.468 10.0092 112.641 9.9825 112.934 10.1069C113.226 10.2314 113.436 10.2314 113.564 10.1069C113.856 10.0181 114.176 9.89363 114.523 9.73365C114.87 9.55589 115.254 9.35148 115.674 9.1204C116.112 8.88932 116.423 8.72934 116.606 8.64047C117.209 8.28496 117.729 8.26719 118.168 8.58714C118.314 8.67602 118.433 8.72934 118.524 8.74712C118.633 8.74712 118.707 8.73823 118.743 8.72046C118.798 8.68491 118.871 8.6138 118.962 8.50715C119.072 8.4005 119.145 8.32051 119.182 8.26719C119.2 8.24941 119.319 8.09832 119.538 7.81391C119.775 7.52951 119.949 7.28954 120.058 7.09401C120.168 6.88071 120.205 6.72073 120.168 6.61408C120.113 6.5252 119.931 6.50743 119.62 6.56076C119.328 6.59631 119.035 6.65852 118.743 6.7474C118.451 6.8185 118.14 6.89849 117.811 6.98736C117.501 7.07624 117.3 7.12957 117.209 7.14734C116.898 7.21844 115.985 7.51173 114.468 8.02722C114.213 8.08054 113.646 8.31162 112.769 8.72046C111.892 9.11151 111.317 9.41369 111.043 9.627C110.769 9.80475 110.175 10.1869 109.262 10.7735C108.568 11.2001 108.029 11.7067 107.645 12.2933C107.353 12.7199 107.07 12.9065 106.796 12.8532C106.704 12.8354 106.649 12.7377 106.631 12.5599C106.613 12.3822 106.649 12.2222 106.741 12.08C106.905 11.76 107.216 11.209 107.672 10.4269C108.147 9.627 108.485 8.99597 108.686 8.53381C108.851 8.21386 108.988 8.01833 109.097 7.94723C109.225 7.87613 109.371 7.90279 109.536 8.02722C109.627 8.08054 109.682 8.14276 109.7 8.21386C109.719 8.28496 109.719 8.44494 109.7 8.69379V9.25371L109.919 9.09374C110.742 8.59603 111.39 8.24052 111.865 8.02722C112.34 7.79614 113.208 7.45841 114.468 7.01403C114.98 6.80072 115.711 6.55187 116.66 6.26746C117.61 5.98306 118.186 5.80531 118.387 5.7342C118.588 5.62755 118.908 5.56534 119.346 5.54756C120.314 5.47646 120.908 5.49424 121.127 5.60089C121.365 5.70754 121.456 6.00972 121.401 6.50743C121.365 6.93404 121.255 7.28954 121.072 7.57395C120.89 7.85835 120.488 8.32051 119.867 8.96042C119.428 9.40481 119.163 9.7692 119.072 10.0536C118.999 10.3025 118.944 10.4624 118.908 10.5335C118.871 10.6046 118.798 10.6669 118.688 10.7202C118.451 10.8268 118.25 10.7824 118.085 10.5869L117.894 10.3736L117.51 10.4802C117.346 10.5158 117.199 10.5602 117.072 10.6135C116.944 10.6669 116.798 10.7113 116.633 10.7468C116.396 10.8002 116.259 10.9068 116.222 11.0668C116.167 11.1912 116.039 11.3601 115.838 11.5734C115.637 11.7689 115.491 11.8667 115.4 11.8667ZM117.455 9.36037C117.272 9.18261 116.962 9.20928 116.523 9.44036C115.975 9.74254 115.829 10.0092 116.085 10.2402C116.195 10.3291 116.304 10.3647 116.414 10.3469C116.542 10.3291 116.743 10.2314 117.017 10.0536C117.291 9.89363 117.455 9.7692 117.51 9.68032C117.565 9.59145 117.547 9.48479 117.455 9.36037ZM115.208 10.8002C115.135 10.6757 114.971 10.6846 114.715 10.8268C114.496 10.9513 114.505 11.0401 114.742 11.0935C114.834 11.0935 114.934 11.0579 115.044 10.9868C115.172 10.8979 115.226 10.8357 115.208 10.8002ZM111.92 9.52034C112.267 9.46702 112.404 9.58256 112.331 9.86696C112.258 10.098 112.13 10.2936 111.947 10.4535C111.874 10.4891 111.71 10.7113 111.454 11.1201C111.198 11.529 111.025 11.7778 110.933 11.8667C110.879 12.0089 110.732 12.2311 110.495 12.5333C110.257 12.8354 110.093 13.0843 110.002 13.2798C109.874 13.5465 109.773 13.7242 109.7 13.8131C109.627 13.8842 109.508 13.9375 109.344 13.9731C109.216 13.9908 109.097 13.9553 108.988 13.8664C108.878 13.7775 108.823 13.662 108.823 13.5198C108.915 13.1643 109.17 12.7021 109.591 12.1333C110.011 11.5645 110.294 11.1468 110.44 10.8802C110.623 10.6135 110.869 10.3113 111.18 9.97361C111.509 9.61811 111.755 9.46702 111.92 9.52034ZM123.456 21.0387C123.237 21.0032 122.826 20.8965 122.223 20.7188C121.62 20.541 121.054 20.3899 120.524 20.2655C119.994 20.1233 119.647 20.07 119.483 20.1055C119.264 20.1055 119.008 20.0344 118.716 19.8922C118.624 19.8211 118.487 19.7589 118.305 19.7056C118.14 19.6345 117.903 19.5634 117.592 19.4923C117.3 19.4212 117.072 19.3679 116.907 19.3323C116.761 19.2968 116.469 19.2434 116.03 19.1723C115.61 19.0835 115.373 19.0301 115.318 19.0124C115.044 18.959 114.825 18.9679 114.66 19.039C114.514 19.0923 114.35 19.2346 114.167 19.4656C114.112 19.5545 113.674 20.0167 112.852 20.8521C112.048 21.6698 111.609 22.1319 111.536 22.2386C111.463 22.3452 111.217 22.5319 110.796 22.7985C110.394 23.0829 110.157 23.2607 110.084 23.3318C109.755 23.6162 109.326 23.8117 108.796 23.9183C108.266 24.0428 107.91 24.025 107.727 23.865C107.618 23.7761 107.545 23.6162 107.508 23.3851C107.49 23.1718 107.517 22.9674 107.59 22.7718C107.7 22.5052 107.819 22.3719 107.946 22.3719C108.056 22.3719 108.093 22.4963 108.056 22.7452C108.001 23.0651 108.084 23.2251 108.303 23.2251C108.613 23.1896 109.07 22.9496 109.673 22.5052C110.276 22.0786 110.668 21.7586 110.851 21.5453C110.906 21.4565 111.189 21.1632 111.701 20.6655C112.687 19.67 113.18 19.0657 113.18 18.8524C113.18 18.7457 113.08 18.6569 112.879 18.5858C112.715 18.5324 112.404 18.4436 111.947 18.3191C111.491 18.1769 111.116 18.0525 110.824 17.9458C110.531 17.8214 110.34 17.6881 110.248 17.5459C110.047 17.3148 110.056 17.1371 110.276 17.0126C110.513 16.8704 110.778 16.8349 111.07 16.906C111.253 16.9415 111.381 16.9415 111.454 16.906C111.527 16.8704 111.582 16.7816 111.618 16.6394C112.459 15.2173 113.025 14.1775 113.317 13.5198C113.518 13.1287 113.856 12.8443 114.331 12.6666C114.569 12.4888 114.788 12.5155 114.989 12.7466C115.19 12.9421 115.144 13.0932 114.852 13.1998C114.706 13.2354 114.532 13.4398 114.331 13.8131C114.13 14.1864 114.012 14.3908 113.975 14.4263C113.884 14.5685 113.811 14.7374 113.756 14.9329C113.719 15.1285 113.692 15.2707 113.674 15.3595C113.601 15.5373 113.591 15.6351 113.646 15.6528C113.756 15.6884 113.902 15.6528 114.085 15.5462C114.286 15.4395 114.505 15.3151 114.742 15.1729C114.98 15.0129 115.144 14.9063 115.236 14.8529C115.29 14.8352 115.418 14.7729 115.619 14.6663C115.82 14.5419 116.003 14.4352 116.167 14.3463C116.35 14.2575 116.542 14.1953 116.743 14.1597C116.944 14.1241 117.072 14.1775 117.126 14.3197C117.236 14.6396 117.227 14.9596 117.099 15.2795C116.971 15.5817 116.798 15.8484 116.578 16.0794C116.359 16.3105 116.14 16.5771 115.921 16.8793C115.701 17.1815 115.574 17.4659 115.537 17.7325C115.5 17.7681 115.528 17.8125 115.619 17.8659C115.711 17.9192 115.838 17.9636 116.003 17.9992L116.496 18.1058C116.66 18.1414 116.816 18.1769 116.962 18.2125C117.108 18.2302 117.199 18.248 117.236 18.2658C117.565 18.3013 118.159 18.4702 119.017 18.7724C119.876 19.0568 120.497 19.2168 120.88 19.2523C121.027 19.2701 121.438 19.3856 122.114 19.5989C122.79 19.7945 123.255 19.8922 123.511 19.8922C124.023 19.9278 124.351 19.9633 124.498 19.9989C124.662 20.0344 124.781 20.0967 124.854 20.1855C125 20.3277 125.037 20.5144 124.963 20.7455C124.909 20.9765 124.781 21.1365 124.58 21.2254C124.452 21.2787 124.077 21.2165 123.456 21.0387ZM114.962 16.4527C115.236 16.0617 115.345 15.8572 115.29 15.8395C115.254 15.8217 115.099 15.9372 114.825 16.1861C114.642 16.3461 114.368 16.5327 114.002 16.746C113.637 16.9593 113.327 17.1104 113.071 17.1993C112.76 17.2704 112.724 17.3593 112.961 17.4659C113.052 17.5015 113.153 17.5281 113.263 17.5459C113.299 17.5459 113.381 17.5726 113.509 17.6259C113.655 17.6614 113.756 17.6881 113.811 17.7059H114.03C114.139 17.6881 114.222 17.6437 114.276 17.5726C114.35 17.5015 114.413 17.4037 114.468 17.2793C114.56 17.0837 114.724 16.8082 114.962 16.4527ZM102.286 5.01438C102.286 5.33434 102.213 5.52098 102.067 5.57431C101.92 5.60986 101.71 5.51209 101.436 5.28101C101.162 5.01438 100.852 4.76553 100.505 4.53445C100.176 4.28559 99.7921 4.02785 99.3537 3.76122C98.9153 3.47682 98.5864 3.25463 98.3672 3.09465C98.2393 2.97022 98.0566 2.85468 97.8192 2.74803C97.5817 2.64138 97.4355 2.57028 97.3807 2.53473C97.2346 2.37475 97.1706 2.15256 97.1889 1.86815C97.2072 1.58375 97.3898 1.48598 97.7369 1.57486C97.9562 1.61041 98.1388 1.67262 98.285 1.7615C98.4311 1.8326 98.5956 1.93925 98.7782 2.08146C98.9792 2.20588 99.1436 2.31254 99.2715 2.40141C99.3811 2.45474 99.646 2.64138 100.066 2.96133C100.505 3.26351 100.879 3.49459 101.19 3.65457C101.445 3.79677 101.628 3.91231 101.738 4.00119C101.866 4.09007 101.984 4.22338 102.094 4.40113C102.204 4.57889 102.267 4.7833 102.286 5.01438ZM90.119 5.25435C89.9729 5.361 89.7445 5.4321 89.434 5.46765C89.1234 5.5032 88.8677 5.55653 88.6667 5.62763C88.1917 5.73428 87.5706 5.80538 86.8033 5.84093L85.6524 5.8676C85.5063 5.67207 85.4241 5.47654 85.4058 5.28101C85.4058 5.15659 85.4149 5.08548 85.4332 5.06771C85.4697 5.03216 85.5794 5.0055 85.762 4.98772C85.7803 4.98772 86.1731 4.96106 86.9404 4.90773C87.7259 4.8544 88.2648 4.7833 88.5571 4.69443C88.8859 4.60555 89.1874 4.53445 89.4614 4.48112C89.8268 4.44557 90.0825 4.51667 90.2287 4.69443C90.3748 4.8544 90.3383 5.04105 90.119 5.25435ZM81.3228 13.8931C81.6151 13.6798 82.2088 13.4932 83.104 13.3332C83.9991 13.1555 84.5563 13.031 84.7756 12.9599C84.8304 12.9244 85.1044 12.8355 85.5976 12.6933C86.0909 12.5333 86.3649 12.4178 86.4197 12.3467C86.438 12.2756 86.4654 11.7157 86.5019 10.6669C86.5384 9.61819 86.575 9.05827 86.6115 8.98716C86.6481 8.80941 86.7394 8.63166 86.8855 8.45391C87.0317 8.27615 87.1596 8.18728 87.2692 8.18728C87.3605 8.18728 87.4975 8.2406 87.6802 8.34725C87.8629 8.45391 87.9725 8.53389 88.009 8.58722C87.9725 8.71165 87.8994 8.84496 87.7898 8.98716C87.6985 9.12937 87.6254 9.28934 87.5706 9.4671C87.5158 9.64485 87.4975 9.87593 87.5158 10.1603C87.4245 11.2624 87.4519 11.8312 87.598 11.8668C87.6528 11.8668 87.7533 11.8312 87.8994 11.7601C88.2283 11.5824 89.1143 11.1646 90.5575 10.507C92.019 9.84927 92.9689 9.37822 93.4073 9.09382C93.3891 9.00494 93.316 8.80941 93.1881 8.50723C93.0602 8.18728 92.9689 7.92953 92.9141 7.73401C92.8593 7.53848 92.8684 7.36072 92.9415 7.20075C92.9963 7.11187 93.1151 7.06743 93.2977 7.06743C93.4804 7.04966 93.6174 7.08521 93.7088 7.17408C93.8184 7.26296 93.9189 7.43183 94.0102 7.68068C94.1198 7.91176 94.1837 8.04507 94.202 8.08062C94.2386 8.27615 94.3847 8.35614 94.6405 8.32059C94.8962 8.28504 95.0789 8.32948 95.1885 8.45391C95.4443 8.59611 95.4717 8.8183 95.2707 9.12048C95.0698 9.40488 95.0424 9.64485 95.1885 9.84038C95.2433 10.0892 95.4625 10.5158 95.8462 11.1202C96.2481 11.7246 96.4673 12.0978 96.5038 12.24C96.5038 12.2934 96.586 12.4889 96.7505 12.8266C97.061 13.3954 97.2802 13.6532 97.4081 13.5999C97.4995 13.4754 97.6182 13.111 97.7643 12.5067C97.9105 11.8845 98.0384 11.4757 98.148 11.2802C98.2211 11.1735 98.2941 10.9958 98.3672 10.7469C98.4585 10.4981 98.559 10.3203 98.6686 10.2137C98.7782 10.0892 98.9335 10.0448 99.1345 10.0803C99.2624 10.1159 99.3994 10.2048 99.5455 10.347C99.7099 10.4714 99.7921 10.5781 99.7921 10.6669C99.7373 10.7736 99.6368 10.9158 99.4907 11.0935C99.3628 11.2535 99.2532 11.4224 99.1619 11.6001C99.0705 11.7779 98.9883 12.0267 98.9153 12.3467C98.4768 13.6443 98.2485 14.3464 98.2302 14.4531C98.1206 14.6308 98.0932 14.7908 98.148 14.933C98.2028 15.0574 98.4037 15.2974 98.7508 15.6529C98.9335 15.8662 99.2349 16.1684 99.6551 16.5594C100.075 16.9327 100.368 17.2171 100.532 17.4127C100.623 17.5549 100.815 17.7237 101.107 17.9193C101.418 18.1148 101.637 18.2037 101.765 18.1859C101.911 18.1681 102.003 18.0792 102.039 17.9193C102.076 17.7415 102.067 17.3682 102.012 16.7994C101.884 15.8929 101.939 15.4574 102.176 15.4929C102.377 15.5107 102.532 15.8218 102.642 16.4261C102.879 17.5104 102.943 18.2392 102.834 18.6125C102.761 18.8258 102.66 19.0124 102.532 19.1724C102.405 19.3324 102.286 19.4124 102.176 19.4124C101.427 19.2346 100.925 19.0658 100.669 18.9058C100.413 18.728 99.8926 18.257 99.1071 17.4927C98.2302 16.6394 97.7461 16.2217 97.6547 16.2395C97.5451 16.2573 97.3533 16.5061 97.0793 16.9861C96.4216 18.2125 95.8918 19.048 95.4899 19.4924C95.1794 19.8479 94.8505 19.8479 94.5034 19.4924C94.339 19.2968 94.2568 19.0924 94.2568 18.8791C94.2568 18.7014 94.2842 18.5769 94.339 18.5058C94.4121 18.4347 94.5217 18.417 94.6679 18.4525C94.7957 18.5058 94.9145 18.4614 95.0241 18.3192C95.1337 18.177 95.2433 17.9992 95.3529 17.7859C95.4808 17.5726 95.5721 17.4393 95.6269 17.386C95.7914 17.226 95.9832 16.9505 96.2024 16.5594C96.4216 16.1506 96.5769 15.8129 96.6682 15.5463C96.723 15.4041 96.7505 15.2707 96.7505 15.1463C96.7505 15.0041 96.7322 14.8975 96.6956 14.8264C96.6774 14.7375 96.6226 14.6308 96.5312 14.5064L96.3942 14.2398C96.3029 14.0976 96.1476 13.8132 95.9284 13.3866C95.7274 12.9422 95.5356 12.5422 95.3529 12.1867C95.1702 11.8312 95.0515 11.6357 94.9967 11.6001C94.9419 11.5646 94.7957 11.3068 94.5583 10.8269C94.2294 10.2225 94.0467 9.92926 94.0102 9.94703C93.8823 9.91148 93.6722 9.96481 93.3799 10.107C93.0876 10.2492 92.905 10.3292 92.8319 10.347C92.4848 10.5425 91.7358 10.9158 90.5849 11.4668C89.434 12.0179 88.6576 12.4178 88.2557 12.6667C88.2191 12.7022 88.0913 12.7911 87.872 12.9333C87.6528 13.0577 87.5158 13.191 87.461 13.3332C87.4427 13.4221 87.3971 13.7598 87.324 14.3464C87.2692 14.933 87.2418 15.3241 87.2418 15.5196C87.2418 15.5551 87.2692 15.5729 87.324 15.5729C87.3788 15.5729 87.4427 15.564 87.5158 15.5463C87.5889 15.5285 87.6528 15.4929 87.7076 15.4396C87.8538 15.3329 88.2648 15.1196 88.9407 14.7997C89.6167 14.462 90.0003 14.2931 90.0916 14.2931C90.183 14.2931 90.2561 14.3464 90.3109 14.4531C90.3657 14.5419 90.3748 14.6397 90.3383 14.7464C90.2652 14.853 90.119 14.9597 89.8998 15.0663C89.6806 15.173 89.5162 15.2618 89.4066 15.3329C89.3518 15.3863 89.1051 15.5463 88.6667 15.8129C88.2283 16.0617 87.8812 16.275 87.6254 16.4528C87.3697 16.6305 87.2326 16.755 87.2144 16.8261C87.1596 16.8083 87.0956 17.0305 87.0226 17.4927C86.9678 17.9548 86.9038 18.5325 86.8307 19.2257C86.7577 19.919 86.6937 20.4078 86.6389 20.6922C86.5658 20.9055 86.4836 21.5099 86.3923 22.5053C86.3558 23.1274 86.1913 23.5274 85.8991 23.7051C85.6433 23.8829 85.4241 23.8384 85.2414 23.5718C85.1866 23.4829 85.1135 23.1896 85.0222 22.6919C84.9308 22.212 84.8852 21.8387 84.8852 21.5721V21.2255H85.1592C85.3419 21.2432 85.4606 21.1899 85.5154 21.0655C85.5885 20.8522 85.6707 20.2389 85.762 19.2257C85.8717 18.1948 85.8991 17.6526 85.8443 17.5993C85.6616 17.6349 85.4149 17.7148 85.1044 17.8393C84.8121 17.9459 84.4924 18.0792 84.1453 18.2392C83.7982 18.3814 83.5698 18.4703 83.4602 18.5058C83.2045 18.6836 82.9305 18.6836 82.6382 18.5058C82.3459 18.3103 82.2545 18.1059 82.3641 17.8926C82.4007 17.7682 82.5925 17.626 82.9396 17.466C83.305 17.306 83.6338 17.2082 83.9261 17.1727C84.1088 17.1549 84.4741 17.0305 85.0222 16.7994C85.5885 16.5506 85.9082 16.3728 85.9813 16.2662C86.1457 15.8929 86.2736 15.093 86.3649 13.8665V13.6798C86.3466 13.6976 86.3375 13.7154 86.3375 13.7332C86.2462 13.6798 86.1183 13.6621 85.9539 13.6798C85.8077 13.6976 85.6981 13.7154 85.625 13.7332C85.552 13.7509 85.4332 13.7954 85.2688 13.8665C85.1044 13.9198 84.9856 13.9643 84.9126 13.9998C84.7299 14.0531 84.4924 14.142 84.2001 14.2664C83.9261 14.3731 83.652 14.4708 83.378 14.5597C83.104 14.6308 82.8026 14.6664 82.4737 14.6664C81.9074 14.7197 81.5877 14.7108 81.5147 14.6397C81.4416 14.5864 81.3776 14.4708 81.3228 14.2931C81.2863 14.1153 81.2863 13.982 81.3228 13.8931ZM67.4963 9.78726C67.478 9.75171 67.4689 9.65394 67.4689 9.49396C67.4689 9.26288 67.5694 8.8896 67.7703 8.37412C67.9713 7.96529 68.1083 7.53868 68.1814 7.0943C68.2544 6.63214 68.3732 6.24108 68.5376 5.92113C68.702 5.5834 68.7203 5.33454 68.5924 5.17456C68.4828 4.99681 68.2727 4.91682 67.9622 4.9346C67.7247 4.98792 67.4872 5.53007 67.2497 6.56104C67.1583 6.89877 67.0487 7.28094 66.9209 7.70754C66.793 8.13415 66.6834 8.51632 66.592 8.85405C66.5007 9.19178 66.4367 9.5384 66.4002 9.89391C66.2723 10.3027 66.3545 10.6138 66.6468 10.8271C66.9026 11.0226 67.3502 11.0138 67.9896 10.8004C68.6472 10.5694 69.2044 10.2316 69.6611 9.78726C69.9169 9.55618 70.1087 9.42286 70.2366 9.38731C70.3096 9.35176 70.3553 9.35176 70.3736 9.38731C70.3918 9.40509 70.3918 9.50285 70.3736 9.6806C70.3553 9.89391 70.2822 10.1516 70.1544 10.4538C70.1178 10.5249 70.0265 10.7649 69.8803 11.1737C69.7342 11.5648 69.6154 11.8581 69.5241 12.0536C69.451 12.2491 69.3505 12.4891 69.2227 12.7735C69.0948 13.0401 68.976 13.2357 68.8664 13.3601C68.5924 13.7156 68.227 13.6445 67.7703 13.1468C67.6607 13.0224 67.5785 12.9513 67.5237 12.9335C67.4689 12.9157 67.3136 12.9068 67.0579 12.9068C66.656 12.9424 66.4367 13.0312 66.4002 13.1735C66.3637 13.2979 66.519 13.5201 66.8661 13.84C67.1218 14.0711 67.2497 14.2044 67.2497 14.24C67.3228 14.3111 67.4324 14.3999 67.5785 14.5066C67.7429 14.5955 67.8251 14.6577 67.8251 14.6932C67.8434 14.711 67.8343 14.7821 67.7977 14.9065C67.7795 15.0132 67.6973 15.1465 67.5511 15.3065C67.405 15.4487 67.1766 15.662 66.8661 15.9464C66.4276 16.373 66.0805 16.6663 65.8248 16.8263C65.5873 16.9685 65.3224 17.0396 65.0301 17.0396C64.8109 17.0396 64.6739 17.0485 64.619 17.0662C64.5825 17.084 64.5642 17.1373 64.5642 17.2262C64.5277 17.4751 64.6739 17.6351 65.0027 17.7062C65.368 17.795 65.7608 17.7239 66.181 17.4929C66.6012 17.2618 67.1492 16.8263 67.8251 16.1864C68.428 15.5998 68.7842 15.3065 68.8938 15.3065C68.9852 15.3065 69.2044 15.4309 69.5515 15.6798C69.9534 15.9997 70.5106 16.3197 71.2231 16.6396C71.9355 16.9418 72.4836 17.2262 72.8672 17.4929C73.196 17.7417 73.808 18.0528 74.7032 18.4261C75.5983 18.7816 76.1738 19.0571 76.4295 19.2526C76.8314 19.4837 77.142 19.5192 77.3612 19.3593C77.5804 19.1993 77.6718 18.9415 77.6352 18.586C77.5987 18.4972 77.48 18.4083 77.279 18.3194C77.0781 18.2305 76.8406 18.1417 76.5665 18.0528C76.3108 17.9639 76.1372 17.9017 76.0459 17.8661C75.5527 17.6351 75.1507 17.4662 74.8402 17.3595C74.5479 17.2529 74.2739 17.1285 74.0181 16.9863C73.7806 16.8441 73.2326 16.5241 72.374 16.0264C72.2643 15.9375 72.0269 15.8131 71.6615 15.6531C71.2961 15.4754 70.9673 15.3065 70.675 15.1465C70.3827 14.9688 70.1635 14.8088 70.0173 14.6666C69.8164 14.4711 69.7068 14.3288 69.6885 14.24C69.6702 14.1511 69.7342 14 69.8803 13.7867C70.1361 13.3068 70.3279 12.8979 70.4558 12.5602C70.6019 12.2047 70.7572 11.7603 70.9216 11.2271C71.1043 10.6938 71.3053 10.1516 71.5245 9.60061C71.5245 9.56506 71.5427 9.50285 71.5793 9.41397C71.6158 9.30732 71.6341 9.22733 71.6341 9.17401C71.6524 9.10291 71.6706 9.01403 71.6889 8.90738C71.7254 8.80073 71.7437 8.71185 71.7437 8.64075V8.40078C71.762 8.29413 71.762 8.21414 71.7437 8.16081C71.7254 8.10749 71.698 8.05416 71.6615 8.00084C71.625 7.92974 71.5702 7.8853 71.4971 7.86752C71.4423 7.83197 71.3783 7.8142 71.3053 7.8142C71.1226 7.77865 70.8485 7.86752 70.4832 8.08083C70.1178 8.27635 69.7616 8.5341 69.4145 8.85405C69.1222 9.10291 68.7934 9.33399 68.428 9.54729C68.0809 9.74282 67.8251 9.84058 67.6607 9.84058C67.5694 9.84058 67.5146 9.82281 67.4963 9.78726ZM56.7545 9.41397L57.9602 8.98737C58.0333 9.04069 58.0516 9.56506 58.015 10.5605C57.9968 11.5381 57.9694 12.1069 57.9328 12.2669V12.5869C57.9328 12.8535 58.0059 12.9335 58.1521 12.8268C58.2251 12.7557 58.3165 12.5602 58.4261 12.2402C58.5357 11.9203 58.5996 11.6092 58.6179 11.307C58.6362 11.2893 58.8006 10.3294 59.1111 8.42744C59.1294 8.33857 59.2938 8.21414 59.6044 8.05416C59.8419 7.94751 60.0154 7.84975 60.125 7.76087C60.2529 7.65422 60.4356 7.44091 60.6731 7.12096C60.8375 6.90766 60.9014 6.73879 60.8649 6.61436C60.8284 6.41883 60.7188 6.32996 60.5361 6.34773C60.3534 6.36551 60.2346 6.43661 60.1798 6.56104C60.1798 6.61436 60.0246 6.7299 59.714 6.90766C59.4217 7.06763 59.2573 7.12985 59.2207 7.0943C59.1294 7.04097 59.1203 6.82767 59.1933 6.45439C59.2847 6.06333 59.4034 5.80559 59.5496 5.68116C59.6592 5.59228 59.714 5.49452 59.714 5.38787C59.7323 5.28121 59.6957 5.20123 59.6044 5.1479C59.0563 5.04125 58.7001 5.09457 58.5357 5.30788C58.3713 5.52118 58.2617 5.96556 58.2069 6.64103C58.1703 6.801 58.1429 6.96987 58.1246 7.14762C58.1246 7.3076 58.1155 7.41425 58.0972 7.46758C58.0972 7.5209 58.0698 7.58312 58.015 7.65422C57.9602 7.70754 57.8598 7.76087 57.7136 7.8142C57.5492 7.90307 57.1564 8.07194 56.5353 8.32079C55.9142 8.55187 55.4483 8.80073 55.1378 9.06736C54.9368 9.24511 54.7815 9.33399 54.6719 9.33399C54.5441 9.33399 54.4801 9.38731 54.4801 9.49396C54.4801 9.58284 54.5532 9.66283 54.6993 9.73393C54.8638 9.80503 55.0373 9.84058 55.22 9.84058C55.4575 9.84058 55.969 9.69838 56.7545 9.41397ZM56.6175 20.5591C56.8185 20.5946 56.9463 20.6213 57.0011 20.6391C57.1656 20.6924 57.3391 20.6924 57.5218 20.6391C57.7227 20.5858 57.8598 20.488 57.9328 20.3458C58.0059 20.2036 58.0881 20.1147 58.1795 20.0792C58.2891 20.0436 58.49 19.8392 58.7823 19.4659C59.0929 19.0749 59.2756 18.8616 59.3304 18.826C59.4765 18.7016 59.5861 18.4794 59.6592 18.1594C59.7323 17.8217 59.7962 17.5906 59.851 17.4662C59.9789 17.3595 60.0428 16.9863 60.0428 16.3463C60.0611 15.7064 60.0246 15.3154 59.9332 15.1732C59.8053 14.9599 59.5952 14.8266 59.303 14.7732C59.0107 14.7021 58.7458 14.7377 58.5083 14.8799C58.3621 14.951 58.1795 15.1376 57.9602 15.4398L57.878 15.5198C57.8598 15.5553 57.8415 15.582 57.8232 15.5998C57.8232 15.6176 57.805 15.6442 57.7684 15.6798C57.7136 15.7509 57.6679 15.8042 57.6314 15.8397C57.6131 15.8575 57.5857 15.8575 57.5492 15.8397C57.5309 15.822 57.5127 15.7509 57.4944 15.6264C57.4761 15.4487 57.467 15.3065 57.467 15.1998C57.4122 14.631 57.2478 14.5422 56.9737 14.9332C56.9007 15.1287 56.8002 15.3687 56.6723 15.6531C56.5444 15.9375 56.4622 16.133 56.4257 16.2397L56.3161 16.8796C56.2613 17.1818 56.2065 17.6173 56.1517 18.1861C56.1517 18.3816 56.0969 18.7193 55.9873 19.1993C55.8776 19.6614 55.8502 20.0081 55.905 20.2391C55.9599 20.328 56.0421 20.3991 56.1517 20.4524C56.2613 20.488 56.4166 20.5235 56.6175 20.5591ZM58.9193 15.8397C58.9741 15.8575 59.0289 15.9108 59.0837 15.9997C59.1933 16.2664 59.102 16.773 58.8097 17.5195C58.5174 18.2661 58.1977 18.8082 57.8506 19.146C57.6314 19.3593 57.4853 19.4748 57.4122 19.4926C57.3391 19.4926 57.3208 19.4037 57.3574 19.2259C57.3756 19.1371 57.3939 18.9593 57.4122 18.6927C57.4305 18.4083 57.4579 18.1594 57.4944 17.9461C57.5309 17.715 57.5857 17.564 57.6588 17.4929C57.7136 17.4218 57.8141 17.244 57.9602 16.9596C58.1064 16.6574 58.2251 16.4441 58.3165 16.3197C58.353 16.3019 58.3987 16.2575 58.4535 16.1864C58.5083 16.1153 58.554 16.0531 58.5905 15.9997C58.6453 15.9464 58.7001 15.902 58.7549 15.8664C58.8097 15.8131 58.8645 15.8042 58.9193 15.8397ZM29.6652 12.5868C29.7931 12.7112 29.857 12.8712 29.857 13.0668C29.8753 13.2623 29.8296 13.4667 29.72 13.68C29.6104 13.8933 29.4916 14.1066 29.3638 14.3199C29.2359 14.5154 29.0989 14.7199 28.9527 14.9332C28.8248 15.1287 28.7426 15.2887 28.7061 15.4131C28.7061 15.4664 28.8157 15.5109 29.0349 15.5464C29.7474 15.6531 30.0305 16.1241 29.8844 16.9595C29.7565 17.6528 29.4916 18.3105 29.0897 18.9326L29.0623 18.9593C29.0075 19.1548 28.9984 19.2703 29.0349 19.3059C29.0897 19.3237 29.2815 19.3326 29.6104 19.3326H29.8844C30.4142 19.297 31.3733 19.3592 32.7617 19.5192C34.1501 19.6792 34.9082 19.7592 35.0361 19.7592C35.2553 19.7592 35.3923 19.7414 35.4471 19.7058C35.5202 19.6703 35.5567 19.5725 35.5567 19.4125C35.5567 19.3237 35.6298 19.137 35.7759 18.8526C35.9404 18.5682 36.05 18.426 36.1048 18.426C36.2327 18.3905 36.3605 18.3016 36.4884 18.1594C36.6346 17.9994 36.7716 17.8039 36.8994 17.5728C37.0456 17.3239 37.1552 17.1551 37.2283 17.0662C37.5571 16.6574 37.6667 16.4085 37.5571 16.3196C37.411 16.3019 37.3013 16.293 37.2283 16.293C37.1552 16.2752 37.0273 16.2841 36.8446 16.3196L36.4336 16.3996C36.3605 16.4174 36.2327 16.453 36.05 16.5063C35.8673 16.5596 35.7485 16.5952 35.6937 16.6129C35.0178 16.7551 34.7346 16.5863 34.8443 16.1063C34.9356 15.8042 35.301 15.582 35.9404 15.4398C35.9769 15.422 36.0317 15.4042 36.1048 15.3864C36.7442 15.1731 37.1369 14.9865 37.2831 14.8265C37.4475 14.6488 37.548 14.2488 37.5845 13.6267L37.6119 12.9334C37.3744 12.969 37.1278 13.0312 36.872 13.1201C36.5615 13.2445 36.3331 13.2623 36.187 13.1734C36.0408 13.0668 35.9952 12.8623 36.05 12.5602C36.123 12.2047 36.3149 12.0269 36.6254 12.0269C36.7716 12.0269 36.9451 11.9914 37.1461 11.9202C37.3653 11.8491 37.5023 11.778 37.5571 11.7069C37.6119 11.6358 37.6576 11.3692 37.6941 10.9071C37.7124 10.4804 37.7672 10.1694 37.8585 9.97385C37.9499 9.76055 38.1052 9.54725 38.3244 9.33394L38.5984 9.46726C38.7811 9.55613 38.8816 9.64501 38.8998 9.73389C38.9364 9.82276 38.909 9.99163 38.8176 10.2405C38.7445 10.4716 38.6989 10.6849 38.6806 10.8804C38.6806 11.0759 38.7171 11.1915 38.7902 11.227C38.845 11.2448 38.9912 11.2003 39.2287 11.0937C39.4844 10.9693 39.6306 10.8804 39.6671 10.8271C39.6854 10.8093 39.7402 10.6493 39.8315 10.3471C39.9411 10.0272 40.0233 9.84054 40.0781 9.78721C40.1695 9.66278 40.206 9.56502 40.1877 9.49392C40.1877 9.42282 40.1238 9.35172 39.9959 9.28062C39.8315 9.19174 39.731 9.06731 39.6945 8.90733C39.658 8.72958 39.658 8.4274 39.6945 8.00079C39.7493 7.21868 39.731 6.34769 39.6397 5.38782C39.5849 4.69459 39.5575 4.23243 39.5575 4.00135C39.5758 3.77027 39.6397 3.55697 39.7493 3.36144C39.8224 3.23701 39.9503 3.14813 40.1329 3.09481C40.3156 3.02371 40.7449 2.92594 41.4209 2.80152C42.3525 2.69486 42.8641 2.74819 42.9554 2.96149C43.2112 3.2459 43.1929 3.68139 42.9006 4.26798C42.5718 4.90789 42.042 5.53003 41.3112 6.13439L40.9276 6.481L40.7632 7.17424C40.6353 7.86748 40.6627 8.23187 40.8454 8.26742C40.9916 8.23187 41.2473 8.01857 41.6127 7.62751C41.9963 7.23645 42.2155 6.93427 42.2703 6.72097C42.3982 6.57877 42.59 6.54322 42.8458 6.61432C43.1015 6.68542 43.1929 6.82762 43.1198 7.04093C43.0467 7.41421 42.654 7.96524 41.9415 8.69403C41.5761 9.04954 41.3661 9.34283 41.3112 9.57391C41.2564 9.78721 41.2838 9.95608 41.3935 10.0805C41.6309 10.3827 41.567 10.6849 41.2016 10.987C40.9641 11.2003 40.7906 11.3959 40.681 11.5736C40.5896 11.7514 40.4709 12.0713 40.3248 12.5335C40.1786 13.1379 40.1329 13.44 40.1877 13.44C40.2425 13.4934 40.4252 13.3956 40.7358 13.1467C41.0646 12.8979 41.3661 12.6135 41.6401 12.2935C41.9141 11.9558 42.0237 11.7247 41.9689 11.6003C41.9689 11.3337 42.042 11.1559 42.1881 11.067C42.3343 10.9782 42.5078 11.0137 42.7088 11.1737C42.8367 11.2626 42.8915 11.4492 42.8732 11.7336C42.8732 12.0002 42.8093 12.2669 42.6814 12.5335C42.517 12.8179 42.2064 13.1734 41.7497 13.6C41.293 14.0266 40.8454 14.3644 40.407 14.6132C39.8406 14.9509 39.4296 15.262 39.1739 15.5464C38.9181 15.8308 38.6806 16.2308 38.4614 16.7462C38.1874 17.4039 37.621 18.2749 36.7624 19.3592C36.5798 19.5903 36.5067 19.7236 36.5432 19.7592C36.6163 19.7947 36.7898 19.8303 37.0639 19.8658C37.3379 19.9014 37.6484 19.9369 37.9955 19.9725C38.3609 19.9902 38.6167 20.0169 38.7628 20.0525C39.2926 20.1591 40.3704 20.1947 41.9963 20.1591C43.6405 20.1058 44.6818 20.0258 45.1202 19.9191C45.4673 19.8303 45.9331 19.7325 46.5177 19.6258C47.1023 19.5192 47.559 19.4303 47.8879 19.3592C48.2167 19.2703 48.5912 19.1281 49.0114 18.9326C49.4498 18.7371 49.8426 18.4882 50.1897 18.186C50.3541 18.0438 50.5094 17.9816 50.6555 17.9994C50.7651 18.0172 50.8291 18.0438 50.8473 18.0794C50.8839 18.0972 50.9113 18.1594 50.9295 18.266C50.9478 18.4616 50.8839 18.6482 50.7377 18.826C50.5916 19.0037 50.3084 19.2348 49.8882 19.5192C49.5959 19.7147 49.2945 19.8747 48.984 19.9991C48.6734 20.1236 48.4085 20.2124 48.1893 20.2658C47.9701 20.3191 47.4403 20.4524 46.5999 20.6657C45.5404 20.9146 44.2068 21.0834 42.5992 21.1723C40.9916 21.2434 39.4935 21.199 38.1052 21.039C37.3196 20.9679 36.0865 20.8701 34.4058 20.7457C32.7434 20.6035 31.5468 20.4879 30.8161 20.3991C30.5238 20.3813 30.1584 20.3902 29.72 20.4257C29.2815 20.4613 28.9162 20.4702 28.6239 20.4524C28.0576 20.4524 27.7013 20.4968 27.5552 20.5857C27.1167 20.8523 26.8336 21.0123 26.7057 21.0656C26.5778 21.119 26.4043 21.1545 26.1851 21.1723C25.8745 21.1901 25.6553 21.1367 25.5274 21.0123C25.3264 20.8168 25.2716 20.6213 25.363 20.4257C25.4726 20.2124 25.7101 20.0436 26.0755 19.9191C26.1851 19.8658 26.3403 19.8036 26.5413 19.7325C26.7605 19.6436 26.9249 19.5814 27.0345 19.5459C27.1441 19.4925 27.272 19.4214 27.4182 19.3326C27.5643 19.2259 27.6922 19.1192 27.8018 19.0126C28.0758 18.6926 28.3316 18.2927 28.5691 17.8128C28.8248 17.3328 28.9253 16.9329 28.8705 16.6129L28.1032 16.5596C27.7379 16.5418 27.5095 16.5241 27.4182 16.5063C27.3451 16.4885 27.2903 16.4352 27.2538 16.3463C27.1259 16.1152 27.2355 15.813 27.5826 15.4398C27.747 15.2442 27.9936 14.9065 28.3225 14.4266C28.6696 13.9466 28.8431 13.6711 28.8431 13.6C28.8431 13.4223 28.5417 13.3245 27.9388 13.3067C27.6283 13.2889 27.4364 13.2712 27.3634 13.2534C27.2903 13.2356 27.2172 13.1823 27.1441 13.0934C27.0528 12.969 27.0163 12.8357 27.0345 12.6935C27.0711 12.5335 27.1533 12.418 27.2812 12.3469C27.3542 12.2224 27.747 12.1869 28.4595 12.2402C29.1719 12.2935 29.5738 12.4091 29.6652 12.5868ZM42.0785 3.8947C42.0237 3.78805 41.8045 3.77027 41.4209 3.84137C41.0372 3.8947 40.8271 3.98357 40.7906 4.108C40.7541 4.16133 40.7541 4.34797 40.7906 4.66792C40.8089 4.9701 40.8545 5.13008 40.9276 5.14786C41.019 5.14786 41.2108 4.99677 41.5031 4.69459C41.9232 4.28575 42.1151 4.01912 42.0785 3.8947ZM39.2561 12.4535C39.2378 12.2758 39.119 12.2402 38.8998 12.3469C38.6806 12.4535 38.5527 12.8712 38.5162 13.6C38.4797 14.0977 38.5071 14.3466 38.5984 14.3466C38.6167 14.3466 38.6441 14.3377 38.6806 14.3199C38.7354 14.2844 38.845 13.9911 39.0094 13.44C39.1921 12.889 39.2743 12.5602 39.2561 12.4535ZM37.0091 3.1748C37.5754 3.317 37.959 3.5303 38.16 3.81471C38.3792 4.09911 38.434 4.39241 38.3244 4.69459C38.233 4.99677 38.0321 5.29895 37.7215 5.60113C37.4292 5.90331 37.073 6.16105 36.6528 6.37435C36.5249 6.44545 36.3879 6.51655 36.2418 6.58766C36.0591 6.67653 35.9495 6.76541 35.913 6.85429C35.8764 6.92539 35.8399 7.16535 35.8033 7.57419C35.7851 7.66306 35.7759 7.73416 35.7759 7.78749C35.6481 9.10286 35.6572 9.76055 35.8033 9.76055C36.0043 9.60057 36.2966 9.20951 36.6802 8.58738C37.0639 7.94747 37.347 7.5653 37.5297 7.44087C37.621 7.4231 37.7033 7.45865 37.7763 7.54752C37.8494 7.61862 37.9042 7.72528 37.9407 7.86748C37.959 7.99191 37.9407 8.10744 37.8859 8.2141C37.8311 8.32075 37.621 8.64959 37.2557 9.20063C36.9817 9.73389 36.6528 10.2316 36.2692 10.6938C35.9038 11.1559 35.5476 11.3692 35.2005 11.3337C34.963 11.3337 34.8169 11.2715 34.762 11.147C34.7072 11.0226 34.6798 10.7026 34.6798 10.1872C34.6616 9.97385 34.6798 9.57391 34.7346 8.98732C34.8077 8.40074 34.8443 7.89414 34.8443 7.46753C34.8443 7.02315 34.7712 6.74763 34.625 6.64098C34.5154 6.53433 34.4606 6.45434 34.4606 6.40102C34.4606 6.32991 34.5154 6.1966 34.625 6.00107C34.7164 5.84109 34.762 5.69889 34.762 5.57446C34.7803 5.43226 34.7895 5.13008 34.7895 4.66792L34.762 3.68139L35.0087 3.44143C35.1731 3.26367 35.4836 3.15702 35.9404 3.12147C36.3971 3.08592 36.7533 3.1037 37.0091 3.1748ZM37.3379 4.69459C37.411 4.49906 37.3196 4.35685 37.0639 4.26798C36.8081 4.1791 36.5523 4.16133 36.2966 4.21465C36.1322 4.23243 36.0226 4.41907 35.9678 4.77457C35.9312 4.95233 35.9404 5.06787 35.9952 5.12119C36.05 5.15674 36.1778 5.13897 36.3788 5.06787C36.9817 4.89011 37.3013 4.76569 37.3379 4.69459ZM27.9936 7.78749C28.1032 7.68084 28.1946 7.61862 28.2677 7.60085C28.3407 7.5653 28.3955 7.55641 28.4321 7.57419C28.4869 7.59196 28.5782 7.62751 28.7061 7.68084C28.8522 7.73416 28.9984 7.7786 29.1445 7.81415C29.6378 7.99191 29.9483 8.16077 30.0762 8.32075C30.2772 8.53405 30.3594 8.72958 30.3228 8.90733C30.2863 9.06731 30.1676 9.15619 29.9666 9.17396C29.7657 9.19174 29.519 9.13841 29.2267 9.01399C29.0989 8.94288 28.8796 8.87178 28.5691 8.80068C28.2585 8.71181 28.0302 8.61404 27.884 8.50739C27.6465 8.31186 27.6831 8.07189 27.9936 7.78749ZM44.3803 18.746C44.3803 18.8526 44.3164 18.977 44.1885 19.1192C44.0606 19.2614 43.9419 19.3326 43.8323 19.3326C43.6131 19.3326 42.8915 18.7993 41.6675 17.7328C41.3569 17.4484 41.0007 17.1995 40.5988 16.9862C40.2882 16.7907 40.0416 16.6396 39.8589 16.5329C39.6762 16.4085 39.5484 16.3019 39.4753 16.213C39.4022 16.1063 39.3839 16.0175 39.4205 15.9464C39.457 15.8753 39.5392 15.8042 39.6671 15.7331C39.9411 15.5553 40.2517 15.5375 40.5988 15.6797C40.9276 15.8397 41.4483 16.213 42.1607 16.7996C42.8915 17.3684 43.3208 17.6883 43.4486 17.7594C44.0698 18.2038 44.3803 18.5327 44.3803 18.746ZM20.7711 5.57431C20.9173 5.52098 20.9903 5.33434 20.9903 5.01438C20.9721 4.7833 20.9081 4.57889 20.7985 4.40113C20.6889 4.22338 20.5702 4.09007 20.4423 4.00119C20.3327 3.91231 20.15 3.79677 19.8942 3.65457C19.5837 3.49459 19.2092 3.26351 18.7707 2.96133C18.3505 2.64138 18.0857 2.45474 17.976 2.40141C17.8482 2.31254 17.6838 2.20588 17.4828 2.08146C17.3001 1.93925 17.1357 1.8326 16.9896 1.7615C16.8434 1.67262 16.6607 1.61041 16.4415 1.57486C16.0944 1.48598 15.9117 1.58375 15.8935 1.86815C15.8752 2.15256 15.9391 2.37475 16.0853 2.53473C16.1401 2.57028 16.2862 2.64138 16.5237 2.74803C16.7612 2.85468 16.9439 2.97022 17.0718 3.09465C17.291 3.25463 17.6198 3.47682 18.0583 3.76122C18.4967 4.02785 18.8803 4.28559 19.2092 4.53445C19.5563 4.76553 19.8668 5.01438 20.1408 5.28101C20.4149 5.51209 20.625 5.60986 20.7711 5.57431ZM8.13855 5.46765C8.44911 5.4321 8.67746 5.361 8.82361 5.25435C9.04283 5.04105 9.07937 4.8544 8.93322 4.69443C8.78707 4.51667 8.53132 4.44557 8.16595 4.48112C7.89192 4.53445 7.5905 4.60555 7.26167 4.69443C6.96937 4.7833 6.43046 4.8544 5.64492 4.90773C4.87765 4.96106 4.48488 4.98772 4.46661 4.98772C4.28393 5.0055 4.17432 5.03216 4.13778 5.06771C4.11951 5.08548 4.11038 5.15659 4.11038 5.28101C4.12865 5.47654 4.21085 5.67207 4.357 5.8676L5.50791 5.84093C6.27518 5.80538 6.8963 5.73428 7.37128 5.62763C7.57223 5.55653 7.82798 5.5032 8.13855 5.46765ZM1.80857 13.3332C0.913417 13.4932 0.319696 13.6798 0.0274025 13.8931C-0.00913417 13.982 -0.00913417 14.1153 0.0274025 14.2931C0.0822075 14.4708 0.146147 14.5864 0.21922 14.6397C0.292293 14.7108 0.611989 14.7197 1.17831 14.6664C1.50714 14.6664 1.80857 14.6308 2.08259 14.5597C2.35662 14.4708 2.63064 14.3731 2.90467 14.2664C3.19696 14.142 3.43445 14.0531 3.61713 13.9998C3.69021 13.9643 3.80895 13.9198 3.97336 13.8665C4.13778 13.7954 4.25652 13.7509 4.3296 13.7332C4.40267 13.7154 4.51228 13.6976 4.65843 13.6798C4.82284 13.6621 4.95072 13.6798 5.04206 13.7332C5.04206 13.7154 5.0512 13.6976 5.06947 13.6798V13.8665C4.97812 15.093 4.85024 15.8929 4.68583 16.2662C4.61276 16.3728 4.29306 16.5506 3.72674 16.7994C3.17869 17.0305 2.81332 17.1549 2.63064 17.1727C2.33835 17.2082 2.00952 17.306 1.64415 17.466C1.29705 17.626 1.10523 17.7682 1.0687 17.8926C0.959088 18.1059 1.05043 18.3103 1.34272 18.5058C1.63502 18.6836 1.90904 18.6836 2.1648 18.5058C2.27441 18.4703 2.50276 18.3814 2.84986 18.2392C3.19696 18.0792 3.51666 17.9459 3.80895 17.8393C4.11951 17.7148 4.36613 17.6349 4.54882 17.5993C4.60362 17.6526 4.57622 18.1948 4.46661 19.2257C4.37527 20.2389 4.29306 20.8522 4.21999 21.0655C4.16518 21.1899 4.04644 21.2432 3.86375 21.2255H3.58973V21.5721C3.58973 21.8387 3.6354 22.212 3.72674 22.6919C3.81808 23.1896 3.89116 23.4829 3.94596 23.5718C4.12865 23.8384 4.34787 23.8829 4.60362 23.7051C4.89592 23.5274 5.06033 23.1274 5.09687 22.5053C5.18821 21.5099 5.27042 20.9055 5.34349 20.6922C5.3983 20.4078 5.46223 19.919 5.53531 19.2257C5.60838 18.5325 5.67232 17.9548 5.72713 17.4927C5.8002 17.0305 5.86414 16.8083 5.91894 16.8261C5.93721 16.755 6.07422 16.6305 6.32998 16.4528C6.58574 16.275 6.93284 16.0617 7.37128 15.8129C7.80972 15.5463 8.05634 15.3863 8.11114 15.3329C8.22075 15.2618 8.38517 15.173 8.60439 15.0663C8.82361 14.9597 8.96976 14.853 9.04283 14.7464C9.07937 14.6397 9.07023 14.5419 9.01543 14.4531C8.96062 14.3464 8.88755 14.2931 8.79621 14.2931C8.70487 14.2931 8.32123 14.462 7.6453 14.7997C6.96937 15.1196 6.55834 15.3329 6.41219 15.4396C6.35738 15.4929 6.29344 15.5285 6.22037 15.5463C6.1473 15.564 6.08336 15.5729 6.02855 15.5729C5.97375 15.5729 5.94635 15.5551 5.94635 15.5196C5.94635 15.3241 5.97375 14.933 6.02855 14.3464C6.10163 13.7598 6.1473 13.4221 6.16557 13.3332C6.22037 13.191 6.35738 13.0577 6.5766 12.9333C6.79582 12.7911 6.9237 12.7022 6.96024 12.6667C7.36214 12.4178 8.13855 12.0179 9.28945 11.4668C10.4404 10.9158 11.1894 10.5425 11.5365 10.347C11.6095 10.3292 11.7922 10.2492 12.0845 10.107C12.3768 9.96481 12.5869 9.91148 12.7148 9.94703C12.7513 9.92926 12.934 10.2225 13.2628 10.8269C13.5003 11.3068 13.6465 11.5646 13.7013 11.6001C13.7561 11.6357 13.8748 11.8312 14.0575 12.1867C14.2402 12.5422 14.432 12.9422 14.6329 13.3866C14.8522 13.8132 15.0074 14.0976 15.0988 14.2398L15.2358 14.5064C15.3271 14.6308 15.3819 14.7375 15.4002 14.8264C15.4367 14.8975 15.455 15.0041 15.455 15.1463C15.455 15.2707 15.4276 15.4041 15.3728 15.5463C15.2815 15.8129 15.1262 16.1506 14.907 16.5594C14.6877 16.9505 14.4959 17.226 14.3315 17.386C14.2767 17.4393 14.1854 17.5726 14.0575 17.7859C13.9479 17.9992 13.8383 18.177 13.7287 18.3192C13.6191 18.4614 13.5003 18.5058 13.3724 18.4525C13.2263 18.417 13.1167 18.4347 13.0436 18.5058C12.9888 18.5769 12.9614 18.7014 12.9614 18.8791C12.9614 19.0924 13.0436 19.2968 13.208 19.4924C13.5551 19.8479 13.8839 19.8479 14.1945 19.4924C14.5964 19.048 15.1262 18.2125 15.7838 16.9861C16.0579 16.5061 16.2497 16.2573 16.3593 16.2395C16.4506 16.2217 16.9348 16.6394 17.8116 17.4927C18.5972 18.257 19.1178 18.728 19.3736 18.9058C19.6293 19.0658 20.1317 19.2346 20.8807 19.4124C20.9903 19.4124 21.1091 19.3324 21.2369 19.1724C21.3648 19.0124 21.4653 18.8258 21.5384 18.6125C21.648 18.2392 21.584 17.5104 21.3466 16.4261C21.2369 15.8218 21.0817 15.5107 20.8807 15.4929C20.6432 15.4574 20.5884 15.8929 20.7163 16.7994C20.7711 17.3682 20.7802 17.7415 20.7437 17.9193C20.7072 18.0792 20.6158 18.1681 20.4697 18.1859C20.3418 18.2037 20.1226 18.1148 19.812 17.9193C19.5197 17.7237 19.3279 17.5549 19.2366 17.4127C19.0721 17.2171 18.7799 16.9327 18.3597 16.5594C17.9395 16.1684 17.6381 15.8662 17.4554 15.6529C17.1083 15.2974 16.9074 15.0574 16.8525 14.933C16.7977 14.7908 16.8251 14.6308 16.9348 14.4531C16.953 14.3464 17.1814 13.6443 17.6198 12.3467C17.6929 12.0267 17.7751 11.7779 17.8664 11.6001C17.9578 11.4224 18.0674 11.2535 18.1953 11.0935C18.3414 10.9158 18.4419 10.7736 18.4967 10.6669C18.4967 10.5781 18.4145 10.4714 18.2501 10.347C18.1039 10.2048 17.9669 10.1159 17.839 10.0803C17.6381 10.0448 17.4828 10.0892 17.3732 10.2137C17.2636 10.3203 17.1631 10.4981 17.0718 10.7469C16.9987 10.9958 16.9256 11.1735 16.8525 11.2802C16.7429 11.4757 16.6151 11.8845 16.4689 12.5067C16.3228 13.111 16.204 13.4754 16.1127 13.5999C15.9848 13.6532 15.7656 13.3954 15.455 12.8266C15.2906 12.4889 15.2084 12.2934 15.2084 12.24C15.1719 12.0978 14.9526 11.7246 14.5507 11.1202C14.1671 10.5158 13.9479 10.0892 13.8931 9.84038C13.7469 9.64485 13.7743 9.40488 13.9753 9.12048C14.1762 8.8183 14.1488 8.59611 13.8931 8.45391C13.7835 8.32948 13.6008 8.28504 13.345 8.32059C13.0893 8.35614 12.9431 8.27615 12.9066 8.08062C12.8883 8.04507 12.8244 7.91176 12.7148 7.68068C12.6234 7.43183 12.5229 7.26296 12.4133 7.17408C12.322 7.08521 12.185 7.04966 12.0023 7.06743C11.8196 7.06743 11.7009 7.11187 11.6461 7.20075C11.573 7.36072 11.5639 7.53848 11.6187 7.73401C11.6735 7.92953 11.7648 8.18728 11.8927 8.50723C12.0206 8.80941 12.0936 9.00494 12.1119 9.09382C11.6735 9.37822 10.7235 9.84927 9.26205 10.507C7.81885 11.1646 6.93284 11.5824 6.60401 11.7601C6.45786 11.8312 6.35738 11.8668 6.30258 11.8668C6.15643 11.8312 6.12903 11.2624 6.22037 10.1603C6.2021 9.87593 6.22037 9.64485 6.27518 9.4671C6.32998 9.28934 6.40305 9.12937 6.4944 8.98716C6.60401 8.84496 6.67708 8.71165 6.71362 8.58722C6.67708 8.53389 6.56747 8.45391 6.38479 8.34725C6.2021 8.2406 6.06509 8.18728 5.97375 8.18728C5.86414 8.18728 5.73626 8.27615 5.59011 8.45391C5.44397 8.63166 5.35262 8.80941 5.31609 8.98716C5.27955 9.05827 5.24301 9.61819 5.20648 10.6669C5.16994 11.7157 5.14254 12.2756 5.12427 12.3467C5.06947 12.4178 4.79544 12.5333 4.30219 12.6933C3.80895 12.8355 3.53492 12.9244 3.48012 12.9599C3.2609 13.031 2.70371 13.1555 1.80857 13.3332Z" fill="#979797"/>
</svg>
