<svg width="112" height="22" viewBox="0 0 112 22" fill="none" xmlns="http://www.w3.org/2000/svg">
<path fill-rule="evenodd" clip-rule="evenodd" d="M102.015 1.86715C101.997 1.68441 102.07 1.52907 102.234 1.40114C102.397 1.25495 102.543 1.15443 102.671 1.09961C102.816 1.04478 102.999 0.989959 103.217 0.935135C103.363 0.935135 104.01 0.670149 105.157 0.140177C105.74 -0.133947 106.032 -0.00602238 106.032 0.52395C106.032 0.779798 105.95 0.971685 105.786 1.09961C105.64 1.20926 105.403 1.30063 105.075 1.37373C104.748 1.42856 104.547 1.47424 104.474 1.51079C103.964 1.74837 103.445 1.94939 102.917 2.11387C102.589 2.22352 102.352 2.26006 102.206 2.22352C102.079 2.18697 102.015 2.06818 102.015 1.86715ZM95.6752 8.74765C95.7663 8.23596 95.8483 7.61461 95.9211 6.88361C95.994 6.15262 96.0578 5.5861 96.1124 5.18405C96.1124 4.89165 96.2764 4.57184 96.6043 4.22462C96.8229 3.98704 96.8593 3.86826 96.7136 3.86826C96.6772 3.88653 96.4859 3.93222 96.1397 4.00532C95.7754 4.09669 95.5386 4.14238 95.4293 4.14238C95.3199 4.14238 95.2289 4.10583 95.156 4.03273C94.9374 3.70378 94.8918 3.41138 95.0194 3.15553C95.1469 2.89969 95.4475 2.79004 95.9211 2.82659C96.249 2.82659 96.5587 2.7809 96.8502 2.68952C97.1599 2.59815 97.6154 2.40626 98.2166 2.11387C98.927 1.76664 99.3278 1.59303 99.4189 1.59303C99.51 1.59303 99.6011 1.64786 99.6922 1.75751C99.7833 1.84888 99.8288 1.94025 99.8288 2.03163C99.8288 2.1961 99.7013 2.36971 99.4462 2.55246C99.2094 2.71694 98.7175 2.98192 97.9706 3.34742C97.4787 3.585 97.2328 3.74033 97.2328 3.81343C97.2328 3.83171 97.2601 3.85912 97.3148 3.89567C97.4423 3.93222 97.4332 4.18807 97.2875 4.66321C97.0871 5.33939 97.0324 5.67747 97.1235 5.67747C97.1781 5.69575 97.2692 5.65006 97.3968 5.54041C97.7247 5.32111 98.1437 5.12009 98.6538 4.93734C99.1639 4.73631 99.5738 4.66321 99.8835 4.71804C100.302 4.77286 100.558 4.9282 100.649 5.18405C100.758 5.4399 100.813 6.07952 100.813 7.10291C100.831 7.32221 100.84 7.61461 100.84 7.98011C100.822 8.38216 100.831 8.59232 100.867 8.61059C100.904 8.61059 100.958 8.52835 101.031 8.36388C101.104 8.21768 101.195 8.10803 101.304 8.03493C101.432 7.96183 101.55 7.94356 101.66 7.98011C101.751 8.03493 101.878 8.19941 102.042 8.47353C102.206 8.72938 102.306 8.87558 102.343 8.91213C102.598 9.18625 102.698 9.43296 102.643 9.65226C102.589 9.78018 102.643 9.84415 102.807 9.84415C102.898 9.82587 103.008 9.78932 103.135 9.7345C103.317 9.64312 103.563 9.54261 103.873 9.43296C104.201 9.32331 104.429 9.24108 104.556 9.18625C105.048 9.0035 105.331 9.04005 105.403 9.2959C105.44 9.49692 105.385 9.67054 105.239 9.81673C105.094 9.96293 104.775 10.1457 104.283 10.365C104.21 10.4198 104.137 10.5477 104.064 10.7488C103.992 10.9498 103.946 11.0686 103.928 11.1051C103.855 11.2696 103.809 11.5437 103.791 11.9275C103.773 12.2747 103.791 12.4575 103.846 12.4757C103.919 12.494 104.183 12.4026 104.638 12.2016C104.748 12.1468 104.921 12.0645 105.157 11.9549C105.394 11.8452 105.54 11.7813 105.595 11.763C105.668 11.7265 105.777 11.6899 105.923 11.6534C106.087 11.6168 106.196 11.6168 106.251 11.6534C106.305 11.6716 106.378 11.7082 106.469 11.763C106.56 11.8178 106.633 11.9092 106.688 12.0371C106.742 12.1651 106.806 12.3295 106.879 12.5306C106.915 12.8595 106.843 13.2616 106.66 13.7367C106.496 14.2118 106.26 14.6687 105.95 15.1073C105.75 15.3632 105.649 15.5094 105.649 15.5459C105.649 15.5642 105.713 15.6738 105.841 15.8749C105.968 16.0576 106.032 16.1673 106.032 16.2038V16.2586C106.123 16.551 106.269 16.6241 106.469 16.4779C106.688 16.4048 106.961 16.2495 107.289 16.0119C107.635 15.7744 107.99 15.5094 108.355 15.217C108.737 14.9246 109.001 14.7327 109.147 14.6413C109.22 14.623 109.32 14.5499 109.448 14.422C109.575 14.2941 109.666 14.221 109.721 14.2027C109.794 14.1844 109.921 14.2027 110.104 14.2575C110.249 14.422 110.204 14.6687 109.967 14.9977C109.147 15.9845 108.036 16.8434 106.633 17.5744C106.414 17.6658 106.269 17.7755 106.196 17.9034C106.123 18.0313 106.087 18.2597 106.087 18.5887C106.087 19.0821 106.141 19.3928 106.251 19.5207C106.36 19.6486 106.633 19.6486 107.07 19.5207C107.362 19.4476 107.826 19.2923 108.464 19.0547C109.102 18.8171 109.657 18.6709 110.131 18.6161C110.222 18.5978 110.349 18.5795 110.513 18.5613C110.677 18.5247 110.787 18.4973 110.841 18.479C110.896 18.4608 110.942 18.4151 110.978 18.342C111.033 18.2506 111.051 18.1227 111.033 17.9582C111.014 17.7206 110.942 17.5287 110.814 17.3825C110.577 17.1084 110.532 16.8983 110.677 16.7521C110.823 16.6059 111.051 16.6333 111.361 16.8343C111.634 17.017 111.825 17.3551 111.934 17.8486C112.044 18.342 112.016 18.744 111.852 19.0547C111.743 19.2557 111.597 19.4019 111.415 19.4933C111.233 19.5847 110.914 19.6395 110.459 19.6578C110.113 19.676 109.694 19.7674 109.202 19.9319C108.728 20.0781 108.309 20.2243 107.945 20.3705C107.599 20.5167 107.189 20.6263 106.715 20.6994C106.241 20.7725 105.832 20.7451 105.485 20.6172C105.321 20.471 105.203 20.2243 105.13 19.8771C105.057 19.5116 105.003 18.8994 104.966 18.0404C104.93 17.346 104.902 16.8708 104.884 16.615C104.848 16.3957 104.82 16.2678 104.802 16.2312C104.784 16.1947 104.72 16.1764 104.611 16.1764C104.411 16.2129 104.01 16.0759 103.409 15.7652C103.336 15.8018 103.099 15.948 102.698 16.2038C102.297 16.4414 102.051 16.5784 101.96 16.615C101.578 16.7795 101.304 17.0993 101.14 17.5744C100.995 18.013 100.967 18.2689 101.059 18.342C101.168 18.3968 101.405 18.278 101.769 17.9856C102.042 17.7663 102.334 17.5653 102.643 17.3825C102.971 17.1815 103.181 17.081 103.272 17.081C103.746 17.081 103.718 17.3643 103.19 17.9308C103.117 18.0039 103.026 18.0861 102.917 18.1775C102.88 18.2323 102.835 18.278 102.78 18.3146C102.744 18.3511 102.689 18.3968 102.616 18.4516C102.525 18.543 102.47 18.607 102.452 18.6435C102.452 18.6618 102.516 18.6983 102.643 18.7532C102.844 18.7897 102.944 18.9176 102.944 19.1369C102.962 19.3562 102.88 19.6212 102.698 19.9319C102.534 20.2426 102.288 20.5624 101.96 20.8913C101.049 21.8051 100.375 21.997 99.9381 21.467C99.8106 21.3025 99.7377 21.1106 99.7195 20.8913C99.7013 20.672 99.7195 20.3979 99.7742 20.069C99.8288 19.7217 99.8561 19.4567 99.8561 19.274C99.8561 18.8902 99.9017 18.4425 99.9928 17.9308C100.102 17.4008 100.157 17.0262 100.157 16.8069C100.102 16.4414 100.211 16.1398 100.485 15.9023C100.594 15.7926 100.712 15.6099 100.84 15.354C100.986 15.0982 101.059 14.9246 101.059 14.8332C101.059 14.6322 100.876 14.6413 100.512 14.8606C100.257 15.0434 100.029 15.0708 99.8288 14.9428C99.6466 14.8149 99.6011 14.6139 99.6922 14.3398C99.7104 14.1205 99.8015 13.9651 99.9654 13.8738C100.148 13.7641 100.33 13.7002 100.512 13.6819C100.712 13.6453 100.885 13.5631 101.031 13.4352C101.195 13.3072 101.277 13.0971 101.277 12.8047C101.277 12.3295 101.232 12.0645 101.14 12.0097C101.049 11.9549 100.813 12.0463 100.43 12.2838C99.9928 12.5762 99.6557 12.9235 99.4189 13.3255C99.2003 13.7276 98.8815 14.5682 98.4625 15.8475C98.3167 16.2495 98.0708 16.9074 97.7247 17.8211C97.3968 18.7166 97.1508 19.3836 96.9869 19.8222C96.7682 20.4801 96.6134 20.9005 96.5223 21.0832C96.4312 21.2842 96.3037 21.4853 96.1397 21.6863C96.0304 21.869 95.8938 21.9695 95.7298 21.9878C95.5841 22.0244 95.4475 21.9787 95.3199 21.8508C95.2289 21.668 95.2744 21.3665 95.4566 20.9461C95.5294 20.7999 95.6752 20.407 95.8938 19.7674C96.1306 19.1095 96.3037 18.6892 96.413 18.5064C96.4859 18.4882 96.6589 18.0953 96.9322 17.3277C97.2055 16.5419 97.497 15.6921 97.8067 14.7784C98.1164 13.8646 98.3259 13.2981 98.4352 13.0788C98.4352 13.024 98.3441 12.96 98.1619 12.8869C97.9797 12.8138 97.8704 12.7407 97.834 12.6676C97.7975 12.5762 97.8067 12.43 97.8613 12.229C97.9342 12.0097 98.007 11.8635 98.0799 11.7904C98.171 11.7173 98.3259 11.6808 98.5445 11.6808C98.927 11.6808 99.3734 11.5894 99.8835 11.4067C100.394 11.2056 100.813 11.0046 101.14 10.8036C101.25 10.8036 101.386 10.6482 101.55 10.3376C101.714 10.0269 101.733 9.82587 101.605 9.7345C101.532 9.62485 101.377 9.46037 101.14 9.24108C100.904 9.0035 100.767 8.89385 100.731 8.91213C100.712 8.9304 100.649 9.09488 100.539 9.40555C100.43 9.67967 100.321 9.8807 100.211 10.0086C100.102 10.1365 99.9472 10.2462 99.7468 10.3376C99.4189 10.4838 99.1456 10.3924 98.927 10.0634C98.836 9.93552 98.7266 9.85328 98.5991 9.81673C98.4898 9.78018 98.3896 9.72536 98.2985 9.65226C98.2074 9.57916 98.1437 9.41469 98.1072 9.15884C98.1072 9.04919 98.0162 8.83903 97.834 8.52835C97.67 8.21768 97.5425 7.96183 97.4514 7.76081C97.3785 7.55978 97.4059 7.34962 97.5334 7.13032C97.6973 6.87448 97.8977 6.81965 98.1346 6.96585C98.2803 7.0755 98.4898 7.42272 98.7631 8.00752C99.0546 8.57404 99.1912 8.95781 99.173 9.15884C99.1548 9.25021 99.1548 9.31417 99.173 9.35073C99.1912 9.369 99.2367 9.37814 99.3096 9.37814C99.5282 9.41469 99.674 9.1497 99.7468 8.58318C99.8197 8.01666 99.8288 7.441 99.7742 6.8562C99.7195 6.25313 99.6466 5.92418 99.5555 5.86936C99.428 5.75971 99.0637 5.85108 98.4625 6.14348C97.8795 6.43588 97.4878 6.71914 97.2875 6.99326C97.0324 7.35876 96.8502 7.90701 96.7409 8.638C96.6316 9.25935 96.5041 9.70709 96.3584 9.98121C96.2308 10.2553 96.0669 10.3833 95.8665 10.365C95.7207 10.3467 95.6114 10.2736 95.5386 10.1457C95.4839 10.0178 95.5294 9.55175 95.6752 8.74765ZM102.452 12.9966C102.634 12.9966 102.735 12.6219 102.753 11.8727C102.771 11.3792 102.744 11.1325 102.671 11.1325C102.634 11.1325 102.571 11.1599 102.479 11.2148C102.388 11.2879 102.325 11.5437 102.288 11.9823C102.234 12.6585 102.288 12.9966 102.452 12.9966ZM103.327 14.4768C103.327 14.6596 103.573 14.5591 104.064 14.1753C104.101 14.157 104.146 14.1296 104.201 14.0931C104.511 13.8189 104.83 13.8098 105.157 14.0656C105.303 14.1936 105.394 14.2393 105.431 14.2027C105.485 14.1844 105.558 14.0108 105.649 13.6819C105.759 13.3529 105.804 13.1428 105.786 13.0514C105.75 12.8138 105.403 12.8504 104.748 13.161L104.42 13.3255C104.274 13.3803 104.174 13.426 104.119 13.4626L103.9 13.5722C103.809 13.6271 103.746 13.6819 103.709 13.7367L103.545 13.9012C103.491 13.9743 103.445 14.0565 103.409 14.1479C103.39 14.2393 103.363 14.3489 103.327 14.4768ZM104.72 15.0251C104.72 14.9885 104.702 14.9703 104.666 14.9703C104.52 15.0068 104.392 15.0982 104.283 15.2444C104.247 15.3175 104.274 15.3449 104.365 15.3266C104.42 15.3266 104.493 15.2901 104.584 15.217C104.675 15.1256 104.72 15.0616 104.72 15.0251ZM101.414 20.1512C102.07 19.3654 102.334 18.9359 102.206 18.8628C102.133 18.808 101.897 18.9359 101.496 19.2466C101.204 19.4476 101.013 19.6121 100.922 19.74C100.831 19.8679 100.785 20.0233 100.785 20.206C100.822 20.5532 101.031 20.535 101.414 20.1512ZM103.873 4.1972C103.709 5.0013 103.664 5.40335 103.736 5.40335C103.773 5.38507 103.837 5.31197 103.928 5.18405C104.001 4.98302 104.31 4.61753 104.857 4.08755C105.403 3.55758 105.813 3.22863 106.087 3.10071C106.414 2.93624 106.742 2.95451 107.07 3.15553C107.416 3.33828 107.672 3.66723 107.835 4.14238C107.963 4.45305 108.027 4.75459 108.027 5.04699C108.045 5.33939 107.999 5.62265 107.89 5.89677C107.781 6.15262 107.662 6.37192 107.535 6.55467C107.407 6.73741 107.243 6.94758 107.043 7.18515C106.824 7.38617 106.67 7.5141 106.578 7.56892C106.506 7.62375 106.414 7.65116 106.305 7.65116C106.178 7.65116 106.059 7.62375 105.95 7.56892C105.859 7.5141 105.813 7.45014 105.813 7.37704C105.813 7.34049 105.923 7.18515 106.141 6.91103C106.36 6.6369 106.487 6.49984 106.524 6.49984C106.797 6.22572 106.961 5.85108 107.016 5.37593C107.07 4.90079 106.97 4.54443 106.715 4.30685L106.469 4.03273L106.223 4.1972C106.096 4.25203 105.868 4.43478 105.54 4.74545C105.212 5.05612 105.075 5.25715 105.13 5.34852C105.148 5.45817 105.157 5.96987 105.157 6.88361C105.157 7.77908 105.103 8.22682 104.994 8.22682C104.757 8.50094 104.529 8.58318 104.31 8.47353C104.11 8.34561 104.055 8.10803 104.146 7.76081C104.183 7.57806 104.174 7.38617 104.119 7.18515C104.083 6.96585 104.028 6.8562 103.955 6.8562C103.882 6.8562 103.791 6.93844 103.682 7.10291C103.591 7.23084 103.509 7.34049 103.436 7.43186C103.381 7.50496 103.299 7.5872 103.19 7.67857C103.081 7.76995 102.98 7.84305 102.889 7.89787C102.816 7.93442 102.725 7.95269 102.616 7.95269C102.525 7.95269 102.425 7.92528 102.316 7.87046C102.261 7.66943 102.234 7.48669 102.234 7.32221C102.234 7.13946 102.252 6.99326 102.288 6.88361C102.325 6.75569 102.37 6.57294 102.425 6.33537C102.498 6.09779 102.552 5.86022 102.589 5.62265C102.625 5.4399 102.68 5.1475 102.753 4.74545C102.844 4.32513 102.908 4.03273 102.944 3.86826C102.999 3.68551 103.081 3.47535 103.19 3.23777C103.299 3.0002 103.427 2.80831 103.573 2.66211C103.664 2.58901 103.718 2.55246 103.736 2.55246C103.773 2.55246 103.837 2.57074 103.928 2.60729C104.092 2.71694 104.074 3.24691 103.873 4.1972ZM80.7394 1.07218C80.7758 0.925983 80.8122 0.798058 80.8487 0.688409C80.9033 0.578759 80.9944 0.478248 81.1219 0.386873C81.2495 0.295499 81.4043 0.341186 81.5865 0.523935C81.6958 0.597034 81.7596 0.688409 81.7778 0.798058C81.796 0.907708 81.8142 1.21838 81.8324 1.73008C81.8507 2.42452 81.8233 2.85398 81.7505 3.01846C81.6047 3.34741 81.3223 3.7129 80.9033 4.11495C80.7394 4.27943 80.5754 4.36166 80.4115 4.36166C80.2657 4.36166 80.1837 4.2977 80.1655 4.16978C80.1655 4.02358 80.2384 3.8591 80.3841 3.67635C80.5117 3.47533 80.6027 3.31999 80.6574 3.21034C80.7121 3.1007 80.7667 2.91795 80.8214 2.6621C80.876 2.40625 80.8578 2.15954 80.7667 1.92196C80.7121 1.46509 80.7029 1.18183 80.7394 1.07218ZM78.3893 6.60948C79.1909 6.11605 80.2111 5.55867 81.4499 4.93732C81.5045 4.93732 81.632 4.86422 81.8324 4.71802C82.1057 4.517 82.8526 4.11495 84.0732 3.51188C85.2938 2.90881 85.9678 2.60727 86.0954 2.60727C86.3868 2.4428 86.9152 2.23264 87.6803 1.97679C88.4637 1.70267 89.0557 1.52905 89.4565 1.45595C89.584 1.45595 89.7207 1.51992 89.8664 1.64784C90.0304 1.75749 90.1306 1.87628 90.167 2.0042C90.2216 2.2235 90.2125 2.45194 90.1397 2.68951C90.0668 2.92708 89.8937 3.26517 89.6205 3.70377C89.2561 4.27029 88.7916 4.84595 88.2268 5.43074C87.4435 6.19829 86.9334 6.53638 86.6965 6.445C86.5144 6.39018 86.6419 6.12519 87.0791 5.65004C87.571 5.12007 87.9627 4.61751 88.2542 4.14236C88.7825 3.26517 88.9555 2.8083 88.7734 2.77175C88.7551 2.75347 88.7369 2.74433 88.7187 2.74433C88.5001 2.76261 88.2359 2.81743 87.9262 2.90881C87.6165 3.00018 87.2431 3.13725 86.8058 3.31999C86.3686 3.50274 86.1227 3.60326 86.068 3.62153C85.4486 3.87738 84.7928 4.20633 84.1005 4.60837C83.4083 5.01042 82.9255 5.28455 82.6522 5.43074C82.5247 5.48557 82.3972 5.56781 82.2697 5.67746C82.1421 5.76883 82.0055 5.84193 81.8598 5.89675C81.4043 6.11605 80.794 6.445 80.0289 6.8836C79.282 7.3222 78.4257 7.76079 77.4602 8.19939C76.9501 8.43696 76.5584 8.48265 76.2852 8.33645C76.0301 8.19025 75.9299 7.88872 75.9846 7.43185C76.0392 7.23082 76.0939 6.92929 76.1485 6.52724C76.2032 6.10692 76.2578 5.77797 76.3125 5.54039C76.3671 5.28455 76.44 5.01956 76.5311 4.74544C76.6404 4.47131 76.7953 4.27943 76.9957 4.16978C77.1961 4.06013 77.442 4.03272 77.7335 4.08754C77.9339 4.14236 78.0341 4.2246 78.0341 4.33425C78.0341 4.4439 77.9156 4.67234 77.6788 5.01956C77.5695 5.16576 77.4602 5.44902 77.3509 5.86934C77.2416 6.27139 77.1869 6.60034 77.1869 6.85619C77.1869 6.92929 77.1961 6.98411 77.2143 7.02066C77.2325 7.03894 77.2689 7.04807 77.3236 7.04807C77.3782 7.04807 77.442 7.0298 77.5149 6.99325C77.6059 6.9567 77.7335 6.90187 77.8974 6.82877C78.1889 6.68257 78.3529 6.60948 78.3893 6.60948ZM83.39 9.13141C83.3536 9.24106 83.3081 9.41467 83.2534 9.65225C83.1988 9.88982 83.1623 10.0543 83.1441 10.1457C83.1259 10.237 83.0895 10.3741 83.0348 10.5569C82.9801 10.7396 82.9346 10.8858 82.8982 10.9955C82.8617 11.0868 82.8162 11.2148 82.7615 11.3792C82.7069 11.5254 82.6431 11.6808 82.5703 11.8452C82.5156 11.9914 82.4427 12.1559 82.3516 12.3387C82.3516 12.3569 82.379 12.3752 82.4336 12.3935H82.5976C82.6704 12.3752 82.7342 12.3478 82.7889 12.3112C82.8253 12.293 83.1441 12.2016 83.7453 12.0371C84.3647 11.8544 84.6926 11.7447 84.729 11.7082C84.7473 11.6533 84.8019 11.5163 84.893 11.297C85.0023 11.0777 85.0843 10.9041 85.1389 10.7762C85.2118 10.6482 85.2938 10.5112 85.3849 10.365C85.476 10.2188 85.567 10.1274 85.6581 10.0908C85.8221 9.96292 86.0043 9.99033 86.2047 10.1731C86.4233 10.3376 86.4597 10.5386 86.314 10.7762C86.1864 11.0868 86.2047 11.233 86.3686 11.2148C86.4051 11.2148 86.4506 11.1965 86.5053 11.1599C86.6328 11.0686 87.2066 10.8584 88.2268 10.5294C89.2652 10.1822 89.8937 9.92637 90.1124 9.7619C90.4403 9.4695 90.7864 9.41467 91.1507 9.59742C91.3147 9.67052 91.4058 9.80758 91.424 10.0086C91.4604 10.2645 91.3785 10.4746 91.1781 10.6391C90.9959 10.7853 90.6407 10.9315 90.1124 11.0777C88.072 11.5894 86.6237 12.1376 85.7674 12.7224C85.6399 12.8686 85.4669 13.3255 85.2482 14.093C85.0296 14.8606 84.9476 15.2901 85.0023 15.3814C85.057 15.3997 85.1754 15.4271 85.3575 15.4637C85.5579 15.4819 85.7037 15.5276 85.7948 15.6007C85.9041 15.6556 85.9496 15.7561 85.9314 15.9023C85.9314 16.1764 85.7037 16.3134 85.2482 16.3134C84.9932 16.3134 84.8019 16.3865 84.6744 16.5327C84.5469 16.6607 84.4285 16.88 84.3191 17.1906C84.2098 17.5013 84.1279 17.7115 84.0732 17.8211C83.9639 18.0221 83.8819 18.214 83.8273 18.3968C83.7726 18.5613 83.7089 18.7166 83.636 18.8628C83.5631 19.009 83.4265 19.2192 83.2261 19.4933C83.1532 19.6395 83.0439 19.8862 82.8982 20.2334C82.7524 20.5624 82.5976 20.8182 82.4336 21.001C82.2879 21.1837 82.0784 21.3299 81.8051 21.4396C81.459 21.604 81.1948 21.668 81.0126 21.6314C80.8305 21.5949 80.6574 21.4396 80.4934 21.1654C80.2566 20.7817 80.1746 20.5167 80.2475 20.3705C80.2839 20.2425 80.3295 20.1694 80.3841 20.1512C80.457 20.1329 80.5208 20.1512 80.5754 20.206C80.6483 20.2425 80.7212 20.2974 80.794 20.3705L80.9853 20.5624C81.0582 20.6172 81.1037 20.6355 81.1219 20.6172C81.2313 20.6355 81.3588 20.5167 81.5045 20.2608C81.6685 20.005 81.8324 19.7126 81.9964 19.3836C82.1604 19.0364 82.2788 18.8262 82.3516 18.7531C82.5338 18.4607 82.6978 18.1592 82.8435 17.8485C82.9893 17.5196 83.0439 17.3368 83.0075 17.3003C82.9893 17.2455 82.716 17.2181 82.1877 17.2181C82.0055 17.1998 81.878 17.2089 81.8051 17.2455C81.7505 17.2637 81.6503 17.2455 81.5045 17.1906C81.377 17.1358 81.295 17.1175 81.2586 17.1358C81.2404 17.1358 81.1675 17.0993 81.04 17.0262C80.9307 16.9531 80.8669 16.9165 80.8487 16.9165C80.8305 16.9165 80.7667 16.88 80.6574 16.8069C80.5481 16.7155 80.4843 16.6607 80.4661 16.6424C80.2475 16.4048 80.1746 15.884 80.2475 15.0799C80.3022 14.6413 80.3204 14.4037 80.3022 14.3672C79.8831 14.5134 79.3913 14.6596 78.8265 14.8058C78.28 14.952 77.6424 15.1073 76.9137 15.2718C76.185 15.418 75.6749 15.5276 75.3834 15.6007C75.2194 15.6738 75.0737 15.6373 74.9462 15.4911C74.8369 15.3449 74.8095 15.1713 74.8642 14.9702C74.9371 14.7144 75.2923 14.4951 75.9299 14.3123C76.5675 14.1296 77.2689 13.9651 78.0341 13.8189C78.8174 13.6544 79.3184 13.5174 79.537 13.4077C79.7556 13.2981 79.9925 13.2159 80.2475 13.161C80.5025 13.1062 80.6756 13.0331 80.7667 12.9417C80.876 12.8504 80.9853 12.6493 81.0946 12.3387C81.3132 11.8635 81.459 11.5254 81.5318 11.3244C81.6229 11.1051 81.6867 10.9041 81.7231 10.7213C81.7778 10.5386 81.8507 10.3376 81.9417 10.1183C82.0146 9.95378 82.0875 9.69793 82.1604 9.35071C82.1604 9.24106 82.1695 9.14055 82.1877 9.04917C82.2059 8.9578 82.2332 8.8847 82.2697 8.82988L82.3516 8.6654C82.3699 8.62885 82.4154 8.5923 82.4883 8.55575C82.5611 8.50093 82.6067 8.47352 82.6249 8.47352C82.6613 8.45524 82.7251 8.42783 82.8162 8.39128C82.9073 8.33645 82.971 8.30904 83.0075 8.30904C83.0986 8.30904 83.1805 8.40042 83.2534 8.58317C83.3445 8.74764 83.39 8.93039 83.39 9.13141ZM81.3406 15.4637C81.3406 15.6647 81.3679 15.7926 81.4225 15.8474C81.4954 15.9023 81.6685 15.9662 81.9417 16.0393C82.051 16.149 82.3425 16.1216 82.8162 15.9571C83.3081 15.7743 83.5813 15.6281 83.636 15.5185C83.9457 14.7692 84.1461 14.1387 84.2372 13.627C84.3283 13.2981 84.3374 13.1153 84.2645 13.0788C84.1916 13.024 83.9548 13.0605 83.554 13.1884C83.2079 13.2798 82.8344 13.4169 82.4336 13.5996C82.051 13.7824 81.8324 13.9194 81.7778 14.0108C81.6867 14.1387 81.5865 14.3672 81.4772 14.6961C81.3861 15.0251 81.3406 15.2809 81.3406 15.4637ZM54.4474 10.9131C54.575 10.9131 54.8756 11.0958 55.3492 11.4613C55.8229 11.8268 56.2965 12.2288 56.7702 12.6674C57.3896 13.2705 57.9725 13.7548 58.5191 14.1203C58.8288 14.3213 59.0656 14.4858 59.2296 14.6137C59.4117 14.7416 59.521 14.833 59.5575 14.8878C59.6121 14.9244 59.685 14.9792 59.7761 15.0523C59.8854 15.1254 60.0403 15.2168 60.2406 15.3264C60.5321 15.4726 60.7598 15.6097 60.9238 15.7376C61.6707 16.3955 62.2355 16.7245 62.618 16.7245C63.1646 16.7245 63.6291 15.893 64.0117 14.2299C64.0846 13.9558 64.1392 13.7365 64.1757 13.572C64.2303 13.4076 64.2667 13.3071 64.285 13.2705C64.3032 13.234 64.3214 13.1426 64.3396 12.9964C64.376 12.8502 64.4216 12.6218 64.4762 12.3111C64.5491 11.7994 64.6129 11.4522 64.6675 11.2694C64.7404 11.0136 64.8133 10.3831 64.8861 9.37796C64.9772 8.37284 65.041 7.76977 65.0774 7.56874C65.0774 7.4591 65.0956 7.24893 65.1321 6.93826C65.1685 6.60931 65.1867 6.37174 65.1867 6.22554C65.1867 5.84177 65.1139 5.57678 64.9681 5.43058C64.8042 5.26611 64.5947 5.18387 64.3396 5.18387C64.1939 5.18387 64.1028 5.22042 64.0663 5.29352C64.0299 5.43972 63.9844 5.84177 63.9297 6.49966C63.8933 7.15756 63.8477 7.57788 63.7931 7.76063C63.7384 8.18095 63.6564 8.82057 63.5471 9.67949C63.2739 11.9639 62.9824 13.5629 62.6727 14.4767C62.5998 14.7691 62.4723 14.9153 62.2901 14.9153C62.0897 14.9153 61.4703 14.5406 60.4319 13.7913C59.0292 12.7497 58.091 11.9821 57.6173 11.4887C57.3987 11.2146 56.752 10.712 55.6771 9.98103C55.1306 9.59726 54.8573 9.37796 54.8573 9.32313C54.8209 9.26831 54.7663 9.22262 54.6934 9.18607C54.6205 9.14952 54.5476 9.12211 54.4748 9.10384L54.3655 9.04901C54.1651 9.04901 53.9282 9.20435 53.655 9.51502C53.3999 9.80742 53.2086 10.1546 53.0811 10.5567C53.0265 10.6663 52.8807 11.0318 52.6439 11.6532C52.4071 12.2745 52.1793 12.8685 51.9607 13.435L51.6601 14.2574C51.5691 14.4218 51.4962 14.6229 51.4415 14.8604C51.4051 15.0797 51.3231 15.2808 51.1956 15.4635C50.8859 15.9021 50.731 16.1854 50.731 16.3133C50.731 16.3864 50.7493 16.4503 50.7857 16.5052C50.8586 16.6514 50.9223 16.7427 50.977 16.7793C51.0499 16.8158 51.1774 16.8341 51.3596 16.8341C51.5782 16.8341 51.8059 16.6788 52.0427 16.3681C52.2795 16.0392 52.398 15.7285 52.398 15.4361C52.398 15.2716 52.5073 14.9975 52.7259 14.6137C52.9081 14.2665 53.1084 13.7913 53.3271 13.1883C53.5457 12.5852 53.7552 12.0826 53.9556 11.6806C54.0102 11.6075 54.0558 11.4978 54.0922 11.3516C54.1651 11.0958 54.2835 10.9496 54.4474 10.9131ZM42.9547 17.5468C42.6997 17.5468 42.2078 17.6839 41.4791 17.958C40.9508 18.159 40.5864 18.2778 40.386 18.3144C40.1856 18.3509 39.794 18.3692 39.211 18.3692H39.1563C38.5916 18.3692 38.2272 18.3601 38.0633 18.3418C37.9175 18.3235 37.79 18.2687 37.6807 18.1773C37.4985 18.0311 37.4075 17.8484 37.4075 17.6291C37.4075 17.4646 37.5259 17.3367 37.7627 17.2453C37.9995 17.1539 38.4368 17.09 39.0744 17.0534C39.7849 17.0169 40.386 16.8981 40.8779 16.6971C40.9508 16.6605 41.0601 16.6148 41.2058 16.56C41.3698 16.4869 41.4882 16.4321 41.5611 16.3955C41.5429 15.9204 41.5337 15.6645 41.5337 15.628C41.5337 15.3904 41.5884 15.1528 41.6977 14.9153C41.7888 14.7325 41.8434 14.5041 41.8617 14.2299C41.8981 13.9375 41.9163 13.2888 41.9163 12.2837V11.7628C41.9163 10.9587 41.8708 10.2643 41.7797 9.67949C41.725 9.22262 41.6522 8.3637 41.5611 7.10273C41.3425 7.08446 41.224 7.07532 41.2058 7.07532C41.0601 7.07532 40.7777 7.14842 40.3587 7.29462C39.9579 7.44082 39.6209 7.51392 39.3476 7.51392C39.1472 7.51392 38.8558 7.41341 38.4732 7.21238C37.9995 7.01136 37.7627 6.83775 37.7627 6.69155C37.7627 6.54535 37.9449 6.41743 38.3092 6.30778C38.6736 6.19813 39.0653 6.12503 39.4843 6.08848C39.7393 6.0702 40.0217 6.00624 40.3314 5.89659C40.6411 5.78694 40.9052 5.72298 41.1239 5.7047C41.7433 5.61333 42.5266 5.22956 43.4739 4.55339C43.9294 4.22444 44.2664 4.05996 44.485 4.05996C44.6125 4.05996 44.7309 4.10565 44.8402 4.19703C44.9496 4.2884 45.0042 4.41632 45.0042 4.5808C45.0042 4.78182 44.5397 5.22042 43.6106 5.89659C43.064 6.31691 42.7908 7.00222 42.7908 7.95252C42.7908 8.06217 42.8272 8.45508 42.9001 9.13125C42.9912 9.80742 43.0367 10.7029 43.0367 11.8177C43.0367 13.1883 42.982 14.0929 42.8727 14.5315C42.7999 14.8056 42.7634 15.1071 42.7634 15.4361C42.7634 15.8564 42.8181 16.0666 42.9274 16.0666C43.0185 16.0666 43.2462 16.0117 43.6106 15.9021C43.9749 15.7742 44.2208 15.7102 44.3484 15.7102H44.403C44.6399 15.6919 44.9496 15.628 45.3321 15.5183C45.7147 15.4087 45.9424 15.3447 46.0153 15.3264C46.2521 15.2716 46.5345 15.1163 46.8624 14.8604C47.1903 14.5863 47.4363 14.4492 47.6002 14.4492C47.8006 14.4492 47.9008 14.5772 47.9008 14.833C47.9008 14.9609 47.7824 15.2077 47.5456 15.5731C47.327 15.9204 47.1357 16.1579 46.9717 16.2859C46.8078 16.3955 46.4161 16.5509 45.7967 16.7519C45.1773 16.9529 44.7856 17.0534 44.6216 17.0534C44.5123 17.0534 44.2391 17.1357 43.8018 17.3001C43.3646 17.4646 43.0822 17.5468 42.9547 17.5468ZM12.8644 3.45699C13.1377 3.27424 13.1924 3.02753 13.0284 2.71686C12.9555 2.64376 12.8098 2.61635 12.5912 2.63462C12.3908 2.65289 12.1995 2.71686 12.0173 2.82651C11.7987 2.95443 11.3706 3.01839 10.733 3.01839L10.2411 3.07322H9.88586C9.83121 3.05494 9.76745 3.06408 9.69458 3.10063C9.63993 3.13718 9.60349 3.192 9.58527 3.2651C9.56706 3.31993 9.55795 3.42044 9.55795 3.56664C9.55795 3.84076 9.62171 4.01437 9.74923 4.08747C9.89497 4.1423 10.2229 4.15144 10.733 4.11489C11.6803 4.06006 12.3908 3.84076 12.8644 3.45699ZM5.48631 5.73221C5.46809 5.64084 5.46809 5.52205 5.48631 5.37585C5.43166 5.17483 5.46809 4.97381 5.59561 4.77278C5.72314 4.57176 5.81423 4.42556 5.86888 4.33419C5.94175 4.22454 5.87799 4.05092 5.67759 3.81335C5.34968 3.50268 5.08552 3.46613 4.88513 3.7037C4.81226 3.7768 4.74849 3.94128 4.69384 4.19712C4.63919 4.45297 4.59364 4.62658 4.55721 4.71796C4.50256 4.79106 4.4479 5.13828 4.39325 5.75963C4.35682 6.3627 4.32038 6.70078 4.28395 6.77388C3.35485 7.52316 2.58971 7.93434 1.98852 8.00744C1.76991 8.06226 1.57863 8.12623 1.41467 8.19933C1.26893 8.25415 1.04121 8.34553 0.731508 8.47345C0.421808 8.60137 0.203197 8.73844 0.0756732 8.88463C-0.0336325 9.03083 -0.0245237 9.1679 0.103 9.29582C0.17587 9.46029 0.285176 9.55167 0.430917 9.56994C0.576658 9.56994 0.813487 9.50598 1.1414 9.37806C2.52594 8.95773 3.5097 8.55569 4.09266 8.17191C4.18375 8.09881 4.26573 8.08054 4.3386 8.11709C4.42969 8.15364 4.47523 9.24099 4.47523 11.3792L4.50256 12.3386L4.01068 12.8046C3.66455 13.1335 3.37306 13.3985 3.13623 13.5996C2.91762 13.7823 2.68079 13.9742 2.42575 14.1752C2.18892 14.358 1.97031 14.5224 1.76991 14.6686C1.5513 14.9062 1.442 15.1164 1.442 15.2991C1.46021 15.4636 1.56952 15.6829 1.76991 15.957C1.89744 16.1215 2.02496 16.2586 2.15248 16.3682C2.28001 16.4779 2.40753 16.6332 2.53505 16.8342C2.69901 17.0901 3.02693 17.4373 3.5188 17.8759C4.01068 18.2962 4.27484 18.5155 4.31127 18.5338C4.60275 18.8445 4.83047 18.9998 4.99443 18.9998C5.17661 18.9815 5.35879 18.7988 5.54096 18.4515C5.59561 18.3967 5.62294 17.949 5.62294 17.1083C5.64116 16.2677 5.64116 15.427 5.62294 14.5864C5.60472 13.7458 5.61383 13.0696 5.65027 12.5579C5.65027 12.5031 5.75957 12.3203 5.97818 12.0096C6.41541 11.3883 6.47917 11.0868 6.16947 11.105C6.11482 11.0868 6.02373 11.1142 5.8962 11.1873C5.76868 11.2604 5.67759 11.2878 5.62294 11.2695C5.53185 10.8857 5.4772 10.1456 5.45898 9.04911C5.44076 7.95262 5.50453 7.34041 5.65027 7.21248C5.70492 7.06628 5.96908 6.79216 6.44273 6.39011C6.64313 6.20736 6.8162 6.04289 6.96194 5.89669C7.10768 5.73221 7.22609 5.60429 7.31718 5.51292C7.42649 5.40327 7.59044 5.29362 7.80906 5.18397C8.0641 5.03777 8.2736 4.88243 8.43756 4.71796C8.83835 4.29764 8.79281 4.01437 8.30093 3.86818C8.0641 3.95955 7.81816 4.09661 7.56312 4.27936C7.32629 4.46211 7.05302 4.69055 6.74332 4.96467C6.45184 5.22052 6.23323 5.40327 6.08749 5.51292C6.05105 5.54947 5.98729 5.60429 5.8962 5.67739C5.80512 5.75049 5.74135 5.79618 5.70492 5.81445C5.66848 5.83273 5.62294 5.84186 5.56829 5.84186C5.53185 5.84186 5.50453 5.80531 5.48631 5.73221ZM3.49148 16.6149C3.07247 16.1215 2.86297 15.7743 2.86297 15.5732C2.86297 15.4636 3.08158 15.1621 3.5188 14.6686C3.91959 14.2118 4.17464 13.9285 4.28395 13.8189C4.41147 13.7092 4.49345 13.6727 4.52988 13.7092C4.56632 13.7458 4.60275 14.294 4.63919 15.3539C4.65741 16.158 4.6483 16.6789 4.61186 16.9165C4.59364 17.154 4.51167 17.2819 4.36592 17.3002C4.22018 17.3185 3.9287 17.0901 3.49148 16.6149ZM15.4605 14.7783C15.5515 14.6869 15.5971 14.6047 15.5971 14.5316C15.5971 14.3671 15.4969 14.1295 15.2965 13.8189C15.1143 13.5082 14.8957 13.2249 14.6407 12.9691L14.0122 12.3386C13.7025 12.0096 13.4019 11.7081 13.1104 11.434C12.8371 11.1599 12.6276 10.9862 12.4819 10.9131C11.9353 10.8949 11.826 10.2004 12.154 8.82981C12.2086 8.73844 12.3635 8.53741 12.6185 8.22674C12.8918 7.91607 13.1195 7.6328 13.3017 7.37696C13.4838 7.12111 13.584 6.92922 13.6023 6.8013C13.6569 6.5089 13.5932 6.30787 13.411 6.19823C13.2652 6.12513 13.1377 6.15254 13.0284 6.28046C12.9373 6.39011 12.8462 6.54545 12.7551 6.74647C12.6641 6.92922 12.573 7.04801 12.4819 7.10283C12.3726 7.21248 12.2906 7.28558 12.2359 7.32213C12.1813 7.34041 12.1357 7.32213 12.0993 7.26731C12.0811 7.21248 12.072 7.15766 12.072 7.10283V6.77388V6.63682V6.49976C12.1084 6.07944 12.1904 5.80531 12.3179 5.67739L12.5092 5.4855L12.3179 5.10173C12.0447 4.51693 11.7258 4.37074 11.3615 4.66313C11.1429 4.84588 11.0154 5.54033 10.9789 6.74647C10.9607 7.53229 10.9243 7.9983 10.8696 8.1445C10.7785 8.40035 10.4415 8.67447 9.85854 8.96687C9.27557 9.241 8.81102 9.35065 8.46489 9.29582C8.30093 9.27754 8.19163 9.28668 8.13697 9.32323C8.08232 9.34151 7.99123 9.42374 7.86371 9.56994C7.71797 9.73442 7.63599 9.8532 7.61777 9.9263C7.59955 9.98113 7.61777 10.1091 7.67242 10.3101C7.72708 10.5477 7.82727 10.6756 7.97301 10.6938C8.11876 10.7121 8.46489 10.639 9.01142 10.4746C9.37577 10.3649 9.76745 10.2096 10.1865 10.0085C10.5144 9.84407 10.7148 9.77097 10.7876 9.78924C10.8605 9.78924 10.8969 9.96285 10.8969 10.3101V10.7761C10.5872 10.7761 10.3777 10.7944 10.2684 10.8309C10.068 11.0319 9.74923 11.6441 9.31201 12.6675C8.893 13.6727 8.5833 14.2757 8.38291 14.4768C8.03678 14.623 7.8546 14.7509 7.83638 14.8605C7.78173 15.0798 7.82727 15.2443 7.97301 15.3539C8.13697 15.4636 8.34648 15.4819 8.60152 15.4088C9.29379 15.1895 9.96784 14.093 10.6237 12.1193C10.733 11.8452 10.815 11.7081 10.8696 11.7081C10.9243 11.7081 10.9516 11.8269 10.9516 12.0645C10.9698 12.631 10.9516 13.7001 10.8969 15.2717C10.8787 15.9844 10.8605 16.4139 10.8423 16.5601C10.8241 16.7063 10.7694 16.8251 10.6783 16.9165C10.4779 17.1357 10.4506 17.6383 10.5964 18.4241C10.651 18.8445 10.7876 19.1186 11.0062 19.2465C11.2249 19.3744 11.4435 19.2831 11.6621 18.9724C11.7896 18.7714 11.8534 18.4515 11.8534 18.0129C11.8716 17.0444 11.8989 15.8656 11.9353 14.4768C11.99 13.0879 12.0264 12.3569 12.0447 12.2838C12.0811 12.1741 12.1175 12.1193 12.154 12.1193C12.245 12.1558 12.5912 12.4482 13.1924 12.9965C13.7935 13.5265 14.1032 13.8006 14.1215 13.8189C14.1943 13.8737 14.3492 14.0564 14.586 14.3671C14.8228 14.6778 15.0232 14.8605 15.1872 14.9154C15.2783 14.9154 15.3694 14.8697 15.4605 14.7783ZM19.9693 12.2289C19.6414 12.0279 19.3681 11.9457 19.1495 11.9822L19.2042 11.6259C19.2224 11.3883 19.3408 10.9954 19.5594 10.4471L19.86 9.59736L20.3519 9.37806C20.698 9.21358 21.0077 8.9486 21.281 8.5831C21.5543 8.2176 21.7455 7.82469 21.8548 7.40437C22.1463 6.01548 22.1008 5.12001 21.7182 4.71796C21.4814 4.48038 21.2081 4.44383 20.8984 4.60831C20.6069 4.79106 20.616 5.00122 20.9257 5.23879C21.0533 5.34844 21.117 5.45809 21.117 5.56774C21.1353 5.65912 21.0988 6.01548 21.0077 6.63682C20.9713 6.89267 20.8802 7.19421 20.7345 7.54143C20.5887 7.87038 20.4339 8.15364 20.2699 8.39121C20.106 8.61051 19.9784 8.70189 19.8873 8.66534C19.8145 8.64706 19.7689 8.26329 19.7507 7.51402C19.7143 6.34442 19.5776 5.66825 19.3408 5.4855C19.2497 5.4124 19.1222 5.38499 18.9582 5.40327C18.8125 5.42154 18.7032 5.46723 18.6303 5.54033C18.5028 5.68653 18.5119 6.17081 18.6577 6.99318C18.6941 7.21248 18.7123 7.41351 18.7123 7.59625C18.7123 7.779 18.6941 8.0714 18.6577 8.47345C18.6212 8.85722 18.603 9.05825 18.603 9.07652C18.603 9.0948 18.5666 9.11307 18.4937 9.13135H18.2204C18.1293 9.11307 18.0656 9.08566 18.0291 9.04911C17.9381 9.01256 17.8379 8.83895 17.7286 8.52827C17.5282 7.9983 17.2822 7.73332 16.9907 7.73332C16.7357 7.73332 16.59 7.83383 16.5535 8.03485C16.5353 8.49172 16.681 8.9486 16.9907 9.40547C17.3004 9.86234 17.6192 10.1639 17.9472 10.3101C17.9836 10.3101 18.0383 10.3192 18.1111 10.3375C18.184 10.3558 18.2295 10.374 18.2478 10.3923C18.266 10.3923 18.2842 10.4106 18.3024 10.4471C18.3388 10.4654 18.348 10.502 18.3297 10.5568C18.3297 10.6116 18.3206 10.6756 18.3024 10.7487C18.3024 10.8218 18.2842 10.9314 18.2478 11.0776C18.2295 11.1873 18.1476 11.4431 18.0018 11.8452C17.8743 12.2289 17.7012 12.6767 17.4826 13.1884C17.2822 13.6818 17.1547 14.0107 17.1 14.1752L17.0454 14.2849C16.8632 14.6869 16.7357 14.7326 16.6628 14.4219C16.6446 14.3671 16.6264 14.3214 16.6082 14.2849C16.4989 14.1204 16.3622 14.2483 16.1983 14.6686C15.9068 15.4362 16.0161 15.9022 16.5262 16.0667C16.6537 16.1763 16.7721 16.2037 16.8814 16.1489C17.009 16.0758 17.1 16.0118 17.1547 15.957C17.2094 15.8839 17.2731 15.7834 17.346 15.6555C17.4371 15.5276 17.5008 15.4453 17.5373 15.4088C17.6101 15.3722 17.8196 14.961 18.1658 14.1752C18.5119 13.3711 18.7396 12.9691 18.8489 12.9691C19.0493 12.896 19.5503 13.161 20.3519 13.764C20.443 13.8371 20.6434 13.9925 20.9531 14.23C21.2628 14.4676 21.4814 14.6504 21.6089 14.7783C21.7547 14.9062 21.9277 15.0798 22.1281 15.2991C22.3467 15.5732 22.7111 15.8565 23.2212 16.1489C23.7495 16.4413 24.1412 16.7337 24.3962 17.0261C24.5419 17.154 24.7788 17.3642 25.1067 17.6566C25.4346 17.949 25.6805 18.2048 25.8445 18.4241C25.9174 18.5521 26.0449 18.6617 26.2271 18.7531C26.4093 18.8262 26.5368 18.9176 26.6096 19.0272C26.7736 19.2831 26.9467 19.3927 27.1288 19.3561C27.311 19.3196 27.4932 19.1277 27.6754 18.7805C27.7665 18.5977 27.7756 18.4515 27.7027 18.3419C27.6481 18.214 27.4568 18.0404 27.1288 17.8211C26.9467 17.7297 26.81 17.6474 26.719 17.5743L26.473 17.3276C26.3819 17.2363 26.2999 17.1632 26.2271 17.1083C26.0267 16.9987 25.6168 16.6789 24.9974 16.1489C24.378 15.6189 23.9408 15.2808 23.6857 15.1346C23.4853 15.0433 23.1756 14.8148 22.7566 14.4493C22.3376 14.0656 22.0826 13.8463 21.9915 13.7914C21.8822 13.7001 21.5998 13.4625 21.1444 13.0787C20.6889 12.695 20.2972 12.4117 19.9693 12.2289Z" fill="#979797"/>
</svg>
