<svg width="27" height="19" viewBox="0 0 27 19" fill="none" xmlns="http://www.w3.org/2000/svg">
<path fill-rule="evenodd" clip-rule="evenodd" d="M19.44 17.6019C18.144 18.3428 16.704 18.8088 15.12 19C14.448 18.7132 13.968 18.2591 13.68 17.6377V16.3472C13.968 15.678 14.676 15.1283 15.804 14.6981C16.932 14.2679 18.192 13.5748 19.584 12.6189C18.096 12.0931 16.776 11.1849 15.624 9.89434C14.616 8.84277 14.112 7.6 14.112 6.16604C14.112 5.87925 14.184 5.21006 14.328 4.15849C14.472 3.10692 15.24 2.10314 16.632 1.14717C17.784 0.38239 19.032 0 20.376 0C20.664 0 21.288 0.0716981 22.248 0.215094C23.208 0.358491 24.312 1.17107 25.56 2.65283C26.52 3.8 27 5.06667 27 6.45283C27 6.88302 26.868 7.6717 26.604 8.81887C26.34 9.96604 25.944 11.0535 25.416 12.0811C24.888 13.1088 24.084 14.1006 23.004 15.0566C21.924 16.0126 20.736 16.861 19.44 17.6019ZM6.012 16.8491C4.788 17.566 3.432 17.9484 1.944 17.9962L0.36 17.2075C0.12 16.6818 0 16.1082 0 15.4868V14.9849L5.472 12.1887C4.128 11.8541 3 11.0415 2.088 9.75094C1.176 8.46038 0.72 7.05031 0.72 5.52075C0.72 5.47296 0.732 5.01887 0.756 4.15849C0.78 3.29811 1.512 2.36604 2.952 1.36226C3.96 0.645283 5.064 0.286792 6.264 0.286792C8.328 0.286792 9.984 1.00377 11.232 2.43774C12.288 3.7283 12.816 5.25786 12.816 7.02641C12.816 7.88679 12.672 8.93836 12.384 10.1811C12.096 11.4239 11.268 12.6667 9.9 13.9094C8.532 15.1522 7.236 16.1321 6.012 16.8491Z" fill="#62625A"/>
</svg>
