<svg width="22" height="22" viewBox="0 0 22 22" fill="none" xmlns="http://www.w3.org/2000/svg">
<path d="M9.58301 10.9967L1.09773 19.482C0.707207 19.8725 0.707207 20.5057 1.09773 20.8962C1.48826 21.2868 2.12142 21.2868 2.51195 20.8962L10.9972 12.411L19.4825 20.8962C19.873 21.2868 20.5062 21.2868 20.8967 20.8962C21.2872 20.5057 21.2872 19.8725 20.8967 19.482L12.4114 10.9967L20.8967 2.51146C21.2872 2.12093 21.2872 1.48777 20.8967 1.09724C20.5062 0.706719 19.873 0.70672 19.4825 1.09724L10.9972 9.58253L2.51195 1.09724C2.12142 0.706719 1.48826 0.706719 1.09773 1.09724C0.707207 1.48777 0.707207 2.12093 1.09773 2.51146L9.58301 10.9967Z" fill="white"/>
</svg>
