<svg width="26" height="21" viewBox="0 0 26 21" fill="none" xmlns="http://www.w3.org/2000/svg">
<path fill-rule="evenodd" clip-rule="evenodd" d="M11.6124 17.2215C10.736 19.7405 8.7397 21 5.6236 21C4.06554 21 2.6779 20.2249 1.46067 18.6747C0.486891 17.4637 0 15.9377 0 14.0969C0 13.7093 0.0730337 12.8374 0.219101 11.481C0.365169 10.1246 1.03464 8.50173 2.22753 6.61246C3.42041 4.72318 4.57678 3.10035 5.69663 1.74394C6.67041 0.581315 7.69288 0 8.76405 0C9.59176 0 10.2247 0.50865 10.6629 1.52595V2.90657C10.3708 3.58477 9.68914 4.34775 8.61798 5.1955C7.54682 6.04325 6.7191 7.19377 6.13483 8.64706C8.13109 8.6955 9.76217 9.47059 11.0281 10.9723C11.7584 11.8927 12.1236 12.9827 12.1236 14.2422C12.1236 15.1626 11.9532 16.1557 11.6124 17.2215ZM23.2978 18.9655C22.1293 19.8374 20.693 20.2734 18.9888 20.2734L18.0394 20.2008C14.5825 19.5226 12.854 17.488 12.854 14.0969C12.854 13.7094 12.9149 12.8132 13.0366 11.4084C13.1583 10.0035 13.6695 8.2838 14.5703 6.2492C15.471 4.2146 16.8222 2.34955 18.6237 0.654044C19.1106 0.363387 19.6948 0.218058 20.3765 0.218058C21.2529 0.218058 21.9102 0.702487 22.3484 1.67135V2.90664C21.1798 3.97238 19.7922 5.9101 18.1855 8.71979L19.427 8.64712C22.0563 8.64712 23.9795 9.5191 25.1967 11.263C25.7323 12.0866 26.0001 13.007 26.0001 14.0243C26.0001 14.4118 25.8905 15.09 25.6714 16.0589C25.4523 17.0277 24.6611 17.9966 23.2978 18.9655Z" fill="#62625A"/>
</svg>
