<svg width="18" height="18" viewBox="0 0 18 18" fill="none" xmlns="http://www.w3.org/2000/svg">
<path d="M0.300295 17.6997C-0.100098 17.2993 -0.100098 16.6501 0.300295 16.2498L16.2498 0.300295C16.6501 -0.100098 17.2993 -0.100098 17.6997 0.300295C18.1001 0.700688 18.1001 1.34985 17.6997 1.75025L1.75025 17.6997C1.34985 18.1001 0.700688 18.1001 0.300295 17.6997Z" fill="#2C2C2C"/>
<path d="M17.6997 17.6997C17.2993 18.1001 16.6501 18.1001 16.2498 17.6997L0.300295 1.75025C-0.100098 1.34985 -0.100098 0.700688 0.300295 0.300295C0.700688 -0.100098 1.34985 -0.100098 1.75025 0.300295L17.6997 16.2498C18.1001 16.6501 18.1001 17.2993 17.6997 17.6997Z" fill="#2C2C2C"/>
</svg>
