<svg width="160" height="320" viewBox="0 0 160 320" fill="none" xmlns="http://www.w3.org/2000/svg">
<path fill-rule="evenodd" clip-rule="evenodd" d="M136.261 47.2853C137.332 47.3423 137.523 48.7941 136.522 49.1777C125.756 53.3021 97.494 65.9053 85.4249 88.3874C78.727 100.864 71.5006 125.402 63.7457 162C63.5764 161.354 63.4003 160.719 63.2178 160.095L62.4515 157.452C59.2557 146.347 57.617 139.662 55 133.608C55.4491 107.166 61.7334 85.9019 73.8514 69.8142C90.9405 47.127 124.18 46.642 136.261 47.2853Z" fill="white" stroke="#2C2C2C" stroke-linejoin="round"/>
<path fill-rule="evenodd" clip-rule="evenodd" d="M159 159.064C128.792 148.441 108.977 151.635 99.5533 168.648C90.917 184.241 80.0659 201.024 67 219C67.6129 212.63 68.0136 206.612 68.202 200.948L68.3273 200.349C80.3972 159.715 94.6836 137.82 111.187 134.662C127.69 131.505 143.627 139.638 159 159.064Z" fill="white" stroke="black" stroke-linejoin="round"/>
<path fill-rule="evenodd" clip-rule="evenodd" d="M29.721 145.108C3.46149 115.804 10.4804 34 10.4804 34C10.4804 34 19.434 85.9188 38.5 108.295C57.566 130.671 56.4092 133.251 64.1364 159.952C71.8636 186.653 64.1364 239 64.1364 239L52.4276 231.281C52.4276 231.281 55.9804 174.412 29.721 145.108Z" fill="white" stroke="#2C2C2C"/>
<path fill-rule="evenodd" clip-rule="evenodd" d="M23.6553 184.987C8.91418 184.987 2.34606 204.739 0.539848 211.451C0.40046 211.968 1.0689 212.281 1.4108 211.868C4.29027 208.388 11.0521 201.027 16.7345 201.027C24.176 201.027 28.7904 213.651 28.7904 213.651L32.3371 233.987H43C43 233.987 42.1541 218.913 41.2425 212.857C38.446 194.277 32.5836 184.987 23.6553 184.987Z" fill="white" stroke="#2C2C2C"/>
<path fill-rule="evenodd" clip-rule="evenodd" d="M21.5516 193.435C24.6924 198.032 26.8418 203.514 28 209.88L27.4429 210.606C24.5748 204.559 21.0188 201.535 16.7746 201.535C12.8764 201.535 4.78216 209.187 1.4656 212.494C1.09294 212.865 0.461213 212.492 0.62097 211.99C2.06087 207.471 5.73925 196.565 8.81393 192.866C14.3005 188.847 18.5462 189.036 21.5516 193.435Z" fill="#2C2C2C" stroke="#2C2C2C" stroke-linejoin="round"/>
<path fill-rule="evenodd" clip-rule="evenodd" d="M33.5207 0.829763C34.3024 0.487499 35.0904 1.21981 34.8159 2.02776C32.1256 9.94553 22.7304 39.0367 24.8728 53.1781C27.043 67.5035 30.7521 84.7775 36 105C24.454 90.08 15.8443 66.7499 10.171 35.0105L10 34.0461C10.7313 25.941 13.3591 18.5061 17.8834 11.7413C21.3124 6.6142 29.6734 2.51436 33.5207 0.829763Z" fill="#2C2C2C" stroke="#2C2C2C" stroke-linejoin="round"/>
<path fill-rule="evenodd" clip-rule="evenodd" d="M34.9191 232H87V273.118L74.2172 319H36.016L21 273.118V232H34.9191Z" fill="#2C2C2C" stroke="#2C2C2C" stroke-linejoin="round"/>
</svg>
