<svg width="339" height="481" viewBox="0 0 339 481" fill="none" xmlns="http://www.w3.org/2000/svg">
<path d="M149.957 197.526L149.966 197.5L160.964 175L137.469 150C131.471 158.5 127.971 180.001 127.971 180.001C127.971 180.001 101.488 114.07 99.3956 107.791C97.303 101.512 96.2567 96.2795 95.2104 88.9538C94.1641 81.6282 93.396 77.2276 92.0725 73.2564C91.0262 70.117 88.9315 63.8379 85.7937 66.9774C85.054 67.7176 85.5722 70.2732 86.841 75.3496C87.7432 78.9592 88.0466 81.7911 87.4416 84.5152C87.296 85.1706 86.5282 85.4225 85.9806 85.0339L82.6558 82.6744L76.378 77.4414L56.4984 62.7914C50.2206 59.6521 50.8484 59.0239 49.1743 60.6984C47.5003 62.3728 59.9861 73.6054 70.1003 81.6287L48.128 69.0703C43.9438 65.9307 37.6651 62.7912 36.6188 65.9307C35.9569 67.9167 41.8503 71.1633 46.0354 74.3029L61.7289 86.8605L46.0354 78.489L35.1571 73.5432C34.7776 73.3707 34.3309 73.4517 34.0361 73.7465L33.2763 74.5063C32.8366 74.946 32.9005 75.676 33.4098 76.0326L42.8956 82.6744L57.5437 92.093C53.7073 90.6977 45.4067 87.6978 42.8956 86.8605C39.7567 85.814 37.6657 87.908 39.7577 90.0007C42.097 92.3411 58.591 102.559 71.1466 109.885C83.7021 117.21 95.2107 147.559 103.581 180.001C111.951 212.443 127.646 225.001 134.97 223.955C140.819 223.119 148.196 202.458 149.957 197.526Z" fill="white" stroke="#2C2C2C" stroke-width="1.61" stroke-linecap="round"/>
<path d="M151.226 38.3496C152.325 34.5 153.318 26.8379 165.874 23.6983C166.92 22.6518 170.685 19.3031 177.382 14.2796C185.752 8.00031 187.845 3.81441 205.632 0.674845C223.419 -2.46472 237.021 5.90745 246.437 14.2796C255.854 22.6518 249.576 48.8148 257.946 62.4196C266.317 76.0244 268.409 69.7452 279.919 73.9313C291.428 78.1174 287.243 89.6291 284.104 91.7222C280.965 93.8152 269.456 98.0013 279.919 103.234C290.382 108.467 302.937 143.002 294.567 155.56C286.196 168.118 273.641 162.886 251.669 160.793C229.696 158.7 208.771 155.56 202.493 160.793C196.215 166.025 155.411 160.793 151.226 155.56C147.04 150.327 142.855 147.188 144.947 131.49C147.04 115.792 157.504 116.839 151.226 108.467C144.947 100.094 145.995 91.7222 155.411 82.3035C164.827 72.8848 158.55 67.6522 155.411 62.4196C152.272 57.187 149.133 45.6753 151.226 38.3496Z" fill="#2C2C2C"/>
<path d="M140.47 131C152.106 116 163.252 110.755 176.462 107.5L189.959 105.5L202.456 105H215.454C242.948 107.5 252.352 114.005 257.445 117.246C265.443 122.337 269.442 125.746 272.441 128.746C275.441 131.746 278.44 134.746 283.439 145.746C285.976 151.328 287.606 158.905 288.193 161.925C288.364 162.804 288.463 163.687 288.504 164.582C288.699 168.908 289.191 182.759 287.938 191.5C277.94 190.5 272.767 191.407 265.443 193.5C255.535 196.332 254.883 192.759 252.79 187.527C250.697 182.294 248.605 181.248 247.559 183.341C246.512 185.434 262.614 252.212 258.428 277.328C255.08 297.421 241.349 304.189 253.207 333.84C257.474 341.538 258.261 347.838 258.4 353.311C258.46 355.674 258.201 358.066 257.788 360.394C253.744 383.192 259.09 363.182 242.744 358.521C219.726 356.864 211.448 349.179 173.681 329.654C99.1847 291.142 92.4169 336.631 98.345 364.189C92.0675 354.771 68.8059 316.727 98.345 277.328C126.591 239.653 150.658 259.537 155.89 239.653C161.121 219.769 157.513 189.721 156.466 196C155.629 201.023 151.967 204.15 148.468 204.5C143.969 198 140.271 193.839 135.971 186.527C129.979 176.339 128.972 172 127.972 168C127.972 168 126.84 163.596 127.972 158.5C128.972 154 129.972 151 129.972 151C129.972 151 132.962 140.678 140.47 131Z" fill="white" stroke="#2C2C2C" stroke-width="1.61" stroke-linecap="round"/>
<path d="M285.438 217.5C288.759 210.884 283.636 188.083 281.507 180.778C281.16 179.587 280.543 178.507 279.767 177.54L278.773 176.3C277.905 175.22 276.724 174.435 275.392 174.054C274.436 173.781 273.432 173.724 272.451 173.887L269.85 174.321C268.581 174.533 267.338 174.877 266.141 175.348L261.943 177C259.85 178.046 250.945 185 250.945 185C253.01 191.163 255.348 203.72 254.445 204C251.945 204.773 215.301 211.506 204.839 209.413C194.377 207.32 181.821 205.227 176.589 205.227C171.358 205.227 158.818 209.413 154.632 213.599C151.284 216.948 153.918 224.413 156.708 226.157C167.869 225.808 195.734 226.157 215.84 226.157C245.676 226.157 280.168 227.996 285.438 217.5Z" fill="white" stroke="#2C2C2C" stroke-width="1.61" stroke-linecap="round"/>
<path d="M153.969 220.499C157.805 218.755 168.291 216 169.965 216" stroke="#2C2C2C" stroke-width="1.61" stroke-linecap="round"/>
<path d="M153.969 216.185C158.1 214.79 166.814 212 168.617 212" stroke="#2C2C2C" stroke-width="1.61" stroke-linecap="round"/>
<path d="M154.859 223.955C158.991 223.258 167.705 221.863 169.508 221.863" stroke="#2C2C2C" stroke-width="1.61" stroke-linecap="round"/>
<path d="M10.4648 478.993L15.7768 238.293H33.4834L17.5475 478.993H10.4648Z" fill="#2C2C2C"/>
<path d="M66.9688 478.993L72.7636 238.294H92.0799L74.6952 478.993H66.9688Z" fill="#2C2C2C"/>
<path d="M255.297 478.993L249.502 238.294H230.186L247.57 478.993H255.297Z" fill="#2C2C2C"/>
<path d="M324.355 478.993L318.561 238.294H299.244L316.629 478.993H324.355Z" fill="#2C2C2C"/>
<path d="M170.547 68.0238C169.71 60.4888 168.803 55.8144 168.454 54.419C167.823 51.2794 170.547 29.3025 170.547 33.4886C170.547 37.6747 220.769 57.5586 221.816 64.8842C222.862 72.2099 220.769 77.4425 216.584 82.6751C212.399 87.9077 205.075 98.3729 198.797 101.512C192.519 104.652 188.334 98.3729 182.056 91.0472C175.778 83.7216 171.593 77.4425 170.547 68.0238Z" fill="white" stroke="#2C2C2C" stroke-width="1.61"/>
<path d="M187.286 109.735C191.959 107.982 192.354 98.8956 190.959 97.5002L195.656 91.9437C202.632 88.1064 216.582 81.2692 216.582 84.618C216.582 88.8041 216.407 108 217.453 108C218.5 108 233.077 110.566 231.95 111C226.078 113.266 218.453 120 213.454 131.5C209.13 141.449 206.456 155 206.456 155C206.456 155 202.009 140.715 198.795 135.747C189.612 121.552 178.972 112.92 174.764 109.759C174.752 109.751 174.741 109.743 174.73 109.735C174.741 109.743 174.753 109.751 174.764 109.759C175.753 110.48 180.667 112.217 187.286 109.735Z" fill="white" stroke="#2C2C2C" stroke-width="1.61" stroke-linecap="round"/>
<path fill-rule="evenodd" clip-rule="evenodd" d="M172.346 205.645C166.38 206.977 158.308 210.175 155.111 213.372C154.501 213.982 154.09 214.728 153.842 215.551C153.086 215.657 152.53 215.725 152.339 215.725C151.668 215.725 152.06 214.05 152.339 213.213C153.178 211.539 155.561 208.315 158.247 206.306C160.91 204.313 167.513 205.088 170.965 205.492C171.515 205.557 171.985 205.612 172.346 205.645Z" fill="white"/>
<path d="M172.346 205.645L172.521 206.431L172.419 204.843L172.346 205.645ZM155.111 213.372L154.542 212.803L154.542 212.803L155.111 213.372ZM153.842 215.551L153.954 216.348L154.464 216.277L154.613 215.784L153.842 215.551ZM152.339 213.213L151.62 212.853L151.594 212.904L151.576 212.958L152.339 213.213ZM158.247 206.306L158.729 206.951L158.247 206.306ZM170.965 205.492L170.871 206.292L170.965 205.492ZM172.171 204.859C169.137 205.537 165.579 206.685 162.371 208.07C159.186 209.445 156.252 211.092 154.542 212.803L155.68 213.941C157.167 212.454 159.868 210.904 163.009 209.548C166.128 208.202 169.59 207.085 172.521 206.431L172.171 204.859ZM154.542 212.803C153.825 213.52 153.352 214.388 153.071 215.319L154.613 215.784C154.828 215.068 155.178 214.444 155.68 213.941L154.542 212.803ZM153.73 214.754C152.944 214.864 152.459 214.92 152.339 214.92V216.53C152.601 216.53 153.227 216.45 153.954 216.348L153.73 214.754ZM152.339 214.92C152.438 214.92 152.567 214.957 152.672 215.051C152.762 215.132 152.785 215.208 152.785 215.209C152.786 215.213 152.778 215.186 152.775 215.116C152.772 215.049 152.774 214.963 152.784 214.858C152.825 214.421 152.972 213.859 153.103 213.468L151.576 212.958C151.427 213.405 151.238 214.098 151.181 214.708C151.154 214.999 151.146 215.364 151.249 215.691C151.302 215.862 151.403 216.076 151.598 216.251C151.81 216.44 152.072 216.53 152.339 216.53V214.92ZM153.059 213.574C153.848 212.001 156.153 208.878 158.729 206.951L157.764 205.662C154.97 207.753 152.509 211.077 151.62 212.853L153.059 213.574ZM158.729 206.951C159.257 206.556 160.034 206.262 161.024 206.072C162.004 205.883 163.132 205.807 164.311 205.805C166.671 205.8 169.139 206.089 170.871 206.292L171.058 204.693C169.338 204.491 166.778 204.19 164.308 204.195C163.072 204.198 161.835 204.276 160.72 204.491C159.615 204.703 158.568 205.06 157.764 205.662L158.729 206.951ZM170.871 206.292C171.417 206.356 171.899 206.413 172.273 206.447L172.419 204.843C172.07 204.812 171.612 204.758 171.058 204.693L170.871 206.292Z" fill="#2C2C2C"/>
<path d="M170.547 68.0237C169.71 60.4887 168.803 55.8143 168.454 54.4189C167.823 51.2793 170.547 29.3025 170.547 33.4886C170.547 37.6747 220.769 57.5586 221.815 64.8842C222.862 72.2099 219.752 76.7704 216.584 82.675C213.459 88.4999 206.567 95.9332 200.29 99.0727C194.012 102.212 188.334 98.3728 182.056 91.0471C175.778 83.7215 171.593 77.4424 170.547 68.0237Z" fill="white" stroke="#2C2C2C" stroke-width="1.61"/>
<path fill-rule="evenodd" clip-rule="evenodd" d="M168.193 55.4644C168.541 56.8598 169.448 61.5343 170.285 69.0692C170.69 72.7094 171.563 75.8805 172.845 78.8244C170.723 79.015 168.271 79.0516 167.145 78.4884C165.053 77.4419 162.96 75.3489 161.914 71.1628C160.867 66.9767 160.867 62.7906 161.914 59.6511C162.751 57.1394 165.75 55.1161 167.145 54.4185L168.11 54.6114C168.124 54.969 168.151 55.2576 168.193 55.4644Z" fill="white"/>
<ellipse cx="180.162" cy="58.8077" rx="2.11875" ry="3.70861" fill="#2C2C2C"/>
<ellipse cx="204.525" cy="58.8077" rx="2.11875" ry="3.70861" fill="#2C2C2C"/>
<path d="M189.381 54.4189C190.615 57.0628 191.17 62.9453 189.195 65.3248C186.726 68.2991 185.492 69.2906 186.726 70.282C187.961 71.2734 189.193 72.2649 190.427 73.2563" stroke="#2C2C2C" stroke-width="1.61" stroke-linecap="round"/>
<path d="M185.988 82.7776C186.621 83.3709 189.595 85.4473 192.633 85.4473C196.43 85.4473 199.277 83.6675 200.227 81.8877" stroke="#2C2C2C" stroke-width="1.61" stroke-linecap="round"/>
<path d="M215.535 51.2797C215.535 51.2797 214.698 50.2334 211.35 50.2334C208.002 50.2334 205.77 50.9309 205.072 51.2797" stroke="#2C2C2C" stroke-width="1.61" stroke-linecap="round"/>
<path d="M174.766 50.2456C174.766 50.2456 176.312 48.6792 179.66 48.6792C183.008 48.6792 184.531 49.8969 185.229 50.2456" stroke="#2C2C2C" stroke-width="1.61" stroke-linecap="round"/>
<path d="M178.918 15.6982C183.103 14.3029 193.775 11.7214 198.798 12.5586C205.075 13.6052 214.492 16.7448 218.677 23.0239C222.862 29.303 224.955 50.2335 224.955 52.3265C224.955 54.0009 226.35 53.7218 227.048 53.373L229.14 55.466H232.279C232.279 49.187 231.651 35.1635 229.14 29.303C226.001 21.9774 223.909 15.6986 214.492 10.4656C205.075 5.23264 197.751 6.27955 191.474 7.32607C186.451 8.16328 181.011 13.2564 178.918 15.6982Z" fill="white"/>
<path d="M227.374 52.3262C234.3 52.3262 236.645 55.7274 237.8 59.1286C238.954 62.5298 238.954 71.5996 236.645 75.0008C234.519 78.1329 229.425 79.3421 225.928 79.5139C225.432 79.5382 225.013 79.1748 224.948 78.6824C224.655 76.4553 223.91 70.2606 223.91 64.7972V62.3606C223.91 60.9635 224.011 59.5683 224.212 58.1859L224.94 53.1822C225.012 52.6907 225.433 52.3262 225.93 52.3262H227.374Z" fill="white"/>
<path d="M97.1903 362.431L97.2997 363.143C97.4693 363.225 97.6397 363.309 97.811 363.394C97.6151 363.094 97.4077 362.773 97.1903 362.431Z" fill="#2C2C2C"/>
<path d="M98.2103 363.594C100.244 364.62 102.398 365.822 104.683 367.098C116.023 373.428 130.589 381.559 149.615 378.84C158.616 377.554 166.193 374.775 172.93 372.304C188.121 366.731 198.104 366.792 211.454 385C219.342 395.759 244.48 385.372 255.444 372.5C256.944 371 256.944 368.007 256.597 367.317C255.934 366 255.164 364.817 253.945 363.5C251.445 360.801 248.446 359 242.735 358.52C224.969 357.242 215.985 352.372 195.446 341.24C189.373 337.948 182.29 334.109 173.672 329.654C99.7095 291.418 92.5082 335.983 98.2103 363.594Z" fill="#2C2C2C"/>
<path d="M97.1903 362.431L97.2997 363.143C97.4693 363.225 97.6397 363.309 97.811 363.394C97.6151 363.094 97.4077 362.773 97.1903 362.431Z" stroke="#2C2C2C" stroke-width="1.61" stroke-linecap="round"/>
<path d="M98.2103 363.594C100.244 364.62 102.398 365.822 104.683 367.098C116.023 373.428 130.589 381.559 149.615 378.84C158.616 377.554 166.193 374.775 172.93 372.304C188.121 366.731 198.104 366.792 211.454 385C219.342 395.759 244.48 385.372 255.444 372.5C256.944 371 256.944 368.007 256.597 367.317C255.934 366 255.164 364.817 253.945 363.5C251.445 360.801 248.446 359 242.735 358.52C224.969 357.242 215.985 352.372 195.446 341.24C189.373 337.948 182.29 334.109 173.672 329.654C99.7095 291.418 92.5082 335.983 98.2103 363.594Z" stroke="#2C2C2C" stroke-width="1.61" stroke-linecap="round"/>
<path fill-rule="evenodd" clip-rule="evenodd" d="M172.457 329.025C173.266 336.853 174.088 345.369 174.925 354.033C177.195 377.533 179.571 402.124 182.056 417.038C186.241 442.155 186.241 448.434 186.241 448.434H200.889C200.286 432.146 201.769 417.249 203.133 403.543C204.136 393.471 205.074 384.043 205.074 375.178C205.074 370.5 205.239 363.645 205.43 355.702C205.499 352.83 205.571 349.815 205.64 346.709C202.546 345.083 199.192 343.265 195.455 341.239C189.383 337.948 182.3 334.109 173.681 329.654C173.271 329.442 172.863 329.232 172.457 329.025Z" fill="white"/>
<path d="M174.925 354.033L175.726 353.956L174.925 354.033ZM172.457 329.025L172.823 328.308L171.504 327.636L171.656 329.108L172.457 329.025ZM182.056 417.038L182.85 416.906L182.056 417.038ZM186.241 448.434H185.436V449.239H186.241V448.434ZM200.889 448.434V449.239H201.725L201.694 448.404L200.889 448.434ZM203.133 403.543L202.332 403.463L203.133 403.543ZM205.43 355.702L206.234 355.722L205.43 355.702ZM205.64 346.709L206.445 346.727L206.456 346.229L206.015 345.997L205.64 346.709ZM195.455 341.239L195.072 341.947L195.455 341.239ZM173.681 329.654L174.051 328.939L174.051 328.939L173.681 329.654ZM175.726 353.956C174.89 345.292 174.067 336.774 173.258 328.942L171.656 329.108C172.465 336.933 173.287 345.446 174.124 354.111L175.726 353.956ZM182.85 416.906C180.37 402.025 177.998 377.469 175.726 353.956L174.124 354.111C176.393 377.597 178.771 402.222 181.262 417.171L182.85 416.906ZM186.241 448.434C187.046 448.434 187.046 448.434 187.046 448.434C187.046 448.433 187.046 448.433 187.046 448.433C187.046 448.432 187.046 448.432 187.046 448.431C187.046 448.429 187.046 448.428 187.046 448.425C187.046 448.421 187.046 448.415 187.046 448.407C187.046 448.392 187.046 448.37 187.045 448.342C187.044 448.285 187.042 448.2 187.037 448.085C187.029 447.856 187.012 447.505 186.979 447.007C186.913 446.012 186.781 444.43 186.518 442.066C185.993 437.338 184.944 429.474 182.85 416.906L181.262 417.171C183.353 429.719 184.397 437.553 184.918 442.244C185.178 444.589 185.308 446.147 185.373 447.114C185.405 447.598 185.421 447.933 185.428 448.145C185.432 448.251 185.434 448.326 185.435 448.373C185.436 448.397 185.436 448.413 185.436 448.423C185.436 448.428 185.436 448.432 185.436 448.434C185.436 448.434 185.436 448.435 185.436 448.435C185.436 448.435 185.436 448.435 185.436 448.435C185.436 448.435 185.436 448.435 185.436 448.435C185.436 448.434 185.436 448.434 186.241 448.434ZM200.889 447.629H186.241V449.239H200.889V447.629ZM202.332 403.463C200.968 417.165 199.479 432.114 200.085 448.464L201.694 448.404C201.093 432.179 202.57 417.333 203.934 403.622L202.332 403.463ZM204.269 375.178C204.269 383.995 203.336 393.382 202.332 403.463L203.934 403.622C204.936 393.56 205.879 384.09 205.879 375.178H204.269ZM204.625 355.683C204.434 363.621 204.269 370.488 204.269 375.178H205.879C205.879 370.512 206.044 363.669 206.234 355.722L204.625 355.683ZM204.835 346.692C204.766 349.796 204.694 352.81 204.625 355.683L206.234 355.722C206.303 352.849 206.376 349.834 206.445 346.727L204.835 346.692ZM206.015 345.997C202.926 344.373 199.577 342.558 195.839 340.532L195.072 341.947C198.807 343.972 202.166 345.792 205.266 347.422L206.015 345.997ZM195.839 340.532C189.766 337.24 182.677 333.398 174.051 328.939L173.312 330.369C181.923 334.82 188.999 338.656 195.072 341.947L195.839 340.532ZM174.051 328.939C173.64 328.726 173.23 328.516 172.823 328.308L172.091 329.742C172.496 329.949 172.903 330.157 173.312 330.369L174.051 328.939Z" fill="#2C2C2C"/>
<path fill-rule="evenodd" clip-rule="evenodd" d="M114.633 316.705C115.866 327.435 117.134 340.555 118.436 354.035C120.706 377.534 123.081 402.125 125.567 417.04C129.752 442.156 129.752 448.435 129.752 448.435H144.4C143.797 432.147 145.28 417.25 146.644 403.544C147.647 393.473 148.585 384.044 148.585 375.179C148.585 370.501 148.75 363.646 148.94 355.704C149.206 344.658 149.521 331.508 149.515 319.182C133.974 313.992 122.683 313.791 114.633 316.705Z" fill="white"/>
<path d="M118.436 354.035L117.635 354.112L118.436 354.035ZM114.633 316.705L114.359 315.948L113.76 316.165L113.833 316.797L114.633 316.705ZM125.567 417.04L126.361 416.907L125.567 417.04ZM129.752 448.435H128.947V449.24H129.752V448.435ZM144.4 448.435V449.24H145.235L145.204 448.405L144.4 448.435ZM146.644 403.544L147.445 403.624L146.644 403.544ZM148.94 355.704L148.136 355.684L148.94 355.704ZM149.515 319.182L150.32 319.181L150.32 318.602L149.77 318.418L149.515 319.182ZM119.237 353.957C117.935 340.48 116.667 327.352 115.433 316.613L113.833 316.797C115.066 327.518 116.332 340.63 117.635 354.112L119.237 353.957ZM126.361 416.907C123.881 402.027 121.509 377.471 119.237 353.957L117.635 354.112C119.903 377.598 122.282 402.223 124.773 417.172L126.361 416.907ZM129.752 448.435C130.557 448.435 130.557 448.435 130.557 448.435C130.557 448.435 130.557 448.434 130.557 448.434C130.557 448.433 130.557 448.433 130.557 448.432C130.557 448.431 130.557 448.429 130.557 448.427C130.557 448.422 130.557 448.416 130.557 448.408C130.557 448.393 130.556 448.371 130.556 448.343C130.555 448.286 130.552 448.201 130.548 448.087C130.54 447.857 130.523 447.506 130.49 447.008C130.423 446.013 130.291 444.431 130.029 442.067C129.504 437.339 128.455 429.475 126.361 416.907L124.773 417.172C126.864 429.72 127.908 437.554 128.429 442.245C128.689 444.59 128.819 446.148 128.883 447.115C128.915 447.599 128.931 447.934 128.939 448.146C128.943 448.252 128.945 448.327 128.946 448.374C128.946 448.398 128.947 448.415 128.947 448.425C128.947 448.43 128.947 448.433 128.947 448.435C128.947 448.436 128.947 448.436 128.947 448.436C128.947 448.436 128.947 448.436 128.947 448.436C128.947 448.436 128.947 448.436 128.947 448.436C128.947 448.436 128.947 448.435 129.752 448.435ZM144.4 447.63H129.752V449.24H144.4V447.63ZM145.843 403.464C144.479 417.166 142.99 432.115 143.596 448.465L145.204 448.405C144.604 432.18 146.08 417.335 147.445 403.624L145.843 403.464ZM147.78 375.179C147.78 383.997 146.847 393.384 145.843 403.464L147.445 403.624C148.447 393.562 149.39 384.092 149.39 375.179H147.78ZM148.136 355.684C147.945 363.623 147.78 370.489 147.78 375.179H149.39C149.39 370.513 149.554 363.67 149.745 355.723L148.136 355.684ZM148.71 319.182C148.716 331.497 148.401 344.637 148.136 355.684L149.745 355.723C150.01 344.679 150.326 331.519 150.32 319.181L148.71 319.182ZM149.77 318.418C134.141 313.199 122.648 312.947 114.359 315.948L114.907 317.462C122.719 314.634 133.808 314.785 149.26 319.945L149.77 318.418Z" fill="#2C2C2C"/>
<path d="M115.72 455.276C121.457 451.211 126.522 444.15 128.184 442.914H146.878L149.371 468.874L141.893 471.347L140.647 465.166C139.401 466.402 130.504 470.385 124.445 473.819C115.72 478.764 106.996 480 99.5182 480C93.5358 480 86.6395 475.879 85.8086 473.819C93.2865 469.698 106.996 461.457 115.72 455.276Z" fill="#2C2C2C" stroke="#2C2C2C" stroke-width="1.61"/>
<path d="M173.041 451.02C178.176 446.247 182.262 438.579 183.742 437.138L202.177 434.755L207.971 460.251L200.915 463.663L198.892 457.675C197.822 459.064 189.561 464.158 184.027 468.346C176.06 474.375 167.616 476.717 160.242 477.67C154.343 478.433 147.013 475.215 145.929 473.272C152.773 468.221 165.233 458.278 173.041 451.02Z" fill="#2C2C2C" stroke="#2C2C2C" stroke-width="1.61"/>
<path d="M242.448 150.5L235.949 175L241.448 195.5C241.448 195.5 254.945 199 261.444 200C268.044 201.016 278.19 198.473 284.645 195.982C288.613 194.45 290.791 190.704 291.437 186.5C291.437 181.506 291.083 176.519 290.377 171.575L289.938 168.5L288.438 161C284.939 147.5 284.439 149.085 281.469 145.292C275.941 138.233 268.442 134.5 262.444 133C256.445 131.5 250.917 131.708 246.947 133C243.881 133.998 242.281 146 242.448 150.5Z" fill="white" stroke="#2C2C2C" stroke-width="1.61"/>
<rect x="214.758" y="163.24" width="1.82783" height="8.70571" rx="0.913915" fill="#2C2C2C" stroke="#2C2C2C" stroke-width="1.61"/>
<rect x="290.395" y="163.24" width="1.82783" height="8.70571" rx="0.913915" fill="#2C2C2C" stroke="#2C2C2C" stroke-width="1.61"/>
<rect x="0.805" y="-0.805" width="70.5844" height="1.82783" transform="matrix(1 0 0 -1 217.395 167.702)" fill="#2C2C2C" stroke="#2C2C2C" stroke-width="1.61"/>
<path d="M235.621 150.421C235.621 140.544 243.628 132.538 253.504 132.538C263.381 132.538 271.387 140.544 271.387 150.421V183.362C271.387 193.238 263.381 201.245 253.504 201.245C243.628 201.245 235.621 193.238 235.621 183.362V150.421Z" fill="white" stroke="#2C2C2C" stroke-width="1.61"/>
<rect x="250.852" y="175.275" width="5.26566" height="48.2493" rx="2.63283" fill="#2C2C2C" stroke="#2C2C2C" stroke-width="1.61"/>
<rect x="0.805" y="-0.805" width="34.3823" height="4.39" transform="matrix(1 0 0 -1 234.949 225.39)" fill="white" stroke="#2C2C2C" stroke-width="1.61"/>
<path d="M287.589 165.874C287.589 184.71 272.323 199.979 253.492 199.979C234.661 199.979 219.395 184.71 219.395 165.874C219.395 147.037 234.661 131.769 253.492 131.769C272.323 131.769 287.589 147.037 287.589 165.874Z" stroke="#2C2C2C" stroke-width="4"/>
<path d="M253.488 133.207V165.873" stroke="#2C2C2C" stroke-width="1.61" stroke-linecap="round"/>
<path d="M246.613 133.207V165.873" stroke="#2C2C2C" stroke-width="1.61" stroke-linecap="round"/>
<path d="M260.367 133.207V165.873" stroke="#2C2C2C" stroke-width="1.61" stroke-linecap="round"/>
<rect x="79.5195" y="83.1758" width="72.784" height="50.961" rx="2" fill="#2C2C2C"/>
<rect x="83.1602" y="87.9082" width="61.8664" height="40.0408" fill="white"/>
<mask id="mask0_265_24684" style="mask-type:alpha" maskUnits="userSpaceOnUse" x="83" y="87" width="63" height="41">
<rect x="83.1602" y="87.9082" width="61.8664" height="40.0408" fill="white"/>
</mask>
<g mask="url(#mask0_265_24684)">
<path d="M94.7242 99.5817C95.4207 97.1434 95.4207 95.7501 99.5997 94.7051C99.9478 94.3568 101.201 93.2421 103.43 91.5701C106.216 89.48 106.912 88.0868 112.833 87.0418C118.753 85.9968 123.28 88.7834 126.414 91.5701C129.549 94.3567 127.459 103.065 130.245 107.593C133.031 112.122 133.728 110.032 137.558 111.425C141.389 112.818 139.996 116.65 138.951 117.347C137.907 118.043 134.076 119.437 137.558 121.178C141.041 122.92 145.22 134.415 142.434 138.595C139.648 142.775 135.469 141.033 128.156 140.337C120.842 139.64 113.877 138.595 111.788 140.337C109.698 142.078 96.1172 140.337 94.7242 138.595C93.3312 136.853 91.938 135.808 92.6345 130.583C93.331 125.358 96.814 125.707 94.7242 122.92C92.6344 120.133 92.9832 117.347 96.1172 114.212C99.2511 111.077 97.1619 109.335 96.1172 107.593C95.0724 105.852 94.0277 102.02 94.7242 99.5817Z" fill="#2C2C2C"/>
<path d="M90.3508 128.965C91.4652 125.9 98.7087 123.276 102.191 122.347H121.694C124.132 122.696 128.765 124.314 130.4 125.482C132.838 127.224 141.196 133.842 142.241 134.887C143.285 135.932 143.875 138.666 141.196 137.325C139.107 136.28 139.107 136.28 139.107 138.022C139.107 139.415 142.125 144.757 144.33 147.427C142.241 149.517 139.803 145.337 137.365 146.034C134.067 146.976 130.052 150.562 129.356 148.82C128.659 147.079 127.963 146.73 127.614 147.427C127.266 148.124 131.793 170.765 130.4 179.125C129.286 185.813 124.716 188.066 128.662 197.935C130.4 201.07 130.404 203.509 130.4 205.599C128.657 215.004 130.878 207.775 125.18 206.15C117.518 205.599 114.764 203.041 102.193 196.542C77.3977 183.723 75.1451 198.864 77.1182 208.037C75.0288 204.902 67.2864 192.239 77.1182 179.125C86.5197 166.585 94.5301 173.204 96.2713 166.585C98.0126 159.967 96.6196 150.214 96.2713 152.304C96.0544 153.605 94.9092 154.991 93.9196 155.87C93.6885 156.243 93.4099 156.457 93.1376 156.484C93.3691 156.329 93.638 156.12 93.9196 155.87C94.6737 154.655 94.9214 151.75 92.7888 148.124C90.0028 143.386 87.4488 143.828 86.52 144.64C87.2174 143.944 87.5657 143.099 87.5657 142.55C87.5657 140.112 86.8692 141.157 85.1279 141.157C84.084 141.157 88.9578 132.797 90.3508 128.965Z" fill="white" stroke="#2C2C2C" stroke-width="0.869554" stroke-linecap="round"/>
<path d="M101.146 109.458C100.868 106.95 100.566 105.394 100.45 104.93C100.239 103.885 101.146 96.5701 101.146 97.9634C101.146 99.3567 117.862 105.975 118.21 108.413C118.559 110.852 117.862 112.593 116.469 114.335C115.076 116.077 112.638 119.56 110.549 120.605C108.459 121.65 107.066 119.56 104.977 117.122C102.887 114.683 101.494 112.593 101.146 109.458Z" fill="white" stroke="#2C2C2C" stroke-width="0.869554"/>
<path d="M141.203 127.224C143.989 131.056 145.034 130.011 145.034 133.494C145.034 136.977 143.293 138.719 141.203 140.112" stroke="#2C2C2C" stroke-width="0.869554"/>
<path d="M106.726 123.341C108.955 122.505 108.584 121.368 108.119 120.903L109.512 117.42C111.834 116.143 116.477 113.867 116.477 114.981C116.477 116.375 116.826 121.948 117.174 121.948C117.522 121.948 123.791 123.341 122.049 123.341C120.656 123.341 118.451 128.683 117.522 131.353C116.766 132.865 114.04 136.926 113.343 136.926C112.995 136.926 111.278 134.051 110.209 132.398C107.144 127.661 103.592 124.386 102.199 123.341C102.78 123.69 104.498 124.177 106.726 123.341Z" fill="white" stroke="#2C2C2C" stroke-width="0.869554" stroke-linecap="round"/>
<path d="M101.146 109.458C100.868 106.95 100.566 105.394 100.45 104.93C100.239 103.885 101.146 96.5701 101.146 97.9634C101.146 99.3567 117.862 105.975 118.21 108.413C118.559 110.852 117.862 112.593 116.469 114.335C115.076 116.077 113.391 118.161 111.301 119.206C109.212 120.251 107.066 119.56 104.977 117.122C102.887 114.683 101.494 112.593 101.146 109.458Z" fill="white" stroke="#2C2C2C" stroke-width="0.869554"/>
<path fill-rule="evenodd" clip-rule="evenodd" d="M100.368 105.278C100.485 105.743 100.786 107.298 101.065 109.806C101.2 111.018 101.49 112.074 101.917 113.054C101.211 113.117 100.396 113.129 100.022 112.942C99.3255 112.593 98.629 111.897 98.2807 110.503C97.9325 109.11 97.9325 107.717 98.2807 106.672C98.5593 105.836 99.5576 105.162 100.022 104.93L100.341 104.994C100.346 105.113 100.355 105.209 100.368 105.278Z" fill="white"/>
<ellipse cx="104.65" cy="106.672" rx="0.696648" ry="1.045" fill="#2C2C2C"/>
<ellipse cx="111.595" cy="106.672" rx="0.696648" ry="1.045" fill="#2C2C2C"/>
<path d="M107.424 104.931C107.834 105.811 108.019 107.769 107.362 108.561C106.54 109.551 106.129 109.881 106.54 110.211C106.951 110.541 107.361 110.871 107.772 111.201" stroke="#2C2C2C" stroke-width="0.869554" stroke-linecap="round"/>
<path d="M106.379 114.336C106.565 114.568 107.438 115.381 108.33 115.381C109.444 115.381 110.28 114.684 110.559 113.987" stroke="#2C2C2C" stroke-width="0.869554" stroke-linecap="round"/>
<path d="M116.121 103.885C116.121 103.885 115.842 103.537 114.728 103.537C113.613 103.537 112.87 103.769 112.638 103.885" stroke="#2C2C2C" stroke-width="0.869554" stroke-linecap="round"/>
<path d="M102.902 103.189C102.902 103.189 103.181 102.84 104.296 102.84C105.41 102.84 106.153 103.073 106.386 103.189" stroke="#2C2C2C" stroke-width="0.869554" stroke-linecap="round"/>
<path d="M103.938 92.042C105.33 91.5775 108.883 90.7183 110.554 90.997C112.644 91.3453 115.778 92.3903 117.171 94.4803C118.564 96.5703 119.26 103.537 119.26 104.234C119.26 104.791 119.725 104.698 119.957 104.582L120.653 105.279H121.698C121.698 103.189 121.489 98.521 120.653 96.5703C119.609 94.132 118.912 92.0421 115.778 90.3003C112.644 88.5585 110.206 88.907 108.116 89.2553C106.445 89.534 104.634 91.2292 103.938 92.042Z" fill="white"/>
<path d="M120.063 104.233C122.368 104.233 123.149 105.365 123.533 106.497C123.917 107.629 123.917 110.648 123.149 111.78C122.441 112.823 120.746 113.225 119.582 113.282C119.417 113.29 119.277 113.169 119.256 113.006C119.158 112.264 118.91 110.202 118.91 108.384V107.573C118.91 107.108 118.944 106.643 119.011 106.183L119.253 104.518C119.277 104.354 119.417 104.233 119.582 104.233H120.063Z" fill="white"/>
</g>
<rect x="146.484" y="94.1865" width="16.7407" height="25.1165" rx="2" fill="#2C2C2C"/>
<rect x="104.629" y="77.4424" width="23.0185" height="10.4652" rx="1" fill="#2C2C2C"/>
<path d="M104.629 130.769C104.629 130.216 105.077 129.769 105.629 129.769H126.647C127.2 129.769 127.647 130.216 127.647 130.769V137.141C127.647 137.693 127.2 138.141 126.647 138.141H105.629C105.077 138.141 104.629 137.693 104.629 137.141V130.769Z" fill="#2C2C2C"/>
<rect x="106.723" y="159.071" width="18.8333" height="6.27913" rx="1" fill="#2C2C2C"/>
<path d="M113.004 133.635C113.004 131.901 114.409 130.496 116.143 130.496C117.876 130.496 119.282 131.901 119.282 133.635V160.118C119.282 161.851 117.876 163.257 116.143 163.257C114.409 163.257 113.004 161.851 113.004 160.118V133.635Z" fill="#2C2C2C"/>
<path d="M115.688 161.106L115.687 228.753" stroke="#2C2C2C" stroke-width="3.61" stroke-linecap="round"/>
<path d="M115.91 163.044L101.353 228.753" stroke="#2C2C2C" stroke-width="3.61" stroke-linecap="round"/>
<path d="M115.91 163.044L130.467 228.753" stroke="#2C2C2C" stroke-width="3.61" stroke-linecap="round"/>
<rect x="0.81" y="226.859" width="337.38" height="13.0313" fill="white" stroke="#2C2C2C" stroke-width="1.62"/>
</svg>
