<svg width="468" height="393" viewBox="0 0 468 393" fill="none" xmlns="http://www.w3.org/2000/svg">
<rect width="245.659" height="10.2187" transform="matrix(-1 0 0 1 247.659 70.3037)" fill="white" stroke="#2C2C2C" stroke-width="2.1527" stroke-linecap="round" stroke-linejoin="round"/>
<path fill-rule="evenodd" clip-rule="evenodd" d="M120.519 16.5216L112.94 33.1942H97.6388L90.3504 16.5216H120.519Z" fill="#2C2C2C" stroke="#2C2C2C" stroke-width="2.1527" stroke-linecap="round" stroke-linejoin="round"/>
<path fill-rule="evenodd" clip-rule="evenodd" d="M113.457 33.1941L117.453 45.1597C120.148 53.2295 120.26 61.9389 117.772 70.075L117.702 70.304H90.3296C87.5728 62.1163 88.0131 53.1892 91.5623 45.3126L97.0229 33.1941L113.457 33.1941Z" fill="white" stroke="#2C2C2C" stroke-width="2.1527" stroke-linecap="round" stroke-linejoin="round"/>
<path fill-rule="evenodd" clip-rule="evenodd" d="M90.3504 16.5216L93.9951 25.1268H116.73L120.519 16.5216H90.3504Z" fill="white" stroke="#2C2C2C" stroke-width="2.1527" stroke-linecap="round" stroke-linejoin="round"/>
<path fill-rule="evenodd" clip-rule="evenodd" d="M176.547 16.5216L168.969 33.1942H153.667L146.379 16.5216H176.547Z" fill="#2C2C2C" stroke="#2C2C2C" stroke-width="2.1527" stroke-linecap="round" stroke-linejoin="round"/>
<path fill-rule="evenodd" clip-rule="evenodd" d="M169.485 33.1941L173.481 45.1597C176.177 53.2295 176.288 61.9389 173.801 70.075L173.731 70.304H146.358C143.601 62.1163 144.041 53.1892 147.591 45.3126L153.051 33.1941L169.485 33.1941Z" fill="white" stroke="#2C2C2C" stroke-width="2.1527" stroke-linecap="round" stroke-linejoin="round"/>
<path fill-rule="evenodd" clip-rule="evenodd" d="M146.379 16.5216L150.023 25.1268H172.758L176.547 16.5216H146.379Z" fill="white" stroke="#2C2C2C" stroke-width="2.1527" stroke-linecap="round" stroke-linejoin="round"/>
<path fill-rule="evenodd" clip-rule="evenodd" d="M96.3299 114.405C90.5838 114.405 83.0298 114.86 78.5759 116.049C75.9661 116.746 74.9538 117.871 74.4526 118.708C73.384 120.492 75.1199 123.011 88.1806 123.011C101.241 123.011 108.884 122.47 110.163 119.521C111.203 117.124 105.443 114.405 96.3299 114.405Z" stroke="#2C2C2C" stroke-width="2.1527" stroke-linecap="round" stroke-linejoin="round"/>
<path fill-rule="evenodd" clip-rule="evenodd" d="M156.667 114.405C150.921 114.405 143.367 114.86 138.913 116.049C136.303 116.746 135.291 117.871 134.79 118.708C133.721 120.492 135.457 123.011 148.518 123.011C161.579 123.011 169.222 122.47 170.501 119.521C171.541 117.124 165.78 114.405 156.667 114.405Z" fill="white" stroke="#2C2C2C" stroke-width="2.1527" stroke-linecap="round" stroke-linejoin="round"/>
<path fill-rule="evenodd" clip-rule="evenodd" d="M217.005 114.405C211.259 114.405 203.705 114.86 199.251 116.049C196.641 116.746 195.629 117.871 195.127 118.708C194.059 120.492 195.795 123.011 208.855 123.011C221.916 123.011 229.559 122.47 230.838 119.521C231.878 117.124 226.118 114.405 217.005 114.405Z" stroke="#2C2C2C" stroke-width="2.1527" stroke-linecap="round" stroke-linejoin="round"/>
<path fill-rule="evenodd" clip-rule="evenodd" d="M96.3299 114.405C90.5838 114.405 83.0298 114.86 78.5759 116.049C75.9661 116.746 74.9538 117.871 74.4526 118.708C73.384 120.492 75.1199 123.011 88.1806 123.011C101.241 123.011 108.884 122.47 110.163 119.521C111.203 117.124 105.443 114.405 96.3299 114.405Z" fill="white" stroke="#2C2C2C" stroke-width="2.1527" stroke-linecap="round" stroke-linejoin="round"/>
<path fill-rule="evenodd" clip-rule="evenodd" d="M38.356 114.405C32.6957 114.405 25.2545 114.86 20.867 116.049C18.2962 116.746 17.299 117.871 16.8053 118.708C15.7526 120.492 17.4627 123.011 30.3284 123.011C43.1942 123.011 50.7232 122.47 51.983 119.521C53.0073 117.124 47.333 114.405 38.356 114.405Z" fill="white" stroke="#2C2C2C" stroke-width="2.1527" stroke-linecap="round" stroke-linejoin="round"/>
<path fill-rule="evenodd" clip-rule="evenodd" d="M170.54 119.246L170.501 119.35C169.222 122.369 161.577 122.923 148.514 122.923L147.458 122.917C139.73 122.83 136.28 121.784 135.066 120.577L138.986 141.335C140.042 146.927 144.928 150.977 150.62 150.977H155.284C161.068 150.977 166.006 146.798 166.961 141.094L170.622 119.247L170.54 119.246Z" fill="white" stroke="#2C2C2C" stroke-width="2.1527" stroke-linecap="round" stroke-linejoin="round"/>
<path fill-rule="evenodd" clip-rule="evenodd" d="M230.878 119.246L230.838 119.35C229.559 122.369 221.914 122.923 208.851 122.923L207.796 122.917C200.068 122.83 196.617 121.784 195.403 120.577L199.323 141.335C200.379 146.927 205.265 150.977 210.957 150.977H215.622C221.406 150.977 226.343 146.798 227.299 141.094L230.959 119.247L230.878 119.246Z" fill="white" stroke="#2C2C2C" stroke-width="2.1527" stroke-linecap="round" stroke-linejoin="round"/>
<path fill-rule="evenodd" clip-rule="evenodd" d="M110.203 119.246L110.163 119.35C108.884 122.369 101.24 122.923 88.1766 122.923L87.1207 122.917C79.3928 122.83 75.9422 121.784 74.7283 120.577L78.6481 141.335C79.7043 146.927 84.5906 150.977 90.2824 150.977H94.9469C100.731 150.977 105.668 146.798 106.624 141.094L110.284 119.247L110.203 119.246Z" fill="white" stroke="#2C2C2C" stroke-width="2.1527" stroke-linecap="round" stroke-linejoin="round"/>
<path fill-rule="evenodd" clip-rule="evenodd" d="M52.0221 119.246L51.983 119.35C50.7233 122.369 43.1946 122.923 30.3295 122.923L29.2896 122.917C21.6787 122.83 18.2804 121.784 17.0849 120.577L20.9393 141.302C21.9823 146.91 26.8755 150.977 32.5796 150.977H36.8202C42.6152 150.977 47.5587 146.783 48.5021 141.065L52.1021 119.247L52.0221 119.246Z" fill="white" stroke="#2C2C2C" stroke-width="2.1527" stroke-linecap="round" stroke-linejoin="round"/>
<path fill-rule="evenodd" clip-rule="evenodd" d="M134.53 125.162C130.734 125.162 127.665 129.844 128.864 133.523L129.075 134.111C129.649 135.773 129.986 137.553 133.411 139.377C135.857 140.679 138.743 141.061 142.069 140.522L141.524 136.859C138.51 136.843 136.51 136.613 135.524 136.168C133.454 135.234 133.297 134.322 132.941 133.474L132.891 133.358C132.084 131.561 133.785 129.213 135.971 129.068L136.184 129.061H140.37L139.791 125.162H134.53Z" fill="white" stroke="#2C2C2C" stroke-width="2.1527" stroke-linecap="round" stroke-linejoin="round"/>
<path fill-rule="evenodd" clip-rule="evenodd" d="M194.867 125.162C191.072 125.162 188.002 129.844 189.202 133.523L189.412 134.111C189.987 135.773 190.323 137.553 193.748 139.377C196.195 140.679 199.081 141.061 202.406 140.522L201.862 136.859C198.847 136.843 196.847 136.613 195.861 136.168C193.791 135.234 193.634 134.322 193.278 133.474L193.228 133.358C192.421 131.561 194.123 129.213 196.308 129.068L196.521 129.061H200.708L200.129 125.162H194.867Z" fill="#F8F7F3" stroke="#2C2C2C" stroke-width="2.1527" stroke-linecap="round" stroke-linejoin="round"/>
<path fill-rule="evenodd" clip-rule="evenodd" d="M74.1931 125.162C70.3974 125.162 67.3277 129.844 68.5274 133.523L68.7378 134.111C69.3125 135.773 69.6489 137.553 73.074 139.377C75.5205 140.679 78.4065 141.061 81.7319 140.522L81.1875 136.859C78.1727 136.843 76.1726 136.613 75.1871 136.168C73.1167 135.234 72.9598 134.322 72.604 133.474L72.5541 133.358C71.747 131.561 73.4484 129.213 75.6342 129.068L75.8471 129.061H80.0333L79.4542 125.162H74.1931Z" fill="white" stroke="#2C2C2C" stroke-width="2.1527" stroke-linecap="round" stroke-linejoin="round"/>
<path fill-rule="evenodd" clip-rule="evenodd" d="M16.3125 125.162C12.6687 125.162 9.72178 129.844 10.8735 133.523L11.0755 134.111C11.6271 135.773 11.9501 137.553 15.2382 139.377C17.5868 140.679 20.3574 141.061 23.5498 140.522L23.0272 136.859C20.133 136.843 18.2128 136.613 17.2667 136.168C15.2792 135.234 15.1285 134.322 14.787 133.474L14.739 133.358C13.9643 131.561 15.5976 129.213 17.696 129.068L17.9004 129.061H21.9191L21.3632 125.162H16.3125Z" fill="white" stroke="#2C2C2C" stroke-width="2.1527" stroke-linecap="round" stroke-linejoin="round"/>
<path fill-rule="evenodd" clip-rule="evenodd" d="M60.7212 43.4125L54.2282 70.3037H18.8373L13.3133 43.4125H60.7212Z" fill="white" stroke="#2C2C2C" stroke-width="2.1527" stroke-linecap="round" stroke-linejoin="round"/>
<rect width="52.7951" height="9.14302" transform="matrix(-1 0 0 1 63.415 42.337)" fill="white" stroke="#2C2C2C" stroke-width="2.1527" stroke-linecap="round" stroke-linejoin="round"/>
<path fill-rule="evenodd" clip-rule="evenodd" d="M15.2548 9.04957C14.4965 5.47703 15.0621 3.30171 16.9517 2.52363C19.7861 1.35649 21.6706 2.19648 22.2927 4.48584C22.7075 6.01207 22.3993 7.53332 21.3681 9.04957L19.3164 11.143L15.2548 9.04957Z" fill="white" stroke="#2C2C2C" stroke-width="2.1527" stroke-linecap="round" stroke-linejoin="round"/>
<path fill-rule="evenodd" clip-rule="evenodd" d="M19.2061 10.9736C20.3815 11.4447 19.5912 14.8375 18.223 16.4647C15.9762 19.1369 12.826 20.6056 9.98917 19.2137C7.24693 17.8681 8.50765 12.6861 11.3663 10.9736C12.1351 10.5131 13.7148 10.0318 16.1055 9.52979L19.2061 10.9736Z" fill="white" stroke="#2C2C2C" stroke-width="2.1527" stroke-linecap="round" stroke-linejoin="round"/>
<path fill-rule="evenodd" clip-rule="evenodd" d="M24.2252 18.1281C23.3241 17.6099 23.3241 16.2985 24.2252 14.1937C25.5768 11.0365 29.1989 8.45194 31.3735 9.98309C33.4756 11.4632 34.2455 13.6964 33.5171 15.4201L33.2871 15.919C32.8264 16.9485 31.9497 19.0381 29.8426 20.8494C29.2533 21.3559 28.0423 21.8854 26.2097 22.4376L24.2252 18.1281Z" fill="white" stroke="#2C2C2C" stroke-width="2.1527" stroke-linecap="round" stroke-linejoin="round"/>
<path fill-rule="evenodd" clip-rule="evenodd" d="M49.5961 19.7408C49.5961 19.7408 51.3746 18.8664 49.5961 15.3146C47.8177 11.7628 43.0518 8.85517 40.1905 10.5777C37.3291 12.3003 36.3437 14.9295 37.476 16.8928C38.0253 17.8451 39.0995 20.52 42.2048 22.8023C43.3679 23.6571 46.985 24.589 46.985 24.589L49.5961 19.7408Z" fill="white" stroke="#2C2C2C" stroke-width="2.1527" stroke-linecap="round" stroke-linejoin="round"/>
<path fill-rule="evenodd" clip-rule="evenodd" d="M49.5606 19.7408C49.5606 19.7408 51.4101 18.8664 49.5606 15.3146C47.711 11.7628 42.7545 8.85517 39.7787 10.5777C36.8028 12.3003 35.778 14.9295 36.9557 16.8928C37.5269 17.8451 38.6441 20.52 41.8735 22.8023C43.0832 23.6571 46.8449 24.589 46.8449 24.589L49.5606 19.7408Z" fill="white" stroke="#2C2C2C" stroke-width="2.1527" stroke-linecap="round" stroke-linejoin="round"/>
<path fill-rule="evenodd" clip-rule="evenodd" d="M31.569 34.1383C31.9817 35.1756 30.2295 36.0762 28.3304 36.5978C25.2119 37.4542 22.3248 36.8446 21.4951 34.1383C20.7091 31.5746 24.6802 28.2511 27.5382 28.3558L27.7118 28.3665C28.4829 28.4341 28.5136 28.1624 30.3052 29.1119L31.569 34.1383Z" fill="white" stroke="#2C2C2C" stroke-width="2.1527" stroke-linecap="round" stroke-linejoin="round"/>
<path fill-rule="evenodd" clip-rule="evenodd" d="M60.3256 12.8598C60.3256 12.8598 61.7069 6.24007 58.2651 4.79832C54.8233 3.35657 52.535 4.3942 51.7795 7.22223C51.0241 10.0503 52.9023 12.8598 52.9023 12.8598L55.3937 15.4458L60.3256 12.8598Z" fill="white" stroke="#2C2C2C" stroke-width="2.1527" stroke-linecap="round" stroke-linejoin="round"/>
<path fill-rule="evenodd" clip-rule="evenodd" d="M54.3169 15.6562C53.0854 16.2512 53.9134 20.5368 55.3468 22.5923C57.7005 25.9677 61.0008 27.8229 63.9726 26.0647C66.8455 24.365 65.5247 17.8194 62.5299 15.6562C61.7245 15.0745 60.0696 14.4665 57.5651 13.8324L54.3169 15.6562Z" fill="white" stroke="#2C2C2C" stroke-width="2.1527" stroke-linecap="round" stroke-linejoin="round"/>
<path fill-rule="evenodd" clip-rule="evenodd" d="M43.5049 34.5094C42.9774 35.7501 45.2169 36.8273 47.6441 37.4511C51.6297 38.4754 55.3196 37.7462 56.38 34.5094C57.4051 31.3805 52.0996 27.3054 48.4347 27.6061C47.4492 27.6869 47.4099 27.362 45.1202 28.4976L43.5049 34.5094Z" fill="white" stroke="#2C2C2C" stroke-width="2.1527" stroke-linecap="round" stroke-linejoin="round"/>
<path fill-rule="evenodd" clip-rule="evenodd" d="M44.02 32.2133C44.02 32.2133 42.5801 26.4344 38.5897 27.4221C34.5994 28.4098 34.9612 31.8728 36.4064 33.9168C37.8516 35.9609 42.507 36.9588 42.507 36.9588L44.02 32.2133Z" fill="white" stroke="#2C2C2C" stroke-width="2.1527" stroke-linecap="round" stroke-linejoin="round"/>
<path d="M48.3306 21.8998C48.3306 21.8998 47.9046 17.053 45.1427 15.2515C42.3809 13.45 39.711 13.9354 39.711 13.9354" stroke="#2C2C2C" stroke-width="2.1527" stroke-linecap="round" stroke-linejoin="round"/>
<path d="M42.9434 34.2697C42.9434 34.2697 41.6911 31.6626 39.8375 31.0026C37.9838 30.3426 37.0174 30.5578 37.0174 30.5578" stroke="#2C2C2C" stroke-width="2.1527" stroke-linecap="round" stroke-linejoin="round"/>
<path d="M44.5599 32.3854C44.5599 32.3854 45.2175 31.8517 48.3741 32.3854C51.5306 32.9191 52.1021 34.2689 52.1021 34.2689" stroke="#2C2C2C" stroke-width="2.1527" stroke-linecap="round" stroke-linejoin="round"/>
<path d="M55.8728 15.4458C55.8728 15.4458 60.6234 18.5146 61.407 20.4873C62.1906 22.46 61.407 24.051 61.407 24.051" stroke="#2C2C2C" stroke-width="2.1527" stroke-linecap="round" stroke-linejoin="round"/>
<path d="M58.0273 13.2945C58.0273 13.2945 57.2921 9.76009 56.5526 8.56309C55.8131 7.3661 54.795 6.84058 54.795 6.84058" stroke="#2C2C2C" stroke-width="2.1527" stroke-linecap="round" stroke-linejoin="round"/>
<path d="M25.1652 19.7483C25.3782 17.1634 26.1751 15.3905 27.556 14.4297C28.937 13.4689 30.2949 13.118 31.6299 13.3769" stroke="#2C2C2C" stroke-width="2.1527" stroke-linecap="round" stroke-linejoin="round"/>
<path d="M30.0146 32.252C29.7328 32.0741 28.9155 32.0741 27.5627 32.252C26.2099 32.4299 25.411 32.7438 25.1661 33.1937" stroke="#2C2C2C" stroke-width="2.1527" stroke-linecap="round" stroke-linejoin="round"/>
<path d="M17.0845 11.1432C14.4933 12.6776 12.984 13.938 12.5565 14.9243C12.1291 15.9107 12.1291 16.8016 12.5565 17.5971" stroke="#2C2C2C" stroke-width="2.1527" stroke-linecap="round" stroke-linejoin="round"/>
<path d="M16.0068 9.52983C16.5786 7.17357 17.1521 5.59644 17.7273 4.79845C18.3024 4.00045 18.9859 3.42627 19.7778 3.07593" stroke="#2C2C2C" stroke-width="2.1527" stroke-linecap="round" stroke-linejoin="round"/>
<path d="M40.7885 42.3371C40.7885 42.3371 46.2396 21.0887 53.0911 16.7479C54.8786 15.6154 56.7037 14.6436 58.5664 13.8324" stroke="#2C2C2C" stroke-width="2.1527" stroke-linecap="round" stroke-linejoin="round"/>
<path d="M33.5576 41.9562C29.5792 24.9858 25.3171 15.6859 20.3168 12.219" stroke="#2C2C2C" stroke-width="2.1527" stroke-linecap="round" stroke-linejoin="round"/>
<rect width="245.659" height="10.2187" transform="matrix(-1 0 0 1 247.659 148.826)" fill="white" stroke="black" stroke-width="2.1527" stroke-linecap="round" stroke-linejoin="round"/>
<path fill-rule="evenodd" clip-rule="evenodd" d="M337.892 117.685C337.892 117.685 356.702 121.888 365.724 125.421C374.745 128.953 411.829 194.872 411.829 194.872C411.829 194.872 441.699 255.251 441.699 260.564C441.699 265.877 452.461 278.889 441.699 286.575C430.936 294.262 423.989 292.738 408.088 286.575C392.187 280.413 380.034 273.575 380.034 273.575V240.806L396.841 245.982L380.034 221.425V312.479L225.433 305.351L239.387 194.872C239.387 194.872 196.147 240.871 183.35 248.95C168.678 258.213 157.848 245.809 155.942 240.657C154.037 235.506 150.307 229.463 152.437 210.421C154.566 191.379 183.35 94.66 183.35 94.66L212.526 107.252C212.526 107.252 203.625 160.692 200.495 174.569C199.674 178.209 200.503 167.434 225.433 140.317C234.195 130.787 269.101 119.123 269.101 119.123L337.892 117.685Z" fill="white" stroke="#2C2C2C" stroke-width="1.61453" stroke-linecap="round" stroke-linejoin="round"/>
<path fill-rule="evenodd" clip-rule="evenodd" d="M337.66 117.821L330.035 114.021L329.724 114.604C326.312 120.95 323.478 125.245 321.22 127.491C312.6 136.069 305.974 140.326 303.196 142.073L302.643 143.08L304.751 144.938C312.326 151.577 316.588 154.896 317.538 154.896C319.09 154.896 337.66 117.821 337.66 117.821Z" fill="white" stroke="#2C2C2C" stroke-width="1.61453" stroke-linecap="round" stroke-linejoin="round"/>
<path fill-rule="evenodd" clip-rule="evenodd" d="M275.223 115.097L268.702 119.378L284.942 148.149C286.9 151.584 287.896 153.295 287.931 153.283C292.358 151.681 297.088 148.456 302.12 143.61L302.642 143.103L302.467 142.556L302.105 142.789C301.906 142.922 301.793 143.01 301.772 143.058L301.77 143.065L301.274 142.797C299.476 141.795 293.744 138.375 289.063 133.041L288.783 132.718L284.901 128.198C281.025 123.655 277.064 118.814 275.388 115.441L275.223 115.097Z" fill="white" stroke="#2C2C2C" stroke-width="1.61453" stroke-linecap="round" stroke-linejoin="round"/>
<path fill-rule="evenodd" clip-rule="evenodd" d="M350.689 166.191H256.956L231.681 254.527L220.756 310.184L381.296 313.017L366.325 257.729L350.689 166.191Z" fill="white" stroke="#2C2C2C" stroke-width="1.61453" stroke-linecap="round" stroke-linejoin="round"/>
<path fill-rule="evenodd" clip-rule="evenodd" d="M353.821 121.525L350.911 166.191H343.046L348.434 120.476L353.821 121.525Z" fill="#2C2C2C" stroke="#2C2C2C" stroke-width="1.61453" stroke-linecap="round" stroke-linejoin="round"/>
<path fill-rule="evenodd" clip-rule="evenodd" d="M317.218 191.199L311.826 258.269C311.826 258.269 305.789 263.537 298.609 263.537C291.429 263.537 287.919 263.408 281.899 260.839C275.879 258.269 269.242 193.033 269.242 193.033C269.242 193.033 285.784 196.115 297.741 194.975C309.698 193.836 317.218 191.199 317.218 191.199Z" fill="white" stroke="#2C2C2C" stroke-width="1.61453" stroke-linecap="round" stroke-linejoin="round"/>
<path fill-rule="evenodd" clip-rule="evenodd" d="M261.699 121.525L264.501 166.191H271.935L266.817 120.476L261.699 121.525Z" fill="#2C2C2C" stroke="#2C2C2C" stroke-width="1.61453" stroke-linecap="round" stroke-linejoin="round"/>
<path fill-rule="evenodd" clip-rule="evenodd" d="M348.973 231.885C348.973 231.885 338.509 216.452 333.742 212.944C331.112 211.009 328.199 208.121 322.286 205.414C321.055 204.85 316.176 202.763 316.176 202.763L315.271 215.333C315.271 215.333 304.356 219.306 301.932 219.306C299.508 219.306 284.459 214.203 284.459 214.203C284.459 214.203 281.731 216.079 285.786 219.306C289.842 222.533 294.988 224.757 294.988 224.757L289.32 224.07C285.454 223.602 279.579 227.102 283.017 228.931C285.786 230.405 289.852 231.167 289.852 231.167C289.852 231.167 283.836 230.217 283.017 231.885C282.197 233.553 282.981 235.634 284.459 236.781C285.221 237.371 287.526 238.19 286.996 238.19C286.996 238.19 285.451 238.016 285.786 240.776C286.122 243.535 308.19 252.013 308.19 252.013L328.187 248.36L344.037 255.47L348.973 231.885Z" fill="white" stroke="#2C2C2C" stroke-width="1.61453" stroke-linecap="round" stroke-linejoin="round"/>
<path d="M326.885 219.973C326.885 219.973 310.591 224.813 305.704 224.813C300.817 224.813 291.868 223.441 291.868 223.441" stroke="#2C2C2C" stroke-width="1.61453" stroke-linecap="round" stroke-linejoin="round"/>
<path d="M327.424 230.82C327.424 230.82 309.419 232.881 304.128 232.881C298.837 232.881 284.326 229.654 284.326 229.654" stroke="#2C2C2C" stroke-width="1.61453" stroke-linecap="round" stroke-linejoin="round"/>
<path d="M326.885 238.797C326.885 238.797 310.098 240.948 304.803 240.948C299.508 240.948 284.865 236.646 284.865 236.646" stroke="#2C2C2C" stroke-width="1.61453" stroke-linecap="round" stroke-linejoin="round"/>
<path fill-rule="evenodd" clip-rule="evenodd" d="M287.025 188.054C277.737 188.989 271.629 190.454 268.703 192.449L269.549 192.804L269.978 192.873C280.767 194.557 290.094 195.073 297.959 194.424C306.07 193.754 312.3 192.566 316.65 190.859C306.189 188.054 296.314 187.119 287.025 188.054Z" fill="white" stroke="#2C2C2C" stroke-width="1.61453" stroke-linecap="round" stroke-linejoin="round"/>
<path fill-rule="evenodd" clip-rule="evenodd" d="M179.534 100.297C177.503 114.646 179.346 128.364 185.063 141.451L261.388 129.065L261.393 128.94C261.277 128.905 261.194 128.835 261.14 128.733C259.336 127.813 257.702 125.154 256.934 121.671C255.512 115.214 256.758 98.9064 258.357 92.8669C259.327 89.2022 261.067 86.5882 263.579 85.0247L263.296 84.5625L263.315 84.1176L185.063 80.2311C183.408 79.2601 181.565 85.9488 179.534 100.297Z" fill="white" stroke="#2C2C2C" stroke-width="1.61453" stroke-linecap="round" stroke-linejoin="round"/>
<path fill-rule="evenodd" clip-rule="evenodd" d="M247.154 83.3656L247.154 78.0751C247.154 68.1051 239.221 59.945 229.255 59.6636C219.363 59.3843 211.018 66.9711 210.357 76.8447L209.982 82.4541H215.468L215.889 76.2334C216.331 69.7141 221.748 64.6517 228.282 64.6517C235.143 64.6517 240.704 70.213 240.704 77.0733V83.3656H247.154Z" fill="white" stroke="#2C2C2C" stroke-width="1.61453" stroke-linecap="round" stroke-linejoin="round"/>
<path fill-rule="evenodd" clip-rule="evenodd" d="M234.732 66.7516L234.624 66.6929L234.059 67.3956C233.25 68.3848 232.243 69.5172 231.351 70.0101L230.8 70.3081C228.359 71.6034 227.671 71.6193 227.338 72.7888C227.029 73.8697 227.378 75.3631 227.834 76.238C228.415 77.3537 233.003 76.9398 234.869 76.0366L235.467 75.7423C236.607 75.1728 237.989 74.4382 239.611 73.5385C239.538 72.6316 239.419 71.8733 239.254 71.2634C238.216 69.3726 236.643 67.8041 234.732 66.7516Z" fill="#F8F7F3" stroke="#2C2C2C" stroke-width="1.61453" stroke-linecap="round" stroke-linejoin="round"/>
<path fill-rule="evenodd" clip-rule="evenodd" d="M235.844 52.6466C235.844 52.6466 234.202 48.9141 230.443 46.5832C226.684 44.2523 209.273 45.7935 209.273 45.7935C209.273 45.7935 203.854 46.1936 198.076 49.4201C192.297 52.6466 187.893 80.4241 187.893 80.4241L210.602 82.29L212.058 73.3026C212.058 73.3026 213.585 74.2548 214.498 74.2708C215.41 74.2868 217.072 73.3026 217.072 73.3026C217.072 73.3026 217.848 74.6063 219.099 74.6063C220.35 74.6063 222.122 73.3026 222.122 73.3026L223.884 74.6063C223.884 74.6063 225.883 75.4561 226.492 75.2331C227.1 75.0101 228.128 73.3026 228.128 73.3026C228.128 73.3026 228.95 75.2331 229.542 75.2331C230.133 75.2331 231.667 73.3026 231.667 73.3026C231.667 73.3026 234.774 69.1524 235.844 65.3114C236.913 61.4705 235.844 52.6466 235.844 52.6466Z" fill="white" stroke="#2C2C2C" stroke-width="1.61453" stroke-linecap="round" stroke-linejoin="round"/>
<path fill-rule="evenodd" clip-rule="evenodd" d="M211.598 73.1469C211.598 71.3794 210.779 65.6977 210.779 64.7681C210.779 63.8386 205.672 60.2391 205.672 60.2391C205.672 60.2391 203.873 64.8759 199.746 67.3755" fill="#F8F7F3"/>
<path d="M211.598 73.1469C211.598 71.3794 210.779 65.6977 210.779 64.7681C210.779 63.8386 205.672 60.2391 205.672 60.2391C205.672 60.2391 203.873 64.8759 199.746 67.3755" stroke="#2C2C2C" stroke-width="1.61453" stroke-linecap="round" stroke-linejoin="round"/>
<path fill-rule="evenodd" clip-rule="evenodd" d="M227.76 74.2226C227.76 73.2382 229.915 64.9786 229.915 64.9786L228.837 50.5583" fill="#F8F7F3"/>
<path d="M227.76 74.2226C227.76 73.2382 229.915 64.9786 229.915 64.9786L228.837 50.5583" stroke="#2C2C2C" stroke-width="1.61453" stroke-linecap="round" stroke-linejoin="round"/>
<path fill-rule="evenodd" clip-rule="evenodd" d="M222.372 74.2226C222.372 73.2382 223.988 64.9786 223.988 64.9786L222.372 50.5583" fill="#F8F7F3"/>
<path d="M222.372 74.2226C222.372 73.2382 223.988 64.9786 223.988 64.9786L222.372 50.5583" stroke="#2C2C2C" stroke-width="1.61453" stroke-linecap="round" stroke-linejoin="round"/>
<path fill-rule="evenodd" clip-rule="evenodd" d="M216.985 73.6846C216.985 72.6792 216.985 64.0711 216.985 64.0711L213.214 52.1716" fill="#F8F7F3"/>
<path d="M216.985 73.6846C216.985 72.6792 216.985 64.0711 216.985 64.0711L213.214 52.1716" stroke="#2C2C2C" stroke-width="1.61453" stroke-linecap="round" stroke-linejoin="round"/>
<path d="M200.284 175.872L196.513 207.603" stroke="#2C2C2C" stroke-width="1.61453" stroke-linecap="round" stroke-linejoin="round"/>
<path d="M390.994 244.713L426.011 254.932" stroke="#2C2C2C" stroke-width="1.61453" stroke-linecap="round" stroke-linejoin="round"/>
<path fill-rule="evenodd" clip-rule="evenodd" d="M285.36 109.522C283.845 113.884 279.657 115.616 275.706 114.687C277.277 118.054 281.386 123.05 285.404 127.727L289.294 132.227C294.216 137.933 300.432 141.512 302.004 142.366L302.308 142.526C302.51 142.079 310.427 138.307 321.815 127.106C324.147 124.811 327.095 120.358 330.656 113.748L323.445 113.813C319.026 113.775 317.346 105.974 318.403 90.4115C317.431 91.6722 318.497 69.3559 317.648 70.0244L317.06 70.4916C312.715 73.9726 311.703 69.548 304.881 69.548C301.324 69.548 298.962 66.755 294.778 69.548C293.77 70.2211 289.467 87.685 288.693 86.6043L288.477 88.719C287.503 98.039 286.257 106.941 285.36 109.522Z" fill="white" stroke="#2C2C2C" stroke-width="1.61453" stroke-linecap="round" stroke-linejoin="round"/>
<path fill-rule="evenodd" clip-rule="evenodd" d="M303.099 40.4456C302.193 47.9271 289.822 52.228 284.18 59.3224C282.632 61.2692 281.879 65.9326 282.275 70.4811C282.662 74.9171 284.18 79.2639 284.18 79.3071C284.18 82.8041 295.521 98.9626 302.559 98.9626L303.406 98.9559C309.646 98.8514 310.286 97.5209 314.911 93.8447C317.046 92.1474 319.564 88.7913 322.543 82.4766L322.842 81.8273L323.19 81.0442C324.002 79.1843 325.081 76.5266 326.424 73.0709L327.424 70.4811C327.367 70.0975 327.305 69.7213 327.239 69.3524L327.149 68.8644L327.039 68.3156L326.922 67.7784L326.798 67.2498L326.668 66.7341L326.543 66.2728L326.355 65.6358L326.197 65.1385L326.032 64.6548L325.884 64.2509L325.723 63.8348L325.569 63.4576L325.389 63.0448L325.119 62.4705L324.908 62.0555L324.69 61.6533C324.394 61.1251 324.079 60.6311 323.743 60.171C323.364 59.6516 315.975 57.149 313.171 55.0402C308.349 51.4127 306.69 48.7795 305.905 45.7762L305.843 45.5319C305.548 44.3264 303.204 39.5749 303.099 40.4456Z" fill="white" stroke="#2C2C2C" stroke-width="1.61453" stroke-linecap="round" stroke-linejoin="round"/>
<path fill-rule="evenodd" clip-rule="evenodd" d="M324.382 76.6737C324.382 76.6737 328.265 65.0852 324.382 59.8183C323.996 59.295 316.473 56.7737 313.619 54.6492C308.577 50.8959 306.931 48.1993 306.158 45.0701C305.858 43.8556 303.472 39.0688 303.364 39.9459C301.921 51.7371 293.679 56.8375 286.877 59.6323C278.443 63.0979 284.225 82.29 284.225 82.29C284.225 82.29 267.691 72.6101 264.701 59.6323C263.017 52.3219 261.577 35.9341 268.58 23.0889C274.008 13.1304 286.144 6.99451 293.189 6.99451C300.233 6.99451 301.017 11.402 303.365 11.1193C305.464 10.8664 303.887 9.9001 309.474 9.9001C325.293 9.9001 337.756 23.2193 341.249 35.6538C343.208 42.6262 343.216 49.3522 342.881 53.5114C342.201 61.9502 338.521 64.3414 335.749 68.4269C331.611 74.526 324.382 76.6737 324.382 76.6737Z" fill="#2C2C2C" stroke="#2C2C2C" stroke-width="1.61453" stroke-linecap="round" stroke-linejoin="round"/>
<path fill-rule="evenodd" clip-rule="evenodd" d="M275.176 49.9564C272.479 50.9716 271.946 53.2248 271.935 56.0594C271.935 56.0594 272.379 61.4676 280.28 62.928C280.28 62.928 280.14 60.2491 280.28 57.735C280.411 55.3686 281.093 51.3463 281.093 51.3463C279.705 49.1192 277.149 49.214 275.176 49.9564Z" fill="white" stroke="#2C2C2C" stroke-width="1.61453" stroke-linecap="round" stroke-linejoin="round"/>
<path fill-rule="evenodd" clip-rule="evenodd" d="M334.914 47.8834C333.3 46.5706 329.825 47.7941 328.501 49.512C328.501 49.512 329.781 58.7688 329.257 64.5417L333.126 61.6373C336.224 59.0615 339.354 51.4933 334.914 47.8834Z" fill="white" stroke="#2C2C2C" stroke-width="1.61453" stroke-linecap="round" stroke-linejoin="round"/>
<path d="M296.716 61.4344C296.716 61.4344 295.468 62.8075 294.094 62.8075C292.719 62.8075 290.377 62.8075 287.558 61.4344" stroke="#2C2C2C" stroke-width="1.61453" stroke-linecap="round" stroke-linejoin="round"/>
<path d="M312.339 60.2791C312.339 60.2791 313.588 60.7373 314.962 60.7373C316.336 60.7373 318.679 60.7373 321.498 60.2791" stroke="#2C2C2C" stroke-width="1.61453" stroke-linecap="round" stroke-linejoin="round"/>
<path d="M307.344 59.1635C307.344 59.1635 305.73 62.4791 306.212 67.5155C306.694 72.5519 308.029 71.4205 308.029 72.6936C308.029 73.9668 305.362 76.4954 303.181 75.6758" stroke="#2C2C2C" stroke-width="1.61453" stroke-linecap="round" stroke-linejoin="round"/>
<path d="M311.262 82.2902C311.262 82.2902 307.576 83.9029 305.01 83.9029C302.445 83.9029 300.465 83.9029 298.872 83.0965" stroke="#2C2C2C" stroke-width="1.61453" stroke-linecap="round" stroke-linejoin="round"/>
<path fill-rule="evenodd" clip-rule="evenodd" d="M398.535 247.255C398.535 247.255 348.494 231.805 348.494 231.805L343.585 255.214L388.812 278.596" fill="white"/>
<path d="M398.535 247.255C398.535 247.255 348.494 231.805 348.494 231.805L343.585 255.214L388.812 278.596" stroke="#2C2C2C" stroke-width="1.61453" stroke-linecap="round" stroke-linejoin="round"/>
<path fill-rule="evenodd" clip-rule="evenodd" d="M467 308.947H139.158V322.732L467 323.267V308.947Z" fill="white" stroke="#2C2C2C" stroke-width="1.61353"/>
<path fill-rule="evenodd" clip-rule="evenodd" d="M264.344 84.5927C264.344 84.5927 259.955 86.8275 258.357 92.867C256.758 98.9064 255.512 115.214 256.934 121.671C258.357 128.127 262.759 131.753 265.697 126.712C268.635 121.671 270.857 109.092 270.857 100.98C270.857 92.867 268.635 84.8952 265.697 84.5927C262.759 84.2902 264.344 84.5927 264.344 84.5927Z" fill="white" stroke="#2C2C2C" stroke-width="1.61453" stroke-linecap="round" stroke-linejoin="round"/>
<rect width="303.807" height="69.1061" transform="matrix(-1 0 0 1 451.087 322.894)" fill="white" stroke="#2C2C2C" stroke-width="1.61353"/>
<path fill-rule="evenodd" clip-rule="evenodd" d="M264.939 84.3647C264.939 84.3647 260.554 86.602 258.957 92.6481C257.36 98.6942 256.116 115.02 257.536 121.484C258.957 127.947 263.355 131.577 266.29 126.53C269.225 121.484 271.445 108.891 271.445 100.77C271.445 92.6481 269.225 84.6675 266.29 84.3647C263.355 84.0618 264.939 84.3647 264.939 84.3647Z" fill="white" stroke="black" stroke-width="1.61453" stroke-linecap="round" stroke-linejoin="round"/>
<path fill-rule="evenodd" clip-rule="evenodd" d="M256.924 114.488C256.961 116.067 257.049 117.53 257.199 118.801C261.436 120.406 264.554 122.795 266.552 125.969C270.67 132.51 279.586 150.346 282.946 162.285C284.852 169.06 285.435 179.589 284.694 193.872C290.037 194.276 294.923 194.274 299.353 193.866C300.688 193.743 301.973 193.605 303.207 193.452L302.897 191.462C298.622 164.462 292.55 145.269 284.681 133.884C276.175 121.576 267.068 115.118 257.359 114.51L256.924 114.488Z" fill="#2C2C2C" stroke="#2C2C2C" stroke-width="1.61453" stroke-linecap="round" stroke-linejoin="round"/>
</svg>
