<svg width="593" height="499" viewBox="0 0 593 499" fill="none" xmlns="http://www.w3.org/2000/svg">
<path fill-rule="evenodd" clip-rule="evenodd" d="M465.886 130.765C465.886 130.765 450.738 130.765 438.836 137.572C426.934 144.379 399.152 168.47 399.152 168.47L357.906 194.324L272.679 208.598L307.998 327.906L396.173 348.582L534.407 174.395L498.145 145.646L465.886 130.765Z" fill="white" stroke="black" stroke-width="1.61453"/>
<path fill-rule="evenodd" clip-rule="evenodd" d="M292.925 229.493C292.925 229.493 306.663 271.525 308.532 296.796C310.401 322.066 170.238 250.735 170.238 250.735L186.366 193.419L292.925 222.75V229.493Z" fill="white" stroke="black" stroke-width="1.61453"/>
<path fill-rule="evenodd" clip-rule="evenodd" d="M131.838 173.498C126.156 177.811 118.622 195.35 118.622 195.35L71 403.941L147.737 405.742L187.246 228.901L275.507 199.03L222.404 149C222.404 149 137.52 169.185 131.838 173.498Z" fill="white" stroke="#2C2C2C" stroke-width="1.61453"/>
<path fill-rule="evenodd" clip-rule="evenodd" d="M357.649 128.594C347.623 128.594 331.171 129.024 324.865 129.199C324.078 129.221 323.745 128.213 324.38 127.748C328.581 124.661 331.505 122.402 333.15 120.972L333.4 120.753C337.244 117.337 339.209 114.71 339.297 112.871L339.3 112.744V82.4576L338.544 81.7702C327.835 71.9746 322.42 64.6608 322.297 59.8288L322.294 59.6612V26.3933H364.272V59.6612C364.272 64.6021 358.604 72.2009 347.267 82.4576V112.744C347.267 114.546 349.145 117.137 352.902 120.516L353.416 120.972C355.203 122.524 357.501 124.543 362.298 128.048C362.618 128.282 358.722 128.594 357.649 128.594Z" fill="white" stroke="#2C2C2C" stroke-width="1.61453"/>
<path fill-rule="evenodd" clip-rule="evenodd" d="M347.744 114.849L338.602 115.268C339.036 114.499 339.268 113.814 339.296 113.214L339.299 113.087V82.9974L338.544 82.3144C327.835 72.5822 322.42 65.3158 322.297 60.5151L322.294 60.3486V44.5486C322.689 43.9634 322.915 43.6295 322.915 43.6295C322.915 43.6295 341.082 50.9059 345.31 52.3168C349.539 53.7278 357.605 54.8612 359.667 54.8612C361.355 54.8612 363.535 55.5557 364.272 55.8081V60.3486C364.272 65.2575 358.604 72.807 347.267 82.9974V113.087C347.267 113.608 347.426 114.196 347.744 114.849Z" fill="#2C2C2C"/>
<path d="M347.744 114.849L347.781 115.656L349.007 115.6L348.47 114.496L347.744 114.849ZM338.602 115.268L337.899 114.871L337.182 116.141L338.639 116.074L338.602 115.268ZM339.296 113.214L340.103 113.252L340.103 113.243L340.103 113.233L339.296 113.214ZM339.299 113.087L340.106 113.107L340.107 113.097V113.087H339.299ZM339.299 82.9974H340.107V82.6389L339.841 82.3985L339.299 82.9974ZM338.544 82.3144L338.001 82.9118L338.002 82.9133L338.544 82.3144ZM322.297 60.5151L321.489 60.5255L321.49 60.5358L322.297 60.5151ZM322.294 60.3486H321.487L321.487 60.359L322.294 60.3486ZM322.294 44.5486L321.625 44.0974L321.487 44.3019V44.5486H322.294ZM322.915 43.6295L323.215 42.8801L322.612 42.6383L322.247 43.1767L322.915 43.6295ZM345.31 52.3168L345.566 51.5511L345.31 52.3168ZM364.272 55.8081H365.079V55.2313L364.534 55.0444L364.272 55.8081ZM347.267 82.9974L346.727 82.397L346.46 82.6376V82.9974H347.267ZM347.707 114.043L338.565 114.462L338.639 116.074L347.781 115.656L347.707 114.043ZM339.305 115.665C339.774 114.833 340.066 114.023 340.103 113.252L338.49 113.175C338.47 113.604 338.298 114.164 337.899 114.871L339.305 115.665ZM340.103 113.233L340.106 113.107L338.492 113.068L338.489 113.194L340.103 113.233ZM340.107 113.087V82.9974H338.492V113.087H340.107ZM339.841 82.3985L339.085 81.7155L338.002 82.9133L338.758 83.5963L339.841 82.3985ZM339.087 81.717C333.751 76.8678 329.762 72.6576 327.098 69.083C324.414 65.4821 323.158 62.6352 323.104 60.4944L321.49 60.5358C321.558 63.1957 323.071 66.3823 325.803 70.0479C328.555 73.7397 332.628 78.0288 338.001 82.9118L339.087 81.717ZM323.104 60.5047L323.102 60.3382L321.487 60.359L321.489 60.5255L323.104 60.5047ZM323.102 60.3486V44.5486H321.487V60.3486H323.102ZM322.964 44.9998C323.161 44.7075 323.316 44.478 323.422 44.3217C323.474 44.2435 323.515 44.1836 323.542 44.1433C323.556 44.1231 323.566 44.1078 323.573 44.0976C323.577 44.0925 323.579 44.0887 323.581 44.0861C323.582 44.0848 323.582 44.0839 323.583 44.0832C323.583 44.0829 323.583 44.0827 323.583 44.0825C323.583 44.0825 323.583 44.0824 323.583 44.0824C323.583 44.0823 323.583 44.0823 323.583 44.0823C323.583 44.0823 323.583 44.0823 323.583 44.0823C323.583 44.0823 323.583 44.0823 322.915 43.6295C322.247 43.1767 322.247 43.1767 322.247 43.1767C322.247 43.1767 322.247 43.1767 322.247 43.1767C322.247 43.1767 322.247 43.1767 322.247 43.1768C322.247 43.1768 322.247 43.1769 322.247 43.177C322.247 43.1771 322.246 43.1774 322.246 43.1777C322.246 43.1784 322.245 43.1794 322.244 43.1807C322.242 43.1833 322.24 43.1872 322.236 43.1924C322.229 43.2027 322.219 43.2181 322.205 43.2384C322.178 43.2789 322.137 43.3391 322.084 43.4175C321.978 43.5744 321.822 43.8045 321.625 44.0974L322.964 44.9998ZM322.915 43.6295C322.615 44.3789 322.615 44.3789 322.615 44.379C322.615 44.379 322.616 44.3791 322.616 44.3792C322.616 44.3795 322.617 44.3798 322.618 44.3802C322.621 44.3811 322.624 44.3824 322.628 44.3842C322.637 44.3877 322.65 44.393 322.667 44.3999C322.702 44.4137 322.753 44.4342 322.82 44.4611C322.955 44.5148 323.152 44.5937 323.405 44.6946C323.91 44.8964 324.636 45.1863 325.521 45.5385C327.291 46.243 329.695 47.197 332.231 48.1952C337.291 50.1867 342.915 52.3686 345.055 53.0826L345.566 51.5511C343.477 50.8541 337.903 48.6923 332.823 46.6929C330.289 45.6956 327.887 44.7424 326.118 44.0384C325.234 43.6865 324.508 43.3969 324.003 43.1952C323.751 43.0944 323.554 43.0156 323.42 42.962C323.353 42.9352 323.302 42.9148 323.267 42.901C323.25 42.8941 323.237 42.8889 323.228 42.8854C323.224 42.8836 323.221 42.8823 323.219 42.8814C323.217 42.881 323.217 42.8807 323.216 42.8804C323.216 42.8803 323.216 42.8802 323.215 42.8802C323.215 42.8801 323.215 42.8801 322.915 43.6295ZM345.055 53.0826C347.232 53.809 350.357 54.4532 353.17 54.9147C355.974 55.3744 358.564 55.6684 359.667 55.6684V54.0539C358.709 54.0539 356.235 53.7812 353.432 53.3215C350.64 52.8635 347.617 52.2356 345.566 51.5511L345.055 53.0826ZM359.667 55.6684C361.204 55.6684 363.267 56.3172 364.01 56.5718L364.534 55.0444C363.804 54.7943 361.506 54.0539 359.667 54.0539V55.6684ZM363.465 55.8081V60.3486H365.079V55.8081H363.465ZM363.465 60.3486C363.465 62.528 362.187 65.4627 359.375 69.2077C356.585 72.9231 352.377 77.3183 346.727 82.397L347.806 83.5977C353.493 78.4861 357.787 74.0113 360.666 70.1771C363.523 66.3726 365.079 63.078 365.079 60.3486H363.465ZM346.46 82.9974V113.087H348.074V82.9974H346.46ZM346.46 113.087C346.46 113.769 346.666 114.48 347.018 115.203L348.47 114.496C348.185 113.912 348.074 113.448 348.074 113.087H346.46Z" fill="#2C2C2C"/>
<path fill-rule="evenodd" clip-rule="evenodd" d="M482.672 51.7093C493.195 36.5676 524.785 69.3621 514.247 92.0101L511.538 97.8812C508.894 103.648 505.479 111.179 501.294 120.475L500.97 121.193L507.428 150.077L505.799 149.834C505.916 146.359 505.318 143.19 504.079 140.453C499.129 129.522 491.847 128.781 480.348 128.737L478.305 128.735L477.477 128.742C471.43 128.813 468.988 129.412 467.119 130.542L467.547 129.306C469.568 123.421 470.897 118.855 471.536 115.605C472.23 112.069 471.883 109.116 470.494 106.748C467.13 105.407 463.417 104.212 459.354 103.163C453.36 101.615 454.832 97.1988 454.882 95.3911L454.883 95.3029C454.883 94.1883 456.734 91.1113 460.437 86.0718L460.953 85.3724L463.964 79.5083L462.358 78.0488C460.149 76.031 458.59 74.5528 457.682 73.6143C456.048 71.9258 456.387 70.088 459.157 70.0054L459.839 69.9952C463.165 69.9038 471.19 68.9471 473.561 67.269C476.057 65.5026 479.618 56.1036 482.672 51.7093Z" fill="white" stroke="#2C2C2C" stroke-width="1.61453"/>
<path fill-rule="evenodd" clip-rule="evenodd" d="M504.931 92.8332L505.775 91.9987C509.822 88.0257 512.398 85.9713 513.503 85.8357L513.9 85.784C515.445 85.5754 516.494 85.3872 517.917 86.8717C519.459 88.4799 519.561 91.4394 518.828 92.9612L518.736 93.1461C517.874 94.822 515.044 99.0799 512.204 100.054C509.252 101.067 505.833 101.139 504.298 98.81C503.275 97.2572 503.486 95.2649 504.931 92.8332Z" stroke="black" stroke-width="1.61453"/>
<path d="M512.273 92.1068C510.746 92.1068 510.016 92.5347 509.41 92.981C507.337 94.5065 507.319 94.9894 507.5 95.2389C507.852 95.7227 508.44 94.5393 509.744 95.2389C510.085 95.4219 510.421 96.1753 510.746 96.9545" stroke="black" stroke-width="1.61453" stroke-linecap="round" stroke-linejoin="round"/>
<path d="M485.364 58.7115C485.364 58.7115 488.568 60.6596 490.092 62.3377C491.616 64.0157 492.898 66.2524 492.898 66.2524" stroke="#2C2C2C" stroke-width="1.61453" stroke-linecap="round" stroke-linejoin="round"/>
<path d="M476.752 67.8683C476.752 67.8683 480.532 70.545 481.058 71.6387" stroke="black" stroke-width="1.61453"/>
<path d="M460.607 86.7206C460.607 86.7206 463.021 87.2588 465.451 87.2588" stroke="#2C2C2C" stroke-width="1.61453" stroke-linecap="round" stroke-linejoin="round"/>
<path fill-rule="evenodd" clip-rule="evenodd" d="M475.563 44.4144C474.978 44.3983 474.514 45.3992 474.961 45.7767C477.854 48.2224 483.182 52.533 485.786 53.4079C496.011 56.844 502.297 56.884 502.047 57.0696C495.307 62.0761 506.827 82.4072 505.564 82.4072L497.094 93.8344H503.834C503.834 93.8344 499.091 104.357 499.091 105.609C499.091 106.862 500.259 121.193 500.259 121.193C500.259 121.193 508.083 115.17 512.495 113.678C519.607 111.273 526.9 110.455 530.802 107.328C534.663 104.234 549.597 90.8138 548.244 75.8058C546.779 59.5433 533.064 50.5806 525.05 47.2965C519.703 45.1052 515.458 20.8724 499.091 34.0845C487.665 43.308 479.47 44.522 475.563 44.4144Z" fill="#2C2C2C" stroke="#2C2C2C" stroke-width="1.61453"/>
<path fill-rule="evenodd" clip-rule="evenodd" d="M258.251 172.944C258.251 172.944 214.751 168.593 208.048 168.593C201.345 168.593 191.385 176.002 183.375 183.266C175.364 190.53 160.892 216.773 160.892 216.773C160.892 216.773 160.399 221.38 164.528 221.38C168.657 221.38 173.992 212.522 175.357 209.364" fill="white"/>
<path d="M258.251 172.944C258.251 172.944 214.751 168.593 208.048 168.593C201.345 168.593 191.385 176.002 183.375 183.266C175.364 190.53 160.892 216.773 160.892 216.773C160.892 216.773 160.399 221.38 164.528 221.38C168.657 221.38 173.992 212.522 175.357 209.364" stroke="black" stroke-width="1.61453"/>
<path fill-rule="evenodd" clip-rule="evenodd" d="M185.596 185.83C185.596 185.83 179.216 193.572 177.737 199.792C176.258 206.012 172.68 229.772 172.68 231.05C172.68 232.327 176.837 236.76 179.138 233.905C181.439 231.05 183.046 225.249 183.046 222.438C183.046 219.628 184.469 211.441 184.469 211.441" fill="white"/>
<path d="M185.596 185.83C185.596 185.83 179.216 193.572 177.737 199.792C176.258 206.012 172.68 229.772 172.68 231.05C172.68 232.327 176.837 236.76 179.138 233.905C181.439 231.05 183.046 225.249 183.046 222.438C183.046 219.628 184.469 211.441 184.469 211.441" stroke="black" stroke-width="1.61453"/>
<path fill-rule="evenodd" clip-rule="evenodd" d="M197.436 179.905C197.436 179.905 183.444 200.751 183.444 204.533C183.444 208.316 185.493 229.764 185.493 229.764C185.493 229.764 186.385 236.248 189.356 235.251C192.328 234.254 194.804 232.974 194.804 229.764" fill="white"/>
<path d="M197.436 179.905C197.436 179.905 183.444 200.751 183.444 204.533C183.444 208.316 185.493 229.764 185.493 229.764C185.493 229.764 186.385 236.248 189.356 235.251C192.328 234.254 194.804 232.974 194.804 229.764" stroke="black" stroke-width="1.61453"/>
<path fill-rule="evenodd" clip-rule="evenodd" d="M204.844 179.525C204.844 179.525 191.462 201.917 190.571 205.323C189.679 208.73 194.848 229.065 194.848 229.065C194.848 229.065 195.532 232.329 197.642 233.424C199.752 234.518 203.782 232.763 203.782 231.55C203.782 230.336 199.646 209.237 199.646 209.237C199.646 209.237 206.87 193.462 209.765 194.567C212.661 195.673 232.744 199.081 232.744 199.081L250.67 200.139L258.25 172.903" fill="white"/>
<path d="M194.848 229.065L195.638 228.9L195.634 228.883L195.63 228.867L194.848 229.065ZM203.782 231.55H204.59H203.782ZM199.646 209.237L198.912 208.901L198.804 209.137L198.854 209.392L199.646 209.237ZM232.744 199.081L232.609 199.877L232.652 199.884L232.696 199.887L232.744 199.081ZM250.67 200.139L250.623 200.944L251.273 200.983L251.448 200.355L250.67 200.139ZM204.844 179.525C204.151 179.111 204.151 179.111 204.151 179.111C204.151 179.111 204.151 179.112 204.151 179.112C204.15 179.113 204.15 179.114 204.149 179.115C204.147 179.118 204.145 179.122 204.141 179.127C204.135 179.138 204.125 179.154 204.113 179.176C204.087 179.218 204.049 179.281 204 179.364C203.902 179.529 203.757 179.772 203.573 180.082C203.205 180.701 202.679 181.59 202.044 182.667C200.774 184.821 199.072 187.73 197.342 190.745C195.612 193.759 193.851 196.886 192.465 199.474C191.773 200.768 191.171 201.934 190.713 202.887C190.264 203.819 189.924 204.607 189.79 205.119L191.352 205.528C191.441 205.188 191.713 204.531 192.168 203.587C192.612 202.663 193.201 201.521 193.889 200.236C195.263 197.668 197.015 194.558 198.742 191.549C200.468 188.54 202.167 185.638 203.435 183.487C204.069 182.411 204.594 181.524 204.962 180.906C205.145 180.597 205.289 180.355 205.387 180.191C205.436 180.108 205.474 180.045 205.499 180.003C205.512 179.982 205.521 179.966 205.528 179.955C205.531 179.95 205.533 179.946 205.535 179.943C205.536 179.942 205.536 179.941 205.537 179.94C205.537 179.94 205.537 179.939 205.537 179.939C205.537 179.939 205.537 179.939 204.844 179.525ZM189.79 205.119C189.642 205.682 189.637 206.487 189.693 207.373C189.751 208.287 189.883 209.386 190.064 210.59C190.427 213 190.994 215.88 191.585 218.641C192.178 221.404 192.797 224.06 193.269 226.023C193.505 227.005 193.704 227.815 193.844 228.379C193.914 228.662 193.969 228.883 194.007 229.033C194.026 229.108 194.04 229.166 194.05 229.205C194.055 229.224 194.059 229.239 194.061 229.249C194.063 229.254 194.064 229.258 194.064 229.26C194.065 229.262 194.065 229.263 194.065 229.263C194.065 229.264 194.065 229.264 194.065 229.264C194.065 229.264 194.065 229.264 194.848 229.065C195.63 228.867 195.63 228.867 195.63 228.866C195.63 228.866 195.63 228.866 195.63 228.866C195.63 228.865 195.629 228.864 195.629 228.863C195.629 228.861 195.628 228.857 195.626 228.852C195.624 228.843 195.62 228.828 195.616 228.809C195.606 228.771 195.591 228.714 195.573 228.64C195.535 228.491 195.48 228.271 195.411 227.991C195.272 227.43 195.074 226.624 194.839 225.646C194.369 223.691 193.753 221.049 193.164 218.303C192.575 215.554 192.017 212.711 191.661 210.35C191.483 209.168 191.358 208.12 191.304 207.27C191.248 206.392 191.276 205.817 191.352 205.528L189.79 205.119ZM194.848 229.065C194.058 229.231 194.058 229.231 194.058 229.232C194.058 229.232 194.058 229.232 194.058 229.232C194.058 229.232 194.058 229.233 194.058 229.233C194.058 229.234 194.059 229.236 194.059 229.237C194.059 229.24 194.06 229.243 194.061 229.247C194.063 229.256 194.066 229.268 194.069 229.282C194.076 229.311 194.085 229.352 194.098 229.404C194.124 229.506 194.162 229.65 194.214 229.825C194.319 230.174 194.483 230.652 194.719 231.169C195.178 232.175 195.972 233.467 197.27 234.14L198.014 232.707C197.201 232.286 196.599 231.399 196.188 230.499C195.989 230.064 195.85 229.658 195.761 229.36C195.716 229.212 195.684 229.093 195.664 229.012C195.654 228.972 195.647 228.942 195.643 228.923C195.641 228.913 195.639 228.906 195.638 228.902C195.638 228.9 195.638 228.899 195.638 228.899C195.637 228.899 195.637 228.899 195.638 228.899C195.638 228.899 195.638 228.899 195.638 228.899C195.638 228.899 195.638 228.899 195.638 228.899C195.638 228.9 195.638 228.9 194.848 229.065ZM197.27 234.14C198.625 234.843 200.431 234.592 201.775 234.113C202.47 233.864 203.12 233.529 203.614 233.147C203.86 232.956 204.09 232.736 204.265 232.489C204.436 232.246 204.59 231.925 204.59 231.55H202.975C202.975 231.478 203.003 231.477 202.946 231.558C202.891 231.635 202.79 231.743 202.625 231.87C202.297 232.124 201.808 232.386 201.232 232.592C200.033 233.02 198.768 233.099 198.014 232.707L197.27 234.14ZM204.59 231.55C204.59 231.409 204.564 231.2 204.536 230.989C204.504 230.758 204.458 230.462 204.401 230.112C204.287 229.413 204.125 228.484 203.93 227.408C203.542 225.255 203.024 222.501 202.507 219.787C201.99 217.073 201.472 214.396 201.085 212.399C200.891 211.4 200.729 210.571 200.616 209.991C200.559 209.701 200.515 209.474 200.484 209.319C200.469 209.242 200.458 209.182 200.45 209.142C200.446 209.122 200.443 209.107 200.441 209.097C200.44 209.092 200.439 209.088 200.439 209.085C200.438 209.084 200.438 209.083 200.438 209.083C200.438 209.082 200.438 209.082 200.438 209.082C200.438 209.082 200.438 209.082 199.646 209.237C198.854 209.392 198.854 209.392 198.854 209.392C198.854 209.393 198.854 209.393 198.854 209.393C198.854 209.394 198.854 209.395 198.854 209.396C198.855 209.399 198.856 209.402 198.857 209.407C198.859 209.418 198.861 209.433 198.865 209.453C198.873 209.493 198.885 209.552 198.9 209.629C198.93 209.784 198.975 210.011 199.031 210.301C199.144 210.88 199.306 211.708 199.5 212.707C199.887 214.703 200.404 217.377 200.921 220.089C201.438 222.802 201.954 225.55 202.342 227.695C202.535 228.768 202.696 229.686 202.808 230.372C202.864 230.716 202.907 230.997 202.936 231.209C202.951 231.314 202.961 231.399 202.968 231.462C202.975 231.533 202.975 231.555 202.975 231.55H204.59ZM199.646 209.237C200.38 209.573 200.38 209.573 200.38 209.573C200.38 209.573 200.38 209.573 200.38 209.573C200.38 209.572 200.38 209.572 200.381 209.571C200.382 209.569 200.383 209.566 200.384 209.563C200.388 209.555 200.393 209.544 200.4 209.53C200.413 209.501 200.433 209.457 200.46 209.4C200.512 209.287 200.591 209.119 200.691 208.907C200.893 208.481 201.184 207.873 201.543 207.147C202.262 205.693 203.248 203.771 204.321 201.887C205.399 199.995 206.547 198.174 207.587 196.905C208.111 196.266 208.574 195.808 208.956 195.546C209.145 195.416 209.284 195.355 209.377 195.331C209.42 195.32 209.447 195.319 209.46 195.319C209.472 195.319 209.476 195.321 209.477 195.322L210.053 193.813C209.311 193.53 208.584 193.843 208.042 194.215C207.475 194.604 206.899 195.197 206.338 195.881C205.21 197.259 204.008 199.175 202.918 201.088C201.824 203.009 200.823 204.962 200.096 206.432C199.732 207.167 199.437 207.783 199.232 208.216C199.13 208.432 199.05 208.603 198.996 208.72C198.968 208.778 198.948 208.823 198.934 208.853C198.927 208.869 198.921 208.88 198.918 208.888C198.916 208.892 198.914 208.895 198.913 208.897C198.913 208.898 198.912 208.899 198.912 208.9C198.912 208.9 198.912 208.9 198.912 208.901C198.912 208.901 198.912 208.901 199.646 209.237ZM209.477 195.322C210.276 195.626 212.148 196.059 214.413 196.529C216.712 197.006 219.501 197.537 222.194 198.033C224.889 198.529 227.492 198.99 229.422 199.327C230.387 199.495 231.183 199.633 231.739 199.728C232.016 199.776 232.234 199.813 232.382 199.838C232.456 199.851 232.513 199.861 232.551 199.867C232.57 199.87 232.584 199.873 232.594 199.875C232.599 199.875 232.603 199.876 232.605 199.876C232.606 199.877 232.607 199.877 232.608 199.877C232.608 199.877 232.609 199.877 232.609 199.877C232.609 199.877 232.609 199.877 232.744 199.081C232.879 198.285 232.879 198.285 232.879 198.285C232.879 198.285 232.879 198.285 232.878 198.285C232.878 198.285 232.877 198.285 232.876 198.285C232.873 198.284 232.87 198.284 232.865 198.283C232.855 198.281 232.841 198.279 232.822 198.276C232.784 198.269 232.727 198.26 232.654 198.247C232.506 198.222 232.289 198.185 232.012 198.137C231.458 198.042 230.663 197.904 229.7 197.736C227.773 197.4 225.175 196.939 222.487 196.445C219.797 195.95 217.022 195.422 214.741 194.949C212.427 194.469 210.703 194.061 210.053 193.813L209.477 195.322ZM232.696 199.887L250.623 200.944L250.718 199.333L232.792 198.275L232.696 199.887ZM251.448 200.355L259.027 173.119L257.472 172.686L249.893 199.922L251.448 200.355Z" fill="black"/>
<path fill-rule="evenodd" clip-rule="evenodd" d="M191.516 176.134C191.516 176.134 171.156 186.152 168.68 186.815C166.203 187.477 167.049 192.832 171.279 192.832C175.508 192.832 175.175 192.832 175.175 192.832" fill="white"/>
<path d="M191.516 176.134C191.516 176.134 171.156 186.152 168.68 186.815C166.203 187.477 167.049 192.832 171.279 192.832C175.508 192.832 175.175 192.832 175.175 192.832" stroke="black" stroke-width="1.61453"/>
<path d="M191.516 176.134C191.516 176.134 171.156 186.152 168.68 186.815C166.203 187.477 167.049 192.832 171.279 192.832C175.508 192.832 175.175 192.832 175.175 192.832" stroke="black" stroke-width="1.61453"/>
<path d="M258.251 172.944C258.251 172.944 214.751 168.593 208.048 168.593C201.345 168.593 191.385 176.002 183.375 183.266C175.364 190.53 160.892 216.773 160.892 216.773C160.892 216.773 160.399 221.38 164.528 221.38C168.657 221.38 173.992 212.522 175.357 209.364" stroke="black" stroke-width="1.61453"/>
<path d="M164.149 211.146C164.149 211.146 166.148 211.58 167.185 212.435C168.222 213.291 167.608 215.423 167.608 215.423C167.608 215.423 167.287 216.705 165.993 217.261C164.698 217.818 161.427 217.782 161.378 216.602" stroke="black" stroke-width="1.61453"/>
<path d="M173.52 224.614C173.52 224.614 176.632 224.569 177.249 225.296C177.866 226.023 177.249 228.391 177.249 229.44C177.249 230.488 175.391 230.569 174.455 230.529C173.52 230.488 172.68 229.971 172.68 229.971" stroke="black" stroke-width="1.61453"/>
<path d="M185.596 226.35C185.596 226.35 186.941 225.689 188.126 225.689C189.311 225.689 190.309 227.386 190.309 227.386L190.44 229.643C190.44 229.643 185.596 231.075 185.596 231.075" stroke="black" stroke-width="1.61453"/>
<path d="M193.131 224.583C193.131 224.583 194.771 223.903 195.933 224.13C197.095 224.356 197.816 223.967 198.326 225.743C198.837 227.518 198.256 229.486 197.095 229.486C195.933 229.486 194.729 229.998 194.729 229.998" stroke="black" stroke-width="1.61453"/>
<path fill-rule="evenodd" clip-rule="evenodd" d="M356.737 193.354C354.756 169.328 351.357 129.273 351.357 129.273C351.357 129.273 356.823 194.395 356.737 193.354Z" stroke="#2C2C2C" stroke-width="1.61453"/>
<path fill-rule="evenodd" clip-rule="evenodd" d="M242.053 295.711C242.053 295.711 166.878 441.806 165.552 444.566C164.913 445.895 164.88 449.342 166.539 451.157C168.127 452.893 171.371 453.031 172.418 452.987C174.559 452.898 176.385 451.784 177.433 450.63C178.48 449.476 258.789 302.704 258.789 302.704L242.053 295.711Z" fill="white" stroke="#2C2C2C" stroke-width="1.61453"/>
<path fill-rule="evenodd" clip-rule="evenodd" d="M308.893 296.789C308.893 296.789 384.068 442.884 385.394 445.643C386.033 446.972 386.066 450.419 384.406 452.234C382.819 453.971 379.575 454.108 378.528 454.064C376.387 453.975 374.56 452.861 373.513 451.707C372.466 450.553 292.157 303.781 292.157 303.781L308.893 296.789Z" fill="white" stroke="#2C2C2C" stroke-width="1.61453"/>
<path fill-rule="evenodd" clip-rule="evenodd" d="M291.26 347.819L228.319 478.907C228.319 478.907 225.293 486.754 231.156 488.69C237.02 490.625 241.194 482.409 241.194 482.409L308.031 354.06L291.26 347.819Z" fill="white" stroke="#2C2C2C" stroke-width="1.61453"/>
<path fill-rule="evenodd" clip-rule="evenodd" d="M388.943 353.2L451.884 484.287C451.884 484.287 454.91 492.135 449.046 494.07C443.183 496.006 439.009 487.79 439.009 487.79L372.171 359.441L388.943 353.2Z" fill="white" stroke="#2C2C2C" stroke-width="1.61453"/>
<path fill-rule="evenodd" clip-rule="evenodd" d="M277.733 225.39L254.054 273.764L255.426 274.077L267.119 278.775L290.422 229.635L277.733 225.39ZM277.972 224.903L279.838 221.09L291.989 226.33L290.654 229.145L277.972 224.903Z" fill="white"/>
<path d="M277.733 225.39L277.989 224.625L277.319 224.4L277.008 225.035L277.733 225.39ZM254.054 273.764L253.329 273.409L252.881 274.323L253.874 274.55L254.054 273.764ZM255.426 274.077L255.727 273.328L255.668 273.305L255.606 273.29L255.426 274.077ZM267.119 278.775L266.818 279.524L267.523 279.808L267.848 279.121L267.119 278.775ZM290.422 229.635L291.151 229.981L291.541 229.158L290.678 228.869L290.422 229.635ZM279.838 221.09L280.158 220.348L279.452 220.044L279.113 220.735L279.838 221.09ZM277.972 224.903L277.247 224.548L276.841 225.376L277.716 225.668L277.972 224.903ZM291.989 226.33L292.718 226.676L293.077 225.92L292.309 225.589L291.989 226.33ZM290.654 229.145L290.398 229.911L291.077 230.138L291.384 229.491L290.654 229.145ZM277.008 225.035L253.329 273.409L254.779 274.118L278.458 225.745L277.008 225.035ZM253.874 274.55L255.246 274.864L255.606 273.29L254.234 272.977L253.874 274.55ZM255.125 274.826L266.818 279.524L267.42 278.026L255.727 273.328L255.125 274.826ZM267.848 279.121L291.151 229.981L289.692 229.289L266.389 278.429L267.848 279.121ZM290.678 228.869L277.989 224.625L277.477 226.156L290.166 230.401L290.678 228.869ZM279.113 220.735L277.247 224.548L278.697 225.258L280.563 221.445L279.113 220.735ZM292.309 225.589L280.158 220.348L279.519 221.831L291.669 227.071L292.309 225.589ZM291.384 229.491L292.718 226.676L291.26 225.984L289.925 228.799L291.384 229.491ZM277.716 225.668L290.398 229.911L290.91 228.38L278.228 224.137L277.716 225.668Z" fill="#2C2C2C"/>
<path fill-rule="evenodd" clip-rule="evenodd" d="M346.166 243.617L315.599 300.715L315.487 300.923L315.679 301.06L328.784 310.473L329.034 310.653L329.179 310.38L361.712 248.867L361.195 248.693L328.847 309.856L316.184 300.761L346.683 243.791L346.166 243.617ZM361.45 248.211L364.891 241.706C364.614 241.694 364.211 241.677 363.702 241.657C362.684 241.616 361.246 241.559 359.562 241.496C356.243 241.373 351.974 241.227 348.105 241.135L346.94 243.31L346.423 243.136L347.708 240.735L347.786 240.59L347.952 240.593C351.868 240.685 356.215 240.833 359.582 240.958C361.266 241.021 362.705 241.078 363.724 241.119C364.233 241.14 364.637 241.156 364.913 241.168L365.23 241.181L365.312 241.185L365.332 241.186L365.337 241.186L365.339 241.186L365.339 241.186C365.339 241.186 365.339 241.186 365.328 241.455L365.339 241.186L365.765 241.204L365.566 241.581L361.967 248.385L361.45 248.211Z" fill="white"/>
<path d="M315.599 300.715L314.887 300.334H314.887L315.599 300.715ZM346.166 243.617L346.424 242.852L345.776 242.633L345.454 243.236L346.166 243.617ZM315.487 300.923L314.776 300.542L314.442 301.166L315.016 301.578L315.487 300.923ZM315.679 301.06L315.208 301.716L315.208 301.716L315.679 301.06ZM328.784 310.473L329.255 309.817H329.255L328.784 310.473ZM329.034 310.653L328.563 311.309L329.315 311.849L329.748 311.03L329.034 310.653ZM329.179 310.38L328.465 310.003H328.465L329.179 310.38ZM361.712 248.867L362.426 249.244L362.869 248.406L361.97 248.102L361.712 248.867ZM361.195 248.693L361.454 247.928L360.803 247.708L360.482 248.315L361.195 248.693ZM328.847 309.856L328.376 310.511L329.128 311.051L329.561 310.233L328.847 309.856ZM316.184 300.761L315.473 300.38L315.139 301.004L315.713 301.417L316.184 300.761ZM346.683 243.791L347.394 244.172L347.844 243.332L346.941 243.027L346.683 243.791ZM361.45 248.211L360.737 247.833L360.293 248.672L361.192 248.975L361.45 248.211ZM364.891 241.706L365.604 242.083L366.202 240.952L364.924 240.899L364.891 241.706ZM363.702 241.657L363.669 242.463L363.702 241.657ZM359.562 241.496L359.592 240.689L359.562 241.496ZM348.105 241.135L348.124 240.328L347.627 240.317L347.393 240.754L348.105 241.135ZM346.94 243.31L346.682 244.075L347.329 244.294L347.652 243.691L346.94 243.31ZM346.423 243.136L345.712 242.755L345.261 243.595L346.165 243.901L346.423 243.136ZM347.708 240.735L348.42 241.116V241.116L347.708 240.735ZM347.786 240.59L347.805 239.782L347.309 239.771L347.075 240.209L347.786 240.59ZM347.952 240.593L347.933 241.4L347.952 240.593ZM359.582 240.958L359.552 241.765L359.582 240.958ZM363.724 241.119L363.756 240.312V240.312L363.724 241.119ZM364.913 241.168L364.947 240.361L364.947 240.361L364.913 241.168ZM365.23 241.181L365.264 240.375L365.264 240.375L365.23 241.181ZM365.312 241.185L365.346 240.378L365.346 240.378L365.312 241.185ZM365.332 241.186L365.367 240.379L365.367 240.379L365.332 241.186ZM365.337 241.186L365.372 240.379L365.372 240.379L365.337 241.186ZM365.339 241.186L365.304 241.992L365.304 241.992L365.339 241.186ZM365.339 241.186L365.375 240.379L365.374 240.379L365.339 241.186ZM365.339 241.186L365.374 240.379L364.567 240.345L364.533 241.151L365.339 241.186ZM365.765 241.204L366.478 241.582L367.076 240.452L365.799 240.398L365.765 241.204ZM365.566 241.581L366.279 241.958V241.958L365.566 241.581ZM361.967 248.385L361.709 249.15L362.359 249.37L362.68 248.762L361.967 248.385ZM316.31 301.096L346.877 243.998L345.454 243.236L314.887 300.334L316.31 301.096ZM316.199 301.304L316.31 301.096L314.887 300.334L314.776 300.542L316.199 301.304ZM316.15 300.405L315.958 300.267L315.016 301.578L315.208 301.716L316.15 300.405ZM329.255 309.817L316.15 300.405L315.208 301.716L328.313 311.129L329.255 309.817ZM329.505 309.997L329.255 309.817L328.313 311.129L328.563 311.309L329.505 309.997ZM328.465 310.003L328.321 310.275L329.748 311.03L329.892 310.758L328.465 310.003ZM360.998 248.49L328.465 310.003L329.892 310.758L362.426 249.244L360.998 248.49ZM361.97 248.102L361.454 247.928L360.937 249.457L361.454 249.632L361.97 248.102ZM329.561 310.233L361.909 249.07L360.482 248.315L328.134 309.478L329.561 310.233ZM315.713 301.417L328.376 310.511L329.318 309.2L316.655 300.105L315.713 301.417ZM345.971 243.41L315.473 300.38L316.896 301.142L347.394 244.172L345.971 243.41ZM346.941 243.027L346.424 242.852L345.907 244.382L346.424 244.556L346.941 243.027ZM362.164 248.588L365.604 242.083L364.177 241.328L360.737 247.833L362.164 248.588ZM364.924 240.899C364.648 240.888 364.244 240.871 363.734 240.85L363.669 242.463C364.178 242.484 364.581 242.501 364.857 242.512L364.924 240.899ZM363.734 240.85C362.716 240.809 361.277 240.752 359.592 240.689L359.532 242.303C361.215 242.365 362.652 242.422 363.669 242.463L363.734 240.85ZM359.592 240.689C356.272 240.566 351.998 240.42 348.124 240.328L348.085 241.942C351.95 242.034 356.215 242.18 359.532 242.303L359.592 240.689ZM347.393 240.754L346.228 242.929L347.652 243.691L348.816 241.516L347.393 240.754ZM346.165 243.901L346.682 244.075L347.198 242.546L346.681 242.371L346.165 243.901ZM347.135 243.517L348.42 241.116L346.997 240.354L345.712 242.755L347.135 243.517ZM348.42 241.116L348.498 240.971L347.075 240.209L346.997 240.354L348.42 241.116ZM347.767 241.397L347.933 241.4L347.971 239.786L347.805 239.782L347.767 241.397ZM347.933 241.4C351.844 241.492 356.187 241.64 359.552 241.765L359.612 240.152C356.244 240.026 351.892 239.878 347.971 239.786L347.933 241.4ZM359.552 241.765C361.235 241.828 362.673 241.885 363.691 241.926L363.756 240.312C362.737 240.271 361.297 240.214 359.612 240.152L359.552 241.765ZM363.691 241.926C364.2 241.946 364.603 241.963 364.88 241.975L364.947 240.361C364.67 240.35 364.266 240.333 363.756 240.312L363.691 241.926ZM364.879 241.975L365.196 241.988L365.264 240.375L364.947 240.361L364.879 241.975ZM365.196 241.988L365.277 241.991L365.346 240.378L365.264 240.375L365.196 241.988ZM365.277 241.991L365.298 241.992L365.367 240.379L365.346 240.378L365.277 241.991ZM365.298 241.992L365.303 241.992L365.372 240.379L365.367 240.379L365.298 241.992ZM365.303 241.992L365.304 241.992L365.373 240.379L365.372 240.379L365.303 241.992ZM365.304 241.992L365.305 241.992L365.374 240.379L365.373 240.379L365.304 241.992ZM365.303 241.992C365.318 241.993 365.227 241.992 365.125 241.964C364.999 241.93 364.873 241.862 364.768 241.756C364.596 241.584 364.557 241.388 364.551 241.362C364.539 241.305 364.535 241.26 364.534 241.246C364.533 241.227 364.532 241.211 364.532 241.204C364.532 241.189 364.532 241.177 364.532 241.174C364.532 241.17 364.532 241.166 364.532 241.164C364.532 241.159 364.532 241.155 364.532 241.158C364.532 241.161 364.532 241.168 364.531 241.185C364.53 241.219 364.527 241.286 364.521 241.42L366.134 241.489C366.14 241.355 366.143 241.287 366.144 241.254C366.145 241.237 366.145 241.227 366.146 241.222C366.146 241.221 366.146 241.215 366.146 241.209C366.146 241.207 366.146 241.203 366.146 241.198C366.146 241.195 366.147 241.183 366.146 241.168C366.146 241.16 366.146 241.145 366.144 241.126C366.143 241.112 366.14 241.067 366.127 241.01C366.121 240.984 366.082 240.788 365.91 240.615C365.805 240.51 365.679 240.442 365.553 240.408C365.451 240.38 365.361 240.379 365.375 240.379L365.303 241.992ZM366.134 241.489L366.146 241.22L364.533 241.151L364.521 241.42L366.134 241.489ZM365.305 241.992L365.73 242.011L365.799 240.398L365.374 240.379L365.305 241.992ZM365.051 240.827L364.852 241.203L366.279 241.958L366.478 241.582L365.051 240.827ZM364.852 241.203L361.253 248.008L362.68 248.762L366.279 241.958L364.852 241.203ZM361.192 248.975L361.709 249.15L362.225 247.62L361.709 247.446L361.192 248.975Z" fill="#2C2C2C"/>
<path d="M210.891 159.975L216.838 168.707" stroke="black" stroke-width="1.61453"/>
<path fill-rule="evenodd" clip-rule="evenodd" d="M401.884 315.788C396.468 324.64 385.281 328.032 375.861 323.679L205.391 244.903C195.77 240.457 184.346 244.099 179.073 253.293L172.016 265.595C166.219 275.702 170.025 288.602 180.379 293.944L394.306 404.318C403.909 409.272 415.71 405.901 421.246 396.62L583.057 125.364C588.631 116.021 585.914 103.95 576.874 97.8958L565.025 89.9594C555.367 83.4911 542.267 86.3624 536.2 96.2773L401.884 315.788Z" fill="#2C2C2C"/>
<path fill-rule="evenodd" clip-rule="evenodd" d="M96.9574 127.606L53.3638 103.726L37.6702 90.0366C37.6702 90.0366 22.3458 90.0363 19.284 97.7949C16.2222 105.553 53.3638 169.689 53.3638 169.689L91.0774 223.588C91.0774 223.588 98.0623 228.21 104.114 223.056C110.166 217.902 134.843 193.347 136.913 190.864C138.982 188.38 136.913 183.696 136.913 183.696" fill="#2C2C2C"/>
<path d="M96.9574 127.606L53.3638 103.726L37.6702 90.0366C37.6702 90.0366 22.3458 90.0363 19.284 97.7949C16.2222 105.553 53.3638 169.689 53.3638 169.689L91.0774 223.588C91.0774 223.588 98.0623 228.21 104.114 223.056C110.166 217.902 134.843 193.347 136.913 190.864C138.982 188.38 136.913 183.696 136.913 183.696" stroke="#2C2C2C" stroke-width="1.61453"/>
<path fill-rule="evenodd" clip-rule="evenodd" d="M23.4811 92.9577L26.3249 98.116C44.7071 131.375 58.925 155.349 68.9787 170.036L69.2981 170.502C79.8992 185.917 93.1085 201.468 108.926 217.155L108.926 218.652L107.391 220.093C106.134 221.265 105.074 222.228 104.289 222.905L104.113 223.056C100.161 226.422 95.9104 226.661 91.3614 223.773L91.0766 223.588L53.3635 169.689L51.1712 165.892C27.9331 125.511 17.304 102.812 19.284 97.7951C20.0727 95.7965 21.4717 94.184 23.4811 92.9577Z" fill="white" stroke="#2C2C2C" stroke-width="1.61453"/>
<path fill-rule="evenodd" clip-rule="evenodd" d="M120.499 143.94C113.817 143.94 95.2656 127.734 95.2656 127.734C95.2656 127.734 103.662 150.762 110.857 163.053C118.053 175.344 129.323 185.907 129.323 185.907L165.228 169.833L150.699 135.803C150.699 135.803 127.18 143.94 120.499 143.94Z" fill="white" stroke="#2C2C2C" stroke-width="1.61453"/>
<path fill-rule="evenodd" clip-rule="evenodd" d="M89.9962 404.577L69.3814 426.493L52.6655 434.68L137.98 424.268L139.828 405.675L89.9962 404.577Z" fill="white" stroke="#2C2C2C" stroke-width="1.61453"/>
<path fill-rule="evenodd" clip-rule="evenodd" d="M319.239 102.341C319.239 102.341 314.702 106.924 316.215 110.443C317.727 113.961 349.338 116.731 350.248 110.443C350.614 107.908 347.731 105.222 346.764 105.222C345.237 105.222 319.239 102.341 319.239 102.341Z" fill="white" stroke="#2C2C2C" stroke-width="1.61453"/>
<path fill-rule="evenodd" clip-rule="evenodd" d="M318.736 111.498C318.736 111.498 317.474 113.888 317.453 115.036C317.39 118.53 318.787 121.125 319.431 122.239C320.715 124.457 332.298 122.239 332.298 122.239C332.298 122.239 337.901 119.921 337.901 117.643C337.901 115.366 335.827 114.177 335.827 114.177C335.827 114.177 330.041 113.891 327.009 113.415C323.977 112.94 318.736 111.498 318.736 111.498Z" fill="white" stroke="#2C2C2C" stroke-width="1.61453"/>
<path fill-rule="evenodd" clip-rule="evenodd" d="M330.905 115.967C330.905 115.967 332.067 117.767 332.067 118.763C332.067 119.758 332.856 119.936 334.541 118.763C336.225 117.589 336.787 116.947 335.801 115.967C334.815 114.988 333.261 115.381 333.261 115.381L330.905 115.967Z" stroke="#2C2C2C" stroke-width="1.61453"/>
<path fill-rule="evenodd" clip-rule="evenodd" d="M342.207 106.65V111.498C342.207 111.498 346.215 111.288 347.05 110.609C347.885 109.931 347.642 108.001 347.05 107.326C346.458 106.65 342.207 106.65 342.207 106.65Z" stroke="#2C2C2C" stroke-width="1.61453"/>
<path fill-rule="evenodd" clip-rule="evenodd" d="M344.898 89.416C344.898 89.416 346.439 94.2162 347.559 98.355C347.59 98.467 347.526 99.4422 347.559 99.5554C347.745 100.195 350.267 101.602 351.76 101.189C353.155 100.803 353.492 98.6628 354.558 97.4103C355.784 95.9684 357.126 93.1202 358.824 90.4388C359.582 89.2414 351.76 78.6409 351.76 78.6409" fill="white"/>
<path d="M344.898 89.416C344.898 89.416 346.439 94.2162 347.559 98.355C347.59 98.467 347.526 99.4422 347.559 99.5554C347.745 100.195 350.267 101.602 351.76 101.189C353.155 100.803 353.492 98.6628 354.558 97.4103C355.784 95.9684 357.126 93.1202 358.824 90.4388C359.582 89.2414 351.76 78.6409 351.76 78.6409" stroke="#2C2C2C" stroke-width="1.61453"/>
<path fill-rule="evenodd" clip-rule="evenodd" d="M356.739 93.8114C356.739 93.8114 355.471 93.1187 354.998 92.7357C353.343 91.3978 352.633 90.4909 352.633 90.4909C352.633 90.4909 350.844 94.667 351.502 95.8995C352.16 97.1319 353.026 98.0318 353.977 98.0318" fill="white"/>
<path d="M356.739 93.8114C356.739 93.8114 355.471 93.1187 354.998 92.7357C353.343 91.3978 352.633 90.4909 352.633 90.4909C352.633 90.4909 350.844 94.667 351.502 95.8995C352.16 97.1319 353.026 98.0318 353.977 98.0318" stroke="#2C2C2C" stroke-width="1.61453"/>
<path fill-rule="evenodd" clip-rule="evenodd" d="M329.291 128.734L325.15 187.445L357.324 193.212L351.356 128.782L329.291 128.734Z" fill="white" stroke="#2C2C2C" stroke-width="1.61453"/>
<path fill-rule="evenodd" clip-rule="evenodd" d="M203.895 200.014L512.308 303.373C516.547 304.794 521.135 302.508 522.555 298.269C523.999 293.956 521.607 289.3 517.259 287.962L209.743 193.371L203.895 200.014Z" fill="white" stroke="#2C2C2C" stroke-width="1.61453"/>
<path fill-rule="evenodd" clip-rule="evenodd" d="M467.065 131.427C467.065 131.427 442.767 141.138 431.171 147.527C427.198 149.715 421.132 153.485 412.972 158.835C405.252 163.898 384.189 178.268 384.189 178.268L359.085 194.044L422.435 198.983L467.065 148.933V131.427Z" fill="white" stroke="#2C2C2C" stroke-width="1.61453"/>
<path fill-rule="evenodd" clip-rule="evenodd" d="M461.072 134.532C466.777 130.706 465.484 128.808 477.909 128.808C490.335 128.808 498.06 129.099 503.235 140.527C508.41 151.956 502.389 170.922 479.972 188.175C457.555 205.427 398.285 233.58 398.285 233.58C398.285 233.58 379.31 239.499 359.593 235.392C339.876 231.285 248.795 204.623 248.795 204.623L257.729 172.69C257.729 172.69 356.853 194.58 363.724 194.58C370.595 194.58 387.881 192.391 402.559 179.332C417.237 166.274 455.366 138.357 461.072 134.532Z" fill="white" stroke="black" stroke-width="1.61453"/>
<path d="M500.971 121.193L504.738 140.584" stroke="#2C2C2C" stroke-width="1.61453"/>
<path fill-rule="evenodd" clip-rule="evenodd" d="M473.038 72.0987C473.038 72.0987 475.222 66.8891 479.348 64.7316C483.474 62.574 485.229 63.897 485.99 64.7316C487.646 66.734 487.106 70.578 485.229 72.62C483.281 74.7396 478.324 77.9032 475.475 76.7968C472.626 75.6905 473.038 72.0987 473.038 72.0987Z" fill="#2C2C2C" stroke="#2C2C2C" stroke-width="1.61453"/>
<path fill-rule="evenodd" clip-rule="evenodd" d="M466.808 67.6291C466.273 65.8359 466.858 64.0127 469.183 61.7557C471.509 59.4987 473.703 58.6032 475.593 59.5072C476.433 59.9088 476.602 60.0369 476.928 60.3864C477.334 60.8236 478.062 62.4573 477.491 63.5941C476.464 65.6396 473.863 69.7434 471.35 70.0078C468.838 70.2721 467.343 69.4222 466.808 67.6291Z" fill="#2C2C2C" stroke="#2C2C2C" stroke-width="1.61453"/>
<path fill-rule="evenodd" clip-rule="evenodd" d="M485.084 67.6163L509.301 90.7777L485.084 67.6163Z" fill="black"/>
<path d="M485.084 67.6163L509.301 90.7777" stroke="#2C2C2C" stroke-width="1.61453"/>
<path fill-rule="evenodd" clip-rule="evenodd" d="M342.208 76.8614L352.167 75.1562C352.167 75.1562 358.544 74.4916 359.585 75.8725C360.069 76.5149 359.081 82.0457 359.585 82.5947" fill="white"/>
<path d="M342.208 76.8614L352.167 75.1562C352.167 75.1562 358.544 74.4916 359.585 75.8725C360.069 76.5149 359.081 82.0457 359.585 82.5947" stroke="#2C2C2C" stroke-width="1.61453"/>
<path fill-rule="evenodd" clip-rule="evenodd" d="M323.98 90.2631C327.088 92.6548 343.172 91.4477 352.793 91.4159L353.666 91.4164C363.153 91.4633 363.332 89.0008 363.664 85.9996C363.995 82.9985 362.456 82.5535 358.048 81.0863C353.64 79.619 336.857 77.8024 326.884 77.91C326.146 77.918 325.128 78.4723 323.83 79.5731L323.673 79.7078C320.83 82.1721 320.521 86.4764 322.983 89.3219C323.283 89.6684 323.617 89.9837 323.98 90.2631Z" fill="white" stroke="#2C2C2C" stroke-width="1.61453"/>
<path d="M354.703 82.8901L353.968 87.8127C357.26 88.5543 359.176 88.593 359.715 87.9288C360.525 86.9325 361.596 85.1524 361.316 84.2358C361.13 83.6247 358.871 82.9982 354.54 82.3563" stroke="#2C2C2C" stroke-width="1.61453"/>
<path fill-rule="evenodd" clip-rule="evenodd" d="M52.3084 434.922C52.3084 434.922 26.475 449.259 15.1917 456.453C3.90828 463.647 1 470.092 1 476.179C1 482.267 8.53735 487.466 8.53735 487.466L139.624 482.072C139.624 482.072 144.393 481.793 145.833 481.085C148.651 479.701 150.183 476.43 149.278 468.195C147.22 449.472 141.523 423.907 141.523 423.907L136.147 424.545L52.3084 434.922Z" fill="#2C2C2C" stroke="#2C2C2C" stroke-width="1.61453"/>
<path fill-rule="evenodd" clip-rule="evenodd" d="M149.266 468.074L1.00846 475.601C1.00277 475.789 1 475.977 1 476.165C1 482.252 8.53735 487.451 8.53735 487.451L139.624 482.057C139.624 482.057 144.393 481.778 145.833 481.071C148.651 479.686 150.183 476.415 149.278 468.181C149.274 468.145 149.27 468.11 149.266 468.074Z" fill="white"/>
<path d="M1.00846 475.601L0.967642 474.797L0.226241 474.834L0.203825 475.576L1.00846 475.601ZM149.266 468.074L150.067 467.986L149.983 467.232L149.226 467.27L149.266 468.074ZM8.53735 487.451L8.08028 488.114L8.30169 488.266L8.57044 488.255L8.53735 487.451ZM139.624 482.057L139.657 482.862L139.671 482.861L139.624 482.057ZM145.833 481.071L145.478 480.348L145.478 480.348L145.833 481.071ZM149.278 468.181L148.478 468.269V468.269L149.278 468.181ZM1.04927 476.405L149.307 468.878L149.226 467.27L0.967642 474.797L1.04927 476.405ZM0.203825 475.576C0.197882 475.773 0.195 475.969 0.195 476.165H1.805C1.805 475.985 1.80765 475.805 1.81309 475.625L0.203825 475.576ZM0.195 476.165C0.195 479.521 2.25581 482.536 4.17461 484.634C5.14869 485.699 6.12025 486.565 6.84758 487.165C7.21186 487.465 7.51644 487.7 7.73153 487.861C7.83912 487.941 7.92443 488.003 7.98377 488.046C8.01344 488.067 8.03662 488.083 8.05286 488.095C8.06098 488.1 8.06736 488.105 8.07195 488.108C8.07424 488.11 8.07609 488.111 8.07748 488.112C8.07817 488.112 8.07875 488.113 8.07922 488.113C8.07945 488.113 8.07972 488.113 8.07983 488.113C8.08007 488.114 8.08028 488.114 8.53735 487.451C8.99442 486.788 8.99457 486.789 8.99469 486.789C8.99469 486.789 8.99478 486.789 8.99479 486.789C8.9948 486.789 8.99469 486.789 8.99447 486.788C8.99404 486.788 8.99315 486.788 8.99182 486.787C8.98917 486.785 8.98474 486.782 8.9786 486.777C8.96631 486.769 8.94717 486.755 8.92164 486.737C8.87056 486.7 8.79394 486.645 8.69542 486.571C8.49832 486.424 8.21404 486.205 7.87169 485.922C7.18578 485.357 6.273 484.543 5.36274 483.547C3.51286 481.524 1.805 478.896 1.805 476.165H0.195ZM8.57044 488.255L139.657 482.861L139.591 481.253L8.50425 486.647L8.57044 488.255ZM139.624 482.057C139.671 482.861 139.671 482.861 139.671 482.861C139.671 482.861 139.672 482.861 139.672 482.861C139.672 482.861 139.672 482.861 139.673 482.861C139.673 482.861 139.674 482.861 139.676 482.861C139.678 482.86 139.682 482.86 139.687 482.86C139.696 482.859 139.71 482.858 139.729 482.857C139.765 482.855 139.818 482.852 139.886 482.847C140.022 482.838 140.217 482.824 140.455 482.805C140.931 482.767 141.582 482.709 142.281 482.629C142.977 482.549 143.731 482.445 144.408 482.314C145.065 482.187 145.724 482.021 146.188 481.793L145.478 480.348C145.222 480.474 144.745 480.609 144.102 480.733C143.481 480.853 142.772 480.952 142.096 481.03C141.422 481.107 140.791 481.163 140.328 481.2C140.097 481.218 139.908 481.232 139.778 481.241C139.712 481.245 139.662 481.248 139.628 481.25C139.611 481.252 139.598 481.252 139.589 481.253C139.585 481.253 139.582 481.253 139.58 481.253C139.579 481.253 139.578 481.253 139.578 481.254C139.577 481.254 139.577 481.254 139.577 481.254C139.577 481.254 139.577 481.254 139.577 481.254C139.577 481.254 139.577 481.254 139.624 482.057ZM146.188 481.793C147.808 480.998 149.038 479.651 149.721 477.431C150.391 475.257 150.536 472.253 150.078 468.093L148.478 468.269C148.926 472.343 148.757 475.092 148.183 476.958C147.622 478.778 146.677 479.759 145.478 480.348L146.188 481.793ZM150.078 468.093C150.074 468.057 150.071 468.021 150.067 467.986L148.466 468.162C148.47 468.198 148.474 468.233 148.478 468.269L150.078 468.093Z" fill="black"/>
<path fill-rule="evenodd" clip-rule="evenodd" d="M333.267 92.9144C333.267 92.9144 324.145 90.5536 322.298 91.6092C316.115 95.1433 318.304 102.642 319.917 102.586C323.061 102.476 342.893 104.635 347.246 104.483C349.498 104.404 351.303 101.833 350.256 99.0506C349.954 98.2479 347.705 96.5628 347.705 96.5628L333.267 92.9144Z" fill="white" stroke="#2C2C2C" stroke-width="1.61453"/>
<path fill-rule="evenodd" clip-rule="evenodd" d="M343.409 98.1492L342.548 102.434C342.548 102.434 346.817 103.801 347.629 103.264C348.441 102.726 348.495 100.756 348.351 100.143C348.207 99.5304 343.409 98.1492 343.409 98.1492Z" stroke="#2C2C2C" stroke-width="1.61453"/>
<path fill-rule="evenodd" clip-rule="evenodd" d="M325.15 186.963C325.15 186.963 291.687 162.016 277.766 151.233C255.781 134.206 230.773 116.407 225.053 115.047C204.053 112.045 109.052 130.553 109.052 130.553L146.052 184.075L205.831 162.716C207.774 162.023 209.942 162.592 211.293 164.151L215.553 169.069L257.291 173.863L325.15 186.963Z" fill="white" stroke="#2C2C2C" stroke-width="1.61453"/>
</svg>
