<svg width="286" height="484" viewBox="0 0 286 484" fill="none" xmlns="http://www.w3.org/2000/svg">
<path fill-rule="evenodd" clip-rule="evenodd" d="M12 225.722C12 225.722 35.7567 273.985 77.1936 280.684C118.631 287.383 176.01 280.684 176.01 280.684L149.858 403.254L176.01 410.542L228.815 284C228.815 284 236 263.029 230.5 252.531C226.184 244.293 224 242.869 220.829 239.791C213.536 232.713 201.302 227.001 201.302 227.001L81.3981 193.039L12 225.722Z" fill="#2C2C2C" stroke="#2C2C2C" stroke-width="1.61453" stroke-linecap="round" stroke-linejoin="round"/>
<path fill-rule="evenodd" clip-rule="evenodd" d="M76.7916 3.82497C76.7916 3.82497 65.8513 -0.419131 58.3049 4.03703C57.3077 4.62586 54.9092 5.54365 53.2897 6.59025C50.8573 8.16219 49.0723 10.0819 47.5635 12.0714C42.4747 18.7818 41.3033 26.9202 41.9472 29.238C42.9093 32.7006 93.8112 42.1198 93.8112 42.1198C93.8112 42.1198 98.2464 27.0002 94.0702 18.0311C89.894 9.06192 76.7916 3.82497 76.7916 3.82497Z" fill="#D8D8D8" stroke="#2C2C2C" stroke-width="1.61453" stroke-linecap="round" stroke-linejoin="round"/>
<path fill-rule="evenodd" clip-rule="evenodd" d="M92.1829 41.8305L90.1244 42.0541L83.6765 45.67C81.3418 45.8347 79.0289 48.8179 77.5142 47.9454L77.1959 47.7505C75.3427 46.5459 77.7111 41.962 76.9105 38.8929C81.5391 39.8171 86.631 40.7963 92.1829 41.8305Z" fill="#2C2C2C" stroke="#2C2C2C" stroke-width="1.61453" stroke-linecap="round" stroke-linejoin="round"/>
<path fill-rule="evenodd" clip-rule="evenodd" d="M50.1048 121.471C55.4388 132.877 136.395 177.915 136.395 177.915C136.395 177.915 149.755 166.605 144.521 160.475C139.286 154.345 64.2433 99.9989 64.2433 99.9989C64.2433 99.9989 44.7708 110.064 50.1048 121.471Z" fill="white" stroke="#2C2C2C" stroke-width="1.61453" stroke-linecap="round" stroke-linejoin="round"/>
<path fill-rule="evenodd" clip-rule="evenodd" d="M95.8612 369.717C93.3083 375.286 91.949 379.648 91.7833 382.804L91.4012 389.602C91.4012 389.602 65.4962 402.295 61.4374 395.979C57.3786 389.664 74.1243 362.718 74.1243 362.718L78.0073 359.148L95.8612 369.717Z" fill="white" stroke="#2C2C2C" stroke-width="1.61453" stroke-linecap="round" stroke-linejoin="round"/>
<path fill-rule="evenodd" clip-rule="evenodd" d="M73.8627 363.154C73.8627 363.154 46.0762 375.958 43.259 385.503C40.4418 395.049 98.7679 450.36 107.038 452.947C115.309 455.533 129.875 462.532 118.064 446.204C106.254 429.877 94.2801 398.133 93.6055 394.328C92.9308 390.522 88.6631 380.82 88.6631 380.82L73.8627 363.154Z" fill="white" stroke="#2C2C2C" stroke-width="1.61453" stroke-linecap="round" stroke-linejoin="round"/>
<path fill-rule="evenodd" clip-rule="evenodd" d="M43.0965 385.16L43.3086 385.349L43.2591 385.503C40.4419 395.048 98.768 450.36 107.038 452.946L108.016 453.262C113.694 455.143 121.516 458.448 122.419 455.482C122.419 455.482 123.068 457.903 122.901 458.802C122.736 459.69 121.73 462.116 119.412 463.147C116.71 464.349 112.558 464.051 111.008 463.295L110.738 463.147C110.738 463.147 102.35 460.762 97.6007 457.906C92.8518 455.05 84.8863 447.599 84.8863 447.599L67.1167 431.304C49.0279 414.765 39.1372 405.914 37.4446 404.751L37.328 404.675C34.8388 403.178 30.8198 394.125 34.3018 388.325C36.6231 384.458 39.5547 383.402 43.0965 385.16Z" fill="white" stroke="#2C2C2C" stroke-width="1.61453" stroke-linecap="round" stroke-linejoin="round"/>
<path fill-rule="evenodd" clip-rule="evenodd" d="M188.19 196.115C188.19 196.115 220.1 145.809 220.1 145.809L272.271 161.534L231.226 221.849C231.226 221.849 188.19 196.115 188.19 196.115Z" fill="white" stroke="#2C2C2C" stroke-width="1.61453" stroke-linecap="round" stroke-linejoin="round"/>
<path fill-rule="evenodd" clip-rule="evenodd" d="M188.64 196.104L232.183 223.731L146.746 223.526L120.1 193.893L188.64 196.104Z" fill="white" stroke="#2C2C2C" stroke-width="1.61453" stroke-linecap="round" stroke-linejoin="round"/>
<path fill-rule="evenodd" clip-rule="evenodd" d="M146.746 223.526L120.1 193.893L180.287 192.545" fill="white"/>
<path d="M146.746 223.526L120.1 193.893L180.287 192.545" stroke="#2C2C2C" stroke-width="1.61453" stroke-linecap="round" stroke-linejoin="round"/>
<path fill-rule="evenodd" clip-rule="evenodd" d="M152.602 219.613L176.141 219.613L154.018 198.48L131.895 198.48L152.602 219.613Z" fill="white" stroke="#2C2C2C" stroke-width="1.61453" stroke-linecap="round" stroke-linejoin="round"/>
<path fill-rule="evenodd" clip-rule="evenodd" d="M180.546 217.823L185.24 217.79L180.624 213.719L176.446 213.749L180.546 217.823Z" stroke="#2C2C2C" stroke-width="1.61453" stroke-linecap="round" stroke-linejoin="round"/>
<path fill-rule="evenodd" clip-rule="evenodd" d="M173.61 211.085L178.304 211.053L173.687 206.982L169.51 207.011L173.61 211.085Z" stroke="#2C2C2C" stroke-width="1.61453" stroke-linecap="round" stroke-linejoin="round"/>
<path fill-rule="evenodd" clip-rule="evenodd" d="M164.542 203.521L169.236 203.489L164.619 199.418L160.441 199.447L164.542 203.521Z" stroke="#2C2C2C" stroke-width="1.61453" stroke-linecap="round" stroke-linejoin="round"/>
<path fill-rule="evenodd" clip-rule="evenodd" d="M189.614 217.824L194.308 217.791L189.691 213.72L185.514 213.749L189.614 217.824Z" stroke="#2C2C2C" stroke-width="1.61453" stroke-linecap="round" stroke-linejoin="round"/>
<path fill-rule="evenodd" clip-rule="evenodd" d="M182.676 211.085L187.37 211.053L182.754 206.982L178.576 207.011L182.676 211.085Z" stroke="#2C2C2C" stroke-width="1.61453" stroke-linecap="round" stroke-linejoin="round"/>
<path fill-rule="evenodd" clip-rule="evenodd" d="M173.61 203.521L178.304 203.489L173.687 199.418L169.51 199.447L173.61 203.521Z" stroke="#2C2C2C" stroke-width="1.61453" stroke-linecap="round" stroke-linejoin="round"/>
<path fill-rule="evenodd" clip-rule="evenodd" d="M198.681 217.824L203.375 217.791L198.759 213.72L194.581 213.749L198.681 217.824Z" stroke="#2C2C2C" stroke-width="1.61453" stroke-linecap="round" stroke-linejoin="round"/>
<path fill-rule="evenodd" clip-rule="evenodd" d="M191.745 211.085L196.439 211.052L191.822 206.981L187.645 207.01L191.745 211.085Z" stroke="#2C2C2C" stroke-width="1.61453" stroke-linecap="round" stroke-linejoin="round"/>
<path fill-rule="evenodd" clip-rule="evenodd" d="M182.676 203.521L187.37 203.489L182.754 199.418L178.576 199.447L182.676 203.521Z" stroke="#2C2C2C" stroke-width="1.61453" stroke-linecap="round" stroke-linejoin="round"/>
<path fill-rule="evenodd" clip-rule="evenodd" d="M207.749 217.824L212.443 217.791L207.826 213.72L203.648 213.749L207.749 217.824Z" stroke="#2C2C2C" stroke-width="1.61453" stroke-linecap="round" stroke-linejoin="round"/>
<path fill-rule="evenodd" clip-rule="evenodd" d="M200.811 211.085L205.505 211.053L200.889 206.982L196.711 207.011L200.811 211.085Z" stroke="#2C2C2C" stroke-width="1.61453" stroke-linecap="round" stroke-linejoin="round"/>
<path fill-rule="evenodd" clip-rule="evenodd" d="M191.745 203.521L196.439 203.489L191.822 199.418L187.645 199.447L191.745 203.521Z" stroke="#2C2C2C" stroke-width="1.61453" stroke-linecap="round" stroke-linejoin="round"/>
<path fill-rule="evenodd" clip-rule="evenodd" d="M180.521 169.494C180.536 169.512 180.55 169.53 180.565 169.548L180.636 169.635L180.747 169.646C181.312 169.701 181.781 169.674 182.101 169.511C182.27 169.424 182.405 169.296 182.479 169.118C182.551 168.945 182.552 168.755 182.512 168.566C182.476 168.397 182.357 168.185 182.215 167.969C182.066 167.742 181.866 167.474 181.632 167.18C181.163 166.593 180.546 165.891 179.901 165.193C178.619 163.805 177.195 162.403 176.582 161.951C176.241 161.701 175.65 161.492 174.963 161.316C174.265 161.137 173.427 160.983 172.562 160.857C170.833 160.605 168.971 160.462 167.848 160.468C166.349 160.476 163.396 160.914 162.194 161.114L161.879 161.166L161.979 161.455L163.128 161.203L164.051 161.376C165.357 161.194 166.911 161.012 167.85 161.007C168.939 161.001 170.774 161.14 172.484 161.389C173.338 161.514 174.156 161.665 174.829 161.838C175.515 162.013 176.014 162.202 176.263 162.385C176.828 162.801 178.219 164.166 179.506 165.559C180.146 166.252 180.753 166.943 181.211 167.517C181.44 167.804 181.629 168.058 181.766 168.265C181.909 168.484 181.973 168.619 181.986 168.679C182.011 168.797 182 168.868 181.982 168.911C181.966 168.95 181.933 168.992 181.856 169.032C181.695 169.114 181.394 169.158 180.91 169.12C179.339 167.209 177.926 166.122 176.793 165.469C176.683 165.406 176.576 165.347 176.471 165.291C177.875 166.202 179.225 167.603 180.521 169.494Z" fill="white"/>
<path d="M180.565 169.548L181.191 169.037L181.191 169.037L180.565 169.548ZM180.521 169.494L179.855 169.951C179.868 169.97 179.882 169.989 179.897 170.006L180.521 169.494ZM180.636 169.635L180.01 170.145C180.145 170.312 180.342 170.417 180.556 170.438L180.636 169.635ZM180.747 169.646L180.827 168.842L180.827 168.842L180.747 169.646ZM182.101 169.511L182.467 170.23L182.467 170.23L182.101 169.511ZM182.479 169.118L181.734 168.808L181.734 168.808L182.479 169.118ZM182.512 168.566L183.301 168.397L182.512 168.566ZM182.215 167.969L182.89 167.525L182.89 167.525L182.215 167.969ZM181.632 167.18L182.262 166.676L182.262 166.676L181.632 167.18ZM179.901 165.193L179.309 165.742L179.901 165.193ZM176.582 161.951L176.103 162.602L176.103 162.602L176.582 161.951ZM174.963 161.316L174.762 162.099L174.963 161.316ZM172.562 160.857L172.679 160.058L172.562 160.857ZM167.848 160.468L167.845 159.661L167.845 159.661L167.848 160.468ZM162.194 161.114L162.062 160.317L162.062 160.317L162.194 161.114ZM161.879 161.166L161.748 160.369C161.514 160.408 161.308 160.548 161.187 160.752C161.065 160.957 161.039 161.204 161.116 161.429L161.879 161.166ZM161.979 161.455L161.216 161.718C161.349 162.105 161.751 162.331 162.151 162.243L161.979 161.455ZM163.128 161.203L163.278 160.409C163.172 160.389 163.062 160.391 162.956 160.414L163.128 161.203ZM164.051 161.376L163.901 162.17C163.987 162.186 164.075 162.188 164.162 162.176L164.051 161.376ZM167.85 161.007L167.847 160.199L167.85 161.007ZM172.484 161.389L172.367 162.189L172.484 161.389ZM174.829 161.838L175.03 161.055L175.03 161.055L174.829 161.838ZM176.263 162.385L176.741 161.734L176.263 162.385ZM179.506 165.559L180.099 165.01L179.506 165.559ZM181.211 167.517L181.842 167.012L181.842 167.012L181.211 167.517ZM181.766 168.265L182.44 167.821L182.44 167.821L181.766 168.265ZM181.986 168.679L181.197 168.849L181.197 168.849L181.986 168.679ZM181.982 168.911L182.727 169.222L182.727 169.222L181.982 168.911ZM181.856 169.032L181.489 168.313L181.489 168.313L181.856 169.032ZM180.91 169.12L180.287 169.633C180.426 169.802 180.628 169.908 180.846 169.925L180.91 169.12ZM176.793 165.469L176.39 166.169L176.39 166.169L176.793 165.469ZM176.471 165.291L176.849 164.577C176.467 164.375 175.994 164.51 175.775 164.882C175.556 165.255 175.669 165.734 176.031 165.969L176.471 165.291ZM181.191 169.037C181.176 169.019 181.16 169 181.145 168.982L179.897 170.006C179.911 170.024 179.925 170.041 179.939 170.058L181.191 169.037ZM181.261 169.124L181.191 169.037L179.939 170.058L180.01 170.145L181.261 169.124ZM180.827 168.842L180.715 168.831L180.556 170.438L180.667 170.449L180.827 168.842ZM181.734 168.792C181.634 168.843 181.367 168.895 180.827 168.842L180.667 170.449C181.258 170.507 181.928 170.506 182.467 170.23L181.734 168.792ZM181.734 168.808C181.736 168.803 181.739 168.798 181.742 168.793C181.745 168.788 181.748 168.784 181.75 168.782C181.754 168.778 181.751 168.783 181.734 168.792L182.467 170.23C182.774 170.073 183.063 169.814 183.223 169.429L181.734 168.808ZM181.723 168.736C181.731 168.776 181.732 168.8 181.731 168.811C181.731 168.821 181.73 168.818 181.734 168.808L183.223 169.429C183.377 169.06 183.364 168.693 183.301 168.397L181.723 168.736ZM181.541 168.413C181.604 168.509 181.652 168.589 181.685 168.655C181.722 168.726 181.726 168.749 181.723 168.736L183.301 168.397C183.23 168.063 183.03 167.738 182.89 167.525L181.541 168.413ZM181.001 167.685C181.227 167.969 181.411 168.215 181.541 168.413L182.89 167.525C182.721 167.269 182.504 166.979 182.262 166.676L181.001 167.685ZM179.309 165.742C179.946 166.432 180.549 167.118 181.001 167.685L182.262 166.676C181.776 166.068 181.146 165.35 180.494 164.645L179.309 165.742ZM176.103 162.602C176.645 163.001 178.02 164.347 179.309 165.742L180.494 164.645C179.217 163.263 177.744 161.804 177.06 161.301L176.103 162.602ZM174.762 162.099C175.448 162.274 175.9 162.453 176.103 162.602L177.06 161.301C176.581 160.948 175.851 160.71 175.164 160.534L174.762 162.099ZM172.445 161.656C173.294 161.78 174.101 161.929 174.762 162.099L175.164 160.534C174.428 160.345 173.56 160.186 172.679 160.058L172.445 161.656ZM167.852 161.276C168.923 161.27 170.744 161.408 172.445 161.656L172.679 160.058C170.923 159.801 169.018 159.654 167.845 159.661L167.852 161.276ZM162.325 161.91C163.539 161.709 166.428 161.283 167.852 161.276L167.845 159.661C166.27 159.669 163.253 160.119 162.062 160.317L162.325 161.91ZM162.011 161.962L162.325 161.91L162.062 160.317L161.748 160.369L162.011 161.962ZM162.742 161.191L162.643 160.902L161.116 161.429L161.216 161.718L162.742 161.191ZM162.151 162.243L163.3 161.992L162.956 160.414L161.807 160.666L162.151 162.243ZM162.978 161.996L163.901 162.17L164.201 160.583L163.278 160.409L162.978 161.996ZM167.847 160.199C166.846 160.204 165.242 160.395 163.94 160.577L164.162 162.176C165.473 161.993 166.976 161.819 167.854 161.814L167.847 160.199ZM172.601 160.59C170.863 160.337 168.987 160.193 167.847 160.199L167.854 161.814C168.891 161.809 170.684 161.943 172.367 162.189L172.601 160.59ZM175.03 161.055C174.319 160.873 173.471 160.717 172.601 160.59L172.367 162.189C173.205 162.311 173.992 162.457 174.629 162.62L175.03 161.055ZM176.741 161.734C176.354 161.45 175.716 161.231 175.03 161.055L174.629 162.62C175.314 162.796 175.674 162.955 175.784 163.036L176.741 161.734ZM180.099 165.01C178.818 163.625 177.378 162.203 176.741 161.734L175.784 163.036C176.278 163.4 177.62 164.708 178.914 166.108L180.099 165.01ZM181.842 167.012C181.367 166.418 180.746 165.711 180.099 165.01L178.914 166.108C179.547 166.793 180.139 167.469 180.58 168.021L181.842 167.012ZM182.44 167.821C182.284 167.584 182.078 167.309 181.842 167.012L180.58 168.021C180.802 168.299 180.974 168.531 181.091 168.71L182.44 167.821ZM182.775 168.51C182.745 168.371 182.685 168.244 182.642 168.161C182.59 168.061 182.523 167.947 182.44 167.821L181.091 168.71C181.152 168.802 181.189 168.866 181.208 168.903C181.217 168.922 181.22 168.929 181.219 168.926C181.218 168.924 181.216 168.918 181.212 168.907C181.209 168.896 181.203 168.876 181.197 168.849L182.775 168.51ZM182.727 169.222C182.826 168.984 182.823 168.736 182.775 168.51L181.197 168.849C181.199 168.858 181.174 168.753 181.238 168.601L182.727 169.222ZM182.223 169.751C182.44 169.64 182.625 169.467 182.727 169.222L181.238 168.601C181.267 168.53 181.31 168.463 181.366 168.406C181.418 168.353 181.466 168.324 181.489 168.313L182.223 169.751ZM180.846 169.925C181.36 169.965 181.853 169.94 182.223 169.751L181.489 168.313C181.529 168.292 181.521 168.307 181.42 168.318C181.327 168.327 181.182 168.331 180.974 168.314L180.846 169.925ZM176.39 166.169C177.434 166.771 178.773 167.792 180.287 169.633L181.533 168.606C179.905 166.625 178.419 165.474 177.196 164.769L176.39 166.169ZM176.092 166.005C176.189 166.056 176.289 166.111 176.39 166.169L177.196 164.769C177.078 164.701 176.962 164.637 176.849 164.577L176.092 166.005ZM176.031 165.969C177.32 166.805 178.599 168.118 179.855 169.951L181.187 169.037C179.852 167.089 178.43 165.6 176.91 164.613L176.031 165.969Z" fill="#2C2C2C"/>
<path fill-rule="evenodd" clip-rule="evenodd" d="M183.307 174.488L183.555 174.938L183.83 175.451C184.641 176.996 184.91 177.799 184.637 177.859C184.148 177.966 183.384 178.842 182.127 177.47L181.393 176.648C179.9 174.947 177.475 172.033 177.133 171.11L177.104 171.018C176.884 170.11 175.351 169.637 174.217 168.806L174.058 168.684C172.915 167.776 167.714 165.938 166.718 166.156L165.729 166.372L169.788 168.452L170.514 168.93C172.25 170.093 173.4 171.018 173.964 171.705L175.892 174.064C178.104 176.79 179.466 178.557 179.565 178.969C179.808 179.974 179.136 180.85 178.029 180.728C176.923 180.606 173.006 176.209 171.983 174.755C170.96 173.3 167.252 171.34 165.921 170.465C165.034 169.881 163.288 169.346 160.683 168.86L166.299 174.32C168.294 176.261 169.489 177.914 169.885 179.278L169.934 179.462C170.442 181.56 171.784 182.952 170.829 183.161C169.904 183.363 168.74 183.153 167.461 180.935L167.333 180.706C166.447 179.085 165.237 177.705 163.705 176.566L161.509 175.69C160.031 175.094 158.792 174.582 157.794 174.152C156.509 173.6 163.55 180.471 163.058 180.194C163.058 180.194 162.842 182.133 161.789 182.27C161.112 182.358 157.685 180.339 157.685 180.339C156.727 179.771 153.524 175.938 151.505 173.097C151.505 173.097 145.359 171.165 144.177 170.465C143.985 170.351 143.353 168.55 143.297 168.452C141.65 165.538 144.177 162.934 144.177 162.934L158.419 162.23L163.127 161.2L164.216 161.406C169.215 162.375 173.009 163.504 175.599 164.793C178.374 166.174 180.943 169.406 183.307 174.488Z" fill="white" stroke="#2C2C2C" stroke-width="1.61453" stroke-linecap="round" stroke-linejoin="round"/>
<path fill-rule="evenodd" clip-rule="evenodd" d="M187.334 190.318C186.103 188.26 177.942 183.54 174.845 182.327C172.78 181.519 170.857 180.94 169.074 180.59L172.292 182.541C178.902 186.575 182.629 189.031 183.473 189.91C184.445 190.923 186.208 195.447 188.762 203.481C190.267 204.279 191.076 204.147 191.187 203.084C191.354 201.49 188.565 192.376 187.334 190.318Z" fill="white" stroke="#2C2C2C" stroke-width="1.61453" stroke-linecap="round" stroke-linejoin="round"/>
<path fill-rule="evenodd" clip-rule="evenodd" d="M187.993 203.732L188.111 204.347C188.591 206.911 188.623 208.172 188.209 208.128C187.54 208.057 186.183 208.761 185.183 206.688L184.882 206.05C183.767 203.65 181.643 198.704 181.61 197.41L181.613 197.293C181.732 196.163 179.986 195.014 178.906 193.61L178.757 193.408C177.699 191.912 171.882 187.744 170.517 187.6L169.163 187.457L173.421 191.452C175.543 193.897 176.841 195.692 177.314 196.839L178.736 200.311C180.359 204.316 181.318 206.883 181.265 207.395C181.134 208.646 179.894 209.386 178.538 208.807C177.183 208.229 174.122 201.631 173.456 199.557C172.79 197.482 168.926 193.764 167.616 192.232C166.742 191.211 164.752 189.906 161.647 188.317L166.407 196.808C168.097 199.826 168.896 202.197 168.803 203.92L168.785 204.151C168.511 206.761 169.611 208.89 168.303 208.752C167.037 208.618 165.646 207.916 164.99 204.863L164.926 204.55C164.508 202.337 163.573 200.274 162.12 198.36L159.707 196.485C155.847 193.464 153.51 191.522 152.697 190.658C151.726 189.626 150.779 189.653 148.866 189.888C148.866 189.888 145.834 185.732 145.934 183.758C146.023 181.989 150.071 178.242 150.071 178.242L161.669 179.81L168.115 180.49L169.412 181.157C175.353 184.247 179.69 187.045 182.424 189.55C185.352 192.234 187.209 196.961 187.993 203.732Z" fill="white" stroke="#2C2C2C" stroke-width="1.61453" stroke-linecap="round" stroke-linejoin="round"/>
<path fill-rule="evenodd" clip-rule="evenodd" d="M185.142 188.952L177.643 183.723L179.209 184.141C181.617 184.764 186.161 185.858 188.165 185.796L188.34 185.787C190.967 185.597 191.151 187.429 189.83 188.451C188.949 189.132 187.387 189.299 185.142 188.952Z" fill="white" stroke="#2C2C2C" stroke-width="1.61453" stroke-linecap="round" stroke-linejoin="round"/>
<path fill-rule="evenodd" clip-rule="evenodd" d="M166.963 281.478L101.145 371.925L77.7646 358.125L111.983 283.64C128.816 284.175 147.142 283.455 166.963 281.478Z" fill="#2C2C2C" stroke="#2C2C2C" stroke-width="1.61453" stroke-linecap="round" stroke-linejoin="round"/>
<path fill-rule="evenodd" clip-rule="evenodd" d="M24.7771 70.974C24.7771 70.974 10.0229 83.6317 7.19094 94.7528C5.69115 100.642 0.626698 136.288 2.35502 169.2C3.89016 198.433 12.1666 225.662 12.1666 225.662C12.1666 225.662 29.7662 236.171 60.7515 225.662C79.0793 219.446 92.273 195.861 92.273 195.861C92.273 195.861 72.4651 100.641 65.9006 88.6159C59.336 76.5907 55.8349 75.0471 55.8349 75.0471" fill="white"/>
<path d="M24.7771 70.974C24.7771 70.974 10.0229 83.6317 7.19094 94.7528C5.69115 100.642 0.626698 136.288 2.35502 169.2C3.89016 198.433 12.1666 225.662 12.1666 225.662C12.1666 225.662 29.7662 236.171 60.7515 225.662C79.0793 219.446 92.273 195.861 92.273 195.861C92.273 195.861 72.4651 100.641 65.9005 88.6159C59.336 76.5907 55.8349 75.0471 55.8349 75.0471" stroke="#2C2C2C" stroke-width="1.61453" stroke-linecap="round" stroke-linejoin="round"/>
<path fill-rule="evenodd" clip-rule="evenodd" d="M26.5298 112.083C26.5298 112.083 43.2477 158.246 51.1799 168.022C59.1122 177.798 150.346 194.191 150.346 194.191C150.346 194.191 160.576 179.982 154.016 175.302C147.455 170.621 80.983 144.279 80.983 144.279C80.983 144.279 67.4193 96.1831 59.6499 92.0105C51.8804 87.8379 33.9799 82.4439 29.6334 92.1973C25.2869 101.951 26.5298 112.083 26.5298 112.083Z" fill="white" stroke="#2C2C2C" stroke-width="1.61453" stroke-linecap="round" stroke-linejoin="round"/>
<path fill-rule="evenodd" clip-rule="evenodd" d="M149.653 235.196C151.563 234.72 231.334 233.077 231.334 233.077L232.183 223.732L146.746 223.526L146.951 235.871C146.951 235.871 147.743 235.673 149.653 235.196Z" fill="white" stroke="#2C2C2C" stroke-width="1.61453" stroke-linecap="round" stroke-linejoin="round"/>
<path fill-rule="evenodd" clip-rule="evenodd" d="M120.099 193.893L120.045 207.58L146.951 235.87L146.746 223.526L120.099 193.893Z" fill="white" stroke="#2C2C2C" stroke-width="1.61453" stroke-linecap="round" stroke-linejoin="round"/>
<path fill-rule="evenodd" clip-rule="evenodd" d="M91.6633 22.4554C91.6633 22.4554 94.2314 22.4544 101.718 26.3148C109.205 30.1752 116.013 36.6134 114.724 40.9212C113.435 45.2291 98.2692 43.0616 97.9678 42.9936C92.7083 41.8066 86.2389 40.0162 86.2389 40.0162L91.6633 22.4554Z" fill="white" stroke="#2C2C2C" stroke-width="1.61453" stroke-linecap="round" stroke-linejoin="round"/>
<path fill-rule="evenodd" clip-rule="evenodd" d="M76.7916 3.82497C76.7916 3.82497 65.8513 -0.419131 58.3049 4.03703C57.3077 4.62586 54.9092 5.54365 53.2897 6.59025C50.8573 8.16219 49.0723 10.0819 47.5635 12.0714C42.4747 18.7818 41.3033 26.9202 41.9472 29.238C42.9093 32.7006 93.8112 42.1198 93.8112 42.1198C93.8112 42.1198 98.2463 27.0002 94.0702 18.0311C89.894 9.06192 76.7916 3.82497 76.7916 3.82497Z" fill="white" stroke="#2C2C2C" stroke-width="1.61453" stroke-linecap="round" stroke-linejoin="round"/>
<path fill-rule="evenodd" clip-rule="evenodd" d="M152.008 403.942L171.012 409.237L171.103 409.991C171.768 415.329 172.761 419.281 174.081 421.848L176.287 426.155C176.639 426.846 176.898 427.36 177.065 427.697L177.173 427.916L149.231 413.676L152.008 403.942Z" fill="white" stroke="#2C2C2C" stroke-width="1.61453" stroke-linecap="round" stroke-linejoin="round"/>
<path fill-rule="evenodd" clip-rule="evenodd" d="M149.775 413.38C149.775 413.38 132.542 438.793 135.039 448.471C137.536 458.148 216.006 475.566 224.428 473.51C232.849 471.454 248.939 469.937 230.411 461.995C211.883 454.054 185.281 432.923 182.744 429.996C180.207 427.069 176.095 427.069 176.095 427.069L149.775 413.38Z" fill="#F8F7F3" stroke="#2C2C2C" stroke-width="1.61453" stroke-linecap="round" stroke-linejoin="round"/>
<path fill-rule="evenodd" clip-rule="evenodd" d="M134.219 448.912L134.5 448.966L134.537 449.125C134.661 449.604 134.98 449.637 135.449 449.339C142.058 459.149 216.252 475.507 224.427 473.511L225.032 473.367C230.232 472.158 237.788 471.083 238.842 468.681C238.979 468.665 239.034 468.603 239.007 468.493C239.007 468.493 240.945 469.961 241.225 470.717C242.049 472.936 241.225 474.476 241.225 474.476L240.463 476.032C239.826 477.015 238.004 479.808 231.444 481.215C224.318 482.743 212.288 481.644 207.503 481.215L207.076 481.175C201.581 480.647 192.803 479.172 180.743 476.75L169.316 474.441C151.202 470.802 141.258 468.928 139.485 468.82L139.346 468.815C136.425 468.815 128.274 463.07 128.274 456.234C128.274 451.676 130.256 449.236 134.219 448.912Z" fill="white" stroke="#2C2C2C" stroke-width="1.61453" stroke-linecap="round" stroke-linejoin="round"/>
<path fill-rule="evenodd" clip-rule="evenodd" d="M75.0537 37.5953C78.8125 40.0387 74.8552 46.2304 77.1954 47.7516C78.7555 48.7658 80.9158 48.0722 83.6762 45.6709L93.6885 42.0549C90.2735 44.8207 89.3288 47.6948 90.8545 50.6773C92.1961 53.2999 93.0294 55.5874 93.3545 57.5396C93.4034 57.8329 93.2057 58.1103 92.9129 58.1593C92.8442 58.1707 92.7739 58.1687 92.7059 58.1533L86.864 56.8283L80.6979 66.3327C79.8889 67.8967 79.0136 69.2214 77.1954 69.7786C76.2982 70.0535 74.0285 70.8115 70.6778 70.2497C67.583 69.7309 64.4531 67.475 62.8679 66.9328C62.7821 67.0546 61.7388 68.1387 61.6452 68.2578L61.3231 68.6718C60.123 70.2284 58.7142 72.2094 57.0968 74.6149L56.6505 75.2814H40.1423C36.5884 75.2814 31.039 74.4273 23.4941 72.719L24.524 71.4598C28.9925 66.0261 32.398 62.2876 34.7404 60.2442C37.2597 58.0466 39.0603 53.9067 40.1423 47.8244C41.875 38.0841 54.9178 45.2192 60.7147 54.5163L71.4879 51.28C68.2812 51.8308 65.9363 50.052 64.4531 45.9435C62.2283 39.7808 71.295 35.152 75.0537 37.5953Z" fill="white" stroke="#2C2C2C" stroke-width="1.61453" stroke-linecap="round" stroke-linejoin="round"/>
<ellipse cx="1.34353" cy="2.42256" rx="1.34353" ry="2.42256" transform="matrix(0.965801 0.259283 -0.258356 0.96605 84.8848 45.9432)" fill="#2C2C2C"/>
<path fill-rule="evenodd" clip-rule="evenodd" d="M43.1223 30.3069L43.1446 30.2988L43.3352 30.4013C46.5504 32.0906 54.8019 34.5675 69.2898 37.5953L69.2373 37.6273C65.9512 38.9835 63.0933 42.177 64.453 45.9435C65.9111 49.9823 68.2019 51.7698 71.3255 51.306V51.3204L60.7146 54.5162C54.885 56.1058 51.7357 55.32 47.8563 53.3658C43.1833 51.0117 39.5891 47.9062 39.3652 47.6326L39.427 46.5445C39.6684 42.5256 40.0003 39.5426 40.4225 37.5953C40.8821 35.4762 41.782 33.0468 43.1223 30.3069Z" fill="#2C2C2C" stroke="#2C2C2C" stroke-width="1.61453" stroke-linecap="round" stroke-linejoin="round"/>
<path d="M82.5689 63.4689C82.5689 63.4689 80.0789 62.9389 79.3394 62.7326C77.8223 62.3094 77.0996 61.8136 77.0996 61.8136" stroke="#2C2C2C" stroke-width="1.61453" stroke-linecap="round" stroke-linejoin="round"/>
<path fill-rule="evenodd" clip-rule="evenodd" d="M149.775 413.38C149.775 413.38 132.542 438.793 135.039 448.471C137.536 458.148 216.006 475.566 224.428 473.51C232.849 471.454 248.939 469.937 230.411 461.995C211.883 454.054 185.281 432.923 182.744 429.996C180.207 427.069 176.095 427.069 176.095 427.069L149.775 413.38Z" fill="white" stroke="#2C2C2C" stroke-width="1.61453" stroke-linecap="round" stroke-linejoin="round"/>
</svg>
