<svg width="346" height="542" viewBox="0 0 346 542" fill="none" xmlns="http://www.w3.org/2000/svg">
<path fill-rule="evenodd" clip-rule="evenodd" d="M233.564 44.8907L218.205 62.2206L203.446 49.6468L187.524 35.4769C187.524 35.4769 177.024 32.714 167.364 30.9476C157.704 29.1812 112.893 19.9651 112.893 19.9651L101.193 21.2433L90.1735 24.8399L79.0004 27.1114C79.0004 27.1114 76.9578 27.5764 75.7645 27.2476C74.5713 26.9187 74.215 26.2228 74.215 25.7925C74.215 25.3622 74.7451 24.8399 74.7451 24.8399C74.7451 24.8399 78.817 21.2433 81.2269 21.2433C83.6369 21.2433 87.8625 17.9978 87.8625 17.9978C87.8625 17.9978 89.5469 12.183 95.3699 12.183" fill="#FFF1E8"/>
<path d="M233.564 44.8907L218.205 62.2206L203.446 49.6468C203.446 49.6468 187.524 35.4769 187.524 35.4769C187.524 35.4769 177.024 32.714 167.364 30.9476C157.704 29.1812 112.893 19.9651 112.893 19.9651L101.193 21.2433L90.1735 24.8399L79.0004 27.1114C79.0004 27.1114 76.9578 27.5764 75.7645 27.2476C74.5713 26.9187 74.215 26.2228 74.215 25.7925C74.215 25.3622 74.7451 24.8399 74.7451 24.8399C74.7451 24.8399 78.817 21.2433 81.2269 21.2433C83.6369 21.2433 87.8625 17.9978 87.8625 17.9978C87.8625 17.9978 89.5469 12.183 95.3699 12.183" stroke="black" stroke-width="1.61453"/>
<path fill-rule="evenodd" clip-rule="evenodd" d="M233.564 45.0033L196.429 22.3572C196.429 22.3572 188.859 18.3602 183.461 17.0142C178.064 15.6682 134.994 10.5699 134.994 10.5699C134.994 10.5699 121.604 9.17456 118.983 7.94318C116.363 6.7118 109.761 3.26071 106.822 3.26071C103.882 3.26071 95.156 1.42212 88.5581 1.42212C81.9603 1.42212 67.7975 2.04306 65.1382 3.26071C62.4788 4.47836 65.1382 6.8741 65.1382 6.8741C65.1382 6.8741 61.4052 7.06938 60.8897 7.94318C60.3743 8.81698 60.8688 10.5699 61.9003 10.5699C62.9317 10.5699 61.0026 10.657 60.1471 11.5856C59.2915 12.5142 58.3939 13.3379 60.1471 14.0264C61.9003 14.7149 59.254 14.6829 59.254 15.8485C59.254 17.0142 59.8168 17.4495 61.4894 18.2023C63.162 18.955 82.8757 19.6585 82.8757 19.6585L103.819 18.2023" fill="white"/>
<path d="M233.564 45.0033L196.429 22.3572C196.429 22.3572 188.859 18.3602 183.461 17.0142C178.064 15.6682 134.994 10.5699 134.994 10.5699C134.994 10.5699 121.604 9.17456 118.983 7.94318C116.363 6.7118 109.761 3.26071 106.822 3.26071C103.882 3.26071 95.156 1.42212 88.5581 1.42212C81.9603 1.42212 67.7975 2.04306 65.1382 3.26071C62.4788 4.47836 65.1382 6.8741 65.1382 6.8741C65.1382 6.8741 61.4051 7.06938 60.8897 7.94318C60.3743 8.81698 60.8688 10.5699 61.9003 10.5699C62.9317 10.5699 61.0026 10.657 60.1471 11.5856C59.2915 12.5142 58.3939 13.3379 60.1471 14.0264C61.9003 14.7149 59.254 14.6829 59.254 15.8485C59.254 17.0142 59.8168 17.4495 61.4894 18.2023C63.162 18.955 82.8757 19.6585 82.8757 19.6585L103.819 18.2023" stroke="#2C2C2C" stroke-width="1.61453" stroke-linecap="round" stroke-linejoin="round"/>
<path d="M82.1851 17.7549C82.0829 18.1889 81.6483 18.4579 81.2143 18.3557C80.7803 18.2535 80.5113 17.8189 80.6135 17.3849L82.1851 17.7549ZM86.028 1.43171L82.1851 17.7549L80.6135 17.3849L84.4564 1.06172L86.028 1.43171Z" fill="#2C2C2C"/>
<path d="M84.9814 4.93762L65.1379 6.8732" stroke="#2C2C2C" stroke-width="1.61453"/>
<path d="M83.6699 9.65411L62.3704 10.5353" stroke="#2C2C2C" stroke-width="1.61453"/>
<path d="M82.8281 14.0662C82.2421 14.0662 60.7561 14.0662 60.7561 14.0662" stroke="#2C2C2C" stroke-width="1.61453"/>
<path fill-rule="evenodd" clip-rule="evenodd" d="M171.654 69.4429C172.423 69.4429 176.595 68.1343 181.216 69.4429C182.65 69.8489 184.521 68.5651 186.615 65.3073C186.749 65.099 187.118 63.9412 187.849 63.413C188.17 63.1807 189.048 63.413 189.048 63.413C189.048 63.413 189.634 64.0096 189.634 66.0041C189.634 67.9986 189.634 69.4429 189.634 69.4429C189.634 69.4429 192.899 69.9192 194.769 70.194C195.788 70.3438 198.493 70.0439 199.246 70.3085C200.945 70.9059 200.788 72.7346 200.595 74.0502C200.003 78.0825 198.432 82.9405 197.785 84.4935C196.723 87.0448 218.289 96.6684 218.289 96.6684L226.565 98.2694C226.565 98.2694 241.222 98.0671 244.345 99.9662C254.611 106.209 251.918 114.745 249.588 116.262C233.741 126.584 185.533 123.091 181.216 120.84C165.455 112.62 171.319 69.4429 171.654 69.4429Z" fill="white" stroke="#2C2C2C" stroke-width="1.61453"/>
<path fill-rule="evenodd" clip-rule="evenodd" d="M233.564 44.8907L218.205 62.2206L203.446 49.6468L187.524 35.4769C187.524 35.4769 177.024 32.714 167.364 30.9476C157.704 29.1812 112.893 19.9651 112.893 19.9651L101.193 21.2433L90.1735 24.8399L79.0004 27.1114C79.0004 27.1114 76.9578 27.5764 75.7646 27.2476C74.5713 26.9187 74.215 26.2228 74.215 25.7925C74.215 25.3622 74.7451 24.8399 74.7451 24.8399C74.7451 24.8399 78.817 21.2433 81.2269 21.2433C83.6369 21.2433 87.8625 17.9978 87.8625 17.9978C87.8625 17.9978 89.5469 12.183 95.3699 12.183" fill="white"/>
<path d="M233.564 44.8907L218.205 62.2206L203.446 49.6468L187.524 35.4769C187.524 35.4769 177.024 32.714 167.364 30.9476C157.704 29.1812 112.893 19.9651 112.893 19.9651L101.193 21.2433L90.1735 24.8399L79.0004 27.1114C79.0004 27.1114 76.9578 27.5764 75.7646 27.2476C74.5713 26.9187 74.215 26.2228 74.215 25.7925C74.215 25.3622 74.7451 24.8399 74.7451 24.8399C74.7451 24.8399 78.8169 21.2433 81.2269 21.2433C83.6369 21.2433 87.8625 17.9978 87.8625 17.9978C87.8625 17.9978 89.5469 12.183 95.3699 12.183" stroke="#2C2C2C" stroke-width="1.61453" stroke-linecap="round" stroke-linejoin="round"/>
<path fill-rule="evenodd" clip-rule="evenodd" d="M227.246 97.583C227.092 97.3449 227.001 97.2155 227.001 97.2155L228.704 87.2156C228.652 86.919 228.593 86.6165 228.526 86.3079C227.255 80.4439 215.26 65.5661 215.26 65.5661L236.361 42.252L236.517 41.3339C236.517 41.3339 248.713 54.5852 254.108 61.7366C259.503 68.8881 273.79 94.9197 276.494 100.341C279.199 105.762 323.994 168.247 323.994 168.247L244.921 174.767C244.921 174.767 208.176 152.76 203.566 152.76C198.957 152.76 178.32 166.7 178.32 166.7L160.876 140.837L171.814 132.609C171.814 132.609 197.22 114.104 198.197 114.104C198.484 114.104 200.074 114.598 202.319 115.294C207.719 116.97 216.909 119.822 220.9 119.822C226.55 119.822 228.698 116.179 230.395 110.317C231.744 105.654 228.799 100.119 227.538 98.0499C227.256 97.9088 227.119 97.7958 227.159 97.7299C227.188 97.6821 227.217 97.6332 227.246 97.583Z" fill="white"/>
<path d="M227.246 97.5844C227.092 97.346 227.001 97.2166 227.001 97.2166L228.704 87.2163C228.652 86.92 228.593 86.6176 228.526 86.3093C227.255 80.4453 215.26 65.5674 215.26 65.5674L236.361 42.2537C236.361 42.2537 248.713 54.5863 254.108 61.7377C259.503 68.8891 273.79 94.9207 276.494 100.342C279.199 105.764 323.994 168.248 323.994 168.248L244.921 174.769C244.921 174.769 208.176 152.762 203.566 152.762C198.957 152.762 178.32 166.701 178.32 166.701L160.876 140.838L171.814 132.61C171.814 132.61 197.22 114.105 198.197 114.105C198.484 114.105 200.074 114.599 202.319 115.296C207.719 116.971 216.909 119.823 220.9 119.823C226.55 119.823 228.698 116.18 230.395 110.318C231.744 105.655 228.799 100.12 227.538 98.0513C227.256 97.9101 227.119 97.7972 227.159 97.7313C227.188 97.6835 227.217 97.6345 227.246 97.5844Z" fill="white"/>
<path d="M227.001 97.2166L226.341 97.6808L226.15 97.4088L226.206 97.0811L227.001 97.2166ZM227.246 97.5844L227.925 97.147L228.193 97.5633L227.943 97.9912L227.246 97.5844ZM228.704 87.2163L229.499 87.077L229.523 87.2144L229.5 87.3519L228.704 87.2163ZM228.526 86.3093L227.737 86.4803V86.4803L228.526 86.3093ZM215.26 65.5674L214.631 66.0741L214.199 65.5371L214.661 65.0257L215.26 65.5674ZM236.361 42.2537L235.762 41.712C235.91 41.5481 236.119 41.4522 236.34 41.4467C236.561 41.4411 236.775 41.5263 236.931 41.6824L236.361 42.2537ZM254.108 61.7377L253.463 62.2239L254.108 61.7377ZM276.494 100.342L275.772 100.703L276.494 100.342ZM323.994 168.248L324.65 167.778L325.48 168.935L324.06 169.053L323.994 168.248ZM244.921 174.769L244.987 175.573L244.728 175.594L244.506 175.461L244.921 174.769ZM178.32 166.701L178.772 167.37L178.102 167.822L177.65 167.152L178.32 166.701ZM160.876 140.838L160.207 141.29L159.778 140.654L160.391 140.193L160.876 140.838ZM171.814 132.61L171.329 131.965L171.339 131.957L171.814 132.61ZM202.319 115.296L202.559 114.525L202.319 115.296ZM230.395 110.318L229.619 110.094V110.094L230.395 110.318ZM227.538 98.0513L227.899 97.3291L228.107 97.4328L228.228 97.6312L227.538 98.0513ZM227.159 97.7313L227.85 98.1481V98.1482L227.159 97.7313ZM227.001 97.2166C227.662 96.7523 227.662 96.7523 227.662 96.7523C227.662 96.7523 227.662 96.7524 227.662 96.7524C227.662 96.7524 227.662 96.7524 227.662 96.7525C227.662 96.7526 227.662 96.7527 227.662 96.7527C227.662 96.7529 227.662 96.7532 227.663 96.7534C227.663 96.7539 227.663 96.7545 227.664 96.7553C227.665 96.7568 227.666 96.7588 227.668 96.7613C227.672 96.7663 227.676 96.7734 227.683 96.7823C227.695 96.8003 227.713 96.8261 227.735 96.8594C227.78 96.926 227.844 97.0227 227.925 97.147L226.568 98.0218C226.494 97.9077 226.436 97.8205 226.397 97.7628C226.378 97.7339 226.363 97.7124 226.353 97.6987C226.349 97.6918 226.345 97.6868 226.343 97.6839C226.342 97.6824 226.341 97.6814 226.341 97.6809C226.341 97.6806 226.341 97.6805 226.341 97.6805C226.341 97.6805 226.341 97.6805 226.341 97.6806C226.341 97.6806 226.341 97.6806 226.341 97.6807C226.341 97.6807 226.341 97.6807 226.341 97.6808C226.341 97.6808 226.341 97.6808 226.341 97.6808C226.341 97.6808 226.341 97.6808 227.001 97.2166ZM229.5 87.3519L227.797 97.3521L226.206 97.0811L227.908 87.0808L229.5 87.3519ZM229.315 86.1383C229.384 86.457 229.446 86.7699 229.499 87.077L227.909 87.3557C227.859 87.07 227.802 86.7783 227.737 86.4803L229.315 86.1383ZM215.26 65.5674C215.888 65.0607 215.888 65.0608 215.889 65.061C215.889 65.0611 215.889 65.0613 215.889 65.0616C215.889 65.0621 215.89 65.0628 215.891 65.0638C215.892 65.0657 215.895 65.0685 215.898 65.0722C215.904 65.0797 215.912 65.0906 215.924 65.105C215.947 65.1338 215.981 65.1765 216.026 65.2322C216.115 65.3436 216.245 65.5074 216.411 65.7177C216.744 66.1383 217.219 66.745 217.794 67.4912C218.942 68.9832 220.488 71.035 222.075 73.2724C223.66 75.5079 225.294 77.9383 226.613 80.1857C227.919 82.4086 228.968 84.535 229.315 86.1383L227.737 86.4803C227.449 85.1516 226.522 83.2192 225.221 81.0033C223.934 78.8119 222.33 76.4233 220.758 74.2064C219.187 71.9912 217.655 69.9571 216.514 68.4762C215.945 67.736 215.473 67.1346 215.144 66.7186C214.98 66.5107 214.851 66.3491 214.764 66.2397C214.72 66.185 214.687 66.1434 214.665 66.1156C214.654 66.1016 214.645 66.0912 214.64 66.0842C214.637 66.0808 214.635 66.0782 214.633 66.0765C214.633 66.0756 214.632 66.075 214.632 66.0746C214.632 66.0744 214.632 66.0743 214.632 66.0742C214.631 66.0741 214.631 66.0741 215.26 65.5674ZM236.959 42.7954L215.858 66.1091L214.661 65.0257L235.762 41.712L236.959 42.7954ZM253.463 62.2239C250.796 58.688 246.388 53.8461 242.625 49.8687C240.748 47.8844 239.038 46.1228 237.798 44.8573C237.178 44.2247 236.676 43.7162 236.329 43.366C236.155 43.1909 236.02 43.0555 235.929 42.9638C235.883 42.918 235.848 42.8832 235.825 42.8599C235.813 42.8482 235.805 42.8394 235.799 42.8336C235.796 42.8307 235.794 42.8285 235.792 42.827C235.792 42.8263 235.791 42.8258 235.791 42.8254C235.791 42.8252 235.79 42.8251 235.79 42.825C235.79 42.825 235.79 42.8249 236.361 42.2537C236.931 41.6824 236.931 41.6825 236.931 41.6826C236.931 41.6827 236.931 41.6828 236.932 41.683C236.932 41.6834 236.933 41.684 236.933 41.6848C236.935 41.6863 236.937 41.6886 236.94 41.6917C236.946 41.6977 236.955 41.7067 236.967 41.7186C236.991 41.7424 237.026 41.7777 237.072 41.824C237.165 41.9165 237.3 42.053 237.475 42.2291C237.824 42.5813 238.329 43.0922 238.952 43.7274C240.196 44.9978 241.912 46.7663 243.798 48.7591C247.56 52.7358 252.025 57.636 254.752 61.2516L253.463 62.2239ZM275.772 100.703C274.43 98.0119 270.191 90.164 265.608 82.0871C261.016 73.9946 256.123 65.7491 253.463 62.2239L254.752 61.2516C257.488 64.8778 262.435 73.2238 267.012 81.2903C271.598 89.3724 275.854 97.251 277.217 99.9818L275.772 100.703ZM323.994 168.248C323.338 168.718 323.337 168.718 323.337 168.718C323.337 168.717 323.336 168.716 323.336 168.715C323.334 168.714 323.332 168.711 323.329 168.707C323.324 168.699 323.316 168.688 323.305 168.673C323.283 168.643 323.251 168.598 323.209 168.539C323.124 168.42 322.998 168.245 322.834 168.015C322.505 167.556 322.022 166.882 321.407 166.022C320.177 164.303 318.416 161.841 316.295 158.869C312.053 152.926 306.369 144.945 300.599 136.794C294.83 128.644 288.976 120.323 284.393 113.699C282.102 110.387 280.128 107.497 278.64 105.264C277.167 103.053 276.138 101.436 275.772 100.703L277.217 99.9818C277.527 100.604 278.489 102.126 279.984 104.369C281.464 106.591 283.432 109.472 285.721 112.78C290.298 119.397 296.149 127.713 301.917 135.862C307.685 144.01 313.368 151.989 317.609 157.931C319.73 160.902 321.49 163.364 322.72 165.083C323.335 165.942 323.818 166.616 324.146 167.075C324.311 167.304 324.436 167.48 324.521 167.598C324.564 167.658 324.596 167.702 324.617 167.732C324.628 167.747 324.636 167.759 324.642 167.766C324.644 167.77 324.646 167.773 324.648 167.775C324.648 167.776 324.649 167.776 324.649 167.777C324.65 167.777 324.65 167.778 323.994 168.248ZM244.854 173.964L323.927 167.443L324.06 169.053L244.987 175.573L244.854 173.964ZM203.566 151.954C203.981 151.954 204.491 152.072 205.028 152.237C205.584 152.409 206.241 152.656 206.977 152.962C208.449 153.575 210.282 154.444 212.336 155.479C216.445 157.551 221.483 160.309 226.368 163.062C231.255 165.816 235.996 168.569 239.516 170.634C241.275 171.666 242.73 172.526 243.745 173.129C244.252 173.43 244.65 173.667 244.92 173.828C245.056 173.909 245.159 173.971 245.229 174.012C245.264 174.033 245.291 174.049 245.308 174.06C245.317 174.065 245.324 174.069 245.328 174.072C245.331 174.073 245.332 174.074 245.334 174.075C245.334 174.075 245.335 174.076 245.335 174.076C245.335 174.076 245.335 174.076 244.921 174.769C244.506 175.461 244.506 175.461 244.505 175.461C244.505 175.461 244.505 175.46 244.504 175.46C244.503 175.459 244.501 175.459 244.499 175.457C244.495 175.455 244.488 175.451 244.479 175.445C244.462 175.435 244.436 175.419 244.401 175.398C244.331 175.357 244.228 175.295 244.093 175.215C243.823 175.054 243.427 174.818 242.921 174.517C241.908 173.916 240.456 173.057 238.699 172.026C235.184 169.965 230.451 167.216 225.576 164.468C220.698 161.719 215.685 158.976 211.609 156.921C209.57 155.893 207.776 155.043 206.356 154.452C205.646 154.157 205.041 153.931 204.552 153.78C204.045 153.624 203.727 153.569 203.566 153.569V151.954ZM178.32 166.701C177.868 166.032 177.868 166.032 177.868 166.032C177.868 166.032 177.869 166.032 177.869 166.031C177.87 166.031 177.871 166.03 177.872 166.029C177.874 166.028 177.878 166.025 177.883 166.022C177.894 166.015 177.909 166.005 177.928 165.991C177.968 165.965 178.027 165.925 178.103 165.874C178.256 165.771 178.481 165.621 178.769 165.43C179.344 165.048 180.17 164.502 181.176 163.847C183.187 162.537 185.918 160.79 188.795 159.041C191.67 157.295 194.702 155.54 197.312 154.219C198.617 153.559 199.829 153.001 200.872 152.606C201.889 152.22 202.833 151.954 203.566 151.954V153.569C203.147 153.569 202.438 153.739 201.444 154.115C200.476 154.482 199.32 155.013 198.041 155.66C195.486 156.953 192.494 158.683 189.634 160.421C186.775 162.158 184.059 163.896 182.057 165.2C181.056 165.851 180.234 166.394 179.662 166.774C179.377 166.964 179.154 167.113 179.002 167.215C178.926 167.266 178.869 167.305 178.83 167.331C178.81 167.344 178.796 167.354 178.786 167.36C178.781 167.364 178.777 167.366 178.775 167.368C178.774 167.368 178.773 167.369 178.772 167.369C178.772 167.37 178.772 167.37 178.772 167.37C178.772 167.37 178.772 167.37 178.32 166.701ZM161.546 140.387L178.989 166.25L177.65 167.152L160.207 141.29L161.546 140.387ZM172.299 133.255L161.362 141.483L160.391 140.193L171.329 131.965L172.299 133.255ZM198.197 114.913C198.264 114.913 198.314 114.903 198.337 114.899C198.363 114.893 198.38 114.888 198.386 114.886C198.398 114.882 198.394 114.882 198.371 114.893C198.325 114.914 198.248 114.953 198.137 115.016C197.917 115.14 197.609 115.33 197.219 115.58C196.442 116.079 195.378 116.796 194.12 117.662C191.607 119.392 188.344 121.702 185.108 124.014C181.873 126.326 178.669 128.638 176.272 130.373C175.074 131.24 174.078 131.962 173.382 132.468C173.034 132.721 172.761 132.919 172.574 133.055C172.481 133.123 172.41 133.174 172.362 133.209C172.338 133.227 172.32 133.24 172.308 133.249C172.301 133.253 172.297 133.257 172.294 133.259C172.292 133.26 172.291 133.261 172.29 133.262C172.29 133.262 172.29 133.262 172.29 133.262C172.289 133.262 172.289 133.262 171.814 132.61C171.339 131.957 171.339 131.957 171.339 131.957C171.339 131.957 171.34 131.957 171.34 131.956C171.341 131.956 171.342 131.955 171.343 131.954C171.346 131.952 171.351 131.948 171.357 131.944C171.369 131.935 171.388 131.922 171.412 131.904C171.46 131.869 171.531 131.817 171.625 131.749C171.811 131.614 172.085 131.415 172.433 131.162C173.13 130.655 174.127 129.932 175.326 129.065C177.723 127.329 180.931 125.015 184.17 122.701C187.408 120.387 190.679 118.071 193.205 116.332C194.466 115.463 195.547 114.734 196.347 114.221C196.745 113.966 197.083 113.757 197.343 113.611C197.471 113.538 197.593 113.473 197.7 113.424C197.754 113.4 197.816 113.374 197.881 113.352C197.931 113.336 198.051 113.298 198.197 113.298V114.913ZM202.08 116.067C200.955 115.717 200.003 115.422 199.296 115.214C198.942 115.109 198.657 115.029 198.448 114.976C198.342 114.949 198.264 114.931 198.209 114.92C198.138 114.906 198.148 114.913 198.197 114.913V113.298C198.318 113.298 198.441 113.32 198.521 113.336C198.616 113.355 198.727 113.381 198.846 113.411C199.085 113.472 199.392 113.559 199.752 113.665C200.473 113.877 201.438 114.177 202.559 114.525L202.08 116.067ZM220.9 120.63C218.783 120.63 215.388 119.887 211.93 118.968C208.44 118.04 204.777 116.904 202.08 116.067L202.559 114.525C205.261 115.363 208.892 116.49 212.345 117.407C215.83 118.333 219.026 119.016 220.9 119.016V120.63ZM231.17 110.543C230.316 113.492 229.316 116.018 227.734 117.804C226.109 119.64 223.929 120.63 220.9 120.63V119.016C223.521 119.016 225.241 118.185 226.526 116.734C227.854 115.233 228.776 113.007 229.619 110.094L231.17 110.543ZM228.228 97.6312C228.876 98.6943 229.961 100.655 230.713 102.962C231.461 105.256 231.91 107.988 231.17 110.543L229.619 110.094C230.229 107.986 229.881 105.618 229.178 103.462C228.48 101.319 227.462 99.4772 226.849 98.4714L228.228 97.6312ZM227.85 98.1482C227.93 98.0162 227.966 97.8655 227.958 97.7179C227.952 97.5803 227.909 97.4757 227.876 97.4126C227.842 97.3495 227.808 97.3072 227.788 97.2856C227.768 97.2628 227.752 97.2492 227.747 97.2445C227.737 97.2369 227.774 97.2668 227.899 97.3291L227.178 98.7735C227.02 98.6947 226.847 98.5975 226.709 98.4816C226.645 98.4283 226.531 98.3238 226.448 98.1659C226.352 97.9854 226.265 97.6505 226.468 97.3144L227.85 98.1482ZM227.943 97.9912C227.912 98.0448 227.881 98.0972 227.85 98.1481L226.468 97.3144C226.494 97.2698 226.522 97.2242 226.549 97.1775L227.943 97.9912Z" fill="#2C2C2C"/>
<path d="M178.652 92.3512C178.652 92.3512 180.352 92.5003 182.113 93.0767C183.874 93.6531 202.339 108.522 202.339 109.553C202.339 110.584 198.165 114.411 198.165 114.411" stroke="black" stroke-width="1.61453"/>
<path fill-rule="evenodd" clip-rule="evenodd" d="M175.729 64.7527C174.156 59.6516 156.054 62.5149 153.847 71.0447C153.239 73.3965 152.348 75.3521 151.72 77.8168C150.07 84.2915 152.433 88.0354 157.359 96.2649C164.16 107.627 179.233 146.32 188.463 153.767C190.443 155.365 199.14 161.872 211.042 149.574C212.148 148.432 216.527 138.999 215.26 129.794C214.037 120.9 207.24 112.263 204.145 109.03C196.651 101.202 171.435 86.8216 171.435 86.8216L169.497 83.9582C169.497 83.9582 174.695 71.1633 175.729 68.172C176.643 65.5265 175.747 64.8119 175.729 64.7527Z" fill="#2C2C2C" stroke="#2C2C2C" stroke-width="1.61453"/>
<path fill-rule="evenodd" clip-rule="evenodd" d="M178.652 93.3431C178.652 93.3431 173.005 90.7371 171.65 90.7371C170.295 90.7371 168.424 92.267 168.424 94.1802C168.424 96.0934 170.929 98.3087 173.444 97.5944C175.959 96.8802 178.652 94.4616 178.652 94.4616V93.3431Z" fill="white" stroke="#2C2C2C" stroke-width="1.61453"/>
<path fill-rule="evenodd" clip-rule="evenodd" d="M8.53711 190.353C8.53711 190.353 5.48205 188.968 4.2229 190.353C2.96375 191.737 1.00033 196.713 1.00033 199.453C1.00033 202.193 1.00033 207.192 1.00033 208.615C1.00033 210.038 4.2229 210.761 4.2229 209.322" fill="white"/>
<path d="M8.53711 190.353C8.53711 190.353 5.48205 188.968 4.2229 190.353C2.96375 191.737 1.00033 196.713 1.00033 199.453C1.00033 202.193 1.00033 207.192 1.00033 208.615C1.00033 210.038 4.2229 210.761 4.2229 209.322" stroke="black" stroke-width="1.61453"/>
<path fill-rule="evenodd" clip-rule="evenodd" d="M160.83 141.237C160.83 141.237 120.35 168.159 117.094 172.69C115.902 174.348 110.654 171.668 95.6784 172.69C83.3757 173.53 47.0419 178.586 47.0419 178.586L38.6161 182.54L14.997 187.615C14.997 187.615 9.82419 188.596 7.61928 190.674C5.41437 192.752 3.9321 205.525 3.9321 205.525C3.9321 205.525 3.06157 211.767 5.34042 209.504C7.61928 207.24 8.9671 198.275 8.9671 198.275L11.8821 193.387C11.8821 193.387 20.558 192.065 25.7073 192.065C30.8566 192.065 30.2617 193.374 30.9344 194.32C31.6071 195.266 33.3279 197.579 26.9586 200.082C20.5892 202.584 15.7279 204.302 17.669 207.415C18.7791 209.196 18.9512 208.723 21.1573 208.62C22.8088 208.542 25.0431 207.731 27.9608 206.584C34.7761 203.902 36.1411 205.324 39.9291 201.799C43.7171 198.275 47.5068 193.733 51.1024 190.674C54.698 187.615 113.732 192.903 122.154 190.674C130.577 188.445 141.675 182.54 141.675 182.54L176.499 163.695L160.83 141.237Z" fill="white" stroke="#2C2C2C" stroke-width="1.61453"/>
<path fill-rule="evenodd" clip-rule="evenodd" d="M20.6672 200.297C20.6672 200.297 21.7449 197.486 21.5305 196.559C21.0522 194.492 18.997 193.756 18.1643 193.564C16.3552 193.146 12.9973 193.477 12.0644 197.516C11.1315 201.556 7.01022 203.596 6.12907 205.197C5.24794 206.799 3.67107 217.687 5.93361 221.33C8.19615 224.974 9.75102 227.176 10.6343 232.385C11.5177 237.594 10.8736 245.171 13.5278 251.515C16.1821 257.859 17.1827 261.013 23.7171 259.004C30.2515 256.995 29.9744 251.765 37.2606 249.47C44.5468 247.175 83.6877 241.557 94.2996 242.581C104.911 243.605 112.057 241.662 119.733 243.434C127.409 245.206 163.041 236.774 163.041 236.774L150.398 204.178L91.1772 220.188C91.1772 220.188 46.5853 233.314 41.0651 232.996C35.5449 232.677 25.5254 226.87 23.4144 224.361C21.3033 221.852 15.7776 207.446 15.7776 207.446L20.6672 200.297Z" fill="white" stroke="#2C2C2C" stroke-width="1.61453"/>
<path fill-rule="evenodd" clip-rule="evenodd" d="M324.334 168.42L242.691 174.94C242.691 174.94 197.828 187.205 173.205 194.249C148.582 201.293 150.223 204.113 150.223 204.113L162.845 236.643C162.845 236.643 205.152 237.574 226.122 236.643C247.093 235.711 267.994 231.085 267.994 231.085C267.994 231.085 276.93 232.266 277.076 236.643C277.41 246.701 276.081 266.982 277.076 295.579C277.915 319.701 282.077 375.782 282.077 375.782L328.598 383.635C328.598 383.635 336.378 317.318 339.723 289.699C345.455 242.366 345.916 215.104 343.943 207.356C339.256 188.952 324.334 168.42 324.334 168.42Z" fill="#2C2C2C" stroke="#2C2C2C" stroke-width="1.61453"/>
<path fill-rule="evenodd" clip-rule="evenodd" d="M291.007 459.549C291.882 459.549 291.934 481.516 291.162 525.451L291.006 534.084L290.86 534.378C288.534 538.888 291.705 539.485 293.034 540.052C294.363 540.619 297.48 540.052 299.645 538.888C301.089 538.112 302.006 536.26 302.395 533.334C302.107 536.363 302.549 538.314 303.721 539.186C304.155 539.508 305.62 539.922 306.388 540.052C306.842 540.129 307.579 540.017 308.598 539.716L308.858 539.637V535.987C309.53 537.434 310.074 538.789 310.49 540.052C310.884 541.245 312.795 541.312 316.222 540.251L316.843 540.052L314.428 534.378C316.038 537.384 317.591 539.276 319.088 540.052C321.332 541.216 322.222 540.052 323.387 538.888C324.552 537.724 321.383 534.378 322.222 535.201C323.06 536.025 322.811 536.701 325.524 538.888C328.197 541.043 331.922 536.879 328.65 534.482L328.207 534.176L327.922 533.971C324.776 531.662 323.018 528.621 316.843 518.49C310.299 507.754 311.147 491.138 311.147 483.073L311.156 482.547C311.436 473.278 318.489 431.111 323.387 409.705C325.19 401.827 326.089 392.517 326.358 383.541L283.65 376.329C284.03 390.582 289.672 459.549 291.007 459.549Z" fill="white" stroke="#2C2C2C" stroke-width="1.61453"/>
<path d="M326.404 381.74C326.205 391.262 325.311 401.299 323.387 409.706C318.389 431.548 311.147 475.007 311.147 483.073C311.147 491.139 310.299 507.754 316.843 518.49C323.387 529.226 324.97 532 328.501 534.378C332.032 536.755 328.236 541.075 325.524 538.888C322.811 536.702 323.06 536.025 322.222 535.201C321.383 534.378 324.552 537.724 323.387 538.888C322.222 540.052 321.332 541.216 319.088 540.052C316.843 538.888 314.428 534.378 314.428 534.378L316.843 540.052C316.843 540.052 311.115 541.948 310.49 540.052C309.865 538.157 308.858 535.987 308.858 535.987V539.637C308.858 539.637 307.126 540.177 306.388 540.052C305.62 539.922 304.155 539.509 303.721 539.186C301.963 537.878 302.395 533.334 302.395 533.334C302.395 533.334 301.811 537.724 299.645 538.888C297.48 540.052 294.363 540.619 293.034 540.052C291.705 539.485 288.534 538.888 290.86 534.378C293.186 529.867 296.29 527.976 296.29 527.976" stroke="#2C2C2C" stroke-width="1.61453"/>
<path d="M177.038 71.3674C177.038 71.3674 174.347 73.5837 174.347 77.8239" stroke="#2C2C2C" stroke-width="1.61453" stroke-linecap="round"/>
<path d="M180.269 72.9819L179.461 75.4031" stroke="#2C2C2C" stroke-width="1.61453" stroke-linecap="round"/>
<path fill-rule="evenodd" clip-rule="evenodd" d="M268.483 109.03C269.192 111.29 272.14 115.065 274.173 122.535C276.072 129.511 268.869 140.649 258.459 144.22C253.604 145.885 248.395 145.885 244.602 148.218C241.23 150.292 236.982 157.074 236.982 157.074C236.982 157.074 233.802 160.946 232.585 161.821C222.551 169.041 214.273 164.861 208.958 154.751" fill="white"/>
<path d="M268.483 109.03C269.192 111.29 272.14 115.065 274.173 122.535C276.072 129.511 268.869 140.649 258.459 144.22C253.604 145.885 248.395 145.885 244.602 148.218C241.23 150.292 236.982 157.074 236.982 157.074C236.982 157.074 233.802 160.946 232.585 161.821C222.551 169.041 214.273 164.861 208.958 154.751" stroke="#2C2C2C" stroke-width="1.61453" stroke-linecap="round" stroke-linejoin="round"/>
</svg>
