<svg width="182" height="263" viewBox="0 0 182 263" fill="none" xmlns="http://www.w3.org/2000/svg">
<path d="M151.155 8.49261C152.975 6.0941 152.369 3.1603 151.436 1.04267C132.047 0.216202 123.258 11.6702 123.258 11.6702C123.258 11.6702 114.623 20.1222 120.014 38.6683C121.939 45.2919 118.18 54.6064 116.548 56.3475C91.2976 100.639 40.4169 186.993 34.9881 194.781C28.202 204.516 18.9772 202.794 9.11442 208.89C-0.622247 214.908 0.616696 226.687 1.7775 237.724L1.82253 238.152C2.26648 242.379 3.53793 244.76 5.00387 246.077C7.326 248.163 10.436 245.726 11.6869 242.869C13.746 238.167 16.4521 232.732 18.735 229.079C20.583 226.122 24.022 223.544 30.5957 226.001C36.9864 228.389 37.358 235.209 36.7145 237.567C36.3489 238.907 33.243 247.056 30.6121 252.538C29.9438 253.931 30.4233 255.63 31.7637 256.402C32.5551 256.858 33.5182 256.911 34.329 256.49C36.5006 255.364 40.1722 253.2 43.9419 250.203C49.8084 245.54 54.9202 236.707 55.6027 232.792C56.2851 228.876 52.8113 216.966 52.2225 213.755C51.7515 211.186 57.9542 200.971 60.7775 195.991C85.9823 151.529 137.678 62.0258 142.823 59.7038C149.254 56.8012 163.494 50.3543 168.502 44.1904C173.509 38.0264 172.23 23.0721 172.102 20.5569C172 18.5448 170.285 17.6435 169.441 17.4443C164.181 23.4631 153.176 35.7949 151.229 36.971C148.794 38.4412 146.282 36.5634 141.826 33.5662C137.37 30.569 139.278 25.7797 140.155 23.269C141.033 20.7583 149.335 10.8911 151.155 8.49261Z" fill="white" stroke="#2C2C2C" stroke-width="1.68"/>
<path d="M9.94573 91.2412C8.71216 90.3448 8.44058 88.6206 9.33913 87.3901L36.7481 49.8539C39.2152 51.6466 39.7584 55.095 37.9613 57.5561L13.8063 90.6361C12.9077 91.8666 11.1793 92.1375 9.94573 91.2412Z" fill="white"/>
<path d="M11.2427 78.0784C10.0091 77.1821 9.73755 75.4579 10.6361 74.2273C11.5347 72.9968 13.2631 72.7259 14.4966 73.6222L23.4309 80.1142C24.6645 81.0106 24.9361 82.7348 24.0375 83.9653C23.139 85.1959 21.4105 85.4668 20.177 84.5704L11.2427 78.0784Z" fill="white"/>
<path d="M8.2636 82.3752C7.03003 81.4788 6.75845 79.7546 7.657 78.5241C8.55555 77.2935 10.284 77.0226 11.5175 77.919L20.4518 84.4109C21.6854 85.3073 21.957 87.0315 21.0584 88.2621C20.1599 89.4926 18.4314 89.7635 17.1979 88.8672L8.2636 82.3752Z" fill="white"/>
<path d="M27.7462 4.19906L21.2233 11.8335L44.7124 25.3048L44.9789 39.9437L35.0264 51.8512L5.32441 28.8891C4.10189 33.3272 2.93574 46.0051 8.05128 61.2118C14.4457 80.2202 29.9476 81.6323 37.6162 84.6836C43.7512 87.1247 53.4045 98.2817 57.4643 103.555C81.9271 148.061 132.609 239.709 139.633 250.255C148.414 263.437 157.66 262.995 167.362 260.853C177.065 258.712 181.123 246.322 180.996 238.64C180.894 232.494 176.123 223.255 173.75 219.404C144.15 177.713 83.9346 92.6758 79.8718 86.0541C74.7934 77.777 74.649 41.9563 72.8143 32.8163C70.9796 23.6763 64.9392 7.76717 52.8302 4.25734C43.1429 1.44948 32.0712 3.04855 27.7462 4.19906Z" fill="white"/>
<path d="M27.7462 4.19906L21.2233 11.8335L44.7124 25.3048L44.9789 39.9437L35.0264 51.8512L5.32441 28.8891C4.10189 33.3272 2.93574 46.0051 8.05128 61.2118C14.4457 80.2202 29.9476 81.6323 37.6162 84.6836C43.7512 87.1247 53.4045 98.2817 57.4643 103.555C81.9271 148.061 132.609 239.709 139.633 250.255C148.414 263.437 157.66 262.995 167.362 260.853C177.065 258.712 181.123 246.322 180.996 238.64C180.894 232.494 176.123 223.255 173.75 219.404C144.15 177.713 83.9346 92.6758 79.8718 86.0541C74.7934 77.777 74.649 41.9563 72.8143 32.8163C70.9796 23.6763 64.9392 7.76717 52.8302 4.25734C43.1429 1.44948 32.0712 3.04855 27.7462 4.19906Z" fill="white"/>
<path d="M43.5947 76.9351C40.0137 74.333 39.2252 69.3276 41.8337 65.7553L44.9694 61.461C47.5779 57.8887 52.5955 57.1022 56.1766 59.7044L57.9847 61.0181C61.5657 63.6203 62.3541 68.6257 59.7456 72.198L56.61 76.4922C54.0015 80.0645 48.9838 80.851 45.4028 78.2489L43.5947 76.9351Z" fill="white"/>
<path d="M39.9023 81.8318C38.6687 80.9355 38.3971 79.2113 39.2957 77.9807L66.7046 40.4445C69.1717 42.2372 69.7149 45.6856 67.9178 48.1468L43.7628 81.2267C42.8643 82.4573 41.1359 82.7282 39.9023 81.8318Z" fill="white"/>
<path d="M41.1521 71.9884C39.9185 71.092 39.6469 69.3678 40.5455 68.1373C41.444 66.9067 43.1725 66.6358 44.406 67.5322L53.3403 74.0241C54.5739 74.9205 54.8455 76.6447 53.9469 77.8752C53.0484 79.1058 51.3199 79.3767 50.0864 78.4804L41.1521 71.9884Z" fill="white"/>
<path d="M44.4142 67.5326C43.1806 66.6362 42.909 64.912 43.8076 63.6815C44.7061 62.4509 46.4345 62.18 47.6681 63.0764L56.6024 69.5684C57.8359 70.4647 58.1075 72.1889 57.209 73.4195C56.3104 74.65 54.582 74.9209 53.3484 74.0246L44.4142 67.5326Z" fill="white"/>
<path d="M47.6681 63.0764C46.4345 62.18 46.1632 60.4555 47.0618 59.225C47.9603 57.9944 49.6888 57.7235 50.9223 58.6199L59.8566 65.1118C61.0902 66.0082 61.3617 67.7324 60.4632 68.963C59.5646 70.1935 57.8359 70.4647 56.6024 69.5684L47.6681 63.0764Z" fill="white"/>
<path fill-rule="evenodd" clip-rule="evenodd" d="M68.5634 90.3622C64.6515 91.4583 63.8758 95.2932 65.684 98.4174L135.229 222.921C136.302 224.775 137.493 227.114 138.791 229.663L138.793 229.669C141.237 234.466 144.073 239.565 146.941 244.52C147.123 245.042 147.454 245.543 147.781 246.039C147.945 246.287 148.107 246.533 148.251 246.781C151.969 253.206 160.253 255.379 166.753 251.635C173.252 247.892 175.508 239.649 171.789 233.224C170.559 231.348 169.702 230.118 168.447 228.427C168.419 228.384 168.391 228.342 168.365 228.303C138.895 184.68 79.9426 99.1311 77.0747 95.4273L76.4777 94.6543C73.3747 90.6259 72.3533 89.3005 68.5634 90.3622ZM163.614 246.524C167.438 244.321 168.749 239.443 166.541 235.628C164.333 231.813 159.442 230.506 155.618 232.708C151.794 234.911 150.484 239.789 152.691 243.604C154.899 247.419 159.79 248.726 163.614 246.524Z" fill="white"/>
<path d="M34.8869 51.7421C30.0684 58.7193 21.6055 70.8595 17.8374 75.9012C13.9144 72.7174 10.381 68.1302 8.05393 61.2125C2.93838 46.0058 4.10453 33.328 5.32705 28.8899L34.8869 51.7421Z" fill="white"/>
<path d="M56.6024 69.5684L47.6681 63.0764M56.6024 69.5684C57.836 70.4647 58.1075 72.1889 57.209 73.4195C56.3104 74.65 54.582 74.9209 53.3484 74.0246L44.4142 67.5326C43.1806 66.6362 42.909 64.912 43.8076 63.6815C44.7061 62.4509 46.4345 62.18 47.6681 63.0764M56.6024 69.5684C57.836 70.4647 59.5646 70.1935 60.4632 68.9629C61.3617 67.7324 61.0902 66.0082 59.8566 65.1118L50.9223 58.6199C49.6888 57.7235 47.9603 57.9944 47.0618 59.225C46.1632 60.4555 46.4345 62.18 47.6681 63.0764M36.7481 49.8539L9.33913 87.3901C8.44058 88.6206 8.71216 90.3448 9.94573 91.2412C11.1793 92.1375 12.9077 91.8666 13.8063 90.6361L37.9613 57.5561C39.7584 55.095 39.2152 51.6466 36.7481 49.8539ZM24.0375 83.9653C23.139 85.1959 21.4105 85.4668 20.177 84.5704L11.2427 78.0784C10.0091 77.1821 9.73755 75.4579 10.6361 74.2273C11.5347 72.9968 13.2631 72.7259 14.4966 73.6222L23.4309 80.1142C24.6645 81.0106 24.9361 82.7348 24.0375 83.9653ZM21.0584 88.2621C20.1599 89.4926 18.4314 89.7635 17.1979 88.8672L8.2636 82.3752C7.03003 81.4788 6.75845 79.7546 7.657 78.5241C8.55555 77.2935 10.284 77.0226 11.5175 77.919L20.4518 84.4109C21.6854 85.3073 21.957 87.0315 21.0584 88.2621ZM21.2233 11.8335L27.7462 4.19906C32.0712 3.04855 43.1429 1.44948 52.8302 4.25734C64.9392 7.76717 70.9796 23.6763 72.8143 32.8163C74.649 41.9563 74.7934 77.777 79.8718 86.0541C83.9346 92.6758 144.15 177.713 173.75 219.404C176.123 223.255 180.894 232.494 180.996 238.64C181.123 246.322 177.065 258.712 167.362 260.853C157.66 262.994 148.414 263.437 139.633 250.255C132.609 239.709 81.9271 148.061 57.4643 103.555C53.4045 98.2817 43.7512 87.1247 37.6162 84.6836C29.9476 81.6323 14.4457 80.2202 8.05128 61.2118C2.93574 46.0051 4.10189 33.3272 5.32441 28.8891L35.0264 51.8512L44.9789 39.9437L44.7124 25.3048L21.2233 11.8335ZM56.61 76.4922L59.7456 72.198C62.3541 68.6257 61.5657 63.6203 57.9847 61.0181L56.1766 59.7044C52.5955 57.1022 47.5779 57.8887 44.9694 61.461L41.8337 65.7553C39.2252 69.3276 40.0137 74.333 43.5947 76.9351L45.4028 78.2489C48.9838 80.851 54.0015 80.0645 56.61 76.4922ZM66.7046 40.4445L39.2957 77.9807C38.3971 79.2113 38.6687 80.9355 39.9023 81.8318C41.1359 82.7282 42.8643 82.4573 43.7628 81.2267L67.9178 48.1468C69.7149 45.6856 69.1717 42.2372 66.7046 40.4445ZM53.9469 77.8752C53.0484 79.1058 51.3199 79.3767 50.0864 78.4804L41.1521 71.9884C39.9185 71.092 39.6469 69.3678 40.5455 68.1373C41.444 66.9067 43.1725 66.6358 44.406 67.5322L53.3403 74.0241C54.5739 74.9205 54.8455 76.6447 53.9469 77.8752ZM65.684 98.4173C63.8758 95.2932 64.6515 91.4583 68.5634 90.3622C72.3533 89.3005 73.3747 90.6259 76.4777 94.6543L77.0747 95.4273C79.9427 99.1311 138.895 184.68 168.365 228.303C168.391 228.342 168.419 228.384 168.447 228.427C169.702 230.118 170.559 231.348 171.789 233.224C175.508 239.649 173.252 247.892 166.753 251.635C160.253 255.379 151.969 253.206 148.251 246.781C148.108 246.533 147.945 246.287 147.781 246.039C147.454 245.543 147.123 245.042 146.941 244.52C144.073 239.565 141.237 234.466 138.793 229.669L138.791 229.663C137.493 227.114 136.302 224.775 135.229 222.921L65.684 98.4173ZM166.541 235.628C168.749 239.443 167.438 244.321 163.614 246.524C159.79 248.726 154.899 247.419 152.691 243.604C150.484 239.789 151.794 234.911 155.618 232.708C159.442 230.506 164.333 231.813 166.541 235.628ZM34.8869 51.7421C30.0684 58.7193 21.6055 70.8595 17.8374 75.9012C13.9144 72.7174 10.381 68.1302 8.05393 61.2125C2.93838 46.0058 4.10453 33.328 5.32705 28.8899L34.8869 51.7421Z" stroke="#2C2C2C" stroke-width="1.68"/>
</svg>
