<svg width="198" height="240" viewBox="0 0 198 240" fill="none" xmlns="http://www.w3.org/2000/svg">
<path d="M197.168 140.915C197.168 195.179 153.216 239.168 99 239.168C44.7842 239.168 0.832313 195.179 0.832313 140.915C0.832313 86.6506 44.7842 42.6619 99 42.6619C153.216 42.6619 197.168 86.6506 197.168 140.915Z" fill="white" stroke="#2C2C2C" stroke-width="1.66463"/>
<path d="M180.579 140.915C180.579 186.004 144.059 222.554 99.0106 222.554C53.962 222.554 17.4417 186.004 17.4417 140.915C17.4417 95.8254 53.962 59.2747 99.0106 59.2747C144.059 59.2747 180.579 95.8254 180.579 140.915Z" fill="white" stroke="#2C2C2C" stroke-width="1.66463"/>
<mask id="path-3-outside-1_267_26458" maskUnits="userSpaceOnUse" x="92.3008" y="66.7183" width="13" height="17" fill="black">
<rect fill="white" x="92.3008" y="66.7183" width="13" height="17"/>
<path d="M93.4795 82.7183V67.083H95.295L101.212 77.2075L102.899 80.4114H103.006C102.899 78.8522 102.771 77.1434 102.771 75.5414V67.083H104.458V82.7183H102.621L96.7475 72.5938L95.0387 69.3899H94.9319C95.0174 70.9491 95.1455 72.5297 95.1455 74.1531V82.7183H93.4795Z"/>
</mask>
<path d="M93.4795 82.7183V67.083H95.295L101.212 77.2075L102.899 80.4114H103.006C102.899 78.8522 102.771 77.1434 102.771 75.5414V67.083H104.458V82.7183H102.621L96.7475 72.5938L95.0387 69.3899H94.9319C95.0174 70.9491 95.1455 72.5297 95.1455 74.1531V82.7183H93.4795Z" fill="#2C2C2C"/>
<path d="M93.4795 82.7183H93.1828V83.0149H93.4795V82.7183ZM93.4795 67.083V66.7864H93.1828V67.083H93.4795ZM95.295 67.083L95.5512 66.9334L95.4653 66.7864H95.295V67.083ZM101.212 77.2075L101.474 77.0691L101.468 77.0578L101.212 77.2075ZM102.899 80.4114L102.637 80.5497L102.72 80.7081H102.899V80.4114ZM103.006 80.4114V80.7081H103.324L103.302 80.3912L103.006 80.4114ZM102.771 67.083V66.7864H102.474V67.083H102.771ZM104.458 67.083H104.755V66.7864H104.458V67.083ZM104.458 82.7183V83.0149H104.755V82.7183H104.458ZM102.621 82.7183L102.365 82.8671L102.451 83.0149H102.621V82.7183ZM96.7475 72.5938L96.4856 72.7335L96.4909 72.7427L96.7475 72.5938ZM95.0387 69.3899L95.3005 69.2503L95.2167 69.0932H95.0387V69.3899ZM94.9319 69.3899V69.0932H94.6186L94.6357 69.4061L94.9319 69.3899ZM95.1455 82.7183V83.0149H95.4422V82.7183H95.1455ZM93.7761 82.7183V67.083H93.1828V82.7183H93.7761ZM93.4795 67.3797H95.295V66.7864H93.4795V67.3797ZM95.0389 67.2327L100.956 77.3572L101.468 77.0578L95.5512 66.9334L95.0389 67.2327ZM100.949 77.3457L102.637 80.5497L103.162 80.2732L101.474 77.0692L100.949 77.3457ZM102.899 80.7081H103.006V80.1148H102.899V80.7081ZM103.302 80.3912C103.195 78.8278 103.068 77.1309 103.068 75.5414H102.474C102.474 77.1559 102.603 78.8765 102.71 80.4317L103.302 80.3912ZM103.068 75.5414V67.083H102.474V75.5414H103.068ZM102.771 67.3797H104.458V66.7864H102.771V67.3797ZM104.162 67.083V82.7183H104.755V67.083H104.162ZM104.458 82.4216H102.621V83.0149H104.458V82.4216ZM102.878 82.5694L97.0041 72.4449L96.4909 72.7427L102.365 82.8671L102.878 82.5694ZM97.0092 72.4542L95.3005 69.2503L94.777 69.5295L96.4857 72.7334L97.0092 72.4542ZM95.0387 69.0932H94.9319V69.6865H95.0387V69.0932ZM94.6357 69.4061C94.7217 70.9754 94.8488 72.5406 94.8488 74.1531H95.4422C95.4422 72.5189 95.313 70.9228 95.2281 69.3736L94.6357 69.4061ZM94.8488 74.1531V82.7183H95.4422V74.1531H94.8488ZM95.1455 82.4216H93.4795V83.0149H95.1455V82.4216Z" fill="#2C2C2C" mask="url(#path-3-outside-1_267_26458)"/>
<mask id="path-5-outside-2_267_26458" maskUnits="userSpaceOnUse" x="162.562" y="133.574" width="11" height="17" fill="black">
<rect fill="white" x="162.562" y="133.574" width="11" height="17"/>
<path d="M163.741 149.574V133.939H172.648V135.434H165.514V140.582H171.516V142.077H165.514V148.079H172.883V149.574H163.741Z"/>
</mask>
<path d="M163.741 149.574V133.939H172.648V135.434H165.514V140.582H171.516V142.077H165.514V148.079H172.883V149.574H163.741Z" fill="#2C2C2C"/>
<path d="M163.741 149.574H163.445V149.871H163.741V149.574ZM163.741 133.939V133.642H163.445V133.939H163.741ZM172.648 133.939H172.945V133.642H172.648V133.939ZM172.648 135.434V135.731H172.945V135.434H172.648ZM165.514 135.434V135.137H165.217V135.434H165.514ZM165.514 140.582H165.217V140.878H165.514V140.582ZM171.516 140.582H171.813V140.285H171.516V140.582ZM171.516 142.077V142.374H171.813V142.077H171.516ZM165.514 142.077V141.78H165.217V142.077H165.514ZM165.514 148.079H165.217V148.376H165.514V148.079ZM172.883 148.079H173.18V147.782H172.883V148.079ZM172.883 149.574V149.871H173.18V149.574H172.883ZM164.038 149.574V133.939H163.445V149.574H164.038ZM163.741 134.236H172.648V133.642H163.741V134.236ZM172.351 133.939V135.434H172.945V133.939H172.351ZM172.648 135.137H165.514V135.731H172.648V135.137ZM165.217 135.434V140.582H165.811V135.434H165.217ZM165.514 140.878H171.516V140.285H165.514V140.878ZM171.219 140.582V142.077H171.813V140.582H171.219ZM171.516 141.78H165.514V142.374H171.516V141.78ZM165.217 142.077V148.079H165.811V142.077H165.217ZM165.514 148.376H172.883V147.782H165.514V148.376ZM172.586 148.079V149.574H173.18V148.079H172.586ZM172.883 149.278H163.741V149.871H172.883V149.278Z" fill="#2C2C2C" mask="url(#path-5-outside-2_267_26458)"/>
<mask id="path-7-outside-3_267_26458" maskUnits="userSpaceOnUse" x="22.5195" y="133.574" width="19" height="17" fill="black">
<rect fill="white" x="22.5195" y="133.574" width="19" height="17"/>
<path d="M26.4711 149.574L23.0962 133.939H24.9118L26.6419 142.632C26.9623 144.298 27.2827 145.986 27.6031 147.695H27.6886C28.0517 145.986 28.4361 144.298 28.8206 142.632L31.042 133.939H32.6867L34.9295 142.632C35.3139 144.277 35.6984 145.986 36.0829 147.695H36.1897C36.4887 145.986 36.7877 144.298 37.1081 142.632L38.8169 133.939H40.5257L37.2363 149.574H35.1431L32.644 139.834C32.3877 138.617 32.1314 137.506 31.875 136.289H31.7682C31.5333 137.506 31.2342 138.617 30.9779 139.834L28.5429 149.574H26.4711Z"/>
</mask>
<path d="M26.4711 149.574L23.0962 133.939H24.9118L26.6419 142.632C26.9623 144.298 27.2827 145.986 27.6031 147.695H27.6886C28.0517 145.986 28.4361 144.298 28.8206 142.632L31.042 133.939H32.6867L34.9295 142.632C35.3139 144.277 35.6984 145.986 36.0829 147.695H36.1897C36.4887 145.986 36.7877 144.298 37.1081 142.632L38.8169 133.939H40.5257L37.2363 149.574H35.1431L32.644 139.834C32.3877 138.617 32.1314 137.506 31.875 136.289H31.7682C31.5333 137.506 31.2342 138.617 30.9779 139.834L28.5429 149.574H26.4711Z" fill="#2C2C2C"/>
<path d="M26.4711 149.574L26.1811 149.637L26.2316 149.871H26.4711V149.574ZM23.0962 133.939V133.642H22.7287L22.8063 134.002L23.0962 133.939ZM24.9118 133.939L25.2028 133.881L25.1552 133.642H24.9118V133.939ZM26.6419 142.632L26.9333 142.576L26.9329 142.574L26.6419 142.632ZM27.6031 147.695L27.3115 147.749L27.3569 147.991H27.6031V147.695ZM27.6886 147.695V147.991H27.9288L27.9787 147.756L27.6886 147.695ZM28.8206 142.632L28.5331 142.559L28.5315 142.566L28.8206 142.632ZM31.042 133.939V133.642H30.8116L30.7546 133.866L31.042 133.939ZM32.6867 133.939L32.974 133.865L32.9165 133.642H32.6867V133.939ZM34.9295 142.632L35.2184 142.565L35.2167 142.558L34.9295 142.632ZM36.0829 147.695L35.7935 147.76L35.8456 147.991H36.0829V147.695ZM36.1897 147.695V147.991H36.4389L36.4819 147.746L36.1897 147.695ZM37.1081 142.632L36.817 142.575L36.8168 142.576L37.1081 142.632ZM38.8169 133.939V133.642H38.5729L38.5258 133.882L38.8169 133.939ZM40.5257 133.939L40.816 134L40.8912 133.642H40.5257V133.939ZM37.2363 149.574V149.871H37.477L37.5266 149.635L37.2363 149.574ZM35.1431 149.574L34.8557 149.648L34.9129 149.871H35.1431V149.574ZM32.644 139.834L32.3534 139.895L32.3566 139.908L32.644 139.834ZM31.875 136.289L32.1653 136.227L32.1157 135.992H31.875V136.289ZM31.7682 136.289V135.992H31.5234L31.477 136.232L31.7682 136.289ZM30.9779 139.834L31.2659 139.906L31.2682 139.895L30.9779 139.834ZM28.5429 149.574V149.871H28.7746L28.8307 149.646L28.5429 149.574ZM26.761 149.512L23.3862 133.876L22.8063 134.002L26.1811 149.637L26.761 149.512ZM23.0962 134.236H24.9118V133.642H23.0962V134.236ZM24.6209 133.997L26.351 142.69L26.9329 142.574L25.2028 133.881L24.6209 133.997ZM26.3506 142.688C26.6709 144.354 26.9912 146.041 27.3115 147.749L27.8947 147.64C27.5742 145.931 27.2537 144.243 26.9333 142.576L26.3506 142.688ZM27.6031 147.991H27.6886V147.398H27.6031V147.991ZM27.9787 147.756C28.3413 146.05 28.7253 144.365 29.1097 142.699L28.5315 142.566C28.147 144.232 27.762 145.922 27.3984 147.633L27.9787 147.756ZM29.108 142.706L31.3294 134.012L30.7546 133.866L28.5332 142.559L29.108 142.706ZM31.042 134.236H32.6867V133.642H31.042V134.236ZM32.3994 134.013L34.6422 142.706L35.2167 142.558L32.974 133.865L32.3994 134.013ZM34.6406 142.7C35.0247 144.343 35.4089 146.051 35.7935 147.76L36.3723 147.629C35.9879 145.921 35.6031 144.211 35.2183 142.565L34.6406 142.7ZM36.0829 147.991H36.1897V147.398H36.0829V147.991ZM36.4819 147.746C36.7809 146.037 37.0796 144.352 37.3995 142.688L36.8168 142.576C36.4959 144.245 36.1965 145.934 35.8975 147.643L36.4819 147.746ZM37.3992 142.69L39.108 133.996L38.5258 133.882L36.817 142.575L37.3992 142.69ZM38.8169 134.236H40.5257V133.642H38.8169V134.236ZM40.2354 133.878L36.946 149.513L37.5266 149.635L40.816 134L40.2354 133.878ZM37.2363 149.278H35.1431V149.871H37.2363V149.278ZM35.4304 149.5L32.9313 139.761L32.3566 139.908L34.8557 149.648L35.4304 149.5ZM32.9343 139.773C32.8058 139.163 32.6773 138.579 32.5492 137.998C32.421 137.415 32.2932 136.835 32.1653 136.227L31.5847 136.35C31.7132 136.96 31.8417 137.543 31.9698 138.125C32.098 138.707 32.2259 139.288 32.3537 139.895L32.9343 139.773ZM31.875 135.992H31.7682V136.585H31.875V135.992ZM31.477 136.232C31.2404 137.458 30.9507 138.524 30.6876 139.773L31.2682 139.895C31.5178 138.71 31.8262 137.554 32.0595 136.345L31.477 136.232ZM30.6901 139.762L28.2551 149.502L28.8307 149.646L31.2657 139.906L30.6901 139.762ZM28.5429 149.278H26.4711V149.871H28.5429V149.278Z" fill="#2C2C2C" mask="url(#path-7-outside-3_267_26458)"/>
<mask id="path-9-outside-4_267_26458" maskUnits="userSpaceOnUse" x="92.7812" y="199.43" width="13" height="18" fill="black">
<rect fill="white" x="92.7812" y="199.43" width="13" height="18"/>
<path d="M99.2319 216.708C97.0105 216.708 95.1522 215.811 93.8065 214.38L94.8745 213.162C96.0066 214.38 97.5872 215.149 99.2532 215.149C101.389 215.149 102.692 214.059 102.692 212.457C102.692 210.77 101.517 210.236 100.022 209.574L97.758 208.57C96.3056 207.95 94.5755 206.882 94.5755 204.597C94.5755 202.226 96.626 200.517 99.4027 200.517C101.282 200.517 102.884 201.308 103.952 202.44L103.013 203.572C102.051 202.653 100.898 202.077 99.4027 202.077C97.5872 202.077 96.3697 202.995 96.3697 204.469C96.3697 206.071 97.7794 206.669 98.9755 207.181L101.24 208.143C103.034 208.933 104.486 210.001 104.486 212.329C104.486 214.785 102.457 216.708 99.2319 216.708Z"/>
</mask>
<path d="M99.2319 216.708C97.0105 216.708 95.1522 215.811 93.8065 214.38L94.8745 213.162C96.0066 214.38 97.5872 215.149 99.2532 215.149C101.389 215.149 102.692 214.059 102.692 212.457C102.692 210.77 101.517 210.236 100.022 209.574L97.758 208.57C96.3056 207.95 94.5755 206.882 94.5755 204.597C94.5755 202.226 96.626 200.517 99.4027 200.517C101.282 200.517 102.884 201.308 103.952 202.44L103.013 203.572C102.051 202.653 100.898 202.077 99.4027 202.077C97.5872 202.077 96.3697 202.995 96.3697 204.469C96.3697 206.071 97.7794 206.669 98.9755 207.181L101.24 208.143C103.034 208.933 104.486 210.001 104.486 212.329C104.486 214.785 102.457 216.708 99.2319 216.708Z" fill="#2C2C2C"/>
<path d="M93.8065 214.38L93.5835 214.184L93.4058 214.387L93.5904 214.583L93.8065 214.38ZM94.8745 213.162L95.0917 212.96L94.8681 212.72L94.6515 212.967L94.8745 213.162ZM100.022 209.574L99.9019 209.845L99.902 209.845L100.022 209.574ZM97.758 208.57L97.8783 208.299L97.8744 208.297L97.758 208.57ZM103.952 202.44L104.181 202.629L104.348 202.427L104.168 202.236L103.952 202.44ZM103.012 203.572L102.808 203.786L103.038 204.006L103.241 203.761L103.012 203.572ZM98.9755 207.181L98.8587 207.454L98.8596 207.455L98.9755 207.181ZM101.24 208.143L101.359 207.871L101.356 207.87L101.24 208.143ZM99.2319 216.411C97.096 216.411 95.3148 215.551 94.0226 214.176L93.5904 214.583C94.9895 216.071 96.9249 217.005 99.2319 217.005V216.411ZM94.0295 214.575L95.0975 213.358L94.6515 212.967L93.5835 214.184L94.0295 214.575ZM94.6572 213.364C95.8387 214.635 97.4954 215.445 99.2532 215.445V214.852C97.6789 214.852 96.1744 214.124 95.0917 212.96L94.6572 213.364ZM99.2532 215.445C100.369 215.445 101.3 215.161 101.959 214.636C102.624 214.105 102.989 213.346 102.989 212.457H102.395C102.395 213.17 102.109 213.757 101.589 214.172C101.062 214.592 100.274 214.852 99.2532 214.852V215.445ZM102.989 212.457C102.989 211.529 102.659 210.893 102.115 210.409C101.593 209.945 100.878 209.628 100.142 209.302L99.902 209.845C100.661 210.181 101.282 210.462 101.721 210.853C102.138 211.224 102.395 211.698 102.395 212.457H102.989ZM100.142 209.303L97.8783 208.299L97.6378 208.841L99.9019 209.845L100.142 209.303ZM97.8744 208.297C96.4378 207.684 94.8721 206.687 94.8721 204.597H94.2788C94.2788 207.077 96.1734 208.217 97.6417 208.843L97.8744 208.297ZM94.8721 204.597C94.8721 202.436 96.7398 200.814 99.4027 200.814V200.221C96.5121 200.221 94.2788 202.016 94.2788 204.597H94.8721ZM99.4027 200.814C101.197 200.814 102.722 201.568 103.737 202.643L104.168 202.236C103.046 201.047 101.367 200.221 99.4027 200.221V200.814ZM103.724 202.25L102.784 203.382L103.241 203.761L104.181 202.629L103.724 202.25ZM103.217 203.357C102.21 202.395 100.986 201.78 99.4027 201.78V202.373C100.81 202.373 101.892 202.912 102.808 203.786L103.217 203.357ZM99.4027 201.78C98.4483 201.78 97.62 202.021 97.0231 202.486C96.4188 202.957 96.073 203.641 96.073 204.469H96.6663C96.6663 203.822 96.9293 203.311 97.3877 202.954C97.8534 202.591 98.5416 202.373 99.4027 202.373V201.78ZM96.073 204.469C96.073 205.375 96.4791 206.004 97.0353 206.463C97.5762 206.908 98.2697 207.202 98.8587 207.454L99.0924 206.909C98.4852 206.649 97.8758 206.387 97.4128 206.005C96.9651 205.636 96.6663 205.164 96.6663 204.469H96.073ZM98.8596 207.455L101.124 208.416L101.356 207.87L99.0915 206.908L98.8596 207.455ZM101.12 208.414C102.004 208.803 102.77 209.247 103.315 209.857C103.851 210.457 104.19 211.235 104.19 212.329H104.783C104.783 211.095 104.395 210.175 103.757 209.461C103.127 208.757 102.27 208.272 101.359 207.871L101.12 208.414ZM104.19 212.329C104.19 213.471 103.72 214.484 102.874 215.215C102.027 215.949 100.786 216.411 99.2319 216.411V217.005C100.903 217.005 102.289 216.506 103.263 215.664C104.238 214.82 104.783 213.644 104.783 212.329H104.19Z" fill="#2C2C2C" mask="url(#path-9-outside-4_267_26458)"/>
<path fill-rule="evenodd" clip-rule="evenodd" d="M98.9916 40.3461C110.123 40.3461 119.147 31.3143 119.147 20.1731C119.147 9.03178 110.123 0 98.9916 0C87.8599 0 78.8359 9.03178 78.8359 20.1731C78.8359 31.3143 87.8599 40.3461 98.9916 40.3461ZM98.9888 35.5995C107.501 35.5995 114.402 28.6928 114.402 20.173C114.402 11.6532 107.501 4.74658 98.9888 4.74658C90.4763 4.74658 83.5756 11.6532 83.5756 20.173C83.5756 28.6928 90.4763 35.5995 98.9888 35.5995Z" fill="#2C2C2C"/>
<rect x="92.1797" y="29.3691" width="13.6347" height="33.8195" rx="6.81737" fill="#2C2C2C"/>
<mask id="path-13-inside-5_267_26458" fill="white">
<path fill-rule="evenodd" clip-rule="evenodd" d="M104.875 131.74C106.239 132.651 107.409 133.823 108.319 135.188L135.451 175.87C136.052 176.772 134.978 177.846 134.077 177.245L93.4303 150.09C92.0666 149.179 90.8961 148.007 89.9859 146.642L62.8543 105.96C62.2529 105.058 63.3269 103.983 64.2279 104.585L104.875 131.74ZM99.3316 147.825C103.145 147.825 106.236 144.731 106.236 140.915C106.236 137.099 103.145 134.005 99.3316 134.005C95.5185 134.005 92.4274 137.099 92.4274 140.915C92.4274 144.731 95.5185 147.825 99.3316 147.825Z"/>
</mask>
<path fill-rule="evenodd" clip-rule="evenodd" d="M104.875 131.74C106.239 132.651 107.409 133.823 108.319 135.188L135.451 175.87C136.052 176.772 134.978 177.846 134.077 177.245L93.4303 150.09C92.0666 149.179 90.8961 148.007 89.9859 146.642L62.8543 105.96C62.2529 105.058 63.3269 103.983 64.2279 104.585L104.875 131.74ZM99.3316 147.825C103.145 147.825 106.236 144.731 106.236 140.915C106.236 137.099 103.145 134.005 99.3316 134.005C95.5185 134.005 92.4274 137.099 92.4274 140.915C92.4274 144.731 95.5185 147.825 99.3316 147.825Z" fill="#2C2C2C"/>
<path d="M108.319 135.188L108.566 135.023H108.566L108.319 135.188ZM104.875 131.74L104.71 131.987L104.875 131.74ZM135.451 175.87L135.204 176.034L135.451 175.87ZM134.077 177.245L134.242 176.998L134.077 177.245ZM93.4303 150.09L93.2655 150.336L93.4303 150.09ZM89.9859 146.642L90.2327 146.478L89.9859 146.642ZM62.8543 105.96L63.1011 105.796L62.8543 105.96ZM64.2279 104.585L64.3927 104.339L64.2279 104.585ZM108.566 135.023C107.634 133.626 106.436 132.426 105.04 131.494L104.71 131.987C106.041 132.876 107.184 134.02 108.072 135.352L108.566 135.023ZM135.698 175.705L108.566 135.023L108.072 135.352L135.204 176.034L135.698 175.705ZM133.913 177.491C135.085 178.274 136.478 176.875 135.698 175.705L135.204 176.034C135.626 176.668 134.872 177.419 134.242 176.998L133.913 177.491ZM93.2655 150.336L133.913 177.491L134.242 176.998L93.5951 149.843L93.2655 150.336ZM89.7391 146.807C90.671 148.204 91.8694 149.404 93.2655 150.336L93.5951 149.843C92.2639 148.954 91.1213 147.81 90.2327 146.478L89.7391 146.807ZM62.6075 106.125L89.7391 146.807L90.2327 146.478L63.1011 105.796L62.6075 106.125ZM64.3927 104.339C63.2206 103.556 61.827 104.955 62.6075 106.125L63.1011 105.796C62.6788 105.162 63.4333 104.411 64.0631 104.832L64.3927 104.339ZM105.04 131.494L64.3927 104.339L64.0631 104.832L104.71 131.987L105.04 131.494ZM105.939 140.915C105.939 144.568 102.981 147.528 99.3316 147.528V148.122C103.309 148.122 106.532 144.895 106.532 140.915H105.939ZM99.3316 134.302C102.981 134.302 105.939 137.262 105.939 140.915H106.532C106.532 136.935 103.309 133.708 99.3316 133.708V134.302ZM92.7241 140.915C92.7241 137.262 95.6826 134.302 99.3316 134.302V133.708C95.3544 133.708 92.1308 136.935 92.1308 140.915H92.7241ZM99.3316 147.528C95.6826 147.528 92.7241 144.568 92.7241 140.915H92.1308C92.1308 144.895 95.3544 148.122 99.3316 148.122V147.528Z" fill="#2C2C2C" mask="url(#path-13-inside-5_267_26458)"/>
<path d="M125.724 75.3047L122.754 81.2498" stroke="#2C2C2C" stroke-width="1.66462" stroke-linecap="round"/>
<path d="M162.356 114.938L155.426 117.911" stroke="#2C2C2C" stroke-width="1.66462" stroke-linecap="round"/>
<path d="M150.471 91.1582L144.531 96.1125" stroke="#2C2C2C" stroke-width="1.66462" stroke-linecap="round"/>
<path d="M125.724 207.088L122.754 201.143" stroke="#2C2C2C" stroke-width="1.66462" stroke-linecap="round"/>
<path d="M162.356 167.454L155.426 164.482" stroke="#2C2C2C" stroke-width="1.66462" stroke-linecap="round"/>
<path d="M150.471 191.235L144.531 186.281" stroke="#2C2C2C" stroke-width="1.66462" stroke-linecap="round"/>
<path d="M68.3269 75.3047L71.2969 81.2498" stroke="#2C2C2C" stroke-width="1.66462" stroke-linecap="round"/>
<path d="M31.695 114.938L38.625 117.911" stroke="#2C2C2C" stroke-width="1.66462" stroke-linecap="round"/>
<path d="M43.5795 91.1582L49.5195 96.1125" stroke="#2C2C2C" stroke-width="1.66462" stroke-linecap="round"/>
<path d="M68.3269 207.088L71.2969 201.143" stroke="#2C2C2C" stroke-width="1.66462" stroke-linecap="round"/>
<path d="M31.695 167.454L38.625 164.482" stroke="#2C2C2C" stroke-width="1.66462" stroke-linecap="round"/>
<path d="M43.5795 191.235L49.5195 186.281" stroke="#2C2C2C" stroke-width="1.66462" stroke-linecap="round"/>
</svg>
