<svg width="199" height="49" viewBox="0 0 199 49" fill="none" xmlns="http://www.w3.org/2000/svg">
<path d="M173.494 6.98972C173.64 7.17048 173.804 7.26086 173.986 7.26086C174.57 7.18856 175.245 6.01362 176.011 3.73605C176.522 2.7961 176.813 2.14536 176.886 1.78384C176.959 1.42232 176.868 1.18733 176.613 1.07888C176.321 0.934269 175.901 0.988497 175.354 1.24156C174.843 1.45847 174.479 1.76576 174.26 2.16344C174.041 2.56111 173.822 3.22992 173.603 4.16987C173.384 5.32673 173.275 6.04977 173.275 6.33899C173.275 6.59205 173.348 6.80896 173.494 6.98972Z" fill="#A76C47"/>
<path d="M170.21 4.60369C170.611 5.43519 170.757 6.104 170.648 6.61013C170.648 7.40547 170.757 7.9116 170.976 8.12851C171.633 8.74309 172.034 8.45388 172.18 7.26086C172.217 7.04395 172.271 6.73666 172.344 6.33899C172.454 5.94132 172.49 5.70633 172.454 5.63403C172.417 5.56172 172.381 5.16405 172.344 4.44101C172.235 3.82643 172.107 3.30222 171.961 2.8684C171.596 1.67538 171.25 1.4404 170.922 2.16344C170.922 2.30804 170.794 2.43458 170.538 2.54303C170.283 2.61534 170.046 2.68764 169.827 2.75994C169.645 2.83225 169.572 2.9407 169.608 3.08531C169.645 3.22992 169.845 3.73605 170.21 4.60369Z" fill="#A76C47"/>
<path d="M175.847 7.85737C176.503 7.64046 177.324 7.24279 178.309 6.66436C179.294 6.08592 180.06 5.52557 180.608 4.98329L181.921 3.68182C182.432 3.35645 182.541 2.9407 182.249 2.43458C181.958 1.92845 181.574 1.71154 181.1 1.78384C180.954 1.78384 180.808 1.80192 180.662 1.83807C180.553 1.83807 180.462 1.85614 180.389 1.8923C180.316 1.92845 180.225 2.00075 180.115 2.10921C180.042 2.21766 179.987 2.30804 179.951 2.38035C179.915 2.4165 179.86 2.50688 179.787 2.65149C179.714 2.75994 179.659 2.83225 179.623 2.8684C179.367 3.41068 178.182 4.58562 176.066 6.39322C175.628 6.75474 175.372 7.0078 175.299 7.15241C175.227 7.26086 175.227 7.3874 175.299 7.532C175.409 7.74892 175.591 7.85737 175.847 7.85737Z" fill="#A76C47"/>
<path fill-rule="evenodd" clip-rule="evenodd" d="M185.204 8.23697C186.956 7.9116 187.831 7.36932 187.831 6.61013C187.831 5.52557 186.956 5.25443 185.204 5.79671C184.694 5.97747 183.636 6.39322 182.03 7.04395C180.425 7.65854 179.258 8.07428 178.528 8.29119C178.309 8.3635 177.817 8.58041 177.051 8.94193C176.285 9.2673 175.591 9.55651 174.971 9.80958C174.351 10.0265 173.931 10.1349 173.712 10.1349C173.64 10.1349 173.512 10.0446 173.329 9.8638C173.147 9.68304 172.946 9.68304 172.727 9.8638C172.545 9.93611 172.399 9.95418 172.29 9.91803C172.217 9.88188 172.071 9.75535 171.852 9.53844C171.669 9.24922 171.086 8.90578 170.101 8.50811C169.152 8.11044 168.55 7.80314 168.295 7.58623C167.602 7.0078 166.981 6.71858 166.434 6.71858C165.923 6.71858 165.632 7.0078 165.559 7.58623C165.559 7.9839 165.686 8.30927 165.942 8.56233C166.234 8.8154 166.708 9.06846 167.365 9.32153C168.058 9.53844 168.477 9.68304 168.623 9.75535C168.769 9.82765 168.97 9.91803 169.225 10.0265C169.48 10.1349 169.645 10.2072 169.718 10.2434C169.791 10.2796 169.882 10.388 169.991 10.5688C170.101 10.7134 170.082 10.8941 169.937 11.111C169.9 11.2195 168.915 11.5449 166.981 12.0872C166.215 12.3041 165.686 12.4487 165.394 12.521C164.92 12.6656 164.72 12.756 164.793 12.7921C164.647 12.8644 164.063 13.0452 163.041 13.3344C162.02 13.6236 161.4 13.8947 161.181 14.1478C160.962 14.4009 160.871 14.7082 160.907 15.0697C160.98 15.4312 161.199 15.7204 161.564 15.9373C161.929 16.1181 162.293 16.0819 162.658 15.8289C162.95 15.6843 163.534 15.5035 164.409 15.2866C165.322 15.0335 165.923 14.8528 166.215 14.7443C166.325 14.7082 166.507 14.6539 166.763 14.5816C168.988 13.8947 170.028 13.6959 169.882 13.9851C170.064 14.0936 170.265 14.4551 170.484 15.0697C170.703 15.6843 170.849 16.2808 170.922 16.8592L170.976 17.8353L170.265 18.486C169.973 18.8114 169.316 19.2452 168.295 19.7875C167.273 20.3298 166.671 20.7094 166.489 20.9263C166.234 21.2155 166.197 21.5047 166.38 21.794C166.598 22.0832 166.963 22.2639 167.474 22.3362C168.495 22.4808 169.681 22.2459 171.031 21.6313L171.578 21.4144L172.016 21.1974C172.125 21.1613 172.217 21.1613 172.29 21.1974C172.399 21.1974 172.472 21.2698 172.509 21.4144C172.545 21.559 172.563 21.7759 172.563 22.0651C172.563 22.5712 172.454 22.9508 172.235 23.2039C172.016 23.4208 171.524 23.71 170.757 24.0715C169.626 24.65 169.061 25.1199 169.061 25.4815C169.061 25.843 169.572 26.0237 170.593 26.0237C171.286 26.0237 171.688 26.078 171.797 26.1864C171.87 26.2949 171.907 26.6022 171.907 27.1083C171.943 27.6144 171.925 28.0121 171.852 28.3013C171.815 28.5182 171.396 28.8074 170.593 29.169C169.17 29.9281 166.981 30.6693 164.026 31.3923C163.953 31.3923 163.753 31.4285 163.424 31.5008C163.096 31.5731 162.804 31.6634 162.549 31.7719C162.293 31.8442 162.02 31.9527 161.728 32.0973C161.473 32.2419 161.272 32.4226 161.126 32.6395C161.017 32.8203 160.998 33.0372 161.071 33.2903C161.217 33.7964 161.564 34.0675 162.111 34.1037C162.658 34.1398 163.57 33.941 164.847 33.5072C166.051 33.1457 166.817 32.9288 167.146 32.8565C167.255 32.8565 167.675 32.7299 168.404 32.4769C169.134 32.1876 169.809 31.9527 170.429 31.7719C171.049 31.555 171.341 31.5008 171.305 31.6092C171.378 31.6454 171.451 31.9527 171.524 32.5311C171.596 33.0734 171.633 33.5795 171.633 34.0495C171.633 34.4833 171.615 34.7364 171.578 34.8087C171.505 34.8087 171.359 34.7544 171.14 34.646C170.958 34.5014 170.83 34.4291 170.757 34.4291C170.721 34.3929 170.611 34.3568 170.429 34.3206C170.283 34.2483 170.174 34.2302 170.101 34.2664L169.772 34.4291C169.663 34.4652 169.553 34.5737 169.444 34.7544C169.335 34.899 169.225 35.0798 169.116 35.2967C168.641 36.0198 168.058 36.7609 167.365 37.5201C166.708 38.2793 166.234 38.7312 165.942 38.8758C165.796 39.0204 165.322 39.418 164.519 40.0688C163.753 40.7195 163.096 41.2437 162.549 41.6414C162.002 42.0391 161.6 42.274 161.345 42.3463C161.017 42.4187 160.652 42.6356 160.25 42.9971C159.521 43.6478 159.466 44.2082 160.086 44.6781C160.67 45.1481 161.345 45.1301 162.111 44.6239C164.264 43.2501 165.449 42.4006 165.668 42.0752C165.923 41.7498 166.234 41.4968 166.598 41.316C167 41.0991 167.602 40.593 168.404 39.7976C169.243 39.0023 169.772 38.3877 169.991 37.9539C170.174 37.5924 170.447 37.1947 170.812 36.7609C171.177 36.327 171.414 36.1101 171.524 36.1101C171.669 36.074 171.797 36.3632 171.907 36.9778C172.016 37.5924 172.107 38.2973 172.18 39.0927C172.253 39.8519 172.326 40.3038 172.399 40.4484C172.472 40.593 172.545 41.2618 172.618 42.4548C172.727 43.6478 172.691 44.2805 172.509 44.3528C172.29 44.4974 172.071 44.407 171.852 44.0816C171.633 43.7924 171.505 43.5032 171.469 43.214C171.396 42.8886 171.232 42.5813 170.976 42.2921C170.429 41.6775 170.01 41.6775 169.718 42.2921C169.681 42.7982 169.645 43.0875 169.608 43.1598C169.608 43.2321 169.681 43.4128 169.827 43.702C169.973 43.9913 170.082 44.2262 170.155 44.407C170.046 44.5878 170.557 45.2566 171.688 46.4134C172.819 47.5703 173.494 48.0945 173.712 47.9861C174.296 47.9861 174.752 47.6245 175.081 46.9015C175.227 46.4677 175.227 45.5639 175.081 44.1901C174.971 42.8163 174.807 41.2437 174.588 39.4723C174.369 37.7008 174.241 36.544 174.205 36.0017C174.205 35.7486 174.169 35.2967 174.096 34.646C174.023 33.9952 173.968 33.471 173.931 33.0734V31.6634C173.968 31.1212 174.041 30.6873 174.15 30.362C174.296 30.0366 174.497 29.8197 174.752 29.7112C175.081 29.5305 175.683 29.2413 176.558 28.8436C177.434 28.4459 178.054 28.1748 178.419 28.0302C178.82 27.8494 179.367 27.6325 180.06 27.3794C180.79 27.0902 181.465 26.8552 182.085 26.6745C182.705 26.4937 183.38 26.3491 184.11 26.2406C185.241 26.096 185.806 25.6441 185.806 24.8849C185.806 24.3065 185.533 23.9631 184.986 23.8546C184.438 23.7462 183.508 23.8365 182.195 24.1258C180.772 24.4511 179.623 24.5054 178.747 24.2884C178.054 24.1438 177.817 23.9088 178.036 23.5835C178.182 23.3666 178.236 23.1135 178.2 22.8243C178.2 22.5351 178.109 22.3001 177.926 22.1193C177.89 21.9747 177.653 21.8663 177.215 21.794C176.777 21.7217 176.394 21.6313 176.066 21.5228C175.737 21.3782 175.664 21.1613 175.847 20.8721C175.956 20.6913 176.339 20.4383 176.996 20.1129C178.747 19.2091 179.677 18.5584 179.787 18.1607C179.896 17.7269 179.75 17.3834 179.349 17.1304C178.984 16.8411 178.546 16.805 178.036 17.0219C177.634 17.2388 177.014 17.4376 176.175 17.6184C175.336 17.7992 174.752 17.8353 174.424 17.7269L175.026 17.1304C175.391 16.7327 175.628 16.4796 175.737 16.3712C175.847 16.2627 176.047 16.0277 176.339 15.6662C176.668 15.3047 176.905 15.0335 177.051 14.8528C177.197 14.6359 177.361 14.3828 177.543 14.0936C177.726 13.7682 177.871 13.4971 177.981 13.2802C178.711 11.7979 179.24 10.9122 179.568 10.623C182.122 9.24922 184.001 8.45388 185.204 8.23697ZM174.424 12.4667C174.971 12.2498 175.299 12.0872 175.409 11.9787C175.92 11.6172 176.285 11.5629 176.503 11.816C176.613 11.9606 176.449 12.3583 176.011 13.009C175.318 14.0574 174.698 14.8889 174.15 15.5035C173.64 16.1181 173.293 16.3892 173.111 16.3169C172.965 16.2808 172.8 15.9193 172.618 15.2324C172.472 14.5093 172.436 14.0032 172.509 13.714C172.436 13.5332 172.6 13.3344 173.001 13.1175C173.402 12.8644 173.877 12.6475 174.424 12.4667ZM177.817 25.373C178.109 25.6622 178.218 25.8249 178.145 25.8611C177.963 25.9334 177.616 26.078 177.105 26.2949C176.595 26.5118 176.12 26.7106 175.683 26.8914C175.245 27.0721 174.88 27.1987 174.588 27.271C174.479 27.1987 174.424 26.8914 174.424 26.3491C174.46 25.8068 174.552 25.4092 174.698 25.1561C174.77 24.9392 174.989 24.7223 175.354 24.5054C175.756 24.2884 176.102 24.18 176.394 24.18C176.43 24.1438 176.613 24.2523 176.941 24.5054C177.27 24.7584 177.561 25.0476 177.817 25.373Z" fill="#A76C47"/>
<path d="M194.234 41.9125C194.599 41.7318 194.854 41.3883 195 40.8822C195 39.8699 193.869 39.0927 191.607 38.5504C190.659 38.3335 189.801 38.0262 189.035 37.6285C188.305 37.2308 187.521 36.9597 186.682 36.8151C186.427 36.7789 186.08 36.5801 185.642 36.2186C185.241 35.8209 184.84 35.6402 184.438 35.6763C184.292 35.6763 184.074 35.6402 183.782 35.5679C183.49 35.4955 183.271 35.4594 183.125 35.4594C182.979 35.4594 182.815 35.5136 182.632 35.6221C182.487 35.7305 182.651 36.074 183.125 36.6524C183.599 37.1947 184.146 37.737 184.767 38.2793C185.387 38.7854 185.806 39.0384 186.025 39.0384C186.354 39.1107 186.828 39.3096 187.448 39.6349C188.068 39.9603 188.506 40.1591 188.762 40.2315C189.017 40.2676 189.4 40.4122 189.911 40.6653C190.458 40.9183 190.969 41.1533 191.443 41.3702C191.954 41.5872 192.446 41.7679 192.921 41.9125C193.431 42.0571 193.869 42.0571 194.234 41.9125Z" fill="#A76C47"/>
<path d="M120.795 5.95944C120.284 6.32096 119.974 6.93554 119.864 7.80319C119.791 8.12855 119.646 8.50815 119.427 8.94197C119.208 9.33965 119.044 9.71924 118.934 10.0808C116.818 16.7327 114.374 22.3905 111.601 27.0541C111.528 27.2349 111.346 27.5422 111.054 27.976C110.799 28.3737 110.58 28.7352 110.397 29.0605C110.215 29.3859 110.051 29.7474 109.905 30.1451C109.759 30.5066 109.741 30.832 109.85 31.1212C109.996 31.3743 110.27 31.555 110.671 31.6635C110.999 31.6635 111.273 31.5731 111.492 31.3923C111.711 31.2116 112.002 30.7597 112.367 30.0366C112.55 29.7113 112.933 29.0244 113.516 27.976C114.137 26.9276 114.684 25.9696 115.158 25.1019C115.632 24.2343 115.906 23.6558 115.979 23.3666C116.052 23.0412 116.545 22.029 117.457 20.3298C117.785 19.7153 118.004 19.2995 118.113 19.0826L118.332 18.4319C118.515 18.1427 118.989 16.8231 119.755 14.4732C120.521 12.0872 121.214 10.6592 121.834 10.1892C122.017 10.1531 122.765 10.2977 124.078 10.623C125.428 10.9123 126.176 11.0569 126.322 11.0569C126.614 11.0207 127.088 11.2376 127.745 11.7076C128.401 12.1414 128.894 12.286 129.222 12.1414C129.514 12.1776 129.733 11.9607 129.879 11.4907C130.061 10.9846 130.025 10.605 129.769 10.3519C129.332 9.5204 127.745 8.85159 125.008 8.34547C124.826 8.27316 124.461 8.20086 123.914 8.12855C123.403 8.0201 123.038 7.87549 122.82 7.69473C122.637 7.51397 122.637 7.22476 122.82 6.82708C122.929 6.53787 122.965 6.35711 122.929 6.2848C122.929 6.17635 122.856 6.06789 122.71 5.95944C121.98 5.56177 121.342 5.56177 120.795 5.95944Z" fill="#A76C47"/>
<path d="M144.052 34.9714C143.906 35.1522 143.833 35.3148 143.833 35.4594C143.833 35.6764 144.362 36.1825 145.42 36.9778C146.515 37.737 147.5 38.3154 148.375 38.7131C148.704 38.8216 149.233 39.1831 149.962 39.7977C150.729 40.3761 151.276 40.6472 151.604 40.6111C152.078 40.5749 152.516 40.2677 152.918 39.6892C153.355 39.0746 153.483 38.442 153.301 37.7912C153.228 37.3574 153.191 36.7428 153.191 35.9475C153.228 35.116 153.264 34.0134 153.301 32.6396C153.337 31.2297 153.337 30.1993 153.301 29.5486C153.191 29.3678 153.228 28.7894 153.41 27.8133C153.592 26.8372 153.611 26.2407 153.465 26.0238C153.465 25.4815 153.447 24.2523 153.41 22.3363C153.374 20.4202 153.337 18.938 153.301 17.8896C153.301 16.8412 153.246 15.6301 153.136 14.2563C153.027 12.8464 152.899 11.7618 152.753 11.0026C152.68 10.135 152.571 9.53848 152.425 9.21311C152.316 8.88775 152.115 8.67083 151.823 8.56238C151.385 8.45392 151.02 8.472 150.729 8.61661C150.692 8.65276 150.564 8.76121 150.346 8.94197C150.127 9.08658 149.999 9.19504 149.962 9.26734C149.926 9.33965 149.889 9.48425 149.853 9.70117C149.853 9.91808 149.908 10.1711 150.017 10.4604C150.163 11.0749 150.273 11.9064 150.346 12.9548C150.455 13.9671 150.564 14.7805 150.674 15.3951C150.893 16.5158 151.002 18.6849 151.002 21.9025C151.039 25.12 151.002 27.976 150.893 30.4705C150.783 32.965 150.692 35.0075 150.619 36.5982C150.546 36.779 150.419 36.8694 150.236 36.8694C150.127 36.9055 149.908 36.8874 149.579 36.8151C149.288 36.7067 148.904 36.5621 148.43 36.3813C147.992 36.2006 147.591 36.0379 147.226 35.8933C146.861 35.7125 146.369 35.4956 145.749 35.2425C145.165 34.9895 144.764 34.8087 144.545 34.7003C144.399 34.7003 144.235 34.7906 144.052 34.9714Z" fill="#A76C47"/>
<path d="M127.088 15.4493C127.307 15.2324 127.453 14.9251 127.526 14.5275C127.526 14.2382 127.343 14.0213 126.979 13.8767C126.614 13.696 126.267 13.6598 125.939 13.7683C125.61 14.0213 124.461 14.6721 122.491 15.7205C120.558 16.7689 119.427 17.4738 119.098 17.8354C118.989 18.0161 118.934 18.3234 118.934 18.7572C118.971 19.1911 119.044 19.4441 119.153 19.5164C119.554 19.8779 120.12 19.8056 120.849 19.2995C121.725 18.7211 123.13 17.8534 125.063 16.6966C125.319 16.5158 125.665 16.317 126.103 16.1001C126.541 15.8832 126.869 15.6662 127.088 15.4493Z" fill="#A76C47"/>
<path fill-rule="evenodd" clip-rule="evenodd" d="M122.272 32.6396C122.345 32.4227 122.473 32.2961 122.655 32.26C122.692 32.4408 123.093 32.0792 123.859 31.1754C124.662 30.2716 125.446 29.2955 126.212 28.2471C126.979 27.1626 127.362 26.4938 127.362 26.2407C127.398 26.1322 127.69 25.355 128.237 23.9089C128.784 22.4628 128.949 21.5409 128.73 21.1433C128.693 20.4202 128.529 19.9141 128.237 19.6249C127.982 19.2995 127.526 19.1368 126.869 19.1368C126.212 19.1007 125.355 19.3176 124.297 19.7876C123.276 20.2214 122.436 20.6552 121.78 21.089C121.16 21.4867 120.594 21.8663 120.083 22.2278C119.901 22.517 119.901 22.8966 120.083 23.3666C120.266 23.8004 120.521 24.0535 120.849 24.1258C121.287 24.2704 121.47 24.5235 121.397 24.885C121.36 25.2465 121.214 25.59 120.959 25.9153C120.704 26.2407 120.503 26.6022 120.357 26.9999C120.211 27.3614 120.229 27.6506 120.412 27.8675C120.521 27.9037 120.521 28.3737 120.412 29.2775C120.339 30.1451 120.302 30.6693 120.302 30.8501C120.229 31.79 119.901 33.0011 119.317 34.4833C118.77 35.9294 118.296 36.9055 117.894 37.4116C117.566 37.6647 117.347 38.0082 117.238 38.442C117.128 38.8397 116.982 39.1469 116.8 39.3639L116.581 39.6892C116.107 40.5207 116.18 41.1715 116.8 41.6414C117.347 42.0029 117.858 41.8583 118.332 41.2076C118.77 40.7015 119.189 40.0507 119.591 39.2554C119.992 38.4239 120.412 37.484 120.849 36.4355C121.287 35.3871 121.634 34.6279 121.889 34.158C121.962 34.0134 122.017 33.7784 122.053 33.453C122.126 33.1276 122.199 32.8565 122.272 32.6396ZM126.322 21.4686C126.76 21.6494 126.723 22.0832 126.212 22.7701C126.139 22.7701 125.829 23.0051 125.282 23.4751C124.115 24.4873 123.531 24.4692 123.531 23.4208C123.421 23.0955 123.476 22.8063 123.695 22.5532C123.914 22.264 124.169 22.0832 124.461 22.0109C124.753 21.9025 125.1 21.794 125.501 21.6855C125.939 21.5771 126.212 21.5048 126.322 21.4686ZM124.352 27.2168C123.659 28.0121 123.239 28.3556 123.093 28.2471C123.02 28.1025 123.057 27.9037 123.203 27.6506C123.349 27.3614 123.549 27.1083 123.805 26.8914C124.279 26.6384 124.571 26.5118 124.68 26.5118C124.863 26.548 124.753 26.783 124.352 27.2168Z" fill="#A76C47"/>
<path d="M138.689 20.5468C138.434 21.0529 138.543 21.4867 139.018 21.8482L139.456 22.2278L139.51 24.7223C139.583 26.3853 139.583 27.5241 139.51 28.1387L139.456 29.0605C139.784 29.2775 140.112 29.4221 140.441 29.4944C140.805 29.5305 141.134 29.3859 141.426 29.0605C141.572 28.8798 141.644 28.6086 141.644 28.2471C141.681 27.8856 141.699 26.9095 141.699 25.3188C141.699 23.3305 141.663 21.9928 141.59 21.3059C141.517 20.6191 141.371 20.1491 141.152 19.896C140.824 19.5707 140.386 19.4803 139.839 19.6249C139.328 19.7333 138.945 20.0406 138.689 20.5468Z" fill="#A76C47"/>
<path fill-rule="evenodd" clip-rule="evenodd" d="M123.914 42.726C124.06 42.9429 124.443 43.1237 125.063 43.2683C125.428 43.2683 125.683 43.214 125.829 43.1056C126.012 42.961 126.212 42.6537 126.431 42.1837C126.687 41.7137 126.869 41.4787 126.979 41.4787C129.204 39.635 130.463 38.5504 130.754 38.2251C130.937 37.972 131.32 37.6466 131.904 37.249C132.524 36.8151 132.98 36.3994 133.272 36.0017C133.6 35.5679 133.618 35.0979 133.326 34.5918C133.253 34.4833 133.126 34.4291 132.943 34.4291C132.761 34.4291 132.579 34.4653 132.396 34.5376C132.214 34.6099 132.013 34.7003 131.794 34.8087C131.612 34.881 131.502 34.9172 131.466 34.9172C131.393 34.881 131.429 34.646 131.575 34.2122C131.831 33.7061 131.794 33.2542 131.466 32.8565C131.138 32.4588 130.736 32.26 130.262 32.26C130.152 32.2238 129.97 32.26 129.715 32.3684C129.459 32.4408 129.204 32.5492 128.949 32.6938C128.73 32.8023 128.493 32.8927 128.237 32.965C127.982 33.0373 127.763 33.0373 127.58 32.965C127.435 32.8927 127.343 32.73 127.307 32.4769C127.161 32.1877 126.887 31.9165 126.486 31.6635C126.121 31.4104 125.775 31.3562 125.446 31.5008C125.154 31.6093 125.045 31.9889 125.118 32.6396C125.264 33.9411 125.081 35.4594 124.571 37.1947C124.096 38.93 123.841 40.1954 123.805 40.9907C123.732 41.8945 123.768 42.4729 123.914 42.726ZM128.675 36.544C128.529 36.9417 128.31 37.2309 128.018 37.4116C127.763 37.5563 127.58 37.5924 127.471 37.5201C127.398 37.4116 127.416 37.1947 127.526 36.8694C127.599 36.7248 127.653 36.5079 127.69 36.2186C127.726 35.9294 127.799 35.7306 127.909 35.6221C128.055 35.5137 128.31 35.4594 128.675 35.4594C128.857 35.7487 128.857 36.1102 128.675 36.544Z" fill="#A76C47"/>
<path fill-rule="evenodd" clip-rule="evenodd" d="M79.5878 27.976C79.6972 26.0961 79.6972 25.1562 79.5878 25.1562C79.5513 25.1562 79.223 25.4454 78.6028 26.0238C77.7637 26.9276 76.505 27.8134 74.8268 28.681C73.8783 29.1871 73.1669 29.404 72.6926 29.3317C72.2548 29.2233 72.0906 28.8256 72.2001 28.1387C72.2366 27.7049 72.4007 27.3976 72.6926 27.2168C73.0209 26.9999 73.4587 26.8372 74.006 26.7288C74.5897 26.5842 75.0275 26.4396 75.3193 26.295C75.8666 26.1142 76.4868 25.6623 77.1799 24.9393C77.9096 24.1801 78.4203 23.7101 78.7122 23.5293C79.2594 23.1678 79.5695 22.9328 79.6425 22.8244C79.7884 22.6075 79.9161 22.029 80.0256 21.0891C80.1715 20.113 80.1897 19.5707 80.0803 19.4622C79.8614 19.4622 79.4418 19.643 78.8216 20.0045C78.2379 20.366 77.9096 20.5649 77.8366 20.601C77.5812 20.6733 77.4171 20.7999 77.3441 20.9806C77.3076 21.1614 77.2529 21.7398 77.1799 22.7159C77.1435 23.4751 77.0887 23.9812 77.0158 24.2343C76.9793 24.4512 76.8698 24.5777 76.6874 24.6139C76.4685 24.7224 76.2679 24.6681 76.0855 24.4512C75.9031 24.2343 75.7754 23.9089 75.7024 23.4751C75.6294 22.2459 75.6477 20.601 75.7571 18.5404C75.9031 16.4436 76.1219 14.9794 76.4138 14.1479L75.4835 14.2564C75.0092 14.2925 74.6991 14.3106 74.5532 14.3106C74.4437 14.2744 74.2978 14.166 74.1154 13.9852C73.7506 13.6237 73.6411 13.2803 73.7871 12.9549C73.9695 12.6295 74.3708 12.4126 74.991 12.3042C75.4653 12.2319 75.976 12.1053 76.5233 11.9246C77.107 11.7076 77.563 11.5269 77.8913 11.3823C78.2197 11.2015 78.694 10.9485 79.3142 10.6231C79.9344 10.2616 80.2992 10.0447 80.4086 9.97235C80.5546 9.97235 80.9194 9.71929 81.5031 9.21316C82.3057 8.41782 82.9259 8.23706 83.3637 8.67088C83.5097 8.92395 83.6009 9.14086 83.6373 9.32162C83.6738 9.50238 83.6373 9.68314 83.5279 9.8639C83.4184 10.0085 83.309 10.135 83.1995 10.2435C83.1266 10.3158 82.9807 10.4423 82.7618 10.6231C82.5429 10.8039 82.3969 10.9304 82.324 11.0027C81.6673 11.5088 81.3025 11.9969 81.2295 12.4668C81.1565 12.9007 81.3754 13.2622 81.8862 13.5514C82.324 13.696 82.4334 14.166 82.2145 14.9613C82.178 15.1421 82.0503 17.0762 81.8315 20.7637C81.649 24.4512 81.4484 27.3976 81.2295 29.6029C81.0471 31.772 80.8099 33.2 80.5181 33.8869C80.4086 34.1038 80.208 34.2484 79.9161 34.3207C79.6607 34.393 79.4601 34.3749 79.3142 34.2665C79.1318 34.158 79.0223 33.5434 78.9858 32.4227C78.8764 31.4105 78.9311 30.6513 79.15 30.1452C79.4054 29.6029 79.5513 28.8798 79.5878 27.976ZM78.2744 14.3106C78.2744 14.5637 78.3109 14.7263 78.3839 14.7986C78.4568 14.8348 78.621 14.7986 78.8764 14.6902C79.3142 14.4371 79.4236 14.1118 79.2047 13.7141C78.9858 13.2803 78.7487 13.208 78.4933 13.4972C78.3474 13.6779 78.2744 13.9491 78.2744 14.3106ZM78.0008 18.3777C78.3291 18.2692 78.7487 17.9981 79.2594 17.5643C79.8067 17.1304 79.9344 16.787 79.6425 16.5339C79.4966 16.4978 79.223 16.6062 78.8216 16.8593C78.4568 17.1124 78.1832 17.3654 78.0008 17.6185C77.8913 17.7993 77.8184 17.9439 77.7819 18.0523C77.7454 18.1246 77.7272 18.1969 77.7272 18.2692C77.7272 18.3054 77.7454 18.3415 77.7819 18.3777H78.0008Z" fill="#A76C47"/>
<path d="M62.8423 11.1654C62.7694 11.6353 62.7876 11.9426 62.897 12.0872C63.043 12.1957 63.2071 12.1776 63.3896 12.033C63.572 11.8884 63.6997 11.6896 63.7726 11.4365C63.8456 11.0388 64.1192 10.7858 64.5935 10.6773C65.0678 10.5327 65.4508 10.5869 65.7427 10.84C65.9616 11.0569 66.0528 11.3281 66.0163 11.6534C66.0163 11.9788 65.8886 12.2861 65.6332 12.5753C65.5238 12.7561 65.0495 13.1357 64.2104 13.7141C63.3713 14.2925 62.897 14.654 62.7876 14.7986C62.7876 14.8709 62.6964 15.3228 62.514 16.1543C62.3316 16.9858 62.1309 17.6185 61.912 18.0523C61.5107 18.9923 61.383 19.4442 61.529 19.408C61.6019 19.3719 61.6931 19.2815 61.8026 19.1369C63.1159 18.0162 64.3563 17.0943 65.5238 16.3713C65.6697 16.3713 65.8156 16.4978 65.9616 16.7508C66.1075 16.9678 66.1622 17.1485 66.1257 17.2931C66.0893 17.4739 65.5785 18.0523 64.5935 19.0284C63.7909 19.8238 63.2801 20.348 63.0612 20.601C62.8788 20.8541 62.7511 21.1795 62.6782 21.5771C62.6417 21.8664 62.6417 22.8425 62.6782 24.5054C62.7511 26.1684 62.8241 27.0903 62.897 27.2711C63.043 27.6687 63.572 27.3072 64.484 26.1865C64.557 26.1142 64.6117 26.0419 64.6482 25.9696C65.4873 24.885 66.2534 23.9451 66.9466 23.1497C67.129 22.9328 67.3661 22.8244 67.658 22.8244C67.9499 22.8244 68.1505 22.9509 68.26 23.204C68.4059 23.6016 68.2965 24.0897 67.9316 24.6681C67.6033 25.2104 67.129 25.8069 66.5088 26.4577C65.8886 27.1084 65.5055 27.5422 65.3596 27.7591C65.2137 27.9399 64.9218 28.2833 64.484 28.7895C64.0827 29.2594 63.7544 29.6571 63.499 29.9825C63.2801 30.2717 63.043 30.6513 62.7876 31.1213C62.5687 31.5551 62.441 31.9527 62.4045 32.3143C62.4045 32.6396 62.5322 32.8204 62.7876 32.8566C62.9335 32.8927 63.3531 33.0735 64.0462 33.3988C64.7394 33.688 65.2137 33.8507 65.4691 33.8869C65.8704 33.923 66.8007 34.158 68.26 34.5918C70.23 35.2064 71.9265 35.586 73.3493 35.7306C74.7721 35.8391 75.9395 35.9837 76.8516 36.1645C77.3259 36.3452 78.0373 36.3994 78.9858 36.3271C79.9708 36.2187 80.5728 36.1825 80.7917 36.2187C81.6673 36.291 84.0751 36.3814 88.0152 36.4898C91.9918 36.5983 94.4361 36.7067 95.3482 36.8152C96.4427 36.8513 97.0994 36.9236 97.3183 37.0321C97.5372 37.1406 97.6466 37.4117 97.6466 37.8455C97.6466 38.4963 97.3548 38.8759 96.771 38.9843C96.1873 39.0928 94.9651 39.0024 93.1045 38.7132C93.0316 38.677 92.3567 38.6409 91.0798 38.6047C89.8394 38.5686 88.3618 38.5324 86.6471 38.4963C84.9689 38.4601 83.2725 38.424 81.5578 38.3878C79.8796 38.3517 78.4751 38.3155 77.3441 38.2793C76.2132 38.207 75.7024 38.1528 75.8118 38.1167L73.8965 37.8455C72.9115 37.7009 72.0724 37.5744 71.3792 37.4659C70.7225 37.3575 70.0294 37.2129 69.2997 37.0321C68.5701 36.8513 68.0958 36.6887 67.8769 36.544C67.7675 36.4717 67.3479 36.3452 66.6183 36.1645C65.8886 35.9475 65.4691 35.7849 65.3596 35.6764C64.9218 35.4956 64.0645 35.3149 62.7876 35.1341C61.5107 34.9172 60.6351 34.7184 60.1609 34.5376C59.869 34.393 59.4859 34.2846 59.0117 34.2122C58.5374 34.1399 58.1178 34.0315 57.753 33.8869C57.1328 33.67 56.7315 33.5977 56.5491 33.67C56.4032 33.7061 56.2207 33.923 56.0019 34.3207C55.8559 34.6461 55.2175 35.5499 54.0865 37.0321C52.5543 39.0566 51.478 40.1773 50.8578 40.3942C50.493 40.5388 50.2194 40.5208 50.037 40.34C49.8546 40.1592 49.8728 39.9243 50.0917 39.635C50.8213 38.8397 52.4448 36.6525 54.9621 33.0735C55.0716 32.7481 55.3817 31.9708 55.8924 30.7417C56.4396 29.5125 56.7862 28.7171 56.9322 28.3556C57.1511 27.6326 57.4612 27.0722 57.8625 26.6746C58.3003 26.2769 58.6651 26.2046 58.9569 26.4577C59.2488 26.6746 59.267 27.1084 59.0117 27.7591C58.8292 28.1568 58.5921 28.8256 58.3003 29.7656C58.0084 30.6694 57.8625 31.1936 57.8625 31.3382C57.8625 31.6997 58.4462 31.8985 59.6136 31.9347L60.4345 31.9889L60.7628 30.9043C60.9452 30.4705 61.0364 29.9825 61.0364 29.4402C61.0364 28.8979 61 28.2833 60.927 27.5964C60.854 26.8734 60.8358 26.2769 60.8723 25.8069C60.8358 23.9993 60.6716 23.0413 60.3798 22.9328C60.2338 22.8605 59.5589 23.1678 58.355 23.8547C57.5888 24.3247 57.0781 24.5597 56.8227 24.5597C56.4579 24.5597 56.2025 24.4151 56.0566 24.1258C55.9471 23.8005 56.0019 23.4751 56.2207 23.1497C56.3302 22.969 56.7133 22.6617 57.3699 22.2279C58.0631 21.7579 58.4827 21.5229 58.6286 21.5229C58.7745 21.5229 58.9205 21.4145 59.0664 21.1975C59.2488 20.9806 59.34 20.7637 59.34 20.5468C59.34 20.2937 59.5407 19.6069 59.942 18.4861C60.2338 17.5823 60.398 16.9858 60.4345 16.6966C60.5074 16.3713 60.4527 16.1724 60.2703 16.1001C59.9055 16.1001 59.5771 16.1543 59.2853 16.2628C58.9934 16.3713 58.6651 16.5159 58.3003 16.6966C57.9719 16.8774 57.6618 17.022 57.3699 17.1304C56.6768 17.3835 56.2937 17.5462 56.2207 17.6185C56.0748 17.7631 55.8924 17.8173 55.6735 17.7812C55.4546 17.745 55.3087 17.6366 55.2357 17.4558C55.1263 17.2027 55.2357 16.8412 55.5641 16.3713C55.8559 15.6121 57.0234 14.9613 59.0664 14.419C59.6136 14.3467 60.0149 14.1841 60.2703 13.931C60.4527 13.7141 60.5622 13.4791 60.5986 13.226C60.6716 12.973 60.7628 12.2319 60.8723 11.0027C60.9087 9.30354 61.4195 8.86972 62.4045 9.70122C62.6964 10.0266 62.8423 10.5146 62.8423 11.1654Z" fill="#A76C47"/>
<path d="M103.393 28.1929C102.371 27.8676 100.255 26.9638 97.0447 25.4815C93.8342 23.9993 91.554 23.0413 90.2042 22.6075C90.0583 22.6798 89.7299 23.0955 89.2192 23.8547C87.5774 26.2769 86.2641 27.488 85.2791 27.488C84.7683 27.488 84.5129 27.1807 84.5129 26.5661C84.5494 26.2769 84.8413 25.9515 85.3885 25.59C85.9357 25.1923 86.2641 24.9031 86.3735 24.7224C86.7019 24.3608 87.1214 23.8005 87.6322 23.0413C88.1794 22.2821 88.453 21.8664 88.453 21.794C88.453 21.7217 88.2889 21.5229 87.9605 21.1975C87.4498 20.836 87.3221 20.4564 87.5774 20.0588C87.8328 19.6249 88.2524 19.4442 88.8361 19.5165C89.2739 19.5526 89.5657 19.5526 89.7117 19.5165C89.8576 19.5165 90.2224 18.9019 90.8061 17.6727C91.3899 16.4436 91.6817 15.6844 91.6817 15.3951C91.6817 14.9613 91.098 15.1421 89.9306 15.9374C89.128 16.4436 88.5625 16.6785 88.2341 16.6424C87.9058 16.5701 87.7416 16.2266 87.7416 15.6121C87.7051 15.2867 87.8146 14.9794 88.07 14.6902C88.3618 14.401 88.599 14.2202 88.7814 14.1479C89.0003 14.0395 89.3286 13.8948 89.7664 13.7141C89.9123 13.6779 90.2042 13.5695 90.642 13.3887C91.1162 13.208 91.5358 13.0633 91.9006 12.9549C92.3019 12.8103 92.7032 12.7199 93.1045 12.6838C93.5423 12.6114 93.8342 12.6838 93.9801 12.9007C94.0896 12.973 94.1625 13.0814 94.199 13.226C94.272 13.3706 94.3085 13.5152 94.3085 13.6599C94.3085 13.8045 94.2902 13.9852 94.2537 14.2021C94.2173 14.419 94.1625 14.6179 94.0896 14.7986C94.0531 14.9433 93.9984 15.124 93.9254 15.3409C93.8524 15.5578 93.7795 15.7386 93.7065 15.8832C93.67 15.9917 93.6153 16.1363 93.5423 16.317C93.4694 16.4978 93.4146 16.6062 93.3782 16.6424C93.3417 16.787 93.141 17.1124 92.7762 17.6185C92.4114 18.1246 92.2107 18.5042 92.1742 18.7573C92.1378 18.8296 92.083 18.9742 92.0101 19.1911C91.9736 19.3719 91.9371 19.5165 91.9006 19.6249C91.9006 19.7334 91.8824 19.878 91.8459 20.0588C91.8094 20.2395 91.7912 20.3841 91.7912 20.4926C91.8277 20.5649 91.8641 20.6733 91.9006 20.8179C91.9736 20.9264 92.0648 20.9987 92.1742 21.0349C92.3202 21.071 92.4843 21.0891 92.6668 21.0891C93.5423 21.306 94.6368 21.7579 95.9502 22.4448C97.2635 23.0955 98.1391 23.5113 98.5769 23.692C98.7958 23.8005 99.2154 24.0174 99.8356 24.3428C100.456 24.6681 101.003 24.9393 101.477 25.1562C101.988 25.3369 102.371 25.4273 102.626 25.4273C103.539 25.4273 104.104 25.7165 104.323 26.295C104.505 26.7288 104.487 27.1626 104.268 27.5964C104.086 27.9941 103.794 28.1929 103.393 28.1929Z" fill="#A76C47"/>
<path fill-rule="evenodd" clip-rule="evenodd" d="M11.785 20.8721C11.7486 21.2698 11.7486 21.4867 11.785 21.5228C11.785 21.6313 11.8398 22.4989 11.9492 24.1258C12.0222 25.3188 12.0769 26.078 12.1134 26.4033C12.1864 26.6926 12.3323 26.8914 12.5512 26.9999C12.916 27.1806 13.2626 27.1987 13.5909 27.0541C13.9558 26.8733 14.1929 26.5841 14.3023 26.1864C14.3388 25.9695 14.4118 24.6681 14.5212 22.282C14.6307 19.8598 14.6672 18.3053 14.6307 17.6184C14.6307 17.1484 14.7766 16.0097 15.0685 14.2021C15.3603 12.3583 15.6157 11.0568 15.8346 10.2976C16.1265 9.28539 16.8561 8.49005 18.0236 7.91161C19.191 7.29703 20.3949 7.09819 21.6353 7.31511C22.1461 7.38741 22.6751 7.6947 23.2223 8.23698C23.7695 8.74311 24.0796 9.26731 24.1526 9.80959C24.481 10.8218 24.6634 12.0329 24.6998 13.4429C24.7363 13.6959 24.8093 14.4009 24.9187 15.5578C25.0282 16.7146 25.1012 17.5823 25.1376 18.1607C25.2106 18.7391 25.2836 19.661 25.3565 20.9263C25.466 22.1555 25.5025 23.0051 25.466 23.475C25.466 23.9089 25.4477 24.5777 25.4113 25.4815C24.7181 25.8791 23.879 26.2587 22.894 26.6203C21.9454 26.9456 21.1428 27.1987 20.4861 27.3794C19.8659 27.5241 18.8444 27.759 17.4216 28.0844C16.0353 28.3736 15.1597 28.5725 14.7948 28.6809C13.9558 28.8617 12.4965 29.2774 10.417 29.9282C8.33745 30.5427 6.6775 30.9585 5.43709 31.1754C5.07227 31.1754 4.81689 31.2296 4.67096 31.3381C4.56151 31.4465 4.43382 31.6996 4.28789 32.0973C3.88659 33.0011 3.90483 33.4891 4.34262 33.5614C4.88986 33.7422 5.85664 33.5614 7.24298 33.0192C7.64428 32.8384 8.00911 32.748 8.33745 32.748C8.70228 32.7119 9.08534 32.6034 9.48665 32.4226C9.9974 32.278 11.0372 32.0069 12.6059 31.6092C14.2111 31.1754 15.6704 30.7958 16.9838 30.4704C18.2972 30.1089 19.0086 29.892 19.118 29.8197C19.3369 29.7474 19.9936 29.5847 21.0881 29.3317C22.1826 29.0786 23.0217 28.8255 23.6054 28.5725C25.32 27.8856 25.849 27.8133 25.1924 28.3556C24.6451 28.7894 24.6269 29.2413 25.1376 29.7113C25.7214 30.2174 26.2504 30.2355 26.7246 29.7655C27.0165 29.5847 27.1989 29.404 27.2719 29.2232C27.3813 29.0424 27.4725 28.6448 27.5455 28.0302C27.6549 27.4156 27.7461 27.0541 27.8191 26.9456C28.0015 26.7287 28.5852 26.4395 29.5703 26.078C30.5553 25.7165 31.2302 25.5357 31.595 25.5357C31.9234 25.5357 32.1788 25.4995 32.3612 25.4272C32.5801 25.3188 32.9631 25.0476 33.5104 24.6138C34.2765 23.9992 34.6778 23.5473 34.7143 23.2581C34.7143 22.3905 34.7873 20.9625 34.9332 18.9741C35.0791 16.9496 35.1703 15.3408 35.2068 14.1478C35.2433 12.9548 35.1521 11.563 34.9332 9.97228C34.7143 9.35769 34.4954 8.94194 34.2765 8.72503C34.0576 8.47197 33.784 8.34544 33.4556 8.34544C31.4491 8.30929 30.2999 8.41774 30.008 8.6708C29.6432 9.14078 29.6432 9.66498 30.008 10.2434C30.3729 10.8218 30.9201 11.0026 31.6498 10.7857C32.1605 10.7857 32.4706 10.8038 32.5801 10.8399C32.6895 10.8761 32.799 11.0026 32.9084 11.2195C33.0543 11.6172 33.1638 12.4487 33.2367 13.714C33.3462 14.9793 33.328 15.847 33.182 16.3169L32.4159 16.2627L31.6498 16.1543L30.9384 16.8592C30.1357 17.6546 29.2054 18.1968 28.1474 18.4861C27.7461 18.6307 27.4908 18.6487 27.3813 18.5403C27.3083 18.4318 27.2719 18.1245 27.2719 17.6184C27.3083 17.2569 27.3448 17.04 27.3813 16.9677C27.4178 16.8592 27.5455 16.805 27.7644 16.805C28.0198 16.8411 28.6764 16.4616 29.7344 15.6662C30.8289 14.8347 31.5403 14.3647 31.8687 14.2563C32.4159 14.2201 32.7625 13.949 32.9084 13.4429C33.0543 12.9006 32.8902 12.521 32.4159 12.3041C32.2335 12.1956 32.0693 12.1595 31.9234 12.1956C31.8139 12.2318 31.5403 12.3583 31.1025 12.5752C30.5188 12.8644 29.7527 13.3344 28.8041 13.9851C28.5487 14.0936 28.2569 14.2563 27.9285 14.4732C27.6002 14.6901 27.3995 14.8347 27.3266 14.907C27.2536 14.9432 27.1624 14.907 27.053 14.7986C26.9435 14.654 26.8706 14.437 26.8341 14.1478C26.7976 13.8586 26.7611 13.3525 26.7246 12.6294C26.6517 10.6772 26.3598 9.14078 25.849 8.02007C25.3383 6.86321 24.5539 6.03171 23.4959 5.52558C21.8907 4.94715 20.249 4.89292 18.5708 5.3629C16.8926 5.83288 15.6157 6.53784 14.7401 7.47779L14.3023 8.02007L13.8098 7.74893C13.4085 7.53202 13.0802 7.47779 12.8248 7.58625C12.6059 7.6947 12.46 7.96584 12.387 8.39966C12.3505 8.65273 12.2776 8.90579 12.1681 9.15886C12.0951 9.41192 12.0404 9.68306 12.0039 9.97228C11.9675 10.2253 11.9675 10.6049 12.0039 11.1111L12.0587 12.521L10.8547 13.0633C10.0156 13.4609 9.55961 13.714 9.48665 13.8225C9.30424 13.9671 9.15831 14.0394 9.04886 14.0394C8.82996 14.0032 8.70228 13.5875 8.66579 12.7921C8.55635 11.3099 8.46514 10.4965 8.39217 10.3519L8.11856 9.64691L8.93941 8.88772C9.63258 8.34544 9.97916 7.80316 9.97916 7.26088C10.0156 6.7186 9.65082 6.37515 8.88469 6.23055C8.55635 6.23055 7.86318 6.86321 6.80519 8.12853C5.74719 9.35769 4.94458 10.4965 4.39734 11.5449C4.25141 11.9064 4.23317 12.2679 4.34262 12.6294C4.45207 12.991 4.65272 13.2802 4.94458 13.4971L5.54654 13.1175C5.94785 12.8283 6.22147 12.7198 6.3674 12.7921C6.54981 12.8644 6.64101 14.2744 6.64101 17.0219V19.3537C6.6775 20.5829 6.69574 21.5951 6.69574 22.3905C6.69574 23.1497 6.65926 23.9812 6.58629 24.885C6.51333 25.7888 6.38564 26.4214 6.20322 26.7829C5.8384 27.976 5.87488 28.7713 6.31267 29.169C6.93287 29.8197 7.51659 29.4582 8.06383 28.0844C8.24624 27.6144 8.39217 26.5299 8.50162 24.8307L8.66579 22.3363L10.1433 20.8179C11.1284 19.8418 11.6756 19.3537 11.785 19.3537C11.8945 19.3899 11.931 19.5525 11.8945 19.8418C11.8945 20.131 11.858 20.4744 11.785 20.8721ZM9.92444 15.9374C10.5811 15.5397 10.9642 15.3408 11.0736 15.3408C11.0736 15.3047 11.1284 15.2505 11.2378 15.1782C11.3837 15.1059 11.4749 15.0516 11.5114 15.0155C11.5844 14.9793 11.6756 14.9432 11.785 14.907C11.8945 14.8709 11.9857 14.8889 12.0587 14.9612C12.1316 15.0336 12.1864 15.1239 12.2228 15.2324C12.2958 15.5216 12.2228 15.8289 12.0039 16.1543C11.785 16.4796 11.2743 17.04 10.4717 17.8353C9.88796 18.4499 9.48665 18.8295 9.26775 18.9741C9.08534 19.1187 8.93941 19.1549 8.82996 19.0826C8.68403 18.9741 8.61107 18.5945 8.61107 17.9438C8.61107 17.293 8.68403 16.8954 8.82996 16.7508C8.90293 16.6062 9.26775 16.335 9.92444 15.9374ZM31.1572 23.2581C30.7195 23.3304 30.4276 23.457 30.2817 23.6377C30.0263 23.8185 29.552 24.0173 28.8588 24.2342C28.2022 24.415 27.8373 24.4511 27.7644 24.3427C27.6914 24.3065 27.6549 23.6919 27.6549 22.4989L27.6002 20.7094H28.3116C28.6764 20.7456 29.3331 20.4744 30.2817 19.896C31.2302 19.3176 31.8504 18.8476 32.1423 18.4861C32.6165 18.0161 32.8902 17.8534 32.9631 17.998C33.1455 19.4802 32.799 21.0709 31.9234 22.7701C31.8504 22.987 31.595 23.1497 31.1572 23.2581Z" fill="#A76C47"/>
<path d="M16.8744 11.4364C16.2177 11.4364 15.8893 11.8883 15.8893 12.7921C15.8893 13.226 15.944 13.5332 16.0535 13.714C16.1994 13.8586 16.4183 13.8948 16.7102 13.8225C17.002 13.7502 17.8776 13.3525 19.3369 12.6294C20.4314 12.0872 21.0881 11.7437 21.307 11.5991C21.5259 11.4545 21.6718 11.2376 21.7448 10.9484C21.8907 10.5146 21.8542 10.1892 21.6353 9.97228C21.4164 9.75536 21.1063 9.71921 20.705 9.86382C20.3402 10.1169 19.72 10.4242 18.8444 10.7857C17.9688 11.1472 17.3121 11.3641 16.8744 11.4364Z" fill="#A76C47"/>
<path fill-rule="evenodd" clip-rule="evenodd" d="M17.0385 21.4144C17.002 21.7759 16.9656 22.1193 16.9291 22.4447C16.9291 22.987 17.0385 23.3485 17.2574 23.5293C17.5858 23.71 17.8229 23.7823 17.9688 23.7462C18.1512 23.71 18.4066 23.6016 18.735 23.4208C19.0998 23.24 19.3916 23.1316 19.6105 23.0954C20.632 22.7701 21.4711 22.1374 22.1278 21.1975C22.821 20.2214 23.1676 19.173 23.1676 18.0522C23.35 17.5823 23.0946 16.9496 22.4014 16.1543C21.7083 15.3589 21.1063 14.9793 20.5956 15.0155C20.3767 14.9793 20.1578 15.0155 19.9389 15.1239C19.72 15.1962 19.5558 15.2324 19.4464 15.2324C19.3369 15.2324 19.2457 15.0878 19.1727 14.7986C18.8809 14.1478 18.4796 14.0936 17.9688 14.6359C17.4946 15.142 17.2574 16.4796 17.2574 18.6487C17.2574 19.3356 17.2392 19.8779 17.2027 20.2756C17.1662 20.6371 17.1115 21.0167 17.0385 21.4144ZM20.1578 17.6184C20.3037 17.4377 20.5226 17.4557 20.8145 17.6726C21.2523 18.7934 21.0151 19.8598 20.1031 20.8721C19.8477 21.1613 19.647 21.324 19.5011 21.3601C19.1727 21.3963 19.1545 20.8179 19.4464 19.6248C19.5193 19.4441 19.5923 19.191 19.6653 18.8657C19.8842 18.2149 20.0483 17.7992 20.1578 17.6184Z" fill="#A76C47"/>
<path d="M9.5961 42.5633C9.85147 42.7802 10.0704 42.8886 10.2528 42.8886C10.4717 42.8886 10.8183 42.726 11.2925 42.4006C11.8033 42.0391 12.2776 41.6233 12.7153 41.1533C15.0502 38.695 16.6372 36.8693 17.4763 35.6763C17.5858 35.4956 17.8411 35.1883 18.2424 34.7544C18.6802 34.2845 19.0086 33.8687 19.2275 33.5072C19.4828 33.1095 19.6105 32.7661 19.6105 32.4769C19.6105 31.8623 19.2822 31.5008 18.6255 31.3923C18.0783 31.2477 17.677 31.555 17.4216 32.3142C17.3486 32.6034 17.075 33.0372 16.6007 33.6157C16.1265 34.1941 15.8528 34.5918 15.7799 34.8087C15.5245 35.2787 14.7948 36.1825 13.5909 37.5201C12.4235 38.8577 11.7303 39.5627 11.5114 39.635C11.0372 39.7796 10.5264 40.123 9.97916 40.6653C9.46841 41.2076 9.21303 41.6233 9.21303 41.9125C9.21303 42.0933 9.34072 42.3102 9.5961 42.5633Z" fill="#A76C47"/>
<path d="M44.4004 43.3767C44.6922 43.0513 44.8017 42.7621 44.7287 42.509C44.7287 41.6052 44.4551 41.081 43.9079 40.9364C43.2877 40.6834 42.2297 40.1592 40.7339 39.3638C39.2381 38.5323 38.1436 37.972 37.4505 37.6828C36.9032 37.502 35.9365 37.032 34.5501 36.2728C33.2003 35.5136 32.3064 35.0437 31.8687 34.8629C31.5403 34.7906 30.9566 34.5014 30.1175 33.9953C29.2784 33.4891 28.6947 33.0915 28.3663 32.8022L28.038 32.6396C27.8191 32.495 27.6732 32.4046 27.6002 32.3684C27.5637 32.3323 27.436 32.26 27.2171 32.1515C27.0347 32.0431 26.8888 31.9707 26.7793 31.9346C26.6699 31.8984 26.5057 31.8623 26.2868 31.8261C26.1044 31.7538 25.9403 31.7177 25.7943 31.7177C25.6849 31.7177 25.5572 31.7358 25.4113 31.7719C25.2653 31.7719 25.1194 31.79 24.9735 31.8261C24.7546 31.9707 24.6086 32.2057 24.5357 32.5311C24.4992 32.8203 24.5539 33.0734 24.6998 33.2903C24.8093 33.4711 25.2836 33.8326 26.1227 34.3749C26.9982 34.9171 27.582 35.2244 27.8738 35.2967C27.9103 35.3329 28.3663 35.604 29.2419 36.1101C30.154 36.6163 30.9566 37.0139 31.6498 37.3032C32.1605 37.4839 32.6895 37.7189 33.2367 38.0081C33.784 38.2612 34.3312 38.5504 34.8785 38.8758C35.4257 39.2011 35.827 39.4361 36.0824 39.5807C37.1769 39.9061 38.5085 40.5207 40.0772 41.4245C41.646 42.2921 42.8681 43.1236 43.7437 43.919C43.9261 43.8467 44.145 43.6659 44.4004 43.3767Z" fill="#A76C47"/>
<path d="M173.494 6.98972C173.64 7.17048 173.804 7.26086 173.986 7.26086C174.57 7.18856 175.245 6.01362 176.011 3.73605C176.522 2.7961 176.813 2.14536 176.886 1.78384C176.959 1.42232 176.868 1.18733 176.613 1.07888C176.321 0.934269 175.901 0.988497 175.354 1.24156C174.843 1.45847 174.479 1.76576 174.26 2.16344C174.041 2.56111 173.822 3.22992 173.603 4.16987C173.384 5.32673 173.275 6.04977 173.275 6.33899C173.275 6.59205 173.348 6.80896 173.494 6.98972Z" stroke="#A76C47" stroke-width="0.8"/>
<path d="M170.21 4.60369C170.611 5.43519 170.757 6.104 170.648 6.61013C170.648 7.40547 170.757 7.9116 170.976 8.12851C171.633 8.74309 172.034 8.45388 172.18 7.26086C172.217 7.04395 172.271 6.73666 172.344 6.33899C172.454 5.94132 172.49 5.70633 172.454 5.63403C172.417 5.56172 172.381 5.16405 172.344 4.44101C172.235 3.82643 172.107 3.30222 171.961 2.8684C171.596 1.67538 171.25 1.4404 170.922 2.16344C170.922 2.30804 170.794 2.43458 170.538 2.54303C170.283 2.61534 170.046 2.68764 169.827 2.75994C169.645 2.83225 169.572 2.9407 169.608 3.08531C169.645 3.22992 169.845 3.73605 170.21 4.60369Z" stroke="#A76C47" stroke-width="0.8"/>
<path d="M175.847 7.85737C176.503 7.64046 177.324 7.24279 178.309 6.66436C179.294 6.08592 180.06 5.52557 180.608 4.98329L181.921 3.68182C182.432 3.35645 182.541 2.9407 182.249 2.43458C181.958 1.92845 181.574 1.71154 181.1 1.78384C180.954 1.78384 180.808 1.80192 180.662 1.83807C180.553 1.83807 180.462 1.85614 180.389 1.8923C180.316 1.92845 180.225 2.00075 180.115 2.10921C180.042 2.21766 179.987 2.30804 179.951 2.38035C179.915 2.4165 179.86 2.50688 179.787 2.65149C179.714 2.75994 179.659 2.83225 179.623 2.8684C179.367 3.41068 178.182 4.58562 176.066 6.39322C175.628 6.75474 175.372 7.0078 175.299 7.15241C175.227 7.26086 175.227 7.3874 175.299 7.532C175.409 7.74892 175.591 7.85737 175.847 7.85737Z" stroke="#A76C47" stroke-width="0.8"/>
<path fill-rule="evenodd" clip-rule="evenodd" d="M185.204 8.23697C186.956 7.9116 187.831 7.36932 187.831 6.61013C187.831 5.52557 186.956 5.25443 185.204 5.79671C184.694 5.97747 183.636 6.39322 182.03 7.04395C180.425 7.65854 179.258 8.07428 178.528 8.29119C178.309 8.3635 177.817 8.58041 177.051 8.94193C176.285 9.2673 175.591 9.55651 174.971 9.80958C174.351 10.0265 173.931 10.1349 173.712 10.1349C173.64 10.1349 173.512 10.0446 173.329 9.8638C173.147 9.68304 172.946 9.68304 172.727 9.8638C172.545 9.93611 172.399 9.95418 172.29 9.91803C172.217 9.88188 172.071 9.75535 171.852 9.53844C171.669 9.24922 171.086 8.90578 170.101 8.50811C169.152 8.11044 168.55 7.80314 168.295 7.58623C167.602 7.0078 166.981 6.71858 166.434 6.71858C165.923 6.71858 165.632 7.0078 165.559 7.58623C165.559 7.9839 165.686 8.30927 165.942 8.56233C166.234 8.8154 166.708 9.06846 167.365 9.32153C168.058 9.53844 168.477 9.68304 168.623 9.75535C168.769 9.82765 168.97 9.91803 169.225 10.0265C169.48 10.1349 169.645 10.2072 169.718 10.2434C169.791 10.2796 169.882 10.388 169.991 10.5688C170.101 10.7134 170.082 10.8941 169.937 11.111C169.9 11.2195 168.915 11.5449 166.981 12.0872C166.215 12.3041 165.686 12.4487 165.394 12.521C164.92 12.6656 164.72 12.756 164.793 12.7921C164.647 12.8644 164.063 13.0452 163.041 13.3344C162.02 13.6236 161.4 13.8947 161.181 14.1478C160.962 14.4009 160.871 14.7082 160.907 15.0697C160.98 15.4312 161.199 15.7204 161.564 15.9373C161.929 16.1181 162.293 16.0819 162.658 15.8289C162.95 15.6843 163.534 15.5035 164.409 15.2866C165.322 15.0335 165.923 14.8528 166.215 14.7443C166.325 14.7082 166.507 14.6539 166.763 14.5816C168.988 13.8947 170.028 13.6959 169.882 13.9851C170.064 14.0936 170.265 14.4551 170.484 15.0697C170.703 15.6843 170.849 16.2808 170.922 16.8592L170.976 17.8353L170.265 18.486C169.973 18.8114 169.316 19.2452 168.295 19.7875C167.273 20.3298 166.671 20.7094 166.489 20.9263C166.234 21.2155 166.197 21.5047 166.38 21.794C166.598 22.0832 166.963 22.2639 167.474 22.3362C168.495 22.4808 169.681 22.2459 171.031 21.6313L171.578 21.4144L172.016 21.1974C172.125 21.1613 172.217 21.1613 172.29 21.1974C172.399 21.1974 172.472 21.2698 172.509 21.4144C172.545 21.559 172.563 21.7759 172.563 22.0651C172.563 22.5712 172.454 22.9508 172.235 23.2039C172.016 23.4208 171.524 23.71 170.757 24.0715C169.626 24.65 169.061 25.1199 169.061 25.4815C169.061 25.843 169.572 26.0237 170.593 26.0237C171.286 26.0237 171.688 26.078 171.797 26.1864C171.87 26.2949 171.907 26.6022 171.907 27.1083C171.943 27.6144 171.925 28.0121 171.852 28.3013C171.815 28.5182 171.396 28.8074 170.593 29.169C169.17 29.9281 166.981 30.6693 164.026 31.3923C163.953 31.3923 163.753 31.4285 163.424 31.5008C163.096 31.5731 162.804 31.6634 162.549 31.7719C162.293 31.8442 162.02 31.9527 161.728 32.0973C161.473 32.2419 161.272 32.4226 161.126 32.6395C161.017 32.8203 160.998 33.0372 161.071 33.2903C161.217 33.7964 161.564 34.0675 162.111 34.1037C162.658 34.1398 163.57 33.941 164.847 33.5072C166.051 33.1457 166.817 32.9288 167.146 32.8565C167.255 32.8565 167.675 32.7299 168.404 32.4769C169.134 32.1876 169.809 31.9527 170.429 31.7719C171.049 31.555 171.341 31.5008 171.305 31.6092C171.378 31.6454 171.451 31.9527 171.524 32.5311C171.596 33.0734 171.633 33.5795 171.633 34.0495C171.633 34.4833 171.615 34.7364 171.578 34.8087C171.505 34.8087 171.359 34.7544 171.14 34.646C170.958 34.5014 170.83 34.4291 170.757 34.4291C170.721 34.3929 170.611 34.3568 170.429 34.3206C170.283 34.2483 170.174 34.2302 170.101 34.2664L169.772 34.4291C169.663 34.4652 169.553 34.5737 169.444 34.7544C169.335 34.899 169.225 35.0798 169.116 35.2967C168.641 36.0198 168.058 36.7609 167.365 37.5201C166.708 38.2793 166.234 38.7312 165.942 38.8758C165.796 39.0204 165.322 39.418 164.519 40.0688C163.753 40.7195 163.096 41.2437 162.549 41.6414C162.002 42.0391 161.6 42.274 161.345 42.3463C161.017 42.4187 160.652 42.6356 160.25 42.9971C159.521 43.6478 159.466 44.2082 160.086 44.6781C160.67 45.1481 161.345 45.1301 162.111 44.6239C164.264 43.2501 165.449 42.4006 165.668 42.0752C165.923 41.7498 166.234 41.4968 166.598 41.316C167 41.0991 167.602 40.593 168.404 39.7976C169.243 39.0023 169.772 38.3877 169.991 37.9539C170.174 37.5924 170.447 37.1947 170.812 36.7609C171.177 36.327 171.414 36.1101 171.524 36.1101C171.669 36.074 171.797 36.3632 171.907 36.9778C172.016 37.5924 172.107 38.2973 172.18 39.0927C172.253 39.8519 172.326 40.3038 172.399 40.4484C172.472 40.593 172.545 41.2618 172.618 42.4548C172.727 43.6478 172.691 44.2805 172.509 44.3528C172.29 44.4974 172.071 44.407 171.852 44.0816C171.633 43.7924 171.505 43.5032 171.469 43.214C171.396 42.8886 171.232 42.5813 170.976 42.2921C170.429 41.6775 170.01 41.6775 169.718 42.2921C169.681 42.7982 169.645 43.0875 169.608 43.1598C169.608 43.2321 169.681 43.4128 169.827 43.702C169.973 43.9913 170.082 44.2262 170.155 44.407C170.046 44.5878 170.557 45.2566 171.688 46.4134C172.819 47.5703 173.494 48.0945 173.712 47.9861C174.296 47.9861 174.752 47.6245 175.081 46.9015C175.227 46.4677 175.227 45.5639 175.081 44.1901C174.971 42.8163 174.807 41.2437 174.588 39.4723C174.369 37.7008 174.241 36.544 174.205 36.0017C174.205 35.7486 174.169 35.2967 174.096 34.646C174.023 33.9952 173.968 33.471 173.931 33.0734V31.6634C173.968 31.1212 174.041 30.6873 174.15 30.362C174.296 30.0366 174.497 29.8197 174.752 29.7112C175.081 29.5305 175.683 29.2413 176.558 28.8436C177.434 28.4459 178.054 28.1748 178.419 28.0302C178.82 27.8494 179.367 27.6325 180.06 27.3794C180.79 27.0902 181.465 26.8552 182.085 26.6745C182.705 26.4937 183.38 26.3491 184.11 26.2406C185.241 26.096 185.806 25.6441 185.806 24.8849C185.806 24.3065 185.533 23.9631 184.986 23.8546C184.438 23.7462 183.508 23.8365 182.195 24.1258C180.772 24.4511 179.623 24.5054 178.747 24.2884C178.054 24.1438 177.817 23.9088 178.036 23.5835C178.182 23.3666 178.236 23.1135 178.2 22.8243C178.2 22.5351 178.109 22.3001 177.926 22.1193C177.89 21.9747 177.653 21.8663 177.215 21.794C176.777 21.7217 176.394 21.6313 176.066 21.5228C175.737 21.3782 175.664 21.1613 175.847 20.8721C175.956 20.6913 176.339 20.4383 176.996 20.1129C178.747 19.2091 179.677 18.5584 179.787 18.1607C179.896 17.7269 179.75 17.3834 179.349 17.1304C178.984 16.8411 178.546 16.805 178.036 17.0219C177.634 17.2388 177.014 17.4376 176.175 17.6184C175.336 17.7992 174.752 17.8353 174.424 17.7269L175.026 17.1304C175.391 16.7327 175.628 16.4796 175.737 16.3712C175.847 16.2627 176.047 16.0277 176.339 15.6662C176.668 15.3047 176.905 15.0335 177.051 14.8528C177.197 14.6359 177.361 14.3828 177.543 14.0936C177.726 13.7682 177.871 13.4971 177.981 13.2802C178.711 11.7979 179.24 10.9122 179.568 10.623C182.122 9.24922 184.001 8.45388 185.204 8.23697ZM174.424 12.4667C174.971 12.2498 175.299 12.0872 175.409 11.9787C175.92 11.6172 176.285 11.5629 176.503 11.816C176.613 11.9606 176.449 12.3583 176.011 13.009C175.318 14.0574 174.698 14.8889 174.15 15.5035C173.64 16.1181 173.293 16.3892 173.111 16.3169C172.965 16.2808 172.8 15.9193 172.618 15.2324C172.472 14.5093 172.436 14.0032 172.509 13.714C172.436 13.5332 172.6 13.3344 173.001 13.1175C173.402 12.8644 173.877 12.6475 174.424 12.4667ZM177.817 25.373C178.109 25.6622 178.218 25.8249 178.145 25.8611C177.963 25.9334 177.616 26.078 177.105 26.2949C176.595 26.5118 176.12 26.7106 175.683 26.8914C175.245 27.0721 174.88 27.1987 174.588 27.271C174.479 27.1987 174.424 26.8914 174.424 26.3491C174.46 25.8068 174.552 25.4092 174.698 25.1561C174.77 24.9392 174.989 24.7223 175.354 24.5054C175.756 24.2884 176.102 24.18 176.394 24.18C176.43 24.1438 176.613 24.2523 176.941 24.5054C177.27 24.7584 177.561 25.0476 177.817 25.373Z" stroke="#A76C47" stroke-width="0.8"/>
<path d="M194.234 41.9125C194.599 41.7318 194.854 41.3883 195 40.8822C195 39.8699 193.869 39.0927 191.607 38.5504C190.659 38.3335 189.801 38.0262 189.035 37.6285C188.305 37.2308 187.521 36.9597 186.682 36.8151C186.427 36.7789 186.08 36.5801 185.642 36.2186C185.241 35.8209 184.84 35.6402 184.438 35.6763C184.292 35.6763 184.074 35.6402 183.782 35.5679C183.49 35.4955 183.271 35.4594 183.125 35.4594C182.979 35.4594 182.815 35.5136 182.632 35.6221C182.487 35.7305 182.651 36.074 183.125 36.6524C183.599 37.1947 184.146 37.737 184.767 38.2793C185.387 38.7854 185.806 39.0384 186.025 39.0384C186.354 39.1107 186.828 39.3096 187.448 39.6349C188.068 39.9603 188.506 40.1591 188.762 40.2315C189.017 40.2676 189.4 40.4122 189.911 40.6653C190.458 40.9183 190.969 41.1533 191.443 41.3702C191.954 41.5872 192.446 41.7679 192.921 41.9125C193.431 42.0571 193.869 42.0571 194.234 41.9125Z" stroke="#A76C47" stroke-width="0.8"/>
<path d="M120.795 5.95944C120.284 6.32096 119.974 6.93554 119.864 7.80319C119.791 8.12855 119.646 8.50815 119.427 8.94197C119.208 9.33965 119.044 9.71924 118.934 10.0808C116.818 16.7327 114.374 22.3905 111.601 27.0541C111.528 27.2349 111.346 27.5422 111.054 27.976C110.799 28.3737 110.58 28.7352 110.397 29.0605C110.215 29.3859 110.051 29.7474 109.905 30.1451C109.759 30.5066 109.741 30.832 109.85 31.1212C109.996 31.3743 110.27 31.555 110.671 31.6635C110.999 31.6635 111.273 31.5731 111.492 31.3923C111.711 31.2116 112.002 30.7597 112.367 30.0366C112.55 29.7113 112.933 29.0244 113.516 27.976C114.137 26.9276 114.684 25.9696 115.158 25.1019C115.632 24.2343 115.906 23.6558 115.979 23.3666C116.052 23.0412 116.545 22.029 117.457 20.3298C117.785 19.7153 118.004 19.2995 118.113 19.0826L118.332 18.4319C118.515 18.1427 118.989 16.8231 119.755 14.4732C120.521 12.0872 121.214 10.6592 121.834 10.1892C122.017 10.1531 122.765 10.2977 124.078 10.623C125.428 10.9123 126.176 11.0569 126.322 11.0569C126.614 11.0207 127.088 11.2376 127.745 11.7076C128.401 12.1414 128.894 12.286 129.222 12.1414C129.514 12.1776 129.733 11.9607 129.879 11.4907C130.061 10.9846 130.025 10.605 129.769 10.3519C129.332 9.5204 127.745 8.85159 125.008 8.34547C124.826 8.27316 124.461 8.20086 123.914 8.12855C123.403 8.0201 123.038 7.87549 122.82 7.69473C122.637 7.51397 122.637 7.22476 122.82 6.82708C122.929 6.53787 122.965 6.35711 122.929 6.2848C122.929 6.17635 122.856 6.06789 122.71 5.95944C121.98 5.56177 121.342 5.56177 120.795 5.95944Z" stroke="#A76C47" stroke-width="0.8"/>
<path d="M144.052 34.9714C143.906 35.1522 143.833 35.3148 143.833 35.4594C143.833 35.6764 144.362 36.1825 145.42 36.9778C146.515 37.737 147.5 38.3154 148.375 38.7131C148.704 38.8216 149.233 39.1831 149.962 39.7977C150.729 40.3761 151.276 40.6472 151.604 40.6111C152.078 40.5749 152.516 40.2677 152.918 39.6892C153.355 39.0746 153.483 38.442 153.301 37.7912C153.228 37.3574 153.191 36.7428 153.191 35.9475C153.228 35.116 153.264 34.0134 153.301 32.6396C153.337 31.2297 153.337 30.1993 153.301 29.5486C153.191 29.3678 153.228 28.7894 153.41 27.8133C153.592 26.8372 153.611 26.2407 153.465 26.0238C153.465 25.4815 153.447 24.2523 153.41 22.3363C153.374 20.4202 153.337 18.938 153.301 17.8896C153.301 16.8412 153.246 15.6301 153.136 14.2563C153.027 12.8464 152.899 11.7618 152.753 11.0026C152.68 10.135 152.571 9.53848 152.425 9.21311C152.316 8.88775 152.115 8.67083 151.823 8.56238C151.385 8.45392 151.02 8.472 150.729 8.61661C150.692 8.65276 150.564 8.76121 150.346 8.94197C150.127 9.08658 149.999 9.19504 149.962 9.26734C149.926 9.33965 149.889 9.48425 149.853 9.70117C149.853 9.91808 149.908 10.1711 150.017 10.4604C150.163 11.0749 150.273 11.9064 150.346 12.9548C150.455 13.9671 150.564 14.7805 150.674 15.3951C150.893 16.5158 151.002 18.6849 151.002 21.9025C151.039 25.12 151.002 27.976 150.893 30.4705C150.783 32.965 150.692 35.0075 150.619 36.5982C150.546 36.779 150.419 36.8694 150.236 36.8694C150.127 36.9055 149.908 36.8874 149.579 36.8151C149.288 36.7067 148.904 36.5621 148.43 36.3813C147.992 36.2006 147.591 36.0379 147.226 35.8933C146.861 35.7125 146.369 35.4956 145.749 35.2425C145.165 34.9895 144.764 34.8087 144.545 34.7003C144.399 34.7003 144.235 34.7906 144.052 34.9714Z" stroke="#A76C47" stroke-width="0.8"/>
<path d="M127.088 15.4493C127.307 15.2324 127.453 14.9251 127.526 14.5275C127.526 14.2382 127.343 14.0213 126.979 13.8767C126.614 13.696 126.267 13.6598 125.939 13.7683C125.61 14.0213 124.461 14.6721 122.491 15.7205C120.558 16.7689 119.427 17.4738 119.098 17.8354C118.989 18.0161 118.934 18.3234 118.934 18.7572C118.971 19.1911 119.044 19.4441 119.153 19.5164C119.554 19.8779 120.12 19.8056 120.849 19.2995C121.725 18.7211 123.13 17.8534 125.063 16.6966C125.319 16.5158 125.665 16.317 126.103 16.1001C126.541 15.8832 126.869 15.6662 127.088 15.4493Z" stroke="#A76C47" stroke-width="0.8"/>
<path fill-rule="evenodd" clip-rule="evenodd" d="M122.272 32.6396C122.345 32.4227 122.473 32.2961 122.655 32.26C122.692 32.4408 123.093 32.0792 123.859 31.1754C124.662 30.2716 125.446 29.2955 126.212 28.2471C126.979 27.1626 127.362 26.4938 127.362 26.2407C127.398 26.1322 127.69 25.355 128.237 23.9089C128.784 22.4628 128.949 21.5409 128.73 21.1433C128.693 20.4202 128.529 19.9141 128.237 19.6249C127.982 19.2995 127.526 19.1368 126.869 19.1368C126.212 19.1007 125.355 19.3176 124.297 19.7876C123.276 20.2214 122.436 20.6552 121.78 21.089C121.16 21.4867 120.594 21.8663 120.083 22.2278C119.901 22.517 119.901 22.8966 120.083 23.3666C120.266 23.8004 120.521 24.0535 120.849 24.1258C121.287 24.2704 121.47 24.5235 121.397 24.885C121.36 25.2465 121.214 25.59 120.959 25.9153C120.704 26.2407 120.503 26.6022 120.357 26.9999C120.211 27.3614 120.229 27.6506 120.412 27.8675C120.521 27.9037 120.521 28.3737 120.412 29.2775C120.339 30.1451 120.302 30.6693 120.302 30.8501C120.229 31.79 119.901 33.0011 119.317 34.4833C118.77 35.9294 118.296 36.9055 117.894 37.4116C117.566 37.6647 117.347 38.0082 117.238 38.442C117.128 38.8397 116.982 39.1469 116.8 39.3639L116.581 39.6892C116.107 40.5207 116.18 41.1715 116.8 41.6414C117.347 42.0029 117.858 41.8583 118.332 41.2076C118.77 40.7015 119.189 40.0507 119.591 39.2554C119.992 38.4239 120.412 37.484 120.849 36.4355C121.287 35.3871 121.634 34.6279 121.889 34.158C121.962 34.0134 122.017 33.7784 122.053 33.453C122.126 33.1276 122.199 32.8565 122.272 32.6396ZM126.322 21.4686C126.76 21.6494 126.723 22.0832 126.212 22.7701C126.139 22.7701 125.829 23.0051 125.282 23.4751C124.115 24.4873 123.531 24.4692 123.531 23.4208C123.421 23.0955 123.476 22.8063 123.695 22.5532C123.914 22.264 124.169 22.0832 124.461 22.0109C124.753 21.9025 125.1 21.794 125.501 21.6855C125.939 21.5771 126.212 21.5048 126.322 21.4686ZM124.352 27.2168C123.659 28.0121 123.239 28.3556 123.093 28.2471C123.02 28.1025 123.057 27.9037 123.203 27.6506C123.349 27.3614 123.549 27.1083 123.805 26.8914C124.279 26.6384 124.571 26.5118 124.68 26.5118C124.863 26.548 124.753 26.783 124.352 27.2168Z" stroke="#A76C47" stroke-width="0.8"/>
<path d="M138.689 20.5468C138.434 21.0529 138.543 21.4867 139.018 21.8482L139.456 22.2278L139.51 24.7223C139.583 26.3853 139.583 27.5241 139.51 28.1387L139.456 29.0605C139.784 29.2775 140.112 29.4221 140.441 29.4944C140.805 29.5305 141.134 29.3859 141.426 29.0605C141.572 28.8798 141.644 28.6086 141.644 28.2471C141.681 27.8856 141.699 26.9095 141.699 25.3188C141.699 23.3305 141.663 21.9928 141.59 21.3059C141.517 20.6191 141.371 20.1491 141.152 19.896C140.824 19.5707 140.386 19.4803 139.839 19.6249C139.328 19.7333 138.945 20.0406 138.689 20.5468Z" stroke="#A76C47" stroke-width="0.8"/>
<path fill-rule="evenodd" clip-rule="evenodd" d="M123.914 42.726C124.06 42.9429 124.443 43.1237 125.063 43.2683C125.428 43.2683 125.683 43.214 125.829 43.1056C126.012 42.961 126.212 42.6537 126.431 42.1837C126.687 41.7137 126.869 41.4787 126.979 41.4787C129.204 39.635 130.463 38.5504 130.754 38.2251C130.937 37.972 131.32 37.6466 131.904 37.249C132.524 36.8151 132.98 36.3994 133.272 36.0017C133.6 35.5679 133.618 35.0979 133.326 34.5918C133.253 34.4833 133.126 34.4291 132.943 34.4291C132.761 34.4291 132.579 34.4653 132.396 34.5376C132.214 34.6099 132.013 34.7003 131.794 34.8087C131.612 34.881 131.502 34.9172 131.466 34.9172C131.393 34.881 131.429 34.646 131.575 34.2122C131.831 33.7061 131.794 33.2542 131.466 32.8565C131.138 32.4588 130.736 32.26 130.262 32.26C130.152 32.2238 129.97 32.26 129.715 32.3684C129.459 32.4408 129.204 32.5492 128.949 32.6938C128.73 32.8023 128.493 32.8927 128.237 32.965C127.982 33.0373 127.763 33.0373 127.58 32.965C127.435 32.8927 127.343 32.73 127.307 32.4769C127.161 32.1877 126.887 31.9165 126.486 31.6635C126.121 31.4104 125.775 31.3562 125.446 31.5008C125.154 31.6093 125.045 31.9889 125.118 32.6396C125.264 33.9411 125.081 35.4594 124.571 37.1947C124.096 38.93 123.841 40.1954 123.805 40.9907C123.732 41.8945 123.768 42.4729 123.914 42.726ZM128.675 36.544C128.529 36.9417 128.31 37.2309 128.018 37.4116C127.763 37.5563 127.58 37.5924 127.471 37.5201C127.398 37.4116 127.416 37.1947 127.526 36.8694C127.599 36.7248 127.653 36.5079 127.69 36.2186C127.726 35.9294 127.799 35.7306 127.909 35.6221C128.055 35.5137 128.31 35.4594 128.675 35.4594C128.857 35.7487 128.857 36.1102 128.675 36.544Z" stroke="#A76C47" stroke-width="0.8"/>
<path fill-rule="evenodd" clip-rule="evenodd" d="M79.5878 27.976C79.6972 26.0961 79.6972 25.1562 79.5878 25.1562C79.5513 25.1562 79.223 25.4454 78.6028 26.0238C77.7637 26.9276 76.505 27.8134 74.8268 28.681C73.8783 29.1871 73.1669 29.404 72.6926 29.3317C72.2548 29.2233 72.0906 28.8256 72.2001 28.1387C72.2366 27.7049 72.4007 27.3976 72.6926 27.2168C73.0209 26.9999 73.4587 26.8372 74.006 26.7288C74.5897 26.5842 75.0275 26.4396 75.3193 26.295C75.8666 26.1142 76.4868 25.6623 77.1799 24.9393C77.9096 24.1801 78.4203 23.7101 78.7122 23.5293C79.2594 23.1678 79.5695 22.9328 79.6425 22.8244C79.7884 22.6075 79.9161 22.029 80.0256 21.0891C80.1715 20.113 80.1897 19.5707 80.0803 19.4622C79.8614 19.4622 79.4418 19.643 78.8216 20.0045C78.2379 20.366 77.9096 20.5649 77.8366 20.601C77.5812 20.6733 77.4171 20.7999 77.3441 20.9806C77.3076 21.1614 77.2529 21.7398 77.1799 22.7159C77.1435 23.4751 77.0887 23.9812 77.0158 24.2343C76.9793 24.4512 76.8698 24.5777 76.6874 24.6139C76.4685 24.7224 76.2679 24.6681 76.0855 24.4512C75.9031 24.2343 75.7754 23.9089 75.7024 23.4751C75.6294 22.2459 75.6477 20.601 75.7571 18.5404C75.9031 16.4436 76.1219 14.9794 76.4138 14.1479L75.4835 14.2564C75.0092 14.2925 74.6991 14.3106 74.5532 14.3106C74.4437 14.2744 74.2978 14.166 74.1154 13.9852C73.7506 13.6237 73.6411 13.2803 73.7871 12.9549C73.9695 12.6295 74.3708 12.4126 74.991 12.3042C75.4653 12.2319 75.976 12.1053 76.5233 11.9246C77.107 11.7076 77.563 11.5269 77.8913 11.3823C78.2197 11.2015 78.694 10.9485 79.3142 10.6231C79.9344 10.2616 80.2992 10.0447 80.4086 9.97235C80.5546 9.97235 80.9194 9.71929 81.5031 9.21316C82.3057 8.41782 82.9259 8.23706 83.3637 8.67088C83.5097 8.92395 83.6009 9.14086 83.6373 9.32162C83.6738 9.50238 83.6373 9.68314 83.5279 9.8639C83.4184 10.0085 83.309 10.135 83.1995 10.2435C83.1266 10.3158 82.9807 10.4423 82.7618 10.6231C82.5429 10.8039 82.3969 10.9304 82.324 11.0027C81.6673 11.5088 81.3025 11.9969 81.2295 12.4668C81.1565 12.9007 81.3754 13.2622 81.8862 13.5514C82.324 13.696 82.4334 14.166 82.2145 14.9613C82.178 15.1421 82.0503 17.0762 81.8315 20.7637C81.649 24.4512 81.4484 27.3976 81.2295 29.6029C81.0471 31.772 80.8099 33.2 80.5181 33.8869C80.4086 34.1038 80.208 34.2484 79.9161 34.3207C79.6607 34.393 79.4601 34.3749 79.3142 34.2665C79.1318 34.158 79.0223 33.5434 78.9858 32.4227C78.8764 31.4105 78.9311 30.6513 79.15 30.1452C79.4054 29.6029 79.5513 28.8798 79.5878 27.976ZM78.2744 14.3106C78.2744 14.5637 78.3109 14.7263 78.3839 14.7986C78.4568 14.8348 78.621 14.7986 78.8764 14.6902C79.3142 14.4371 79.4236 14.1118 79.2047 13.7141C78.9858 13.2803 78.7487 13.208 78.4933 13.4972C78.3474 13.6779 78.2744 13.9491 78.2744 14.3106ZM78.0008 18.3777C78.3291 18.2692 78.7487 17.9981 79.2594 17.5643C79.8067 17.1304 79.9344 16.787 79.6425 16.5339C79.4966 16.4978 79.223 16.6062 78.8216 16.8593C78.4568 17.1124 78.1832 17.3654 78.0008 17.6185C77.8913 17.7993 77.8184 17.9439 77.7819 18.0523C77.7454 18.1246 77.7272 18.1969 77.7272 18.2692C77.7272 18.3054 77.7454 18.3415 77.7819 18.3777H78.0008Z" stroke="#A76C47" stroke-width="0.8"/>
<path d="M62.8423 11.1654C62.7694 11.6353 62.7876 11.9426 62.897 12.0872C63.043 12.1957 63.2071 12.1776 63.3896 12.033C63.572 11.8884 63.6997 11.6896 63.7726 11.4365C63.8456 11.0388 64.1192 10.7858 64.5935 10.6773C65.0678 10.5327 65.4508 10.5869 65.7427 10.84C65.9616 11.0569 66.0528 11.3281 66.0163 11.6534C66.0163 11.9788 65.8886 12.2861 65.6332 12.5753C65.5238 12.7561 65.0495 13.1357 64.2104 13.7141C63.3713 14.2925 62.897 14.654 62.7876 14.7986C62.7876 14.8709 62.6964 15.3228 62.514 16.1543C62.3316 16.9858 62.1309 17.6185 61.912 18.0523C61.5107 18.9923 61.383 19.4442 61.529 19.408C61.6019 19.3719 61.6931 19.2815 61.8026 19.1369C63.1159 18.0162 64.3563 17.0943 65.5238 16.3713C65.6697 16.3713 65.8156 16.4978 65.9616 16.7508C66.1075 16.9678 66.1622 17.1485 66.1257 17.2931C66.0893 17.4739 65.5785 18.0523 64.5935 19.0284C63.7909 19.8238 63.2801 20.348 63.0612 20.601C62.8788 20.8541 62.7511 21.1795 62.6782 21.5771C62.6417 21.8664 62.6417 22.8425 62.6782 24.5054C62.7511 26.1684 62.8241 27.0903 62.897 27.2711C63.043 27.6687 63.572 27.3072 64.484 26.1865C64.557 26.1142 64.6117 26.0419 64.6482 25.9696C65.4873 24.885 66.2534 23.9451 66.9466 23.1497C67.129 22.9328 67.3661 22.8244 67.658 22.8244C67.9499 22.8244 68.1505 22.9509 68.26 23.204C68.4059 23.6016 68.2965 24.0897 67.9316 24.6681C67.6033 25.2104 67.129 25.8069 66.5088 26.4577C65.8886 27.1084 65.5055 27.5422 65.3596 27.7591C65.2137 27.9399 64.9218 28.2833 64.484 28.7895C64.0827 29.2594 63.7544 29.6571 63.499 29.9825C63.2801 30.2717 63.043 30.6513 62.7876 31.1213C62.5687 31.5551 62.441 31.9527 62.4045 32.3143C62.4045 32.6396 62.5322 32.8204 62.7876 32.8566C62.9335 32.8927 63.3531 33.0735 64.0462 33.3988C64.7394 33.688 65.2137 33.8507 65.4691 33.8869C65.8704 33.923 66.8007 34.158 68.26 34.5918C70.23 35.2064 71.9265 35.586 73.3493 35.7306C74.7721 35.8391 75.9395 35.9837 76.8516 36.1645C77.3259 36.3452 78.0373 36.3994 78.9858 36.3271C79.9708 36.2187 80.5728 36.1825 80.7917 36.2187C81.6673 36.291 84.0751 36.3814 88.0152 36.4898C91.9918 36.5983 94.4361 36.7067 95.3482 36.8152C96.4427 36.8513 97.0994 36.9236 97.3183 37.0321C97.5372 37.1406 97.6466 37.4117 97.6466 37.8455C97.6466 38.4963 97.3548 38.8759 96.771 38.9843C96.1873 39.0928 94.9651 39.0024 93.1045 38.7132C93.0316 38.677 92.3567 38.6409 91.0798 38.6047C89.8394 38.5686 88.3618 38.5324 86.6471 38.4963C84.9689 38.4601 83.2725 38.424 81.5578 38.3878C79.8796 38.3517 78.4751 38.3155 77.3441 38.2793C76.2132 38.207 75.7024 38.1528 75.8118 38.1167L73.8965 37.8455C72.9115 37.7009 72.0724 37.5744 71.3792 37.4659C70.7225 37.3575 70.0294 37.2129 69.2997 37.0321C68.5701 36.8513 68.0958 36.6887 67.8769 36.544C67.7675 36.4717 67.3479 36.3452 66.6183 36.1645C65.8886 35.9475 65.4691 35.7849 65.3596 35.6764C64.9218 35.4956 64.0645 35.3149 62.7876 35.1341C61.5107 34.9172 60.6351 34.7184 60.1609 34.5376C59.869 34.393 59.4859 34.2846 59.0117 34.2122C58.5374 34.1399 58.1178 34.0315 57.753 33.8869C57.1328 33.67 56.7315 33.5977 56.5491 33.67C56.4032 33.7061 56.2207 33.923 56.0019 34.3207C55.8559 34.6461 55.2175 35.5499 54.0865 37.0321C52.5543 39.0566 51.478 40.1773 50.8578 40.3942C50.493 40.5388 50.2194 40.5208 50.037 40.34C49.8546 40.1592 49.8728 39.9243 50.0917 39.635C50.8213 38.8397 52.4448 36.6525 54.9621 33.0735C55.0716 32.7481 55.3817 31.9708 55.8924 30.7417C56.4396 29.5125 56.7862 28.7171 56.9322 28.3556C57.1511 27.6326 57.4612 27.0722 57.8625 26.6746C58.3003 26.2769 58.6651 26.2046 58.9569 26.4577C59.2488 26.6746 59.267 27.1084 59.0117 27.7591C58.8292 28.1568 58.5921 28.8256 58.3003 29.7656C58.0084 30.6694 57.8625 31.1936 57.8625 31.3382C57.8625 31.6997 58.4462 31.8985 59.6136 31.9347L60.4345 31.9889L60.7628 30.9043C60.9452 30.4705 61.0364 29.9825 61.0364 29.4402C61.0364 28.8979 61 28.2833 60.927 27.5964C60.854 26.8734 60.8358 26.2769 60.8723 25.8069C60.8358 23.9993 60.6716 23.0413 60.3798 22.9328C60.2338 22.8605 59.5589 23.1678 58.355 23.8547C57.5888 24.3247 57.0781 24.5597 56.8227 24.5597C56.4579 24.5597 56.2025 24.4151 56.0566 24.1258C55.9471 23.8005 56.0019 23.4751 56.2207 23.1497C56.3302 22.969 56.7133 22.6617 57.3699 22.2279C58.0631 21.7579 58.4827 21.5229 58.6286 21.5229C58.7745 21.5229 58.9205 21.4145 59.0664 21.1975C59.2488 20.9806 59.34 20.7637 59.34 20.5468C59.34 20.2937 59.5407 19.6069 59.942 18.4861C60.2338 17.5823 60.398 16.9858 60.4345 16.6966C60.5074 16.3713 60.4527 16.1724 60.2703 16.1001C59.9055 16.1001 59.5771 16.1543 59.2853 16.2628C58.9934 16.3713 58.6651 16.5159 58.3003 16.6966C57.9719 16.8774 57.6618 17.022 57.3699 17.1304C56.6768 17.3835 56.2937 17.5462 56.2207 17.6185C56.0748 17.7631 55.8924 17.8173 55.6735 17.7812C55.4546 17.745 55.3087 17.6366 55.2357 17.4558C55.1263 17.2027 55.2357 16.8412 55.5641 16.3713C55.8559 15.6121 57.0234 14.9613 59.0664 14.419C59.6136 14.3467 60.0149 14.1841 60.2703 13.931C60.4527 13.7141 60.5622 13.4791 60.5986 13.226C60.6716 12.973 60.7628 12.2319 60.8723 11.0027C60.9087 9.30354 61.4195 8.86972 62.4045 9.70122C62.6964 10.0266 62.8423 10.5146 62.8423 11.1654Z" stroke="#A76C47" stroke-width="0.8"/>
<path d="M103.393 28.1929C102.371 27.8676 100.255 26.9638 97.0447 25.4815C93.8342 23.9993 91.554 23.0413 90.2042 22.6075C90.0583 22.6798 89.7299 23.0955 89.2192 23.8547C87.5774 26.2769 86.2641 27.488 85.2791 27.488C84.7683 27.488 84.5129 27.1807 84.5129 26.5661C84.5494 26.2769 84.8413 25.9515 85.3885 25.59C85.9357 25.1923 86.2641 24.9031 86.3735 24.7224C86.7019 24.3608 87.1214 23.8005 87.6322 23.0413C88.1794 22.2821 88.453 21.8664 88.453 21.794C88.453 21.7217 88.2889 21.5229 87.9605 21.1975C87.4498 20.836 87.3221 20.4564 87.5774 20.0588C87.8328 19.6249 88.2524 19.4442 88.8361 19.5165C89.2739 19.5526 89.5657 19.5526 89.7117 19.5165C89.8576 19.5165 90.2224 18.9019 90.8061 17.6727C91.3899 16.4436 91.6817 15.6844 91.6817 15.3951C91.6817 14.9613 91.098 15.1421 89.9306 15.9374C89.128 16.4436 88.5625 16.6785 88.2341 16.6424C87.9058 16.5701 87.7416 16.2266 87.7416 15.6121C87.7051 15.2867 87.8146 14.9794 88.07 14.6902C88.3618 14.401 88.599 14.2202 88.7814 14.1479C89.0003 14.0395 89.3286 13.8948 89.7664 13.7141C89.9123 13.6779 90.2042 13.5695 90.642 13.3887C91.1162 13.208 91.5358 13.0633 91.9006 12.9549C92.3019 12.8103 92.7032 12.7199 93.1045 12.6838C93.5423 12.6114 93.8342 12.6838 93.9801 12.9007C94.0896 12.973 94.1625 13.0814 94.199 13.226C94.272 13.3706 94.3085 13.5152 94.3085 13.6599C94.3085 13.8045 94.2902 13.9852 94.2537 14.2021C94.2173 14.419 94.1625 14.6179 94.0896 14.7986C94.0531 14.9433 93.9984 15.124 93.9254 15.3409C93.8524 15.5578 93.7795 15.7386 93.7065 15.8832C93.67 15.9917 93.6153 16.1363 93.5423 16.317C93.4694 16.4978 93.4146 16.6062 93.3782 16.6424C93.3417 16.787 93.141 17.1124 92.7762 17.6185C92.4114 18.1246 92.2107 18.5042 92.1742 18.7573C92.1378 18.8296 92.083 18.9742 92.0101 19.1911C91.9736 19.3719 91.9371 19.5165 91.9006 19.6249C91.9006 19.7334 91.8824 19.878 91.8459 20.0588C91.8094 20.2395 91.7912 20.3841 91.7912 20.4926C91.8277 20.5649 91.8641 20.6733 91.9006 20.8179C91.9736 20.9264 92.0648 20.9987 92.1742 21.0349C92.3202 21.071 92.4843 21.0891 92.6668 21.0891C93.5423 21.306 94.6368 21.7579 95.9502 22.4448C97.2635 23.0955 98.1391 23.5113 98.5769 23.692C98.7958 23.8005 99.2154 24.0174 99.8356 24.3428C100.456 24.6681 101.003 24.9393 101.477 25.1562C101.988 25.3369 102.371 25.4273 102.626 25.4273C103.539 25.4273 104.104 25.7165 104.323 26.295C104.505 26.7288 104.487 27.1626 104.268 27.5964C104.086 27.9941 103.794 28.1929 103.393 28.1929Z" stroke="#A76C47" stroke-width="0.8"/>
<path fill-rule="evenodd" clip-rule="evenodd" d="M11.785 20.8721C11.7486 21.2698 11.7486 21.4867 11.785 21.5228C11.785 21.6313 11.8398 22.4989 11.9492 24.1258C12.0222 25.3188 12.0769 26.078 12.1134 26.4033C12.1864 26.6926 12.3323 26.8914 12.5512 26.9999C12.916 27.1806 13.2626 27.1987 13.5909 27.0541C13.9558 26.8733 14.1929 26.5841 14.3023 26.1864C14.3388 25.9695 14.4118 24.6681 14.5212 22.282C14.6307 19.8598 14.6672 18.3053 14.6307 17.6184C14.6307 17.1484 14.7766 16.0097 15.0685 14.2021C15.3603 12.3583 15.6157 11.0568 15.8346 10.2976C16.1265 9.28539 16.8561 8.49005 18.0236 7.91161C19.191 7.29703 20.3949 7.09819 21.6353 7.31511C22.1461 7.38741 22.6751 7.6947 23.2223 8.23698C23.7695 8.74311 24.0796 9.26731 24.1526 9.80959C24.481 10.8218 24.6634 12.0329 24.6998 13.4429C24.7363 13.6959 24.8093 14.4009 24.9187 15.5578C25.0282 16.7146 25.1012 17.5823 25.1376 18.1607C25.2106 18.7391 25.2836 19.661 25.3565 20.9263C25.466 22.1555 25.5025 23.0051 25.466 23.475C25.466 23.9089 25.4477 24.5777 25.4113 25.4815C24.7181 25.8791 23.879 26.2587 22.894 26.6203C21.9454 26.9456 21.1428 27.1987 20.4861 27.3794C19.8659 27.5241 18.8444 27.759 17.4216 28.0844C16.0353 28.3736 15.1597 28.5725 14.7948 28.6809C13.9558 28.8617 12.4965 29.2774 10.417 29.9282C8.33745 30.5427 6.6775 30.9585 5.43709 31.1754C5.07227 31.1754 4.81689 31.2296 4.67096 31.3381C4.56151 31.4465 4.43382 31.6996 4.28789 32.0973C3.88659 33.0011 3.90483 33.4891 4.34262 33.5614C4.88986 33.7422 5.85664 33.5614 7.24298 33.0192C7.64428 32.8384 8.00911 32.748 8.33745 32.748C8.70228 32.7119 9.08534 32.6034 9.48665 32.4226C9.9974 32.278 11.0372 32.0069 12.6059 31.6092C14.2111 31.1754 15.6704 30.7958 16.9838 30.4704C18.2972 30.1089 19.0086 29.892 19.118 29.8197C19.3369 29.7474 19.9936 29.5847 21.0881 29.3317C22.1826 29.0786 23.0217 28.8255 23.6054 28.5725C25.32 27.8856 25.849 27.8133 25.1924 28.3556C24.6451 28.7894 24.6269 29.2413 25.1376 29.7113C25.7214 30.2174 26.2504 30.2355 26.7246 29.7655C27.0165 29.5847 27.1989 29.404 27.2719 29.2232C27.3813 29.0424 27.4725 28.6448 27.5455 28.0302C27.6549 27.4156 27.7461 27.0541 27.8191 26.9456C28.0015 26.7287 28.5852 26.4395 29.5703 26.078C30.5553 25.7165 31.2302 25.5357 31.595 25.5357C31.9234 25.5357 32.1788 25.4995 32.3612 25.4272C32.5801 25.3188 32.9631 25.0476 33.5104 24.6138C34.2765 23.9992 34.6778 23.5473 34.7143 23.2581C34.7143 22.3905 34.7873 20.9625 34.9332 18.9741C35.0791 16.9496 35.1703 15.3408 35.2068 14.1478C35.2433 12.9548 35.1521 11.563 34.9332 9.97228C34.7143 9.35769 34.4954 8.94194 34.2765 8.72503C34.0576 8.47197 33.784 8.34544 33.4556 8.34544C31.4491 8.30929 30.2999 8.41774 30.008 8.6708C29.6432 9.14078 29.6432 9.66498 30.008 10.2434C30.3729 10.8218 30.9201 11.0026 31.6498 10.7857C32.1605 10.7857 32.4706 10.8038 32.5801 10.8399C32.6895 10.8761 32.799 11.0026 32.9084 11.2195C33.0543 11.6172 33.1638 12.4487 33.2367 13.714C33.3462 14.9793 33.328 15.847 33.182 16.3169L32.4159 16.2627L31.6498 16.1543L30.9384 16.8592C30.1357 17.6546 29.2054 18.1968 28.1474 18.4861C27.7461 18.6307 27.4908 18.6487 27.3813 18.5403C27.3083 18.4318 27.2719 18.1245 27.2719 17.6184C27.3083 17.2569 27.3448 17.04 27.3813 16.9677C27.4178 16.8592 27.5455 16.805 27.7644 16.805C28.0198 16.8411 28.6764 16.4616 29.7344 15.6662C30.8289 14.8347 31.5403 14.3647 31.8687 14.2563C32.4159 14.2201 32.7625 13.949 32.9084 13.4429C33.0543 12.9006 32.8902 12.521 32.4159 12.3041C32.2335 12.1956 32.0693 12.1595 31.9234 12.1956C31.8139 12.2318 31.5403 12.3583 31.1025 12.5752C30.5188 12.8644 29.7527 13.3344 28.8041 13.9851C28.5487 14.0936 28.2569 14.2563 27.9285 14.4732C27.6002 14.6901 27.3995 14.8347 27.3266 14.907C27.2536 14.9432 27.1624 14.907 27.053 14.7986C26.9435 14.654 26.8706 14.437 26.8341 14.1478C26.7976 13.8586 26.7611 13.3525 26.7246 12.6294C26.6517 10.6772 26.3598 9.14078 25.849 8.02007C25.3383 6.86321 24.5539 6.03171 23.4959 5.52558C21.8907 4.94715 20.249 4.89292 18.5708 5.3629C16.8926 5.83288 15.6157 6.53784 14.7401 7.47779L14.3023 8.02007L13.8098 7.74893C13.4085 7.53202 13.0802 7.47779 12.8248 7.58625C12.6059 7.6947 12.46 7.96584 12.387 8.39966C12.3505 8.65273 12.2776 8.90579 12.1681 9.15886C12.0951 9.41192 12.0404 9.68306 12.0039 9.97228C11.9675 10.2253 11.9675 10.6049 12.0039 11.1111L12.0587 12.521L10.8547 13.0633C10.0156 13.4609 9.55961 13.714 9.48665 13.8225C9.30424 13.9671 9.15831 14.0394 9.04886 14.0394C8.82996 14.0032 8.70228 13.5875 8.66579 12.7921C8.55635 11.3099 8.46514 10.4965 8.39217 10.3519L8.11856 9.64691L8.93941 8.88772C9.63258 8.34544 9.97916 7.80316 9.97916 7.26088C10.0156 6.7186 9.65082 6.37515 8.88469 6.23055C8.55635 6.23055 7.86318 6.86321 6.80519 8.12853C5.74719 9.35769 4.94458 10.4965 4.39734 11.5449C4.25141 11.9064 4.23317 12.2679 4.34262 12.6294C4.45207 12.991 4.65272 13.2802 4.94458 13.4971L5.54654 13.1175C5.94785 12.8283 6.22147 12.7198 6.3674 12.7921C6.54981 12.8644 6.64101 14.2744 6.64101 17.0219V19.3537C6.6775 20.5829 6.69574 21.5951 6.69574 22.3905C6.69574 23.1497 6.65926 23.9812 6.58629 24.885C6.51333 25.7888 6.38564 26.4214 6.20322 26.7829C5.8384 27.976 5.87488 28.7713 6.31267 29.169C6.93287 29.8197 7.51659 29.4582 8.06383 28.0844C8.24624 27.6144 8.39217 26.5299 8.50162 24.8307L8.66579 22.3363L10.1433 20.8179C11.1284 19.8418 11.6756 19.3537 11.785 19.3537C11.8945 19.3899 11.931 19.5525 11.8945 19.8418C11.8945 20.131 11.858 20.4744 11.785 20.8721ZM9.92444 15.9374C10.5811 15.5397 10.9642 15.3408 11.0736 15.3408C11.0736 15.3047 11.1284 15.2505 11.2378 15.1782C11.3837 15.1059 11.4749 15.0516 11.5114 15.0155C11.5844 14.9793 11.6756 14.9432 11.785 14.907C11.8945 14.8709 11.9857 14.8889 12.0587 14.9612C12.1316 15.0336 12.1864 15.1239 12.2228 15.2324C12.2958 15.5216 12.2228 15.8289 12.0039 16.1543C11.785 16.4796 11.2743 17.04 10.4717 17.8353C9.88796 18.4499 9.48665 18.8295 9.26775 18.9741C9.08534 19.1187 8.93941 19.1549 8.82996 19.0826C8.68403 18.9741 8.61107 18.5945 8.61107 17.9438C8.61107 17.293 8.68403 16.8954 8.82996 16.7508C8.90293 16.6062 9.26775 16.335 9.92444 15.9374ZM31.1572 23.2581C30.7195 23.3304 30.4276 23.457 30.2817 23.6377C30.0263 23.8185 29.552 24.0173 28.8588 24.2342C28.2022 24.415 27.8373 24.4511 27.7644 24.3427C27.6914 24.3065 27.6549 23.6919 27.6549 22.4989L27.6002 20.7094H28.3116C28.6764 20.7456 29.3331 20.4744 30.2817 19.896C31.2302 19.3176 31.8504 18.8476 32.1423 18.4861C32.6165 18.0161 32.8902 17.8534 32.9631 17.998C33.1455 19.4802 32.799 21.0709 31.9234 22.7701C31.8504 22.987 31.595 23.1497 31.1572 23.2581Z" stroke="#A76C47" stroke-width="0.8"/>
<path d="M16.8744 11.4364C16.2177 11.4364 15.8893 11.8883 15.8893 12.7921C15.8893 13.226 15.944 13.5332 16.0535 13.714C16.1994 13.8586 16.4183 13.8948 16.7102 13.8225C17.002 13.7502 17.8776 13.3525 19.3369 12.6294C20.4314 12.0872 21.0881 11.7437 21.307 11.5991C21.5259 11.4545 21.6718 11.2376 21.7448 10.9484C21.8907 10.5146 21.8542 10.1892 21.6353 9.97228C21.4164 9.75536 21.1063 9.71921 20.705 9.86382C20.3402 10.1169 19.72 10.4242 18.8444 10.7857C17.9688 11.1472 17.3121 11.3641 16.8744 11.4364Z" stroke="#A76C47" stroke-width="0.8"/>
<path fill-rule="evenodd" clip-rule="evenodd" d="M17.0385 21.4144C17.002 21.7759 16.9656 22.1193 16.9291 22.4447C16.9291 22.987 17.0385 23.3485 17.2574 23.5293C17.5858 23.71 17.8229 23.7823 17.9688 23.7462C18.1512 23.71 18.4066 23.6016 18.735 23.4208C19.0998 23.24 19.3916 23.1316 19.6105 23.0954C20.632 22.7701 21.4711 22.1374 22.1278 21.1975C22.821 20.2214 23.1676 19.173 23.1676 18.0522C23.35 17.5823 23.0946 16.9496 22.4014 16.1543C21.7083 15.3589 21.1063 14.9793 20.5956 15.0155C20.3767 14.9793 20.1578 15.0155 19.9389 15.1239C19.72 15.1962 19.5558 15.2324 19.4464 15.2324C19.3369 15.2324 19.2457 15.0878 19.1727 14.7986C18.8809 14.1478 18.4796 14.0936 17.9688 14.6359C17.4946 15.142 17.2574 16.4796 17.2574 18.6487C17.2574 19.3356 17.2392 19.8779 17.2027 20.2756C17.1662 20.6371 17.1115 21.0167 17.0385 21.4144ZM20.1578 17.6184C20.3037 17.4377 20.5226 17.4557 20.8145 17.6726C21.2523 18.7934 21.0151 19.8598 20.1031 20.8721C19.8477 21.1613 19.647 21.324 19.5011 21.3601C19.1727 21.3963 19.1545 20.8179 19.4464 19.6248C19.5193 19.4441 19.5923 19.191 19.6653 18.8657C19.8842 18.2149 20.0483 17.7992 20.1578 17.6184Z" stroke="#A76C47" stroke-width="0.8"/>
<path d="M9.5961 42.5633C9.85147 42.7802 10.0704 42.8886 10.2528 42.8886C10.4717 42.8886 10.8183 42.726 11.2925 42.4006C11.8033 42.0391 12.2776 41.6233 12.7153 41.1533C15.0502 38.695 16.6372 36.8693 17.4763 35.6763C17.5858 35.4956 17.8411 35.1883 18.2424 34.7544C18.6802 34.2845 19.0086 33.8687 19.2275 33.5072C19.4828 33.1095 19.6105 32.7661 19.6105 32.4769C19.6105 31.8623 19.2822 31.5008 18.6255 31.3923C18.0783 31.2477 17.677 31.555 17.4216 32.3142C17.3486 32.6034 17.075 33.0372 16.6007 33.6157C16.1265 34.1941 15.8528 34.5918 15.7799 34.8087C15.5245 35.2787 14.7948 36.1825 13.5909 37.5201C12.4235 38.8577 11.7303 39.5627 11.5114 39.635C11.0372 39.7796 10.5264 40.123 9.97916 40.6653C9.46841 41.2076 9.21303 41.6233 9.21303 41.9125C9.21303 42.0933 9.34072 42.3102 9.5961 42.5633Z" stroke="#A76C47" stroke-width="0.8"/>
<path d="M44.4004 43.3767C44.6922 43.0513 44.8017 42.7621 44.7287 42.509C44.7287 41.6052 44.4551 41.081 43.9079 40.9364C43.2877 40.6834 42.2297 40.1592 40.7339 39.3638C39.2381 38.5323 38.1436 37.972 37.4505 37.6828C36.9032 37.502 35.9365 37.032 34.5501 36.2728C33.2003 35.5136 32.3064 35.0437 31.8687 34.8629C31.5403 34.7906 30.9566 34.5014 30.1175 33.9953C29.2784 33.4891 28.6947 33.0915 28.3663 32.8022L28.038 32.6396C27.8191 32.495 27.6732 32.4046 27.6002 32.3684C27.5637 32.3323 27.436 32.26 27.2171 32.1515C27.0347 32.0431 26.8888 31.9707 26.7793 31.9346C26.6699 31.8984 26.5057 31.8623 26.2868 31.8261C26.1044 31.7538 25.9403 31.7177 25.7943 31.7177C25.6849 31.7177 25.5572 31.7358 25.4113 31.7719C25.2653 31.7719 25.1194 31.79 24.9735 31.8261C24.7546 31.9707 24.6086 32.2057 24.5357 32.5311C24.4992 32.8203 24.5539 33.0734 24.6998 33.2903C24.8093 33.4711 25.2836 33.8326 26.1227 34.3749C26.9982 34.9171 27.582 35.2244 27.8738 35.2967C27.9103 35.3329 28.3663 35.604 29.2419 36.1101C30.154 36.6163 30.9566 37.0139 31.6498 37.3032C32.1605 37.4839 32.6895 37.7189 33.2367 38.0081C33.784 38.2612 34.3312 38.5504 34.8785 38.8758C35.4257 39.2011 35.827 39.4361 36.0824 39.5807C37.1769 39.9061 38.5085 40.5207 40.0772 41.4245C41.646 42.2921 42.8681 43.1236 43.7437 43.919C43.9261 43.8467 44.145 43.6659 44.4004 43.3767Z" stroke="#A76C47" stroke-width="0.8"/>
</svg>
