<svg width="694" height="150" viewBox="0 0 694 150" fill="none" xmlns="http://www.w3.org/2000/svg">
<path fill-rule="evenodd" clip-rule="evenodd" d="M541.387 148.852C515.274 148.089 489.781 147.343 463.819 148.914L463.452 148.937L463.085 148.936C454.958 148.93 445.335 148.909 434.552 148.886C389.018 148.787 322.787 148.643 261.042 149.361C195.3 150.567 161.638 149.824 130.08 149.106L129.268 149.088C98.1917 148.381 68.9654 147.716 12.2713 148.998C5.64554 149.148 0.152906 143.896 0.00312688 137.268C-0.146652 130.64 5.10314 125.145 11.7289 124.995C68.9659 123.701 98.594 124.375 129.865 125.087L130.625 125.104C161.996 125.818 195.314 126.554 260.643 125.356L260.683 125.355L260.723 125.354C322.667 124.633 389.145 124.778 434.68 124.877C445.273 124.9 454.733 124.921 462.739 124.927C489.466 123.332 516.954 124.119 543.816 124.889C558.824 125.318 573.637 125.743 588.013 125.743C592.232 125.743 596.451 125.412 601.221 125.03L601.411 125.015C605.984 124.65 611.086 124.242 616.355 124.242H682C688.627 124.242 694 129.617 694 136.246C694 142.876 688.627 148.251 682 148.251H616.355C612.125 148.251 607.901 148.582 603.132 148.963L602.928 148.979C598.36 149.344 593.267 149.751 588.013 149.751C572.115 149.751 556.645 149.299 541.387 148.852Z" fill="#FFFE2A"/>
<path fill-rule="evenodd" clip-rule="evenodd" d="M287.806 33.9951V34.0291L287.809 34.063L288.646 46.3479C282.433 40.9803 275.946 37.5172 266.046 37.5172C245.105 37.5172 225.718 56.8741 225.718 87.9261C225.718 103.403 229.52 115.913 236.373 124.577C243.245 133.266 253.121 138 265.042 138C274.68 138 283.903 132.917 290.787 126.508L292.513 134.858L292.678 135.655H293.492H313.407H314.407V134.655V1V0H313.407H288.806H287.806V1V33.9951ZM289.712 47.2895L289.811 48.734C289.454 48.404 289.098 48.0802 288.742 47.7629C282.41 42.1203 276.028 38.5172 266.046 38.5172C245.797 38.5172 226.718 57.2758 226.718 87.9261C226.718 118.576 241.78 137 265.042 137C274.546 137 283.729 131.862 290.549 125.358C290.649 125.263 290.748 125.168 290.847 125.073C290.892 125.029 290.937 124.985 290.982 124.941H291.484L291.619 125.593L291.64 125.696L293.492 134.655H312.407H313.407V133.655V2V1H312.407H289.806H288.806V2V33.9951L289.712 47.2895ZM288.806 65.8177V107.02C283.451 114.054 277.928 116.734 271.402 116.734C259.018 116.734 251.989 107.02 251.989 87.5911C251.989 68.8325 260.858 58.7832 271.402 58.7832C277.259 58.7832 283.116 60.6256 288.806 65.8177ZM287.806 106.68C282.674 113.308 277.485 115.734 271.402 115.734C265.513 115.734 260.982 113.447 257.878 108.886C254.734 104.265 252.989 97.2115 252.989 87.5911C252.989 78.3587 255.172 71.3817 258.55 66.7412C261.915 62.1186 266.478 59.7832 271.402 59.7832C276.906 59.7832 282.41 61.4689 287.806 66.2629V106.68ZM682.032 116.549L685.827 133.483C680.807 135.157 674.28 137 666.079 137C643.821 137 635.286 122.931 635.286 101.827V61.2905V60.2905H634.286H623.065H622.065V59.2905V42.0343L636.458 40.8619L639.303 15.7388H658.887H659.887V16.7388V39.8619V40.8619H660.887H681.982H682.982V41.8619V59.2905V60.2905H681.982H660.887H659.887V61.2905V101.827C659.887 112.547 664.239 117.571 672.606 117.571C675.259 117.571 678.432 116.792 680.866 115.919C681.195 115.801 681.511 115.681 681.811 115.561L682.032 116.549ZM660.887 61.2905V101.827C660.887 107.078 661.957 110.743 663.881 113.084C665.774 115.387 668.63 116.571 672.606 116.571C675.443 116.571 678.992 115.613 681.439 114.633L682.53 114.196L682.786 115.343L686.803 133.264L687 134.145L686.144 134.431C681.079 136.121 674.435 138 666.079 138C654.726 138 646.705 134.4 641.555 127.951C636.438 121.545 634.286 112.488 634.286 101.827V61.2905H622.065H621.065V60.2905V42.0343V41.1125L621.984 41.0376L635.557 39.932L638.309 15.6262L638.41 14.7388H639.303H659.887H660.887V15.7388V39.8619H682.982H683.982V40.8619V60.2905V61.2905H682.982H660.887ZM535.634 123.935L536.184 123.18L547.397 107.771L548.005 106.935L548.821 107.571C557.093 114.029 564.913 117.576 573.308 117.576C577.871 117.576 581.008 116.595 582.984 115.046C584.924 113.526 585.864 111.366 585.864 108.694C585.864 105.73 583.847 103.436 580.269 101.328C577.226 99.5359 573.301 98.0217 569.119 96.4086L569.104 96.4029L569.095 96.3994L569.086 96.3959C568.74 96.2624 568.392 96.1282 568.043 95.9931C567.671 95.8494 567.298 95.7047 566.924 95.5587C560.958 93.2878 554.42 90.3061 549.366 85.8722C544.278 81.4093 540.678 75.4562 540.678 67.325C540.678 58.5759 544.236 51.0917 550.533 45.8112C556.816 40.5422 565.762 37.5171 576.488 37.5171C590.51 37.5171 601.094 43.3427 609.05 49.2719L609.85 49.8678L609.256 50.6691L598.211 65.5755L597.631 66.3578L596.833 65.7991C590.18 61.138 583.867 57.9407 577.157 57.9407C573.103 57.9407 570.254 58.8356 568.44 60.243C566.661 61.6243 565.773 63.5793 565.773 65.9851C565.773 68.8567 567.654 70.9412 571.092 72.8345C573.791 74.3207 577.223 75.5671 580.987 76.934C582.035 77.3148 583.11 77.7049 584.201 78.1122L584.206 78.1139C590.393 80.4571 597.076 83.2305 602.204 87.6725C607.383 92.1592 610.959 98.3313 610.959 107.354C610.959 115.838 607.621 123.533 601.111 129.093C594.612 134.643 585.031 138 572.639 138C559.834 138 545.72 132.378 536.351 124.535L535.634 123.935ZM567.284 94.6254C568.012 94.9098 568.74 95.1906 569.464 95.4695C578.538 98.9685 586.864 102.179 586.864 108.694C586.864 114.556 582.68 118.576 573.308 118.576C564.881 118.576 557.081 115.121 548.997 108.97C548.903 108.898 548.808 108.826 548.713 108.753C548.544 108.623 548.375 108.492 548.205 108.359L547.616 109.168L536.992 123.768C546.197 131.473 560.087 137 572.639 137C597.072 137 609.959 123.768 609.959 107.354C609.959 89.9358 596.236 83.7387 583.852 79.0491C582.788 78.6521 581.732 78.2687 580.694 77.892C572.101 74.7724 564.773 72.1122 564.773 65.9851C564.773 60.6255 568.79 56.9407 577.157 56.9407C584.186 56.9407 590.713 60.2905 597.407 64.9801L608.452 50.0737C608.386 50.0244 608.32 49.9751 608.253 49.9258C608.19 49.8789 608.127 49.8321 608.063 49.7853C607.925 49.6837 607.787 49.5822 607.647 49.4808C599.882 43.8337 589.748 38.5171 576.488 38.5171C555.401 38.5171 541.678 50.4087 541.678 67.325C541.678 82.9013 555.401 90.1033 567.284 94.6254ZM438.672 50.9112L447.062 66.2795L447.541 67.1575C447.831 66.9903 448.12 66.8244 448.409 66.6599C456.801 61.8807 464.901 58.2806 473.314 58.2806C484.861 58.2806 488.878 65.3151 489.212 74.5269C451.558 78.5466 435.324 89.0983 435.324 109.197C435.324 125.108 446.37 137 463.105 137C473.622 137 482.849 131.832 490.943 124.985L491.076 124.872C491.134 124.823 491.193 124.773 491.251 124.723L491.388 124.606H491.89L492.026 125.35L492.03 125.372L493.731 134.655H512.813H513.813V133.655V79.8865C513.813 52.7535 501.596 38.5171 477.832 38.5171C463.105 38.5171 449.717 44.0442 438.672 50.9112ZM484.708 63.5994C486.832 66.0825 487.896 69.5465 488.166 73.6348C469.782 75.6698 456.423 79.3057 447.606 84.9919C438.554 90.8294 434.324 98.8089 434.324 109.197C434.324 117.387 437.17 124.598 442.224 129.764C447.281 134.934 454.492 138 463.105 138C473.769 138 483.076 132.853 491.15 126.117L492.747 134.835L492.897 135.655H493.731H513.813H514.813V134.655V79.8865C514.813 66.1895 511.732 55.5733 505.49 48.372C499.226 41.1451 489.919 37.5171 477.832 37.5171C462.855 37.5171 449.283 43.1367 438.144 50.0619L437.341 50.5609L437.794 51.3904L446.664 67.6367L447.154 68.5356L448.041 68.0235C456.725 63.0095 464.895 59.2806 473.314 59.2806C478.873 59.2806 482.454 60.9647 484.708 63.5994ZM489.212 90.6096V108.527C483.355 114.389 478.167 117.739 471.138 117.739C463.942 117.739 458.754 114.556 458.754 107.187C458.754 98.9365 466.226 92.7994 488.212 89.7367C488.369 89.7149 488.526 89.6933 488.684 89.6718L488.947 89.6362L489.212 89.6008V90.6096ZM465.977 97.2327C470.409 94.47 477.51 92.2478 488.212 90.7464V108.111C482.551 113.716 477.66 116.739 471.138 116.739C467.667 116.739 464.821 115.969 462.863 114.439C460.945 112.94 459.754 110.613 459.754 107.187C459.754 103.391 461.459 100.049 465.977 97.2327ZM417.387 48.7452L416.836 49.4942L405.121 65.4055L404.483 66.273L403.665 65.5716C399.083 61.6413 394.955 59.6156 389.924 59.6156C383.105 59.6156 377.407 62.3752 373.396 67.2486C369.37 72.1386 366.992 79.2242 366.992 87.9259C366.992 96.5414 369.369 103.546 373.314 108.376C377.247 113.191 382.779 115.901 389.254 115.901C395.633 115.901 401.772 112.863 406.853 108.598L407.752 107.844L408.354 108.851L418.061 125.098L418.485 125.809L417.866 126.359C408.791 134.413 397.165 138 386.577 138C373.369 138 361.678 133.391 353.289 124.78C344.899 116.169 339.889 103.635 339.889 87.9259C339.889 72.0141 345.592 59.3946 354.589 50.7552C363.577 42.1242 375.797 37.5171 388.752 37.5171C400.588 37.5171 409.68 42.1607 416.68 48.141L417.387 48.7452ZM408.015 110.234L417.202 125.611C408.332 133.483 396.952 137 386.577 137C360.637 137 340.889 118.911 340.889 87.9259C340.889 56.6057 363.314 38.5171 388.752 38.5171C400.299 38.5171 409.169 43.0392 416.031 48.9013L404.91 64.0052L404.316 64.8126C404.059 64.5924 403.803 64.3776 403.548 64.1685C399.15 60.5609 394.985 58.6156 389.924 58.6156C375.699 58.6156 365.992 70.1722 365.992 87.9259C365.992 105.512 375.699 116.901 389.254 116.901C395.616 116.901 401.675 114.028 406.713 110.005C406.977 109.794 407.238 109.581 407.496 109.364L408.015 110.234ZM159.501 138C135.511 138 113.483 119.456 113.483 87.9259C113.483 56.066 135.506 37.5171 159.501 37.5171C183.495 37.5171 205.519 56.066 205.519 87.9259C205.519 119.456 183.49 138 159.501 138ZM173.398 108.451C176.638 103.627 178.416 96.6022 178.416 87.9259C178.416 79.1645 176.637 72.0538 173.394 67.166C170.181 62.3213 165.507 59.6156 159.501 59.6156C153.495 59.6156 148.821 62.3213 145.607 67.166C142.364 72.0538 140.586 79.1645 140.586 87.9259C140.586 96.6022 142.364 103.627 145.604 108.451C148.815 113.232 153.488 115.901 159.501 115.901C165.513 115.901 170.187 113.232 173.398 108.451ZM114.483 87.9259C114.483 118.911 136.071 137 159.501 137C182.93 137 204.519 118.911 204.519 87.9259C204.519 56.6057 182.93 38.5171 159.501 38.5171C136.071 38.5171 114.483 56.6057 114.483 87.9259ZM179.416 87.9259C179.416 105.512 172.22 116.901 159.501 116.901C146.782 116.901 139.586 105.512 139.586 87.9259C139.586 70.1722 146.782 58.6156 159.501 58.6156C172.22 58.6156 179.416 70.1722 179.416 87.9259ZM7 134.655V135.655H8H32.7683H33.7683V134.655V91.606H49.3363C62.7834 91.606 74.991 88.3916 83.8603 81.4926C92.7655 74.5655 98.1994 64.0037 98.1994 49.5715C98.1994 34.6425 92.8087 24.5965 83.7962 18.3305C74.8498 12.1103 62.4751 9.71436 48.6669 9.71436H8H7V10.7144V134.655ZM32.7683 90.606V91.606V133.655V134.655H31.7683H9H8V133.655V11.7144V10.7144H9H48.6669C76.1129 10.7144 97.1994 20.2611 97.1994 49.5715C97.1994 77.8769 75.9455 90.606 49.3363 90.606H33.7683H32.7683ZM47.6628 70.0099H33.7683V31.3104H46.826C55.3103 31.3104 61.5804 32.5265 65.715 35.364C69.7631 38.1421 71.9332 42.5992 71.9332 49.5715C71.9332 56.4953 69.946 61.535 66.0491 64.8696C62.1216 68.2303 56.0817 70.0099 47.6628 70.0099ZM47.6628 71.0099H33.7683H32.7683V70.0099V31.3104V30.3104H33.7683H46.826C63.8961 30.3104 72.9332 35.1675 72.9332 49.5715C72.9332 63.8079 64.7328 71.0099 47.6628 71.0099Z" fill="#62625A"/>
</svg>
