<svg width="153" height="47" viewBox="0 0 153 47" fill="none" xmlns="http://www.w3.org/2000/svg">
<path d="M13.7749 10.4152C13.9942 9.90368 14.3048 9.42872 14.7067 8.99029C14.9625 8.69801 15.1087 8.33265 15.1452 7.89423C15.2183 7.41927 15.1635 7.01738 14.9808 6.68856C14.7981 6.46935 14.5058 6.32321 14.1038 6.25014C13.7384 6.17707 13.4095 6.2136 13.1172 6.35974C10.6324 7.71155 9.13415 8.29612 8.62257 8.11344C8.29369 7.9673 8.29369 7.58368 8.62257 6.96258C8.65911 6.92604 8.9149 6.39628 9.38994 5.37329C9.86498 4.31376 10.1939 3.67439 10.3766 3.45518C10.9612 2.94368 10.9795 2.32258 10.4314 1.59187C9.91979 0.934236 9.42648 0.82463 8.95144 1.26305C8.84182 1.37266 8.71392 1.64668 8.56776 2.0851C8.42159 2.48699 8.27542 2.74274 8.12926 2.85234C7.87347 3.18116 7.52632 3.8388 7.08782 4.82526C6.68587 5.81171 6.39353 6.48762 6.21083 6.85297C5.26075 8.20478 5.24248 9.22777 6.15601 9.92194C7.10609 10.5796 8.42159 10.5796 10.1025 9.92194C11.016 9.55659 11.4728 9.44698 11.4728 9.59313C9.90152 11.7852 8.69565 13.6851 7.8552 15.2926C7.67249 15.6945 7.43497 15.9686 7.14264 16.1147C6.8503 16.2243 6.50316 16.1878 6.1012 16.0051C5.73579 15.8224 5.44345 15.658 5.2242 15.5119C5.00495 15.3657 4.71262 15.1465 4.34721 14.8542C4.12796 14.5985 3.79908 14.4341 3.36058 14.361C2.95863 14.2514 2.61148 14.3062 2.31915 14.5254C2.06336 14.7446 2.02682 15.1282 2.20953 15.6763C2.17298 15.9686 2.2278 16.2243 2.37396 16.4435C2.52013 16.6627 2.66629 16.8271 2.81246 16.9367C2.99517 17.0098 3.25096 17.1194 3.57983 17.2656C3.90871 17.4117 4.12796 17.503 4.23758 17.5396C4.27412 17.6126 4.56646 17.7223 5.11458 17.8684C5.69924 18.0145 5.99158 18.1241 5.99158 18.1972C6.1012 18.4895 5.49827 19.3298 4.18277 20.7182C3.78081 21.1566 3.45194 21.4123 3.19615 21.4854C2.94036 21.5219 2.62975 21.4123 2.26434 21.1566C1.97201 20.9374 1.69794 20.8826 1.44215 20.9922C1.0402 21.1383 0.9123 21.4671 1.05847 21.9786C1.20463 22.4901 1.55178 22.8372 2.0999 23.0199C2.79419 23.3487 3.61638 23.2939 4.56646 22.8555C5.40691 22.4536 6.57624 21.2297 8.07445 19.1837C8.40332 18.7087 8.69565 18.3799 8.95144 18.1972C9.24378 17.978 9.77363 17.704 10.541 17.3752C11.1257 17.156 11.3815 16.8271 11.3084 16.3887C11.2353 15.9138 10.9795 15.5667 10.541 15.3475L10.9795 14.5254C11.3084 13.9408 12.0027 12.9726 13.0624 11.6208C13.3547 11.3286 13.5922 10.9267 13.7749 10.4152Z" fill="#A76C47"/>
<path d="M12.5142 33.3777C12.1488 33.0489 11.9296 32.8844 11.8565 32.8844C11.7469 32.8844 11.4545 32.72 10.9795 32.3912C10.6872 32.172 10.3218 31.9893 9.88325 31.8432C9.4813 31.6605 9.11588 31.4596 8.78701 31.2404C8.45813 31.0211 8.12926 30.7289 7.80038 30.3635C7.32534 29.7789 6.68587 29.5049 5.88195 29.5415C5.11458 29.5415 4.73089 29.8337 4.73089 30.4183C4.73089 30.6375 4.82225 30.9115 5.00495 31.2404C5.2242 31.5326 5.44345 31.7701 5.6627 31.9528C6.83203 32.7931 8.09272 33.5421 9.44475 34.1997C11.2718 35.1131 12.1854 35.7342 12.1854 36.063C12.1854 36.3553 11.8017 37.1043 11.0343 38.31C10.2669 39.5156 9.75536 40.1733 9.49957 40.2829C9.38994 40.3194 9.24378 40.5021 9.06107 40.8309C8.87836 41.2328 8.40332 41.8173 7.63595 42.5846C6.90512 43.3153 6.39353 43.7172 6.1012 43.7903C5.80887 43.8633 5.58962 43.8451 5.44345 43.7355C5.33383 43.6259 5.16939 43.3518 4.95014 42.9134C4.9136 42.8403 4.89533 42.7855 4.89533 42.749C4.49337 41.9087 4.21931 41.8722 4.07315 42.6394C4.07315 42.749 4.05487 42.9317 4.01833 43.1874C3.98179 43.4432 3.94525 43.6259 3.90871 43.7355C3.90871 43.8451 3.92698 43.9912 3.96352 44.1739C4.00006 44.3931 4.07315 44.594 4.18277 44.7767C4.62127 45.6901 5.27902 46.092 6.15601 45.9824C7.03301 45.8728 8.0379 45.2334 9.17069 44.0643C9.71882 43.5528 10.1756 43.0778 10.541 42.6394C10.9064 42.201 11.2718 41.726 11.6372 41.2145C12.0392 40.6665 12.3863 40.2098 12.6787 39.8444C12.8614 39.5887 13.1172 39.1503 13.4461 38.5292C13.8115 37.8715 14.1586 37.3783 14.4875 37.0495C14.926 36.6476 15.3097 35.9717 15.6385 35.0218C15.9674 34.0718 16.278 33.3959 16.5704 32.9941C16.9358 32.2999 17.2646 31.5509 17.557 30.7471C17.8859 29.9433 18.2513 29.1761 18.6532 28.4454C19.2013 27.2763 19.5302 26.5456 19.6398 26.2533C19.786 25.961 19.8956 25.5591 19.9687 25.0476C20.0418 24.4996 20.0053 24.0794 19.8591 23.7871C19.5302 23.1295 19.1648 22.8007 18.7628 22.8007C18.3609 22.8007 17.6301 23.1295 16.5704 23.7871C14.6702 24.9928 13.5191 25.6322 13.1172 25.7052C12.8614 25.7783 12.77 25.687 12.8431 25.4312C12.9527 25.1389 13.2268 24.5726 13.6653 23.7323C14.1403 22.8555 14.5058 22.2344 14.7616 21.869C14.9077 21.6498 15.2 21.0835 15.6385 20.1701C16.077 19.2567 16.5704 18.5443 17.1185 18.0328C17.8493 17.229 18.2147 16.6627 18.2147 16.3339C18.2147 16.0051 18.0686 15.7128 17.7762 15.4571C17.1185 14.909 16.4973 15.0004 15.9126 15.7311C14.6702 17.0463 13.848 18.2886 13.4461 19.4577C13.1172 20.1884 12.7335 20.9374 12.295 21.7046C11.8565 22.4353 11.3266 23.3304 10.7054 24.39C10.1208 25.413 9.70054 26.1254 9.44475 26.5273C9.33513 26.71 9.2255 26.9474 9.11588 27.2397C9.00626 27.532 8.96971 27.8426 9.00626 28.1714C9.0428 28.4637 9.17069 28.6646 9.38994 28.7742C9.71882 28.9934 9.99288 29.1213 10.2121 29.1578C10.4679 29.1578 10.8516 29.0665 11.3632 28.8838C11.9479 28.6646 12.8431 28.2627 14.049 27.6782C15.2914 27.057 16.0222 26.6552 16.2415 26.4725C16.4973 26.2898 16.6983 26.1802 16.8444 26.1437C17.1733 26.1071 17.1002 26.5273 16.6252 27.4041C16.3328 27.8791 16.0953 28.4271 15.9126 29.0482C15.9126 29.377 15.5837 30.1443 14.926 31.35C14.2682 32.5556 13.7201 33.3594 13.2816 33.7613C13.172 33.7978 12.9162 33.67 12.5142 33.3777Z" fill="#A76C47"/>
<path d="M32.6304 6.08562C32.6304 5.97602 32.7765 5.61066 33.0689 4.98956C33.3612 4.36846 33.5074 4.00311 33.5074 3.8935C33.5439 3.41854 33.818 3.07145 34.3296 2.85224C34.8411 2.59649 35.2796 2.66956 35.6451 3.07145C35.8643 3.40027 35.8826 3.8935 35.6999 4.55114C35.5537 5.20877 35.2431 5.86641 34.7681 6.52405C34.5123 6.85287 34.1651 7.4557 33.7266 8.33255C33.2881 9.2094 33.0323 9.81223 32.9592 10.1411C32.8496 10.5064 32.8679 10.7439 33.0141 10.8535C33.1602 10.9631 33.5074 10.9814 34.0555 10.9083C35.1517 10.7987 36.3759 10.5247 37.7279 10.0863C39.0069 9.68436 39.9021 9.64783 40.4137 9.97664C40.9253 10.2689 40.9618 10.8718 40.5233 11.7851C39.6464 13.3927 38.4039 14.7993 36.7961 16.005C35.846 16.8453 34.8411 17.4299 33.7814 17.7587C32.9775 17.9779 32.4294 18.0327 32.1371 17.9231C31.8813 17.777 31.863 17.5395 32.0823 17.2107C32.338 16.8453 32.74 16.553 33.2881 16.3338C33.8362 16.0415 34.7315 15.3656 35.9739 14.3061C37.2529 13.2466 37.8924 12.6255 37.8924 12.4428C37.8924 12.4062 37.8558 12.388 37.7827 12.388C37.7462 12.3514 37.6548 12.3332 37.5087 12.3332C37.399 12.3332 37.2163 12.3697 36.9605 12.4428C36.7413 12.4793 36.4307 12.5341 36.0287 12.6072C33.2516 13.1918 31.5341 13.1187 30.8764 12.388C30.6571 12.1322 30.5658 11.7303 30.6023 11.1823C30.5658 10.89 30.6754 10.4333 30.9312 9.81223C31.2235 9.1546 31.5524 8.46042 31.9178 7.72972C32.2832 6.96247 32.5208 6.41444 32.6304 6.08562Z" fill="#A76C47"/>
<path d="M46.169 43.2969C45.7671 43.9911 45.3468 44.3382 44.9083 44.3382C44.5064 44.3747 44.0131 44.119 43.4284 43.5709C42.3322 42.5845 41.4369 41.3606 40.7426 39.8991C40.4137 39.205 40.231 38.73 40.1945 38.4743C40.1579 38.2185 40.2493 38.0541 40.4685 37.981C40.5782 37.908 40.7609 37.981 41.0167 38.2002C41.2724 38.3829 41.4003 38.5473 41.4003 38.6935C41.4003 38.9492 41.784 39.5155 42.5514 40.3924C43.3188 41.2692 43.8121 41.7076 44.0313 41.7076C44.3602 41.7076 44.5064 40.8125 44.4698 39.0223C44.3968 36.2091 44.4698 33.6333 44.6891 31.2951C44.7622 29.9798 44.6708 29.2673 44.415 29.1577C44.1958 29.0481 43.6842 29.3039 42.8803 29.925C41.4552 30.8384 40.0849 31.5325 38.7694 32.0075C37.4904 32.4825 35.5902 33.0122 33.0689 33.5968C32.0457 33.816 31.3697 33.8525 31.0408 33.7064C30.8581 33.6699 30.6937 33.542 30.5475 33.3228C30.4379 33.1036 30.3283 32.9939 30.2186 32.9939C29.9994 33.0305 29.8532 34.0352 29.7801 36.0081C29.6705 38.0906 29.2868 39.3694 28.6291 39.8443C28.1175 40.2462 27.7338 40.1549 27.478 39.5703C27.3318 37.5243 27.4597 34.8024 27.8617 31.4047C28.3002 28.0069 28.556 25.6321 28.6291 24.2803C28.7387 21.6132 28.9214 19.8595 29.1772 19.0192C29.433 18.1423 29.8715 17.7039 30.4927 17.7039C31.0043 17.7404 31.3331 17.9779 31.4793 18.4163C31.662 18.8547 31.6072 19.348 31.3149 19.896C31.0956 20.3344 30.9312 20.8459 30.8216 21.4305C30.7119 21.9785 30.6389 22.4718 30.6023 22.9102C30.6023 23.3121 30.584 23.8966 30.5475 24.6639C30.511 25.4311 30.4744 26.034 30.4379 26.4724C30.3283 27.13 30.31 27.9886 30.3831 29.0481C30.4562 30.1077 30.4562 30.8566 30.3831 31.2951C30.2734 31.6969 30.2552 31.9527 30.3283 32.0623C30.4379 32.1354 30.6937 32.0806 31.0956 31.8979C31.3514 31.7517 32.7765 31.4229 35.371 30.9114L37.2894 30.4182H37.2346C37.3077 30.3086 37.3442 29.7606 37.3442 28.7741C37.3808 27.7511 37.3625 27.1848 37.2894 27.0752C37.2163 26.9656 37.0336 26.9473 36.7413 27.0204C36.449 27.0569 35.6085 27.2579 34.2199 27.6232C33.1602 27.879 32.5025 27.9521 32.2467 27.8425C31.7351 27.5867 31.6438 27.0569 31.9726 26.2532C32.1188 25.8513 32.338 25.5955 32.6304 25.4859C32.9227 25.3763 33.2516 25.358 33.617 25.4311C33.9824 25.5042 34.4209 25.4494 34.9325 25.2667C35.2614 25.1571 35.6085 25.084 35.9739 25.0475C36.3393 24.9744 36.5769 24.9196 36.6865 24.8831C36.7961 24.8466 36.8875 24.6821 36.9605 24.3899C37.0702 24.0976 37.1067 23.6226 37.0702 22.965C37.0702 21.9785 37.1067 21.3574 37.1798 21.1017C37.2529 20.8094 37.4173 20.6267 37.6731 20.5536C38.1116 20.444 38.4587 20.5902 38.7145 20.9921C38.9703 21.3574 39.1165 21.9055 39.153 22.6362L39.2079 23.7322C39.5002 23.7322 39.9935 23.6409 40.6878 23.4582C41.4186 23.2755 42.0216 23.2025 42.4966 23.239C43.0082 23.239 43.337 23.4765 43.4832 23.9514C43.5563 24.1706 43.5198 24.4264 43.3736 24.7187C43.2274 25.011 43.0447 25.1936 42.8255 25.2667C42.387 25.3763 41.8388 25.4859 41.1811 25.5955C40.5233 25.7051 40.0666 25.833 39.8108 25.9792C39.555 26.1253 39.4088 26.3993 39.3723 26.8012C39.2627 27.0935 39.1896 27.605 39.153 28.3357C39.153 29.0664 39.1896 29.4683 39.2627 29.5414C39.3357 29.6144 39.7194 29.45 40.4137 29.0481C41.1446 28.6462 41.8754 28.1895 42.6062 27.678C43.5928 27.0204 44.1775 26.3993 44.3602 25.8147C44.5795 25.2302 44.616 24.061 44.4698 22.3073C44.3602 20.9555 44.2323 20.2066 44.0862 20.0604C43.8669 19.8047 43.3188 19.4941 42.4418 19.1288C41.6013 18.7269 40.9618 18.5077 40.5233 18.4711C38.3309 18.2884 36.3393 19.421 34.5488 21.8689C33.6718 23.0746 33.0871 23.5678 32.7948 23.3486C32.5756 23.1294 32.5025 22.6544 32.5756 21.9237C32.6486 21.1565 32.8131 20.6815 33.0689 20.4988C33.1785 20.3892 33.2881 20.2066 33.3977 19.9508C33.5439 19.6951 33.6718 19.4758 33.7814 19.2932C33.9276 19.1105 34.1103 18.9644 34.3296 18.8547C35.0604 18.1971 36.0287 17.5943 37.2346 17.0462C38.477 16.4982 39.6829 16.2425 40.8522 16.279C41.7292 16.3521 42.7707 16.6809 43.9765 17.2655C45.1824 17.8135 45.895 18.4529 46.1142 19.1836C46.4431 20.2796 46.6441 22.2891 46.7171 25.2119C46.8268 28.1347 46.8085 30.4365 46.6623 32.1171C46.6258 32.2998 46.5892 33.3593 46.5527 35.2957C46.5527 37.2321 46.5162 39.0406 46.4431 40.7212C46.4065 42.3653 46.3152 43.2239 46.169 43.2969Z" fill="#A76C47"/>
<path d="M134.746 7.34611C134.6 7.34611 134.527 7.09036 134.527 6.57887C134.527 5.70202 134.307 5.06265 133.869 4.66076C133.43 4.25887 132.992 4.2954 132.553 4.77036C132.407 4.91651 132.316 5.11745 132.279 5.3732C132.243 5.62895 132.206 6.34139 132.17 7.51052C132.024 8.86233 131.877 9.64784 131.731 9.86705C131.585 10.0497 130.982 10.1776 129.922 10.2507C129.192 10.3237 128.716 10.4516 128.497 10.6343C128.315 10.7804 128.26 11.091 128.333 11.5659C128.479 12.7351 129.265 13.1187 130.69 12.7168C131.055 12.6072 131.274 12.6072 131.348 12.7168C131.457 12.8264 131.494 13.3744 131.457 14.3609C131.457 15.3108 131.402 16.005 131.293 16.4434C131.183 16.9184 131.22 17.3568 131.402 17.7587C131.512 17.8683 131.622 18.051 131.731 18.3067L132.06 18.8C132.17 18.9096 132.334 19.0192 132.553 19.1288C132.809 19.2018 133.102 19.2201 133.43 19.1836C134.125 19.1836 134.837 19.0192 135.568 18.6903C136.299 18.325 136.902 17.8683 137.377 17.3203C137.852 16.8453 138.327 16.4434 138.802 16.1146C139.496 15.7858 139.862 15.2926 139.898 14.6349C139.935 13.9407 139.606 13.5023 138.912 13.3196C138.583 13.3196 137.779 13.9773 136.5 15.2926C135.111 16.7174 134.161 17.1741 133.65 16.6626C133.54 16.553 133.503 15.8406 133.54 14.5253C133.613 13.21 133.723 12.2784 133.869 11.7304C133.978 11.365 134.125 11.0545 134.307 10.7987C134.527 10.543 134.965 10.1045 135.623 9.48343C137.267 7.98548 138.089 6.77981 138.089 5.86643C138.089 5.02611 137.852 4.60595 137.377 4.60595C137.085 4.60595 136.865 4.66076 136.719 4.77036C136.573 4.87997 136.463 5.08091 136.39 5.3732C136.317 5.66548 136.061 6.06737 135.623 6.57887C135.221 7.09036 134.929 7.34611 134.746 7.34611Z" fill="#A76C47"/>
<path d="M114.739 18.2519C114.228 18.6173 113.881 18.7634 113.698 18.6903C113.588 18.6538 113.68 17.5578 113.972 15.4022C114.228 14.2696 114.611 13.1004 115.123 11.8948C115.525 10.9448 115.562 10.3055 115.233 9.97666C114.538 9.28249 113.789 9.64784 112.985 11.0727C112.876 11.1823 112.693 11.7669 112.437 12.8264C112.218 13.8494 111.962 15.0368 111.67 16.3886C111.414 17.7039 111.213 18.6173 111.067 19.1288C110.848 19.896 110.939 20.4623 111.341 20.8277C111.743 21.193 112.291 21.3026 112.985 21.1565C113.899 20.9738 114.575 20.7729 115.013 20.5537C115.452 20.3344 116.164 19.8412 117.151 19.074L117.59 18.7452C118.759 17.8318 119.344 17.6674 119.344 18.2519C119.38 18.8365 119.636 19.2566 120.111 19.5124C120.623 19.7681 121.006 19.5307 121.262 18.8C121.481 18.3981 121.591 17.7404 121.591 16.827C121.591 15.9867 121.5 15.4204 121.317 15.1281C121.134 14.7993 120.787 14.6167 120.275 14.5801C119.947 14.4705 119.453 14.708 118.795 15.2926C118.174 15.8406 117.791 16.1329 117.644 16.1694C117.462 16.2425 117.06 16.5165 116.439 16.9915C115.854 17.4664 115.287 17.8866 114.739 18.2519Z" fill="#A76C47"/>
<path fill-rule="evenodd" clip-rule="evenodd" d="M118.686 35.1861C118.686 36.0264 118.722 36.6658 118.795 37.1042C118.795 37.3965 118.704 38.0176 118.521 38.9675C118.375 39.8809 118.211 40.4472 118.028 40.6664C117.845 40.8856 117.498 40.9039 116.987 40.7212C116.219 40.4289 115.836 40.5385 115.836 41.05C115.836 41.525 116.329 42.0913 117.316 42.7489C117.681 43.0047 118.156 42.9864 118.741 42.6941C119.362 42.4384 119.819 42.0182 120.111 41.4336C121.025 39.1684 121.189 35.7707 120.604 31.2403C120.495 30.9114 120.476 30.5461 120.549 30.1442L120.769 29.2673C120.842 29.1212 120.97 28.902 121.152 28.6097C121.335 28.2809 121.463 28.0434 121.536 27.8973C121.755 27.5685 121.828 27.2031 121.755 26.8012C121.682 26.2166 121.353 26.0888 120.769 26.4176C120.44 26.6003 120.221 26.6551 120.111 26.582C120.001 26.5089 119.947 26.308 119.947 25.9792C119.947 25.5042 119.819 24.8831 119.563 24.1159C119.344 23.3121 119.124 22.7823 118.905 22.5266C118.467 22.0881 117.973 21.942 117.425 22.0881C116.914 22.1978 116.439 22.4352 116 22.8006C115.562 23.1659 115.233 23.5496 115.013 23.9514C114.867 24.2072 114.575 24.3533 114.136 24.3899C113.734 24.4629 113.296 24.7187 112.821 25.1571C112.382 25.559 112.108 25.9609 111.999 26.3628C111.779 27.2031 111.652 29.8154 111.615 34.1996C111.615 38.5839 111.469 41.2327 111.177 42.1461C110.848 43.0229 110.939 43.5344 111.451 43.6806C111.962 43.8632 112.401 43.7354 112.766 43.2969C113.424 42.6028 113.826 41.1962 113.972 39.0771L114.082 37.3782L114.685 36.885C114.94 36.6292 115.324 36.1543 115.836 35.4601C116.384 34.7659 116.877 34.1448 117.316 33.5968C117.791 33.0122 118.101 32.7017 118.247 32.6651C118.43 32.7017 118.54 32.9209 118.576 33.3228C118.649 33.6881 118.686 34.3092 118.686 35.1861ZM117.37 25.1023C117.736 25.3215 117.882 25.833 117.809 26.6368C117.809 27.0022 117.754 27.2579 117.644 27.404C117.571 27.5502 117.297 27.8607 116.822 28.3357C116.128 28.9933 115.708 29.3039 115.562 29.2673C115.415 29.2673 115.361 29.0299 115.397 28.5549C115.47 27.8607 115.909 26.7829 116.713 25.3215C116.968 25.0658 117.188 24.9927 117.37 25.1023ZM115.507 31.8431C116.238 31.3316 116.603 31.2585 116.603 31.6239C116.603 31.77 116.292 32.1354 115.671 32.7199C115.05 33.3045 114.703 33.5785 114.63 33.542C114.191 33.2497 114.374 32.7565 115.178 32.0623L115.507 31.8431Z" fill="#A76C47"/>
<path d="M135.897 26.6916C134.983 27.3492 134.527 27.4406 134.527 26.9656C134.527 26.7829 134.636 26.2897 134.855 25.4859C135.002 24.8648 135.075 24.4812 135.075 24.3351C135.111 24.1889 135.056 24.0245 134.91 23.8418C134.764 23.5861 134.527 23.4765 134.198 23.513C133.978 23.513 133.796 23.5861 133.65 23.7322C133.54 23.8418 133.357 24.1341 133.102 24.6091C132.736 25.011 132.48 25.7234 132.334 26.7464C132.225 27.7329 132.024 28.4088 131.731 28.7741L131.293 29.5962L131.567 30.3086C131.749 30.7836 131.768 31.3864 131.622 32.1171C131.439 33.2862 131.457 34.2179 131.676 34.9121C131.932 35.6062 132.425 36.2639 133.156 36.885C133.851 37.4695 135.678 37.8532 138.638 38.0358C141.597 38.2185 143.717 38.1455 144.996 37.8166C145.142 37.7801 145.599 37.707 146.366 37.5974C147.133 37.4513 147.663 37.3599 147.956 37.3234C148.285 37.2503 148.705 37.1407 149.216 36.9946C149.728 36.8119 150.166 36.611 150.532 36.3918C151.299 35.9899 151.756 35.4418 151.902 34.7477C152.085 34.017 152.012 32.8478 151.683 31.2403C151.5 30.2903 151.317 29.651 151.135 29.3222C150.989 28.9568 150.751 28.7011 150.422 28.5549C150.166 28.4088 149.947 28.427 149.764 28.6097C149.618 28.7559 149.6 29.377 149.71 30.473C149.965 32.5921 149.984 33.816 149.764 34.1448C149.545 34.5102 148.686 34.8755 147.188 35.2409C145.69 35.5697 143.936 35.8255 141.926 36.0081C141.122 36.0812 139.88 36.0264 138.199 35.8437C136.555 35.661 135.531 35.4601 135.13 35.2409C133.814 34.4371 133.376 33.341 133.814 31.9527C133.924 31.5873 133.997 31.3133 134.033 31.1307C134.106 30.948 134.198 30.7653 134.307 30.5826C134.454 30.3999 134.563 30.2903 134.636 30.2538C134.709 30.2173 134.892 30.0894 135.184 29.8702C135.477 29.651 135.714 29.4866 135.897 29.377C137.103 28.5732 138.108 27.6598 138.912 26.6368C139.752 25.6138 140.117 24.81 140.008 24.2255C139.898 23.787 139.624 23.44 139.186 23.1842C138.784 22.9285 138.473 22.9285 138.254 23.1842C138.071 23.8053 137.907 24.262 137.761 24.5543C137.651 24.8466 137.432 25.1937 137.103 25.5955C136.81 25.9974 136.408 26.3628 135.897 26.6916Z" fill="#A76C47"/>
<path fill-rule="evenodd" clip-rule="evenodd" d="M79.7142 20.6085C79.97 18.1606 80.6277 15.3108 81.6874 12.0592C82.0894 11.6938 82.6192 11.2737 83.277 10.7987C83.9347 10.3238 84.6838 9.70266 85.5243 8.93542C86.584 7.9855 87.2417 7.36439 87.4975 7.07211C87.7899 6.77983 87.8995 6.52408 87.8264 6.30487C87.7168 5.82991 87.5158 5.57416 87.2235 5.53762C86.9311 5.50109 86.4378 5.64723 85.7435 5.97605C85.232 6.26833 84.5742 6.45101 83.7703 6.52408C83.0029 6.59715 82.4 6.45101 81.9615 6.08565C81.7788 5.86644 81.4865 5.73857 81.0845 5.70203C80.6825 5.62896 80.3537 5.6655 80.0979 5.81164C80.0613 5.92125 79.97 6.72502 79.8238 8.22298C79.6411 10.1959 79.367 11.1823 79.0016 11.1823C77.9785 12.0227 76.9553 12.6986 75.9321 13.2101C75.8225 13.3197 75.4754 13.5206 74.8907 13.8129C74.3426 14.1052 73.7396 14.3975 73.0819 14.6897C72.4241 14.982 72.077 15.1464 72.0405 15.183C71.7847 15.2926 71.6385 15.4935 71.602 15.7858C71.5654 16.0781 71.6568 16.3704 71.876 16.6627C72.6068 17.576 74.3974 16.9549 77.2476 14.7993C77.3573 14.7628 77.4669 14.708 77.5765 14.6349C77.7227 14.5253 77.8323 14.434 77.9054 14.3609C78.015 14.2879 78.1246 14.233 78.2343 14.1965C78.3439 14.1234 78.417 14.0869 78.4535 14.0869C78.5266 14.0869 78.5814 14.1052 78.6179 14.1417C78.691 14.1782 78.7093 14.2696 78.6728 14.4157V15.0186C78.49 16.6627 78.0516 18.8182 77.3573 21.4853C76.8091 23.4582 76.3889 24.5178 76.0966 24.6639C75.8773 24.81 75.8408 25.1023 75.9869 25.5408C76.1331 25.9792 76.3341 26.1984 76.5899 26.1984C76.7361 26.1984 77.0467 26.4359 77.5217 26.9108C77.7044 27.13 78.1612 27.4954 78.892 28.0069C79.6594 28.4819 80.1161 28.8289 80.2623 29.0482C80.3354 29.2674 79.9152 30.0346 79.0016 31.3499C78.0881 32.6286 77.1197 33.7978 76.0966 34.8573C75.4023 35.6611 74.9455 36.1543 74.7263 36.337C74.5436 36.4831 74.3608 36.5562 74.1781 36.5562C74.032 36.5562 73.9406 36.5196 73.9041 36.4466C73.9041 36.3735 73.9223 36.1726 73.9589 35.8437C73.9223 35.7341 74.0137 35.3322 74.233 34.6381C74.4157 34.017 74.5253 33.5785 74.5618 33.3228C74.6349 32.7748 74.4705 32.519 74.0685 32.5556C73.63 33.1036 73.2463 33.9256 72.9175 35.0217C72.6251 36.0812 72.5338 37.1042 72.6434 38.0907C72.7896 38.6022 73.0819 38.9127 73.5204 39.0223C73.9589 39.1319 74.4157 39.0041 74.8907 38.6387C75.4754 38.3464 76.663 37.2504 78.4535 35.3505C80.244 33.4141 81.322 32.0441 81.6874 31.2403C81.9067 30.7653 82.1442 30.5096 82.4 30.473C82.6558 30.4365 82.9664 30.6009 83.3318 30.9663C84.0626 31.5143 85.7435 32.6469 88.3745 34.3641C89.7997 35.0948 90.8776 35.7341 91.6085 36.2822C92.3393 36.7937 93.1249 37.2504 93.9654 37.6522C94.4039 37.7984 94.9703 38.0907 95.6646 38.5291C96.3589 38.931 97.0349 39.2233 97.6926 39.4059C99.5563 39.9905 100.726 40.4837 101.201 40.8856C102.151 41.6894 102.845 41.7625 103.283 41.1048C103.795 40.6299 103.941 40.1001 103.722 39.5155C103.503 38.8944 103.046 38.6022 102.352 38.6387C102.096 38.5656 101.603 38.3829 100.872 38.0907C100.141 37.7618 99.5928 37.5426 99.2274 37.433C98.3138 37.2504 97.5282 36.9581 96.8704 36.5562C96.2492 36.1543 95.8473 35.9168 95.6646 35.8437C95.2261 35.6976 94.7328 35.4784 94.1846 35.1861C93.6731 34.8938 93.1249 34.565 92.5403 34.1996C91.9556 33.7978 91.5354 33.5237 91.2796 33.3776C91.0603 33.3411 90.6401 33.1036 90.0189 32.6652C89.3977 32.2267 88.9775 31.971 88.7582 31.8979C88.4294 31.7518 87.9178 31.4047 87.2235 30.8567C86.5292 30.3086 86.109 30.0163 85.9628 29.9798C85.9262 29.9433 85.6705 29.7971 85.1954 29.5414C84.7204 29.2856 84.3184 29.0482 83.9895 28.8289C83.6972 28.6097 83.5145 28.4088 83.4414 28.2261C83.2587 28.0434 83.3501 27.5867 83.7155 26.856C84.0809 26.0888 84.2636 25.6504 84.2636 25.5408C84.4463 25.1023 84.7204 24.4812 85.0858 23.6774C85.4877 22.8371 85.8166 22.0516 86.0724 21.3209C86.3282 20.5902 86.4926 19.8595 86.5657 19.1288C86.6388 18.325 86.6571 17.8135 86.6205 17.5943C86.584 17.3386 86.4561 17.1193 86.2369 16.9367C85.6887 16.4617 85.1589 16.5165 84.6473 17.1011C84.2088 17.6491 83.478 18.4164 82.4548 19.4028C81.4682 20.3893 80.8104 21.0104 80.4816 21.2661C80.0431 21.5584 79.7873 21.6497 79.7142 21.5401C79.6411 21.4305 79.6411 21.12 79.7142 20.6085ZM82.2356 9.09982C82.1259 9.09982 82.0711 8.95368 82.0711 8.6614C82.0711 8.22298 82.1625 7.91242 82.3452 7.72975C82.5279 7.54707 82.8568 7.40093 83.3318 7.29132C83.8799 7.18172 84.2636 7.12691 84.4829 7.12691C84.7752 7.19998 84.6108 7.49227 83.9895 8.00376C82.9664 8.77101 82.3817 9.13636 82.2356 9.09982ZM82.7289 23.7323C82.1807 25.0841 81.7605 25.9974 81.4682 26.4724C81.1758 26.7282 80.646 26.5089 79.8786 25.8148C79.6228 25.5956 79.4584 25.4311 79.3853 25.3215C79.3488 25.1754 79.3488 25.0658 79.3853 24.9927C79.4584 24.9197 79.5863 24.8283 79.769 24.7187C79.9883 24.5726 80.1527 24.4447 80.2623 24.3351C80.5546 24.1889 81.1393 23.6592 82.0163 22.7458C82.9298 21.8324 83.3866 21.3209 83.3866 21.2113C83.3866 21.1748 83.4232 21.1565 83.4962 21.1565C83.5693 21.12 83.6424 21.12 83.7155 21.1565C83.7886 21.1565 83.8251 21.193 83.8251 21.2661C83.6789 21.5584 83.3135 22.3804 82.7289 23.7323Z" fill="#A76C47"/>
<path fill-rule="evenodd" clip-rule="evenodd" d="M59.7625 22.691C59.9087 22.8371 59.9817 23.166 59.9817 23.6774C60.0183 24.5178 60.0731 26.0157 60.1462 28.1713C60.1462 28.3905 60.1645 28.6828 60.201 29.0482C60.201 30.2538 60.1827 30.9845 60.1462 31.2403C60.1462 31.4595 60.0548 31.6787 59.8721 31.8979C59.6529 32.1537 59.4519 32.4277 59.2692 32.72C59.1596 32.9392 58.5201 33.7064 57.3508 35.0217C56.1814 36.3004 55.5419 37.0311 55.4323 37.2138C55.2862 37.5061 55.3044 37.7801 55.4871 38.0359C55.7795 38.4012 56.5286 38.9492 57.7344 39.68C58.9769 40.3741 59.9635 40.8308 60.6943 41.05C60.8405 41.0866 61.0597 41.05 61.3521 40.9404C61.6809 40.8308 61.8819 40.6847 61.955 40.502C62.1012 40.2463 62.1925 39.4607 62.229 38.1455C62.3021 36.7937 62.3021 35.4967 62.229 34.2544C62.1194 32.5007 62.3935 31.1124 63.0512 30.0894C63.4897 29.4318 63.6907 28.9751 63.6542 28.7193C63.6542 28.5367 63.5994 28.4271 63.4897 28.3905C63.3801 28.354 63.0695 28.3722 62.5579 28.4453C62.3752 28.4453 62.2656 28.4088 62.229 28.3357C62.1925 28.2261 62.1742 27.879 62.1742 27.2945C61.955 23.9332 62.0829 21.8872 62.5579 21.1565C62.8137 20.8277 63.3984 20.2797 64.3119 19.5124C65.262 18.7086 65.8467 18.1423 66.0659 17.8135C66.5775 17.1559 66.5958 16.5713 66.1207 16.0598C65.938 15.8771 65.7736 15.7858 65.6274 15.7858C65.4812 15.7493 65.1524 15.7493 64.6408 15.7858C63.91 15.8589 63.4349 15.8041 63.2157 15.6214C62.8503 15.256 62.43 15.0551 61.955 15.0186C61.5165 14.9455 61.2059 15.0368 61.0232 15.2926C60.9136 15.4753 60.7126 16.1146 60.4202 17.2107C60.1645 18.3067 60.0366 19.0192 60.0366 19.348C60.0366 19.6038 59.9817 19.7864 59.8721 19.896C59.799 20.0056 59.5432 20.17 59.1047 20.3893C56.9488 21.3757 55.5419 21.9786 54.8842 22.1978C53.8976 22.5266 53.3129 22.7458 53.1302 22.8554C52.984 22.9285 52.911 23.0929 52.911 23.3486C52.911 23.6774 53.0754 24.0063 53.4043 24.3351C53.7331 24.6639 54.0072 24.7918 54.2264 24.7187C55.7247 24.3168 56.9305 23.8236 57.8441 23.239C58.0268 23.2025 58.2643 23.1112 58.5566 22.965C58.8855 22.7823 59.1413 22.6545 59.324 22.5814C59.5067 22.4718 59.6529 22.5083 59.7625 22.691ZM63.4897 17.7039C63.1243 17.9231 62.8868 18.0327 62.7772 18.0327C62.7406 18.0327 62.7041 17.9597 62.6675 17.8135V17.3203C62.7041 17.1376 62.7406 17.028 62.7772 16.9915C62.8868 16.8819 63.106 16.8636 63.4349 16.9367C63.7638 16.9732 63.9465 17.0645 63.983 17.2107C64.0561 17.3203 63.8917 17.4847 63.4897 17.7039ZM60.2558 35.5149C60.3289 35.7341 60.3289 36.136 60.2558 36.7206C60.2193 37.8167 60.0914 38.456 59.8721 38.6387C59.6529 38.8214 59.2509 38.6752 58.6662 38.2003C58.0816 37.7253 58.0816 37.159 58.6662 36.5014C58.7393 36.4283 58.849 36.3004 58.9951 36.1178C59.1413 35.8985 59.2692 35.7159 59.3788 35.5697C59.4884 35.387 59.6163 35.2409 59.7625 35.1313C59.9087 34.9852 60.0183 34.9486 60.0914 35.0217C60.1645 35.0948 60.2193 35.2592 60.2558 35.5149Z" fill="#A76C47"/>
<path d="M13.7749 10.4152C13.9942 9.90368 14.3048 9.42872 14.7067 8.99029C14.9625 8.69801 15.1087 8.33265 15.1452 7.89423C15.2183 7.41927 15.1635 7.01738 14.9808 6.68856C14.7981 6.46935 14.5058 6.32321 14.1038 6.25014C13.7384 6.17707 13.4095 6.2136 13.1172 6.35974C10.6324 7.71155 9.13415 8.29612 8.62257 8.11344C8.29369 7.9673 8.29369 7.58368 8.62257 6.96258C8.65911 6.92604 8.9149 6.39628 9.38994 5.37329C9.86498 4.31376 10.1939 3.67439 10.3766 3.45518C10.9612 2.94368 10.9795 2.32258 10.4314 1.59187C9.91979 0.934236 9.42648 0.82463 8.95144 1.26305C8.84182 1.37266 8.71392 1.64668 8.56776 2.0851C8.42159 2.48699 8.27542 2.74274 8.12926 2.85234C7.87347 3.18116 7.52632 3.8388 7.08782 4.82526C6.68587 5.81171 6.39353 6.48762 6.21083 6.85297C5.26075 8.20478 5.24248 9.22777 6.15601 9.92194C7.10609 10.5796 8.42159 10.5796 10.1025 9.92194C11.016 9.55659 11.4728 9.44698 11.4728 9.59313C9.90152 11.7852 8.69565 13.6851 7.8552 15.2926C7.67249 15.6945 7.43497 15.9686 7.14264 16.1147C6.8503 16.2243 6.50316 16.1878 6.1012 16.0051C5.73579 15.8224 5.44345 15.658 5.2242 15.5119C5.00495 15.3657 4.71262 15.1465 4.34721 14.8542C4.12796 14.5985 3.79908 14.4341 3.36058 14.361C2.95863 14.2514 2.61148 14.3062 2.31915 14.5254C2.06336 14.7446 2.02682 15.1282 2.20953 15.6763C2.17298 15.9686 2.2278 16.2243 2.37396 16.4435C2.52013 16.6627 2.66629 16.8271 2.81246 16.9367C2.99517 17.0098 3.25096 17.1194 3.57983 17.2656C3.90871 17.4117 4.12796 17.503 4.23758 17.5396C4.27412 17.6126 4.56646 17.7223 5.11458 17.8684C5.69924 18.0145 5.99158 18.1241 5.99158 18.1972C6.1012 18.4895 5.49827 19.3298 4.18277 20.7182C3.78081 21.1566 3.45194 21.4123 3.19615 21.4854C2.94036 21.5219 2.62975 21.4123 2.26434 21.1566C1.97201 20.9374 1.69794 20.8826 1.44215 20.9922C1.0402 21.1383 0.9123 21.4671 1.05847 21.9786C1.20463 22.4901 1.55178 22.8372 2.0999 23.0199C2.79419 23.3487 3.61638 23.2939 4.56646 22.8555C5.40691 22.4536 6.57624 21.2297 8.07445 19.1837C8.40332 18.7087 8.69565 18.3799 8.95144 18.1972C9.24378 17.978 9.77363 17.704 10.541 17.3752C11.1257 17.156 11.3815 16.8271 11.3084 16.3887C11.2353 15.9138 10.9795 15.5667 10.541 15.3475L10.9795 14.5254C11.3084 13.9408 12.0027 12.9726 13.0624 11.6208C13.3547 11.3286 13.5922 10.9267 13.7749 10.4152Z" stroke="#A76C47" stroke-width="0.8"/>
<path d="M12.5142 33.3777C12.1488 33.0489 11.9296 32.8844 11.8565 32.8844C11.7469 32.8844 11.4545 32.72 10.9795 32.3912C10.6872 32.172 10.3218 31.9893 9.88325 31.8432C9.4813 31.6605 9.11588 31.4596 8.78701 31.2404C8.45813 31.0211 8.12926 30.7289 7.80038 30.3635C7.32534 29.7789 6.68587 29.5049 5.88195 29.5415C5.11458 29.5415 4.73089 29.8337 4.73089 30.4183C4.73089 30.6375 4.82225 30.9115 5.00495 31.2404C5.2242 31.5326 5.44345 31.7701 5.6627 31.9528C6.83203 32.7931 8.09272 33.5421 9.44475 34.1997C11.2718 35.1131 12.1854 35.7342 12.1854 36.063C12.1854 36.3553 11.8017 37.1043 11.0343 38.31C10.2669 39.5156 9.75536 40.1733 9.49957 40.2829C9.38994 40.3194 9.24378 40.5021 9.06107 40.8309C8.87836 41.2328 8.40332 41.8173 7.63595 42.5846C6.90512 43.3153 6.39353 43.7172 6.1012 43.7903C5.80887 43.8633 5.58962 43.8451 5.44345 43.7355C5.33383 43.6259 5.16939 43.3518 4.95014 42.9134C4.9136 42.8403 4.89533 42.7855 4.89533 42.749C4.49337 41.9087 4.21931 41.8722 4.07315 42.6394C4.07315 42.749 4.05487 42.9317 4.01833 43.1874C3.98179 43.4432 3.94525 43.6259 3.90871 43.7355C3.90871 43.8451 3.92698 43.9912 3.96352 44.1739C4.00006 44.3931 4.07315 44.594 4.18277 44.7767C4.62127 45.6901 5.27902 46.092 6.15601 45.9824C7.03301 45.8728 8.0379 45.2334 9.17069 44.0643C9.71882 43.5528 10.1756 43.0778 10.541 42.6394C10.9064 42.201 11.2718 41.726 11.6372 41.2145C12.0392 40.6665 12.3863 40.2098 12.6787 39.8444C12.8614 39.5887 13.1172 39.1503 13.4461 38.5292C13.8115 37.8715 14.1586 37.3783 14.4875 37.0495C14.926 36.6476 15.3097 35.9717 15.6385 35.0218C15.9674 34.0718 16.278 33.3959 16.5704 32.9941C16.9358 32.2999 17.2646 31.5509 17.557 30.7471C17.8859 29.9433 18.2513 29.1761 18.6532 28.4454C19.2013 27.2763 19.5302 26.5456 19.6398 26.2533C19.786 25.961 19.8956 25.5591 19.9687 25.0476C20.0418 24.4996 20.0053 24.0794 19.8591 23.7871C19.5302 23.1295 19.1648 22.8007 18.7628 22.8007C18.3609 22.8007 17.6301 23.1295 16.5704 23.7871C14.6702 24.9928 13.5191 25.6322 13.1172 25.7052C12.8614 25.7783 12.77 25.687 12.8431 25.4312C12.9527 25.1389 13.2268 24.5726 13.6653 23.7323C14.1403 22.8555 14.5058 22.2344 14.7616 21.869C14.9077 21.6498 15.2 21.0835 15.6385 20.1701C16.077 19.2567 16.5704 18.5443 17.1185 18.0328C17.8493 17.229 18.2147 16.6627 18.2147 16.3339C18.2147 16.0051 18.0686 15.7128 17.7762 15.4571C17.1185 14.909 16.4973 15.0004 15.9126 15.7311C14.6702 17.0463 13.848 18.2886 13.4461 19.4577C13.1172 20.1884 12.7335 20.9374 12.295 21.7046C11.8565 22.4353 11.3266 23.3304 10.7054 24.39C10.1208 25.413 9.70054 26.1254 9.44475 26.5273C9.33513 26.71 9.2255 26.9474 9.11588 27.2397C9.00626 27.532 8.96971 27.8426 9.00626 28.1714C9.0428 28.4637 9.17069 28.6646 9.38994 28.7742C9.71882 28.9934 9.99288 29.1213 10.2121 29.1578C10.4679 29.1578 10.8516 29.0665 11.3632 28.8838C11.9479 28.6646 12.8431 28.2627 14.049 27.6782C15.2914 27.057 16.0222 26.6552 16.2415 26.4725C16.4973 26.2898 16.6983 26.1802 16.8444 26.1437C17.1733 26.1071 17.1002 26.5273 16.6252 27.4041C16.3328 27.8791 16.0953 28.4271 15.9126 29.0482C15.9126 29.377 15.5837 30.1443 14.926 31.35C14.2682 32.5556 13.7201 33.3594 13.2816 33.7613C13.172 33.7978 12.9162 33.67 12.5142 33.3777Z" stroke="#A76C47" stroke-width="0.8"/>
<path d="M32.6304 6.08562C32.6304 5.97602 32.7765 5.61066 33.0689 4.98956C33.3612 4.36846 33.5074 4.00311 33.5074 3.8935C33.5439 3.41854 33.818 3.07145 34.3296 2.85224C34.8411 2.59649 35.2796 2.66956 35.6451 3.07145C35.8643 3.40027 35.8826 3.8935 35.6999 4.55114C35.5537 5.20877 35.2431 5.86641 34.7681 6.52405C34.5123 6.85287 34.1651 7.4557 33.7266 8.33255C33.2881 9.2094 33.0323 9.81223 32.9592 10.1411C32.8496 10.5064 32.8679 10.7439 33.0141 10.8535C33.1602 10.9631 33.5074 10.9814 34.0555 10.9083C35.1517 10.7987 36.3759 10.5247 37.7279 10.0863C39.0069 9.68436 39.9021 9.64783 40.4137 9.97664C40.9253 10.2689 40.9618 10.8718 40.5233 11.7851C39.6464 13.3927 38.4039 14.7993 36.7961 16.005C35.846 16.8453 34.8411 17.4299 33.7814 17.7587C32.9775 17.9779 32.4294 18.0327 32.1371 17.9231C31.8813 17.777 31.863 17.5395 32.0823 17.2107C32.338 16.8453 32.74 16.553 33.2881 16.3338C33.8362 16.0415 34.7315 15.3656 35.9739 14.3061C37.2529 13.2466 37.8924 12.6255 37.8924 12.4428C37.8924 12.4062 37.8558 12.388 37.7827 12.388C37.7462 12.3514 37.6548 12.3332 37.5087 12.3332C37.399 12.3332 37.2163 12.3697 36.9605 12.4428C36.7413 12.4793 36.4307 12.5341 36.0287 12.6072C33.2516 13.1918 31.5341 13.1187 30.8764 12.388C30.6571 12.1322 30.5658 11.7303 30.6023 11.1823C30.5658 10.89 30.6754 10.4333 30.9312 9.81223C31.2235 9.1546 31.5524 8.46042 31.9178 7.72972C32.2832 6.96247 32.5208 6.41444 32.6304 6.08562Z" stroke="#A76C47" stroke-width="0.8"/>
<path d="M46.169 43.2969C45.7671 43.9911 45.3468 44.3382 44.9083 44.3382C44.5064 44.3747 44.0131 44.119 43.4284 43.5709C42.3322 42.5845 41.4369 41.3606 40.7426 39.8991C40.4137 39.205 40.231 38.73 40.1945 38.4743C40.1579 38.2185 40.2493 38.0541 40.4685 37.981C40.5782 37.908 40.7609 37.981 41.0167 38.2002C41.2724 38.3829 41.4003 38.5473 41.4003 38.6935C41.4003 38.9492 41.784 39.5155 42.5514 40.3924C43.3188 41.2692 43.8121 41.7076 44.0313 41.7076C44.3602 41.7076 44.5064 40.8125 44.4698 39.0223C44.3968 36.2091 44.4698 33.6333 44.6891 31.2951C44.7622 29.9798 44.6708 29.2673 44.415 29.1577C44.1958 29.0481 43.6842 29.3039 42.8803 29.925C41.4552 30.8384 40.0849 31.5325 38.7694 32.0075C37.4904 32.4825 35.5902 33.0122 33.0689 33.5968C32.0457 33.816 31.3697 33.8525 31.0408 33.7064C30.8581 33.6699 30.6937 33.542 30.5475 33.3228C30.4379 33.1036 30.3283 32.9939 30.2186 32.9939C29.9994 33.0305 29.8532 34.0352 29.7801 36.0081C29.6705 38.0906 29.2868 39.3694 28.6291 39.8443C28.1175 40.2462 27.7338 40.1549 27.478 39.5703C27.3318 37.5243 27.4597 34.8024 27.8617 31.4047C28.3002 28.0069 28.556 25.6321 28.6291 24.2803C28.7387 21.6132 28.9214 19.8595 29.1772 19.0192C29.433 18.1423 29.8715 17.7039 30.4927 17.7039C31.0043 17.7404 31.3331 17.9779 31.4793 18.4163C31.662 18.8547 31.6072 19.348 31.3149 19.896C31.0956 20.3344 30.9312 20.8459 30.8216 21.4305C30.7119 21.9785 30.6389 22.4718 30.6023 22.9102C30.6023 23.3121 30.584 23.8966 30.5475 24.6639C30.511 25.4311 30.4744 26.034 30.4379 26.4724C30.3283 27.13 30.31 27.9886 30.3831 29.0481C30.4562 30.1077 30.4562 30.8566 30.3831 31.2951C30.2734 31.6969 30.2552 31.9527 30.3283 32.0623C30.4379 32.1354 30.6937 32.0806 31.0956 31.8979C31.3514 31.7517 32.7765 31.4229 35.371 30.9114L37.2894 30.4182H37.2346C37.3077 30.3086 37.3442 29.7606 37.3442 28.7741C37.3808 27.7511 37.3625 27.1848 37.2894 27.0752C37.2163 26.9656 37.0336 26.9473 36.7413 27.0204C36.449 27.0569 35.6085 27.2579 34.2199 27.6232C33.1602 27.879 32.5025 27.9521 32.2467 27.8425C31.7351 27.5867 31.6438 27.0569 31.9726 26.2532C32.1188 25.8513 32.338 25.5955 32.6304 25.4859C32.9227 25.3763 33.2516 25.358 33.617 25.4311C33.9824 25.5042 34.4209 25.4494 34.9325 25.2667C35.2614 25.1571 35.6085 25.084 35.9739 25.0475C36.3393 24.9744 36.5769 24.9196 36.6865 24.8831C36.7961 24.8466 36.8875 24.6821 36.9605 24.3899C37.0702 24.0976 37.1067 23.6226 37.0702 22.965C37.0702 21.9785 37.1067 21.3574 37.1798 21.1017C37.2529 20.8094 37.4173 20.6267 37.6731 20.5536C38.1116 20.444 38.4587 20.5902 38.7145 20.9921C38.9703 21.3574 39.1165 21.9055 39.153 22.6362L39.2079 23.7322C39.5002 23.7322 39.9935 23.6409 40.6878 23.4582C41.4186 23.2755 42.0216 23.2025 42.4966 23.239C43.0082 23.239 43.337 23.4765 43.4832 23.9514C43.5563 24.1706 43.5198 24.4264 43.3736 24.7187C43.2274 25.011 43.0447 25.1936 42.8255 25.2667C42.387 25.3763 41.8388 25.4859 41.1811 25.5955C40.5233 25.7051 40.0666 25.833 39.8108 25.9792C39.555 26.1253 39.4088 26.3993 39.3723 26.8012C39.2627 27.0935 39.1896 27.605 39.153 28.3357C39.153 29.0664 39.1896 29.4683 39.2627 29.5414C39.3357 29.6144 39.7194 29.45 40.4137 29.0481C41.1446 28.6462 41.8754 28.1895 42.6062 27.678C43.5928 27.0204 44.1775 26.3993 44.3602 25.8147C44.5795 25.2302 44.616 24.061 44.4698 22.3073C44.3602 20.9555 44.2323 20.2066 44.0862 20.0604C43.8669 19.8047 43.3188 19.4941 42.4418 19.1288C41.6013 18.7269 40.9618 18.5077 40.5233 18.4711C38.3309 18.2884 36.3393 19.421 34.5488 21.8689C33.6718 23.0746 33.0871 23.5678 32.7948 23.3486C32.5756 23.1294 32.5025 22.6544 32.5756 21.9237C32.6486 21.1565 32.8131 20.6815 33.0689 20.4988C33.1785 20.3892 33.2881 20.2066 33.3977 19.9508C33.5439 19.6951 33.6718 19.4758 33.7814 19.2932C33.9276 19.1105 34.1103 18.9644 34.3296 18.8547C35.0604 18.1971 36.0287 17.5943 37.2346 17.0462C38.477 16.4982 39.6829 16.2425 40.8522 16.279C41.7292 16.3521 42.7707 16.6809 43.9765 17.2655C45.1824 17.8135 45.895 18.4529 46.1142 19.1836C46.4431 20.2796 46.6441 22.2891 46.7171 25.2119C46.8268 28.1347 46.8085 30.4365 46.6623 32.1171C46.6258 32.2998 46.5892 33.3593 46.5527 35.2957C46.5527 37.2321 46.5162 39.0406 46.4431 40.7212C46.4065 42.3653 46.3152 43.2239 46.169 43.2969Z" stroke="#A76C47" stroke-width="0.8"/>
<path d="M134.746 7.34611C134.6 7.34611 134.527 7.09036 134.527 6.57887C134.527 5.70202 134.307 5.06265 133.869 4.66076C133.43 4.25887 132.992 4.2954 132.553 4.77036C132.407 4.91651 132.316 5.11745 132.279 5.3732C132.243 5.62895 132.206 6.34139 132.17 7.51052C132.024 8.86233 131.877 9.64784 131.731 9.86705C131.585 10.0497 130.982 10.1776 129.922 10.2507C129.192 10.3237 128.716 10.4516 128.497 10.6343C128.315 10.7804 128.26 11.091 128.333 11.5659C128.479 12.7351 129.265 13.1187 130.69 12.7168C131.055 12.6072 131.274 12.6072 131.348 12.7168C131.457 12.8264 131.494 13.3744 131.457 14.3609C131.457 15.3108 131.402 16.005 131.293 16.4434C131.183 16.9184 131.22 17.3568 131.402 17.7587C131.512 17.8683 131.622 18.051 131.731 18.3067L132.06 18.8C132.17 18.9096 132.334 19.0192 132.553 19.1288C132.809 19.2018 133.102 19.2201 133.43 19.1836C134.125 19.1836 134.837 19.0192 135.568 18.6903C136.299 18.325 136.902 17.8683 137.377 17.3203C137.852 16.8453 138.327 16.4434 138.802 16.1146C139.496 15.7858 139.862 15.2926 139.898 14.6349C139.935 13.9407 139.606 13.5023 138.912 13.3196C138.583 13.3196 137.779 13.9773 136.5 15.2926C135.111 16.7174 134.161 17.1741 133.65 16.6626C133.54 16.553 133.503 15.8406 133.54 14.5253C133.613 13.21 133.723 12.2784 133.869 11.7304C133.978 11.365 134.125 11.0545 134.307 10.7987C134.527 10.543 134.965 10.1045 135.623 9.48343C137.267 7.98548 138.089 6.77981 138.089 5.86643C138.089 5.02611 137.852 4.60595 137.377 4.60595C137.085 4.60595 136.865 4.66076 136.719 4.77036C136.573 4.87997 136.463 5.08091 136.39 5.3732C136.317 5.66548 136.061 6.06737 135.623 6.57887C135.221 7.09036 134.929 7.34611 134.746 7.34611Z" stroke="#A76C47" stroke-width="0.8"/>
<path d="M114.739 18.2519C114.228 18.6173 113.881 18.7634 113.698 18.6903C113.588 18.6538 113.68 17.5578 113.972 15.4022C114.228 14.2696 114.611 13.1004 115.123 11.8948C115.525 10.9448 115.562 10.3055 115.233 9.97666C114.538 9.28249 113.789 9.64784 112.985 11.0727C112.876 11.1823 112.693 11.7669 112.437 12.8264C112.218 13.8494 111.962 15.0368 111.67 16.3886C111.414 17.7039 111.213 18.6173 111.067 19.1288C110.848 19.896 110.939 20.4623 111.341 20.8277C111.743 21.193 112.291 21.3026 112.985 21.1565C113.899 20.9738 114.575 20.7729 115.013 20.5537C115.452 20.3344 116.164 19.8412 117.151 19.074L117.59 18.7452C118.759 17.8318 119.344 17.6674 119.344 18.2519C119.38 18.8365 119.636 19.2566 120.111 19.5124C120.623 19.7681 121.006 19.5307 121.262 18.8C121.481 18.3981 121.591 17.7404 121.591 16.827C121.591 15.9867 121.5 15.4204 121.317 15.1281C121.134 14.7993 120.787 14.6167 120.275 14.5801C119.947 14.4705 119.453 14.708 118.795 15.2926C118.174 15.8406 117.791 16.1329 117.644 16.1694C117.462 16.2425 117.06 16.5165 116.439 16.9915C115.854 17.4664 115.287 17.8866 114.739 18.2519Z" stroke="#A76C47" stroke-width="0.8"/>
<path fill-rule="evenodd" clip-rule="evenodd" d="M118.686 35.1861C118.686 36.0264 118.722 36.6658 118.795 37.1042C118.795 37.3965 118.704 38.0176 118.521 38.9675C118.375 39.8809 118.211 40.4472 118.028 40.6664C117.845 40.8856 117.498 40.9039 116.987 40.7212C116.219 40.4289 115.836 40.5385 115.836 41.05C115.836 41.525 116.329 42.0913 117.316 42.7489C117.681 43.0047 118.156 42.9864 118.741 42.6941C119.362 42.4384 119.819 42.0182 120.111 41.4336C121.025 39.1684 121.189 35.7707 120.604 31.2403C120.495 30.9114 120.476 30.5461 120.549 30.1442L120.769 29.2673C120.842 29.1212 120.97 28.902 121.152 28.6097C121.335 28.2809 121.463 28.0434 121.536 27.8973C121.755 27.5685 121.828 27.2031 121.755 26.8012C121.682 26.2166 121.353 26.0888 120.769 26.4176C120.44 26.6003 120.221 26.6551 120.111 26.582C120.001 26.5089 119.947 26.308 119.947 25.9792C119.947 25.5042 119.819 24.8831 119.563 24.1159C119.344 23.3121 119.124 22.7823 118.905 22.5266C118.467 22.0881 117.973 21.942 117.425 22.0881C116.914 22.1978 116.439 22.4352 116 22.8006C115.562 23.1659 115.233 23.5496 115.013 23.9514C114.867 24.2072 114.575 24.3533 114.136 24.3899C113.734 24.4629 113.296 24.7187 112.821 25.1571C112.382 25.559 112.108 25.9609 111.999 26.3628C111.779 27.2031 111.652 29.8154 111.615 34.1996C111.615 38.5839 111.469 41.2327 111.177 42.1461C110.848 43.0229 110.939 43.5344 111.451 43.6806C111.962 43.8632 112.401 43.7354 112.766 43.2969C113.424 42.6028 113.826 41.1962 113.972 39.0771L114.082 37.3782L114.685 36.885C114.94 36.6292 115.324 36.1543 115.836 35.4601C116.384 34.7659 116.877 34.1448 117.316 33.5968C117.791 33.0122 118.101 32.7017 118.247 32.6651C118.43 32.7017 118.54 32.9209 118.576 33.3228C118.649 33.6881 118.686 34.3092 118.686 35.1861ZM117.37 25.1023C117.736 25.3215 117.882 25.833 117.809 26.6368C117.809 27.0022 117.754 27.2579 117.644 27.404C117.571 27.5502 117.297 27.8607 116.822 28.3357C116.128 28.9933 115.708 29.3039 115.562 29.2673C115.415 29.2673 115.361 29.0299 115.397 28.5549C115.47 27.8607 115.909 26.7829 116.713 25.3215C116.968 25.0658 117.188 24.9927 117.37 25.1023ZM115.507 31.8431C116.238 31.3316 116.603 31.2585 116.603 31.6239C116.603 31.77 116.292 32.1354 115.671 32.7199C115.05 33.3045 114.703 33.5785 114.63 33.542C114.191 33.2497 114.374 32.7565 115.178 32.0623L115.507 31.8431Z" stroke="#A76C47" stroke-width="0.8"/>
<path d="M135.897 26.6916C134.983 27.3492 134.527 27.4406 134.527 26.9656C134.527 26.7829 134.636 26.2897 134.855 25.4859C135.002 24.8648 135.075 24.4812 135.075 24.3351C135.111 24.1889 135.056 24.0245 134.91 23.8418C134.764 23.5861 134.527 23.4765 134.198 23.513C133.978 23.513 133.796 23.5861 133.65 23.7322C133.54 23.8418 133.357 24.1341 133.102 24.6091C132.736 25.011 132.48 25.7234 132.334 26.7464C132.225 27.7329 132.024 28.4088 131.731 28.7741L131.293 29.5962L131.567 30.3086C131.749 30.7836 131.768 31.3864 131.622 32.1171C131.439 33.2862 131.457 34.2179 131.676 34.9121C131.932 35.6062 132.425 36.2639 133.156 36.885C133.851 37.4695 135.678 37.8532 138.638 38.0358C141.597 38.2185 143.717 38.1455 144.996 37.8166C145.142 37.7801 145.599 37.707 146.366 37.5974C147.133 37.4513 147.663 37.3599 147.956 37.3234C148.285 37.2503 148.705 37.1407 149.216 36.9946C149.728 36.8119 150.166 36.611 150.532 36.3918C151.299 35.9899 151.756 35.4418 151.902 34.7477C152.085 34.017 152.012 32.8478 151.683 31.2403C151.5 30.2903 151.317 29.651 151.135 29.3222C150.989 28.9568 150.751 28.7011 150.422 28.5549C150.166 28.4088 149.947 28.427 149.764 28.6097C149.618 28.7559 149.6 29.377 149.71 30.473C149.965 32.5921 149.984 33.816 149.764 34.1448C149.545 34.5102 148.686 34.8755 147.188 35.2409C145.69 35.5697 143.936 35.8255 141.926 36.0081C141.122 36.0812 139.88 36.0264 138.199 35.8437C136.555 35.661 135.531 35.4601 135.13 35.2409C133.814 34.4371 133.376 33.341 133.814 31.9527C133.924 31.5873 133.997 31.3133 134.033 31.1307C134.106 30.948 134.198 30.7653 134.307 30.5826C134.454 30.3999 134.563 30.2903 134.636 30.2538C134.709 30.2173 134.892 30.0894 135.184 29.8702C135.477 29.651 135.714 29.4866 135.897 29.377C137.103 28.5732 138.108 27.6598 138.912 26.6368C139.752 25.6138 140.117 24.81 140.008 24.2255C139.898 23.787 139.624 23.44 139.186 23.1842C138.784 22.9285 138.473 22.9285 138.254 23.1842C138.071 23.8053 137.907 24.262 137.761 24.5543C137.651 24.8466 137.432 25.1937 137.103 25.5955C136.81 25.9974 136.408 26.3628 135.897 26.6916Z" stroke="#A76C47" stroke-width="0.8"/>
<path fill-rule="evenodd" clip-rule="evenodd" d="M79.7142 20.6085C79.97 18.1606 80.6277 15.3108 81.6874 12.0592C82.0894 11.6938 82.6192 11.2737 83.277 10.7987C83.9347 10.3238 84.6838 9.70266 85.5243 8.93542C86.584 7.9855 87.2417 7.36439 87.4975 7.07211C87.7899 6.77983 87.8995 6.52408 87.8264 6.30487C87.7168 5.82991 87.5158 5.57416 87.2235 5.53762C86.9311 5.50109 86.4378 5.64723 85.7435 5.97605C85.232 6.26833 84.5742 6.45101 83.7703 6.52408C83.0029 6.59715 82.4 6.45101 81.9615 6.08565C81.7788 5.86644 81.4865 5.73857 81.0845 5.70203C80.6825 5.62896 80.3537 5.6655 80.0979 5.81164C80.0613 5.92125 79.97 6.72502 79.8238 8.22298C79.6411 10.1959 79.367 11.1823 79.0016 11.1823C77.9785 12.0227 76.9553 12.6986 75.9321 13.2101C75.8225 13.3197 75.4754 13.5206 74.8907 13.8129C74.3426 14.1052 73.7396 14.3975 73.0819 14.6897C72.4241 14.982 72.077 15.1464 72.0405 15.183C71.7847 15.2926 71.6385 15.4935 71.602 15.7858C71.5654 16.0781 71.6568 16.3704 71.876 16.6627C72.6068 17.576 74.3974 16.9549 77.2476 14.7993C77.3573 14.7628 77.4669 14.708 77.5765 14.6349C77.7227 14.5253 77.8323 14.434 77.9054 14.3609C78.015 14.2879 78.1246 14.233 78.2343 14.1965C78.3439 14.1234 78.417 14.0869 78.4535 14.0869C78.5266 14.0869 78.5814 14.1052 78.6179 14.1417C78.691 14.1782 78.7093 14.2696 78.6728 14.4157V15.0186C78.49 16.6627 78.0516 18.8182 77.3573 21.4853C76.8091 23.4582 76.3889 24.5178 76.0966 24.6639C75.8773 24.81 75.8408 25.1023 75.9869 25.5408C76.1331 25.9792 76.3341 26.1984 76.5899 26.1984C76.7361 26.1984 77.0467 26.4359 77.5217 26.9108C77.7044 27.13 78.1612 27.4954 78.892 28.0069C79.6594 28.4819 80.1161 28.8289 80.2623 29.0482C80.3354 29.2674 79.9152 30.0346 79.0016 31.3499C78.0881 32.6286 77.1197 33.7978 76.0966 34.8573C75.4023 35.6611 74.9455 36.1543 74.7263 36.337C74.5436 36.4831 74.3608 36.5562 74.1781 36.5562C74.032 36.5562 73.9406 36.5196 73.9041 36.4466C73.9041 36.3735 73.9223 36.1726 73.9589 35.8437C73.9223 35.7341 74.0137 35.3322 74.233 34.6381C74.4157 34.017 74.5253 33.5785 74.5618 33.3228C74.6349 32.7748 74.4705 32.519 74.0685 32.5556C73.63 33.1036 73.2463 33.9256 72.9175 35.0217C72.6251 36.0812 72.5338 37.1042 72.6434 38.0907C72.7896 38.6022 73.0819 38.9127 73.5204 39.0223C73.9589 39.1319 74.4157 39.0041 74.8907 38.6387C75.4754 38.3464 76.663 37.2504 78.4535 35.3505C80.244 33.4141 81.322 32.0441 81.6874 31.2403C81.9067 30.7653 82.1442 30.5096 82.4 30.473C82.6558 30.4365 82.9664 30.6009 83.3318 30.9663C84.0626 31.5143 85.7435 32.6469 88.3745 34.3641C89.7997 35.0948 90.8776 35.7341 91.6085 36.2822C92.3393 36.7937 93.1249 37.2504 93.9654 37.6522C94.4039 37.7984 94.9703 38.0907 95.6646 38.5291C96.3589 38.931 97.0349 39.2233 97.6926 39.4059C99.5563 39.9905 100.726 40.4837 101.201 40.8856C102.151 41.6894 102.845 41.7625 103.283 41.1048C103.795 40.6299 103.941 40.1001 103.722 39.5155C103.503 38.8944 103.046 38.6022 102.352 38.6387C102.096 38.5656 101.603 38.3829 100.872 38.0907C100.141 37.7618 99.5928 37.5426 99.2274 37.433C98.3138 37.2504 97.5282 36.9581 96.8704 36.5562C96.2492 36.1543 95.8473 35.9168 95.6646 35.8437C95.2261 35.6976 94.7328 35.4784 94.1846 35.1861C93.6731 34.8938 93.1249 34.565 92.5403 34.1996C91.9556 33.7978 91.5354 33.5237 91.2796 33.3776C91.0603 33.3411 90.6401 33.1036 90.0189 32.6652C89.3977 32.2267 88.9775 31.971 88.7582 31.8979C88.4294 31.7518 87.9178 31.4047 87.2235 30.8567C86.5292 30.3086 86.109 30.0163 85.9628 29.9798C85.9262 29.9433 85.6705 29.7971 85.1954 29.5414C84.7204 29.2856 84.3184 29.0482 83.9895 28.8289C83.6972 28.6097 83.5145 28.4088 83.4414 28.2261C83.2587 28.0434 83.3501 27.5867 83.7155 26.856C84.0809 26.0888 84.2636 25.6504 84.2636 25.5408C84.4463 25.1023 84.7204 24.4812 85.0858 23.6774C85.4877 22.8371 85.8166 22.0516 86.0724 21.3209C86.3282 20.5902 86.4926 19.8595 86.5657 19.1288C86.6388 18.325 86.6571 17.8135 86.6205 17.5943C86.584 17.3386 86.4561 17.1193 86.2369 16.9367C85.6887 16.4617 85.1589 16.5165 84.6473 17.1011C84.2088 17.6491 83.478 18.4164 82.4548 19.4028C81.4682 20.3893 80.8104 21.0104 80.4816 21.2661C80.0431 21.5584 79.7873 21.6497 79.7142 21.5401C79.6411 21.4305 79.6411 21.12 79.7142 20.6085ZM82.2356 9.09982C82.1259 9.09982 82.0711 8.95368 82.0711 8.6614C82.0711 8.22298 82.1625 7.91242 82.3452 7.72975C82.5279 7.54707 82.8568 7.40093 83.3318 7.29132C83.8799 7.18172 84.2636 7.12691 84.4829 7.12691C84.7752 7.19998 84.6108 7.49227 83.9895 8.00376C82.9664 8.77101 82.3817 9.13636 82.2356 9.09982ZM82.7289 23.7323C82.1807 25.0841 81.7605 25.9974 81.4682 26.4724C81.1758 26.7282 80.646 26.5089 79.8786 25.8148C79.6228 25.5956 79.4584 25.4311 79.3853 25.3215C79.3488 25.1754 79.3488 25.0658 79.3853 24.9927C79.4584 24.9197 79.5863 24.8283 79.769 24.7187C79.9883 24.5726 80.1527 24.4447 80.2623 24.3351C80.5546 24.1889 81.1393 23.6592 82.0163 22.7458C82.9298 21.8324 83.3866 21.3209 83.3866 21.2113C83.3866 21.1748 83.4232 21.1565 83.4962 21.1565C83.5693 21.12 83.6424 21.12 83.7155 21.1565C83.7886 21.1565 83.8251 21.193 83.8251 21.2661C83.6789 21.5584 83.3135 22.3804 82.7289 23.7323Z" stroke="#A76C47" stroke-width="0.8"/>
<path fill-rule="evenodd" clip-rule="evenodd" d="M59.7625 22.691C59.9087 22.8371 59.9817 23.166 59.9817 23.6774C60.0183 24.5178 60.0731 26.0157 60.1462 28.1713C60.1462 28.3905 60.1645 28.6828 60.201 29.0482C60.201 30.2538 60.1827 30.9845 60.1462 31.2403C60.1462 31.4595 60.0548 31.6787 59.8721 31.8979C59.6529 32.1537 59.4519 32.4277 59.2692 32.72C59.1596 32.9392 58.5201 33.7064 57.3508 35.0217C56.1814 36.3004 55.5419 37.0311 55.4323 37.2138C55.2862 37.5061 55.3044 37.7801 55.4871 38.0359C55.7795 38.4012 56.5286 38.9492 57.7344 39.68C58.9769 40.3741 59.9635 40.8308 60.6943 41.05C60.8405 41.0866 61.0597 41.05 61.3521 40.9404C61.6809 40.8308 61.8819 40.6847 61.955 40.502C62.1012 40.2463 62.1925 39.4607 62.229 38.1455C62.3021 36.7937 62.3021 35.4967 62.229 34.2544C62.1194 32.5007 62.3935 31.1124 63.0512 30.0894C63.4897 29.4318 63.6907 28.9751 63.6542 28.7193C63.6542 28.5367 63.5994 28.4271 63.4897 28.3905C63.3801 28.354 63.0695 28.3722 62.5579 28.4453C62.3752 28.4453 62.2656 28.4088 62.229 28.3357C62.1925 28.2261 62.1742 27.879 62.1742 27.2945C61.955 23.9332 62.0829 21.8872 62.5579 21.1565C62.8137 20.8277 63.3984 20.2797 64.3119 19.5124C65.262 18.7086 65.8467 18.1423 66.0659 17.8135C66.5775 17.1559 66.5958 16.5713 66.1207 16.0598C65.938 15.8771 65.7736 15.7858 65.6274 15.7858C65.4812 15.7493 65.1524 15.7493 64.6408 15.7858C63.91 15.8589 63.4349 15.8041 63.2157 15.6214C62.8503 15.256 62.43 15.0551 61.955 15.0186C61.5165 14.9455 61.2059 15.0368 61.0232 15.2926C60.9136 15.4753 60.7126 16.1146 60.4202 17.2107C60.1645 18.3067 60.0366 19.0192 60.0366 19.348C60.0366 19.6038 59.9817 19.7864 59.8721 19.896C59.799 20.0056 59.5432 20.17 59.1047 20.3893C56.9488 21.3757 55.5419 21.9786 54.8842 22.1978C53.8976 22.5266 53.3129 22.7458 53.1302 22.8554C52.984 22.9285 52.911 23.0929 52.911 23.3486C52.911 23.6774 53.0754 24.0063 53.4043 24.3351C53.7331 24.6639 54.0072 24.7918 54.2264 24.7187C55.7247 24.3168 56.9305 23.8236 57.8441 23.239C58.0268 23.2025 58.2643 23.1112 58.5566 22.965C58.8855 22.7823 59.1413 22.6545 59.324 22.5814C59.5067 22.4718 59.6529 22.5083 59.7625 22.691ZM63.4897 17.7039C63.1243 17.9231 62.8868 18.0327 62.7772 18.0327C62.7406 18.0327 62.7041 17.9597 62.6675 17.8135V17.3203C62.7041 17.1376 62.7406 17.028 62.7772 16.9915C62.8868 16.8819 63.106 16.8636 63.4349 16.9367C63.7638 16.9732 63.9465 17.0645 63.983 17.2107C64.0561 17.3203 63.8917 17.4847 63.4897 17.7039ZM60.2558 35.5149C60.3289 35.7341 60.3289 36.136 60.2558 36.7206C60.2193 37.8167 60.0914 38.456 59.8721 38.6387C59.6529 38.8214 59.2509 38.6752 58.6662 38.2003C58.0816 37.7253 58.0816 37.159 58.6662 36.5014C58.7393 36.4283 58.849 36.3004 58.9951 36.1178C59.1413 35.8985 59.2692 35.7159 59.3788 35.5697C59.4884 35.387 59.6163 35.2409 59.7625 35.1313C59.9087 34.9852 60.0183 34.9486 60.0914 35.0217C60.1645 35.0948 60.2193 35.2592 60.2558 35.5149Z" stroke="#A76C47" stroke-width="0.8"/>
</svg>
