<svg width="199" height="49" viewBox="0 0 199 49" fill="none" xmlns="http://www.w3.org/2000/svg">
<path d="M74.9946 5.2491C75.3957 4.95848 75.7785 4.92215 76.1431 5.14012C76.5077 5.32176 76.7447 5.68504 76.8541 6.22995C76.8905 6.5569 76.9817 6.7567 77.1275 6.82936C77.3098 6.90201 77.565 6.9565 77.8932 6.99283C78.2213 6.99283 78.513 7.04732 78.7682 7.15631C79.1328 7.22896 79.8255 7.30162 80.8464 7.37427C81.9037 7.44693 82.8517 7.51958 83.6902 7.59224C84.5288 7.66489 84.9846 7.73755 85.0575 7.8102C85.3127 7.91919 85.495 8.11899 85.6044 8.40961C85.7137 8.66391 85.7137 8.9182 85.6044 9.17249C85.4221 9.49944 85.2215 9.69924 85.0028 9.7719C84.8205 9.80823 84.4741 9.7719 83.9637 9.66292C83.5626 9.59026 82.5782 9.51761 81.0105 9.44495C79.4792 9.3723 78.4948 9.28148 78.0572 9.17249C77.4739 9.09984 77.0728 9.09984 76.8541 9.17249C76.6718 9.20882 76.5077 9.3723 76.3619 9.66292C74.466 13.5863 73.1352 16.0203 72.3696 16.9648C71.8227 17.5823 71.4216 17.982 71.1664 18.1636C70.9112 18.3089 70.6377 18.3089 70.346 18.1636C69.7992 17.9093 69.7992 17.5097 70.346 16.9648C71.1846 16.0929 72.005 14.8759 72.8071 13.3138C73.6092 11.7518 74.1743 10.3713 74.5024 9.17249C74.7577 8.55492 74.8488 7.79204 74.7759 6.88385C74.7394 6.22995 74.7212 5.83035 74.7212 5.68504C74.7577 5.5034 74.8488 5.35809 74.9946 5.2491Z" fill="#A76C47"/>
<path fill-rule="evenodd" clip-rule="evenodd" d="M61.5958 17.4007C61.6687 17.5097 62.088 17.6187 62.8536 17.7277C63.6557 17.8366 64.1115 17.9275 64.2208 18.0001C64.5854 18.1454 64.8953 18.4179 65.1506 18.8175C65.4058 19.2171 65.5334 19.653 65.5334 20.1253C65.3876 21.3968 64.8771 22.7227 64.0021 24.1032C63.1271 25.4836 62.088 26.2647 60.8848 26.4463C60.5567 26.519 60.3561 26.5916 60.2832 26.6643C60.2103 26.7006 60.1191 26.8641 60.0098 27.1547C60.0098 27.3 59.9186 27.9357 59.7363 29.0619C59.5905 30.1881 59.4629 31.2234 59.3535 32.1679C59.2441 33.1124 59.1712 34.1659 59.1347 35.3284C59.0983 36.4546 59.1894 37.1448 59.4082 37.3991C59.7363 38.0167 59.6999 38.9612 59.2988 40.2327C59.1165 40.9229 58.8066 41.3406 58.3691 41.486C57.968 41.6313 57.6581 41.4496 57.4394 40.941C57.1842 39.2336 57.2206 36.3819 57.5487 32.3859C57.9133 28.3535 58.0227 25.4836 57.8769 23.7762C57.731 21.8145 57.6581 20.5612 57.6581 20.0163C57.6946 19.4714 57.804 19.0899 57.9863 18.872C58.205 18.6177 58.5149 18.4905 58.916 18.4905C59.2441 18.4905 59.4264 18.4724 59.4629 18.436C59.5358 18.3997 59.5723 18.2726 59.5723 18.0546C59.5723 17.2917 60.1374 16.2019 61.2676 14.7851C62.3979 13.3683 62.8901 12.6055 62.7442 12.4965L60.9395 12.551C60.7207 12.551 60.3744 12.5691 59.9004 12.6055C57.3847 12.7508 56.1268 12.7689 56.1268 12.6599C56.0174 12.551 55.9263 12.224 55.8534 11.6791C55.8169 11.2795 55.7987 11.0252 55.7987 10.9162C55.8351 10.8072 55.9445 10.6983 56.1268 10.5893C56.4185 10.444 57.1659 10.4258 58.3691 10.5348C59.6087 10.6074 60.5202 10.5893 61.1036 10.4803C62.8536 10.226 64.075 10.3713 64.7677 10.9162C65.2053 11.2432 65.3329 11.6791 65.1506 12.224C65.0047 12.7326 64.549 13.4773 63.7833 14.4582C62.325 16.2382 61.5958 17.2191 61.5958 17.4007ZM61.8145 19.7983C61.2312 19.7983 60.7936 19.7075 60.502 19.5259C60.2103 19.3442 60.028 19.2716 59.9551 19.3079C59.8822 19.3079 59.8639 19.4351 59.9004 19.6894C60.2285 22.4503 60.502 23.9215 60.7207 24.1032C60.903 24.2848 61.1218 24.3393 61.377 24.2666C61.6322 24.1577 61.9057 23.9215 62.1973 23.5583C62.489 23.1586 62.7989 22.6682 63.1271 22.087C63.5646 21.1425 63.7286 20.5794 63.6193 20.3977C63.437 19.9981 62.8354 19.7983 61.8145 19.7983Z" fill="#A76C47"/>
<path d="M74.6118 25.7379C75.1587 25.7379 75.8879 25.5563 76.7994 25.193C77.7473 24.7934 78.3671 24.412 78.6588 24.0487C78.7682 23.976 78.8229 23.3584 78.8229 22.196C78.8594 21.0335 78.914 20.3977 78.987 20.2888C79.0599 19.9981 79.0052 19.8528 78.8229 19.8528C78.6406 19.8165 78.1119 19.9436 77.2369 20.2343C76.0337 20.5975 75.2134 20.7065 74.7759 20.5612C74.5936 20.4886 74.4842 20.4159 74.4477 20.3433C74.4113 20.2343 74.4113 19.9981 74.4477 19.6349C74.4477 19.3079 74.4842 19.0718 74.5571 18.9265C74.63 18.7812 74.703 18.6903 74.7759 18.654C74.8853 18.6177 75.0858 18.5814 75.3775 18.545C75.6691 18.5087 75.9426 18.436 76.1978 18.3271C77.9843 17.9638 79.1875 17.5097 79.8073 16.9648C79.9896 16.7468 80.3724 16.547 80.9558 16.3654C81.5391 16.1837 81.9584 16.1837 82.2136 16.3654C82.5418 16.8013 82.56 17.2372 82.2683 17.6732C81.9766 18.1091 81.6303 18.3816 81.2292 18.4905C80.974 18.5995 80.8282 18.7085 80.7917 18.8175C80.7917 18.8901 80.8829 19.0536 81.0652 19.3079C81.211 19.5622 81.211 20.0163 81.0652 20.6702C80.737 21.651 80.7735 22.0325 81.1745 21.8145C81.6485 21.5239 82.1042 21.0153 82.5418 20.2888C82.7241 20.0708 82.9611 19.9618 83.2527 19.9618C83.5444 19.9618 83.7449 20.0526 83.8543 20.2343C83.9637 20.4522 84.0002 20.7065 83.9637 20.9972C83.9637 21.2514 83.909 21.4331 83.7996 21.5421C83.5809 21.7237 83.0887 22.3049 82.323 23.2858C81.5574 24.2303 81.1381 24.8116 81.0652 25.0295C80.8829 25.5018 80.7552 26.4281 80.6823 27.8086C80.6459 29.1527 80.573 33.0034 80.4636 39.3608C80.4271 41.6858 80.336 42.9936 80.1901 43.2842C79.4245 44.5193 78.6588 44.156 77.8932 42.1943C77.3098 40.6686 77.1093 39.6332 77.2916 39.0883C77.401 38.9794 77.5468 38.9612 77.7291 39.0338C77.9114 39.1065 78.0208 39.2336 78.0572 39.4153C78.1666 39.8149 78.2942 39.833 78.4401 39.4698C78.4765 39.3608 78.513 39.2155 78.5494 39.0338C78.5859 38.8159 78.6224 36.8905 78.6588 33.2577C78.7317 29.5886 78.7864 27.6633 78.8229 27.4816C78.8958 26.9731 78.8776 26.7006 78.7682 26.6643C78.6588 26.5916 78.3671 26.6824 77.8932 26.9367C77.3463 27.191 76.6718 27.4453 75.8697 27.6996C75.0676 27.9539 74.5389 28.0629 74.2837 28.0266C73.7003 28.0992 73.4269 27.7723 73.4633 27.0457C73.4998 26.3192 73.7732 25.8832 74.2837 25.7379H74.6118Z" fill="#A76C47"/>
<path d="M85.0028 31.623C85.0392 31.4777 85.1851 31.296 85.4403 31.0781C85.6955 30.8238 85.896 30.6966 86.0419 30.6966C86.6982 30.733 88.1748 31.1689 90.4717 32.0044C92.7687 32.84 94.1177 33.2759 94.5187 33.3122C94.8469 33.4212 95.5396 33.6573 96.5969 34.0206C97.6907 34.3839 98.4199 34.62 98.7845 34.729C99.4408 34.9107 99.7324 35.5101 99.6595 36.5272C99.5137 37.1811 99.1673 37.5807 98.6204 37.726C98.11 37.8714 97.7272 37.6352 97.4719 37.0177C97.4355 36.7997 97.2896 36.6362 97.0344 36.5272C96.7792 36.3819 96.2323 36.1821 95.3938 35.9278C93.6072 35.2739 91.9848 34.729 90.5264 34.2931C90.4535 34.2931 90.0889 34.2023 89.4326 34.0206C88.7763 33.8027 88.3024 33.6392 88.0107 33.5302C87.719 33.3849 87.318 33.2032 86.8075 32.9853C86.2971 32.7673 85.896 32.5494 85.6044 32.3314C85.3127 32.1134 85.1122 31.8773 85.0028 31.623Z" fill="#A76C47"/>
<path d="M77.0181 32.5494C77.0181 32.9853 76.289 34.1659 74.8306 36.0913C73.4087 38.0167 72.4425 39.1065 71.932 39.3608C71.5674 39.5788 71.2029 39.6151 70.8382 39.4698C70.5101 39.2881 70.346 39.052 70.346 38.7614C70.3825 38.4344 70.6013 38.1257 71.0023 37.835C71.2211 37.6534 71.6951 37.1448 72.4242 36.3093C73.1534 35.4737 73.518 35.0196 73.518 34.947C73.5909 34.8743 73.8826 34.4202 74.3931 33.5847C74.9035 32.7128 75.2863 32.1316 75.5415 31.841C75.8697 31.6593 76.1978 31.6593 76.5259 31.841C76.8541 31.9863 77.0181 32.2224 77.0181 32.5494Z" fill="#A76C47"/>
<path fill-rule="evenodd" clip-rule="evenodd" d="M182.131 7.37429C181.73 7.22898 181.055 7.28347 180.107 7.53776C178.722 7.82839 177.646 8.24615 176.881 8.79107C176.735 8.90005 176.042 9.17251 174.803 9.60844C173.599 10.008 172.943 10.2442 172.834 10.3168C172.688 10.4985 172.451 10.5348 172.123 10.4258C171.795 10.3168 171.558 10.2805 171.412 10.3168L171.084 10.2078C170.865 10.1352 170.664 10.0807 170.482 10.0444C170.3 10.008 170.154 10.0625 170.045 10.2078C169.935 10.3532 169.935 10.6256 170.045 11.0252C170.446 12.9506 170.683 14.7125 170.756 16.3109C170.829 17.0011 170.81 17.764 170.701 18.5995C170.592 19.4351 170.5 20.0526 170.427 20.4523C170.355 20.8519 170.464 21.3968 170.756 22.087C170.792 22.1597 170.901 22.2323 171.084 22.305C171.302 22.3776 171.467 22.4684 171.576 22.5774C171.722 22.6501 171.74 22.7591 171.631 22.9044C171.521 23.1587 171.485 23.4493 171.521 23.7762C171.558 24.0669 171.667 24.2848 171.849 24.4301C172.323 24.7571 172.998 24.6118 173.873 23.9942C174.128 23.8489 174.602 23.5764 175.295 23.1768C175.988 22.7772 176.516 22.4139 176.881 22.087C177.464 21.5421 178.449 20.9063 179.834 20.1798C181.219 19.4169 182.186 18.7085 182.733 18.0546C183.425 17.1464 183.826 15.6752 183.936 13.6408C184.045 11.5701 183.826 9.91723 183.279 8.68209C182.951 7.95553 182.568 7.5196 182.131 7.37429ZM179.943 9.60844C180.673 9.4268 181.147 9.40864 181.365 9.55395C181.73 10.0262 181.912 11.2614 181.912 13.2594C181.949 15.2211 181.621 16.4017 180.928 16.8013C180.673 16.9466 180.016 17.4371 178.959 18.2726C177.938 19.1081 177.318 19.5622 177.1 19.6349C176.735 19.8165 176.498 19.8892 176.389 19.8528C176.316 19.8165 176.316 19.6349 176.389 19.3079C176.462 18.9083 176.516 18.3634 176.553 17.6732C176.553 16.983 176.607 16.4925 176.717 16.2019C176.863 15.9113 177.081 15.6933 177.373 15.548C177.555 15.439 178.084 15.0576 178.959 14.4037C179.834 13.7135 180.363 13.332 180.545 13.2594C181.165 12.9324 181.329 12.5328 181.037 12.0606C180.928 11.8426 180.782 11.7336 180.6 11.7336C180.417 11.6973 180.199 11.7518 179.943 11.8971C179.725 12.0061 179.506 12.1332 179.287 12.2785C179.105 12.4238 178.904 12.5873 178.686 12.7689L178.357 13.0959C178.139 13.2412 177.902 13.3139 177.646 13.3139C177.428 13.3139 177.3 13.2594 177.264 13.1504C177.191 12.9688 177.282 12.4783 177.537 11.6791C177.829 10.8799 178.048 10.4077 178.193 10.2623C178.631 9.97172 179.214 9.75375 179.943 9.60844ZM175.131 12.1151C175.167 12.1877 175.185 12.4238 175.185 12.8234C175.149 13.5863 175.058 14.1131 174.912 14.4037C174.803 14.658 174.584 14.8578 174.256 15.0031C173.709 15.2211 173.344 15.2756 173.162 15.1666C172.98 15.0213 172.834 14.6217 172.724 13.9678C172.688 13.3865 172.743 13.0414 172.888 12.9324C173.107 12.7145 173.472 12.4965 173.982 12.2785C174.493 12.0242 174.803 11.8971 174.912 11.8971C175.058 11.9334 175.131 12.0061 175.131 12.1151ZM174.474 17.1283C174.693 17.1646 174.784 17.3644 174.748 17.7277C174.675 18.6359 174.402 19.6167 173.928 20.6702C173.49 21.6874 173.016 22.196 172.506 22.196C172.469 22.087 172.542 21.5784 172.724 20.6702C172.907 19.7257 172.961 19.1808 172.888 19.0355C172.743 18.4542 172.852 18.0183 173.217 17.7277C173.581 17.4007 174.001 17.2009 174.474 17.1283Z" fill="#A76C47"/>
<path d="M187.545 28.8984C190.024 27.6996 193.433 26.3737 197.772 24.9206C197.954 24.7752 198.027 24.521 197.991 24.1577C197.954 23.7581 197.863 23.4856 197.717 23.3403C197.316 22.9407 196.423 23.086 195.038 23.7762C194.053 24.2848 193.014 24.7208 191.92 25.084C190.754 25.4836 189.186 26.1194 187.217 26.9912C185.248 27.8268 183.772 28.408 182.787 28.735C182.605 28.8803 182.113 29.0437 181.311 29.2254C180.545 29.3707 179.87 29.5705 179.287 29.8248C178.74 30.0428 178.521 30.3152 178.631 30.6422C178.667 31.2597 179.068 31.6412 179.834 31.7865C180.563 31.8955 181.219 32.1498 181.803 32.5494C182.386 32.949 182.623 33.2941 182.514 33.5847C182.332 34.0206 181.639 34.2568 180.436 34.2931C179.743 34.2931 179.141 34.166 178.631 33.9117C178.157 33.621 177.482 33.058 176.607 32.2224C175.915 31.5322 175.422 31.1144 175.131 30.9691C174.839 30.8238 174.584 30.8783 174.365 31.1326C174.146 31.4232 174.073 31.8955 174.146 32.5494C174.256 33.1669 174.511 33.5121 174.912 33.5847C174.912 33.621 175.076 33.7663 175.404 34.0206C175.732 34.2386 175.933 34.3839 176.006 34.4566C176.115 34.4929 176.316 34.62 176.607 34.838C176.935 35.0196 177.172 35.165 177.318 35.2739L177.975 35.6009C178.303 35.7462 178.576 35.8552 178.795 35.9278C179.014 35.9642 179.269 36.0187 179.561 36.0913C179.889 36.164 180.18 36.2003 180.436 36.2003C181.384 36.273 182.204 36.1276 182.897 35.7644C183.626 35.4011 184.154 34.9288 184.483 34.3476C184.556 34.166 184.592 33.9843 184.592 33.8027C184.628 33.621 184.592 33.4576 184.483 33.3123C184.41 33.1306 184.319 32.9853 184.209 32.8763C184.136 32.731 184.027 32.5675 183.881 32.3859C183.772 32.2043 183.681 32.0771 183.608 32.0045C183.17 31.5685 182.988 31.2416 183.061 31.0236C183.134 30.7693 183.48 30.5332 184.1 30.3152C184.391 30.1699 184.957 29.9519 185.795 29.6613C186.634 29.3707 187.217 29.1164 187.545 28.8984Z" fill="#A76C47"/>
<path d="M164.576 29.9338C164.539 30.2971 164.485 30.5695 164.412 30.7511C164.156 31.1871 163.828 31.95 163.427 33.0398C163.063 34.1296 162.789 34.8198 162.607 35.1105C162.498 35.2921 162.242 35.8007 161.841 36.6362C161.44 37.4718 161.185 37.9622 161.076 38.1075C160.93 38.4708 160.839 38.7069 160.802 38.8159C159.927 40.7776 160.055 41.7403 161.185 41.7039C161.44 41.5223 161.659 41.3225 161.841 41.1045C162.024 40.8866 162.151 40.7049 162.224 40.5596C162.333 40.4143 162.461 40.16 162.607 39.7967L162.935 38.9794C164.576 36.1458 165.451 34.3658 165.56 33.6392C165.597 33.3123 165.688 32.9126 165.834 32.4404C165.979 31.9318 166.107 31.4959 166.216 31.1326C166.362 30.733 166.453 30.3515 166.49 29.9883C166.563 29.5887 166.508 29.2617 166.326 29.0074C166.143 28.7531 165.834 28.6078 165.396 28.5715C165.141 28.6078 164.959 28.7531 164.849 29.0074C164.74 29.2254 164.649 29.5342 164.576 29.9338Z" fill="#A76C47"/>
<path d="M127.168 22.7409C127.314 22.8862 127.515 22.9225 127.77 22.8499C127.879 22.9225 128.189 22.8862 128.7 22.7409C129.21 22.5956 129.793 22.4139 130.45 22.196C131.142 21.978 131.616 21.8327 131.872 21.76C132.017 21.7237 132.109 21.7237 132.145 21.76C132.218 21.7964 132.254 21.8872 132.254 22.0325C132.254 22.2868 132.109 22.6137 131.817 23.0133C131.562 23.3766 131.179 23.8307 130.668 24.3756C130.194 24.8842 129.939 25.1748 129.903 25.2475C129.356 26.1194 128.189 27.4453 126.403 29.2254C125.856 29.734 125.528 30.0791 125.418 30.2607C125.309 30.4423 125.254 30.6785 125.254 30.9691C125.254 31.6593 125.491 32.0044 125.965 32.0044C126.22 32.0044 126.567 31.7865 127.004 31.3505C127.478 30.8783 127.97 30.3515 128.481 29.7703C128.991 29.189 129.356 28.8076 129.575 28.626C129.83 28.408 130.304 27.8631 130.996 26.9912C131.726 26.1194 132.181 25.6108 132.364 25.4655C132.655 25.1748 132.838 25.1022 132.911 25.2475C132.984 25.6108 132.984 26.192 132.911 26.9912C132.838 27.7541 132.819 28.3353 132.856 28.7349C132.892 29.5705 132.801 30.1881 132.582 30.5877C132.4 30.9873 132.291 31.3142 132.254 31.5685C132.254 31.8955 132.2 32.3314 132.09 32.8763C131.908 33.4575 131.926 33.9298 132.145 34.2931C132.4 34.6564 132.728 34.8017 133.129 34.729C133.53 34.62 133.84 34.3112 134.059 33.8027C134.241 33.4757 134.369 33.0034 134.442 32.3859C134.551 31.7683 134.697 30.3152 134.879 28.0266C134.916 27.0457 134.971 26.3736 135.044 26.0104C135.116 25.6471 135.189 25.4473 135.262 25.411C135.335 25.3383 135.536 25.411 135.864 25.6289C136.228 25.8469 136.52 25.9922 136.739 26.0649C136.958 26.0649 137.432 26.3373 138.161 26.8822C138.89 27.3908 139.437 27.8449 139.801 28.2445C140.239 28.7168 140.585 29.0074 140.841 29.1164C141.132 29.189 141.406 29.0801 141.661 28.7894C142.098 28.3172 142.19 27.8449 141.934 27.3727C141.716 26.8641 141.114 26.2283 140.13 25.4655C139.145 24.7026 138.617 24.3211 138.544 24.3211C138.507 24.3211 138.252 24.2122 137.778 23.9942C137.304 23.7762 136.83 23.5764 136.356 23.3948C135.919 23.2131 135.682 23.1586 135.645 23.2313C135.426 23.304 135.281 23.3221 135.208 23.2858C135.171 23.2131 135.135 23.086 135.098 22.9044C135.062 22.4684 135.062 22.087 135.098 21.76C135.171 21.3968 135.299 21.0516 135.481 20.7247C135.7 20.3977 135.864 20.1435 135.973 19.9618C136.119 19.7438 136.374 19.4896 136.739 19.1989C137.14 18.9083 137.413 18.7085 137.559 18.5995C137.705 18.4905 138.033 18.2726 138.544 17.9456C139.091 17.6187 139.419 17.4189 139.528 17.3462C140.622 16.8013 141.005 16.1837 140.676 15.4935C140.604 15.3482 140.512 15.2392 140.403 15.1666C140.294 15.0939 140.13 15.0576 139.911 15.0576C139.729 15.0576 139.564 15.0757 139.419 15.1121C139.309 15.1121 139.145 15.1484 138.926 15.2211C138.708 15.2574 138.58 15.2755 138.544 15.2755C138.471 15.2029 138.525 14.7125 138.708 13.8043C138.89 12.8598 139.072 12.1877 139.255 11.7881C139.473 11.2795 139.546 10.8617 139.473 10.5348C139.4 10.2078 139.2 10.008 138.872 9.93537C138.58 9.82639 138.27 9.91721 137.942 10.2078C137.614 10.4621 137.395 10.7527 137.286 11.0797C137.176 11.3703 137.067 12.0061 136.958 12.9869C136.812 14.0767 136.575 14.9304 136.247 15.548C135.7 16.5288 135.353 16.8558 135.208 16.5288C135.171 16.4199 135.098 15.5662 134.989 13.9677C134.916 12.333 134.879 11.116 134.879 10.3168C134.952 10.0988 134.879 9.82639 134.661 9.49944C134.442 9.13617 134.187 8.90004 133.895 8.79105C133.603 8.68207 133.366 8.7184 133.184 8.90004C133.002 9.08167 132.947 10.2442 133.02 12.3875C133.056 14.5308 133.02 15.6751 132.911 15.8205C132.838 15.9294 132.692 15.9658 132.473 15.9294C132.254 15.8931 131.707 15.766 130.832 15.548C129.556 15.1847 128.809 14.9849 128.59 14.9486C128.408 14.9123 128.226 14.9849 128.043 15.1666C127.715 15.5298 127.624 15.9839 127.77 16.5288C127.916 17.0738 128.262 17.3281 128.809 17.2917C129.246 17.3644 130.176 17.5823 131.598 17.9456C131.744 17.982 131.963 18.0183 132.254 18.0546C132.582 18.0909 132.819 18.1818 132.965 18.3271C133.038 18.3997 133.056 18.4905 133.02 18.5995C133.02 18.6722 132.965 18.763 132.856 18.872C132.747 18.9446 132.582 19.0355 132.364 19.1444C132.145 19.2171 131.89 19.3261 131.598 19.4714C131.015 19.762 130.322 19.9981 129.52 20.1798C128.754 20.3614 128.153 20.5612 127.715 20.7792C127.278 20.9972 126.949 21.3423 126.731 21.8145C126.804 22.0688 126.858 22.2505 126.895 22.3594C126.931 22.4684 127.022 22.5956 127.168 22.7409Z" fill="#A76C47"/>
<path d="M112.183 12.6599C111.855 12.9142 111.764 13.1504 111.91 13.3683C111.983 14.0222 112.566 14.3855 113.66 14.4582C114.207 14.4945 114.553 14.5672 114.699 14.6761C114.881 14.7851 115.064 15.0939 115.246 15.6025C115.501 16.438 115.902 16.5652 116.449 15.9839C116.96 15.439 117.105 14.9123 116.887 14.4037C116.704 13.8588 116.413 13.4047 116.012 13.0414C115.611 12.6418 115.155 12.333 114.644 12.115C114.316 12.0061 113.915 12.0061 113.441 12.115C112.967 12.1877 112.548 12.3693 112.183 12.6599Z" fill="#A76C47"/>
<path d="M114.426 26.5008C114.717 26.0285 114.918 25.6471 115.027 25.3565C115.939 24.0123 116.467 22.868 116.613 21.9235C116.686 21.5966 116.54 21.2514 116.176 20.8882C115.957 20.7065 115.756 20.5794 115.574 20.5067C115.428 20.4341 115.282 20.4159 115.137 20.4522C115.027 20.4522 114.808 20.4704 114.48 20.5067H113.605C113.022 20.5431 112.639 20.5794 112.457 20.6157C112.311 20.652 112.165 20.761 112.019 20.9427C111.691 21.4876 111.655 21.9235 111.91 22.2505C112.165 22.5774 112.621 22.7046 113.277 22.6319H114.262C114.262 22.8135 114.243 22.977 114.207 23.1223C114.207 23.2313 114.189 23.3403 114.152 23.4493C114.152 23.5219 114.116 23.6127 114.043 23.7217C113.97 23.8307 113.915 23.9397 113.879 24.0487C113.842 24.1213 113.733 24.2666 113.551 24.4846C113.405 24.7026 113.277 24.8842 113.168 25.0295C112.949 25.3565 112.748 25.7379 112.566 26.1738C112.384 26.5734 112.165 26.9549 111.91 27.3182C111.472 28.0447 111.254 28.5896 111.254 28.9529C111.254 29.3162 111.472 29.6795 111.91 30.0427C112.493 30.4787 112.694 30.9328 112.512 31.405C112.366 31.8773 111.728 32.6765 110.597 33.8027C109.577 34.8198 108.884 35.3829 108.519 35.4919C108.337 35.6009 107.954 35.7644 107.371 35.9823C106.787 36.2003 106.277 36.4364 105.839 36.6907C105.438 36.9087 105.201 37.163 105.128 37.4536C105.019 37.7805 105.074 38.0893 105.293 38.3799C105.511 38.6706 105.803 38.8159 106.168 38.8159C106.35 38.8159 106.97 38.6342 108.027 38.271L109.613 37.726L111.91 37.7805C113.04 37.7442 114.17 37.7987 115.301 37.944C116.431 38.053 117.342 38.1801 118.035 38.3255C118.728 38.4344 119.712 38.6342 120.988 38.9249C122.264 39.2155 123.194 39.4153 123.778 39.5243C125.564 39.8875 128.207 40.1055 131.707 40.1782C135.244 40.2508 138.106 40.16 140.294 39.9057C142.262 39.6151 145.799 39.2518 150.903 38.8159C151.888 38.7432 152.617 38.6524 153.091 38.5434C153.565 38.3981 153.984 38.1438 154.349 37.7805C154.786 37.3446 154.896 36.8542 154.677 36.3093C154.604 36.1276 154.458 36.0186 154.239 35.9823C154.021 35.9097 153.838 35.9278 153.693 36.0368C153.182 36.4727 151.706 36.7634 149.263 36.9087C146.856 37.0177 145.507 37.1266 145.216 37.2356C144.231 37.5626 141.132 37.8169 135.919 37.9985C130.741 38.1801 127.679 38.1438 126.731 37.8895C126.621 37.8169 126.239 37.7442 125.582 37.6716C124.16 37.4899 121.973 37.1085 119.02 36.5272C116.103 35.9097 113.842 35.5282 112.238 35.3829C112.129 35.3103 112.475 34.6927 113.277 33.5302C114.043 32.4767 114.48 31.6593 114.59 31.0781C114.736 30.4968 114.608 29.8611 114.207 29.1709C113.952 28.8439 113.806 28.5351 113.769 28.2445C113.769 27.9176 113.806 27.6633 113.879 27.4816C113.952 27.2637 114.134 26.9367 114.426 26.5008Z" fill="#A76C47"/>
<path fill-rule="evenodd" clip-rule="evenodd" d="M22.4382 35.056C23.3497 34.8017 23.8966 33.4757 24.0789 31.0781C24.1518 30.2062 24.243 28.6441 24.3523 26.3918C24.4982 24.1395 24.6076 22.5592 24.6805 21.651C24.7169 21.4694 24.7716 20.8882 24.8445 19.9073C24.9175 18.8901 25.0086 18.0001 25.118 17.2372C25.2638 16.438 25.4097 16.0566 25.5555 16.0929C25.7013 16.0929 26.0477 16.2382 26.5946 16.5288C27.1415 16.8195 27.4696 17.0193 27.579 17.1283C27.7613 17.3462 27.6337 18.3452 27.1962 20.1253C26.9045 21.4331 26.23 23.2131 25.1727 25.4655C24.8445 25.9377 24.7352 26.3736 24.8445 26.7733C24.9904 27.1729 25.3003 27.4271 25.7743 27.5361C26.5764 27.5361 27.5608 26.9731 28.7275 25.8469C30.3317 24.2848 31.2979 23.4856 31.626 23.4493C31.7354 23.4493 31.7901 23.5219 31.7901 23.6672C31.7901 23.8852 31.4802 24.6662 30.8604 26.0104C30.277 27.3545 29.9124 28.081 29.7666 28.19C29.7301 28.1537 29.5114 28.0447 29.1103 27.8631C28.7093 27.6814 28.3993 27.5543 28.1806 27.4816C27.9618 27.409 27.7431 27.409 27.5243 27.4816C27.3785 27.5906 27.2326 27.7723 27.0868 28.0266C26.941 28.2808 26.868 28.4625 26.868 28.5715C26.8316 28.6805 27.0868 28.9892 27.6337 29.4978C28.1806 30.0064 28.454 30.297 28.454 30.3697C28.3447 30.9509 27.8342 31.7865 26.9227 32.8763C26.0112 33.9298 25.2638 34.4202 24.6805 34.3476C24.243 34.3839 24.006 34.511 23.9695 34.729C23.8237 35.1649 24.0971 35.4919 24.7899 35.7099C25.4826 35.8915 26.0112 35.837 26.3758 35.5464C27.3602 34.9288 28.29 34.0206 29.165 32.8218C29.8577 31.8046 30.3317 31.296 30.5869 31.296C31.6442 31.9136 33.3396 32.8581 35.673 34.1296C38.0429 35.3647 39.7565 36.2911 40.8138 36.9087C41.2149 37.1266 42.2722 37.6897 43.9858 38.5979C45.7359 39.5061 47.0119 40.2145 47.8141 40.7231C47.9963 40.7594 48.3063 41.0137 48.7438 41.486C49.2177 41.9219 49.6735 42.2852 50.111 42.5758C50.585 42.8664 50.9496 42.8664 51.2048 42.5758C51.7881 42.2852 52.0616 41.8674 52.0251 41.3225C51.9887 40.7776 51.6605 40.4143 51.0407 40.2327C50.7855 40.16 50.4574 39.9784 50.0563 39.6877C48.8531 38.8522 47.5771 38.1257 46.2281 37.5081C44.8791 36.8542 43.8582 36.3274 43.1655 35.9278C42.0352 35.2376 40.1211 34.1841 37.4231 32.7673C34.7615 31.3142 32.8474 30.2244 31.6807 29.4978C31.5713 29.3888 31.5713 29.1527 31.6807 28.7894C31.8265 28.4262 32.2276 27.5725 32.8839 26.2283C33.8318 24.2303 34.2876 22.6864 34.2511 21.5966C34.2511 20.5794 33.7954 20.1435 32.8839 20.2888C32.5557 20.3251 31.7354 20.87 30.4228 21.9235C29.1468 22.9407 28.4176 23.4311 28.2353 23.3948C28.1988 23.2858 28.3811 22.5411 28.7822 21.1606C29.1832 19.7802 29.3838 19.0355 29.3838 18.9265C29.4931 18.2362 29.6025 17.8185 29.7119 17.6732C29.8577 17.4915 30.1676 17.3281 30.6416 17.1827C31.1885 17.0011 31.7536 16.6197 32.337 16.0384C33.212 15.1302 33.9412 13.8406 34.5245 12.1695C34.8162 11.2977 34.9621 10.6619 34.9621 10.2623C34.9985 9.86272 34.8709 9.51761 34.5792 9.22698C34.3605 9.00902 34.16 8.88187 33.9777 8.84554C33.8318 8.80922 33.5766 8.86371 33.212 9.00902L32.3917 9.39046C31.8448 9.64475 31.2979 9.86272 30.751 10.0444C30.2406 10.1897 29.9853 10.1897 29.9853 10.0444C29.7666 9.75374 29.6937 8.9182 29.7666 7.53775C29.9124 7.10182 29.7119 6.72037 29.165 6.39343C28.6181 6.06648 28.217 6.12097 27.9618 6.5569C27.7795 6.81119 27.7248 7.70122 27.7978 9.22698L27.9071 11.5156L27.2509 11.8971C26.704 12.224 26.3394 12.3875 26.1571 12.3875C26.0112 12.3875 25.8654 12.2422 25.7196 11.9516C25.5373 11.5156 25.2821 11.2977 24.9539 11.2977C24.6258 11.2613 24.3159 11.4248 24.0242 11.7881C23.7325 12.1514 23.532 12.6236 23.4226 13.2049C23.4226 13.3865 23.3315 13.6045 23.1492 13.8588C22.9669 14.1131 22.7846 14.3492 22.6023 14.5672C22.4564 14.7488 22.3653 14.9849 22.3288 15.2755C22.3288 15.5298 22.4747 15.7478 22.7663 15.9294L23.2039 16.3654L23.1492 17.7822C23.0763 18.5814 22.9486 19.6712 22.7663 21.0516C22.6205 21.7419 22.5294 22.9952 22.4929 24.8116C22.4564 26.5916 22.3835 27.7904 22.2741 28.408C22.2012 28.7349 22.1283 29.298 22.0554 30.0972C21.9825 30.8964 21.8913 31.6048 21.7819 32.2224C21.709 32.84 21.5996 33.2396 21.4538 33.4212C21.235 33.5665 21.2533 33.8753 21.5085 34.3476C21.8002 34.8198 22.1101 35.056 22.4382 35.056ZM31.626 13.9677C30.9333 14.9486 30.4411 15.4027 30.1494 15.33C30.0036 15.2574 29.9124 14.9123 29.876 14.2947C29.876 13.6408 29.9489 13.1685 30.0947 12.8779C30.2041 12.6963 30.5687 12.442 31.1885 12.115C31.8083 11.7518 32.1729 11.5883 32.2823 11.6246C32.5375 12.1695 32.3187 12.9506 31.626 13.9677ZM27.7978 14.1857C28.053 14.549 28.053 14.9668 27.7978 15.439C27.6884 15.5117 27.4879 15.4753 27.1962 15.33C26.5399 15.0031 26.5034 14.6943 27.0868 14.4037C27.4149 14.0041 27.6519 13.9314 27.7978 14.1857Z" fill="#A76C47"/>
<path fill-rule="evenodd" clip-rule="evenodd" d="M12.977 13.8043C12.5394 13.6953 12.1384 13.7861 11.7738 14.0767C8.27368 16.0384 4.99232 17.6005 1.92972 18.763L1.71096 19.0355C1.56512 19.1808 1.43751 19.3261 1.32814 19.4714C1.25522 19.5804 1.16407 19.7257 1.05469 19.9073C0.98177 20.0526 0.98177 20.1979 1.05469 20.3433C1.12761 20.4522 1.27345 20.5249 1.4922 20.5612C2.51307 20.6702 4.09906 20.1979 6.25017 19.1444C8.40129 18.0546 9.73206 17.4734 10.2425 17.4007C9.6956 18.5632 8.80234 20.5975 7.56272 23.5038C6.35955 26.3736 5.33869 28.4988 4.50012 29.8793C4.2449 30.3515 4.02614 30.7148 3.84384 30.9691C3.69801 31.1871 3.51571 31.4232 3.29695 31.6775C3.07819 31.9318 2.87767 32.2042 2.69537 32.4949C2.25785 33.0034 2.14848 33.4757 2.36723 33.9116C2.62245 34.3112 3.00527 34.4021 3.51571 34.1841C3.84384 34.0388 4.40897 33.3486 5.21108 32.1134C6.04965 30.842 6.68769 29.734 7.1252 28.7894C7.81793 27.3363 8.27368 26.6461 8.49244 26.7188C8.74765 26.7551 8.87526 27.6088 8.87526 29.2799C8.87526 30.9146 8.74765 32.1134 8.49244 32.8763C8.31014 33.4575 8.09138 34.2749 7.83616 35.3284C7.61741 36.3456 7.50803 36.945 7.50803 37.1266C7.50803 37.4173 7.58095 37.6534 7.72679 37.835C7.90908 38.0167 8.14607 38.1075 8.43775 38.1075C8.69296 38.2165 9.0211 38.0167 9.42215 37.5081C9.85967 36.9995 10.1878 36.7452 10.4066 36.7452C11.6462 36.4546 12.9223 35.5464 14.2348 34.0206C15.5474 32.4949 16.2036 31.1507 16.2036 29.9883C16.2036 28.7531 15.7843 27.8994 14.9458 27.4271C14.1072 26.9549 13.1593 27.0639 12.1019 27.7541C11.555 28.1174 11.2087 28.2627 11.0628 28.19C10.9899 28.1537 10.8805 27.6633 10.7347 26.7188C10.6253 25.7379 10.5706 24.9387 10.5706 24.3211C10.5706 24.1032 10.4248 23.7762 10.1331 23.3403C9.8779 22.9044 9.89613 22.5229 10.1878 22.196C10.3701 21.4331 10.9717 20.1435 11.9926 18.3271C13.0134 16.4744 13.5968 15.2211 13.7426 14.5672C13.7062 14.1675 13.4509 13.9133 12.977 13.8043ZM14.1801 29.9883C14.2166 30.4242 14.1801 30.7693 14.0707 31.0236C13.9249 31.4958 13.378 32.2587 12.4301 33.3122C11.4821 34.3294 10.8805 34.8017 10.6253 34.729C10.4066 34.6564 10.443 34.0569 10.7347 32.9308C11.0264 31.7683 11.3545 30.9873 11.7191 30.5877C11.9743 30.2607 12.3207 29.9701 12.7582 29.7158C13.1957 29.4252 13.5239 29.2799 13.7426 29.2799C13.9978 29.2799 14.1437 29.516 14.1801 29.9883Z" fill="#A76C47"/>
<path d="M74.9946 5.2491C75.3957 4.95848 75.7785 4.92215 76.1431 5.14012C76.5077 5.32176 76.7447 5.68504 76.8541 6.22995C76.8905 6.5569 76.9817 6.7567 77.1275 6.82936C77.3098 6.90201 77.565 6.9565 77.8932 6.99283C78.2213 6.99283 78.513 7.04732 78.7682 7.15631C79.1328 7.22896 79.8255 7.30162 80.8464 7.37427C81.9037 7.44693 82.8517 7.51958 83.6902 7.59224C84.5288 7.66489 84.9846 7.73755 85.0575 7.8102C85.3127 7.91919 85.495 8.11899 85.6044 8.40961C85.7137 8.66391 85.7137 8.9182 85.6044 9.17249C85.4221 9.49944 85.2215 9.69924 85.0028 9.7719C84.8205 9.80823 84.4741 9.7719 83.9637 9.66292C83.5626 9.59026 82.5782 9.51761 81.0105 9.44495C79.4792 9.3723 78.4948 9.28148 78.0572 9.17249C77.4739 9.09984 77.0728 9.09984 76.8541 9.17249C76.6718 9.20882 76.5077 9.3723 76.3619 9.66292C74.466 13.5863 73.1352 16.0203 72.3696 16.9648C71.8227 17.5823 71.4216 17.982 71.1664 18.1636C70.9112 18.3089 70.6377 18.3089 70.346 18.1636C69.7992 17.9093 69.7992 17.5097 70.346 16.9648C71.1846 16.0929 72.005 14.8759 72.8071 13.3138C73.6092 11.7518 74.1743 10.3713 74.5024 9.17249C74.7577 8.55492 74.8488 7.79204 74.7759 6.88385C74.7394 6.22995 74.7212 5.83035 74.7212 5.68504C74.7577 5.5034 74.8488 5.35809 74.9946 5.2491Z" stroke="#A76C47" stroke-width="0.8"/>
<path fill-rule="evenodd" clip-rule="evenodd" d="M61.5958 17.4007C61.6687 17.5097 62.088 17.6187 62.8536 17.7277C63.6557 17.8366 64.1115 17.9275 64.2208 18.0001C64.5854 18.1454 64.8953 18.4179 65.1506 18.8175C65.4058 19.2171 65.5334 19.653 65.5334 20.1253C65.3876 21.3968 64.8771 22.7227 64.0021 24.1032C63.1271 25.4836 62.088 26.2647 60.8848 26.4463C60.5567 26.519 60.3561 26.5916 60.2832 26.6643C60.2103 26.7006 60.1191 26.8641 60.0098 27.1547C60.0098 27.3 59.9186 27.9357 59.7363 29.0619C59.5905 30.1881 59.4629 31.2234 59.3535 32.1679C59.2441 33.1124 59.1712 34.1659 59.1347 35.3284C59.0983 36.4546 59.1894 37.1448 59.4082 37.3991C59.7363 38.0167 59.6999 38.9612 59.2988 40.2327C59.1165 40.9229 58.8066 41.3406 58.3691 41.486C57.968 41.6313 57.6581 41.4496 57.4394 40.941C57.1842 39.2336 57.2206 36.3819 57.5487 32.3859C57.9133 28.3535 58.0227 25.4836 57.8769 23.7762C57.731 21.8145 57.6581 20.5612 57.6581 20.0163C57.6946 19.4714 57.804 19.0899 57.9863 18.872C58.205 18.6177 58.5149 18.4905 58.916 18.4905C59.2441 18.4905 59.4264 18.4724 59.4629 18.436C59.5358 18.3997 59.5723 18.2726 59.5723 18.0546C59.5723 17.2917 60.1374 16.2019 61.2676 14.7851C62.3979 13.3683 62.8901 12.6055 62.7442 12.4965L60.9395 12.551C60.7207 12.551 60.3744 12.5691 59.9004 12.6055C57.3847 12.7508 56.1268 12.7689 56.1268 12.6599C56.0174 12.551 55.9263 12.224 55.8534 11.6791C55.8169 11.2795 55.7987 11.0252 55.7987 10.9162C55.8351 10.8072 55.9445 10.6983 56.1268 10.5893C56.4185 10.444 57.1659 10.4258 58.3691 10.5348C59.6087 10.6074 60.5202 10.5893 61.1036 10.4803C62.8536 10.226 64.075 10.3713 64.7677 10.9162C65.2053 11.2432 65.3329 11.6791 65.1506 12.224C65.0047 12.7326 64.549 13.4773 63.7833 14.4582C62.325 16.2382 61.5958 17.2191 61.5958 17.4007ZM61.8145 19.7983C61.2312 19.7983 60.7936 19.7075 60.502 19.5259C60.2103 19.3442 60.028 19.2716 59.9551 19.3079C59.8822 19.3079 59.8639 19.4351 59.9004 19.6894C60.2285 22.4503 60.502 23.9215 60.7207 24.1032C60.903 24.2848 61.1218 24.3393 61.377 24.2666C61.6322 24.1577 61.9057 23.9215 62.1973 23.5583C62.489 23.1586 62.7989 22.6682 63.1271 22.087C63.5646 21.1425 63.7286 20.5794 63.6193 20.3977C63.437 19.9981 62.8354 19.7983 61.8145 19.7983Z" stroke="#A76C47" stroke-width="0.8"/>
<path d="M74.6118 25.7379C75.1587 25.7379 75.8879 25.5563 76.7994 25.193C77.7473 24.7934 78.3671 24.412 78.6588 24.0487C78.7682 23.976 78.8229 23.3584 78.8229 22.196C78.8594 21.0335 78.914 20.3977 78.987 20.2888C79.0599 19.9981 79.0052 19.8528 78.8229 19.8528C78.6406 19.8165 78.1119 19.9436 77.2369 20.2343C76.0337 20.5975 75.2134 20.7065 74.7759 20.5612C74.5936 20.4886 74.4842 20.4159 74.4477 20.3433C74.4113 20.2343 74.4113 19.9981 74.4477 19.6349C74.4477 19.3079 74.4842 19.0718 74.5571 18.9265C74.63 18.7812 74.703 18.6903 74.7759 18.654C74.8853 18.6177 75.0858 18.5814 75.3775 18.545C75.6691 18.5087 75.9426 18.436 76.1978 18.3271C77.9843 17.9638 79.1875 17.5097 79.8073 16.9648C79.9896 16.7468 80.3724 16.547 80.9558 16.3654C81.5391 16.1837 81.9584 16.1837 82.2136 16.3654C82.5418 16.8013 82.56 17.2372 82.2683 17.6732C81.9766 18.1091 81.6303 18.3816 81.2292 18.4905C80.974 18.5995 80.8282 18.7085 80.7917 18.8175C80.7917 18.8901 80.8829 19.0536 81.0652 19.3079C81.211 19.5622 81.211 20.0163 81.0652 20.6702C80.737 21.651 80.7735 22.0325 81.1745 21.8145C81.6485 21.5239 82.1042 21.0153 82.5418 20.2888C82.7241 20.0708 82.9611 19.9618 83.2527 19.9618C83.5444 19.9618 83.7449 20.0526 83.8543 20.2343C83.9637 20.4522 84.0002 20.7065 83.9637 20.9972C83.9637 21.2514 83.909 21.4331 83.7996 21.5421C83.5809 21.7237 83.0887 22.3049 82.323 23.2858C81.5574 24.2303 81.1381 24.8116 81.0652 25.0295C80.8829 25.5018 80.7552 26.4281 80.6823 27.8086C80.6459 29.1527 80.573 33.0034 80.4636 39.3608C80.4271 41.6858 80.336 42.9936 80.1901 43.2842C79.4245 44.5193 78.6588 44.156 77.8932 42.1943C77.3098 40.6686 77.1093 39.6332 77.2916 39.0883C77.401 38.9794 77.5468 38.9612 77.7291 39.0338C77.9114 39.1065 78.0208 39.2336 78.0572 39.4153C78.1666 39.8149 78.2942 39.833 78.4401 39.4698C78.4765 39.3608 78.513 39.2155 78.5494 39.0338C78.5859 38.8159 78.6224 36.8905 78.6588 33.2577C78.7317 29.5886 78.7864 27.6633 78.8229 27.4816C78.8958 26.9731 78.8776 26.7006 78.7682 26.6643C78.6588 26.5916 78.3671 26.6824 77.8932 26.9367C77.3463 27.191 76.6718 27.4453 75.8697 27.6996C75.0676 27.9539 74.5389 28.0629 74.2837 28.0266C73.7003 28.0992 73.4269 27.7723 73.4633 27.0457C73.4998 26.3192 73.7732 25.8832 74.2837 25.7379H74.6118Z" stroke="#A76C47" stroke-width="0.8"/>
<path d="M85.0028 31.623C85.0392 31.4777 85.1851 31.296 85.4403 31.0781C85.6955 30.8238 85.896 30.6966 86.0419 30.6966C86.6982 30.733 88.1748 31.1689 90.4717 32.0044C92.7687 32.84 94.1177 33.2759 94.5187 33.3122C94.8469 33.4212 95.5396 33.6573 96.5969 34.0206C97.6907 34.3839 98.4199 34.62 98.7845 34.729C99.4408 34.9107 99.7324 35.5101 99.6595 36.5272C99.5137 37.1811 99.1673 37.5807 98.6204 37.726C98.11 37.8714 97.7272 37.6352 97.4719 37.0177C97.4355 36.7997 97.2896 36.6362 97.0344 36.5272C96.7792 36.3819 96.2323 36.1821 95.3938 35.9278C93.6072 35.2739 91.9848 34.729 90.5264 34.2931C90.4535 34.2931 90.0889 34.2023 89.4326 34.0206C88.7763 33.8027 88.3024 33.6392 88.0107 33.5302C87.719 33.3849 87.318 33.2032 86.8075 32.9853C86.2971 32.7673 85.896 32.5494 85.6044 32.3314C85.3127 32.1134 85.1122 31.8773 85.0028 31.623Z" stroke="#A76C47" stroke-width="0.8"/>
<path d="M77.0181 32.5494C77.0181 32.9853 76.289 34.1659 74.8306 36.0913C73.4087 38.0167 72.4425 39.1065 71.932 39.3608C71.5674 39.5788 71.2029 39.6151 70.8382 39.4698C70.5101 39.2881 70.346 39.052 70.346 38.7614C70.3825 38.4344 70.6013 38.1257 71.0023 37.835C71.2211 37.6534 71.6951 37.1448 72.4242 36.3093C73.1534 35.4737 73.518 35.0196 73.518 34.947C73.5909 34.8743 73.8826 34.4202 74.3931 33.5847C74.9035 32.7128 75.2863 32.1316 75.5415 31.841C75.8697 31.6593 76.1978 31.6593 76.5259 31.841C76.8541 31.9863 77.0181 32.2224 77.0181 32.5494Z" stroke="#A76C47" stroke-width="0.8"/>
<path fill-rule="evenodd" clip-rule="evenodd" d="M182.131 7.37429C181.73 7.22898 181.055 7.28347 180.107 7.53776C178.722 7.82839 177.646 8.24615 176.881 8.79107C176.735 8.90005 176.042 9.17251 174.803 9.60844C173.599 10.008 172.943 10.2442 172.834 10.3168C172.688 10.4985 172.451 10.5348 172.123 10.4258C171.795 10.3168 171.558 10.2805 171.412 10.3168L171.084 10.2078C170.865 10.1352 170.664 10.0807 170.482 10.0444C170.3 10.008 170.154 10.0625 170.045 10.2078C169.935 10.3532 169.935 10.6256 170.045 11.0252C170.446 12.9506 170.683 14.7125 170.756 16.3109C170.829 17.0011 170.81 17.764 170.701 18.5995C170.592 19.4351 170.5 20.0526 170.427 20.4523C170.355 20.8519 170.464 21.3968 170.756 22.087C170.792 22.1597 170.901 22.2323 171.084 22.305C171.302 22.3776 171.467 22.4684 171.576 22.5774C171.722 22.6501 171.74 22.7591 171.631 22.9044C171.521 23.1587 171.485 23.4493 171.521 23.7762C171.558 24.0669 171.667 24.2848 171.849 24.4301C172.323 24.7571 172.998 24.6118 173.873 23.9942C174.128 23.8489 174.602 23.5764 175.295 23.1768C175.988 22.7772 176.516 22.4139 176.881 22.087C177.464 21.5421 178.449 20.9063 179.834 20.1798C181.219 19.4169 182.186 18.7085 182.733 18.0546C183.425 17.1464 183.826 15.6752 183.936 13.6408C184.045 11.5701 183.826 9.91723 183.279 8.68209C182.951 7.95553 182.568 7.5196 182.131 7.37429ZM179.943 9.60844C180.673 9.4268 181.147 9.40864 181.365 9.55395C181.73 10.0262 181.912 11.2614 181.912 13.2594C181.949 15.2211 181.621 16.4017 180.928 16.8013C180.673 16.9466 180.016 17.4371 178.959 18.2726C177.938 19.1081 177.318 19.5622 177.1 19.6349C176.735 19.8165 176.498 19.8892 176.389 19.8528C176.316 19.8165 176.316 19.6349 176.389 19.3079C176.462 18.9083 176.516 18.3634 176.553 17.6732C176.553 16.983 176.607 16.4925 176.717 16.2019C176.863 15.9113 177.081 15.6933 177.373 15.548C177.555 15.439 178.084 15.0576 178.959 14.4037C179.834 13.7135 180.363 13.332 180.545 13.2594C181.165 12.9324 181.329 12.5328 181.037 12.0606C180.928 11.8426 180.782 11.7336 180.6 11.7336C180.417 11.6973 180.199 11.7518 179.943 11.8971C179.725 12.0061 179.506 12.1332 179.287 12.2785C179.105 12.4238 178.904 12.5873 178.686 12.7689L178.357 13.0959C178.139 13.2412 177.902 13.3139 177.646 13.3139C177.428 13.3139 177.3 13.2594 177.264 13.1504C177.191 12.9688 177.282 12.4783 177.537 11.6791C177.829 10.8799 178.048 10.4077 178.193 10.2623C178.631 9.97172 179.214 9.75375 179.943 9.60844ZM175.131 12.1151C175.167 12.1877 175.185 12.4238 175.185 12.8234C175.149 13.5863 175.058 14.1131 174.912 14.4037C174.803 14.658 174.584 14.8578 174.256 15.0031C173.709 15.2211 173.344 15.2756 173.162 15.1666C172.98 15.0213 172.834 14.6217 172.724 13.9678C172.688 13.3865 172.743 13.0414 172.888 12.9324C173.107 12.7145 173.472 12.4965 173.982 12.2785C174.493 12.0242 174.803 11.8971 174.912 11.8971C175.058 11.9334 175.131 12.0061 175.131 12.1151ZM174.474 17.1283C174.693 17.1646 174.784 17.3644 174.748 17.7277C174.675 18.6359 174.402 19.6167 173.928 20.6702C173.49 21.6874 173.016 22.196 172.506 22.196C172.469 22.087 172.542 21.5784 172.724 20.6702C172.907 19.7257 172.961 19.1808 172.888 19.0355C172.743 18.4542 172.852 18.0183 173.217 17.7277C173.581 17.4007 174.001 17.2009 174.474 17.1283Z" stroke="#A76C47" stroke-width="0.8"/>
<path d="M187.545 28.8984C190.024 27.6996 193.433 26.3737 197.772 24.9206C197.954 24.7752 198.027 24.521 197.991 24.1577C197.954 23.7581 197.863 23.4856 197.717 23.3403C197.316 22.9407 196.423 23.086 195.038 23.7762C194.053 24.2848 193.014 24.7208 191.92 25.084C190.754 25.4836 189.186 26.1194 187.217 26.9912C185.248 27.8268 183.772 28.408 182.787 28.735C182.605 28.8803 182.113 29.0437 181.311 29.2254C180.545 29.3707 179.87 29.5705 179.287 29.8248C178.74 30.0428 178.521 30.3152 178.631 30.6422C178.667 31.2597 179.068 31.6412 179.834 31.7865C180.563 31.8955 181.219 32.1498 181.803 32.5494C182.386 32.949 182.623 33.2941 182.514 33.5847C182.332 34.0206 181.639 34.2568 180.436 34.2931C179.743 34.2931 179.141 34.166 178.631 33.9117C178.157 33.621 177.482 33.058 176.607 32.2224C175.915 31.5322 175.422 31.1144 175.131 30.9691C174.839 30.8238 174.584 30.8783 174.365 31.1326C174.146 31.4232 174.073 31.8955 174.146 32.5494C174.256 33.1669 174.511 33.5121 174.912 33.5847C174.912 33.621 175.076 33.7663 175.404 34.0206C175.732 34.2386 175.933 34.3839 176.006 34.4566C176.115 34.4929 176.316 34.62 176.607 34.838C176.935 35.0196 177.172 35.165 177.318 35.2739L177.975 35.6009C178.303 35.7462 178.576 35.8552 178.795 35.9278C179.014 35.9642 179.269 36.0187 179.561 36.0913C179.889 36.164 180.18 36.2003 180.436 36.2003C181.384 36.273 182.204 36.1276 182.897 35.7644C183.626 35.4011 184.154 34.9288 184.483 34.3476C184.556 34.166 184.592 33.9843 184.592 33.8027C184.628 33.621 184.592 33.4576 184.483 33.3123C184.41 33.1306 184.319 32.9853 184.209 32.8763C184.136 32.731 184.027 32.5675 183.881 32.3859C183.772 32.2043 183.681 32.0771 183.608 32.0045C183.17 31.5685 182.988 31.2416 183.061 31.0236C183.134 30.7693 183.48 30.5332 184.1 30.3152C184.391 30.1699 184.957 29.9519 185.795 29.6613C186.634 29.3707 187.217 29.1164 187.545 28.8984Z" stroke="#A76C47" stroke-width="0.8"/>
<path d="M164.576 29.9338C164.539 30.2971 164.485 30.5695 164.412 30.7511C164.156 31.1871 163.828 31.95 163.427 33.0398C163.063 34.1296 162.789 34.8198 162.607 35.1105C162.498 35.2921 162.242 35.8007 161.841 36.6362C161.44 37.4718 161.185 37.9622 161.076 38.1075C160.93 38.4708 160.839 38.7069 160.802 38.8159C159.927 40.7776 160.055 41.7403 161.185 41.7039C161.44 41.5223 161.659 41.3225 161.841 41.1045C162.024 40.8866 162.151 40.7049 162.224 40.5596C162.333 40.4143 162.461 40.16 162.607 39.7967L162.935 38.9794C164.576 36.1458 165.451 34.3658 165.56 33.6392C165.597 33.3123 165.688 32.9126 165.834 32.4404C165.979 31.9318 166.107 31.4959 166.216 31.1326C166.362 30.733 166.453 30.3515 166.49 29.9883C166.563 29.5887 166.508 29.2617 166.326 29.0074C166.143 28.7531 165.834 28.6078 165.396 28.5715C165.141 28.6078 164.959 28.7531 164.849 29.0074C164.74 29.2254 164.649 29.5342 164.576 29.9338Z" stroke="#A76C47" stroke-width="0.8"/>
<path d="M127.168 22.7409C127.314 22.8862 127.515 22.9225 127.77 22.8499C127.879 22.9225 128.189 22.8862 128.7 22.7409C129.21 22.5956 129.793 22.4139 130.45 22.196C131.142 21.978 131.616 21.8327 131.872 21.76C132.017 21.7237 132.109 21.7237 132.145 21.76C132.218 21.7964 132.254 21.8872 132.254 22.0325C132.254 22.2868 132.109 22.6137 131.817 23.0133C131.562 23.3766 131.179 23.8307 130.668 24.3756C130.194 24.8842 129.939 25.1748 129.903 25.2475C129.356 26.1194 128.189 27.4453 126.403 29.2254C125.856 29.734 125.528 30.0791 125.418 30.2607C125.309 30.4423 125.254 30.6785 125.254 30.9691C125.254 31.6593 125.491 32.0044 125.965 32.0044C126.22 32.0044 126.567 31.7865 127.004 31.3505C127.478 30.8783 127.97 30.3515 128.481 29.7703C128.991 29.189 129.356 28.8076 129.575 28.626C129.83 28.408 130.304 27.8631 130.996 26.9912C131.726 26.1194 132.181 25.6108 132.364 25.4655C132.655 25.1748 132.838 25.1022 132.911 25.2475C132.984 25.6108 132.984 26.192 132.911 26.9912C132.838 27.7541 132.819 28.3353 132.856 28.7349C132.892 29.5705 132.801 30.1881 132.582 30.5877C132.4 30.9873 132.291 31.3142 132.254 31.5685C132.254 31.8955 132.2 32.3314 132.09 32.8763C131.908 33.4575 131.926 33.9298 132.145 34.2931C132.4 34.6564 132.728 34.8017 133.129 34.729C133.53 34.62 133.84 34.3112 134.059 33.8027C134.241 33.4757 134.369 33.0034 134.442 32.3859C134.551 31.7683 134.697 30.3152 134.879 28.0266C134.916 27.0457 134.971 26.3736 135.044 26.0104C135.116 25.6471 135.189 25.4473 135.262 25.411C135.335 25.3383 135.536 25.411 135.864 25.6289C136.228 25.8469 136.52 25.9922 136.739 26.0649C136.958 26.0649 137.432 26.3373 138.161 26.8822C138.89 27.3908 139.437 27.8449 139.801 28.2445C140.239 28.7168 140.585 29.0074 140.841 29.1164C141.132 29.189 141.406 29.0801 141.661 28.7894C142.098 28.3172 142.19 27.8449 141.934 27.3727C141.716 26.8641 141.114 26.2283 140.13 25.4655C139.145 24.7026 138.617 24.3211 138.544 24.3211C138.507 24.3211 138.252 24.2122 137.778 23.9942C137.304 23.7762 136.83 23.5764 136.356 23.3948C135.919 23.2131 135.682 23.1586 135.645 23.2313C135.426 23.304 135.281 23.3221 135.208 23.2858C135.171 23.2131 135.135 23.086 135.098 22.9044C135.062 22.4684 135.062 22.087 135.098 21.76C135.171 21.3968 135.299 21.0516 135.481 20.7247C135.7 20.3977 135.864 20.1435 135.973 19.9618C136.119 19.7438 136.374 19.4896 136.739 19.1989C137.14 18.9083 137.413 18.7085 137.559 18.5995C137.705 18.4905 138.033 18.2726 138.544 17.9456C139.091 17.6187 139.419 17.4189 139.528 17.3462C140.622 16.8013 141.005 16.1837 140.676 15.4935C140.604 15.3482 140.512 15.2392 140.403 15.1666C140.294 15.0939 140.13 15.0576 139.911 15.0576C139.729 15.0576 139.564 15.0757 139.419 15.1121C139.309 15.1121 139.145 15.1484 138.926 15.2211C138.708 15.2574 138.58 15.2755 138.544 15.2755C138.471 15.2029 138.525 14.7125 138.708 13.8043C138.89 12.8598 139.072 12.1877 139.255 11.7881C139.473 11.2795 139.546 10.8617 139.473 10.5348C139.4 10.2078 139.2 10.008 138.872 9.93537C138.58 9.82639 138.27 9.91721 137.942 10.2078C137.614 10.4621 137.395 10.7527 137.286 11.0797C137.176 11.3703 137.067 12.0061 136.958 12.9869C136.812 14.0767 136.575 14.9304 136.247 15.548C135.7 16.5288 135.353 16.8558 135.208 16.5288C135.171 16.4199 135.098 15.5662 134.989 13.9677C134.916 12.333 134.879 11.116 134.879 10.3168C134.952 10.0988 134.879 9.82639 134.661 9.49944C134.442 9.13617 134.187 8.90004 133.895 8.79105C133.603 8.68207 133.366 8.7184 133.184 8.90004C133.002 9.08167 132.947 10.2442 133.02 12.3875C133.056 14.5308 133.02 15.6751 132.911 15.8205C132.838 15.9294 132.692 15.9658 132.473 15.9294C132.254 15.8931 131.707 15.766 130.832 15.548C129.556 15.1847 128.809 14.9849 128.59 14.9486C128.408 14.9123 128.226 14.9849 128.043 15.1666C127.715 15.5298 127.624 15.9839 127.77 16.5288C127.916 17.0738 128.262 17.3281 128.809 17.2917C129.246 17.3644 130.176 17.5823 131.598 17.9456C131.744 17.982 131.963 18.0183 132.254 18.0546C132.582 18.0909 132.819 18.1818 132.965 18.3271C133.038 18.3997 133.056 18.4905 133.02 18.5995C133.02 18.6722 132.965 18.763 132.856 18.872C132.747 18.9446 132.582 19.0355 132.364 19.1444C132.145 19.2171 131.89 19.3261 131.598 19.4714C131.015 19.762 130.322 19.9981 129.52 20.1798C128.754 20.3614 128.153 20.5612 127.715 20.7792C127.278 20.9972 126.949 21.3423 126.731 21.8145C126.804 22.0688 126.858 22.2505 126.895 22.3594C126.931 22.4684 127.022 22.5956 127.168 22.7409Z" stroke="#A76C47" stroke-width="0.8"/>
<path d="M112.183 12.6599C111.855 12.9142 111.764 13.1504 111.91 13.3683C111.983 14.0222 112.566 14.3855 113.66 14.4582C114.207 14.4945 114.553 14.5672 114.699 14.6761C114.881 14.7851 115.064 15.0939 115.246 15.6025C115.501 16.438 115.902 16.5652 116.449 15.9839C116.96 15.439 117.105 14.9123 116.887 14.4037C116.704 13.8588 116.413 13.4047 116.012 13.0414C115.611 12.6418 115.155 12.333 114.644 12.115C114.316 12.0061 113.915 12.0061 113.441 12.115C112.967 12.1877 112.548 12.3693 112.183 12.6599Z" stroke="#A76C47" stroke-width="0.8"/>
<path d="M114.426 26.5008C114.717 26.0285 114.918 25.6471 115.027 25.3565C115.939 24.0123 116.467 22.868 116.613 21.9235C116.686 21.5966 116.54 21.2514 116.176 20.8882C115.957 20.7065 115.756 20.5794 115.574 20.5067C115.428 20.4341 115.282 20.4159 115.137 20.4522C115.027 20.4522 114.808 20.4704 114.48 20.5067H113.605C113.022 20.5431 112.639 20.5794 112.457 20.6157C112.311 20.652 112.165 20.761 112.019 20.9427C111.691 21.4876 111.655 21.9235 111.91 22.2505C112.165 22.5774 112.621 22.7046 113.277 22.6319H114.262C114.262 22.8135 114.243 22.977 114.207 23.1223C114.207 23.2313 114.189 23.3403 114.152 23.4493C114.152 23.5219 114.116 23.6127 114.043 23.7217C113.97 23.8307 113.915 23.9397 113.879 24.0487C113.842 24.1213 113.733 24.2666 113.551 24.4846C113.405 24.7026 113.277 24.8842 113.168 25.0295C112.949 25.3565 112.748 25.7379 112.566 26.1738C112.384 26.5734 112.165 26.9549 111.91 27.3182C111.472 28.0447 111.254 28.5896 111.254 28.9529C111.254 29.3162 111.472 29.6795 111.91 30.0427C112.493 30.4787 112.694 30.9328 112.512 31.405C112.366 31.8773 111.728 32.6765 110.597 33.8027C109.577 34.8198 108.884 35.3829 108.519 35.4919C108.337 35.6009 107.954 35.7644 107.371 35.9823C106.787 36.2003 106.277 36.4364 105.839 36.6907C105.438 36.9087 105.201 37.163 105.128 37.4536C105.019 37.7805 105.074 38.0893 105.293 38.3799C105.511 38.6706 105.803 38.8159 106.168 38.8159C106.35 38.8159 106.97 38.6342 108.027 38.271L109.613 37.726L111.91 37.7805C113.04 37.7442 114.17 37.7987 115.301 37.944C116.431 38.053 117.342 38.1801 118.035 38.3255C118.728 38.4344 119.712 38.6342 120.988 38.9249C122.264 39.2155 123.194 39.4153 123.778 39.5243C125.564 39.8875 128.207 40.1055 131.707 40.1782C135.244 40.2508 138.106 40.16 140.294 39.9057C142.262 39.6151 145.799 39.2518 150.903 38.8159C151.888 38.7432 152.617 38.6524 153.091 38.5434C153.565 38.3981 153.984 38.1438 154.349 37.7805C154.786 37.3446 154.896 36.8542 154.677 36.3093C154.604 36.1276 154.458 36.0186 154.239 35.9823C154.021 35.9097 153.838 35.9278 153.693 36.0368C153.182 36.4727 151.706 36.7634 149.263 36.9087C146.856 37.0177 145.507 37.1266 145.216 37.2356C144.231 37.5626 141.132 37.8169 135.919 37.9985C130.741 38.1801 127.679 38.1438 126.731 37.8895C126.621 37.8169 126.239 37.7442 125.582 37.6716C124.16 37.4899 121.973 37.1085 119.02 36.5272C116.103 35.9097 113.842 35.5282 112.238 35.3829C112.129 35.3103 112.475 34.6927 113.277 33.5302C114.043 32.4767 114.48 31.6593 114.59 31.0781C114.736 30.4968 114.608 29.8611 114.207 29.1709C113.952 28.8439 113.806 28.5351 113.769 28.2445C113.769 27.9176 113.806 27.6633 113.879 27.4816C113.952 27.2637 114.134 26.9367 114.426 26.5008Z" stroke="#A76C47" stroke-width="0.8"/>
<path fill-rule="evenodd" clip-rule="evenodd" d="M22.4382 35.056C23.3497 34.8017 23.8966 33.4757 24.0789 31.0781C24.1518 30.2062 24.243 28.6441 24.3523 26.3918C24.4982 24.1395 24.6076 22.5592 24.6805 21.651C24.7169 21.4694 24.7716 20.8882 24.8445 19.9073C24.9175 18.8901 25.0086 18.0001 25.118 17.2372C25.2638 16.438 25.4097 16.0566 25.5555 16.0929C25.7013 16.0929 26.0477 16.2382 26.5946 16.5288C27.1415 16.8195 27.4696 17.0193 27.579 17.1283C27.7613 17.3462 27.6337 18.3452 27.1962 20.1253C26.9045 21.4331 26.23 23.2131 25.1727 25.4655C24.8445 25.9377 24.7352 26.3736 24.8445 26.7733C24.9904 27.1729 25.3003 27.4271 25.7743 27.5361C26.5764 27.5361 27.5608 26.9731 28.7275 25.8469C30.3317 24.2848 31.2979 23.4856 31.626 23.4493C31.7354 23.4493 31.7901 23.5219 31.7901 23.6672C31.7901 23.8852 31.4802 24.6662 30.8604 26.0104C30.277 27.3545 29.9124 28.081 29.7666 28.19C29.7301 28.1537 29.5114 28.0447 29.1103 27.8631C28.7093 27.6814 28.3993 27.5543 28.1806 27.4816C27.9618 27.409 27.7431 27.409 27.5243 27.4816C27.3785 27.5906 27.2326 27.7723 27.0868 28.0266C26.941 28.2808 26.868 28.4625 26.868 28.5715C26.8316 28.6805 27.0868 28.9892 27.6337 29.4978C28.1806 30.0064 28.454 30.297 28.454 30.3697C28.3447 30.9509 27.8342 31.7865 26.9227 32.8763C26.0112 33.9298 25.2638 34.4202 24.6805 34.3476C24.243 34.3839 24.006 34.511 23.9695 34.729C23.8237 35.1649 24.0971 35.4919 24.7899 35.7099C25.4826 35.8915 26.0112 35.837 26.3758 35.5464C27.3602 34.9288 28.29 34.0206 29.165 32.8218C29.8577 31.8046 30.3317 31.296 30.5869 31.296C31.6442 31.9136 33.3396 32.8581 35.673 34.1296C38.0429 35.3647 39.7565 36.2911 40.8138 36.9087C41.2149 37.1266 42.2722 37.6897 43.9858 38.5979C45.7359 39.5061 47.0119 40.2145 47.8141 40.7231C47.9963 40.7594 48.3063 41.0137 48.7438 41.486C49.2177 41.9219 49.6735 42.2852 50.111 42.5758C50.585 42.8664 50.9496 42.8664 51.2048 42.5758C51.7881 42.2852 52.0616 41.8674 52.0251 41.3225C51.9887 40.7776 51.6605 40.4143 51.0407 40.2327C50.7855 40.16 50.4574 39.9784 50.0563 39.6877C48.8531 38.8522 47.5771 38.1257 46.2281 37.5081C44.8791 36.8542 43.8582 36.3274 43.1655 35.9278C42.0352 35.2376 40.1211 34.1841 37.4231 32.7673C34.7615 31.3142 32.8474 30.2244 31.6807 29.4978C31.5713 29.3888 31.5713 29.1527 31.6807 28.7894C31.8265 28.4262 32.2276 27.5725 32.8839 26.2283C33.8318 24.2303 34.2876 22.6864 34.2511 21.5966C34.2511 20.5794 33.7954 20.1435 32.8839 20.2888C32.5557 20.3251 31.7354 20.87 30.4228 21.9235C29.1468 22.9407 28.4176 23.4311 28.2353 23.3948C28.1988 23.2858 28.3811 22.5411 28.7822 21.1606C29.1832 19.7802 29.3838 19.0355 29.3838 18.9265C29.4931 18.2362 29.6025 17.8185 29.7119 17.6732C29.8577 17.4915 30.1676 17.3281 30.6416 17.1827C31.1885 17.0011 31.7536 16.6197 32.337 16.0384C33.212 15.1302 33.9412 13.8406 34.5245 12.1695C34.8162 11.2977 34.9621 10.6619 34.9621 10.2623C34.9985 9.86272 34.8709 9.51761 34.5792 9.22698C34.3605 9.00902 34.16 8.88187 33.9777 8.84554C33.8318 8.80922 33.5766 8.86371 33.212 9.00902L32.3917 9.39046C31.8448 9.64475 31.2979 9.86272 30.751 10.0444C30.2406 10.1897 29.9853 10.1897 29.9853 10.0444C29.7666 9.75374 29.6937 8.9182 29.7666 7.53775C29.9124 7.10182 29.7119 6.72037 29.165 6.39343C28.6181 6.06648 28.217 6.12097 27.9618 6.5569C27.7795 6.81119 27.7248 7.70122 27.7978 9.22698L27.9071 11.5156L27.2509 11.8971C26.704 12.224 26.3394 12.3875 26.1571 12.3875C26.0112 12.3875 25.8654 12.2422 25.7196 11.9516C25.5373 11.5156 25.2821 11.2977 24.9539 11.2977C24.6258 11.2613 24.3159 11.4248 24.0242 11.7881C23.7325 12.1514 23.532 12.6236 23.4226 13.2049C23.4226 13.3865 23.3315 13.6045 23.1492 13.8588C22.9669 14.1131 22.7846 14.3492 22.6023 14.5672C22.4564 14.7488 22.3653 14.9849 22.3288 15.2755C22.3288 15.5298 22.4747 15.7478 22.7663 15.9294L23.2039 16.3654L23.1492 17.7822C23.0763 18.5814 22.9486 19.6712 22.7663 21.0516C22.6205 21.7419 22.5294 22.9952 22.4929 24.8116C22.4564 26.5916 22.3835 27.7904 22.2741 28.408C22.2012 28.7349 22.1283 29.298 22.0554 30.0972C21.9825 30.8964 21.8913 31.6048 21.7819 32.2224C21.709 32.84 21.5996 33.2396 21.4538 33.4212C21.235 33.5665 21.2533 33.8753 21.5085 34.3476C21.8002 34.8198 22.1101 35.056 22.4382 35.056ZM31.626 13.9677C30.9333 14.9486 30.4411 15.4027 30.1494 15.33C30.0036 15.2574 29.9124 14.9123 29.876 14.2947C29.876 13.6408 29.9489 13.1685 30.0947 12.8779C30.2041 12.6963 30.5687 12.442 31.1885 12.115C31.8083 11.7518 32.1729 11.5883 32.2823 11.6246C32.5375 12.1695 32.3187 12.9506 31.626 13.9677ZM27.7978 14.1857C28.053 14.549 28.053 14.9668 27.7978 15.439C27.6884 15.5117 27.4879 15.4753 27.1962 15.33C26.5399 15.0031 26.5034 14.6943 27.0868 14.4037C27.4149 14.0041 27.6519 13.9314 27.7978 14.1857Z" stroke="#A76C47" stroke-width="0.8"/>
<path fill-rule="evenodd" clip-rule="evenodd" d="M12.977 13.8043C12.5394 13.6953 12.1384 13.7861 11.7738 14.0767C8.27368 16.0384 4.99232 17.6005 1.92972 18.763L1.71096 19.0355C1.56512 19.1808 1.43751 19.3261 1.32814 19.4714C1.25522 19.5804 1.16407 19.7257 1.05469 19.9073C0.98177 20.0526 0.98177 20.1979 1.05469 20.3433C1.12761 20.4522 1.27345 20.5249 1.4922 20.5612C2.51307 20.6702 4.09906 20.1979 6.25017 19.1444C8.40129 18.0546 9.73206 17.4734 10.2425 17.4007C9.6956 18.5632 8.80234 20.5975 7.56272 23.5038C6.35955 26.3736 5.33869 28.4988 4.50012 29.8793C4.2449 30.3515 4.02614 30.7148 3.84384 30.9691C3.69801 31.1871 3.51571 31.4232 3.29695 31.6775C3.07819 31.9318 2.87767 32.2042 2.69537 32.4949C2.25785 33.0034 2.14848 33.4757 2.36723 33.9116C2.62245 34.3112 3.00527 34.4021 3.51571 34.1841C3.84384 34.0388 4.40897 33.3486 5.21108 32.1134C6.04965 30.842 6.68769 29.734 7.1252 28.7894C7.81793 27.3363 8.27368 26.6461 8.49244 26.7188C8.74765 26.7551 8.87526 27.6088 8.87526 29.2799C8.87526 30.9146 8.74765 32.1134 8.49244 32.8763C8.31014 33.4575 8.09138 34.2749 7.83616 35.3284C7.61741 36.3456 7.50803 36.945 7.50803 37.1266C7.50803 37.4173 7.58095 37.6534 7.72679 37.835C7.90908 38.0167 8.14607 38.1075 8.43775 38.1075C8.69296 38.2165 9.0211 38.0167 9.42215 37.5081C9.85967 36.9995 10.1878 36.7452 10.4066 36.7452C11.6462 36.4546 12.9223 35.5464 14.2348 34.0206C15.5474 32.4949 16.2036 31.1507 16.2036 29.9883C16.2036 28.7531 15.7843 27.8994 14.9458 27.4271C14.1072 26.9549 13.1593 27.0639 12.1019 27.7541C11.555 28.1174 11.2087 28.2627 11.0628 28.19C10.9899 28.1537 10.8805 27.6633 10.7347 26.7188C10.6253 25.7379 10.5706 24.9387 10.5706 24.3211C10.5706 24.1032 10.4248 23.7762 10.1331 23.3403C9.8779 22.9044 9.89613 22.5229 10.1878 22.196C10.3701 21.4331 10.9717 20.1435 11.9926 18.3271C13.0134 16.4744 13.5968 15.2211 13.7426 14.5672C13.7062 14.1675 13.4509 13.9133 12.977 13.8043ZM14.1801 29.9883C14.2166 30.4242 14.1801 30.7693 14.0707 31.0236C13.9249 31.4958 13.378 32.2587 12.4301 33.3122C11.4821 34.3294 10.8805 34.8017 10.6253 34.729C10.4066 34.6564 10.443 34.0569 10.7347 32.9308C11.0264 31.7683 11.3545 30.9873 11.7191 30.5877C11.9743 30.2607 12.3207 29.9701 12.7582 29.7158C13.1957 29.4252 13.5239 29.2799 13.7426 29.2799C13.9978 29.2799 14.1437 29.516 14.1801 29.9883Z" stroke="#A76C47" stroke-width="0.8"/>
</svg>
