<svg width="627" height="687" viewBox="0 0 627 687" fill="none" xmlns="http://www.w3.org/2000/svg">
<path d="M412.311 15.465L431.913 26.3942C422.594 53.0741 411.347 84.8972 401.064 109.649C422.915 135.364 428.057 158.508 428.057 177.795C428.057 196.439 423.879 209.939 414.882 217.011C410.062 220.226 404.278 222.154 397.208 223.44C391.424 224.083 383.07 224.083 375.357 223.762C375.036 216.69 373.108 205.118 368.931 197.725C375.357 198.689 381.142 198.689 385.962 198.367C389.818 198.046 393.031 197.403 395.28 195.153C400.1 192.26 401.707 184.224 401.707 174.58C401.707 158.187 396.887 136.65 375.357 112.542C383.391 91.969 391.746 64.6462 397.851 43.4308H363.789V298.015H337.761V16.4294H408.134L412.311 15.465Z" fill="white" fill-opacity="0.5"/>
<path d="M462.44 201.903L488.789 209.297C476.579 235.012 458.262 262.335 441.874 279.693C436.733 275.514 426.129 267.478 419.702 263.621C436.09 247.87 452.478 224.083 462.44 201.903Z" fill="white" fill-opacity="0.5"/>
<path fill-rule="evenodd" clip-rule="evenodd" d="M617.967 187.76H542.453V266.192C542.453 280.979 539.56 288.694 529.278 293.194C519.638 297.694 504.213 298.337 482.363 298.337C480.756 290.622 475.936 278.729 472.401 271.014C488.468 271.657 502.928 271.657 507.748 271.657C512.247 271.336 513.854 270.05 513.854 265.871V187.76H433.519V160.437H513.854V126.685H460.833V104.827C458.798 106.113 456.763 107.434 454.728 108.756C450.657 111.399 446.587 114.042 442.517 116.399C438.018 109.327 429.985 100.327 422.594 94.5406C462.118 74.611 501.643 38.9306 522.53 1L547.915 10.6434C545.666 14.8222 543.095 19.001 540.524 23.1797C568.802 55.9672 598.365 75.5753 626 90.3618C618.931 95.8264 610.255 106.113 606.077 113.827L606.075 113.826C599.971 109.969 593.866 106.112 587.761 101.934V126.685H542.453V160.437H617.967V187.76ZM466.617 100.648H586.154C566.231 86.5045 546.63 68.825 525.422 44.0737C508.391 65.2891 488.468 84.8972 466.617 100.648Z" fill="white" fill-opacity="0.5"/>
<path d="M556.591 210.904L579.406 199.332C596.437 218.94 615.075 245.941 624.072 263.621L600.293 277.443C591.938 259.121 572.979 230.833 556.591 210.904Z" fill="white" fill-opacity="0.5"/>
<path d="M286.346 413.093L257.104 402.485C250.035 421.772 236.86 449.738 226.256 466.774L249.392 476.739C260.639 460.345 274.456 434.951 286.346 413.093Z" fill="white" fill-opacity="0.5"/>
<path d="M134.032 477.382L160.703 465.81C153.955 449.738 138.852 423.379 126.963 404.092L101.899 414.379C113.467 434.308 127.606 461.31 134.032 477.382Z" fill="white" fill-opacity="0.5"/>
<path d="M176.127 516.92V638.105H205.69V516.92H293.094V489.597H205.69V394.128H176.127V489.597H91.6159V516.92H176.127Z" fill="white" fill-opacity="0.5"/>
<path d="M238.467 522.706L217.258 536.849C237.181 561.922 261.924 596.96 273.492 618.175L295.986 601.46C284.418 580.887 258.711 547.135 238.467 522.706Z" fill="white" fill-opacity="0.5"/>
<path d="M162.31 532.671L137.888 523.992C125.356 550.671 102.541 580.566 81.9758 596.96C89.0452 602.424 98.3639 612.389 103.505 619.461C124.392 599.531 148.492 564.494 162.31 532.671Z" fill="white" fill-opacity="0.5"/>
<path d="M40.8447 451.988L69.765 442.344C66.0933 431.063 60.0672 414.643 54.6563 399.9C53.4375 396.579 52.2499 393.343 51.1274 390.27L23.8138 398.306C26.0452 405.7 28.8212 414.123 31.5641 422.446C35.1413 433.3 38.6621 443.982 40.8447 451.988Z" fill="white" fill-opacity="0.5"/>
<path d="M88.4025 540.707L74.585 535.564L70.4076 536.849H53.3768C61.7316 514.67 71.0503 488.311 78.4411 465.488H7.10435V492.49H39.5593C31.2046 517.563 21.5645 543.6 13.5311 562.565H55.3048C50.1634 584.423 42.4514 607.567 34.0966 624.925C24.1352 631.354 12.5671 643.891 1.64162 658.356L21.8858 686C30.5619 666.392 41.8087 645.498 48.8781 645.498C53.3136 645.498 59.52 649.927 66.7038 655.053C70.9696 658.097 75.5801 661.387 80.3691 664.142C103.827 677.642 131.462 681.178 173.557 681.178C211.153 681.178 269.958 679.25 294.701 677.642C295.343 669.606 300.163 654.82 303.698 646.784C268.03 651.284 213.724 654.177 174.842 654.177C136.924 654.177 107.683 652.248 85.5105 638.747C80.4365 635.671 76.2454 632.816 72.5851 630.322C68.5957 627.604 65.2369 625.316 62.0529 623.64C73.621 599.531 82.2971 569.315 88.4025 540.707Z" fill="white" fill-opacity="0.5"/>
<path fill-rule="evenodd" clip-rule="evenodd" d="M584.871 550.029V403.45H359.293V550.029H584.871ZM555.308 429.487V464.203H486.863V429.487H555.308ZM555.308 488.633V523.992H486.863V488.633H555.308ZM387.57 523.992V488.633H457.943V523.992H387.57ZM387.57 464.203V429.487H457.943V464.203H387.57Z" fill="white" fill-opacity="0.5"/>
<path d="M500.038 617.211L521.246 596.638C506.786 582.495 478.509 563.851 455.051 552.279L435.45 570.923C458.907 583.459 486.863 603.067 500.038 617.211Z" fill="white" fill-opacity="0.5"/>
<path d="M328.123 652.57L354.794 667.356C370.218 646.141 381.465 613.353 389.177 587.316L362.506 577.352C355.437 603.067 343.547 633.283 328.123 652.57Z" fill="white" fill-opacity="0.5"/>
<path d="M509.678 650.963H455.051C438.342 650.963 435.128 649.355 435.128 640.355V581.852H404.923V640.355C404.923 669.606 414.563 677.964 452.159 677.964H511.928C543.097 677.964 552.095 667.356 555.951 622.997C547.917 621.068 535.064 616.568 528.637 611.746C526.709 645.819 524.46 650.963 509.678 650.963Z" fill="white" fill-opacity="0.5"/>
<path d="M575.231 574.459L548.56 585.709C566.233 610.46 583.907 643.248 590.012 664.785L618.933 652.57C612.185 630.39 593.226 598.567 575.231 574.459Z" fill="white" fill-opacity="0.5"/>
<path fill-rule="evenodd" clip-rule="evenodd" d="M54.0205 259.12H110.254V117.684H55.3059C63.018 95.1833 69.766 71.0749 74.5861 46.645H117.324V19.6436H8.39074V46.645H45.6658C36.9897 92.2903 22.5295 135.042 1 163.651C5.17737 171.687 11.2828 189.688 12.8895 197.403C18.3522 190.653 23.4936 183.581 28.3136 175.545V283.872H54.0205V259.12ZM84.2262 144.043V232.762H54.0205V144.043H84.2262Z" fill="white" fill-opacity="0.5"/>
<path fill-rule="evenodd" clip-rule="evenodd" d="M285.383 133.114L268.031 126.685L262.889 127.649H222.722V77.8252H262.568C259.676 91.3259 256.141 105.148 252.928 114.791L276.385 120.256C282.491 103.862 289.56 77.5038 294.059 55.0026L275.421 50.5024L270.923 51.4667H222.722V3.89276H196.051V51.4667H132.105V135.043C132.105 179.402 129.213 240.477 101.257 283.55C107.362 286.122 118.931 293.836 123.429 298.337C147.529 261.692 154.92 209.939 157.17 166.223C167.774 193.224 181.912 217.333 199.265 237.905C181.591 254.299 161.668 267.157 140.46 275.193C146.244 280.657 153.314 291.265 156.527 298.015C178.699 288.05 199.265 274.55 217.259 257.513C235.576 274.55 256.463 288.372 280.241 298.337C284.419 290.622 293.095 279.693 299.2 273.907C275.421 265.871 254.213 253.013 236.218 237.262C258.712 209.618 275.743 175.545 285.383 133.114ZM157.812 77.8252H196.051V127.649H157.812V77.8252ZM179.02 153.365H252.285C244.252 177.795 232.041 199.653 217.259 218.297C201.193 199.332 188.018 177.152 179.02 153.365Z" fill="white" fill-opacity="0.5"/>
<path d="M412.311 15.465L431.913 26.3942C422.594 53.0741 411.347 84.8972 401.064 109.649C422.915 135.364 428.057 158.508 428.057 177.795C428.057 196.439 423.879 209.939 414.882 217.011C410.062 220.226 404.278 222.154 397.208 223.44C391.424 224.083 383.07 224.083 375.357 223.762C375.036 216.69 373.108 205.118 368.931 197.725C375.357 198.689 381.142 198.689 385.962 198.367C389.818 198.046 393.031 197.403 395.28 195.153C400.1 192.26 401.707 184.224 401.707 174.58C401.707 158.187 396.887 136.65 375.357 112.542C383.391 91.969 391.746 64.6462 397.851 43.4308H363.789V298.015H337.761V16.4294H408.134L412.311 15.465Z" stroke="#A86C43"/>
<path d="M462.44 201.903L488.789 209.297C476.579 235.012 458.262 262.335 441.874 279.693C436.733 275.514 426.129 267.478 419.702 263.621C436.09 247.87 452.478 224.083 462.44 201.903Z" stroke="#A86C43"/>
<path fill-rule="evenodd" clip-rule="evenodd" d="M617.967 187.76H542.453V266.192C542.453 280.979 539.56 288.694 529.278 293.194C519.638 297.694 504.213 298.337 482.363 298.337C480.756 290.622 475.936 278.729 472.401 271.014C488.468 271.657 502.928 271.657 507.748 271.657C512.247 271.336 513.854 270.05 513.854 265.871V187.76H433.519V160.437H513.854V126.685H460.833V104.827C458.798 106.113 456.763 107.434 454.728 108.756C450.657 111.399 446.587 114.042 442.517 116.399C438.018 109.327 429.985 100.327 422.594 94.5406C462.118 74.611 501.643 38.9306 522.53 1L547.915 10.6434C545.666 14.8222 543.095 19.001 540.524 23.1797C568.802 55.9672 598.365 75.5753 626 90.3618C618.931 95.8264 610.255 106.113 606.077 113.827L606.075 113.826C599.971 109.969 593.866 106.112 587.761 101.934V126.685H542.453V160.437H617.967V187.76ZM466.617 100.648H586.154C566.231 86.5045 546.63 68.825 525.422 44.0737C508.391 65.2891 488.468 84.8972 466.617 100.648Z" stroke="#A86C43"/>
<path d="M556.591 210.904L579.406 199.332C596.437 218.94 615.075 245.941 624.072 263.621L600.293 277.443C591.938 259.121 572.979 230.833 556.591 210.904Z" stroke="#A86C43"/>
<path d="M286.346 413.093L257.104 402.485C250.035 421.772 236.86 449.738 226.256 466.774L249.392 476.739C260.639 460.345 274.456 434.951 286.346 413.093Z" stroke="#A86C43"/>
<path d="M134.032 477.382L160.703 465.81C153.955 449.738 138.852 423.379 126.963 404.092L101.899 414.379C113.467 434.308 127.606 461.31 134.032 477.382Z" stroke="#A86C43"/>
<path d="M176.127 516.92V638.105H205.69V516.92H293.094V489.597H205.69V394.128H176.127V489.597H91.6159V516.92H176.127Z" stroke="#A86C43"/>
<path d="M238.467 522.706L217.258 536.849C237.181 561.922 261.924 596.96 273.492 618.175L295.986 601.46C284.418 580.887 258.711 547.135 238.467 522.706Z" stroke="#A86C43"/>
<path d="M162.31 532.671L137.888 523.992C125.356 550.671 102.541 580.566 81.9758 596.96C89.0452 602.424 98.3639 612.389 103.505 619.461C124.392 599.531 148.492 564.494 162.31 532.671Z" stroke="#A86C43"/>
<path d="M40.8447 451.988L69.765 442.344C66.0933 431.063 60.0672 414.643 54.6563 399.9C53.4375 396.579 52.2499 393.343 51.1274 390.27L23.8138 398.306C26.0452 405.7 28.8212 414.123 31.5641 422.446C35.1413 433.3 38.6621 443.982 40.8447 451.988Z" stroke="#A86C43"/>
<path d="M88.4025 540.707L74.585 535.564L70.4076 536.849H53.3768C61.7316 514.67 71.0503 488.311 78.4411 465.488H7.10435V492.49H39.5593C31.2046 517.563 21.5645 543.6 13.5311 562.565H55.3048C50.1634 584.423 42.4514 607.567 34.0966 624.925C24.1352 631.354 12.5671 643.891 1.64162 658.356L21.8858 686C30.5619 666.392 41.8087 645.498 48.8781 645.498C53.3136 645.498 59.52 649.927 66.7038 655.053C70.9696 658.097 75.5801 661.387 80.3691 664.142C103.827 677.642 131.462 681.178 173.557 681.178C211.153 681.178 269.958 679.25 294.701 677.642C295.343 669.606 300.163 654.82 303.698 646.784C268.03 651.284 213.724 654.177 174.842 654.177C136.924 654.177 107.683 652.248 85.5105 638.747C80.4365 635.671 76.2454 632.816 72.5851 630.322C68.5957 627.604 65.2369 625.316 62.0529 623.64C73.621 599.531 82.2971 569.315 88.4025 540.707Z" stroke="#A86C43"/>
<path fill-rule="evenodd" clip-rule="evenodd" d="M584.871 550.029V403.45H359.293V550.029H584.871ZM555.308 429.487V464.203H486.863V429.487H555.308ZM555.308 488.633V523.992H486.863V488.633H555.308ZM387.57 523.992V488.633H457.943V523.992H387.57ZM387.57 464.203V429.487H457.943V464.203H387.57Z" stroke="#A86C43"/>
<path d="M500.038 617.211L521.246 596.638C506.786 582.495 478.509 563.851 455.051 552.279L435.45 570.923C458.907 583.459 486.863 603.067 500.038 617.211Z" stroke="#A86C43"/>
<path d="M328.123 652.57L354.794 667.356C370.218 646.141 381.465 613.353 389.177 587.316L362.506 577.352C355.437 603.067 343.547 633.283 328.123 652.57Z" stroke="#A86C43"/>
<path d="M509.678 650.963H455.051C438.342 650.963 435.128 649.355 435.128 640.355V581.852H404.923V640.355C404.923 669.606 414.563 677.964 452.159 677.964H511.928C543.097 677.964 552.095 667.356 555.951 622.997C547.917 621.068 535.064 616.568 528.637 611.746C526.709 645.819 524.46 650.963 509.678 650.963Z" stroke="#A86C43"/>
<path d="M575.231 574.459L548.56 585.709C566.233 610.46 583.907 643.248 590.012 664.785L618.933 652.57C612.185 630.39 593.226 598.567 575.231 574.459Z" stroke="#A86C43"/>
<path fill-rule="evenodd" clip-rule="evenodd" d="M54.0205 259.12H110.254V117.684H55.3059C63.018 95.1833 69.766 71.0749 74.5861 46.645H117.324V19.6436H8.39074V46.645H45.6658C36.9897 92.2903 22.5295 135.042 1 163.651C5.17737 171.687 11.2828 189.688 12.8895 197.403C18.3522 190.653 23.4936 183.581 28.3136 175.545V283.872H54.0205V259.12ZM84.2262 144.043V232.762H54.0205V144.043H84.2262Z" stroke="#A86C43"/>
<path fill-rule="evenodd" clip-rule="evenodd" d="M285.383 133.114L268.031 126.685L262.889 127.649H222.722V77.8252H262.568C259.676 91.3259 256.141 105.148 252.928 114.791L276.385 120.256C282.491 103.862 289.56 77.5038 294.059 55.0026L275.421 50.5024L270.923 51.4667H222.722V3.89276H196.051V51.4667H132.105V135.043C132.105 179.402 129.213 240.477 101.257 283.55C107.362 286.122 118.931 293.836 123.429 298.337C147.529 261.692 154.92 209.939 157.17 166.223C167.774 193.224 181.912 217.333 199.265 237.905C181.591 254.299 161.668 267.157 140.46 275.193C146.244 280.657 153.314 291.265 156.527 298.015C178.699 288.05 199.265 274.55 217.259 257.513C235.576 274.55 256.463 288.372 280.241 298.337C284.419 290.622 293.095 279.693 299.2 273.907C275.421 265.871 254.213 253.013 236.218 237.262C258.712 209.618 275.743 175.545 285.383 133.114ZM157.812 77.8252H196.051V127.649H157.812V77.8252ZM179.02 153.365H252.285C244.252 177.795 232.041 199.653 217.259 218.297C201.193 199.332 188.018 177.152 179.02 153.365Z" stroke="#A86C43"/>
</svg>
