<svg width="623" height="687" viewBox="0 0 623 687" fill="none" xmlns="http://www.w3.org/2000/svg">
<path fill-rule="evenodd" clip-rule="evenodd" d="M592.995 75.187V262.59C592.995 280.33 588.479 289.039 575.252 293.877C562.024 298.393 541.055 298.716 508.471 298.716C507.18 290.652 501.373 277.75 497.179 269.686C521.375 270.976 546.862 270.653 554.282 270.331C561.057 270.331 563.315 268.396 563.315 262.267V228.722H392.007C383.942 255.171 369.102 280.653 343.293 300.006C339.099 293.877 328.453 282.91 322.323 278.395C368.134 244.849 372.651 196.467 372.651 156.47V103.572C365.876 109.7 358.456 115.506 350.713 120.989C346.196 114.216 336.195 104.217 329.098 99.7009C371.36 71.3163 400.718 32.9327 416.203 1L448.465 7.12849C446.814 10.4293 444.991 13.5577 443.121 16.7658C442.433 17.9466 441.739 19.1382 441.045 20.3531H512.019L517.181 19.0629L537.506 32.6101C530.408 46.1573 520.085 61.6398 509.761 75.187H592.995ZM494.598 202.272H563.315V164.211H494.598V202.272ZM465.886 164.211H401.686C401.363 176.146 400.395 189.048 398.137 202.272H465.886V164.211ZM495.889 45.5122H424.591C417.816 55.5113 409.751 65.5104 401.363 75.187H476.532C483.307 66.1555 490.082 55.5113 495.889 45.5122ZM401.686 101.959V138.407H465.886V101.959H401.686ZM563.315 138.407V101.959H494.598V138.407H563.315Z" fill="white" fill-opacity="0.5"/>
<path d="M529.088 528.272H584.577C596.191 528.272 608.45 527.95 614.58 526.014C613.289 519.563 612.322 508.274 611.676 500.533C604.902 501.823 591.997 502.468 583.932 502.468H529.733C519.409 502.468 517.151 498.275 517.151 486.663V456.988H600.385V431.184H517.151V389.575H487.47V486.018C487.47 516.983 496.181 528.272 529.088 528.272Z" fill="white" fill-opacity="0.5"/>
<path fill-rule="evenodd" clip-rule="evenodd" d="M461.016 655.035V503.113H344.875V578.913C344.875 606.33 343.262 640.843 325.196 665.357C331.003 669.227 342.295 680.194 346.166 686C359.07 669.227 365.523 647.294 369.071 625.683L377.459 646.971C394.235 636.65 413.269 624.715 432.626 612.136V655.035C432.626 658.906 431.336 660.196 427.142 660.196C422.948 660.518 409.721 660.518 396.171 659.873C400.042 666.324 404.236 676.969 405.527 683.742C425.529 683.742 439.724 683.42 449.079 679.549C458.113 675.356 461.016 668.582 461.016 655.035ZM372.62 556.979V528.272H432.626V573.752C421.657 565.043 402.623 551.818 388.106 542.787L372.62 556.979ZM372.62 556.979C387.783 567.301 408.108 582.138 418.431 591.492L432.626 577.3V589.234C427.912 591.591 423.223 593.948 418.605 596.27L418.6 596.273L418.594 596.276C400.463 605.391 383.407 613.965 370.039 619.877C371.975 605.685 372.62 591.815 372.62 579.235V556.979Z" fill="white" fill-opacity="0.5"/>
<path d="M441.337 412.476L417.141 421.507C421.339 428.174 425.727 435.787 430.159 443.476C431.516 445.831 432.878 448.193 434.239 450.537L376.492 454.73C391.332 438.28 406.817 418.282 419.399 398.284L388.751 389.252C375.846 414.734 355.199 440.215 349.069 446.989C342.617 453.763 337.133 458.601 331.971 459.891C335.197 467.31 339.714 481.18 341.327 487.308C349.715 484.082 361.974 482.147 446.499 474.406C450.693 482.147 453.919 489.566 455.854 495.372L481.663 484.405C473.921 465.374 456.177 435.055 441.337 412.476Z" fill="white" fill-opacity="0.5"/>
<path d="M579.738 656.325H533.927C519.732 656.325 517.151 654.39 517.151 643.423V600.846H603.289V574.074H517.151V538.594H487.47V643.746C487.47 673.743 496.181 682.452 530.055 682.452H582.319C610.386 682.452 618.451 671.163 622 628.908C613.612 627.618 601.675 622.78 595.546 617.942C594.255 650.519 591.674 656.325 579.738 656.325Z" fill="white" fill-opacity="0.5"/>
<path d="M110.366 555.466L106.817 528.372L73.5879 537.081V480.312H107.462V452.25H73.5879V389.352H44.2301V452.572H4.54874V480.312H44.2301V545.145C28.0995 549.015 13.2593 552.563 1 555.466L8.74271 584.173C20.0342 581.271 31.6482 578.045 44.2301 574.497V650.942C44.2301 655.457 42.6171 657.07 37.7779 657.07C33.9065 657.393 20.3568 657.393 6.16181 657.07C10.0332 664.489 13.9045 677.068 15.195 684.165C37.1327 684.487 51.6502 683.519 61.006 679.004C70.3618 674.488 73.5879 666.424 73.5879 650.942V566.111L110.366 555.466Z" fill="white" fill-opacity="0.5"/>
<path fill-rule="evenodd" clip-rule="evenodd" d="M284.254 516.115L264.897 508.374L259.736 509.341H213.925V465.152H288.448V437.735H213.925V389.352H184.244V437.735H111.979V465.152H184.244V509.341H117.786V536.758H130.69L126.496 538.049C138.756 570.304 155.209 598.043 176.501 621.589C151.66 638.362 123.593 650.619 93.5899 658.038C99.0744 664.489 106.494 677.391 109.721 685.132C141.982 675.778 171.985 661.586 197.794 642.233C221.345 661.908 248.767 676.423 281.351 685.777C285.545 678.036 293.933 666.102 300.707 660.296C270.059 652.232 243.605 639.652 221.345 622.88C249.735 595.785 271.35 560.627 284.254 516.115ZM155.854 536.758H246.186C235.217 562.562 219.086 584.819 199.084 603.204C180.373 584.173 166.178 561.917 155.854 536.758Z" fill="white" fill-opacity="0.5"/>
<path fill-rule="evenodd" clip-rule="evenodd" d="M247.801 40.0291L228.122 28.0947L222.96 29.7075H145.855C153.275 22.9339 160.05 16.1603 165.857 9.06414L133.273 1.64544C112.626 27.7721 73.9126 56.8018 22.6171 77.4451C29.392 82.2834 38.4252 91.96 42.9418 99.0561C54.8785 93.5727 66.1699 87.4442 76.8161 81.6383C90.6885 91.6374 105.206 104.217 115.207 115.184C82.9458 129.053 47.781 139.053 13.2614 144.858C18.4232 151.31 24.5528 163.889 27.4563 171.308C114.239 153.89 206.829 112.603 247.801 40.0291ZM114.884 56.1567H201.345C185.859 73.5745 165.212 89.057 141.984 101.637C131.338 90.9923 115.207 77.7677 99.7217 66.8009C104.883 63.5754 110.045 60.0273 114.884 56.1567Z" fill="white" fill-opacity="0.5"/>
<path fill-rule="evenodd" clip-rule="evenodd" d="M292.967 155.18L272.32 143.246L267.158 144.536H198.119C205.539 137.117 211.991 129.699 218.443 121.635L185.537 114.216C161.663 145.826 116.498 179.372 51.3297 201.628C57.782 206.788 66.1699 217.433 70.0413 224.851C86.8171 218.078 102.303 210.982 116.498 203.563C130.693 214.852 146.178 228.077 156.824 239.366C113.917 256.461 63.9116 265.815 11.3257 270.331C16.1649 277.427 21.3267 290.652 23.2624 299.361C140.694 286.781 248.124 250.978 292.967 155.18ZM167.148 171.308H248.124C232.638 193.886 210.701 211.627 185.214 225.819C174.245 214.53 157.147 200.337 141.984 189.048C150.694 183.242 159.405 177.436 167.148 171.308Z" fill="white" fill-opacity="0.5"/>
<path d="M372.62 556.979V528.272H432.626V573.752C421.657 565.043 402.623 551.818 388.106 542.787L372.62 556.979ZM372.62 556.979C387.783 567.301 408.108 582.138 418.431 591.492L432.626 577.3V589.234C427.912 591.591 423.223 593.948 418.605 596.27L418.6 596.273L418.594 596.275C400.463 605.391 383.407 613.965 370.039 619.877C371.975 605.685 372.62 591.815 372.62 579.235V556.979ZM563.315 202.272H494.598V164.211H563.315V202.272ZM401.686 164.211H465.886V202.272H398.137C400.395 189.048 401.363 176.146 401.686 164.211ZM424.591 45.5122H495.889C490.082 55.5113 483.307 66.1555 476.532 75.187H401.363C409.751 65.5104 417.816 55.5113 424.591 45.5122ZM401.686 138.407V101.959H465.886V138.407H401.686ZM563.315 101.959V138.407H494.598V101.959H563.315ZM592.995 262.59V75.187H509.761C520.085 61.6398 530.408 46.1573 537.506 32.6101L517.181 19.0629L512.019 20.3531H441.045C441.739 19.1382 442.433 17.9466 443.121 16.7658C444.991 13.5577 446.814 10.4293 448.465 7.12849L416.203 1C400.718 32.9327 371.36 71.3163 329.098 99.7009C336.195 104.217 346.196 114.216 350.713 120.989C358.456 115.506 365.876 109.7 372.651 103.572V156.47C372.651 196.467 368.134 244.849 322.323 278.395C328.453 282.91 339.099 293.877 343.293 300.006C369.102 280.653 383.942 255.171 392.007 228.722H563.315V262.267C563.315 268.396 561.057 270.331 554.282 270.331C546.862 270.653 521.375 270.976 497.179 269.686C501.373 277.75 507.18 290.652 508.471 298.716C541.055 298.716 562.024 298.393 575.252 293.877C588.479 289.039 592.995 280.33 592.995 262.59ZM584.577 528.272H529.087C496.181 528.272 487.47 516.983 487.47 486.018V389.575H517.151V431.184H600.385V456.988H517.151V486.663C517.151 498.275 519.409 502.468 529.733 502.468H583.932C591.997 502.468 604.902 501.823 611.676 500.533C612.322 508.274 613.289 519.563 614.58 526.014C608.45 527.949 596.191 528.272 584.577 528.272ZM461.016 503.113V655.035C461.016 668.582 458.113 675.356 449.079 679.549C439.724 683.42 425.529 683.742 405.527 683.742C404.236 676.969 400.042 666.324 396.171 659.873C409.721 660.518 422.948 660.518 427.142 660.196C431.336 660.196 432.626 658.906 432.626 655.035V612.136C413.269 624.715 394.235 636.65 377.459 646.971L369.071 625.683C365.523 647.294 359.07 669.227 346.166 686C342.295 680.194 331.003 669.227 325.196 665.357C343.262 640.843 344.875 606.33 344.875 578.913V503.113H461.016ZM417.141 421.507L441.337 412.476C456.177 435.055 473.921 465.374 481.663 484.405L455.854 495.372C453.919 489.566 450.693 482.147 446.499 474.406C361.974 482.147 349.715 484.082 341.327 487.308C339.714 481.179 335.197 467.31 331.971 459.891C337.133 458.601 342.617 453.763 349.069 446.989C355.199 440.215 375.846 414.734 388.751 389.252L419.399 398.284C406.817 418.282 391.332 438.28 376.492 454.73L434.239 450.537C432.878 448.193 431.516 445.831 430.159 443.476C425.727 435.787 421.339 428.174 417.141 421.507ZM533.927 656.325H579.738C591.674 656.325 594.255 650.519 595.546 617.942C601.675 622.78 613.612 627.618 622 628.908C618.451 671.163 610.386 682.452 582.319 682.452H530.055C496.181 682.452 487.47 673.743 487.47 643.746V538.594H517.151V574.074H603.288V600.846H517.151V643.423C517.151 654.39 519.732 656.325 533.927 656.325ZM106.817 528.372L110.366 555.466L73.5879 566.111V650.942C73.5879 666.424 70.3618 674.488 61.006 679.004C51.6502 683.519 37.1327 684.487 15.195 684.165C13.9045 677.068 10.0332 664.489 6.16181 657.07C20.3568 657.393 33.9065 657.393 37.7779 657.07C42.6171 657.07 44.2301 655.457 44.2301 650.942V574.497C31.6482 578.045 20.0342 581.271 8.74271 584.173L1 555.466C13.2593 552.563 28.0995 549.015 44.2301 545.145V480.312H4.54874V452.572H44.2301V389.352H73.5879V452.25H107.462V480.312H73.5879V537.081L106.817 528.372ZM246.186 536.758H155.854C166.178 561.917 180.373 584.173 199.084 603.204C219.086 584.819 235.217 562.562 246.186 536.758ZM264.897 508.374L284.254 516.115C271.35 560.627 249.735 595.785 221.345 622.88C243.605 639.652 270.059 652.232 300.707 660.296C293.933 666.102 285.545 678.036 281.351 685.777C248.767 676.423 221.345 661.908 197.794 642.233C171.985 661.586 141.982 675.778 109.721 685.132C106.494 677.391 99.0744 664.489 93.5899 658.038C123.593 650.619 151.66 638.362 176.501 621.589C155.209 598.043 138.756 570.304 126.496 538.049L130.69 536.758H117.786V509.341H184.244V465.152H111.979V437.735H184.244V389.352H213.925V437.735H288.448V465.152H213.925V509.341H259.736L264.897 508.374ZM201.345 56.1567H114.884C110.045 60.0273 104.883 63.5754 99.7217 66.8009C115.207 77.7677 131.338 90.9923 141.984 101.637C165.212 89.057 185.859 73.5745 201.345 56.1567ZM228.122 28.0947L247.801 40.0291C206.829 112.603 114.239 153.89 27.4563 171.308C24.5528 163.889 18.4232 151.31 13.2614 144.858C47.781 139.053 82.9458 129.053 115.207 115.184C105.206 104.217 90.6885 91.6374 76.8161 81.6383C66.1699 87.4442 54.8785 93.5727 42.9418 99.0561C38.4252 91.96 29.392 82.2834 22.6171 77.4451C73.9126 56.8018 112.626 27.7721 133.273 1.64544L165.857 9.06414C160.05 16.1603 153.275 22.9339 145.855 29.7075H222.96L228.122 28.0947ZM248.124 171.308H167.148C159.405 177.436 150.694 183.242 141.984 189.048C157.147 200.337 174.245 214.53 185.214 225.819C210.701 211.627 232.638 193.886 248.124 171.308ZM272.32 143.246L292.967 155.18C248.124 250.978 140.694 286.781 23.2624 299.361C21.3267 290.652 16.1649 277.427 11.3257 270.331C63.9116 265.815 113.917 256.461 156.824 239.366C146.178 228.077 130.693 214.852 116.498 203.563C102.303 210.982 86.8171 218.078 70.0413 224.851C66.1699 217.433 57.782 206.788 51.3297 201.628C116.498 179.372 161.663 145.826 185.537 114.216L218.443 121.635C211.991 129.699 205.539 137.117 198.119 144.536H267.158L272.32 143.246Z" stroke="#A76C47"/>
</svg>
