<svg width="1634" height="1213" viewBox="0 0 1634 1213" fill="none" xmlns="http://www.w3.org/2000/svg">
<path fill-rule="evenodd" clip-rule="evenodd" d="M414.426 975.509C493.233 984.876 570.507 820.202 657.14 830.491C782.021 845.323 838.025 930.851 878.381 1011.27C929.67 1113.47 1045.96 1268.49 1185.81 1192.96C1313.71 1123.88 1133.64 919.012 1222.84 856.247C1312.04 793.482 1619.8 901.893 1631.65 830.491C1646.99 738.036 1586.33 630.217 1479.7 625.765C1373.08 621.312 1457.79 543.765 1423.46 473.806C1412.86 452.19 1303.3 358.813 1207.06 372.278C1111.92 385.589 1025.54 466.939 973.057 416.661C815.897 266.102 848.816 227.559 683.78 131.703C649.822 111.98 431.406 -67.6849 305.044 27.7713C179.616 122.522 261.636 251.412 268.189 327.86C269.854 347.284 260.161 408.332 182.311 423.231C-145.275 485.929 36.7673 740.032 200.598 679.988C364.428 619.945 145.227 943.51 414.426 975.509Z" fill="#FFE1DB"/>
</svg>
