<svg width="1228" height="695" viewBox="0 0 1228 695" fill="none" xmlns="http://www.w3.org/2000/svg">
<path fill-rule="evenodd" clip-rule="evenodd" d="M418.284 10.6967C487.527 44.9763 522.643 211.981 691.451 60.6464C755.887 2.88054 883.938 6.42991 1028.95 66.7726C1156.96 120.041 1242.5 371.7 1225.96 447.225C1210.64 517.165 1138.1 576.228 1062.64 548.844C987.178 521.461 1024.33 600.701 980.768 640.466C967.308 652.753 864.8 687.571 801.608 650.461C739.138 613.775 701.892 531.359 651.228 551.972C499.511 613.695 511.584 650.449 369.768 671.135C340.589 675.391 138.055 740.204 76.9525 636.338C16.3021 533.24 109.629 465.357 135.687 413.036C142.308 399.742 152.728 353.687 102.737 320.826C-107.624 182.549 50.1693 69.9333 176.216 105.814C302.262 141.695 304.145 -45.8095 418.284 10.6967Z" fill="#FFE1DB"/>
</svg>
