<svg width="1468" height="977" viewBox="0 0 1468 977" fill="none" xmlns="http://www.w3.org/2000/svg">
<path fill-rule="evenodd" clip-rule="evenodd" d="M421.859 847.715C510.578 829.911 600.931 651.535 746.008 874.01C801.385 958.931 947.312 993.742 1129.64 969.414C1290.6 947.938 1463.65 689.034 1467.83 598.534C1471.71 514.727 1407.56 425.881 1313.9 433.994C1220.23 442.107 1286.28 363.684 1249.06 305.466C1237.56 287.477 1132.16 216.985 1049.42 239.827C967.637 262.409 900.52 344.397 849.457 305.704C696.547 189.838 721.346 151.898 567.196 85.4834C535.478 71.818 326.021 -62.9541 225.414 36.0794C125.551 134.381 210.544 239.514 224.159 306.634C227.619 323.689 225.443 378.977 158.931 401.012C-120.949 493.735 23.4064 669.046 176.867 666.654C330.328 664.262 275.615 877.062 421.859 847.715Z" fill="#FFFFA6"/>
</svg>
