<svg width="622" height="687" viewBox="0 0 622 687" fill="none" xmlns="http://www.w3.org/2000/svg">
<path fill-rule="evenodd" clip-rule="evenodd" d="M617.452 197.986V227.002H504.285V298.252H473.334V227.002H326.636V197.986H378.545V112.873H473.334V68.3815H399.502C385.638 92.239 369.517 113.517 353.074 129.637C347.271 124.479 334.374 114.807 326.959 110.293C356.621 84.8239 382.414 43.8791 397.245 1L427.551 9.06C423.682 19.0544 419.169 29.6936 414.977 39.3655H601.654V68.3815H504.285V112.873H594.238V140.921H504.285V197.986H617.452ZM408.529 197.986H473.334V140.921H408.529V197.986Z" fill="white" fill-opacity="0.5"/>
<path d="M587.792 473.637L611.005 464.61C606.814 450.102 596.819 426.567 586.824 408.835L565.223 416.25C574.573 434.305 584.245 458.485 587.792 473.637Z" fill="white" fill-opacity="0.5"/>
<path d="M526.211 445.589V422.053H493.647C490.423 412.381 485.909 400.13 481.718 390.781L456.57 395.294C459.794 403.354 463.663 413.349 466.565 422.053H430.454V445.589H526.211Z" fill="white" fill-opacity="0.5"/>
<path fill-rule="evenodd" clip-rule="evenodd" d="M414.979 429.146H428.52V402.387H325.348V429.146H340.501V610.012C336.37 610.799 332.599 611.346 328.969 611.872C326.649 612.209 324.386 612.537 322.124 612.914L327.927 638.706C335.141 637.117 342.818 635.388 350.801 633.591L350.803 633.59L350.808 633.589C363.873 630.648 377.757 627.522 391.765 624.52V685.454H414.979V429.146ZM391.765 429.146V469.446H363.07V429.146H391.765ZM363.07 605.499V559.718H391.765V599.695C382.093 601.952 372.098 603.887 363.07 605.499ZM391.765 494.271V534.893H363.07V494.271H391.765Z" fill="white" fill-opacity="0.5"/>
<path fill-rule="evenodd" clip-rule="evenodd" d="M616.486 535.86L593.595 524.254C587.469 544.565 579.409 563.587 569.736 580.996C567.157 560.685 564.9 536.505 563.288 510.391H618.743V484.921H561.999C560.709 455.261 559.742 422.698 559.742 389.169H533.949C534.594 423.021 535.238 455.261 536.85 484.921H508.478C510.238 479.643 511.997 473.5 513.809 467.174C515.317 461.909 516.862 456.517 518.473 451.392L494.937 447.201C493.325 458.162 489.778 473.315 486.554 484.921H465.92C464.63 474.282 461.084 459.129 457.537 447.523L436.58 451.069C439.482 461.386 442.384 474.605 443.673 484.921H424.651V510.391H538.14C540.397 549.724 543.943 584.22 549.102 611.947C540.397 622.908 530.725 633.547 521.052 642.575V525.544H436.258V662.241H459.472V639.351H498.161V647.411H515.571C507.511 654.503 499.128 660.629 490.423 666.11C496.549 670.623 504.287 677.716 507.833 682.875C524.599 671.591 541.042 657.405 555.873 640.963C564.255 668.367 575.217 684.164 591.016 684.487C601.978 684.487 614.229 672.558 621 624.198C616.486 621.619 606.491 614.203 601.978 608.4C600.366 635.482 596.819 651.602 591.983 651.602C585.535 651.279 580.054 638.706 575.217 616.783C592.305 593.248 606.491 565.844 616.486 535.86ZM498.161 618.395H459.472V592.603H498.161V618.395ZM459.472 546.822H498.161V571.647H459.472V546.822Z" fill="white" fill-opacity="0.5"/>
<path fill-rule="evenodd" clip-rule="evenodd" d="M133.511 553.494L135.446 575.417C160.804 574.725 193.744 573.869 228.491 572.966L228.85 572.956C242.585 572.599 256.599 572.235 270.537 571.871C273.761 576.384 276.34 580.575 278.274 584.444L299.554 572.838C293.105 561.554 280.854 546.401 268.602 534.15H286.657V449.681H226.688V434.528H293.428V411.961H226.688V389.393H200.896V411.961H136.736V434.528H200.896V449.681H143.184V534.15H200.896V552.527C175.425 552.849 151.889 553.171 133.511 553.494ZM226.688 551.882V534.15H254.416L243.776 539.308C244.691 540.306 245.628 541.305 246.575 542.314C249.298 545.216 252.107 548.21 254.738 551.559L226.688 551.882ZM200.896 516.74H167.365V499.976H200.896V516.74ZM167.365 483.211V467.091H200.896V483.211H167.365ZM226.688 467.091H261.509V483.211H226.688V467.091ZM261.509 499.976V516.74H226.688V499.976H261.509Z" fill="white" fill-opacity="0.5"/>
<path fill-rule="evenodd" clip-rule="evenodd" d="M259.897 591.537V576.384H232.17V591.537H133.511V605.078H82.2479V582.51H127.063V469.348H82.2479V448.392H130.287V422.277H82.2479V389.393H55.4876V422.277H5.51377V448.392H55.4876V469.348H12.2844V582.51H55.4876V605.078H1V631.837H55.4876V685.355H82.2479V631.837H134.479V614.427H169.622L150.599 625.389C162.528 636.673 174.135 653.115 179.616 664.399L201.54 650.214C196.059 639.574 184.13 625.067 172.201 614.427H232.17V656.984C232.17 660.53 230.88 661.82 226.366 662.142C221.852 662.142 206.699 662.142 191.868 661.498C195.415 668.59 199.283 678.585 200.573 686C221.852 686 236.683 686 247 681.809C256.995 678.262 259.897 671.492 259.897 657.951V614.427H297.619V591.537H259.897ZM33.886 560.587V536.084H58.7118V560.587H33.886ZM33.886 515.128V490.948H58.7118V515.128H33.886ZM104.494 490.948V515.128H79.0237V490.948H104.494ZM104.494 536.084V560.587H79.0237V536.084H104.494Z" fill="white" fill-opacity="0.5"/>
<path fill-rule="evenodd" clip-rule="evenodd" d="M279.564 58.7096H164.463V2.61206H133.189V58.7096H19.6997V214.428H49.684V195.407H133.189V297.93H164.463V195.407H248.29V212.816H279.564V58.7096ZM248.29 166.069H164.463V88.0479H248.29V166.069ZM133.189 166.069H49.684V88.0479H133.189V166.069Z" fill="white" fill-opacity="0.5"/>
<path fill-rule="evenodd" clip-rule="evenodd" d="M617.452 197.986V227.002H504.285V298.252H473.334V227.002H326.636V197.986H378.545V112.873H473.334V68.3815H399.502C385.638 92.239 369.517 113.517 353.074 129.637C347.271 124.479 334.374 114.807 326.959 110.293C356.621 84.8239 382.414 43.8791 397.245 1L427.551 9.06C423.682 19.0544 419.169 29.6936 414.977 39.3655H601.654V68.3815H504.285V112.873H594.238V140.921H504.285V197.986H617.452ZM408.529 197.986H473.334V140.921H408.529V197.986Z" stroke="#A76C47"/>
<path d="M587.792 473.637L611.005 464.61C606.814 450.102 596.819 426.567 586.824 408.835L565.223 416.25C574.573 434.305 584.245 458.485 587.792 473.637Z" stroke="#A76C47"/>
<path d="M526.211 445.589V422.053H493.647C490.423 412.381 485.909 400.13 481.718 390.781L456.57 395.294C459.794 403.354 463.663 413.349 466.565 422.053H430.454V445.589H526.211Z" stroke="#A76C47"/>
<path fill-rule="evenodd" clip-rule="evenodd" d="M414.979 429.146H428.52V402.387H325.348V429.146H340.501V610.012C336.37 610.799 332.599 611.346 328.969 611.872C326.649 612.209 324.386 612.537 322.124 612.914L327.927 638.706C335.141 637.117 342.818 635.388 350.801 633.591L350.803 633.59L350.808 633.589C363.873 630.648 377.757 627.522 391.765 624.52V685.454H414.979V429.146ZM391.765 429.146V469.446H363.07V429.146H391.765ZM363.07 605.499V559.718H391.765V599.695C382.093 601.952 372.098 603.887 363.07 605.499ZM391.765 494.271V534.893H363.07V494.271H391.765Z" stroke="#A76C47"/>
<path fill-rule="evenodd" clip-rule="evenodd" d="M616.486 535.86L593.595 524.254C587.469 544.565 579.409 563.587 569.736 580.996C567.157 560.685 564.9 536.505 563.288 510.391H618.743V484.921H561.999C560.709 455.261 559.742 422.698 559.742 389.169H533.949C534.594 423.021 535.238 455.261 536.85 484.921H508.478C510.238 479.643 511.997 473.5 513.809 467.174C515.317 461.909 516.862 456.517 518.473 451.392L494.937 447.201C493.325 458.162 489.778 473.315 486.554 484.921H465.92C464.63 474.282 461.084 459.129 457.537 447.523L436.58 451.069C439.482 461.386 442.384 474.605 443.673 484.921H424.651V510.391H538.14C540.397 549.724 543.943 584.22 549.102 611.947C540.397 622.908 530.725 633.547 521.052 642.575V525.544H436.258V662.241H459.472V639.351H498.161V647.411H515.571C507.511 654.503 499.128 660.629 490.423 666.11C496.549 670.623 504.287 677.716 507.833 682.875C524.599 671.591 541.042 657.405 555.873 640.963C564.255 668.367 575.217 684.164 591.016 684.487C601.978 684.487 614.229 672.558 621 624.198C616.486 621.619 606.491 614.203 601.978 608.4C600.366 635.482 596.819 651.602 591.983 651.602C585.535 651.279 580.054 638.706 575.217 616.783C592.305 593.248 606.491 565.844 616.486 535.86ZM498.161 618.395H459.472V592.603H498.161V618.395ZM459.472 546.822H498.161V571.647H459.472V546.822Z" stroke="#A76C47"/>
<path fill-rule="evenodd" clip-rule="evenodd" d="M133.511 553.494L135.446 575.417C160.804 574.725 193.744 573.869 228.491 572.966L228.85 572.956C242.585 572.599 256.599 572.235 270.537 571.871C273.761 576.384 276.34 580.575 278.274 584.444L299.554 572.838C293.105 561.554 280.854 546.401 268.602 534.15H286.657V449.681H226.688V434.528H293.428V411.961H226.688V389.393H200.896V411.961H136.736V434.528H200.896V449.681H143.184V534.15H200.896V552.527C175.425 552.849 151.889 553.171 133.511 553.494ZM226.688 551.882V534.15H254.416L243.776 539.308C244.691 540.306 245.628 541.305 246.575 542.314C249.298 545.216 252.107 548.21 254.738 551.559L226.688 551.882ZM200.896 516.74H167.365V499.976H200.896V516.74ZM167.365 483.211V467.091H200.896V483.211H167.365ZM226.688 467.091H261.509V483.211H226.688V467.091ZM261.509 499.976V516.74H226.688V499.976H261.509Z" stroke="#A76C47"/>
<path fill-rule="evenodd" clip-rule="evenodd" d="M259.897 591.537V576.384H232.17V591.537H133.511V605.078H82.2479V582.51H127.063V469.348H82.2479V448.392H130.287V422.277H82.2479V389.393H55.4876V422.277H5.51377V448.392H55.4876V469.348H12.2844V582.51H55.4876V605.078H1V631.837H55.4876V685.355H82.2479V631.837H134.479V614.427H169.622L150.599 625.389C162.528 636.673 174.135 653.115 179.616 664.399L201.54 650.214C196.059 639.574 184.13 625.067 172.201 614.427H232.17V656.984C232.17 660.53 230.88 661.82 226.366 662.142C221.852 662.142 206.699 662.142 191.868 661.498C195.415 668.59 199.283 678.585 200.573 686C221.852 686 236.683 686 247 681.809C256.995 678.262 259.897 671.492 259.897 657.951V614.427H297.619V591.537H259.897ZM33.886 560.587V536.084H58.7118V560.587H33.886ZM33.886 515.128V490.948H58.7118V515.128H33.886ZM104.494 490.948V515.128H79.0237V490.948H104.494ZM104.494 536.084V560.587H79.0237V536.084H104.494Z" stroke="#A76C47"/>
<path fill-rule="evenodd" clip-rule="evenodd" d="M279.564 58.7096H164.463V2.61206H133.189V58.7096H19.6997V214.428H49.684V195.407H133.189V297.93H164.463V195.407H248.29V212.816H279.564V58.7096ZM248.29 166.069H164.463V88.0479H248.29V166.069ZM133.189 166.069H49.684V88.0479H133.189V166.069Z" stroke="#A76C47"/>
</svg>
