<svg width="760" height="440" viewBox="0 0 760 440" fill="none" xmlns="http://www.w3.org/2000/svg">
<path d="M22.612 403.605C23.0282 399.485 22.8764 395.87 22.8764 392.422C22.8764 375.459 24.1857 357.914 22.8255 340.998C22.2648 334.024 22.29 327.142 21.9098 320.145C21.2829 308.604 19.1967 297.009 20.3328 285.423C22.2236 266.14 24.7078 246.916 24.7078 227.52C24.7078 218.488 24.5208 209.715 23.7412 200.795C22.0309 181.226 22.8764 161.301 22.8764 141.627C22.8764 128.429 21.9607 115.296 21.9607 102.097V54.7216C21.9607 52.2307 21.9607 51.3434 21.9607 48.1383C21.2485 41.4142 21.4677 32.1254 32.5916 26.956C44.0881 23.3117 53.5856 25.4664 59.869 25.4664H83.1079C87.739 25.4664 92.1458 25.585 96.7414 26.175C102.424 26.9045 107.58 24.5553 113.071 24.5553C120.806 24.5553 128.418 25.5839 136.217 25.4664C142.985 25.3644 149.496 23.3784 156.312 24.0998C182.168 26.8366 211.321 25.4664 235.518 25.4664C253.297 25.4664 270.957 24.5553 288.831 24.5553C326.174 24.5553 363.361 27.2885 400.798 27.2885C507.051 27.2885 613.101 20 719.303 20C724.502 20 729.974 22.0438 735.153 22.3223C740.308 22.5996 744.09 24.3082 749.012 26.3774C755.112 28.9418 759.084 37.4596 759.084 42.1808V72.3355C759.084 107.458 760 142.494 760 177.563V224.635C760 247.29 758.169 269.757 758.169 292.408C758.169 326.13 761.015 360.127 759.084 393.738C758.705 400.341 759.014 408.586 757.202 414.895C755.729 420.024 748.995 425.275 744.942 428.359C740.495 431.742 735.523 432.534 729.986 432.711C724.731 432.88 719.614 435.046 714.369 435.394C703.817 436.094 692.632 436.921 682.116 436.305C641.345 433.919 600.206 436.356 559.415 436.356C540.443 436.356 521.248 434.534 502.083 434.534C475.026 434.534 447.727 436.356 420.689 436.356C408.391 436.356 395.948 435.846 383.655 436.356C371.22 436.871 358.907 440 346.315 440C338.828 440 331.625 438.283 324.136 438.178C309.484 437.973 294.89 439.089 280.234 439.089C263.111 439.089 242.025 435.795 220.664 438.886C213.382 439.94 205.887 438.178 198.585 438.178C190.429 438.178 181.921 436.816 173.862 437.317C162.566 438.02 151.754 437.267 140.44 437.267H90.4333C82.2389 437.267 73.8277 435.445 65.8117 435.445C59.4931 435.445 53.0716 434.059 46.8876 432.914C42.8916 432.174 40.4667 432.703 36.5607 430.889C33.0579 429.263 29.9303 425.449 26.6038 421.477C25.4224 417.08 23.9426 416.843 23.0799 412.21C22.612 410.224 22.612 411.214 22.612 408.9C22.612 408.238 23.1164 405.165 22.612 403.605Z" fill="#FFB5B5"/>
</svg>
