<svg width="1280" height="1129" viewBox="0 0 1280 1129" fill="none" xmlns="http://www.w3.org/2000/svg">
<path fill-rule="evenodd" clip-rule="evenodd" d="M1023.83 383.619C1144.69 307.487 1364.71 466.424 1183.58 688.291C1002.44 910.159 1295.72 699.543 1279.33 995.207C1273.86 1093.97 1171.87 1123.17 1139.47 1127.65C1063.68 1138.13 1051.07 1087.65 933.897 974.77C766.635 813.64 646.406 1035.74 527.806 890.94C476.049 827.749 574.714 628.105 375.436 690.543C80.9601 782.81 -6.12214 658.319 67.9157 536.19C141.954 414.061 -46.5975 413.068 11.1881 255.738C15.9323 242.821 61.7289 188.031 122.204 173.168C183.908 158.004 262.99 183.872 283.478 167.604C419.116 59.9034 453.605 -57.7367 566.68 31.5657C640.1 89.5503 610.779 270.844 634.758 332.002C658.755 393.206 736.026 334.252 742.328 331.814C898.68 271.312 902.965 459.751 1023.83 383.619Z" fill="#FFE1DB"/>
</svg>
