<svg width="165" height="48" viewBox="0 0 165 48" fill="none" xmlns="http://www.w3.org/2000/svg">
<path fill-rule="evenodd" clip-rule="evenodd" d="M96.8582 5.15842C96.5664 5.1949 96.2929 5.26785 96.0376 5.37729C95.8188 5.45024 95.3629 5.55967 94.6699 5.70558C94.0135 5.81501 93.4664 5.96092 93.0288 6.14331C92.6276 6.3257 92.3723 6.54456 92.2629 6.7999C91.9711 7.49297 92.0258 8.02189 92.427 8.38667C92.8646 8.75144 93.4117 8.75144 94.0682 8.38667C96.1835 7.51121 97.4964 7.10996 98.007 7.18292C98.6635 7.25587 98.8458 7.98542 98.554 9.37156C98.4811 9.84576 98.3717 10.1558 98.2258 10.3017C98.1164 10.4112 97.6787 10.7212 96.9129 11.2319C96.5482 11.4508 96.3293 11.5055 96.2564 11.3961C96.1835 11.2866 96.2746 11.013 96.5299 10.5753C96.8582 9.99167 96.9311 9.55395 96.7488 9.26213C96.6029 8.97031 96.2564 8.89735 95.7093 9.04326C95.0893 9.26213 94.6335 9.68162 94.3417 10.3017C94.1593 10.3747 94.0135 11.0678 93.9041 12.3809C93.8311 13.6577 93.7582 15.1715 93.6852 16.9224C93.6488 18.6368 93.6305 19.6764 93.6305 20.0412C93.5211 20.5154 93.6305 20.8437 93.9588 21.0261C94.3235 21.172 94.7429 21.099 95.217 20.8072C95.4358 20.6613 95.5635 20.6066 95.5999 20.6431C95.6729 20.6795 95.764 20.8802 95.8735 21.2449C96.1652 21.6827 95.764 23.0688 94.6699 25.4034C94.0864 26.3883 94.0317 27.0631 94.5058 27.4279C95.1623 27.975 96.2746 27.6467 97.8429 26.443C98.6452 25.8958 99.7211 25.0568 101.071 23.926C102.456 22.7952 103.441 22.011 104.025 21.5732C104.171 21.5732 104.444 21.7921 104.845 22.2298C105.283 22.6311 105.502 22.9047 105.502 23.0506C105.502 23.16 105.757 23.3242 106.268 23.543C106.997 23.8713 107.435 24.3455 107.581 24.9656C107.617 25.0386 107.69 25.1663 107.799 25.3486C107.909 25.531 107.982 25.6769 108.018 25.7864C108.055 25.8593 108.018 25.9505 107.909 26.06C107.836 26.1694 107.672 26.2606 107.416 26.3335C107.161 26.4065 106.742 26.6618 106.158 27.0996C105.538 27.5738 105.155 27.7562 105.009 27.6467C104.9 27.5373 104.845 26.9719 104.845 25.9505C104.845 24.8562 104.736 24.1814 104.517 23.926C103.97 23.1235 103.332 23.1418 102.602 23.9807C102.42 24.1996 102.311 24.4002 102.274 24.5826C102.274 24.7285 102.292 25.148 102.329 25.8411C102.329 26.2423 102.365 26.7166 102.438 27.2637C102.511 27.7744 102.548 28.1392 102.548 28.358C102.584 28.5769 102.493 28.814 102.274 29.0693C102.092 29.3247 101.727 29.5435 101.18 29.7259C100.669 29.9813 100.195 30.1819 99.7576 30.3278C99.3564 30.4372 99.0464 30.5467 98.8276 30.6561C98.5723 30.8385 97.8611 31.0391 96.694 31.258C95.5635 31.4404 94.8523 31.7504 94.5605 32.1882C93.9405 32.7353 93.7399 33.246 93.9588 33.7202C94.1776 34.1579 94.6699 34.3038 95.4358 34.1579C96.4935 33.8661 97.9887 33.3372 99.9217 32.5712C100.213 32.4982 100.578 32.3705 101.016 32.1882C101.453 32.0058 101.745 31.8963 101.891 31.8599C102.037 31.8234 102.201 31.8416 102.383 31.9146C102.602 31.9511 102.73 32.1152 102.766 32.407C102.803 32.6988 102.803 33.1183 102.766 33.6655L102.657 34.4315H101.727C101.143 34.4315 100.378 34.3768 99.4293 34.2674C98.6999 34.1944 98.1893 34.2127 97.8976 34.3221C97.6423 34.395 97.4052 34.6504 97.1864 35.0881C97.0405 35.4164 97.0405 35.7082 97.1864 35.9636C97.1864 36 97.2046 36.0365 97.2411 36.073C97.314 36.2554 97.4782 36.3648 97.7335 36.4013C97.9887 36.4378 98.8823 36.5107 100.414 36.6202C100.742 36.6566 100.998 36.6749 101.18 36.6749C102.055 36.7478 102.548 36.839 102.657 36.9485C102.839 37.0944 102.876 38.3893 102.766 40.8333C102.693 42.0006 102.621 42.5842 102.548 42.5842C102.475 42.5842 102.183 42.2377 101.672 41.5446C101.162 40.8515 100.742 40.1949 100.414 39.5748C100.049 38.9912 99.7211 38.6447 99.4293 38.5352C99.174 38.3893 98.9552 38.517 98.7729 38.9182C98.7729 39.1006 99.1558 39.8666 99.9217 41.2163C100.688 42.5295 101.253 43.4232 101.618 43.8974L102.11 44.554C102.329 44.8823 102.511 45.1194 102.657 45.2653C102.803 45.4477 102.967 45.5936 103.149 45.703C103.368 45.8489 103.587 45.8489 103.806 45.703C104.061 45.5571 104.316 45.2835 104.572 44.8823C104.718 44.6634 104.809 44.3716 104.845 44.0068C104.882 43.6421 104.882 42.6754 104.845 41.1069C104.845 39.3924 104.882 38.3346 104.955 37.9333C105.028 37.5321 105.192 37.3315 105.447 37.3315C105.593 37.3315 105.793 37.2038 106.049 36.9485C106.341 36.6931 106.486 36.4925 106.486 36.3466C106.268 35.9453 106.031 35.6535 105.775 35.4711C105.52 35.2523 105.319 35.1246 105.173 35.0881C105.064 35.0152 104.973 34.7963 104.9 34.4315C104.827 34.0667 104.809 33.5013 104.845 32.7353C104.845 31.3492 104.9 30.5832 105.009 30.4372C105.155 30.1454 106.268 29.4706 108.346 28.4128C109.222 27.975 109.769 27.6285 109.988 27.3731C110.243 27.0813 110.298 26.7166 110.152 26.2788C110.152 26.06 110.006 25.8593 109.714 25.6769C109.459 25.4581 109.331 25.2757 109.331 25.1298C109.732 24.0719 109.441 23.1782 108.456 22.4487C108.128 22.1934 107.617 21.6644 106.924 20.8619C106.268 20.0594 105.939 19.5852 105.939 19.4393C105.793 19.184 105.702 19.0198 105.666 18.9469C105.629 18.8739 105.502 18.7827 105.283 18.6733C105.101 18.5274 104.882 18.4909 104.626 18.5639C104.371 18.6003 104.134 18.7098 103.915 18.8922C103.696 19.0381 103.277 19.4028 102.657 19.9865C101.308 21.4091 99.9764 22.4852 98.6635 23.2147C98.0799 23.5795 97.7152 23.7619 97.5693 23.7619C97.3505 23.7619 97.6605 22.9594 98.4993 21.3544C98.8276 20.8072 99.4111 20.2236 100.25 19.6035C101.563 18.6186 102.347 17.9985 102.602 17.7431C102.894 17.4513 103.186 16.9589 103.478 16.2658C103.623 15.974 103.733 15.6821 103.806 15.3903C103.915 15.0985 103.988 14.8614 104.025 14.679C104.061 14.4602 104.116 14.1501 104.189 13.7488L104.462 12.6545C104.645 11.852 104.426 11.1407 103.806 10.5206C103.186 9.864 102.493 9.51747 101.727 9.48099C101.253 9.48099 100.943 9.3898 100.797 9.20741C100.688 9.02502 100.633 8.60553 100.633 7.94894V6.85462L101.125 6.36217C101.964 5.70558 102.092 5.06723 101.508 4.44711C101.326 4.33768 101.089 4.24649 100.797 4.17353C100.505 4.0641 100.305 3.91819 100.195 3.7358C100.086 3.55342 100.049 3.1704 100.086 2.58677C100.122 2.25847 100.104 1.98489 100.031 1.76602C99.9582 1.54716 99.867 1.40125 99.7576 1.3283C99.6846 1.25534 99.5387 1.14591 99.3199 1C98.6635 1 98.244 1.10943 98.0617 1.3283C97.9158 1.54716 97.8793 2.14904 97.9523 3.13393C97.9158 3.64461 97.9158 4.02762 97.9523 4.28296C97.9887 4.50183 97.934 4.68422 97.7882 4.83012C97.6787 4.93956 97.5693 5.01251 97.4599 5.04899C97.3505 5.04899 97.1499 5.08547 96.8582 5.15842ZM100.633 12.2715C100.815 11.4325 101.253 11.2684 101.946 11.7791C102.201 11.9615 102.292 12.1621 102.219 12.3809C102.183 12.5998 101.946 12.7092 101.508 12.7092C101.071 12.7822 100.797 12.8004 100.688 12.764C100.578 12.691 100.56 12.5269 100.633 12.2715ZM96.9676 14.8979C96.5299 14.8979 96.694 14.5149 97.4599 13.7488C97.934 13.2017 98.2258 12.9828 98.3352 13.0923C98.4811 13.4205 98.4446 13.7306 98.2258 14.0224C97.8611 14.5696 97.4417 14.8614 96.9676 14.8979ZM100.469 15.5545C101.052 14.9708 101.362 14.9344 101.399 15.445C101.399 15.5545 101.18 15.8645 100.742 16.3752C100.305 16.8494 100.031 17.0865 99.9217 17.0865C99.557 16.7218 99.7393 16.2111 100.469 15.5545ZM97.1317 17.5243C97.2776 17.5607 97.314 17.7614 97.2411 18.1261C97.1682 18.5639 96.9676 18.9469 96.6393 19.2752L96.0923 19.7676L96.0376 19.0563C96.0011 18.728 96.0011 18.5091 96.0376 18.3997C96.1105 18.2538 96.2382 18.0897 96.4205 17.9073C96.7852 17.6154 97.0223 17.4878 97.1317 17.5243Z" fill="#A76C47"/>
<path fill-rule="evenodd" clip-rule="evenodd" d="M79.407 6.19803C78.8964 6.45337 78.6594 6.76343 78.6958 7.1282C78.8052 7.31059 78.8782 7.73008 78.9146 8.38667C78.9511 9.07974 78.8599 9.53571 78.6411 9.75457C78.4588 9.93696 77.8935 10.1558 76.9452 10.4112C76.5441 10.5206 75.9423 10.703 75.1399 10.9583L73.3347 11.4508C73.2252 11.4872 73.0976 11.5602 72.9517 11.6696C72.2588 12.1803 71.8941 12.7457 71.8576 13.3658C71.7847 13.8765 72.1311 14.0589 72.897 13.913C73.2252 13.84 74.0823 13.5665 75.4682 13.0923C76.8905 12.5816 77.9299 12.2897 78.5864 12.2168L79.1335 12.1621L79.2429 13.0375C79.3158 13.5847 79.3158 14.2595 79.2429 15.062L79.1335 16.2658L78.5317 16.5941C78.0576 16.8494 77.7841 16.9224 77.7111 16.8129C77.6747 16.667 77.6017 16.4664 77.4923 16.2111C77.3829 15.9557 77.1823 15.8463 76.8905 15.8828C76.5988 15.8828 76.2341 16.1016 75.7964 16.5394C75.3588 16.9771 75.1035 17.3783 75.0305 17.7431C74.8482 18.3997 74.7205 20.4424 74.6476 23.8713C74.5747 27.2637 74.6111 29.0876 74.757 29.3429C74.8664 29.4888 75.2494 29.5253 75.9058 29.4524C76.5988 29.3794 77.1458 29.2335 77.547 29.0146C77.9482 28.8322 78.1852 28.7775 78.2582 28.8505C78.3676 28.887 78.4223 29.0693 78.4223 29.3976C78.3858 29.5071 78.3311 30.1819 78.2582 31.4221C78.1852 32.6259 78.1488 33.2642 78.1488 33.3372C78.0758 33.629 77.5652 34.012 76.617 34.4862C75.7052 34.924 74.6111 35.307 73.3347 35.6353C72.7147 35.8177 72.3135 36 72.1311 36.1824C71.9488 36.3283 71.8211 36.6202 71.7482 37.0579C71.5658 37.605 71.7847 37.9516 72.4047 38.0975C73.0247 38.2434 73.5535 38.1887 73.9911 37.9333C74.2829 37.7145 75.2129 37.295 76.7811 36.6749C77.1823 36.529 77.4558 36.4378 77.6017 36.4013C77.7841 36.3648 77.8935 36.4013 77.9299 36.5107C78.0029 36.5837 78.0211 36.7296 77.9846 36.9485V37.7145C77.9846 38.0063 78.0211 38.3528 78.0941 38.7541C78.0576 39.2283 78.0576 39.7572 78.0941 40.3409C78.1305 40.888 78.1305 41.3257 78.0941 41.654C78.0941 41.9823 77.9846 42.2742 77.7658 42.5295C77.4376 42.8943 77.3282 43.3685 77.4376 43.9521C77.5835 44.5358 77.857 44.8823 78.2582 44.9917C78.8417 44.9917 79.2794 44.8276 79.5711 44.4993C79.8994 44.2075 80.0999 43.7697 80.1729 43.1861C80.2458 42.6025 80.2641 42.0371 80.2276 41.4899C80.1911 40.9063 80.1364 40.2132 80.0635 39.4107C79.9905 38.5717 79.9541 37.9151 79.9541 37.4409V35.4164L80.7199 34.6504C81.5588 33.9573 82.6711 33.1548 84.057 32.2429C85.4794 31.2945 86.6829 30.5832 87.6676 30.1089C88.397 29.8536 88.8894 29.5253 89.1446 29.1241C89.3999 28.7228 89.3452 28.3763 88.9805 28.0845C88.7982 27.975 88.5064 27.9203 88.1052 27.9203C87.7405 27.8838 87.5217 27.9203 87.4488 28.0297C87.1205 28.2121 86.6464 28.4675 86.0264 28.7958C85.4429 29.0876 84.8958 29.3976 84.3852 29.7259C83.8746 30.0178 83.3094 30.4008 82.6894 30.875C81.4494 31.7504 80.7017 32.1334 80.4464 32.024C80.3735 31.8051 80.3188 31.3309 80.2823 30.6014C80.2458 29.8354 80.3552 29.0511 80.6105 28.2486C80.8658 27.4461 81.2488 27.0448 81.7594 27.0448C82.0876 26.9719 82.3429 26.8807 82.5252 26.7713C82.7441 26.6254 82.8899 26.4977 82.9629 26.3883C83.0358 26.2423 83.1635 26.0052 83.3458 25.6769C83.5282 25.3122 83.6923 25.0021 83.8382 24.7468C84.5311 23.7619 84.8958 22.1934 84.9323 20.0412C84.9688 17.8525 84.6041 16.4482 83.8382 15.8281C83.5829 15.5727 83.127 15.445 82.4705 15.445C81.7776 15.445 81.3764 15.3538 81.267 15.1715C81.1576 14.9526 81.1576 14.2413 81.267 13.0375L81.4858 11.1772L81.9782 11.013C82.3064 10.8671 82.817 10.7577 83.5099 10.6847C84.057 10.6483 84.4217 10.5571 84.6041 10.4112C84.8229 10.2288 84.9688 9.88224 85.0417 9.37156C85.0782 8.97031 84.987 8.67849 84.7682 8.4961C84.5858 8.31371 84.4035 8.22252 84.2211 8.22252C84.0388 8.18604 83.6558 8.259 83.0723 8.44139C82.6711 8.5873 82.3611 8.67849 82.1423 8.71497C81.9235 8.75144 81.7411 8.75144 81.5952 8.71497C81.4494 8.67849 81.3582 8.60553 81.3217 8.4961C81.2852 8.38667 81.3035 8.24076 81.3764 8.05837C81.4129 7.87599 81.3582 7.52945 81.2123 7.01877C81.0664 6.47161 80.9205 6.16155 80.7747 6.08859C80.3735 5.86973 79.9176 5.90621 79.407 6.19803ZM82.4705 17.8525C82.7623 18.1079 82.9264 18.4362 82.9629 18.8374C83.0723 19.2752 82.9264 19.5487 82.5252 19.6582C82.1241 19.7311 81.7229 19.7129 81.3217 19.6035L81.3764 18.8374C81.4129 18.2903 81.4858 17.962 81.5952 17.8525C81.887 17.5972 82.1788 17.5972 82.4705 17.8525ZM78.9146 19.0016C79.0241 19.0745 79.0605 19.4211 79.0241 20.0412V21.0808L78.2582 21.4638C77.4558 21.938 77.0182 21.9745 76.9452 21.5732C76.8723 21.3179 76.9817 20.9349 77.2735 20.4242C77.5652 19.9135 77.857 19.567 78.1488 19.3846C78.5864 19.0563 78.8417 18.9286 78.9146 19.0016ZM82.0876 22.0657C82.2335 22.0657 82.3064 22.1751 82.3064 22.394C82.3064 22.7588 81.9782 23.2694 81.3217 23.926C81.2488 23.7801 81.2305 23.4883 81.267 23.0506C81.3035 22.6128 81.3947 22.3757 81.5405 22.3393C81.7594 22.1204 81.9417 22.0292 82.0876 22.0657ZM76.9452 24.6373C78.0758 23.6889 78.7323 23.543 78.9146 24.1996C78.9511 24.5279 78.9146 24.8927 78.8052 25.2939C78.7323 25.6952 78.6229 25.9688 78.477 26.1147C78.2947 26.2606 78.0211 26.4065 77.6564 26.5524C77.3282 26.6618 77.0911 26.6801 76.9452 26.6071C76.7994 26.5706 76.7264 26.2788 76.7264 25.7317C76.7264 25.1845 76.7994 24.8197 76.9452 24.6373Z" fill="#A76C47"/>
<path d="M151.455 2.42262C150.981 2.75091 150.908 3.31631 151.236 4.11882C151.309 4.3012 152.002 4.81189 153.315 5.65087C154.518 6.48985 155.558 7.32883 156.433 8.1678C157.308 8.97031 157.782 9.57218 157.855 9.97344C157.928 10.3747 158.129 10.6118 158.457 10.6847C158.822 10.7212 159.168 10.6118 159.496 10.3564C159.825 10.0646 159.989 9.73633 159.989 9.37156C160.062 8.97031 159.971 8.62377 159.715 8.33195C159.496 8.00366 159.15 7.67536 158.676 7.34706C158.202 7.01877 157.874 6.74519 157.691 6.52632C157.181 6.01564 156.433 5.39552 155.448 4.66598C154.464 3.93643 153.734 3.33455 153.26 2.86035C152.567 2.20375 151.965 2.05784 151.455 2.42262Z" fill="#A76C47"/>
<path d="M134.879 7.34706C134.988 7.49297 135.225 7.62064 135.59 7.73008C137.195 8.20428 138.216 8.60553 138.654 8.93383C139.201 9.37156 139.711 9.35332 140.185 8.87911C141.061 7.96718 140.824 7.25587 139.474 6.74519C139.328 6.70871 139.073 6.63576 138.708 6.52632C138.344 6.38041 138.107 6.28922 137.997 6.25274C137.888 6.17979 137.651 6.05212 137.286 5.86973C136.958 5.68734 136.666 5.54143 136.411 5.432C136.155 5.32257 135.882 5.24961 135.59 5.21314C135.298 5.17666 135.079 5.26785 134.934 5.48672C134.788 5.6691 134.715 5.9974 134.715 6.47161C134.715 6.90934 134.769 7.20115 134.879 7.34706Z" fill="#A76C47"/>
<path fill-rule="evenodd" clip-rule="evenodd" d="M124.922 17.3054C124.521 17.962 123.901 18.2356 123.062 18.1261L122.406 18.0714L122.351 16.3205C122.351 15.9192 122.388 15.3356 122.461 14.5696C122.57 13.8036 122.625 13.2564 122.625 12.9281C122.661 12.5633 122.588 12.1438 122.406 11.6696C122.078 11.3413 122.187 11.0495 122.734 10.7942C124.047 10.247 125.305 9.6269 126.509 8.93383C126.837 8.71497 127.202 8.53258 127.603 8.38667C128.004 8.20428 128.332 8.04013 128.588 7.89422C128.843 7.71184 129.062 7.4565 129.244 7.1282C129.463 6.72695 129.463 6.36217 129.244 6.03388C129.062 5.70558 128.843 5.50496 128.588 5.432C128.369 5.54143 128.004 5.7603 127.494 6.08859C126.983 6.38041 126.655 6.59928 126.509 6.74519C125.779 7.29235 123.901 8.24076 120.874 9.59042C117.847 10.9401 116.024 11.8155 115.404 12.2168C115.331 12.3992 115.349 12.618 115.458 12.8734C115.604 13.1287 115.768 13.2929 115.951 13.3658C116.169 13.4388 116.881 13.2564 118.084 12.8187C118.303 12.7822 118.54 12.7092 118.795 12.5998C119.087 12.4904 119.306 12.4174 119.452 12.3809C119.598 12.308 119.744 12.2533 119.889 12.2168C120.035 12.1803 120.127 12.2168 120.163 12.3262C120.236 12.3992 120.254 12.5451 120.218 12.764C120.546 19.7311 120.437 24.3455 119.889 26.6071L119.616 27.7014C119.579 27.9568 119.543 28.1756 119.507 28.358C119.507 28.5404 119.525 28.6863 119.561 28.7958C119.634 28.9052 119.689 28.9781 119.725 29.0146C119.762 29.0511 119.853 29.1241 119.999 29.2335C120.181 29.3429 120.327 29.4159 120.437 29.4524C120.509 29.5253 120.437 29.6347 120.218 29.7807C119.379 30.2913 118.467 30.5467 117.482 30.5467C117.008 30.5467 116.68 30.6379 116.498 30.8203C116.315 31.0026 116.224 31.3492 116.224 31.8599C116.224 32.5529 116.37 32.9359 116.662 33.0089C116.954 33.0454 117.738 32.8448 119.014 32.407C120.035 32.0787 120.783 31.7869 121.257 31.5316C121.768 31.2762 122.534 30.802 123.555 30.1089C124.503 29.4888 125.014 29.2153 125.087 29.2882C125.269 30.3096 125.378 31.8963 125.415 34.0485C125.488 36.2007 125.469 38.0063 125.36 39.4654C125.287 40.8151 125.232 41.5628 125.196 41.7088C125.196 41.8547 125.032 42.0735 124.704 42.3653L124.43 41.8182C124.357 41.5993 124.229 41.4352 124.047 41.3257C123.901 41.2163 123.755 41.1981 123.609 41.271C123.464 41.344 123.391 41.5081 123.391 41.7635C123.281 42.4565 123.518 43.1496 124.102 43.8427C124.685 44.5722 125.324 44.7364 126.017 44.3351C126.381 44.1163 126.691 43.3867 126.947 42.1465C127.129 41.3805 127.22 38.6994 127.22 34.1032C127.22 29.5435 127.293 27.136 127.439 26.8807C127.621 26.6254 128.041 26.1147 128.697 25.3486C129.171 24.8015 129.536 24.3273 129.791 23.926C130.047 23.5248 130.174 23.1965 130.174 22.9411C130.174 22.6858 130.065 22.5217 129.846 22.4487C129.7 22.2663 129.445 22.2845 129.08 22.5034C128.752 22.6858 128.387 22.9776 127.986 23.3789L127.384 23.9807C127.348 23.9807 127.311 23.7619 127.275 23.3242C127.275 22.8864 127.293 22.4122 127.329 21.9015C127.366 21.3909 127.402 21.0443 127.439 20.8619C127.512 20.6066 127.512 20.0047 127.439 19.0563C127.366 18.1079 127.402 17.506 127.548 17.2507C127.731 16.9589 127.731 16.5758 127.548 16.1016C127.402 15.591 127.348 15.2262 127.384 15.0073C127.457 14.2048 127.293 13.2199 126.892 12.0526C126.527 10.8489 126.035 10.247 125.415 10.247C124.868 10.32 124.485 10.6483 124.266 11.2319C124.047 11.7791 124.157 12.3262 124.594 12.8734C125.032 13.4205 125.287 14.1319 125.36 15.0073C125.469 15.8828 125.324 16.6488 124.922 17.3054ZM124.868 19.7676C125.232 19.6217 125.451 19.6582 125.524 19.877C125.597 20.0959 125.141 20.5701 124.157 21.2997C123.172 21.9927 122.57 22.2845 122.351 22.1751C122.315 21.9198 122.26 21.7192 122.187 21.5732C122.151 21.4273 122.205 21.2814 122.351 21.1355C122.497 20.9531 122.625 20.8255 122.734 20.7525C122.844 20.6431 123.008 20.5336 123.227 20.4242C123.482 20.2783 123.682 20.1871 123.828 20.1506C123.974 20.0777 124.157 20.0047 124.375 19.9318C124.631 19.8588 124.795 19.8041 124.868 19.7676ZM122.679 28.358C121.95 28.8322 121.512 29.0693 121.367 29.0693C121.221 29.0693 121.184 28.9781 121.257 28.7958C121.294 28.6499 121.403 27.9933 121.585 26.826C121.768 25.8411 121.932 25.221 122.078 24.9656C122.224 24.7103 122.643 24.382 123.336 23.9807C123.919 23.6889 124.357 23.4336 124.649 23.2147C124.941 22.9959 125.141 22.9411 125.251 23.0506C125.397 23.1235 125.469 23.233 125.469 23.3789C125.469 23.4883 125.451 23.7072 125.415 24.0355C125.415 24.2178 125.397 24.3638 125.36 24.4732V24.8562L125.251 26.2241L124.485 26.9354C124.047 27.3731 123.445 27.8474 122.679 28.358Z" fill="#A76C47"/>
<path fill-rule="evenodd" clip-rule="evenodd" d="M140.404 20.9166C139.711 21.2085 139.328 21.3544 139.255 21.3544C139.146 21.3544 139.274 21.1355 139.638 20.6978C141.352 18.728 142.428 16.5211 142.866 14.0771C143.012 13.5665 143.067 13.2199 143.03 13.0375C142.994 12.8187 142.884 12.5633 142.702 12.2715C142.556 11.9432 142.483 11.6696 142.483 11.4508C142.483 11.013 142.319 10.7395 141.991 10.63C141.699 10.4841 141.425 10.5571 141.17 10.8489C140.55 11.5784 139.821 12.2897 138.982 12.9828C138.325 13.4935 137.322 14.0771 135.973 14.7337C134.66 15.3538 133.803 15.6639 133.402 15.6639C132.964 15.6274 132.563 15.8828 132.198 16.4299C131.87 16.9406 131.888 17.3783 132.253 17.7431C132.764 18.1444 133.639 18.0532 134.879 17.4695L135.207 17.3601C135.864 17.0683 136.21 16.9406 136.247 16.9771C136.356 17.0136 136.356 17.8343 136.247 19.4393C136.174 20.3877 136.119 20.9714 136.082 21.1902C136.046 21.3726 135.918 21.555 135.699 21.7374C135.298 22.0657 134.678 22.4852 133.839 22.9959C133.037 23.4701 132.454 23.7801 132.089 23.926C131.578 24.0719 131.232 24.382 131.049 24.8562C130.867 25.2939 130.922 25.6769 131.214 26.0052C131.761 26.5524 133.201 26.3883 135.535 25.5128C135.864 25.3669 137.578 24.5461 140.678 23.0506C143.778 21.555 145.948 20.5701 147.188 20.0959C148.136 19.6217 148.701 19.4211 148.884 19.494C149.102 19.567 149.358 20.1871 149.649 21.3544C150.269 24.6373 150.908 26.9354 151.564 28.2486C151.929 28.9052 152.129 29.3429 152.166 29.5618C152.202 29.7442 152.202 30.0542 152.166 30.492C152.056 31.5863 151.637 32.8448 150.908 34.2674C150.543 34.9969 150.288 35.4346 150.142 35.5806C149.996 35.7265 149.814 35.7447 149.595 35.6353C149.376 35.5258 149.212 35.5623 149.102 35.7447C148.993 35.8906 148.865 36.2919 148.719 36.9485C148.61 37.678 148.628 38.2252 148.774 38.5899C148.92 38.9547 149.212 39.0824 149.649 38.9729C150.196 38.827 151.126 37.5139 152.439 35.0334C152.95 34.085 153.315 33.5013 153.534 33.2825C153.789 32.9907 154.081 33.1366 154.409 33.7202C154.846 34.4862 155.558 35.4529 156.542 36.6202C157.564 37.751 158.165 38.4076 158.348 38.5899C158.421 38.8818 158.931 39.5931 159.879 40.7239C160.864 41.8547 161.448 42.6207 161.63 43.0219C161.739 43.1678 161.831 43.2955 161.904 43.405C162.414 44.098 162.943 44.0798 163.49 43.3502C164.11 42.5477 164.165 41.654 163.654 40.6691C163.362 40.0126 163.071 38.827 162.779 37.1126C162.487 35.4711 162.086 34.6504 161.575 34.6504C160.992 34.6504 160.828 35.6535 161.083 37.6598C161.156 38.2799 161.138 38.5899 161.028 38.5899C160.809 38.5899 160.281 37.9516 159.442 36.6749C159.186 36.3101 158.712 35.7265 158.019 34.924C157.326 34.085 156.725 33.3372 156.214 32.6806C155.74 31.9875 155.375 31.3492 155.12 30.7655C154.646 29.9266 154.445 29.2882 154.518 28.8505C154.664 27.8656 155.193 26.37 156.105 24.3638C156.725 22.9411 156.779 21.9563 156.269 21.4091C155.904 21.0443 155.576 20.9714 155.284 21.1902C155.029 21.3726 154.81 21.7739 154.628 22.394C154.482 23.0141 154.245 23.8166 153.916 24.8015C153.588 25.7499 153.369 26.2788 153.26 26.3883C153.187 26.4247 153.096 26.4247 152.986 26.3883C152.914 26.3153 152.841 26.2059 152.768 26.06C152.695 25.914 152.64 25.7499 152.604 25.5675L151.947 22.9411C151.436 20.8255 151.181 19.5487 151.181 19.111C151.181 18.6368 151.455 18.2538 152.002 17.962C152.403 17.7431 153.023 17.6337 153.862 17.6337H155.065L155.394 17.1412C156.196 15.7916 156.032 15.1167 154.901 15.1167C154.391 15.0803 153.552 15.2809 152.385 15.7186C151.218 16.1928 150.579 16.3752 150.47 16.2658C150.142 15.6821 149.668 14.4237 149.048 12.4904C148.464 10.5206 147.881 9.18917 147.297 8.4961C146.786 8.24076 146.349 8.29548 145.984 8.66025C145.802 8.69673 145.692 9.07974 145.656 9.80929C145.656 10.5024 145.729 10.9036 145.875 11.013C146.458 11.4508 147.005 12.5086 147.516 14.1866C147.625 14.6608 147.808 15.1897 148.063 15.7733C148.318 16.3205 148.464 16.7582 148.501 17.0865C148.464 17.2324 147.844 17.6154 146.641 18.2356C145.474 18.8557 144.781 19.1657 144.562 19.1657C144.197 19.2752 143.577 19.5305 142.702 19.9318C141.863 20.2965 141.097 20.6248 140.404 20.9166ZM139.419 15.062C140.295 14.223 140.732 14.0224 140.732 14.4602C140.732 15.1167 140.55 15.9192 140.185 16.8677C139.821 17.7796 139.365 18.5456 138.818 19.1657C138.599 19.4576 138.435 19.5852 138.325 19.5487C138.107 19.5123 138.143 18.6368 138.435 16.9224C138.508 16.4482 138.581 16.1199 138.654 15.9375C138.763 15.7551 139.018 15.4633 139.419 15.062Z" fill="#A76C47"/>
<path fill-rule="evenodd" clip-rule="evenodd" d="M141.279 29.0693C140.659 28.2304 139.875 27.7926 138.927 27.7562C138.599 27.7562 138.38 27.7379 138.271 27.7014C138.198 27.6285 138.07 27.4643 137.888 27.209C137.414 26.443 136.921 26.3518 136.411 26.9354C136.009 27.3731 135.736 27.8474 135.59 28.358C135.481 28.8687 135.481 29.6712 135.59 30.7655C135.736 32.6259 135.627 34.3403 135.262 35.9089C135.007 36.456 134.952 37.0214 135.098 37.605C135.28 38.4805 135.699 38.6811 136.356 38.2069C136.465 38.061 136.721 38.0428 137.122 38.1522C137.523 38.2252 137.833 38.1887 138.052 38.0428C138.344 37.9333 138.672 37.8422 139.036 37.7692C139.401 37.6598 139.638 37.5868 139.748 37.5503C139.857 37.4774 140.039 37.3315 140.295 37.1126C140.587 36.8573 140.969 36.4743 141.444 35.9636C142.355 35.0516 142.866 34.4498 142.975 34.1579C143.121 33.8296 142.975 33.5378 142.538 33.2825L142.045 33.0089L142.1 31.9693C142.209 30.875 141.936 29.9083 141.279 29.0693ZM138.435 31.2033C138.216 31.2033 138.325 30.9844 138.763 30.5467C139.383 29.963 139.711 29.8901 139.748 30.3278V30.6561C139.784 30.6926 139.729 30.7473 139.584 30.8203L139.255 30.9844C139.219 31.0209 139.109 31.0756 138.927 31.1486C138.781 31.185 138.69 31.2033 138.654 31.2033C138.581 31.2397 138.508 31.2397 138.435 31.2033ZM139.255 34.8145C138.489 35.4711 137.906 35.7629 137.505 35.69C137.395 35.5806 137.414 35.2523 137.559 34.7051C137.742 34.1215 137.906 33.7749 138.052 33.6655C138.271 33.4831 138.599 33.2825 139.036 33.0636C139.511 32.8448 139.784 32.7536 139.857 32.79C140.222 33.4831 140.021 34.1579 139.255 34.8145Z" fill="#A76C47"/>
<path fill-rule="evenodd" clip-rule="evenodd" d="M67.9737 20.2053C65.6761 20.716 62.5396 21.7556 58.5643 23.3242C54.6255 24.8927 51.7808 25.914 50.0302 26.3883C49.4467 26.4612 49.0455 26.6436 48.8267 26.9354C48.6443 27.2272 48.4984 27.7562 48.389 28.5222C48.2067 29.2882 48.0243 31.0209 47.842 33.7202C47.6961 36.3831 47.532 38.0793 47.3496 38.8088C47.2402 39.4289 47.1308 40.1949 47.0214 41.1069C46.9484 41.9823 46.7843 43.0402 46.529 44.2804C46.4561 44.7181 46.1278 45.0647 45.5443 45.32C44.9973 45.6118 44.5414 45.5206 44.1767 45.0464C43.9943 44.9005 43.8849 44.6634 43.8484 44.3351V41.654C43.8484 39.7937 43.9031 38.5352 44.0126 37.8786C44.1584 37.1856 44.432 36.8025 44.8331 36.7296C45.1249 36.6931 45.3073 36.4925 45.3802 36.1277C45.5261 35.3982 45.7084 33.246 45.9273 29.6712L46.0367 28.1939L45.2161 28.3033C44.669 28.4492 43.4473 28.9417 41.5508 29.7807C39.6908 30.6196 38.3961 31.0938 37.6667 31.2033C37.4114 31.2397 36.7002 31.4586 35.5331 31.8599C34.5849 32.1517 33.9102 32.3158 33.509 32.3523C33.1079 32.3888 32.7614 32.3158 32.4696 32.1334C32.1414 31.8781 31.9955 31.5498 32.032 31.1486C32.0684 30.7108 32.3055 30.4008 32.7431 30.2184C33.3631 29.7807 34.2749 29.3247 35.4784 28.8505C36.682 28.3763 37.6302 28.1027 38.3231 28.0297C38.7973 27.9933 39.1802 27.9385 39.472 27.8656C39.7637 27.7562 40.0008 27.6832 40.1831 27.6467C40.402 27.5738 40.5661 27.4096 40.6755 27.1543C40.7849 26.8989 40.8578 26.7166 40.8943 26.6071C40.9673 26.4977 41.0584 26.1876 41.1678 25.6769C41.2773 25.1663 41.3684 24.765 41.4414 24.4732C41.4778 24.2178 41.5143 23.5613 41.5508 22.5034C41.5508 21.7374 41.5326 21.2632 41.4961 21.0808C41.4596 20.8619 41.332 20.6066 41.1131 20.3148C40.8214 19.9135 40.7302 19.5852 40.8396 19.3299C40.949 19.0745 41.3137 18.801 41.9337 18.5091C43.5749 17.6702 44.9243 16.9041 45.982 16.2111C46.2737 16.0287 46.5108 15.8645 46.6931 15.7186C46.8755 15.5727 47.0031 15.3903 47.0761 15.1715C47.1855 14.9161 47.2402 14.7337 47.2402 14.6243C47.2767 14.5149 47.3131 14.2413 47.3496 13.8036C47.3861 13.3294 47.4043 13.0011 47.4043 12.8187C47.4408 12.1256 47.4043 11.7243 47.2949 11.6149C47.1855 11.5055 46.9484 11.5967 46.5837 11.8885C45.9637 12.3627 44.9061 12.6728 43.4108 12.8187C42.9002 12.8551 42.572 12.8551 42.4261 12.8187C42.2802 12.7822 42.0796 12.6363 41.8243 12.3809C41.569 12.1621 41.4049 11.9797 41.332 11.8338C41.2955 11.6514 41.2773 11.2866 41.2773 10.7395C41.0949 10.3747 41.3502 9.42627 42.0431 7.89422C42.7361 6.3257 43.2649 5.28609 43.6296 4.77541C43.812 4.59302 43.9031 4.35592 43.9031 4.0641C43.9031 3.62637 44.0673 3.33455 44.3955 3.18864C44.7602 3.04273 45.0702 3.13393 45.3255 3.46222C45.4714 3.57166 45.5261 3.80876 45.4896 4.17353C45.4531 4.53831 45.3437 5.04899 45.1614 5.70558C45.0155 6.3257 44.8514 6.92757 44.669 7.51121L44.122 9.15269C43.9396 9.69985 43.8302 10.0646 43.7937 10.247C43.9031 10.32 44.2496 10.247 44.8331 10.0282C45.4531 9.77281 46.0731 9.46275 46.6931 9.09798C48.5167 8.07661 49.7567 7.29235 50.4131 6.74519C51.1061 6.19803 52.2002 5.15842 53.6955 3.62637C54.4978 2.82387 55.0267 2.33142 55.2819 2.14904C55.5372 1.93017 55.7561 1.83898 55.9384 1.87546C56.4855 1.91193 56.7955 2.25847 56.8684 2.91506C56.9778 3.53518 56.7772 3.95467 56.2667 4.17353C56.1572 4.31944 55.9384 4.57478 55.6102 4.93956C55.3184 5.30433 55.0449 5.61439 54.7896 5.86973C54.5708 6.12507 54.3155 6.41689 54.0237 6.74519C53.7319 7.07348 53.4584 7.34706 53.2031 7.56593C52.9843 7.74831 52.8019 7.87599 52.6561 7.94894C52.4372 8.02189 52.0725 8.33195 51.562 8.87911C51.0878 9.3898 50.7596 9.80929 50.5772 10.1376C50.4314 10.3564 50.2855 11.0313 50.1396 12.1621C49.9937 13.2564 50.0667 14.0042 50.3584 14.4054C50.6867 14.5878 50.8143 14.8067 50.7414 15.062C50.7049 15.3174 50.5955 15.5545 50.4131 15.7733C50.2672 15.9557 50.0849 16.1746 49.8661 16.4299C49.6472 16.6488 49.5378 16.8129 49.5378 16.9224C49.4284 17.506 49.3008 18.6186 49.1549 20.2601C49.009 21.8651 48.9361 22.9047 48.9361 23.3789L49.0455 24.0902L49.7567 24.0355C50.5225 23.7801 51.9084 23.2512 53.9143 22.4487C55.9566 21.6462 57.4702 21.1173 58.4549 20.8619C59.0749 20.6795 59.859 20.3877 60.8072 19.9865C61.7919 19.5487 62.6672 19.2205 63.4331 19.0016C65.2566 18.4179 66.5513 17.9073 67.3172 17.4695C67.6819 17.1048 68.4296 17.0865 69.5602 17.4148C69.7061 17.5243 69.7243 17.8708 69.6149 18.4544C69.5419 19.0381 69.3778 19.4758 69.1225 19.7676C68.9766 19.9135 68.5937 20.0594 67.9737 20.2053ZM46.8025 19.2752C46.8025 18.9104 46.7478 18.6733 46.6384 18.5639C46.5655 18.4544 46.4743 18.4179 46.3649 18.4544C46.2555 18.4544 46.0731 18.5274 45.8178 18.6733C45.599 18.7827 45.4167 18.8557 45.2708 18.8922C44.7237 19.184 44.3408 19.567 44.122 20.0412C43.9396 20.4789 43.812 21.2814 43.739 22.4487C43.6661 23.7254 43.5749 24.4914 43.4655 24.7468C43.1008 25.7681 43.1737 26.2423 43.6843 26.1694C43.8667 26.1694 44.5961 25.8411 45.8725 25.1845L46.0914 25.0751C46.2737 24.9292 46.3831 24.7285 46.4196 24.4732C46.4925 24.2178 46.5655 23.543 46.6384 22.4487C46.7478 20.6978 46.8025 19.6399 46.8025 19.2752Z" fill="#A76C47"/>
<path fill-rule="evenodd" clip-rule="evenodd" d="M17.4254 3.24336C17.0972 3.06097 16.696 3.00626 16.2219 3.07921C15.3101 3.51694 15.0731 4.15529 15.5107 4.99427C15.5837 5.14018 15.6748 5.35905 15.7842 5.65087C15.9301 5.90621 16.0213 6.08859 16.0578 6.19803C16.0942 6.27098 16.149 6.41689 16.2219 6.63576C16.2948 6.85462 16.3313 7.05524 16.3313 7.23763C16.3678 7.42002 16.386 7.6936 16.386 8.05837C16.4225 8.38667 16.4407 8.75144 16.4407 9.15269V10.6847C16.4407 12.6545 16.3678 13.7671 16.2219 14.0224C16.149 14.2778 15.9119 14.5513 15.5107 14.8432C15.146 15.0985 14.6354 15.3903 13.979 15.7186C13.359 16.0469 12.9943 16.2658 12.8848 16.3752C12.666 16.5576 11.6084 17.1777 9.7119 18.2356C7.8519 19.2569 6.79426 20.0047 6.53896 20.4789C6.28367 20.8437 6.13779 21.1173 6.10132 21.2997C6.10132 21.482 6.22896 21.7374 6.48426 22.0657C6.63014 22.321 6.70308 22.5034 6.70308 22.6128C6.66661 22.7952 6.50249 22.7952 6.21073 22.6128C6.13779 22.6128 5.73661 22.2298 5.0072 21.4638C2.7825 19.1657 1.56073 18.6003 1.34191 19.7676C1.34191 19.95 1.26897 20.2053 1.12309 20.5336C1.01368 20.8619 0.977206 21.1173 1.01368 21.2997C1.08662 21.482 1.28721 21.6462 1.61544 21.7921C3.1472 22.6311 4.3872 23.5977 5.33544 24.6921C6.32014 25.7499 7.25014 27.1178 8.12543 28.7958C8.30779 28.9417 8.54484 29.0146 8.83661 29.0146C9.16484 29.0146 9.43837 28.9234 9.6572 28.741C9.87602 28.5587 9.89425 28.3216 9.7119 28.0297C9.67543 27.9203 9.49308 27.5738 9.16484 26.9901C8.87308 26.37 8.67249 25.9688 8.56308 25.7864C8.45367 25.5675 8.28955 25.221 8.07073 24.7468C7.88837 24.2726 7.74249 23.8531 7.63308 23.4883C7.56014 23.0871 7.50543 22.6676 7.46896 22.2298C8.05249 21.7556 9.16484 21.0261 10.806 20.0412C12.4837 19.0563 13.6143 18.3632 14.1978 17.962C14.3072 17.9255 14.4713 17.8161 14.6901 17.6337C14.909 17.4513 15.1095 17.3054 15.2919 17.196C15.4742 17.05 15.6384 16.9406 15.7842 16.8677C15.9666 16.7947 16.0942 16.8677 16.1672 17.0865C16.2766 17.2689 16.3313 17.579 16.3313 18.0167C16.4042 18.8557 16.3678 19.6582 16.2219 20.4242C16.1125 20.6795 16.0395 21.5732 16.0031 23.1053C15.9666 24.6373 15.8572 25.4763 15.6748 25.6222C15.6384 25.8046 14.7631 26.2059 13.049 26.826C11.3348 27.4096 10.4048 27.8291 10.259 28.0845C10.0037 28.4128 10.0219 28.7046 10.3137 28.9599C10.9337 29.4706 12.0643 29.4888 13.7054 29.0146C14.3984 28.8322 14.7995 28.6863 14.909 28.5769C15.0548 28.4675 15.219 28.431 15.4013 28.4675C15.6201 28.5039 15.7478 28.6499 15.7842 28.9052C15.8572 29.27 15.8754 31.3674 15.839 35.1975C15.839 39.0277 15.8025 41.4534 15.7295 42.4748C15.6566 43.3502 15.5837 43.8792 15.5107 44.0615C15.4742 44.2804 15.3648 44.4628 15.1825 44.6087C14.5625 45.0829 14.6719 45.6848 15.5107 46.4143C16.1307 47.0345 16.7325 47.1621 17.316 46.7973C17.8995 46.4326 18.1913 45.8489 18.1913 45.0464C18.2278 44.4993 18.1913 42.11 18.0819 37.8786C17.9725 33.6108 18.009 30.9297 18.1913 29.8354C18.2278 29.58 18.246 29.197 18.246 28.6863C18.246 28.1756 18.2642 27.7379 18.3007 27.3731C18.3737 27.0084 18.4831 26.7348 18.629 26.5524C21.1819 24.6921 23.516 22.1386 25.6313 18.8922C25.9231 18.5639 26.2148 17.9802 26.5066 17.1412C26.7984 16.2658 26.9442 15.3356 26.9442 14.3507C26.9442 13.3658 26.6889 12.6728 26.1784 12.2715C25.3031 11.469 23.206 11.5784 19.8872 12.5998C19.3037 12.8187 18.9572 12.8551 18.8478 12.7092C18.7384 12.5269 18.7019 11.9067 18.7384 10.8489C18.8113 9.68162 18.8113 8.95207 18.7384 8.66025C18.6654 8.33195 18.6107 7.85775 18.5742 7.23763C18.5378 6.58104 18.4831 6.03388 18.4101 5.59615C18.3372 5.15842 18.2278 4.70245 18.0819 4.22825C17.9725 3.75404 17.7537 3.42575 17.4254 3.24336ZM24.9748 14.9526C24.9748 15.135 24.9384 15.3356 24.8654 15.5545C24.7195 16.284 24.2454 17.3419 23.4431 18.728C22.6772 20.1141 22.1301 20.8802 21.8019 21.0261C21.5466 21.099 20.8719 21.7009 19.7778 22.8317C18.9754 23.6707 18.5013 24.0172 18.3554 23.8713C18.1731 23.6889 18.3372 20.9896 18.8478 15.7733C18.8842 15.3721 19.0666 15.0803 19.3948 14.8979C19.7231 14.679 20.3431 14.4966 21.2548 14.3507C21.2913 14.3142 21.3642 14.2778 21.4737 14.2413C21.6925 14.2048 21.8566 14.1683 21.966 14.1319C22.1119 14.0954 22.2942 14.0589 22.5131 14.0224C22.7684 13.9495 22.9507 13.913 23.0601 13.913C23.206 13.8765 23.3701 13.8583 23.5525 13.8583C23.7713 13.8218 23.9354 13.8218 24.0448 13.8583L24.3731 13.9677C24.5189 14.0042 24.6284 14.0771 24.7013 14.1866C24.7742 14.2595 24.8289 14.369 24.8654 14.5149C24.9384 14.6243 24.9748 14.7702 24.9748 14.9526Z" fill="#A76C47"/>
<path fill-rule="evenodd" clip-rule="evenodd" d="M96.8582 5.15842C96.5664 5.1949 96.2929 5.26785 96.0376 5.37729C95.8188 5.45024 95.3629 5.55967 94.6699 5.70558C94.0135 5.81501 93.4664 5.96092 93.0288 6.14331C92.6276 6.3257 92.3723 6.54456 92.2629 6.7999C91.9711 7.49297 92.0258 8.02189 92.427 8.38667C92.8646 8.75144 93.4117 8.75144 94.0682 8.38667C96.1835 7.51121 97.4964 7.10996 98.007 7.18292C98.6635 7.25587 98.8458 7.98542 98.554 9.37156C98.4811 9.84576 98.3717 10.1558 98.2258 10.3017C98.1164 10.4112 97.6787 10.7212 96.9129 11.2319C96.5482 11.4508 96.3293 11.5055 96.2564 11.3961C96.1835 11.2866 96.2746 11.013 96.5299 10.5753C96.8582 9.99167 96.9311 9.55395 96.7488 9.26213C96.6029 8.97031 96.2564 8.89735 95.7093 9.04326C95.0893 9.26213 94.6335 9.68162 94.3417 10.3017C94.1593 10.3747 94.0135 11.0678 93.9041 12.3809C93.8311 13.6577 93.7582 15.1715 93.6852 16.9224C93.6488 18.6368 93.6305 19.6764 93.6305 20.0412C93.5211 20.5154 93.6305 20.8437 93.9588 21.0261C94.3235 21.172 94.7429 21.099 95.217 20.8072C95.4358 20.6613 95.5635 20.6066 95.5999 20.6431C95.6729 20.6795 95.764 20.8802 95.8735 21.2449C96.1652 21.6827 95.764 23.0688 94.6699 25.4034C94.0864 26.3883 94.0317 27.0631 94.5058 27.4279C95.1623 27.975 96.2746 27.6467 97.8429 26.443C98.6452 25.8958 99.7211 25.0568 101.071 23.926C102.456 22.7952 103.441 22.011 104.025 21.5732C104.171 21.5732 104.444 21.7921 104.845 22.2298C105.283 22.6311 105.502 22.9047 105.502 23.0506C105.502 23.16 105.757 23.3242 106.268 23.543C106.997 23.8713 107.435 24.3455 107.581 24.9656C107.617 25.0386 107.69 25.1663 107.799 25.3486C107.909 25.531 107.982 25.6769 108.018 25.7864C108.055 25.8593 108.018 25.9505 107.909 26.06C107.836 26.1694 107.672 26.2606 107.416 26.3335C107.161 26.4065 106.742 26.6618 106.158 27.0996C105.538 27.5738 105.155 27.7562 105.009 27.6467C104.9 27.5373 104.845 26.9719 104.845 25.9505C104.845 24.8562 104.736 24.1814 104.517 23.926C103.97 23.1235 103.332 23.1418 102.602 23.9807C102.42 24.1996 102.311 24.4002 102.274 24.5826C102.274 24.7285 102.292 25.148 102.329 25.8411C102.329 26.2423 102.365 26.7166 102.438 27.2637C102.511 27.7744 102.548 28.1392 102.548 28.358C102.584 28.5769 102.493 28.814 102.274 29.0693C102.092 29.3247 101.727 29.5435 101.18 29.7259C100.669 29.9813 100.195 30.1819 99.7576 30.3278C99.3564 30.4372 99.0464 30.5467 98.8276 30.6561C98.5723 30.8385 97.8611 31.0391 96.694 31.258C95.5635 31.4404 94.8523 31.7504 94.5605 32.1882C93.9405 32.7353 93.7399 33.246 93.9588 33.7202C94.1776 34.1579 94.6699 34.3038 95.4358 34.1579C96.4935 33.8661 97.9887 33.3372 99.9217 32.5712C100.213 32.4982 100.578 32.3705 101.016 32.1882C101.453 32.0058 101.745 31.8963 101.891 31.8599C102.037 31.8234 102.201 31.8416 102.383 31.9146C102.602 31.9511 102.73 32.1152 102.766 32.407C102.803 32.6988 102.803 33.1183 102.766 33.6655L102.657 34.4315H101.727C101.143 34.4315 100.378 34.3768 99.4293 34.2674C98.6999 34.1944 98.1893 34.2127 97.8976 34.3221C97.6423 34.395 97.4052 34.6504 97.1864 35.0881C97.0405 35.4164 97.0405 35.7082 97.1864 35.9636C97.1864 36 97.2046 36.0365 97.2411 36.073C97.314 36.2554 97.4782 36.3648 97.7335 36.4013C97.9887 36.4378 98.8823 36.5107 100.414 36.6202C100.742 36.6566 100.998 36.6749 101.18 36.6749C102.055 36.7478 102.548 36.839 102.657 36.9485C102.839 37.0944 102.876 38.3893 102.766 40.8333C102.693 42.0006 102.621 42.5842 102.548 42.5842C102.475 42.5842 102.183 42.2377 101.672 41.5446C101.162 40.8515 100.742 40.1949 100.414 39.5748C100.049 38.9912 99.7211 38.6447 99.4293 38.5352C99.174 38.3893 98.9552 38.517 98.7729 38.9182C98.7729 39.1006 99.1558 39.8666 99.9217 41.2163C100.688 42.5295 101.253 43.4232 101.618 43.8974L102.11 44.554C102.329 44.8823 102.511 45.1194 102.657 45.2653C102.803 45.4477 102.967 45.5936 103.149 45.703C103.368 45.8489 103.587 45.8489 103.806 45.703C104.061 45.5571 104.316 45.2835 104.572 44.8823C104.718 44.6634 104.809 44.3716 104.845 44.0068C104.882 43.6421 104.882 42.6754 104.845 41.1069C104.845 39.3924 104.882 38.3346 104.955 37.9333C105.028 37.5321 105.192 37.3315 105.447 37.3315C105.593 37.3315 105.793 37.2038 106.049 36.9485C106.341 36.6931 106.486 36.4925 106.486 36.3466C106.268 35.9453 106.031 35.6535 105.775 35.4711C105.52 35.2523 105.319 35.1246 105.173 35.0881C105.064 35.0152 104.973 34.7963 104.9 34.4315C104.827 34.0667 104.809 33.5013 104.845 32.7353C104.845 31.3492 104.9 30.5832 105.009 30.4372C105.155 30.1454 106.268 29.4706 108.346 28.4128C109.222 27.975 109.769 27.6285 109.988 27.3731C110.243 27.0813 110.298 26.7166 110.152 26.2788C110.152 26.06 110.006 25.8593 109.714 25.6769C109.459 25.4581 109.331 25.2757 109.331 25.1298C109.732 24.0719 109.441 23.1782 108.456 22.4487C108.128 22.1934 107.617 21.6644 106.924 20.8619C106.268 20.0594 105.939 19.5852 105.939 19.4393C105.793 19.184 105.702 19.0198 105.666 18.9469C105.629 18.8739 105.502 18.7827 105.283 18.6733C105.101 18.5274 104.882 18.4909 104.626 18.5639C104.371 18.6003 104.134 18.7098 103.915 18.8922C103.696 19.0381 103.277 19.4028 102.657 19.9865C101.308 21.4091 99.9764 22.4852 98.6635 23.2147C98.0799 23.5795 97.7152 23.7619 97.5693 23.7619C97.3505 23.7619 97.6605 22.9594 98.4993 21.3544C98.8276 20.8072 99.4111 20.2236 100.25 19.6035C101.563 18.6186 102.347 17.9985 102.602 17.7431C102.894 17.4513 103.186 16.9589 103.478 16.2658C103.623 15.974 103.733 15.6821 103.806 15.3903C103.915 15.0985 103.988 14.8614 104.025 14.679C104.061 14.4602 104.116 14.1501 104.189 13.7488L104.462 12.6545C104.645 11.852 104.426 11.1407 103.806 10.5206C103.186 9.864 102.493 9.51747 101.727 9.48099C101.253 9.48099 100.943 9.3898 100.797 9.20741C100.688 9.02502 100.633 8.60553 100.633 7.94894V6.85462L101.125 6.36217C101.964 5.70558 102.092 5.06723 101.508 4.44711C101.326 4.33768 101.089 4.24649 100.797 4.17353C100.505 4.0641 100.305 3.91819 100.195 3.7358C100.086 3.55342 100.049 3.1704 100.086 2.58677C100.122 2.25847 100.104 1.98489 100.031 1.76602C99.9582 1.54716 99.867 1.40125 99.7576 1.3283C99.6846 1.25534 99.5387 1.14591 99.3199 1C98.6635 1 98.244 1.10943 98.0617 1.3283C97.9158 1.54716 97.8793 2.14904 97.9523 3.13393C97.9158 3.64461 97.9158 4.02762 97.9523 4.28296C97.9887 4.50183 97.934 4.68422 97.7882 4.83012C97.6787 4.93956 97.5693 5.01251 97.4599 5.04899C97.3505 5.04899 97.1499 5.08547 96.8582 5.15842ZM100.633 12.2715C100.815 11.4325 101.253 11.2684 101.946 11.7791C102.201 11.9615 102.292 12.1621 102.219 12.3809C102.183 12.5998 101.946 12.7092 101.508 12.7092C101.071 12.7822 100.797 12.8004 100.688 12.764C100.578 12.691 100.56 12.5269 100.633 12.2715ZM96.9676 14.8979C96.5299 14.8979 96.694 14.5149 97.4599 13.7488C97.934 13.2017 98.2258 12.9828 98.3352 13.0923C98.4811 13.4205 98.4446 13.7306 98.2258 14.0224C97.8611 14.5696 97.4417 14.8614 96.9676 14.8979ZM100.469 15.5545C101.052 14.9708 101.362 14.9344 101.399 15.445C101.399 15.5545 101.18 15.8645 100.742 16.3752C100.305 16.8494 100.031 17.0865 99.9217 17.0865C99.557 16.7218 99.7393 16.2111 100.469 15.5545ZM97.1317 17.5243C97.2776 17.5607 97.314 17.7614 97.2411 18.1261C97.1682 18.5639 96.9676 18.9469 96.6393 19.2752L96.0923 19.7676L96.0376 19.0563C96.0011 18.728 96.0011 18.5091 96.0376 18.3997C96.1105 18.2538 96.2382 18.0897 96.4205 17.9073C96.7852 17.6154 97.0223 17.4878 97.1317 17.5243Z" stroke="#A76C47" stroke-width="0.8"/>
<path fill-rule="evenodd" clip-rule="evenodd" d="M79.407 6.19803C78.8964 6.45337 78.6594 6.76343 78.6958 7.1282C78.8052 7.31059 78.8782 7.73008 78.9146 8.38667C78.9511 9.07974 78.8599 9.53571 78.6411 9.75457C78.4588 9.93696 77.8935 10.1558 76.9452 10.4112C76.5441 10.5206 75.9423 10.703 75.1399 10.9583L73.3347 11.4508C73.2252 11.4872 73.0976 11.5602 72.9517 11.6696C72.2588 12.1803 71.8941 12.7457 71.8576 13.3658C71.7847 13.8765 72.1311 14.0589 72.897 13.913C73.2252 13.84 74.0823 13.5665 75.4682 13.0923C76.8905 12.5816 77.9299 12.2897 78.5864 12.2168L79.1335 12.1621L79.2429 13.0375C79.3158 13.5847 79.3158 14.2595 79.2429 15.062L79.1335 16.2658L78.5317 16.5941C78.0576 16.8494 77.7841 16.9224 77.7111 16.8129C77.6747 16.667 77.6017 16.4664 77.4923 16.2111C77.3829 15.9557 77.1823 15.8463 76.8905 15.8828C76.5988 15.8828 76.2341 16.1016 75.7964 16.5394C75.3588 16.9771 75.1035 17.3783 75.0305 17.7431C74.8482 18.3997 74.7205 20.4424 74.6476 23.8713C74.5747 27.2637 74.6111 29.0876 74.757 29.3429C74.8664 29.4888 75.2494 29.5253 75.9058 29.4524C76.5988 29.3794 77.1458 29.2335 77.547 29.0146C77.9482 28.8322 78.1852 28.7775 78.2582 28.8505C78.3676 28.887 78.4223 29.0693 78.4223 29.3976C78.3858 29.5071 78.3311 30.1819 78.2582 31.4221C78.1852 32.6259 78.1488 33.2642 78.1488 33.3372C78.0758 33.629 77.5652 34.012 76.617 34.4862C75.7052 34.924 74.6111 35.307 73.3347 35.6353C72.7147 35.8177 72.3135 36 72.1311 36.1824C71.9488 36.3283 71.8211 36.6202 71.7482 37.0579C71.5658 37.605 71.7847 37.9516 72.4047 38.0975C73.0247 38.2434 73.5535 38.1887 73.9911 37.9333C74.2829 37.7145 75.2129 37.295 76.7811 36.6749C77.1823 36.529 77.4558 36.4378 77.6017 36.4013C77.7841 36.3648 77.8935 36.4013 77.9299 36.5107C78.0029 36.5837 78.0211 36.7296 77.9846 36.9485V37.7145C77.9846 38.0063 78.0211 38.3528 78.0941 38.7541C78.0576 39.2283 78.0576 39.7572 78.0941 40.3409C78.1305 40.888 78.1305 41.3257 78.0941 41.654C78.0941 41.9823 77.9846 42.2742 77.7658 42.5295C77.4376 42.8943 77.3282 43.3685 77.4376 43.9521C77.5835 44.5358 77.857 44.8823 78.2582 44.9917C78.8417 44.9917 79.2794 44.8276 79.5711 44.4993C79.8994 44.2075 80.0999 43.7697 80.1729 43.1861C80.2458 42.6025 80.2641 42.0371 80.2276 41.4899C80.1911 40.9063 80.1364 40.2132 80.0635 39.4107C79.9905 38.5717 79.9541 37.9151 79.9541 37.4409V35.4164L80.7199 34.6504C81.5588 33.9573 82.6711 33.1548 84.057 32.2429C85.4794 31.2945 86.6829 30.5832 87.6676 30.1089C88.397 29.8536 88.8894 29.5253 89.1446 29.1241C89.3999 28.7228 89.3452 28.3763 88.9805 28.0845C88.7982 27.975 88.5064 27.9203 88.1052 27.9203C87.7405 27.8838 87.5217 27.9203 87.4488 28.0297C87.1205 28.2121 86.6464 28.4675 86.0264 28.7958C85.4429 29.0876 84.8958 29.3976 84.3852 29.7259C83.8746 30.0178 83.3094 30.4008 82.6894 30.875C81.4494 31.7504 80.7017 32.1334 80.4464 32.024C80.3735 31.8051 80.3188 31.3309 80.2823 30.6014C80.2458 29.8354 80.3552 29.0511 80.6105 28.2486C80.8658 27.4461 81.2488 27.0448 81.7594 27.0448C82.0876 26.9719 82.3429 26.8807 82.5252 26.7713C82.7441 26.6254 82.8899 26.4977 82.9629 26.3883C83.0358 26.2423 83.1635 26.0052 83.3458 25.6769C83.5282 25.3122 83.6923 25.0021 83.8382 24.7468C84.5311 23.7619 84.8958 22.1934 84.9323 20.0412C84.9688 17.8525 84.6041 16.4482 83.8382 15.8281C83.5829 15.5727 83.127 15.445 82.4705 15.445C81.7776 15.445 81.3764 15.3538 81.267 15.1715C81.1576 14.9526 81.1576 14.2413 81.267 13.0375L81.4858 11.1772L81.9782 11.013C82.3064 10.8671 82.817 10.7577 83.5099 10.6847C84.057 10.6483 84.4217 10.5571 84.6041 10.4112C84.8229 10.2288 84.9688 9.88224 85.0417 9.37156C85.0782 8.97031 84.987 8.67849 84.7682 8.4961C84.5858 8.31371 84.4035 8.22252 84.2211 8.22252C84.0388 8.18604 83.6558 8.259 83.0723 8.44139C82.6711 8.5873 82.3611 8.67849 82.1423 8.71497C81.9235 8.75144 81.7411 8.75144 81.5952 8.71497C81.4494 8.67849 81.3582 8.60553 81.3217 8.4961C81.2852 8.38667 81.3035 8.24076 81.3764 8.05837C81.4129 7.87599 81.3582 7.52945 81.2123 7.01877C81.0664 6.47161 80.9205 6.16155 80.7747 6.08859C80.3735 5.86973 79.9176 5.90621 79.407 6.19803ZM82.4705 17.8525C82.7623 18.1079 82.9264 18.4362 82.9629 18.8374C83.0723 19.2752 82.9264 19.5487 82.5252 19.6582C82.1241 19.7311 81.7229 19.7129 81.3217 19.6035L81.3764 18.8374C81.4129 18.2903 81.4858 17.962 81.5952 17.8525C81.887 17.5972 82.1788 17.5972 82.4705 17.8525ZM78.9146 19.0016C79.0241 19.0745 79.0605 19.4211 79.0241 20.0412V21.0808L78.2582 21.4638C77.4558 21.938 77.0182 21.9745 76.9452 21.5732C76.8723 21.3179 76.9817 20.9349 77.2735 20.4242C77.5652 19.9135 77.857 19.567 78.1488 19.3846C78.5864 19.0563 78.8417 18.9286 78.9146 19.0016ZM82.0876 22.0657C82.2335 22.0657 82.3064 22.1751 82.3064 22.394C82.3064 22.7588 81.9782 23.2694 81.3217 23.926C81.2488 23.7801 81.2305 23.4883 81.267 23.0506C81.3035 22.6128 81.3947 22.3757 81.5405 22.3393C81.7594 22.1204 81.9417 22.0292 82.0876 22.0657ZM76.9452 24.6373C78.0758 23.6889 78.7323 23.543 78.9146 24.1996C78.9511 24.5279 78.9146 24.8927 78.8052 25.2939C78.7323 25.6952 78.6229 25.9688 78.477 26.1147C78.2947 26.2606 78.0211 26.4065 77.6564 26.5524C77.3282 26.6618 77.0911 26.6801 76.9452 26.6071C76.7994 26.5706 76.7264 26.2788 76.7264 25.7317C76.7264 25.1845 76.7994 24.8197 76.9452 24.6373Z" stroke="#A76C47" stroke-width="0.8"/>
<path d="M151.455 2.42262C150.981 2.75091 150.908 3.31631 151.236 4.11882C151.309 4.3012 152.002 4.81189 153.315 5.65087C154.518 6.48985 155.558 7.32883 156.433 8.1678C157.308 8.97031 157.782 9.57218 157.855 9.97344C157.928 10.3747 158.129 10.6118 158.457 10.6847C158.822 10.7212 159.168 10.6118 159.496 10.3564C159.825 10.0646 159.989 9.73633 159.989 9.37156C160.062 8.97031 159.971 8.62377 159.715 8.33195C159.496 8.00366 159.15 7.67536 158.676 7.34706C158.202 7.01877 157.874 6.74519 157.691 6.52632C157.181 6.01564 156.433 5.39552 155.448 4.66598C154.464 3.93643 153.734 3.33455 153.26 2.86035C152.567 2.20375 151.965 2.05784 151.455 2.42262Z" stroke="#A76C47" stroke-width="0.8"/>
<path d="M134.879 7.34706C134.988 7.49297 135.225 7.62064 135.59 7.73008C137.195 8.20428 138.216 8.60553 138.654 8.93383C139.201 9.37156 139.711 9.35332 140.185 8.87911C141.061 7.96718 140.824 7.25587 139.474 6.74519C139.328 6.70871 139.073 6.63576 138.708 6.52632C138.344 6.38041 138.107 6.28922 137.997 6.25274C137.888 6.17979 137.651 6.05212 137.286 5.86973C136.958 5.68734 136.666 5.54143 136.411 5.432C136.155 5.32257 135.882 5.24961 135.59 5.21314C135.298 5.17666 135.079 5.26785 134.934 5.48672C134.788 5.6691 134.715 5.9974 134.715 6.47161C134.715 6.90934 134.769 7.20115 134.879 7.34706Z" stroke="#A76C47" stroke-width="0.8"/>
<path fill-rule="evenodd" clip-rule="evenodd" d="M124.922 17.3054C124.521 17.962 123.901 18.2356 123.062 18.1261L122.406 18.0714L122.351 16.3205C122.351 15.9192 122.388 15.3356 122.461 14.5696C122.57 13.8036 122.625 13.2564 122.625 12.9281C122.661 12.5633 122.588 12.1438 122.406 11.6696C122.078 11.3413 122.187 11.0495 122.734 10.7942C124.047 10.247 125.305 9.6269 126.509 8.93383C126.837 8.71497 127.202 8.53258 127.603 8.38667C128.004 8.20428 128.332 8.04013 128.588 7.89422C128.843 7.71184 129.062 7.4565 129.244 7.1282C129.463 6.72695 129.463 6.36217 129.244 6.03388C129.062 5.70558 128.843 5.50496 128.588 5.432C128.369 5.54143 128.004 5.7603 127.494 6.08859C126.983 6.38041 126.655 6.59928 126.509 6.74519C125.779 7.29235 123.901 8.24076 120.874 9.59042C117.847 10.9401 116.024 11.8155 115.404 12.2168C115.331 12.3992 115.349 12.618 115.458 12.8734C115.604 13.1287 115.768 13.2929 115.951 13.3658C116.169 13.4388 116.881 13.2564 118.084 12.8187C118.303 12.7822 118.54 12.7092 118.795 12.5998C119.087 12.4904 119.306 12.4174 119.452 12.3809C119.598 12.308 119.744 12.2533 119.889 12.2168C120.035 12.1803 120.127 12.2168 120.163 12.3262C120.236 12.3992 120.254 12.5451 120.218 12.764C120.546 19.7311 120.437 24.3455 119.889 26.6071L119.616 27.7014C119.579 27.9568 119.543 28.1756 119.507 28.358C119.507 28.5404 119.525 28.6863 119.561 28.7958C119.634 28.9052 119.689 28.9781 119.725 29.0146C119.762 29.0511 119.853 29.1241 119.999 29.2335C120.181 29.3429 120.327 29.4159 120.437 29.4524C120.509 29.5253 120.437 29.6347 120.218 29.7807C119.379 30.2913 118.467 30.5467 117.482 30.5467C117.008 30.5467 116.68 30.6379 116.498 30.8203C116.315 31.0026 116.224 31.3492 116.224 31.8599C116.224 32.5529 116.37 32.9359 116.662 33.0089C116.954 33.0454 117.738 32.8448 119.014 32.407C120.035 32.0787 120.783 31.7869 121.257 31.5316C121.768 31.2762 122.534 30.802 123.555 30.1089C124.503 29.4888 125.014 29.2153 125.087 29.2882C125.269 30.3096 125.378 31.8963 125.415 34.0485C125.488 36.2007 125.469 38.0063 125.36 39.4654C125.287 40.8151 125.232 41.5628 125.196 41.7088C125.196 41.8547 125.032 42.0735 124.704 42.3653L124.43 41.8182C124.357 41.5993 124.229 41.4352 124.047 41.3257C123.901 41.2163 123.755 41.1981 123.609 41.271C123.464 41.344 123.391 41.5081 123.391 41.7635C123.281 42.4565 123.518 43.1496 124.102 43.8427C124.685 44.5722 125.324 44.7364 126.017 44.3351C126.381 44.1163 126.691 43.3867 126.947 42.1465C127.129 41.3805 127.22 38.6994 127.22 34.1032C127.22 29.5435 127.293 27.136 127.439 26.8807C127.621 26.6254 128.041 26.1147 128.697 25.3486C129.171 24.8015 129.536 24.3273 129.791 23.926C130.047 23.5248 130.174 23.1965 130.174 22.9411C130.174 22.6858 130.065 22.5217 129.846 22.4487C129.7 22.2663 129.445 22.2845 129.08 22.5034C128.752 22.6858 128.387 22.9776 127.986 23.3789L127.384 23.9807C127.348 23.9807 127.311 23.7619 127.275 23.3242C127.275 22.8864 127.293 22.4122 127.329 21.9015C127.366 21.3909 127.402 21.0443 127.439 20.8619C127.512 20.6066 127.512 20.0047 127.439 19.0563C127.366 18.1079 127.402 17.506 127.548 17.2507C127.731 16.9589 127.731 16.5758 127.548 16.1016C127.402 15.591 127.348 15.2262 127.384 15.0073C127.457 14.2048 127.293 13.2199 126.892 12.0526C126.527 10.8489 126.035 10.247 125.415 10.247C124.868 10.32 124.485 10.6483 124.266 11.2319C124.047 11.7791 124.157 12.3262 124.594 12.8734C125.032 13.4205 125.287 14.1319 125.36 15.0073C125.469 15.8828 125.324 16.6488 124.922 17.3054ZM124.868 19.7676C125.232 19.6217 125.451 19.6582 125.524 19.877C125.597 20.0959 125.141 20.5701 124.157 21.2997C123.172 21.9927 122.57 22.2845 122.351 22.1751C122.315 21.9198 122.26 21.7192 122.187 21.5732C122.151 21.4273 122.205 21.2814 122.351 21.1355C122.497 20.9531 122.625 20.8255 122.734 20.7525C122.844 20.6431 123.008 20.5336 123.227 20.4242C123.482 20.2783 123.682 20.1871 123.828 20.1506C123.974 20.0777 124.157 20.0047 124.375 19.9318C124.631 19.8588 124.795 19.8041 124.868 19.7676ZM122.679 28.358C121.95 28.8322 121.512 29.0693 121.367 29.0693C121.221 29.0693 121.184 28.9781 121.257 28.7958C121.294 28.6499 121.403 27.9933 121.585 26.826C121.768 25.8411 121.932 25.221 122.078 24.9656C122.224 24.7103 122.643 24.382 123.336 23.9807C123.919 23.6889 124.357 23.4336 124.649 23.2147C124.941 22.9959 125.141 22.9411 125.251 23.0506C125.397 23.1235 125.469 23.233 125.469 23.3789C125.469 23.4883 125.451 23.7072 125.415 24.0355C125.415 24.2178 125.397 24.3638 125.36 24.4732V24.8562L125.251 26.2241L124.485 26.9354C124.047 27.3731 123.445 27.8474 122.679 28.358Z" stroke="#A76C47" stroke-width="0.8"/>
<path fill-rule="evenodd" clip-rule="evenodd" d="M140.404 20.9166C139.711 21.2085 139.328 21.3544 139.255 21.3544C139.146 21.3544 139.274 21.1355 139.638 20.6978C141.352 18.728 142.428 16.5211 142.866 14.0771C143.012 13.5665 143.067 13.2199 143.03 13.0375C142.994 12.8187 142.884 12.5633 142.702 12.2715C142.556 11.9432 142.483 11.6696 142.483 11.4508C142.483 11.013 142.319 10.7395 141.991 10.63C141.699 10.4841 141.425 10.5571 141.17 10.8489C140.55 11.5784 139.821 12.2897 138.982 12.9828C138.325 13.4935 137.322 14.0771 135.973 14.7337C134.66 15.3538 133.803 15.6639 133.402 15.6639C132.964 15.6274 132.563 15.8828 132.198 16.4299C131.87 16.9406 131.888 17.3783 132.253 17.7431C132.764 18.1444 133.639 18.0532 134.879 17.4695L135.207 17.3601C135.864 17.0683 136.21 16.9406 136.247 16.9771C136.356 17.0136 136.356 17.8343 136.247 19.4393C136.174 20.3877 136.119 20.9714 136.082 21.1902C136.046 21.3726 135.918 21.555 135.699 21.7374C135.298 22.0657 134.678 22.4852 133.839 22.9959C133.037 23.4701 132.454 23.7801 132.089 23.926C131.578 24.0719 131.232 24.382 131.049 24.8562C130.867 25.2939 130.922 25.6769 131.214 26.0052C131.761 26.5524 133.201 26.3883 135.535 25.5128C135.864 25.3669 137.578 24.5461 140.678 23.0506C143.778 21.555 145.948 20.5701 147.188 20.0959C148.136 19.6217 148.701 19.4211 148.884 19.494C149.102 19.567 149.358 20.1871 149.649 21.3544C150.269 24.6373 150.908 26.9354 151.564 28.2486C151.929 28.9052 152.129 29.3429 152.166 29.5618C152.202 29.7442 152.202 30.0542 152.166 30.492C152.056 31.5863 151.637 32.8448 150.908 34.2674C150.543 34.9969 150.288 35.4346 150.142 35.5806C149.996 35.7265 149.814 35.7447 149.595 35.6353C149.376 35.5258 149.212 35.5623 149.102 35.7447C148.993 35.8906 148.865 36.2919 148.719 36.9485C148.61 37.678 148.628 38.2252 148.774 38.5899C148.92 38.9547 149.212 39.0824 149.649 38.9729C150.196 38.827 151.126 37.5139 152.439 35.0334C152.95 34.085 153.315 33.5013 153.534 33.2825C153.789 32.9907 154.081 33.1366 154.409 33.7202C154.846 34.4862 155.558 35.4529 156.542 36.6202C157.564 37.751 158.165 38.4076 158.348 38.5899C158.421 38.8818 158.931 39.5931 159.879 40.7239C160.864 41.8547 161.448 42.6207 161.63 43.0219C161.739 43.1678 161.831 43.2955 161.904 43.405C162.414 44.098 162.943 44.0798 163.49 43.3502C164.11 42.5477 164.165 41.654 163.654 40.6691C163.362 40.0126 163.071 38.827 162.779 37.1126C162.487 35.4711 162.086 34.6504 161.575 34.6504C160.992 34.6504 160.828 35.6535 161.083 37.6598C161.156 38.2799 161.138 38.5899 161.028 38.5899C160.809 38.5899 160.281 37.9516 159.442 36.6749C159.186 36.3101 158.712 35.7265 158.019 34.924C157.326 34.085 156.725 33.3372 156.214 32.6806C155.74 31.9875 155.375 31.3492 155.12 30.7655C154.646 29.9266 154.445 29.2882 154.518 28.8505C154.664 27.8656 155.193 26.37 156.105 24.3638C156.725 22.9411 156.779 21.9563 156.269 21.4091C155.904 21.0443 155.576 20.9714 155.284 21.1902C155.029 21.3726 154.81 21.7739 154.628 22.394C154.482 23.0141 154.245 23.8166 153.916 24.8015C153.588 25.7499 153.369 26.2788 153.26 26.3883C153.187 26.4247 153.096 26.4247 152.986 26.3883C152.914 26.3153 152.841 26.2059 152.768 26.06C152.695 25.914 152.64 25.7499 152.604 25.5675L151.947 22.9411C151.436 20.8255 151.181 19.5487 151.181 19.111C151.181 18.6368 151.455 18.2538 152.002 17.962C152.403 17.7431 153.023 17.6337 153.862 17.6337H155.065L155.394 17.1412C156.196 15.7916 156.032 15.1167 154.901 15.1167C154.391 15.0803 153.552 15.2809 152.385 15.7186C151.218 16.1928 150.579 16.3752 150.47 16.2658C150.142 15.6821 149.668 14.4237 149.048 12.4904C148.464 10.5206 147.881 9.18917 147.297 8.4961C146.786 8.24076 146.349 8.29548 145.984 8.66025C145.802 8.69673 145.692 9.07974 145.656 9.80929C145.656 10.5024 145.729 10.9036 145.875 11.013C146.458 11.4508 147.005 12.5086 147.516 14.1866C147.625 14.6608 147.808 15.1897 148.063 15.7733C148.318 16.3205 148.464 16.7582 148.501 17.0865C148.464 17.2324 147.844 17.6154 146.641 18.2356C145.474 18.8557 144.781 19.1657 144.562 19.1657C144.197 19.2752 143.577 19.5305 142.702 19.9318C141.863 20.2965 141.097 20.6248 140.404 20.9166ZM139.419 15.062C140.295 14.223 140.732 14.0224 140.732 14.4602C140.732 15.1167 140.55 15.9192 140.185 16.8677C139.821 17.7796 139.365 18.5456 138.818 19.1657C138.599 19.4576 138.435 19.5852 138.325 19.5487C138.107 19.5123 138.143 18.6368 138.435 16.9224C138.508 16.4482 138.581 16.1199 138.654 15.9375C138.763 15.7551 139.018 15.4633 139.419 15.062Z" stroke="#A76C47" stroke-width="0.8"/>
<path fill-rule="evenodd" clip-rule="evenodd" d="M141.279 29.0693C140.659 28.2304 139.875 27.7926 138.927 27.7562C138.599 27.7562 138.38 27.7379 138.271 27.7014C138.198 27.6285 138.07 27.4643 137.888 27.209C137.414 26.443 136.921 26.3518 136.411 26.9354C136.009 27.3731 135.736 27.8474 135.59 28.358C135.481 28.8687 135.481 29.6712 135.59 30.7655C135.736 32.6259 135.627 34.3403 135.262 35.9089C135.007 36.456 134.952 37.0214 135.098 37.605C135.28 38.4805 135.699 38.6811 136.356 38.2069C136.465 38.061 136.721 38.0428 137.122 38.1522C137.523 38.2252 137.833 38.1887 138.052 38.0428C138.344 37.9333 138.672 37.8422 139.036 37.7692C139.401 37.6598 139.638 37.5868 139.748 37.5503C139.857 37.4774 140.039 37.3315 140.295 37.1126C140.587 36.8573 140.969 36.4743 141.444 35.9636C142.355 35.0516 142.866 34.4498 142.975 34.1579C143.121 33.8296 142.975 33.5378 142.538 33.2825L142.045 33.0089L142.1 31.9693C142.209 30.875 141.936 29.9083 141.279 29.0693ZM138.435 31.2033C138.216 31.2033 138.325 30.9844 138.763 30.5467C139.383 29.963 139.711 29.8901 139.748 30.3278V30.6561C139.784 30.6926 139.729 30.7473 139.584 30.8203L139.255 30.9844C139.219 31.0209 139.109 31.0756 138.927 31.1486C138.781 31.185 138.69 31.2033 138.654 31.2033C138.581 31.2397 138.508 31.2397 138.435 31.2033ZM139.255 34.8145C138.489 35.4711 137.906 35.7629 137.505 35.69C137.395 35.5806 137.414 35.2523 137.559 34.7051C137.742 34.1215 137.906 33.7749 138.052 33.6655C138.271 33.4831 138.599 33.2825 139.036 33.0636C139.511 32.8448 139.784 32.7536 139.857 32.79C140.222 33.4831 140.021 34.1579 139.255 34.8145Z" stroke="#A76C47" stroke-width="0.8"/>
<path fill-rule="evenodd" clip-rule="evenodd" d="M67.9737 20.2053C65.6761 20.716 62.5396 21.7556 58.5643 23.3242C54.6255 24.8927 51.7808 25.914 50.0302 26.3883C49.4467 26.4612 49.0455 26.6436 48.8267 26.9354C48.6443 27.2272 48.4984 27.7562 48.389 28.5222C48.2067 29.2882 48.0243 31.0209 47.842 33.7202C47.6961 36.3831 47.532 38.0793 47.3496 38.8088C47.2402 39.4289 47.1308 40.1949 47.0214 41.1069C46.9484 41.9823 46.7843 43.0402 46.529 44.2804C46.4561 44.7181 46.1278 45.0647 45.5443 45.32C44.9973 45.6118 44.5414 45.5206 44.1767 45.0464C43.9943 44.9005 43.8849 44.6634 43.8484 44.3351V41.654C43.8484 39.7937 43.9031 38.5352 44.0126 37.8786C44.1584 37.1856 44.432 36.8025 44.8331 36.7296C45.1249 36.6931 45.3073 36.4925 45.3802 36.1277C45.5261 35.3982 45.7084 33.246 45.9273 29.6712L46.0367 28.1939L45.2161 28.3033C44.669 28.4492 43.4473 28.9417 41.5508 29.7807C39.6908 30.6196 38.3961 31.0938 37.6667 31.2033C37.4114 31.2397 36.7002 31.4586 35.5331 31.8599C34.5849 32.1517 33.9102 32.3158 33.509 32.3523C33.1079 32.3888 32.7614 32.3158 32.4696 32.1334C32.1414 31.8781 31.9955 31.5498 32.032 31.1486C32.0684 30.7108 32.3055 30.4008 32.7431 30.2184C33.3631 29.7807 34.2749 29.3247 35.4784 28.8505C36.682 28.3763 37.6302 28.1027 38.3231 28.0297C38.7973 27.9933 39.1802 27.9385 39.472 27.8656C39.7637 27.7562 40.0008 27.6832 40.1831 27.6467C40.402 27.5738 40.5661 27.4096 40.6755 27.1543C40.7849 26.8989 40.8578 26.7166 40.8943 26.6071C40.9673 26.4977 41.0584 26.1876 41.1678 25.6769C41.2773 25.1663 41.3684 24.765 41.4414 24.4732C41.4778 24.2178 41.5143 23.5613 41.5508 22.5034C41.5508 21.7374 41.5326 21.2632 41.4961 21.0808C41.4596 20.8619 41.332 20.6066 41.1131 20.3148C40.8214 19.9135 40.7302 19.5852 40.8396 19.3299C40.949 19.0745 41.3137 18.801 41.9337 18.5091C43.5749 17.6702 44.9243 16.9041 45.982 16.2111C46.2737 16.0287 46.5108 15.8645 46.6931 15.7186C46.8755 15.5727 47.0031 15.3903 47.0761 15.1715C47.1855 14.9161 47.2402 14.7337 47.2402 14.6243C47.2767 14.5149 47.3131 14.2413 47.3496 13.8036C47.3861 13.3294 47.4043 13.0011 47.4043 12.8187C47.4408 12.1256 47.4043 11.7243 47.2949 11.6149C47.1855 11.5055 46.9484 11.5967 46.5837 11.8885C45.9637 12.3627 44.9061 12.6728 43.4108 12.8187C42.9002 12.8551 42.572 12.8551 42.4261 12.8187C42.2802 12.7822 42.0796 12.6363 41.8243 12.3809C41.569 12.1621 41.4049 11.9797 41.332 11.8338C41.2955 11.6514 41.2773 11.2866 41.2773 10.7395C41.0949 10.3747 41.3502 9.42627 42.0431 7.89422C42.7361 6.3257 43.2649 5.28609 43.6296 4.77541C43.812 4.59302 43.9031 4.35592 43.9031 4.0641C43.9031 3.62637 44.0673 3.33455 44.3955 3.18864C44.7602 3.04273 45.0702 3.13393 45.3255 3.46222C45.4714 3.57166 45.5261 3.80876 45.4896 4.17353C45.4531 4.53831 45.3437 5.04899 45.1614 5.70558C45.0155 6.3257 44.8514 6.92757 44.669 7.51121L44.122 9.15269C43.9396 9.69985 43.8302 10.0646 43.7937 10.247C43.9031 10.32 44.2496 10.247 44.8331 10.0282C45.4531 9.77281 46.0731 9.46275 46.6931 9.09798C48.5167 8.07661 49.7567 7.29235 50.4131 6.74519C51.1061 6.19803 52.2002 5.15842 53.6955 3.62637C54.4978 2.82387 55.0267 2.33142 55.2819 2.14904C55.5372 1.93017 55.7561 1.83898 55.9384 1.87546C56.4855 1.91193 56.7955 2.25847 56.8684 2.91506C56.9778 3.53518 56.7772 3.95467 56.2667 4.17353C56.1572 4.31944 55.9384 4.57478 55.6102 4.93956C55.3184 5.30433 55.0449 5.61439 54.7896 5.86973C54.5708 6.12507 54.3155 6.41689 54.0237 6.74519C53.7319 7.07348 53.4584 7.34706 53.2031 7.56593C52.9843 7.74831 52.8019 7.87599 52.6561 7.94894C52.4372 8.02189 52.0725 8.33195 51.562 8.87911C51.0878 9.3898 50.7596 9.80929 50.5772 10.1376C50.4314 10.3564 50.2855 11.0313 50.1396 12.1621C49.9937 13.2564 50.0667 14.0042 50.3584 14.4054C50.6867 14.5878 50.8143 14.8067 50.7414 15.062C50.7049 15.3174 50.5955 15.5545 50.4131 15.7733C50.2672 15.9557 50.0849 16.1746 49.8661 16.4299C49.6472 16.6488 49.5378 16.8129 49.5378 16.9224C49.4284 17.506 49.3008 18.6186 49.1549 20.2601C49.009 21.8651 48.9361 22.9047 48.9361 23.3789L49.0455 24.0902L49.7567 24.0355C50.5225 23.7801 51.9084 23.2512 53.9143 22.4487C55.9566 21.6462 57.4702 21.1173 58.4549 20.8619C59.0749 20.6795 59.859 20.3877 60.8072 19.9865C61.7919 19.5487 62.6672 19.2205 63.4331 19.0016C65.2566 18.4179 66.5513 17.9073 67.3172 17.4695C67.6819 17.1048 68.4296 17.0865 69.5602 17.4148C69.7061 17.5243 69.7243 17.8708 69.6149 18.4544C69.5419 19.0381 69.3778 19.4758 69.1225 19.7676C68.9766 19.9135 68.5937 20.0594 67.9737 20.2053ZM46.8025 19.2752C46.8025 18.9104 46.7478 18.6733 46.6384 18.5639C46.5655 18.4544 46.4743 18.4179 46.3649 18.4544C46.2555 18.4544 46.0731 18.5274 45.8178 18.6733C45.599 18.7827 45.4167 18.8557 45.2708 18.8922C44.7237 19.184 44.3408 19.567 44.122 20.0412C43.9396 20.4789 43.812 21.2814 43.739 22.4487C43.6661 23.7254 43.5749 24.4914 43.4655 24.7468C43.1008 25.7681 43.1737 26.2423 43.6843 26.1694C43.8667 26.1694 44.5961 25.8411 45.8725 25.1845L46.0914 25.0751C46.2737 24.9292 46.3831 24.7285 46.4196 24.4732C46.4925 24.2178 46.5655 23.543 46.6384 22.4487C46.7478 20.6978 46.8025 19.6399 46.8025 19.2752Z" stroke="#A76C47" stroke-width="0.8"/>
<path fill-rule="evenodd" clip-rule="evenodd" d="M17.4254 3.24336C17.0972 3.06097 16.696 3.00626 16.2219 3.07921C15.3101 3.51694 15.0731 4.15529 15.5107 4.99427C15.5837 5.14018 15.6748 5.35905 15.7842 5.65087C15.9301 5.90621 16.0213 6.08859 16.0578 6.19803C16.0942 6.27098 16.149 6.41689 16.2219 6.63576C16.2948 6.85462 16.3313 7.05524 16.3313 7.23763C16.3678 7.42002 16.386 7.6936 16.386 8.05837C16.4225 8.38667 16.4407 8.75144 16.4407 9.15269V10.6847C16.4407 12.6545 16.3678 13.7671 16.2219 14.0224C16.149 14.2778 15.9119 14.5513 15.5107 14.8432C15.146 15.0985 14.6354 15.3903 13.979 15.7186C13.359 16.0469 12.9943 16.2658 12.8848 16.3752C12.666 16.5576 11.6084 17.1777 9.7119 18.2356C7.8519 19.2569 6.79426 20.0047 6.53896 20.4789C6.28367 20.8437 6.13779 21.1173 6.10132 21.2997C6.10132 21.482 6.22896 21.7374 6.48426 22.0657C6.63014 22.321 6.70308 22.5034 6.70308 22.6128C6.66661 22.7952 6.50249 22.7952 6.21073 22.6128C6.13779 22.6128 5.73661 22.2298 5.0072 21.4638C2.7825 19.1657 1.56073 18.6003 1.34191 19.7676C1.34191 19.95 1.26897 20.2053 1.12309 20.5336C1.01368 20.8619 0.977206 21.1173 1.01368 21.2997C1.08662 21.482 1.28721 21.6462 1.61544 21.7921C3.1472 22.6311 4.3872 23.5977 5.33544 24.6921C6.32014 25.7499 7.25014 27.1178 8.12543 28.7958C8.30779 28.9417 8.54484 29.0146 8.83661 29.0146C9.16484 29.0146 9.43837 28.9234 9.6572 28.741C9.87602 28.5587 9.89425 28.3216 9.7119 28.0297C9.67543 27.9203 9.49308 27.5738 9.16484 26.9901C8.87308 26.37 8.67249 25.9688 8.56308 25.7864C8.45367 25.5675 8.28955 25.221 8.07073 24.7468C7.88837 24.2726 7.74249 23.8531 7.63308 23.4883C7.56014 23.0871 7.50543 22.6676 7.46896 22.2298C8.05249 21.7556 9.16484 21.0261 10.806 20.0412C12.4837 19.0563 13.6143 18.3632 14.1978 17.962C14.3072 17.9255 14.4713 17.8161 14.6901 17.6337C14.909 17.4513 15.1095 17.3054 15.2919 17.196C15.4742 17.05 15.6384 16.9406 15.7842 16.8677C15.9666 16.7947 16.0942 16.8677 16.1672 17.0865C16.2766 17.2689 16.3313 17.579 16.3313 18.0167C16.4042 18.8557 16.3678 19.6582 16.2219 20.4242C16.1125 20.6795 16.0395 21.5732 16.0031 23.1053C15.9666 24.6373 15.8572 25.4763 15.6748 25.6222C15.6384 25.8046 14.7631 26.2059 13.049 26.826C11.3348 27.4096 10.4048 27.8291 10.259 28.0845C10.0037 28.4128 10.0219 28.7046 10.3137 28.9599C10.9337 29.4706 12.0643 29.4888 13.7054 29.0146C14.3984 28.8322 14.7995 28.6863 14.909 28.5769C15.0548 28.4675 15.219 28.431 15.4013 28.4675C15.6201 28.5039 15.7478 28.6499 15.7842 28.9052C15.8572 29.27 15.8754 31.3674 15.839 35.1975C15.839 39.0277 15.8025 41.4534 15.7295 42.4748C15.6566 43.3502 15.5837 43.8792 15.5107 44.0615C15.4742 44.2804 15.3648 44.4628 15.1825 44.6087C14.5625 45.0829 14.6719 45.6848 15.5107 46.4143C16.1307 47.0345 16.7325 47.1621 17.316 46.7973C17.8995 46.4326 18.1913 45.8489 18.1913 45.0464C18.2278 44.4993 18.1913 42.11 18.0819 37.8786C17.9725 33.6108 18.009 30.9297 18.1913 29.8354C18.2278 29.58 18.246 29.197 18.246 28.6863C18.246 28.1756 18.2642 27.7379 18.3007 27.3731C18.3737 27.0084 18.4831 26.7348 18.629 26.5524C21.1819 24.6921 23.516 22.1386 25.6313 18.8922C25.9231 18.5639 26.2148 17.9802 26.5066 17.1412C26.7984 16.2658 26.9442 15.3356 26.9442 14.3507C26.9442 13.3658 26.6889 12.6728 26.1784 12.2715C25.3031 11.469 23.206 11.5784 19.8872 12.5998C19.3037 12.8187 18.9572 12.8551 18.8478 12.7092C18.7384 12.5269 18.7019 11.9067 18.7384 10.8489C18.8113 9.68162 18.8113 8.95207 18.7384 8.66025C18.6654 8.33195 18.6107 7.85775 18.5742 7.23763C18.5378 6.58104 18.4831 6.03388 18.4101 5.59615C18.3372 5.15842 18.2278 4.70245 18.0819 4.22825C17.9725 3.75404 17.7537 3.42575 17.4254 3.24336ZM24.9748 14.9526C24.9748 15.135 24.9384 15.3356 24.8654 15.5545C24.7195 16.284 24.2454 17.3419 23.4431 18.728C22.6772 20.1141 22.1301 20.8802 21.8019 21.0261C21.5466 21.099 20.8719 21.7009 19.7778 22.8317C18.9754 23.6707 18.5013 24.0172 18.3554 23.8713C18.1731 23.6889 18.3372 20.9896 18.8478 15.7733C18.8842 15.3721 19.0666 15.0803 19.3948 14.8979C19.7231 14.679 20.3431 14.4966 21.2548 14.3507C21.2913 14.3142 21.3642 14.2778 21.4737 14.2413C21.6925 14.2048 21.8566 14.1683 21.966 14.1319C22.1119 14.0954 22.2942 14.0589 22.5131 14.0224C22.7684 13.9495 22.9507 13.913 23.0601 13.913C23.206 13.8765 23.3701 13.8583 23.5525 13.8583C23.7713 13.8218 23.9354 13.8218 24.0448 13.8583L24.3731 13.9677C24.5189 14.0042 24.6284 14.0771 24.7013 14.1866C24.7742 14.2595 24.8289 14.369 24.8654 14.5149C24.9384 14.6243 24.9748 14.7702 24.9748 14.9526Z" stroke="#A76C47" stroke-width="0.8"/>
</svg>
