<svg width="626" height="687" viewBox="0 0 626 687" fill="none" xmlns="http://www.w3.org/2000/svg">
<path fill-rule="evenodd" clip-rule="evenodd" d="M457.199 197.962V39.1634H441.68V13.6133H549.344V38.5165H596.548L601.398 37.5463L616.917 42.721C612.391 84.4419 604.954 122.282 594.608 155.271C607.218 182.114 617.887 207.988 623.383 227.069L599.781 236.772C595.902 223.512 590.082 206.694 582.969 188.583C573.27 212.192 561.63 232.244 549.021 247.121C545.788 242.27 539.321 234.508 533.825 229.657V253.266H509.576V209.281L446.53 226.423L440.71 201.519L457.199 197.962ZM533.825 39.1634V222.865C547.728 205.724 559.367 182.761 569.066 154.947C558.72 132.631 547.404 109.669 536.088 89.2932L557.427 82.178C564.54 94.4679 571.976 108.051 578.766 121.635C583.292 102.877 586.849 83.4717 589.435 62.4495H542.231V39.1634H533.825ZM481.125 192.464L509.576 185.672V153.33H481.125V192.464ZM509.576 72.152V39.1634H481.125V72.152H509.576ZM481.125 95.7616V129.72H509.576V95.7616H481.125Z" fill="white" fill-opacity="0.5"/>
<path d="M413.552 186.642V247.768C433.921 257.794 460.432 260.705 494.38 260.705C512.809 260.705 601.721 260.705 625 259.735C620.15 266.85 614.654 280.757 612.714 289.489H494.057C427.778 289.489 388.333 279.463 362.791 235.155C358.911 257.471 351.798 279.14 340.806 297.575C336.603 291.43 326.903 282.374 321.083 279.787C342.746 241.947 344.685 189.876 343.392 146.538L368.611 147.832C368.934 160.769 368.934 173.705 368.287 186.966C373.137 203.136 379.28 215.75 387.04 225.776V122.605H329.49V96.085H378.957V63.0963H337.572V36.576H378.957V1H406.115V36.576H439.094V63.0963H406.115V96.085H444.913V122.605H413.552V160.445H444.267V186.642H413.552Z" fill="white" fill-opacity="0.5"/>
<path d="M446.724 634.9L424.739 624.551C404.046 637.811 364.925 649.777 332.27 654.628C338.413 660.127 346.173 670.153 350.376 676.621C383.677 669.182 424.092 652.365 446.724 634.9Z" fill="white" fill-opacity="0.5"/>
<path d="M525.613 622.61L506.214 637.811C535.636 649.13 575.08 666.272 595.126 676.297L615.171 658.833C593.509 648.484 554.065 632.959 525.613 622.61Z" fill="white" fill-opacity="0.5"/>
<path fill-rule="evenodd" clip-rule="evenodd" d="M615.818 585.74H488.432V566.335H587.69V543.696H488.432V524.291H602.885V500.681H534.342C540.809 493.243 548.245 484.51 555.358 474.808L530.139 468.34H614.848V444.407H568.614C577.02 432.44 586.72 416.269 595.449 400.422L564.411 392.336C559.561 406.89 549.538 427.265 541.779 440.202L554.388 444.407H519.147V388.779H490.695V444.407H458.687V388.779H430.558V444.407H394.347L411.483 437.938C406.956 425.325 395.64 405.596 385.617 391.689L359.429 400.745C368.482 414.005 378.181 431.793 383.031 444.407H334.857V468.34H417.302L398.55 472.867C404.046 481.276 409.543 492.596 412.776 500.681H347.789V524.291H459.01V543.696H363.632V566.335H459.01V585.74H333.564V610.967H459.01V686H488.432V610.967H615.818V585.74ZM427.972 468.34H523.35C518.823 476.748 511.387 489.038 505.244 497.124L516.883 500.681H428.618L443.168 496.8C440.581 489.362 434.438 477.395 427.972 468.34Z" fill="white" fill-opacity="0.5"/>
<path fill-rule="evenodd" clip-rule="evenodd" d="M53.7004 586.387H165.244V489.038H29.1285V529.789C29.1285 566.335 26.2186 621.316 1 661.097C8.43626 663.684 21.3689 669.506 26.8652 673.71C39.4746 653.011 46.9108 627.785 51.4372 602.882V684.06H76.9791V672.417H146.492V683.413H173.004V599.001H51.7605L53.7004 586.387ZM57.2569 510.707H138.086V527.849H57.2569V510.707ZM138.086 564.718H55.9636C56.2869 558.573 56.6103 552.428 56.9336 546.607H138.086V564.718ZM76.9791 620.346H146.492V649.454H76.9791V620.346Z" fill="white" fill-opacity="0.5"/>
<path d="M121.597 400.745L94.1149 390.396C74.0693 421.767 37.5347 448.611 1.32332 465.429C6.49636 471.897 14.5793 486.774 17.4891 493.566C34.3015 484.51 51.1139 473.514 66.9564 460.901V475.131H133.883V456.373H72.1294C81.8289 448.288 90.8817 439.555 99.2879 430.5C124.183 446.347 153.282 465.429 168.801 478.042L184.32 452.815C169.124 441.172 140.672 423.708 116.1 409.154C116.662 408.311 117.224 407.495 117.778 406.69C119.137 404.717 120.448 402.813 121.597 400.745Z" fill="white" fill-opacity="0.5"/>
<path d="M225.381 601.588V423.708H197.253V601.588H225.381Z" fill="white" fill-opacity="0.5"/>
<path d="M285.518 390.396H256.419V647.837C256.419 653.658 254.479 655.275 248.983 655.275C243.81 655.599 226.998 655.599 208.569 654.952C212.772 663.361 216.975 676.944 218.268 685.03C244.457 685.03 261.269 684.06 271.292 678.885C281.638 674.357 285.518 665.625 285.518 648.16V390.396Z" fill="white" fill-opacity="0.5"/>
<path d="M121.919 243.887L97.0233 224.805C76.3312 241.623 37.5333 262.645 7.14163 274.612C12.9613 280.757 20.3976 291.106 24.2774 297.251C55.639 283.991 94.7601 262.969 121.919 243.887Z" fill="white" fill-opacity="0.5"/>
<path d="M196.605 222.541L179.792 243.564C213.417 259.411 248.658 280.433 269.997 295.31L289.396 272.671C267.411 258.117 230.229 238.065 196.605 222.541Z" fill="white" fill-opacity="0.5"/>
<path fill-rule="evenodd" clip-rule="evenodd" d="M127.738 98.3487V171.765H174.942V98.3487H127.738ZM141.318 153.33V116.784H161.04V153.33H141.318Z" fill="white" fill-opacity="0.5"/>
<path d="M176.559 59.862H124.505V79.5905H176.559V59.862Z" fill="white" fill-opacity="0.5"/>
<path fill-rule="evenodd" clip-rule="evenodd" d="M296.186 194.404H271.937C274.847 144.598 277.11 71.505 277.757 14.9068H216.65V39.81H251.245C251.245 45.7145 251.166 51.7765 251.086 57.9183C251.005 64.2238 250.922 70.6135 250.922 77.0031H218.267V101.259H250.275C249.952 112.903 249.628 124.546 249.305 135.865H216.003V160.122H248.012C247.688 172.088 247.042 184.055 246.395 194.404H207.921V16.8473H94.4368V194.404H56.2856L55.3156 159.475H86.6773V135.218H54.669L53.3758 100.613H85.384V76.3563H52.7291L51.7592 42.074C65.6617 38.5163 80.2109 34.3119 93.1436 29.784L79.5643 4.23401C65.3384 11.0258 43.6763 18.7878 25.5706 24.286L30.4203 194.404H5.84837V222.218H296.186V194.404ZM116.099 194.404V40.1334H185.288V194.404H116.099Z" fill="white" fill-opacity="0.5"/>
<path fill-rule="evenodd" clip-rule="evenodd" d="M457.199 197.962V39.1634H441.68V13.6133H549.344V38.5165H596.548L601.398 37.5463L616.917 42.721C612.391 84.4419 604.954 122.282 594.608 155.271C607.218 182.114 617.887 207.988 623.383 227.069L599.781 236.772C595.902 223.512 590.082 206.694 582.969 188.583C573.27 212.192 561.63 232.244 549.021 247.121C545.788 242.27 539.321 234.508 533.825 229.657V253.266H509.576V209.281L446.53 226.423L440.71 201.519L457.199 197.962ZM533.825 39.1634V222.865C547.728 205.724 559.367 182.761 569.066 154.947C558.72 132.631 547.404 109.669 536.088 89.2932L557.427 82.178C564.54 94.4679 571.976 108.051 578.766 121.635C583.292 102.877 586.849 83.4717 589.435 62.4495H542.231V39.1634H533.825ZM481.125 192.464L509.576 185.672V153.33H481.125V192.464ZM509.576 72.152V39.1634H481.125V72.152H509.576ZM481.125 95.7616V129.72H509.576V95.7616H481.125Z" stroke="#A76C47"/>
<path d="M413.552 186.642V247.768C433.921 257.794 460.432 260.705 494.38 260.705C512.809 260.705 601.721 260.705 625 259.735C620.15 266.85 614.654 280.757 612.714 289.489H494.057C427.778 289.489 388.333 279.463 362.791 235.155C358.911 257.471 351.798 279.14 340.806 297.575C336.603 291.43 326.903 282.374 321.083 279.787C342.746 241.947 344.685 189.876 343.392 146.538L368.611 147.832C368.934 160.769 368.934 173.705 368.287 186.966C373.137 203.136 379.28 215.75 387.04 225.776V122.605H329.49V96.085H378.957V63.0963H337.572V36.576H378.957V1H406.115V36.576H439.094V63.0963H406.115V96.085H444.913V122.605H413.552V160.445H444.267V186.642H413.552Z" stroke="#A76C47"/>
<path d="M446.724 634.9L424.739 624.551C404.046 637.811 364.925 649.777 332.27 654.628C338.413 660.127 346.173 670.153 350.376 676.621C383.677 669.182 424.092 652.365 446.724 634.9Z" stroke="#A76C47"/>
<path d="M525.613 622.61L506.214 637.811C535.636 649.13 575.08 666.272 595.126 676.297L615.171 658.833C593.509 648.484 554.065 632.959 525.613 622.61Z" stroke="#A76C47"/>
<path fill-rule="evenodd" clip-rule="evenodd" d="M615.818 585.74H488.432V566.335H587.69V543.696H488.432V524.291H602.885V500.681H534.342C540.809 493.243 548.245 484.51 555.358 474.808L530.139 468.34H614.848V444.407H568.614C577.02 432.44 586.72 416.269 595.449 400.422L564.411 392.336C559.561 406.89 549.538 427.265 541.779 440.202L554.388 444.407H519.147V388.779H490.695V444.407H458.687V388.779H430.558V444.407H394.347L411.483 437.938C406.956 425.325 395.64 405.596 385.617 391.689L359.429 400.745C368.482 414.005 378.181 431.793 383.031 444.407H334.857V468.34H417.302L398.55 472.867C404.046 481.276 409.543 492.596 412.776 500.681H347.789V524.291H459.01V543.696H363.632V566.335H459.01V585.74H333.564V610.967H459.01V686H488.432V610.967H615.818V585.74ZM427.972 468.34H523.35C518.823 476.748 511.387 489.038 505.244 497.124L516.883 500.681H428.618L443.168 496.8C440.581 489.362 434.438 477.395 427.972 468.34Z" stroke="#A76C47"/>
<path fill-rule="evenodd" clip-rule="evenodd" d="M53.7004 586.387H165.244V489.038H29.1285V529.789C29.1285 566.335 26.2186 621.316 1 661.097C8.43626 663.684 21.3689 669.506 26.8652 673.71C39.4746 653.011 46.9108 627.785 51.4372 602.882V684.06H76.9791V672.417H146.492V683.413H173.004V599.001H51.7605L53.7004 586.387ZM57.2569 510.707H138.086V527.849H57.2569V510.707ZM138.086 564.718H55.9636C56.2869 558.573 56.6103 552.428 56.9336 546.607H138.086V564.718ZM76.9791 620.346H146.492V649.454H76.9791V620.346Z" stroke="#A76C47"/>
<path d="M121.597 400.745L94.1149 390.396C74.0693 421.767 37.5347 448.611 1.32332 465.429C6.49636 471.897 14.5793 486.774 17.4891 493.566C34.3015 484.51 51.1139 473.514 66.9564 460.901V475.131H133.883V456.373H72.1294C81.8289 448.288 90.8817 439.555 99.2879 430.5C124.183 446.347 153.282 465.429 168.801 478.042L184.32 452.815C169.124 441.172 140.672 423.708 116.1 409.154C116.662 408.311 117.224 407.495 117.778 406.69C119.137 404.717 120.448 402.813 121.597 400.745Z" stroke="#A76C47"/>
<path d="M225.381 601.588V423.708H197.253V601.588H225.381Z" stroke="#A76C47"/>
<path d="M285.518 390.396H256.419V647.837C256.419 653.658 254.479 655.275 248.983 655.275C243.81 655.599 226.998 655.599 208.569 654.952C212.772 663.361 216.975 676.944 218.268 685.03C244.457 685.03 261.269 684.06 271.292 678.885C281.638 674.357 285.518 665.625 285.518 648.16V390.396Z" stroke="#A76C47"/>
<path d="M121.919 243.887L97.0233 224.805C76.3312 241.623 37.5333 262.645 7.14163 274.612C12.9613 280.757 20.3976 291.106 24.2774 297.251C55.639 283.991 94.7601 262.969 121.919 243.887Z" stroke="#A76C47"/>
<path d="M196.605 222.541L179.792 243.564C213.417 259.411 248.658 280.433 269.997 295.31L289.396 272.671C267.411 258.117 230.229 238.065 196.605 222.541Z" stroke="#A76C47"/>
<path fill-rule="evenodd" clip-rule="evenodd" d="M127.738 98.3487V171.765H174.942V98.3487H127.738ZM141.318 153.33V116.784H161.04V153.33H141.318Z" stroke="#A76C47"/>
<path d="M176.559 59.862H124.505V79.5905H176.559V59.862Z" stroke="#A76C47"/>
<path fill-rule="evenodd" clip-rule="evenodd" d="M296.186 194.404H271.937C274.847 144.598 277.11 71.505 277.757 14.9068H216.65V39.81H251.245C251.245 45.7145 251.166 51.7765 251.086 57.9183C251.005 64.2238 250.922 70.6135 250.922 77.0031H218.267V101.259H250.275C249.952 112.903 249.628 124.546 249.305 135.865H216.003V160.122H248.012C247.688 172.088 247.042 184.055 246.395 194.404H207.921V16.8473H94.4368V194.404H56.2856L55.3156 159.475H86.6773V135.218H54.669L53.3758 100.613H85.384V76.3563H52.7291L51.7592 42.074C65.6617 38.5163 80.2109 34.3119 93.1436 29.784L79.5643 4.23401C65.3384 11.0258 43.6763 18.7878 25.5706 24.286L30.4203 194.404H5.84837V222.218H296.186V194.404ZM116.099 194.404V40.1334H185.288V194.404H116.099Z" stroke="#A76C47"/>
</svg>
