<svg width="1460" height="1205" viewBox="0 0 1460 1205" fill="none" xmlns="http://www.w3.org/2000/svg">
<path fill-rule="evenodd" clip-rule="evenodd" d="M1459.25 644.162C1464.54 662.092 1441.66 680.402 1392.88 742.62C1343.11 806.103 1244.2 837.153 1236.39 870.707C1184.65 1092.84 1239.8 1175.32 1069.57 1200.2C972.96 1214.32 942.69 1198.55 905.297 1136.06C891.345 1112.74 785.19 980.587 721.064 970.513C694.279 966.305 693.631 1029.74 660.092 1060.96C631.037 1088.01 568.446 1084.04 551.029 1074.6C490.877 1042.03 456.902 932.461 406.927 927.152C348.311 920.926 333.262 981.555 272.346 985.194C211.431 988.833 168.401 935.532 163.333 911.622C146.384 831.66 189.941 781.288 144.958 741.341C102.301 703.459 55.2809 702.25 27.5071 651.293C6.24514 612.284 -34.6 489.689 58.2197 407.102C61.3736 404.296 141.403 401.244 122.731 260.405C120.229 241.536 101.409 168.145 128.574 99.9681C147.576 52.2761 237.722 10.3459 263.794 3.96643C342.052 -15.1828 407.888 39.967 442.934 63.6194C598.272 168.456 509.35 300.363 660.808 322.224C812.267 344.085 709.36 228.218 815.847 193.566C950.512 149.745 1081.01 369.354 1090.55 456.98C1111.42 648.571 1394.89 425.764 1459.25 644.162Z" fill="#FFE1DB"/>
</svg>
