<svg width="575" height="334" viewBox="0 0 575 334" fill="none" xmlns="http://www.w3.org/2000/svg">
<path d="M21.959 306.79C22.2712 303.71 22.1573 301.007 22.1573 298.43C22.1573 285.748 23.1392 272.631 22.1191 259.984C21.6986 254.77 21.7175 249.626 21.4324 244.394C20.9622 235.766 19.3975 227.097 20.2496 218.435C21.6677 204.019 23.5308 189.647 23.5308 175.146C23.5308 168.393 23.3906 161.835 22.8059 155.166C21.5231 140.535 22.1573 125.64 22.1573 110.931C22.1573 101.064 21.4705 91.2455 21.4705 81.3772V45.9585C21.4705 44.0963 21.4705 43.4329 21.4705 41.0367C20.9364 36.0096 21.1008 29.0652 29.4437 25.2004C38.066 22.4759 45.1892 24.0868 49.9018 24.0868H67.3309C70.8043 24.0868 74.1093 24.1754 77.556 24.6165C81.8179 25.1619 85.6847 23.4056 89.8033 23.4056C95.6047 23.4056 101.314 24.1747 107.163 24.0868C112.239 24.0105 117.122 22.5257 122.234 23.0651C141.626 25.1111 163.49 24.0868 181.639 24.0868C194.973 24.0868 208.217 23.4056 221.623 23.4056C249.631 23.4056 277.521 25.449 305.599 25.449C385.288 25.449 464.826 20 544.477 20C548.377 20 552.48 21.528 556.364 21.7362C560.231 21.9435 563.067 23.2209 566.759 24.7679C571.334 26.6851 574.313 33.0531 574.313 36.5828V59.127C574.313 85.3851 575 111.579 575 137.797V172.989C575 189.927 573.627 206.723 573.627 223.657C573.627 248.869 575.761 274.286 574.313 299.414C574.029 304.35 574.26 310.515 572.902 315.231C571.797 319.065 566.746 322.991 563.707 325.297C560.371 327.826 556.642 328.418 552.49 328.551C548.548 328.677 544.71 330.296 540.776 330.557C532.863 331.08 524.474 331.698 516.587 331.238C486.008 329.454 455.154 331.275 424.561 331.275C410.332 331.275 395.936 329.913 381.562 329.913C361.27 329.913 340.795 331.275 320.517 331.275C311.293 331.275 301.961 330.894 292.741 331.275C283.415 331.661 274.18 334 264.737 334C259.121 334 253.719 332.716 248.102 332.638C237.113 332.484 226.167 333.319 215.175 333.319C202.333 333.319 186.519 330.856 170.498 333.168C165.037 333.955 159.415 332.638 153.939 332.638C147.822 332.638 141.44 331.62 135.397 331.994C126.925 332.52 118.815 331.957 110.33 331.957H72.825C66.6792 331.957 60.3708 330.594 54.3588 330.594C49.6198 330.594 44.8037 329.558 40.1657 328.702C37.1687 328.149 35.35 328.545 32.4206 327.189C29.7934 325.973 27.4478 323.121 24.9529 320.152C24.0668 316.865 22.957 316.688 22.3099 313.224C21.959 311.739 21.959 312.479 21.959 310.749C21.959 310.254 22.3373 307.956 21.959 306.79Z" fill="#FAFF00"/>
</svg>
