<svg width="1431" height="953" viewBox="0 0 1431 953" fill="none" xmlns="http://www.w3.org/2000/svg">
<path fill-rule="evenodd" clip-rule="evenodd" d="M865.79 23.8602C792.35 82.579 791.456 299.299 555.343 148.95C421.925 63.994 147.816 242.024 27.8429 483.153C11.0341 516.937 -19.8167 664.037 18.0676 754.605C53.1505 838.477 153.16 895.628 235.618 844.098C318.077 792.569 293.456 900.1 354.559 939.789C373.439 952.052 502.951 972.034 568.558 911.167C633.415 850.995 657.376 739.475 722.213 753.604C916.372 795.911 911.044 844.603 1083.54 837.908C1119.03 836.53 1373.95 871.037 1420.87 727.242C1467.45 584.51 1340.74 521.108 1297.26 461.716C1286.21 446.625 1262.72 391.473 1313.77 338.943C1528.59 117.905 1314.89 13.4053 1174.76 87.1593C1034.63 160.913 986.848 -72.9313 865.79 23.8602Z" fill="#FFFFB1"/>
</svg>
