<svg width="560" height="327" viewBox="0 0 560 327" fill="none" xmlns="http://www.w3.org/2000/svg">
<mask id="mask0_288_22221" style="mask-type:alpha" maskUnits="userSpaceOnUse" x="0" y="0" width="560" height="327">
<rect width="560" height="327" fill="#D9D9D9"/>
</mask>
<g mask="url(#mask0_288_22221)">
<path d="M21.9061 300.397C22.2098 297.385 22.099 294.743 22.099 292.223C22.099 279.824 23.0544 266.999 22.0619 254.634C21.6527 249.537 21.6711 244.506 21.3937 239.391C20.9362 230.956 19.4138 222.481 20.2429 214.012C21.6226 199.917 23.4354 185.865 23.4354 171.687C23.4354 165.085 23.2989 158.673 22.7301 152.153C21.482 137.848 22.099 123.285 22.099 108.903C22.099 99.2567 21.4308 89.6572 21.4308 80.0089V45.3799C21.4308 43.5591 21.4308 42.9105 21.4308 40.5678C20.9111 35.6527 21.071 28.8631 29.1884 25.0845C37.5778 22.4207 44.5084 23.9957 49.0936 23.9957H66.0517C69.4312 23.9957 72.6469 24.0824 76.0005 24.5136C80.1472 25.0469 83.9094 23.3297 87.9167 23.3297C93.5614 23.3297 99.1161 24.0816 104.807 23.9957C109.746 23.9211 114.497 22.4694 119.471 22.9967C138.339 24.9972 159.612 23.9957 177.27 23.9957C190.244 23.9957 203.131 23.3297 216.174 23.3297C243.425 23.3297 270.56 25.3275 297.88 25.3275C375.416 25.3275 452.804 20 530.302 20C534.096 20 538.089 21.4939 541.868 21.6975C545.63 21.9002 548.39 23.1491 551.982 24.6616C556.433 26.536 559.332 32.7621 559.332 36.2131V58.2548C559.332 83.9275 560 109.538 560 135.171V169.578C560 186.138 558.664 202.56 558.664 219.117C558.664 243.766 560.74 268.617 559.332 293.185C559.055 298.011 559.28 304.038 557.958 308.65C556.884 312.398 551.969 316.237 549.012 318.491C545.767 320.964 542.138 321.543 538.098 321.672C534.263 321.796 530.529 323.379 526.701 323.633C519.002 324.145 510.84 324.749 503.166 324.299C473.414 322.555 443.393 324.336 413.627 324.336C399.783 324.336 385.776 323.004 371.79 323.004C352.046 323.004 332.125 324.336 312.395 324.336C303.42 324.336 294.34 323.964 285.37 324.336C276.296 324.713 267.31 327 258.122 327C252.658 327 247.402 325.745 241.937 325.668C231.245 325.518 220.595 326.334 209.9 326.334C197.405 326.334 182.019 323.926 166.43 326.186C161.117 326.956 155.647 325.668 150.319 325.668C144.367 325.668 138.158 324.673 132.278 325.039C124.035 325.553 116.145 325.002 107.888 325.002H71.3973C65.4176 325.002 59.2797 323.67 53.4301 323.67C48.8193 323.67 44.1334 322.657 39.6207 321.82C36.7047 321.28 34.9352 321.666 32.0849 320.341C29.5287 319.152 27.2465 316.364 24.819 313.461C23.9569 310.246 22.877 310.074 22.2475 306.687C21.9061 305.235 21.9061 305.959 21.9061 304.267C21.9061 303.784 22.2742 301.537 21.9061 300.397Z" fill="#FFB5B5"/>
</g>
</svg>
