<svg width="708" height="651" viewBox="0 0 708 651" fill="none" xmlns="http://www.w3.org/2000/svg">
<path fill-rule="evenodd" clip-rule="evenodd" d="M55.1907 60.3694C45.4987 68.3855 30.4885 89.9871 34.2972 143.076C38.1832 197.242 81.6819 251.815 73.4215 273.483C18.7359 416.927 -43.0529 442.184 42.5488 520.169C91.1343 564.432 146.596 531.544 180.707 502.12C204.804 481.334 203.088 471.654 247.453 450.863C286.629 432.503 304.386 481.092 305.151 486.589C311.319 530.902 310.187 597.073 340.327 628.157C370.888 659.675 432.836 655.649 455.39 633.832C494.922 595.592 489.569 551.08 529.689 545.727C567.734 540.65 583.673 560.092 618.334 542.114C644.868 528.352 724.512 472.908 703.794 391.868C641.772 149.257 448.934 452.625 546.667 217.608C644.4 -17.4095 385.379 -45.074 301.675 53.9857C217.971 153.045 173.243 -37.2701 55.1907 60.3694Z" fill="#FFFFA6"/>
</svg>
