<svg width="67" height="73" viewBox="0 0 67 73" fill="none" xmlns="http://www.w3.org/2000/svg">
<path d="M11.207 69.8872C11.4633 68.2173 16.1664 54.2642 13.1993 53.4146C4.25806 48.9394 2.90413 40.6725 2.2417 35.4444C0.845194 24.4229 5.47945 12.0408 16.686 5.99337C23.1612 2.49917 28.203 2 33.1226 2C40.1022 2 45.4333 3.75222 51.5518 6.99171C59.521 11.2111 65 21.6583 65 30.9519C65 39.924 61.7602 47.494 54.0422 52.4163C48.2581 56.1051 38.989 59.4046 32.1266 57.408C30.1046 56.8197 28.0605 55.9104 27.6438 56.4096C26.5645 57.7026 25.5437 58.9335 25.1534 59.4046C22.9674 62.0435 23.0244 61.7657 20.5623 64.121C19.7527 64.8955 16.9315 66.8922 14.528 68.5267C13.5014 69.2248 12.1223 70.1212 11.207 70.8856C10.7089 71.3847 11.174 70.1022 11.207 69.8872Z" fill="#A76C47"/>
<path fill-rule="evenodd" clip-rule="evenodd" d="M12.1217 55.1108C2.35054 50.1162 0.92143 40.9351 0.257585 35.6958C-1.22302 24.0106 3.67316 10.7429 15.7363 4.23328C22.5949 0.532173 27.994 0 33.1226 0C40.5133 0 46.1665 1.8774 52.4876 5.22416C61.2154 9.84512 67 21.0428 67 30.9519C67 40.4589 63.5263 48.7398 55.1176 54.1025C52.0641 56.0499 48.1127 57.8843 44.0027 58.977C39.9186 60.0629 35.4834 60.4676 31.5678 59.3283C31.0219 59.1695 30.4821 58.9912 30.0016 58.8317L29.9267 58.8069C29.463 58.6529 29.0687 58.522 28.7222 58.4207C28.6792 58.4081 28.6385 58.3965 28.6001 58.3857C27.7519 59.4039 27.0122 60.2959 26.6936 60.6805C25.0027 62.7217 24.524 63.1638 23.4168 64.1863C23.0294 64.5441 22.565 64.9729 21.9448 65.5662C21.4223 66.0661 20.3963 66.8401 19.3146 67.6221C18.1873 68.4372 16.8644 69.3565 15.6527 70.1805C15.4482 70.3196 15.2385 70.4608 15.0275 70.6031C14.1292 71.2083 13.2053 71.8308 12.5444 72.3747C12.4027 72.5078 12.1207 72.7427 11.7268 72.8813C11.4415 72.9817 10.9196 73.0929 10.3251 72.8729C9.70183 72.6422 9.35731 72.1822 9.19303 71.8438C8.94173 71.3261 8.97566 70.8323 8.98291 70.7268C8.98316 70.7232 8.98338 70.72 8.98355 70.7173C8.99549 70.5318 9.02564 70.3651 9.04817 70.2546C9.0943 70.0284 9.16006 69.7955 9.19892 69.6584C9.22684 69.56 9.24022 69.5107 9.24518 69.4935C9.30604 69.152 9.43182 68.675 9.5577 68.2111C9.65154 67.8652 9.76511 67.4574 9.88918 67.0118C9.96185 66.7509 10.0381 66.4769 10.1161 66.195C10.545 64.6449 11.0523 62.7603 11.4587 60.9135C11.8712 59.0391 12.1524 57.3218 12.1762 56.074C12.1848 55.6192 12.1567 55.307 12.1217 55.1108ZM11.207 70.8856C11.5252 70.6198 11.8995 70.3381 12.2955 70.0543C12.4045 69.9763 12.515 69.8981 12.6265 69.82C12.8864 69.638 13.1513 69.4568 13.4123 69.2799C13.5944 69.1565 13.7745 69.0352 13.9496 68.9174C14.1506 68.7821 14.3449 68.6512 14.528 68.5267C16.9315 66.8922 19.7527 64.8955 20.5623 64.121C21.2181 63.4936 21.6952 63.0531 22.0836 62.6944C23.1532 61.7067 23.5497 61.3406 25.1534 59.4046C25.5437 58.9335 26.5645 57.7026 27.6438 56.4096C27.9499 56.0429 29.1343 56.4363 30.5429 56.9041C31.0518 57.0731 31.59 57.2518 32.1266 57.408C38.989 59.4046 48.2581 56.1051 54.0422 52.4162C61.7603 47.494 65 39.924 65 30.9519C65 21.6583 59.521 11.2111 51.5518 6.99171C45.4333 3.75222 40.1023 2 33.1226 2C28.203 2 23.1612 2.49917 16.6861 5.99337C5.47947 12.0408 0.845213 24.4229 2.24172 35.4444C2.90415 40.6725 4.25808 48.9394 13.1993 53.4146C15.5632 54.0914 13.0587 63.0851 11.813 67.5587C11.7662 67.7268 11.7211 67.8886 11.6782 68.0433C11.5739 68.4189 11.4821 68.7529 11.4072 69.0354C11.3037 69.4265 11.2328 69.7191 11.207 69.8872C11.1998 69.9344 11.1717 70.033 11.1376 70.153C11.0945 70.3044 11.0417 70.4898 11.009 70.6485C11.0067 70.6596 11.0045 70.6706 11.0024 70.6814C10.9505 70.9515 10.966 71.1271 11.207 70.8856ZM12.9653 71.0655C12.9653 71.0651 12.9657 71.0632 12.9664 71.0595C12.9657 71.0639 12.9652 71.066 12.9653 71.0655ZM28.0644 58.2649C28.0648 58.265 28.0652 58.265 28.0656 58.265L28.0644 58.2649Z" fill="#A76C47"/>
<path d="M26.6559 39.0322V29.9962H23.3439V39.0322H26.6559ZM30.2199 42.7762H23.3439V45.4402H19.7439V34.5322C19.3119 35.1802 18.8799 35.7562 18.4119 36.3322C18.2319 35.1442 17.4759 32.3722 16.8999 31.1122C19.1319 28.1242 20.6079 23.7322 21.5439 18.9802H17.4039V15.0922H30.2559V18.9802H25.5399C25.0359 21.4282 24.4239 23.9122 23.6319 26.2522H30.2199V42.7762ZM35.3679 31.8682H38.4999V31.6522V29.6002H35.3679V31.8682ZM35.3679 24.3802V26.6122H38.4999V24.3802H35.3679ZM45.8079 24.3802H42.5679V26.6122H45.8079V24.3802ZM45.8079 31.8682V29.6002H42.5679V31.6882V31.8682H45.8079ZM49.7679 35.0722H42.3519C42.0639 37.1962 41.4519 39.2122 40.3359 41.0122C43.1079 42.3802 46.6719 43.2082 51.0999 43.4962C50.2359 44.3602 49.1559 46.0882 48.6519 47.2402C44.1879 46.7002 40.5879 45.6562 37.7439 44.0002C36.2679 45.2242 34.2879 46.3402 31.8039 47.1682C31.2639 46.2682 30.0399 44.6122 29.2479 43.8562C31.5879 43.3162 33.3519 42.5242 34.6479 41.5882C33.2799 40.2202 32.1279 38.5642 31.1559 36.6202L34.8279 35.7922C35.4399 36.9442 36.1959 37.9522 37.0959 38.8522C37.7799 37.6642 38.1399 36.4042 38.3199 35.0722H31.5879V21.1762H38.4999V18.8002H31.0479V14.9482H50.5239V18.8002H42.5679V21.1762H49.7679V35.0722Z" fill="white"/>
</svg>
