<svg width="1483" height="885" viewBox="0 0 1483 885" fill="none" xmlns="http://www.w3.org/2000/svg">
<path fill-rule="evenodd" clip-rule="evenodd" d="M978.95 13.621C895.643 57.272 853.394 269.932 650.299 77.226C535.537 -31.6649 232.453 90.8638 68.6428 304.772C10.2449 381.03 -12.6758 473.316 7.22681 569.487C25.6578 658.548 112.929 733.758 203.717 698.888C294.505 664.018 249.807 764.921 302.217 815.558C318.411 831.204 441.74 875.54 517.767 828.285C592.926 781.57 637.737 676.623 698.692 702.87C881.225 781.468 866.7 828.27 1037.32 854.611C1072.43 860.03 1316.1 942.562 1389.61 810.301C1462.58 679.018 1350.3 592.576 1318.95 525.953C1310.98 509.024 1298.44 450.378 1358.59 408.534C1611.68 232.454 1421.83 89.0518 1270.19 134.742C1118.54 180.432 1116.27 -58.3329 978.95 13.621Z" fill="#FFE1DB"/>
</svg>
