<svg width="1621" height="491" viewBox="0 0 1621 491" fill="none" xmlns="http://www.w3.org/2000/svg">
<path d="M119.363 51.3688L119.874 50.7021L119.208 50.1913L76.9743 17.842C67.8371 10.8433 54.755 12.5757 47.7546 21.7117L28.6867 46.5963C21.6863 55.7322 23.4185 68.8119 32.5557 75.8107L74.7889 108.16L75.4557 108.671L75.9666 108.004L119.363 51.3688Z" fill="#2C2C2C" stroke="white" stroke-width="1.68"/>
<path d="M118.699 50.8579L75.3024 107.493" stroke="white" stroke-width="1.68"/>
<path d="M102.541 109.263C111.121 115.834 123.405 114.208 129.978 105.63C136.551 97.0517 134.924 84.7702 126.345 78.1984C117.765 71.6266 105.481 73.253 98.908 81.8312C92.3349 90.4094 93.9617 102.691 102.541 109.263Z" fill="#FFFFB1" stroke="#2C2C2C"/>
<path d="M147.977 63.2148L117.853 49.9388L74.3284 106.74L95.2269 132.056L147.977 63.2148Z" fill="#2C2C2C"/>
<path d="M83.1992 44.5869L102.732 59.5486" stroke="white" stroke-width="1.68" stroke-linecap="round"/>
<path d="M78.7109 50.4458L98.2439 65.4074" stroke="white" stroke-width="1.68" stroke-linecap="round"/>
<path d="M74.2188 56.3047L93.7518 71.2663" stroke="white" stroke-width="1.68" stroke-linecap="round"/>
<path d="M138.266 98.0347L151.887 101.495" stroke="#2C2C2C"/>
<path d="M131.531 106.823L143.739 116.174" stroke="#2C2C2C"/>
<path d="M125.289 115.985L132.177 128.234" stroke="#2C2C2C"/>
<path d="M0 55.2354L0 35.5539H51.6752C57.11 35.5539 61.5159 39.9598 61.5159 45.3946C61.5159 50.8295 57.1101 55.2354 51.6752 55.2354H0Z" fill="#2C2C2C"/>
<path d="M0 55.2354H51.6752C57.11 55.2354 61.5159 50.8295 61.5159 45.3946V45.3946C61.5159 39.9598 57.11 35.5539 51.6752 35.5539H0" stroke="white"/>
<path d="M46.2031 45.5C46.2031 47.7093 47.9948 49.5 50.2038 49.5C52.4128 49.5 54.2044 47.7093 54.2044 45.5C54.2044 43.2907 52.4128 41.5 50.2038 41.5C47.9948 41.5 46.2031 43.2907 46.2031 45.5Z" fill="#2C2C2C" stroke="white"/>
</svg>
