<svg width="271" height="250" viewBox="0 0 271 250" fill="none" xmlns="http://www.w3.org/2000/svg">
<path d="M125.898 44.8305C107.048 32.4765 88.7525 30.186 71.8772 38.5267C49.8247 49.4263 39.8716 65.781 38.644 90.3955C38.5786 90.8601 38.5583 91.3309 38.5837 91.8008C38.56 92.46 38.5423 93.125 38.5305 93.7959C38.4248 99.8508 39.9696 105.746 43.6637 115.235L44.1366 116.44C44.6252 117.676 45.9975 121.052 47.2626 124.165L47.275 124.196C47.8527 125.617 48.4074 126.982 48.8445 128.061L50.0509 131.067C52.168 136.403 53.9602 141.202 55.689 146.252C57.2675 150.863 58.9619 160.318 60.6432 174.275L60.8113 175.685C61.2773 179.639 64.853 182.465 68.7979 181.997C72.7427 181.53 75.5629 177.946 75.0969 173.993C73.2451 158.281 71.3587 147.6 69.2955 141.573L68.8767 140.357C67.3364 135.917 65.7388 131.634 63.9226 127.016L62.9094 124.462C62.5009 123.44 61.5431 121.083 60.5349 118.603L60.5343 118.601C59.7406 116.648 58.9158 114.619 58.3031 113.103L57.3057 110.61C54.3593 103.107 53.071 98.6109 52.9249 95.0187C67.7005 84.2273 80.3644 81.1453 91.2963 85.0271C103.297 89.2884 109.823 95.9534 111.796 105.384C112.611 109.28 116.423 111.776 120.311 110.959C124.199 110.142 126.69 106.321 125.875 102.425C122.802 87.7354 112.571 77.2861 96.1014 71.4381C83.3313 66.9036 69.6816 68.6998 55.3494 76.4401C58.748 65.2789 65.9088 57.5505 78.2388 51.4563C90.2048 45.5421 103.178 47.1662 118.024 56.8964C121.348 59.0751 125.806 58.1404 127.98 54.8085C130.154 51.4766 129.222 47.0093 125.898 44.8305Z" fill="#62625A" fill-opacity="0.1"/>
<path fill-rule="evenodd" clip-rule="evenodd" d="M84.816 249.729C113.681 246.687 138.427 218.558 135.339 189.097C134.989 185.759 134.307 182.206 133.438 179.162L133.104 178.046C128.197 162.413 136.352 152.527 145.958 140.882C147.193 139.384 148.453 137.857 149.712 136.285C163.602 118.939 169.969 97.1518 167.641 74.9366C162.833 29.0772 125.29 -7.10432 69.5083 1.18998C42.7131 5.17418 24.8249 17.1477 13.854 32.2228C1.98565 48.531 -1.76324 68.6944 0.734913 92.5251C2.05036 105.074 6.90738 115.317 11.8549 125.751C15.1951 132.795 18.5765 139.926 20.9374 147.913C25.1209 162.065 25.9965 173.239 26.9983 186.024C27.3523 190.541 27.7219 195.259 28.2588 200.381C31.3472 229.842 55.9515 252.771 84.816 249.729ZM71.0935 16.3116C116.722 11.5033 148.751 38.9914 152.684 76.5127C154.589 94.6889 149.38 112.515 138.015 126.707L131.602 134.618C120.129 148.85 110.489 162.61 116.093 181.904L116.386 182.873C117.108 185.174 117.71 188.184 117.998 190.924C120.212 212.047 100.471 231.502 79.8536 233.675C59.2361 235.848 45.4296 219.928 43.2153 198.805C42.6691 193.594 42.2702 188.792 41.8898 184.213C40.7357 170.32 39.7529 158.487 35.3471 143.583C33.0204 135.712 29.6337 128.735 26.3085 121.884C21.5425 112.064 16.9027 102.505 15.6914 90.949C13.3164 68.2928 17.5158 48.8614 31.1481 34.9133C40.0926 25.7617 53.0166 18.2166 71.0935 16.3116Z" fill="#62625A" fill-opacity="0.1"/>
<path d="M202.336 103.608C198.379 103.955 194.89 101.021 194.544 97.0556C194.198 93.0897 197.126 89.5933 201.083 89.2462L263.181 83.7986C267.138 83.4515 270.626 86.385 270.972 90.3509C271.318 94.3168 268.391 97.8132 264.434 98.1603L202.336 103.608Z" fill="#62625A" fill-opacity="0.1"/>
<path d="M251.314 167.173C255.138 168.645 256.943 173.033 255.264 176.777C253.713 180.239 249.734 181.883 246.199 180.523L197.344 161.724C193.521 160.253 191.716 155.864 193.394 152.12C194.946 148.659 198.925 147.015 202.459 148.375L251.314 167.173Z" fill="#62625A" fill-opacity="0.1"/>
<path d="M191.76 36.5604C193.49 39.9354 197.549 41.368 201.008 39.8243L248.816 18.4846C252.558 16.8145 254.131 12.3371 252.26 8.68602C250.53 5.31106 246.471 3.87842 243.012 5.42221L195.204 26.7619C191.462 28.432 189.889 32.9093 191.76 36.5604Z" fill="#62625A" fill-opacity="0.1"/>
</svg>
