<svg width="450" height="414" viewBox="0 0 450 414" fill="none" xmlns="http://www.w3.org/2000/svg">
<path fill-rule="evenodd" clip-rule="evenodd" d="M35.0261 38.4123C28.8569 43.5106 19.3018 57.2488 21.723 91.0098C24.1935 125.456 51.8769 160.159 46.6181 173.939C11.8033 265.164 -27.526 281.23 26.9542 330.819C57.876 358.965 93.1786 338.047 114.892 319.333C130.23 306.113 129.139 299.957 157.377 286.733C182.314 275.055 193.613 305.954 194.1 309.45C198.023 337.629 197.299 379.711 216.481 399.476C235.931 419.518 275.36 416.955 289.717 403.079C314.881 378.759 311.477 350.452 337.012 347.045C361.228 343.815 371.372 356.178 393.434 344.743C410.324 335.989 461.019 300.726 447.837 249.191C408.374 94.9071 285.618 287.842 347.837 138.38C410.056 -11.0832 245.193 -28.6619 191.911 34.339C138.629 97.3398 110.17 -23.6873 35.0261 38.4123Z" fill="white"/>
</svg>
